<svg xmlns="http://www.w3.org/2000/svg" viewBox="0 0 82.99 80.33"><g id="Layer_2" data-name="Layer 2"><g id="Sticky_Menus" data-name="Sticky Menus"><path d="M66.7,0H57a1.14,1.14,0,0,0,0,2.27H66.7a14.27,14.27,0,0,1,14,14.48V55.67a14.27,14.27,0,0,1-14,14.48H15.44a1.14,1.14,0,0,0-.68.23L6.08,76.92V68.54A1.13,1.13,0,0,0,5,67.4H5a1.13,1.13,0,0,0-1.13,1.14l0,10.66a1.15,1.15,0,0,0,1.82.91l10.19-7.69H66.7A16.55,16.55,0,0,0,83,55.67V16.75A16.54,16.54,0,0,0,66.7,0ZM5,61.36A1.16,1.16,0,0,0,6.12,60.2V50A1.16,1.16,0,0,0,3.8,50V60.2A1.16,1.16,0,0,0,5,61.36Zm66.3-46.23c0-3.14-1.19-4.09-5.1-4.09H61.74V22.47a1.16,1.16,0,0,0,2.31,0V19.25h2.06c.3,0,.58,0,.85,0L68.86,23a1.16,1.16,0,1,0,2-1.07l-1.64-3.06C70.91,18.27,71.26,16.94,71.26,15.13Zm-5.15,2H64.05V13.11h2.06c1.9,0,2.8.2,2.8,2S67.84,17.17,66.11,17.17ZM10.84,41.41a1.08,1.08,0,0,0-1.08-1.08H5.86V31.08a1.16,1.16,0,0,0-2.32,0V42.49H9.76A1.08,1.08,0,0,0,10.84,41.41Zm35-17.48c3.5,0,4.93-1.83,4.93-6.31V12.24a1.19,1.19,0,1,0-2.37,0v5.38c0,3.21-.63,4.24-2.58,4.24s-2.55-1-2.55-4.24V12.21a1.16,1.16,0,0,0-2.32,0v5.41C41,22.1,42.41,23.93,45.88,23.93ZM62.5,61.36a1.08,1.08,0,0,0,1-.72l.75-2.07h4.84l.71,2A1.14,1.14,0,1,0,72,59.82l-3.76-10a1.56,1.56,0,0,0-2.91,0l-3.82,10.1A1.09,1.09,0,0,0,62.5,61.36Zm4.19-9.62,1.69,4.75H65ZM69.87,32a1,1,0,0,0,0-2.08H62.45V42.49H70a1,1,0,1,0,0-2.07H64.77V37H69a1,1,0,0,0,0-2H64.77V32ZM24.8,23.93c3.69,0,5.27-2,5.27-6.57s-1.63-6.63-5.27-6.63-5.25,2-5.25,6.63S21.12,23.93,24.8,23.93Zm0-11.13c2.12,0,2.91,1.24,2.91,4.56s-.76,4.5-2.91,4.5-2.92-1.22-2.92-4.5S22.67,12.8,24.8,12.8ZM40.18,60.33a1.46,1.46,0,0,0,2.8,0l2.22-7.91,2.24,7.85a1.56,1.56,0,0,0,3,0l3-10a1.15,1.15,0,1,0-2.21-.62l-2.19,8.53-2.36-8.29a1.52,1.52,0,0,0-2.92,0l-2.16,8.14L39.47,49.7a1.21,1.21,0,1,0-2.33.66ZM48.62,32a1,1,0,1,0,0-2.1H41.46V41.34a1.16,1.16,0,0,0,2.32,0v-4h4a1,1,0,0,0,0-2.06h-4V32ZM22.44,61.68c3.69,0,5.27-2,5.27-6.58s-1.63-6.63-5.27-6.63-5.25,2.05-5.25,6.63S18.76,61.68,22.44,61.68Zm0-11.13c2.13,0,2.92,1.23,2.92,4.55s-.76,4.5-2.92,4.5-2.92-1.22-2.92-4.5S20.32,50.55,22.44,50.55Zm1.41-19.47V41.34a1.16,1.16,0,0,0,2.32,0V31.08a1.16,1.16,0,0,0-2.32,0ZM3.76,22.46a1.17,1.17,0,0,0,2.34,0V19.2l3.49-6.47a1.14,1.14,0,1,0-2-1.06L5,16.81,2.2,11.67A1.17,1.17,0,1,0,.15,12.8l3.61,6.4Z"/></g></g></svg>