<?xml version="1.0" encoding="utf-8"?>
<!-- Generator: Adobe Illustrator 24.2.0, SVG Export Plug-In . SVG Version: 6.00 Build 0)  -->
<svg version="1.1" id="Layer_1" xmlns="http://www.w3.org/2000/svg" xmlns:xlink="http://www.w3.org/1999/xlink" x="0px" y="0px"
	 viewBox="0 0 800 800" style="enable-background:new 0 0 800 800;" xml:space="preserve">
<style type="text/css">
	.st0{fill:#FFFFFF;}
</style>
<g>
	<path class="st0" d="M634.3,5.3H167.4C78.1,5.3,5.7,77.7,5.7,167v466.9c0,89.3,72.4,161.7,161.7,161.7h466.9
		c89.3,0,161.7-72.4,161.7-161.7V167C796,77.7,723.6,5.3,634.3,5.3z M494.9,255.4h-55c-5.8,0-10.2,2.2-13.2,6.6s-4.5,10.1-4.5,17.1
		v31.5H495l-10.1,70.3h-62.7v238h-82.3v-238h-33.1v-70.3h33.1v-25.7c0-71.4,26.1-102.8,98-102.8H495L494.9,255.4L494.9,255.4z"/>
</g>
</svg>
