<?xml version="1.0" encoding="utf-8"?>
<!-- Generator: Adobe Illustrator 24.2.0, SVG Export Plug-In . SVG Version: 6.00 Build 0)  -->
<svg version="1.1" id="Layer_1" xmlns="http://www.w3.org/2000/svg" xmlns:xlink="http://www.w3.org/1999/xlink" x="0px" y="0px"
	 viewBox="0 0 800 800" style="enable-background:new 0 0 800 800;" xml:space="preserve">
<style type="text/css">
	.st0{fill:#FFFFFF;}
</style>
<g>
	<path class="st0" d="M500.4,210.8H301.9c-49.2,0-89.1,40-89.1,89.1v198.5c0,49.2,40,89.1,89.1,89.1h198.5c49.2,0,89.1-40,89.1-89.1
		V299.9C589.5,250.8,549.5,210.8,500.4,210.8z M401.1,517.5c-65.2,0-118.3-53.1-118.3-118.3s53.1-118.3,118.3-118.3
		S519.4,334,519.4,399.2S466.4,517.5,401.1,517.5z M524.4,294.4c-10.2,0-18.4-8.3-18.4-18.4s8.3-18.4,18.4-18.4
		c10.2,0,18.4,8.3,18.4,18.4S534.6,294.4,524.4,294.4z"/>
	<path class="st0" d="M401.1,317.3c-45.2,0-81.9,36.7-81.9,81.9s36.7,81.9,81.9,81.9l0,0c45.2,0,81.9-36.7,81.9-81.9
		S446.3,317.3,401.1,317.3z"/>
	<path class="st0" d="M635,3.3H167.3c-89.5,0-162,72.5-162,162V633c0,89.5,72.5,162,162,162H635c89.5,0,162-72.5,162-162V165.3
		C797,75.8,724.5,3.3,635,3.3z M625.9,498.4c0,69.2-56.3,125.5-125.5,125.5H301.9c-69.2,0-125.5-56.3-125.5-125.5V299.9
		c0-69.2,56.3-125.5,125.5-125.5h198.5c69.2,0,125.5,56.3,125.5,125.5V498.4z"/>
</g>
</svg>
