<?xml version="1.0" encoding="utf-8"?>
<!-- Generator: Adobe Illustrator 24.2.0, SVG Export Plug-In . SVG Version: 6.00 Build 0)  -->
<svg version="1.1" id="Layer_1" xmlns="http://www.w3.org/2000/svg" xmlns:xlink="http://www.w3.org/1999/xlink" x="0px" y="0px"
	 viewBox="0 0 800 800" style="enable-background:new 0 0 800 800;" xml:space="preserve">
<style type="text/css">
	.st0{fill:#FFFFFF;}
</style>
<g>
	<path class="st0" d="M634.4,5.3H167.7C78.4,5.3,6.1,77.7,6.1,167v466.6c0,89.3,72.4,161.6,161.6,161.6h466.6
		c89.3,0,161.6-72.4,161.6-161.6V167C796,77.7,723.6,5.3,634.4,5.3z M580.7,317.2c0,3.8,0,7.7-0.2,11.6c-0.6,17.8-3.4,36-8.1,53.9
		c-26.6,101.5-111.5,204-253.9,199.1c-51.4-1.8-104.8-25.2-144.2-52.1c7.1,1.1,104.1-9.5,136.1-32.4c-31.5,3.4-72.5-29.2-82.9-65.2
		c5.5,1.3,11.2,2,17.1,2.2c8.3,0.3,16.4-0.6,24.1-2.3c-63.8-24.8-70.4-79-70-90.5c0-0.4,0-0.7,0-1.1c12,7.1,26,11.7,40.9,12.6
		c-54.9-50.1-38.9-110.4-30.7-123.4c43,55.8,115.5,96.6,191.1,103c-1.3-6.6-1.9-13.5-1.6-20.5c1.7-49.5,43.9-88.2,94.2-86.5
		c26.2,0.9,49.5,12.6,65.5,30.6c20.9-3.3,36.5-8.2,54.5-17.9c-7.6,20.7-18.4,35.9-37.6,46.3c18.5-1.5,36.2-5.7,52.8-12.3
		C614.9,289.9,598.9,305.2,580.7,317.2z"/>
</g>
</svg>
