<?xml version="1.0" encoding="utf-8"?>
<!-- Generator: Adobe Illustrator 24.2.0, SVG Export Plug-In . SVG Version: 6.00 Build 0)  -->
<svg version="1.1" id="Layer_1" xmlns="http://www.w3.org/2000/svg" xmlns:xlink="http://www.w3.org/1999/xlink" x="0px" y="0px"
	 viewBox="0 0 800 800" style="enable-background:new 0 0 800 800;" xml:space="preserve">
<style type="text/css">
	.st0{fill:#FFFFFF;}
</style>
<g>
	<path class="st0" d="M634.2,5.3h-467C77.9,5.3,5.5,77.7,5.5,167.1v467c0,89.3,72.4,161.8,161.8,161.8h467
		c89.3,0,161.8-72.4,161.8-161.8v-467C796,77.7,723.6,5.3,634.2,5.3z M616.6,490.5l-1.3,10.3c-4.3,34.5-33.6,60.3-68.4,60.3H254.6
		c-34.7,0-64-25.8-68.4-60.3l-1.3-10.3c-7.5-59.7-7.5-120.1,0-179.8l1.3-10.3c4.3-34.5,33.6-60.3,68.4-60.3h292.3
		c34.7,0,64,25.8,68.4,60.3l1.3,10.3C624.1,370.4,624.1,430.8,616.6,490.5z"/>
	<polygon class="st0" points="344.6,470.3 481,400.6 344.6,330.8 	"/>
</g>
</svg>
