<svg xmlns="http://www.w3.org/2000/svg" viewBox="0 0 34.17 34.17"><defs><style>.cls-1{fill:#0b4da1;}</style></defs><g id="Layer_2" data-name="Layer 2"><g id="Layer_1-2" data-name="Layer 1"><path class="cls-1" d="M17.11,8.55a2.55,2.55,0,0,1-1.71-.62,2.19,2.19,0,0,1-.71-1.74,2.15,2.15,0,0,1,.73-1.67,2.43,2.43,0,0,1,1.69-.66,2.5,2.5,0,0,1,1.65.6,2.1,2.1,0,0,1,.72,1.73,2.17,2.17,0,0,1-.7,1.73A2.41,2.41,0,0,1,17.11,8.55Zm2.37,4.95V27.35a3.13,3.13,0,0,1-.68,2.18,2.29,2.29,0,0,1-1.74.74,2.18,2.18,0,0,1-1.71-.76,3.17,3.17,0,0,1-.66-2.16V13.64a3.06,3.06,0,0,1,.66-2.14,2.21,2.21,0,0,1,1.71-.72,2.31,2.31,0,0,1,1.74.72A2.8,2.8,0,0,1,19.48,13.5Z"/><path class="cls-1" d="M17.08,34.17A17.09,17.09,0,1,1,34.17,17.09,17.1,17.1,0,0,1,17.08,34.17ZM17.08,2A15.09,15.09,0,1,0,32.17,17.09,15.11,15.11,0,0,0,17.08,2Z"/></g></g></svg>