<svg xmlns="http://www.w3.org/2000/svg" viewBox="0 0 23.23 23.23"><defs><style>.cls-1{fill:#fff;}</style></defs><g id="Layer_2" data-name="Layer 2"><g id="Layer_1-2" data-name="Layer 1"><path class="cls-1" d="M21.18,10.44,12.79,2.05a7,7,0,0,0-9.9,0l-.84.84a7,7,0,0,0,0,9.9l8.39,8.39a7,7,0,0,0,9.9,0l.84-.84A7,7,0,0,0,21.18,10.44Zm-.77,9.39-.71.71a6,6,0,0,1-8.48,0l-8.4-8.39a6,6,0,0,1,0-8.49L3.53,3A6,6,0,0,1,12,3l8.4,8.4A6,6,0,0,1,20.41,19.83Z"/><path class="cls-1" d="M9.71,5.17a2.79,2.79,0,0,0-2-.82,2.76,2.76,0,0,0-2,.82L5,5.88a2.8,2.8,0,0,0,0,4l8.48,8.48a2.86,2.86,0,0,0,4,0l.71-.7a2.8,2.8,0,0,0,0-4Zm7.23,11.77a2.11,2.11,0,0,1-3,0L6.29,9.27a2.11,2.11,0,0,1,3-3L16.94,14A2.11,2.11,0,0,1,16.94,16.94Z"/><path class="cls-1" d="M19.49,12.27,11.1,3.87a4.71,4.71,0,0,0-6.65,0l-.71.71a4.71,4.71,0,0,0,0,6.65l8.39,8.39a4.71,4.71,0,0,0,6.65,0l.71-.71A4.7,4.7,0,0,0,19.49,12.27ZM19,18.46l-.71.71a4,4,0,0,1-5.65,0L4.19,10.69A4,4,0,0,1,4.19,5l.71-.71a4,4,0,0,1,5.65,0L19,12.81a4,4,0,0,1,0,5.65Z"/></g></g></svg>