<svg xmlns="http://www.w3.org/2000/svg" viewBox="0 0 23.23 23.23"><defs><style>.cls-1{fill:#fff;}.cls-2{fill:#0b4da1;}</style></defs><g id="Layer_2" data-name="Layer 2"><g id="Layer_1-2" data-name="Layer 1"><path class="cls-1" d="M21.18,10.44,12.79,2.05a7,7,0,0,0-9.9,0l-.84.84a7,7,0,0,0,0,9.9l8.39,8.39a7,7,0,0,0,9.9,0l.84-.84A7,7,0,0,0,21.18,10.44ZM14,16.94,6.29,9.27a2.11,2.11,0,0,1,3-3L16.94,14a2.11,2.11,0,0,1-3,3Z"/><path class="cls-2" d="M11.22,20.41,2.82,12a6,6,0,0,1,0-8.48l.71-.71a6,6,0,0,1,8.48,0l8.4,8.4a6,6,0,0,1,0,8.48l-.71.71A6,6,0,0,1,11.22,20.41ZM11.1,3.74a4.71,4.71,0,0,0-6.65,0l-.71.71a4.71,4.71,0,0,0,0,6.65l8.39,8.39a4.71,4.71,0,0,0,6.65,0l.71-.71a4.71,4.71,0,0,0,0-6.65Z"/><path class="cls-2" d="M15.5,20.21A4,4,0,0,1,12.68,19L4.19,10.55a4,4,0,0,1,0-5.65l.71-.71a4,4,0,0,1,5.65,0L19,12.68a4,4,0,0,1,0,5.65l-.71.71A4,4,0,0,1,15.5,20.21Zm-7.77-16a2.76,2.76,0,0,0-2,.82L5,5.75a2.76,2.76,0,0,0-.82,2,2.79,2.79,0,0,0,.82,2l8.48,8.48a2.86,2.86,0,0,0,4,0l.71-.71a2.76,2.76,0,0,0,.82-2,2.79,2.79,0,0,0-.82-2L9.71,5A2.79,2.79,0,0,0,7.73,4.22Z"/></g></g></svg>