<svg id="Layer_1" data-name="Layer 1" xmlns="http://www.w3.org/2000/svg" viewBox="0 0 243.12 243.12"><defs><style>.cls-1{fill:#d7182a;fill-rule:evenodd;}</style></defs><path class="cls-1" d="M190.84,21.84c-3.41-2.18-5.68-1.55-6-.54-.18.69.1,1.76,1.67,3.13,13.41,11.76,40.37,39.45,45.57,78.16,5.59,41.73-10.41,75.73-13.2,55.44-1.23-9-2.24-18.16-4.83-27.86a133.56,133.56,0,0,0-7.17-21.41,51,51,0,0,0-3.84-7.06c-8-12.09-19-10.76-24.77.36-10.24,19.63-6.89,126.11-43.74,120.61-14.44-2.14-11.06-18.92-13.64-61.18C116.09,82.43,68.29,78.25,73.78,75,80.43,71.1,96.24,79,123.4,80c16.65.65,40.68-2.22,45.65-10.24,4.74-7.68-1.23-22-18.48-34.86C136,24,118.34,18.51,132.23,14.78c5.67-1.52,17.08-2,26.79-.93,5.48.64,11.64,1.82,14.89,2.17s4.11-1.7-.34-4.26c-9.78-5-17.58-7.29-28.87-9.49C78.83-10.6,15.06,32.59,2.26,98.74-8.34,153.49,19.19,207,66.5,230.83c6,3,9.18,4,9.82,2.37.17-.44-.1-1.07-.79-1.69-5.15-4.62-34.74-23.33-47.29-55.72-2.91-7.52-10.83-28.25-6.77-50.64,2-11.26,12.15-19,21.26-19.49,28.33-1.67,45.93,30.48,52.53,76.92s17.27,58.87,36.3,60.44c26.47,2.16,55.64-29.87,58.58-100.73.32-7.86,1.63-11.17,4.32-11.14,3.37,0,10.4,24.08,11.46,53.57.54,15.28,4.36,24.07,14.15,9.93a135.49,135.49,0,0,0,20.71-49.34C250.36,95.84,229.94,48.41,190.84,21.84ZM85.22,41.8S97.66,32,107.11,32.19c5.79.13,19.34,7.84,26.3,12.43,3.93,2.58,10.63,9.61,2.59,12.9-9.43,3.87-25.32,1.68-48.53-3.64C73.37,50.65,85.22,41.8,85.22,41.8Z"/></svg>