<svg xmlns="http://www.w3.org/2000/svg" viewBox="0 0 46.92 46.92"><defs><style>.cls-1{fill:#6D5935;}.cls-2{fill:#fff;}.cls-3{fill:#000;}</style></defs><g id="Layer_2" data-name="Layer 2"><g id="Layer_1-2" data-name="Layer 1"><circle class="cls-1" cx="23.46" cy="23.46" r="23.46"/><path class="cls-2" d="M9,13.27,6.16,11l1-1.19a2.66,2.66,0,0,1,.6-.59.88.88,0,0,1,.53-.11,1,1,0,0,1,.54.24,1,1,0,0,1,.37.6,1.17,1.17,0,0,1-.19.75,1.83,1.83,0,0,1,.48-.11,4.09,4.09,0,0,1,.71,0l.81.1-.54.67-.93-.08a4.47,4.47,0,0,0-.65,0,.49.49,0,0,0-.25.08,1,1,0,0,0-.26.26l-.09.11,1.16.93ZM7.79,11.41,8.13,11a2.64,2.64,0,0,0,.37-.54.43.43,0,0,0,0-.25A.57.57,0,0,0,8.35,10a.43.43,0,0,0-.29-.1.41.41,0,0,0-.28.12l-.34.4-.35.44Z"/><path class="cls-2" d="M11.18,10.6,8.87,7.87l2-1.71.39.46L9.82,7.87l.51.6L11.7,7.31l.39.46L10.72,8.93l.63.75,1.52-1.29.39.46Z"/><path class="cls-2" d="M12.91,7.67l.58-.41a.91.91,0,0,0,.48.33.77.77,0,0,0,.53-.12.81.81,0,0,0,.39-.39.44.44,0,0,0,0-.39.35.35,0,0,0-.17-.15.6.6,0,0,0-.3,0c-.09,0-.28.07-.58.15a1.87,1.87,0,0,1-.89.09.94.94,0,0,1-.76-1,1.06,1.06,0,0,1,.21-.53,1.71,1.71,0,0,1,.55-.46,1.53,1.53,0,0,1,1-.25,1.05,1.05,0,0,1,.7.51l-.61.39a.6.6,0,0,0-.37-.25.74.74,0,0,0-.46.12.83.83,0,0,0-.36.36.25.25,0,0,0,0,.25.26.26,0,0,0,.2.13A1.92,1.92,0,0,0,13.76,6a3.88,3.88,0,0,1,.81-.16.93.93,0,0,1,.52.12,1.07,1.07,0,0,1,.41.43,1,1,0,0,1,.13.58,1,1,0,0,1-.22.59A2.11,2.11,0,0,1,14.8,8a1.53,1.53,0,0,1-1.06.25A1.39,1.39,0,0,1,12.91,7.67Z"/><path class="cls-2" d="M16.44,7.06,15.26,3.69l1.1-.39a4.54,4.54,0,0,1,.82-.23,1,1,0,0,1,.6.16,1.07,1.07,0,0,1,.43.59,1.18,1.18,0,0,1,.07.57,1,1,0,0,1-.17.43,1.13,1.13,0,0,1-.3.28,4.06,4.06,0,0,1-.69.3l-.44.15.44,1.27Zm-.3-3,.34,1,.37-.13a2.38,2.38,0,0,0,.52-.24.54.54,0,0,0,.16-.24.54.54,0,0,0-.23-.56A.53.53,0,0,0,17,3.76a2.78,2.78,0,0,0-.5.15Z"/><path class="cls-2" d="M19.08,4.31a2.17,2.17,0,0,1,0-.93,1.54,1.54,0,0,1,.26-.53,1.33,1.33,0,0,1,.41-.38,1.9,1.9,0,0,1,.75-.25,1.69,1.69,0,0,1,1.32.31,1.91,1.91,0,0,1,.65,1.29,1.83,1.83,0,0,1-.28,1.4,1.64,1.64,0,0,1-1.18.66,1.69,1.69,0,0,1-1.32-.31A1.84,1.84,0,0,1,19.08,4.31Zm.73-.13a1.33,1.33,0,0,0,.41.88.91.91,0,0,0,.75.21.93.93,0,0,0,.66-.4,1.41,1.41,0,0,0,.14-1A1.36,1.36,0,0,0,21.38,3a.94.94,0,0,0-.75-.2.89.89,0,0,0-.67.4A1.4,1.4,0,0,0,19.81,4.18Z"/><path class="cls-2" d="M23.17,5.6,23.41,2l.7.05,1.3,2.49.16-2.38.67,0L26,5.8l-.73,0L24,3.32l-.17,2.33Z"/><path class="cls-2" d="M26.73,4.74l.7.11a.84.84,0,0,0,.11.57.81.81,0,0,0,.46.3.78.78,0,0,0,.55,0,.42.42,0,0,0,.26-.29.37.37,0,0,0,0-.23A.52.52,0,0,0,28.58,5l-.52-.3a1.91,1.91,0,0,1-.69-.55.91.91,0,0,1-.13-.78.89.89,0,0,1,.28-.46A1,1,0,0,1,28,2.66a1.78,1.78,0,0,1,.71.06,1.53,1.53,0,0,1,.91.55,1.07,1.07,0,0,1,.14.85L29.09,4A.58.58,0,0,0,29,3.53a.7.7,0,0,0-.41-.24.88.88,0,0,0-.51,0,.26.26,0,0,0-.16.19.24.24,0,0,0,0,.23,1.82,1.82,0,0,0,.58.41,3.42,3.42,0,0,1,.69.45,1.09,1.09,0,0,1,.29.45,1.08,1.08,0,0,1,0,.59,1.06,1.06,0,0,1-.32.51,1,1,0,0,1-.57.26,1.85,1.85,0,0,1-.78-.08,1.5,1.5,0,0,1-.93-.57A1.34,1.34,0,0,1,26.73,4.74Z"/><path class="cls-2" d="M29.67,6.83,31,3.53l.66.27L30.33,7.11Z"/><path class="cls-2" d="M32.7,4.21l1.23.72a4.82,4.82,0,0,1,.53.35,1,1,0,0,1,.25.32A.86.86,0,0,1,34.8,6a.79.79,0,0,1-.12.42.8.8,0,0,1-.35.33.85.85,0,0,1-.47.09,1,1,0,0,1,.27.53.94.94,0,0,1-.12.56,1.13,1.13,0,0,1-.34.35.94.94,0,0,1-.45.16.92.92,0,0,1-.5-.1A6.45,6.45,0,0,1,32,7.92L30.9,7.3Zm-.39,2.11-.49.83.58.33a2.33,2.33,0,0,0,.44.23.44.44,0,0,0,.3,0,.41.41,0,0,0,.24-.21.46.46,0,0,0,.07-.27A.43.43,0,0,0,33.34,7a2.81,2.81,0,0,0-.53-.37ZM33,5.09l-.41.72L33,6c.24.15.39.23.45.26a.46.46,0,0,0,.32,0A.32.32,0,0,0,34,6.15a.37.37,0,0,0,.06-.28.45.45,0,0,0-.17-.25l-.53-.32Z"/><path class="cls-2" d="M33.87,9.13l2.31-2.69.55.47L34.81,9.14l1.36,1.17-.39.46Z"/><path class="cls-2" d="M36,11l2.77-2.26,1.67,2.06-.46.38L38.8,9.73l-.62.5,1.14,1.39-.47.38-1.13-1.39-.76.61,1.27,1.55-.47.38Z"/><path class="cls-2" d="M14.89,41.4l.26-.54,1.4.67-.62,1.29a2.19,2.19,0,0,1-.76.06,2.49,2.49,0,0,1-.86-.23,2.05,2.05,0,0,1-.77-.64,1.39,1.39,0,0,1-.27-.88,2.16,2.16,0,0,1,.22-1,2.13,2.13,0,0,1,.65-.79,1.59,1.59,0,0,1,.9-.3,2.1,2.1,0,0,1,1.67.92,1.26,1.26,0,0,1,.09.9l-.7-.19a.72.72,0,0,0-.08-.5.84.84,0,0,0-.4-.36,1,1,0,0,0-.81-.06,1.25,1.25,0,0,0-.63.68,1.42,1.42,0,0,0-.17,1,1,1,0,0,0,.53.61,1.16,1.16,0,0,0,.45.12,1.66,1.66,0,0,0,.45,0l.19-.41Z"/><path class="cls-2" d="M20.06,44.48l-.76-.19-.1-.87-1.39-.35-.48.71-.74-.19,2.23-3.12.74.19Zm-.94-1.7L19,41.37l-.8,1.17Z"/><path class="cls-2" d="M21.1,44.63l.14-3.57,1.09,0,.55,2.46.73-2.41,1.09,0-.14,3.58-.67,0L24,41.93l-.82,2.78-.7,0-.6-2.84-.1,2.82Z"/><path class="cls-2" d="M25.7,44.62l-.39-3.55L26,41l.39,3.55Z"/><path class="cls-2" d="M27.54,44.41l-.87-3.47.68-.17,2,2-.58-2.32.65-.16.87,3.47-.7.17-2-1.91.57,2.26Z"/><path class="cls-2" d="M32.55,41.37l-.26-.55,1.4-.66.61,1.28a1.82,1.82,0,0,1-.42.63,2.32,2.32,0,0,1-.72.53,2,2,0,0,1-1,.21,1.51,1.51,0,0,1-.86-.34,2.19,2.19,0,0,1-.6-.77,2,2,0,0,1-.21-1,1.5,1.5,0,0,1,.33-.89,1.83,1.83,0,0,1,.69-.53,1.75,1.75,0,0,1,1.06-.2,1.26,1.26,0,0,1,.77.49l-.59.43a.79.79,0,0,0-.43-.25.89.89,0,0,0-.54.09.94.94,0,0,0-.55.59,1.26,1.26,0,0,0,.13.92,1.37,1.37,0,0,0,.67.74.94.94,0,0,0,.8,0,1.1,1.1,0,0,0,.38-.27,1.78,1.78,0,0,0,.26-.37l-.2-.41Z"/><circle class="cls-3" cx="23.42" cy="23.46" r="15.71"/><path class="cls-2" d="M23.42,39.47a16,16,0,1,1,16-16A16,16,0,0,1,23.42,39.47ZM23.42,8A15.42,15.42,0,1,0,38.84,23.46,15.43,15.43,0,0,0,23.42,8Z"/><path class="cls-2" d="M12.56,30.17V17.76h5.27a9.05,9.05,0,0,1,2.89.34,2.85,2.85,0,0,1,1.45,1.19,3.57,3.57,0,0,1,.54,1.95,3.36,3.36,0,0,1-.82,2.31,4,4,0,0,1-2.46,1.14,6,6,0,0,1,1.35,1,14.31,14.31,0,0,1,1.42,2l1.52,2.42h-3l-1.81-2.7a16.81,16.81,0,0,0-1.32-1.82,2,2,0,0,0-.75-.52A4.3,4.3,0,0,0,15.57,25h-.5v5.18ZM15.07,23h1.85a9.72,9.72,0,0,0,2.25-.15,1.33,1.33,0,0,0,.7-.53,1.6,1.6,0,0,0,.26-.93,1.45,1.45,0,0,0-.34-1,1.5,1.5,0,0,0-.94-.49c-.2,0-.81,0-1.83,0H15.07Z"/><path class="cls-2" d="M30,25.61V23.52h5.4v4.94a6.57,6.57,0,0,1-2.28,1.34,8.18,8.18,0,0,1-3,.58,6.77,6.77,0,0,1-3.4-.82,5.16,5.16,0,0,1-2.17-2.33,7.47,7.47,0,0,1-.73-3.31,7.13,7.13,0,0,1,.81-3.44A5.59,5.59,0,0,1,27,18.17a6.46,6.46,0,0,1,3-.62,6,6,0,0,1,3.61,1,4.33,4.33,0,0,1,1.67,2.68l-2.48.47a2.68,2.68,0,0,0-1-1.45,3,3,0,0,0-1.81-.53,3.42,3.42,0,0,0-2.61,1,4.44,4.44,0,0,0-1,3.09,4.91,4.91,0,0,0,1,3.32,3.32,3.32,0,0,0,2.58,1.1,4.27,4.27,0,0,0,1.58-.31,5,5,0,0,0,1.35-.75V25.61Z"/></g></g></svg>