<svg xmlns="http://www.w3.org/2000/svg" viewBox="0 0 21.1 25.19"><defs><style>.cls-1{fill:#00abb7;}</style></defs><g id="Layer_2" data-name="Layer 2"><g id="Layer_1-2" data-name="Layer 1"><path class="cls-1" d="M20.1,23.19H11.5l9.37-11.52s0-.08.06-.11a.87.87,0,0,0,.1-.19,1.42,1.42,0,0,0,0-.2.79.79,0,0,0,0-.13.43.43,0,0,0,0,0c0-.07,0-.14,0-.2a1.27,1.27,0,0,0-.06-.18.67.67,0,0,0-.09-.14c0-.06-.09-.12-.14-.17l0,0s-.08,0-.11-.06l-.19-.1-.2,0-.13,0H9.4V1a1,1,0,0,0-1-1,1.3,1.3,0,0,0-.21,0,1.17,1.17,0,0,0-.27,0C7.84,0,0,.48,0,10.93c0,0,0,0,0,.06a.43.43,0,0,0,0,0,.37.37,0,0,0,0,.09.24.24,0,0,0,0,.08v5a1,1,0,0,0,2,0V12H7.4v4.21a1,1,0,0,0,2,0V12H18L8.62,23.55s0,.08-.06.12l-.1.18a1.77,1.77,0,0,0,0,.2c0,.05,0,.09,0,.14a.43.43,0,0,1,0,0,.79.79,0,0,0,0,.2.84.84,0,0,0,.05.17.78.78,0,0,0,.1.15.7.7,0,0,0,.14.16s0,0,0,0a.39.39,0,0,0,.14.08.42.42,0,0,0,.13.07.86.86,0,0,0,.36.08H20.1a1,1,0,0,0,0-2ZM2,10C2.36,3.87,5.93,2.42,7.4,2.1V10Z"/></g></g></svg>