<svg xmlns="http://www.w3.org/2000/svg" viewBox="0 0 19.75 21.1"><defs><style>.cls-1{fill:#ffffff;}</style></defs><g id="Layer_2" data-name="Layer 2"><g id="Layer_1-2" data-name="Layer 1"><path class="cls-1" d="M19.2,0H.55A.55.55,0,0,0,0,.55v20a.54.54,0,0,0,.71.52l5-1.55,3.56,1.53a.55.55,0,0,0,.42,0l4.09-1.55L19,21.08l.16,0a.54.54,0,0,0,.32-.11.55.55,0,0,0,.23-.44V.55A.55.55,0,0,0,19.2,0Zm-.55,19.81L13.94,18.4a.53.53,0,0,0-.35,0L9.52,20,6,18.42a.57.57,0,0,0-.22,0l-.17,0L1.1,19.8V1.1H18.65Z"/><path class="cls-1" d="M4.11,6.26H10a.55.55,0,0,0,.55-.55A.55.55,0,0,0,10,5.16H4.11a.55.55,0,0,0-.55.55A.55.55,0,0,0,4.11,6.26Z"/><path class="cls-1" d="M4.11,10.5H15.28a.55.55,0,0,0,.55-.55.55.55,0,0,0-.55-.55H4.11a.55.55,0,0,0-.55.55A.55.55,0,0,0,4.11,10.5Z"/><path class="cls-1" d="M4.11,14.82H15.26a.55.55,0,0,0,.55-.55.54.54,0,0,0-.55-.55H4.11a.55.55,0,0,0-.55.55A.55.55,0,0,0,4.11,14.82Z"/></g></g></svg>