<svg xmlns="http://www.w3.org/2000/svg" width="16.172" height="16.172" viewBox="0 0 16.172 16.172">
  <defs>
    <style>
      .cls-1 {
        fill: red;
      }

      .cls-2, .cls-3, .cls-5 {
        fill: none;
      }

      .cls-2 {
        stroke: red;
      }

      .cls-4, .cls-6 {
        stroke: none;
      }

      .cls-6 {
        fill: red;
      }
    </style>
  </defs>
  <g id="Group_85" data-name="Group 85" transform="translate(-248.676 -127.364)">
    <g id="Layer_2" data-name="Layer 2" transform="translate(246.417 135.45) rotate(-45)">
      <g id="Layer_1" data-name="Layer 1" transform="translate(7.315 14.631) rotate(-135)">
        <circle id="Ellipse_3" data-name="Ellipse 3" class="cls-1" cx="2.789" cy="2.789" r="2.789" transform="translate(2.384 2.384)"/>
        <g id="Ellipse_4" data-name="Ellipse 4" class="cls-2" transform="translate(0 0)">
          <circle class="cls-4" cx="5.173" cy="5.173" r="5.173"/>
          <circle class="cls-5" cx="5.173" cy="5.173" r="4.673"/>
        </g>
      </g>
    </g>
    <g id="Path_413" data-name="Path 413" class="cls-3" transform="translate(264.848 143.536) rotate(180)">
      <path class="cls-4" d="M8.086,0A8.086,8.086,0,1,1,0,8.086,8.086,8.086,0,0,1,8.086,0Z"/>
      <path class="cls-6" d="M 8.085935592651367 0.499995231628418 C 3.903035163879395 0.499995231628418 0.499995231628418 3.903035163879395 0.499995231628418 8.085935592651367 C 0.499995231628418 12.26883506774902 3.903035163879395 15.67187595367432 8.085935592651367 15.67187595367432 C 12.26883506774902 15.67187595367432 15.67187595367432 12.26883506774902 15.67187595367432 8.085935592651367 C 15.67187595367432 3.903035163879395 12.26883506774902 0.499995231628418 8.085935592651367 0.499995231628418 M 8.085935592651367 -3.814697265625e-06 C 12.55167579650879 -3.814697265625e-06 16.171875 3.620195388793945 16.171875 8.085935592651367 C 16.171875 12.55167579650879 12.55167579650879 16.171875 8.085935592651367 16.171875 C 3.620195388793945 16.171875 -3.814697265625e-06 12.55167579650879 -3.814697265625e-06 8.085935592651367 C -3.814697265625e-06 3.620195388793945 3.620195388793945 -3.814697265625e-06 8.085935592651367 -3.814697265625e-06 Z"/>
    </g>
  </g>
</svg>
