<svg xmlns="http://www.w3.org/2000/svg" viewBox="0 0 19.94 23.77"><defs><style>.cls-1{fill:#fff;}</style></defs><g id="Layer_2" data-name="Layer 2"><g id="Layer_1-2" data-name="Layer 1"><path class="cls-1" d="M18.94,0H1A1,1,0,0,0,0,1V22.77a1,1,0,0,0,1,1H18.94a1,1,0,0,0,1-1V1A1,1,0,0,0,18.94,0Zm-1,21.77H2V2H17.94Z"/><rect class="cls-1" x="4.57" y="4.4" width="4" height="2"/><rect class="cls-1" x="11.54" y="4.4" width="4" height="2"/><rect class="cls-1" x="4.57" y="8.38" width="4" height="2"/><rect class="cls-1" x="11.54" y="8.38" width="4" height="2"/><rect class="cls-1" x="4.61" y="12.36" width="4" height="2"/><rect class="cls-1" x="11.58" y="12.36" width="4" height="2"/><rect class="cls-1" x="4.57" y="17.41" width="10.97" height="2"/></g></g></svg>