<svg xmlns="http://www.w3.org/2000/svg" width="22.539" height="15.9" viewBox="0 0 22.539 15.9">
  <g id="SiteIconsall-Promotions" transform="translate(-0.2 -1.6)">
    <path id="Path_1878" data-name="Path 1878" d="M7.2,14.3H2v.1c0,.1-.1.2-.1.3a.247.247,0,0,1-.4.1c-.1-.1-.2-.1-.2-.2a1.612,1.612,0,0,1-.4-.7,8.3,8.3,0,0,1-.6-2.1,5.7,5.7,0,0,1-.1-1.3A.9.9,0,0,1,.3,10a.349.349,0,0,1,.1-.2.247.247,0,0,1,.4-.1c.1,0,.1.1.2.2,5.7-2.7,11.3-5.3,17-8h0A2.22,2.22,0,0,0,17.5,3a8.6,8.6,0,0,0-.1,1.6,16.413,16.413,0,0,0,.2,2.3,13.1,13.1,0,0,0,.6,2.7,16.587,16.587,0,0,0,1.2,3.1,3.592,3.592,0,0,0,.7,1,1.794,1.794,0,0,0,.7.5H15.4v.2l.3,1.2a1.483,1.483,0,0,1,.1.7,1.268,1.268,0,0,1-.4.9.349.349,0,0,1-.2.1,1.854,1.854,0,0,1-.7.2H8.7c-.1-.1-.2-.1-.4-.2a1.346,1.346,0,0,1-.5-.9,11.8,11.8,0,0,1-.4-2C7.2,14.4,7.2,14.3,7.2,14.3Zm7.2,1.9c-.1-.7-.3-1.3-.4-2H8.5c.1.7.3,1.3.4,2A50.455,50.455,0,0,0,14.4,16.2Z" fill="#fff"/>
    <path id="Path_1879" data-name="Path 1879" d="M21.6,7.5a18.652,18.652,0,0,1,.4,3.2,13.4,13.4,0,0,1-.1,2,2.544,2.544,0,0,1-.2.7.758.758,0,0,1-.2.4.627.627,0,0,1-.8.2,1.38,1.38,0,0,1-.4-.3,5.5,5.5,0,0,1-.7-.9,9.819,9.819,0,0,1-.8-1.8A22.881,22.881,0,0,1,18,8.2a18.588,18.588,0,0,1-.4-3.3,9.7,9.7,0,0,1,.1-1.7,1.421,1.421,0,0,1,.2-.6c0-.1.1-.2.2-.4a.54.54,0,0,1,.8-.2c.1.1.3.2.4.3a5.5,5.5,0,0,1,.7.9,16.316,16.316,0,0,1,.9,1.9C21.2,6,21.4,6.7,21.6,7.5Z" fill="#fff"/>
    <path id="Path_1880" data-name="Path 1880" d="M21.5,14.2h0a2.651,2.651,0,0,0,.5-.6,1.854,1.854,0,0,0,.2-.7,11.076,11.076,0,0,0,.2-1.9,13.4,13.4,0,0,0-.1-2,20.481,20.481,0,0,0-.5-2.4,10.077,10.077,0,0,0-1.4-3.2,10.475,10.475,0,0,0-.8-1.1.9.9,0,0,0-.6-.6c-.1,0-.2-.1-.3-.1H19a1.612,1.612,0,0,1,.7.4,4,4,0,0,1,1,1.2A7.572,7.572,0,0,1,21.6,5a15.831,15.831,0,0,1,.9,3.1,15.334,15.334,0,0,1,.2,3.7,7.491,7.491,0,0,1-.4,1.6,1.794,1.794,0,0,1-.5.7A.367.367,0,0,0,21.5,14.2Z" fill="#fff"/>
  </g>
</svg>
