<svg xmlns="http://www.w3.org/2000/svg" viewBox="0 0 150 150"><defs><style>.cls-1{fill:#f6f6f6;fill-rule:evenodd;}</style></defs><g id="Layer_2" data-name="Layer 2"><g id="Layer_1-2" data-name="Layer 1"><path class="cls-1" d="M150,150H0V0H150ZM73.2,98.3a38.5,38.5,0,0,0-21.27,4.12,29.66,29.66,0,0,0-7.53,4.73,11.22,11.22,0,0,1,1.06,2.08,14.59,14.59,0,0,1,1.11,5.56c-.08,2.11-.92,4.62-3.19,5.54A3.31,3.31,0,0,1,40,119.8c-1.58-1.45-1.88-3.64-1.38-6a9.11,9.11,0,0,1,.64-1.79,17.33,17.33,0,0,1,3.29-5,14.85,14.85,0,0,0-9.33-5.26,23.59,23.59,0,0,0-13.38,2.16c-8,3.7-13.07,8.92-14.06,17.68-1,9,2.64,16.2,10.46,20.8,4.32,2.55,7.51,2.78,12.53,2.91,10.76.27,18.85-5.53,25.18-11.29C64.19,124.68,69.82,111.29,73.2,98.3Zm-29.82,9.87A12.06,12.06,0,0,0,40.32,113c-.4,1.52-.69,2.74-.16,4a3,3,0,0,0,1.37,1.61,2.34,2.34,0,0,0,1.83-.07c1.55-.77,1.57-2.55,1.75-4.39A10.07,10.07,0,0,0,43.38,108.17ZM63.77,27.92a24.41,24.41,0,0,0-6.38-12.54,38.1,38.1,0,0,0-9.6,4.17,45.5,45.5,0,0,0-10.51,8.06C31,34.16,26.31,42.94,27,52a8.74,8.74,0,0,0,.32,2.21A15.61,15.61,0,0,0,28.43,58c2.07,4.22,6.13,6.24,11.17,6.19C45,64.08,53,58.43,58.08,51.24,63.45,43.58,65.74,37.07,63.77,27.92ZM127.24,7.7c-2.83,1-5.4,3.13-8.1,4.72-17.23-6.82-36-5.62-53.21-1.22-2.46.66-4.5,1.11-7.33,2a27.85,27.85,0,0,0-6.13-4.41c-8.33-4.5-18.81-3.55-26.89,1.12-.6.34-1.23.7-1.78,1a31.33,31.33,0,0,0-5.9,4.85,7.25,7.25,0,0,1-.73.8c-.7.93-1.66,1.88-2.23,2.82a40.68,40.68,0,0,0-2.81,5,22.6,22.6,0,0,0-1.82,4.29c-.19.68-.11,1.5.55,1.76s1.17-.57,1.45-1.28a33.08,33.08,0,0,1,4.5-9,36,36,0,0,1,2.73-3.28,28.61,28.61,0,0,1,4.86-4.23c7.42-5,15.24-7,24.18-3.87A21.69,21.69,0,0,1,56.26,14c-1.27.38-2.14.67-3.21,1.1-10.26,4-19.17,10.7-24.51,21a24.5,24.5,0,0,0-3,8.41c-1.24,7.36-.59,13.18,4.35,18.63,8.36,9.21,25.8,2.75,33.93-11.34a28.7,28.7,0,0,0,4.06-15.67c-.23-5.78-2.19-14.82-8.15-21.55.41-.12.81-.21,1.05-.3,17.86-5,38.08-8,56.37-.54l.13.16A90.76,90.76,0,0,0,98.72,33.69C91.67,43.5,87.19,54.28,83,65.56c-3.43,10-6.69,20.9-9.25,30.79l-.09.07a46.53,46.53,0,0,0-6.69.09c-8.33.84-16.52,3.43-23.32,9.58l-.13,0A17.57,17.57,0,0,0,30,99.92,30.39,30.39,0,0,0,13,104c-.29.07-.5.43-.77.44a23.85,23.85,0,0,0-8.45,9.13,28.89,28.89,0,0,0-1.63,4.29c-.2.61-.31,1.32-.49,2a19.89,19.89,0,0,0,1,10.14,23.58,23.58,0,0,0,6.56,9.73c10.75,10,26.61,7.84,37.83,2.54A54.89,54.89,0,0,0,67.61,125c5.75-7.55,9.93-16.43,13.36-25.24A13.47,13.47,0,0,1,85.56,102c2.37,1.8,4.09,3.72,4.43,6.22.18.56.43.72.8.61s.46-.46.38-.87a11.63,11.63,0,0,0-1.93-3.9c-2.35-3.38-4.85-4.46-7.65-5.86,1.77-5.06,3-8.6,4.24-13.07l3.58-13.05c.33-.93.42-1.86.77-2.83.73-3,1.4-5.35,2.29-8.33l3.06-9.64a103.05,103.05,0,0,1,7.69-17.12,72,72,0,0,1,15.53-19.73,46.85,46.85,0,0,1,14.61,10.32C137.71,29.38,141,35,141.93,41c2.24,9.8-1.16,21.22-6.49,29.1-3.85,5.83-11,11.15-17.88,12.14a24.68,24.68,0,0,1-18.48-3.78c-.74-.49-1.13-.81-1.83-1.35-.93-.7-2-2-2.53-1.58s0,.87.13,1a22.79,22.79,0,0,0,5.54,4.16c7.14,4.35,14.84,5.54,24,3.21,10.82-2.76,17.2-8.41,21.77-18.6,4.31-9.59,3.18-18.47.24-26.95C142,26.39,131.72,17.5,120.58,13l0-.13L123.16,11a49,49,0,0,1,4.46-2.65A.44.44,0,0,0,127.24,7.7Z"/></g></g></svg>