<svg xmlns="http://www.w3.org/2000/svg" viewBox="0 0 353.97 533.2"><defs><style>.cls-1{fill:#bfae8d;}</style></defs><g id="Layer_2" data-name="Layer 2"><g id="Layer_1-2" data-name="Layer 1"><path class="cls-1" d="M127.82,225.09s-10.68,17.21-18.42,19.39c-8.25,2.33-34.07,8.51-34.07,8.51a99.56,99.56,0,0,1-21.67-4.6c-9.45-3-18.49-1-21.73-8.43s.35-15.59-2.3-21.41S22,226.18,22,226.18s-4.1-8.33-7.63-17C12,203.4,5.31,219.08.3,230.8-2.36,237,13.16,240,18.62,250.05c4.32,8,42.3,25.94,52.37,32.57s49.7-11.57,59-5.63c14.2,9.07,37.59,37.92,31.66,45.55s-51.06,48.4-59.66,64.75C95.26,400,136.71,490.68,132.48,495.77S112.14,514.41,106.21,517s-9.62,6.19-6.78,11,13.72,6.24,21.35,4.54,43.08-10.11,43.9-15.56c.78-5.14-4.64-19.19-5.52-19.72-3.72-2.22-6-3.72-6.34-6.55-.9-7.88-4.71-39.22-4.2-54,.66-19-13.57-31.4-10-32.53,4.72-1.47,52.6-30.12,52.6-30.12s28.25,70,41.94,72.35c19.71,3.4,83,30.25,81.21,31.36,0,0,5.36,18,8.75,25.67s-4.94,18.05,0,23.73,16.11.85,18.65-3.39,8-30.78,6.78-35.59,11.29-31.36,1.83-34.75c-5.2-1.86-14.33-6.86-18.52-3.09a19.38,19.38,0,0,1-8.65,4.1s-32.18-25.22-43.3-30.72c-5.91-2.92-30.48-12.21-30.48-12.21s-14.62-42.13-11.23-55.85,5.41-37.1-12.77-54.63c-9.54-9.21-29.82-50.57-33.7-67.41-3.25-14.11-2.55-66.89-2.55-66.89a122.05,122.05,0,0,0,9.37-23.47c4.24-14.4,4-36.06,6.78-39s19.51,2.41,25.42,0,.85-22,17.8-15.25,13,12,22.88,16.1c19.36,8,46.62-10.41,52.56-25.21S324.41.26,317.22,0c-12.1-.43-5.08,36.44-5.08,43.22s3.71,20.16-11.87,24.58-82.19,10.28-91.52,12.71-10.17,9.32-10.17,9.32-24.69,43.53-27.24,52S154.47,192.52,154,197.61s-2.9-10.32-2.9-10.32,7.82-6.54,8.73-21c.51-8.23.19-26.41-32.75-26.62-31.22-.19-38.09,36.51-27.56,36.32,1.65,0-.62,3.11,1,4.05,5.81,3.33-7.7,12-7.63,15.26s6.78,7.63,6.78,7.63-1,9.7,2.87,12.9,14.79-2.31,18,1.17S127.82,225.09,127.82,225.09Z"/></g></g></svg>