<svg xmlns="http://www.w3.org/2000/svg" viewBox="0 0 112.86 35.19"><defs><style>.cls-1{fill:#bfae8d ;}</style></defs><g id="Layer_2" data-name="Layer 2"><g id="Layer_1-2" data-name="Layer 1"><path class="cls-1" d="M112.74,32.86c-.71-.69-10.27-5.32-12.06-6.51s-7.29-2.7-9.87-4.4l4.8.44c1.46.13,8.4,4.16,9,4.33,1.49.39,2.17.28,2.51,0,.61-.49-10.25-6.32-10.85-6.51-1.91-.6-7.71-2.18-8.4-2.73-1-.76-.46-5,.59-4.75,1.92.49,2.21,1.6,5.94,2.6,5,1.33,7.88.71,10.38,1.24,3.34.69,5.48-1.7,5-2.78s-3.1-.86-5.67-3.15c-1.39-1.24-2.6-4.76-4-5C96.8,5,95.33,4.28,94.25,3.2c0,0-7.14-3.86-7.56-3.1s5.14,3.58,4.42,4S78,.88,70.81,3.42c-6.28,2.24-11.09,5.14-16.9,5-6-.13-9.73-1-16.6.89a18.06,18.06,0,0,0-9.25,5.88s-1,1.87-5.87,1.87S5,11.67,4.2,12s4,4.31,11.41,6.06c3.95.93,9.64,1.68,9.64,1.68s1.48,1-.86,1.73-6.75-1.18-8.26-.26c-2.3,1.41-10,4.66-10,4.66s-3.26-.32-3.26.58c0,.39-.11,1.54.45,1.85a5.44,5.44,0,0,0,3.17-.06c1.35-.43,7.94-3,10.81-3.58a7.2,7.2,0,0,1,4.14.13A5.84,5.84,0,0,1,17,27.08c-2.75.08-10.78,4.09-13.58,5.05-.53.18-2.2.46-2.58.59a1.37,1.37,0,0,0-.19,2.46,14.68,14.68,0,0,0,4.58-.92c1.55-.93,10.9-3.35,12.53-3.57,2-.27,4.91.18,8.14-.23a47.32,47.32,0,0,0,5.52-.74c4.59-.81,9.75-6.5,9.75-6.5s4.66-4,6.84-4a26.06,26.06,0,0,1,9.06,2.62C61.26,23.87,67,25,71,24.23c3.86-.74,5.45-3,6.26-2.7s6.43,3.58,8.32,4.39S92.38,27.26,97,28.07s8.22,3.23,10.91,4.79S113.46,33.55,112.74,32.86Z"/></g></g></svg>