<svg xmlns="http://www.w3.org/2000/svg" viewBox="0 0 208.13 119.64"><defs><style>.cls-1{fill:#bfae8d ;}</style></defs><g id="Layer_2" data-name="Layer 2"><g id="Layer_1-2" data-name="Layer 1"><path class="cls-1" d="M207.93,32.13c-.25-.83-4.13-5.78-4.87-7-1.38-2.19-3-4.41-3.14-5.08s-5.62-8.75-8-9.38S190.9,0,190,0c-2.06,0-3.19,10.39-4.34,10.64s-3.11-5.43-4.45-5.37.78,5.11-1.24,6.81c-1.55,1.31-6.74-.45-29.59,19.85-4.34,2.42-10.54,3.63-20.48,4.42-6.69.54-15.91-3.21-21-2.86-14.68,1-17.12,4.09-18.33,4.6s-2.65,4.59-8.44,5.29A13,13,0,0,0,75.59,46L28.7,61c2.66-1.43,6.93-3.72,8.62-4.49a8.66,8.66,0,0,1,5.58-.13l5.91-1.9s-8.05-2.71-9.36-2.56S30.68,53.55,25.92,54s-10.37-4.34-10.68-5.55,1.36-2.35,1.36-2.35a5.16,5.16,0,0,0,3.77.38c1.94-.12.7-3.95.7-3.95l1.91-1-1.45-4.48s5.67,1,5.28-.63S21.33,32,21.33,32a9.85,9.85,0,0,0-7.61-3.84c-3.76,0-7.23,4.75-7.42,8.37a12.35,12.35,0,0,0,2.09,6.85S2,49.58,1.54,57.05c-.5,7.65,1.33,12.51,4,15.11,1.3,1.27-1.24.79-4.9,3.33-3.19,2.23,6.51,8,6.51,8s1-.23,2.65-.57L11,85.67a17.93,17.93,0,1,0,22.69,5.81l5.4-4a17.92,17.92,0,1,0,35.36,4.12,17.78,17.78,0,0,0-2.89-9.75L88.83,65.76a6.48,6.48,0,0,0,1.74,2.52c3.92,3.78-3.37,2.52-3.69,4.74s4.74,18,5,19.9-1.57,4.91-3.23,5.17c-.71.11-1.38-1.83-2.17-2-1.06-.22-1.48-1.91-2.58-1.22-1.92,1.2-4.07,6.16-1,6.84s14-1.68,14.86-2.8S95.07,77.8,95.07,77.8s3.37.52,4.82,2.53.14,14.12,1.34,16.83a88.91,88.91,0,0,0,6.6,10.34A36.1,36.1,0,0,1,111,111c1.79,2.41-.74,7.56,1.46,7.56s8.16.24,9.74,0-1.38-4.47-3.11-5.72c-.24-.18-1.3,1-4.61-3.12-1.9-4.95-6.37-13.82-6.19-14.3a41.2,41.2,0,0,1,1.33-12.24c1.88-7,1.25-19.78,4.93-18.5,12.86,4.48,23.93,8.94,39.27,8.94,4,0,7.37,16.31,7.37,16.31L162,93.1a35,35,0,0,0-8.81,1.73c-1.68.57-2.57,1.76-3.36,1.81-3,.16-3.72-4-6-5.49s-7.28,5.17-5.17,7.46,5.35-.64,8.14,1.44,7.7,1.32,13,.18,4.29.48,7.07-.92,3.3-11.43,3.3-11.43,10.48,21.39,12,22.78,3.26.31,4.66,1.53-1.07,5.25,1.7,6.1,4.11-.38,5.67,0,1.08-5.4,0-5.67-3.16-2-6.48-5.67c-1.61-1.77-6-9-5.92-10.65.07-1.41-4.77-14.62-5.44-15.26a41.2,41.2,0,0,1-2-9.44c.05-3.38,1.72-6.2,2.7-10,.61-3.94-.35-9,.76-15,.64-3.42,3.07-5.61,5.36-13.27.35-1.16,8.32-.58,9.93-.19s6.47,5.6,7.31,5.68a11.14,11.14,0,0,0,4.8-1.76c2.2-1.91,1-2.39,1.66-2.48C208.41,34.35,208.22,33.08,207.93,32.13ZM72.78,48.77a32.36,32.36,0,0,0-2.13,2.93L60.58,66.94c-.31-.61-2.73-5-6.44-5.11-1.89-.06-1.42,2.35-2.56,4.41-1,1.72-6.86-3-10.45-1.54s-1,6.81-10.09,3.2c-3.91-1.55-5.31-2.82-5.64-3.76ZM67.3,80.6l-8.82,7.6a3.85,3.85,0,0,0-2-.55,4.07,4.07,0,0,0-.71.07L51.74,78l2.13-1.58A15.13,15.13,0,0,1,67.3,80.6ZM34.35,101.71A15.39,15.39,0,1,1,12,88l4.57,10.63a3.94,3.94,0,1,0,5.85,1.24L31.64,93A15.27,15.27,0,0,1,34.35,101.71ZM20.14,98A3.82,3.82,0,0,0,19,97.8L14.49,87A15.41,15.41,0,0,1,29.7,90.7Zm11.61-8.84A17.87,17.87,0,0,0,13.5,84.64l-1-2.3c4.59-.92,11.44-2.2,17.89-3C34,78.87,41,77.42,47.69,76a18,18,0,0,0-6.1,5.66ZM71.9,91.57a15.39,15.39,0,1,1-29.14-6.86l6.62-4.94,4.08,9.37a3.91,3.91,0,1,0,6.91,3.08l9.28-8.63A15.26,15.26,0,0,1,71.9,91.57ZM69.23,78.94a17.93,17.93,0,0,0-5.52-3.79l0,0S81,59.86,85.79,61.3a4,4,0,0,1,2.34,1.36Z"/></g></g></svg>