<svg xmlns="http://www.w3.org/2000/svg" viewBox="0 0 463.22 253.05"><defs><style>.cls-1{fill:#c8b68b;}</style></defs><g id="Layer_2" data-name="Layer 2"><g id="Capa_1" data-name="Capa 1"><path class="cls-1" d="M325.54,137.24l8.08,10.08,9.11-7.32q1.62-1.31,5.8-5.47l-.27,8.24-.17,7.53v45.87h16.76V116.91H351.08Z"/><path class="cls-1" d="M414.36,116.91l-29.55,79.26h-15l29.55-79.26Z"/><path class="cls-1" d="M453.68,166.73V116.91H438.23l-34.76,51.17v11.66H437.3v16.43h16.38V179.74h9.54v-13Zm-16.1-23.2q-.29,6.39-.28,9.75v13.45H418.22l14.53-22a60.91,60.91,0,0,0,4.83-8.67H438C437.9,136.79,437.76,139.26,437.58,143.53Z"/><path class="cls-1" d="M299.42,163.47S314,157.1,318.83,137.6c1.53-6.12-2.24-16.29,5.93-31.61,7.36-13.79,11.08-22.43,14.86-24.53s6.8.72,15.1,2.38,19.12,9,19.12,9,.4,3.82,4.82,7.69,15.55-3.43,15.55-3.43,5.46-11,2.3-14.42c-3.75-4.06-16.85-24.9-16.85-24.9s-10.24-17.68-13.88-22.55c-6-8.08-19.17-21.88-22.63-21.62s-1,17.37-1,17.37-5.41-.51-20.55,9.17c-6.31,4-16.48,18.66-16.48,18.66s-7.17,3.86-13.8-.75-13.52-13.3-12.24-18.4c2-8,7.09-10.52,7.09-10.52s2,8.23,7.7,9S306.38,26.3,306.38,26.3,325,31,325.52,28.62,309.1,18,309.1,18s2.3-12.37-11.34-17c-15.38-5.17-19.91,11.56-19.91,11.56S231.06,5.9,219.57,8.46C208.94,10.82,191.28,17.28,195,28.9s33.6,33.37,38.57,35-2.7,14.64-6.57,13.53S207.49,69,198.9,65.2c-12.67-5.52-12.36,5.27.43,10.9,10,4.39.34,4.82-10.14,2.57s-22.86-6.19-42.64-3.06c-17.59,2.78-26.3,21.5-26.3,21.5s-18.25-4.42-29.31,5-24.47,23.19-41.61,14.18S3.12,83.84.31,85.63s14.55,23.49,22,30.13,28.67,16.87,35.5,21.17,3,6.93-2.21,5S22,120.28,19.4,121.56s15.83,17.11,15.83,17.11,17.18,16.57,26.35,16.92,17-6.84,24.46-13.09,9.37-12.69,17.07-23.32,13.82-8.68,13.82-8.68a20.6,20.6,0,0,0-.38,20.13c5.36,10,22.5,24.54,22.5,24.54s-11.83,12.52-14.93,15.63-2.21,7.91,2.77,11.79,35.39,15.17,35.39,15.17l2.14,6.4s12.73,14.39,27.66,23.79,14.2,15.27,17.2,16.81,5.83-.77,7.19,0-.68,3.87,1.11,6.08,16,2.21,17.69,2.21-7.67-10-12.1-15c-4.18-4.71-13.94-14-16.5-15,2.39.27,7.45-1,14.24-.27,8.3.89,37.56,2.48,37.56,2.48s15-1.56,14.41-12,2.59-31.63,2.1-34.44c-.43-2.42,38.59,7.7,38,15.44s-26.87,25.68-26.87,25.68-4.89-3.43-6.64-2.77-12.16,14.38-7.74,18.25,28.61-7.07,28.61-7.07,23.32-25.2,27.19-28,1.79-11.7-3.57-18.26S299.42,163.47,299.42,163.47ZM161.34,183l-10.47-8.19s-2.62-9.37,4.76-8.08S161.34,183,161.34,183Zm93.44,28.15c-4.08,2.3-42.13-1-42.13-1L207.29,202s-4.64-5.71-6.89-1.53S194,210.94,194,210.94a35.29,35.29,0,0,1-10-14c-3.09-8.57,5-43,5-43s33.08,20.73,58.06,18.48C262.92,171,258.87,208.9,254.78,211.19ZM264.88,80.4c.38-.12,3-1.22,1.12-7.18-2-6.42-12.72,1.74-13.69,3l-.06.09c.35-.49,6.59-9.24,4.24-14.38-2.57-5.62-15.1-18.47-15.1-18.47s16.38,1,18,4.82,14.13,23.77,24.09,23.45C293.25,71.43,265.86,80.1,264.88,80.4Z"/></g></g></svg>