<svg xmlns="http://www.w3.org/2000/svg" viewBox="0 0 32.36 26.11"><defs><style>.cls-1{fill:#bfae8d ;}</style></defs><g id="Layer_2" data-name="Layer 2"><g id="Layer_1-2" data-name="Layer 1"><path class="cls-1" d="M12.79,4.93a7,7,0,0,0-9.9,0l-.84.84a7,7,0,0,0,0,9.9l8.39,8.39a7,7,0,0,0,9.9,0l.84-.84a7,7,0,0,0,0-9.9Zm7.62,17.78-.71.71a6,6,0,0,1-8.48,0L2.82,15a6,6,0,0,1,0-8.49l.71-.71a6,6,0,0,1,8.48,0l8.4,8.4A6,6,0,0,1,20.41,22.71Z"/><path class="cls-1" d="M9.71,8.05a2.79,2.79,0,0,0-2-.82,2.76,2.76,0,0,0-2,.82L5,8.76a2.8,2.8,0,0,0,0,4l8.48,8.48a2.86,2.86,0,0,0,4,0l.71-.7a2.79,2.79,0,0,0,.82-2,2.76,2.76,0,0,0-.82-2Zm7.23,11.77a2.11,2.11,0,0,1-3,0L6.29,12.15a2.11,2.11,0,0,1,3-3l7.67,7.67A2.11,2.11,0,0,1,16.94,19.82Z"/><path class="cls-1" d="M11.1,6.75a4.71,4.71,0,0,0-6.65,0l-.71.71a4.71,4.71,0,0,0,0,6.65l8.39,8.39a4.71,4.71,0,0,0,6.65,0l.71-.71a4.7,4.7,0,0,0,0-6.64ZM19,21.34l-.71.71a4,4,0,0,1-5.65,0L4.19,13.57a4,4,0,0,1,0-5.66L4.9,7.2a4,4,0,0,1,5.65,0L19,15.69a4,4,0,0,1,0,5.65Z"/><polygon class="cls-1" points="27.34 5.06 27.34 0 24.49 0 24.49 5.06 19.47 5.06 19.47 7.91 24.49 7.91 24.49 12.91 27.34 12.91 27.34 7.91 32.36 7.91 32.36 5.06 27.34 5.06"/></g></g></svg>