<svg xmlns="http://www.w3.org/2000/svg" viewBox="0 0 26.54 28.88"><defs><style>.cls-1{fill:#003764;}</style></defs><g id="Layer_2" data-name="Layer 2"><g id="Layer_1-2" data-name="Layer 1"><path class="cls-1" d="M26.54,5.27V23.61a5.28,5.28,0,0,1-5.28,5.27h-11a5.28,5.28,0,0,1-5.28-5.27v0h2.6v0a2.68,2.68,0,0,0,2.68,2.67h11a2.68,2.68,0,0,0,2.68-2.67V5.27A2.68,2.68,0,0,0,21.26,2.6h-11A2.68,2.68,0,0,0,7.54,5.27v0H4.94v0A5.29,5.29,0,0,1,10.22,0h11A5.29,5.29,0,0,1,26.54,5.27ZM6.56,21a1.29,1.29,0,0,0,.93-.39,1.3,1.3,0,0,0,0-1.86l-3-3H16.16a1.32,1.32,0,0,0,0-2.64H4.49l3-3A1.32,1.32,0,0,0,5.63,8.26L.38,13.51s0,0,0,0a1.16,1.16,0,0,0-.26.39,1.36,1.36,0,0,0,0,1,1.47,1.47,0,0,0,.28.42h0l5.24,5.25A1.32,1.32,0,0,0,6.56,21Z"/></g></g></svg>