<svg xmlns="http://www.w3.org/2000/svg" viewBox="0 0 46.92 46.92"><defs><style>.cls-1{fill:#003764;}</style></defs><g id="Layer_2" data-name="Layer 2"><g id="Layer_1-2" data-name="Layer 1"><path class="cls-1" d="M16.85,4.85a2.38,2.38,0,0,0,.52-.24.54.54,0,0,0,.16-.24.54.54,0,0,0-.23-.56A.53.53,0,0,0,17,3.76a2.78,2.78,0,0,0-.5.15L16.14,4l.34,1Z"/><path class="cls-1" d="M20.22,5.06a.91.91,0,0,0,.75.21.93.93,0,0,0,.66-.4,1.41,1.41,0,0,0,.14-1A1.36,1.36,0,0,0,21.38,3a.94.94,0,0,0-.75-.2.89.89,0,0,0-.67.4,1.4,1.4,0,0,0-.15.95A1.33,1.33,0,0,0,20.22,5.06Z"/><polygon class="cls-1" points="18.18 42.54 19.12 42.78 18.98 41.38 18.18 42.54"/><path class="cls-1" d="M8.51,10.21A.57.57,0,0,0,8.35,10a.43.43,0,0,0-.29-.1.41.41,0,0,0-.28.12l-.34.4-.35.44.7.57L8.13,11a2.64,2.64,0,0,0,.37-.54A.43.43,0,0,0,8.51,10.21Z"/><path class="cls-1" d="M23.46,0A23.46,23.46,0,1,0,46.92,23.46,23.46,23.46,0,0,0,23.46,0ZM36.73,6.91,34.81,9.14l1.36,1.17-.39.46L33.87,9.13l2.31-2.69Zm-2.8-2a4.82,4.82,0,0,1,.53.35,1,1,0,0,1,.25.32A.86.86,0,0,1,34.8,6a.79.79,0,0,1-.12.42.8.8,0,0,1-.35.33.77.77,0,0,1-.47.09,1,1,0,0,1,.27.53.94.94,0,0,1-.12.56,1.13,1.13,0,0,1-.34.35.94.94,0,0,1-.45.16.92.92,0,0,1-.5-.1A6.45,6.45,0,0,1,32,7.92L30.9,7.3l1.8-3.09ZM31.69,3.8,30.33,7.11l-.66-.28L31,3.53Zm-2.9,1.39A.52.52,0,0,0,28.58,5l-.52-.3a1.91,1.91,0,0,1-.69-.55.91.91,0,0,1-.13-.78.89.89,0,0,1,.28-.46A1,1,0,0,1,28,2.66a1.78,1.78,0,0,1,.71.06,1.53,1.53,0,0,1,.91.55,1.07,1.07,0,0,1,.14.85L29.09,4A.58.58,0,0,0,29,3.53a.7.7,0,0,0-.41-.24.88.88,0,0,0-.51,0,.26.26,0,0,0-.16.19.24.24,0,0,0,0,.23,1.82,1.82,0,0,0,.58.41,3.42,3.42,0,0,1,.69.45,1.09,1.09,0,0,1,.29.45,1.08,1.08,0,0,1,0,.59,1.06,1.06,0,0,1-.32.51,1,1,0,0,1-.57.26,1.85,1.85,0,0,1-.78-.08,1.5,1.5,0,0,1-.93-.57,1.34,1.34,0,0,1-.18-1l.7.11a.84.84,0,0,0,.11.57.81.81,0,0,0,.46.3.78.78,0,0,0,.55,0,.42.42,0,0,0,.26-.29A.37.37,0,0,0,28.79,5.19ZM23.41,2l.7.05,1.3,2.49.16-2.38.67,0L26,5.8l-.73,0L24,3.32l-.17,2.33-.66-.05ZM19.12,3.38a1.54,1.54,0,0,1,.26-.53,1.33,1.33,0,0,1,.41-.38,1.9,1.9,0,0,1,.75-.25,1.69,1.69,0,0,1,1.32.31,1.91,1.91,0,0,1,.65,1.29,1.83,1.83,0,0,1-.28,1.4,1.64,1.64,0,0,1-1.18.66,1.69,1.69,0,0,1-1.32-.31,1.84,1.84,0,0,1-.65-1.26A2.17,2.17,0,0,1,19.12,3.38ZM16.36,3.3a4.54,4.54,0,0,1,.82-.23,1,1,0,0,1,.6.16,1.07,1.07,0,0,1,.43.59,1.18,1.18,0,0,1,.07.57,1,1,0,0,1-.17.43,1.13,1.13,0,0,1-.3.28,4.06,4.06,0,0,1-.69.3l-.44.15.44,1.28-.68.23L15.26,3.69Zm-4,2a1.71,1.71,0,0,1,.55-.46,1.53,1.53,0,0,1,1-.25,1.05,1.05,0,0,1,.7.51l-.61.39a.6.6,0,0,0-.37-.25.74.74,0,0,0-.46.12.83.83,0,0,0-.36.36.25.25,0,0,0,0,.25.26.26,0,0,0,.2.13A1.92,1.92,0,0,0,13.76,6a3.88,3.88,0,0,1,.81-.16.93.93,0,0,1,.52.12,1.07,1.07,0,0,1,.41.43,1,1,0,0,1,.13.58,1,1,0,0,1-.22.59A2.11,2.11,0,0,1,14.8,8a1.53,1.53,0,0,1-1.06.25,1.39,1.39,0,0,1-.83-.58l.58-.41a.91.91,0,0,0,.48.33.77.77,0,0,0,.53-.12.81.81,0,0,0,.39-.39.44.44,0,0,0,0-.39.35.35,0,0,0-.17-.15.6.6,0,0,0-.3,0c-.09,0-.28.07-.58.15a1.87,1.87,0,0,1-.89.09.94.94,0,0,1-.76-1A1.06,1.06,0,0,1,12.38,5.27Zm-1.48.89.39.46L9.82,7.87l.51.6L11.7,7.31l.39.46L10.72,8.93l.63.75,1.52-1.29.39.46L11.18,10.6,8.87,7.87ZM6.16,11l1-1.19a2.66,2.66,0,0,1,.6-.59.88.88,0,0,1,.53-.11,1,1,0,0,1,.54.24,1,1,0,0,1,.37.6,1.17,1.17,0,0,1-.19.75,1.83,1.83,0,0,1,.48-.11,4.09,4.09,0,0,1,.71,0l.81.1-.54.67-.93-.08a4.47,4.47,0,0,0-.65,0,.49.49,0,0,0-.25.08,1,1,0,0,0-.26.26l-.09.11,1.16.93L9,13.27Zm9.77,31.79a2.19,2.19,0,0,1-.76.06,2.49,2.49,0,0,1-.86-.23,2.05,2.05,0,0,1-.77-.64,1.39,1.39,0,0,1-.27-.88,2.16,2.16,0,0,1,.22-1,2.13,2.13,0,0,1,.65-.79,1.59,1.59,0,0,1,.9-.3,2.1,2.1,0,0,1,1.67.92,1.26,1.26,0,0,1,.09.9l-.7-.19a.72.72,0,0,0-.08-.5.84.84,0,0,0-.4-.36,1,1,0,0,0-.8-.06,1.23,1.23,0,0,0-.64.68,1.42,1.42,0,0,0-.17,1,1,1,0,0,0,.53.61,1.16,1.16,0,0,0,.45.12,1.66,1.66,0,0,0,.45,0l.19-.41-.74-.36.26-.54,1.4.67Zm3.37,1.47-.1-.87-1.39-.35-.48.71-.74-.19,2.23-3.12.74.19.5,3.82Zm5.26.48-.67,0L24,41.93l-.82,2.78-.7,0-.6-2.84-.1,2.82-.68,0,.14-3.57,1.09,0,.55,2.46.73-2.41,1.09,0Zm1.14-.15-.39-3.55L26,41l.39,3.55Zm3.89-.72-2-1.91.57,2.26-.65.16-.87-3.47.68-.17,2,2-.58-2.32.65-.16.87,3.47Zm4.29-1.83a2.32,2.32,0,0,1-.72.53,2,2,0,0,1-1,.21,1.51,1.51,0,0,1-.86-.34,2.19,2.19,0,0,1-.6-.77,2,2,0,0,1-.21-1,1.5,1.5,0,0,1,.33-.89,1.83,1.83,0,0,1,.69-.53,1.75,1.75,0,0,1,1.06-.2,1.26,1.26,0,0,1,.77.49l-.59.43a.79.79,0,0,0-.43-.25.89.89,0,0,0-.54.09.94.94,0,0,0-.55.59,1.26,1.26,0,0,0,.13.92,1.37,1.37,0,0,0,.67.74.94.94,0,0,0,.8,0,1.1,1.1,0,0,0,.38-.27,1.78,1.78,0,0,0,.26-.37l-.2-.41-.74.36-.26-.54,1.4-.67.61,1.28A1.82,1.82,0,0,1,33.88,42.07Zm-10.46-2.9A15.72,15.72,0,1,1,39.14,23.46,15.71,15.71,0,0,1,23.42,39.17ZM40,11.22,38.8,9.73l-.62.5,1.14,1.39-.47.38-1.13-1.39-.76.61,1.27,1.55-.47.38L36,11l2.77-2.26,1.67,2.06Z"/><path class="cls-1" d="M33.47,6.3a.46.46,0,0,0,.32,0A.32.32,0,0,0,34,6.15a.37.37,0,0,0,.06-.28.45.45,0,0,0-.17-.25l-.53-.32L33,5.09l-.41.72L33,6C33.26,6.19,33.41,6.27,33.47,6.3Z"/><path class="cls-1" d="M32.4,7.48a2.33,2.33,0,0,0,.44.23.44.44,0,0,0,.3,0,.41.41,0,0,0,.24-.21.46.46,0,0,0,.07-.27A.43.43,0,0,0,33.34,7a2.81,2.81,0,0,0-.53-.37l-.5-.29-.49.83Z"/><path class="cls-1" d="M20.78,25.74a6,6,0,0,0-1.35-1,4,4,0,0,0,2.46-1.14,3.36,3.36,0,0,0,.82-2.31,3.57,3.57,0,0,0-.54-1.95,2.81,2.81,0,0,0-1.45-1.19,9.05,9.05,0,0,0-2.89-.34H12.56V30.17h2.51V25h.5a4.3,4.3,0,0,1,1.27.14,2,2,0,0,1,.75.52,16.81,16.81,0,0,1,1.32,1.82l1.81,2.7h3L22.2,27.75A14.31,14.31,0,0,0,20.78,25.74ZM16.92,23H15.07V19.86H17c1,0,1.63,0,1.83,0a1.5,1.5,0,0,1,.94.49,1.45,1.45,0,0,1,.34,1,1.6,1.6,0,0,1-.26.93,1.33,1.33,0,0,1-.7.53A9.72,9.72,0,0,1,16.92,23Z"/><path class="cls-1" d="M29.93,19.69a3,3,0,0,1,1.81.53,2.68,2.68,0,0,1,1,1.45l2.48-.47a4.33,4.33,0,0,0-1.67-2.68,6,6,0,0,0-3.61-1,6.46,6.46,0,0,0-3,.62,5.59,5.59,0,0,0-2.38,2.31,7.13,7.13,0,0,0-.81,3.44,7.47,7.47,0,0,0,.73,3.31,5.16,5.16,0,0,0,2.17,2.33,6.77,6.77,0,0,0,3.4.82,8.18,8.18,0,0,0,3-.58,6.57,6.57,0,0,0,2.28-1.34V23.52H30v2.09h2.87v1.57a5,5,0,0,1-1.35.75,4.27,4.27,0,0,1-1.58.31,3.32,3.32,0,0,1-2.58-1.1,4.91,4.91,0,0,1-1-3.32,4.44,4.44,0,0,1,1-3.09A3.42,3.42,0,0,1,29.93,19.69Z"/></g></g></svg>