<svg xmlns="http://www.w3.org/2000/svg" viewBox="0 0 21.99 21"><defs><style>.cls-1{fill:#003764;}</style></defs><g id="Layer_2" data-name="Layer 2"><g id="Layer_1-2" data-name="Layer 1"><path class="cls-1" d="M10.81,14.77c-1-.31-1.15-1.1-1.46-1.75a.92.92,0,0,0-.88-.47h0a1,1,0,0,0-1,1,1.9,1.9,0,0,0,.21.8A3.5,3.5,0,0,0,9.31,16a5.43,5.43,0,0,0,1.42.38v.4a.66.66,0,0,0,1.31,0v-.38a4,4,0,0,0,2.39-1.07,3.44,3.44,0,0,0,.44-4,3.25,3.25,0,0,0-1.54-1.2c-.4-.16-.83-.26-1.24-.4-.81-.28-1.53-.3-2-1.11a1.56,1.56,0,0,1,.06-1.8,1.58,1.58,0,0,1,2.59,0A7.07,7.07,0,0,1,13.15,8a.92.92,0,0,0,.88.48h0a1,1,0,0,0,1-1,2.21,2.21,0,0,0-.21-.8A3.54,3.54,0,0,0,13.27,5,3.8,3.8,0,0,0,12,4.63V4.22h0a.66.66,0,0,0-.66-.65h0a.65.65,0,0,0-.65.65v.4A3.64,3.64,0,0,0,8.66,5.7,3.05,3.05,0,0,0,7.77,8a3.08,3.08,0,0,0,.45,1.75c.81,1.17,2.32,1.62,3.63,2a2.6,2.6,0,0,1,1.09.6,1.22,1.22,0,0,1,.36,1,1.42,1.42,0,0,1-.38,1A2,2,0,0,1,10.81,14.77Z"/><path class="cls-1" d="M14.19.38l-.06,0A10.63,10.63,0,0,0,1.23,7.5h-1A.26.26,0,0,0,0,7.63a.28.28,0,0,0,0,.25l2.13,4.4a.26.26,0,0,0,.35.09l.09-.09,2.12-4.4a.23.23,0,0,0,0-.25A.25.25,0,0,0,4.5,7.5H3.43A8.53,8.53,0,0,1,13.59,2.37a8.4,8.4,0,0,1,6,10.22l0,.09A8.55,8.55,0,0,1,5.37,16.46a1.06,1.06,0,0,0-1.49,0,1,1,0,0,0,0,1.46h0l0,0A10.68,10.68,0,0,0,11.28,21h0a10.62,10.62,0,0,0,10.36-7.78A10.5,10.5,0,0,0,14.19.38Z"/></g></g></svg>