<svg xmlns="http://www.w3.org/2000/svg" width="100" height="100" viewBox="0 0 45 44">
    <g fill="none" fill-rule="nonzero">
        <path fill="#1479BE" d="M44.745.045H2.443v43.123h42.302V28.93c.167-.24.255-.562.255-.946 0-.437-.08-.714-.255-.937V.045z"/>
        <path fill="#FFF" d="M6.258 18.7l-.818-2.008-.808 2.009h1.626zm17.93-.803c-.159.099-.352.099-.59.099h-1.45V16.87h1.46c.21 0 .43.009.57.09.159.07.247.231.247.445.009.233-.088.411-.238.491zm10.3.804l-.826-2.009-.817 2.009h1.643zm-19.204 2.178h-1.222l-.008-3.955-1.723 3.955h-1.046l-1.731-3.964v3.964H7.146l-.458-1.125H4.21l-.457 1.125h-1.3l2.126-5.053h1.767l2.021 4.785v-4.785h1.943l1.555 3.428 1.433-3.428h1.977v5.053h.01zm4.852 0h-3.973v-5.053h3.973v1.054h-2.778v.91h2.707v1.036h-2.707v1.008h2.778v1.045zm5.607-3.687c0 .795-.527 1.223-.835 1.348.255.107.475.277.58.429.167.25.202.482.202.919v.99h-1.204l-.008-.633c0-.295.026-.74-.194-.982-.176-.178-.43-.214-.861-.214h-1.275v1.839h-1.186v-5.053h2.733c.607 0 1.055.018 1.442.241.378.215.606.545.606 1.116zm1.899 3.687h-1.213v-5.053h1.213v5.053zm14.07 0h-1.687l-2.25-3.785v3.785H35.35l-.466-1.125h-2.47l-.44 1.125h-1.388c-.58 0-1.31-.134-1.723-.554-.422-.428-.633-1.008-.633-1.928 0-.75.132-1.437.642-1.972.387-.402.984-.59 1.81-.59h1.143v1.08H30.7c-.44 0-.685.063-.923.304-.202.214-.342.616-.342 1.143 0 .544.105.928.334 1.187.175.196.51.259.826.259h.536l1.679-3.973h1.775l2.013 4.776v-4.776h1.81l2.092 3.517v-3.517h1.213v5.044zm-39.269.99h2.03l.458-1.124h1.028l.457 1.125h3.999v-.857l.352.866h2.074l.351-.875v.866h9.932v-1.84h.193c.132 0 .176.019.176.242v1.598h5.133v-.429c.413.232 1.063.429 1.907.429h2.162l.457-1.125h1.037l.449 1.125h4.166v-1.063l.633 1.063h3.33v-7.043h-3.304v.83l-.457-.83h-3.393v.83l-.422-.83h-4.579c-.764 0-1.441.107-1.986.41v-.41h-3.155v.41c-.352-.312-.818-.41-1.345-.41h-11.54l-.782 1.82-.791-1.82h-3.63v.83l-.404-.83H3.885l-1.442 3.347v3.696zm42.302 3.732h-2.17c-.22 0-.361.009-.484.09-.123.08-.176.204-.176.365a.37.37 0 0 0 .264.375c.123.045.255.054.457.063l.641.017c.65.018 1.081.134 1.354.411.044.036.079.08.105.125V25.6h.01zm0 3.33c-.29.437-.852.651-1.617.651h-2.294v-1.089h2.285c.229 0 .387-.027.484-.125.079-.08.14-.187.14-.33a.425.425 0 0 0-.15-.34c-.087-.08-.21-.107-.421-.115-1.116-.036-2.505.035-2.505-1.563 0-.732.457-1.5 1.705-1.5h2.373v-.999H42.54c-.668 0-1.151.16-1.485.41v-.41h-3.252c-.519 0-1.125.134-1.415.41v-.41h-5.819v.41c-.465-.339-1.239-.41-1.6-.41h-3.831v.41c-.37-.356-1.178-.41-1.679-.41h-4.29l-.983 1.08-.914-1.08h-6.408v7.052h6.276l1.01-1.098.958 1.098h3.876v-1.66h.387c.51.008 1.125-.01 1.652-.241v1.9h3.2v-1.838h.15c.201 0 .219.009.219.205v1.634h9.712c.615 0 1.257-.16 1.617-.455v.455h3.085c.641 0 1.266-.09 1.74-.321V28.93zM40 26.912c.237.241.36.553.36 1.071 0 1.09-.668 1.598-1.872 1.598h-2.32v-1.089h2.312c.228 0 .386-.027.483-.125.079-.08.14-.187.14-.33a.45.45 0 0 0-.14-.34c-.097-.08-.22-.107-.422-.115-1.116-.036-2.505.035-2.505-1.563 0-.732.457-1.5 1.696-1.5h2.382v1.08h-2.18c-.22 0-.36.01-.483.09-.132.08-.176.205-.176.366a.38.38 0 0 0 .264.375c.123.045.255.054.457.063l.642.017c.659.01 1.098.125 1.362.402zm-10.723-.312c-.158.089-.351.107-.588.107h-1.45v-1.134h1.467c.211 0 .422 0 .563.09.149.08.246.231.246.455a.533.533 0 0 1-.238.482zm.712.624c.264.099.484.277.58.429.167.25.194.473.194.92v1h-1.196v-.635c0-.303.027-.75-.193-.982-.176-.187-.44-.223-.87-.223h-1.274v1.848h-1.187V24.53h2.742c.607 0 1.046.026 1.433.24.378.224.606.545.606 1.125.009.795-.518 1.205-.835 1.33zm1.503-2.704h3.973v1.053h-2.786v.92h2.716v1.035h-2.716v1l2.786.009v1.053H31.49v-5.07zm-8.015 2.33h-1.538v-1.286h1.555c.43 0 .73.17.73.616-.01.446-.29.67-.747.67zm-2.725 2.267l-1.82-2.062 1.82-1.99v4.052zm-4.711-.598h-2.927v-1h2.61v-1.035h-2.61v-.92h2.98l1.3 1.473-1.353 1.482zm9.448-2.33c0 1.401-1.028 1.696-2.065 1.696h-1.485v1.696h-2.312l-1.468-1.67-1.52 1.67h-4.711V24.53h4.781l1.468 1.651 1.512-1.651h3.796c.95-.01 2.004.259 2.004 1.66z"/>
        <path fill="#047CC0" d="M1.784 42.186c0 .464-.351.84-.817.84-.475 0-.818-.376-.818-.84 0-.455.343-.83.818-.83.474 0 .817.375.817.83zm.15 0a.97.97 0 0 0-.967-.973.97.97 0 0 0-.967.973c0 .545.43.982.967.982a.977.977 0 0 0 .967-.982zm-.739-.196c0-.116-.079-.125-.132-.125H.791v.25h.255c.07 0 .15-.018.15-.125zm.194.642h-.176c-.026-.071-.026-.205-.026-.24 0-.072-.01-.135-.132-.135H.79v.375H.633v-.91h.413c.14 0 .308.053.308.259a.24.24 0 0 1-.097.205c.044.027.079.063.079.16l.009.161c0 .045.009.054.044.072v.053z"/>
    </g>
</svg>
