<svg xmlns="http://www.w3.org/2000/svg" width="100" height="100" viewBox="0 0 45 30">
    <g fill="none" fill-rule="nonzero">
        <path fill="#FFF" d="M.158.187h44.675v28.904H.167z"/>
        <path fill="#EF7622" d="M44.684 16.264S32.476 25.012 10.116 28.93h34.568V16.264z"/>
        <path fill="#231F20" d="M44.833.027H0v29.225h45V.018h-.167v.009zm-.158.33V28.93H.325V.366C.65.357 44.35.357 44.675.357z"/>
        <path fill="#231F20" d="M3.938 8.971H2.074v6.614H3.93c.984 0 1.696-.232 2.32-.767a3.315 3.315 0 0 0 1.178-2.535c0-1.955-1.433-3.312-3.49-3.312zm1.485 4.963c-.396.366-.914.527-1.74.527H3.34v-4.374h.343c.817 0 1.318.152 1.74.535.44.393.703 1.01.703 1.643 0 .643-.264 1.276-.703 1.67zm2.593-4.963H9.29v6.614H8.016V8.971zm4.377 2.535c-.765-.286-.985-.473-.985-.83 0-.42.396-.732.95-.732.377 0 .694.16 1.028.536l.668-.884a2.83 2.83 0 0 0-1.916-.732c-1.152 0-2.03.812-2.03 1.892 0 .91.413 1.375 1.599 1.812.501.179.747.295.879.375.255.17.378.41.378.688 0 .535-.422.937-.985.937-.606 0-1.09-.304-1.388-.884l-.818.804c.59.874 1.292 1.258 2.26 1.258 1.318 0 2.25-.893 2.25-2.169-.018-1.062-.449-1.535-1.89-2.07zm2.276.777c0 1.946 1.503 3.454 3.436 3.454.545 0 1.011-.107 1.591-.384v-1.517c-.51.518-.958.723-1.529.723-1.283 0-2.188-.946-2.188-2.285 0-1.268.94-2.268 2.126-2.268.607 0 1.064.224 1.591.741V9.23c-.553-.286-1.02-.41-1.564-.41a3.446 3.446 0 0 0-3.463 3.463zm15.1 1.124l-1.74-4.436h-1.39l2.77 6.784h.676l2.812-6.784h-1.37l-1.758 4.436zm3.709 2.178h3.603v-1.124h-2.338v-1.786h2.25V11.56h-2.25v-1.473h2.338V8.97h-3.603v6.614zm8.63-4.668c0-1.24-.843-1.955-2.302-1.955h-1.881v6.615h1.265v-2.66h.167l1.758 2.66h1.565l-2.048-2.785c.95-.197 1.476-.857 1.476-1.875zm-2.548 1.098h-.37v-2h.396c.791 0 1.222.34 1.222.982-.01.66-.44 1.018-1.248 1.018z"/>
        <path fill="#EF7622" d="M27.026 12.283c0 1.946-1.547 3.517-3.463 3.517-1.916 0-3.462-1.571-3.462-3.517s1.546-3.517 3.462-3.517c1.908 0 3.463 1.57 3.463 3.517z"/>
        <path fill="#231F20" d="M42.592 8.703a.5.5 0 0 0-.501.509.5.5 0 0 0 .5.509.503.503 0 0 0 .493-.509.503.503 0 0 0-.492-.509zm0 .92a.407.407 0 0 1-.396-.42c0-.232.176-.42.396-.42.22 0 .395.188.395.42 0 .232-.175.42-.395.42z"/>
    </g>
</svg>
