<svg xmlns="http://www.w3.org/2000/svg" viewBox="0 0 1101.87 331.27"><defs><style>.cls-1{fill:#e5e5e5;}</style></defs><g id="Layer_2" data-name="Layer 2"><g id="Layer_1-2" data-name="Layer 1"><path class="cls-1" d="M474.68,331.27H394.81V104.19h79.87Zm-71.87-8h63.87V112.19H402.81Zm-95.44,8H222.85L190.61,224.54l-34,106.73H72.17L0,105.73H84L119,220.12,156.1,105.73h73.31l35.06,115.79,37.06-115.79h78Zm-78.58-8h72.74l67.06-209.54H307.37l-43.12,134.7-40.77-134.7H161.91l-43.1,133L78,113.73H11L78,323.27H150.8l40-125.73Zm496.47,8H659.1l-76.8-91.81v91.81H502.82V105.73H569l76.8,91.81V104.75h79.48Zm-62.42-8h54.42V112.75H653.78V219.57L565.24,113.73H510.82V323.27H574.3V217.43ZM765.71,106.89h73.34V327.27H765.71Zm336.16.66V327.27h-60.3l-82.66-98.82v98.82H887.43V109.73h60.29l82.67,98.83v-101ZM802,79l43.3-75h-86.6ZM436,87,385.75,0H486.21ZM399.61,8,436,71,472.35,8Z"/></g></g></svg>