<svg xmlns="http://www.w3.org/2000/svg" viewBox="0 0 916.58 558.86"><defs><style>.cls-1{fill:#ddd;}</style></defs><g id="Layer_2" data-name="Layer 2"><g id="Layer_1-2" data-name="Layer 1"><path class="cls-1" d="M742.34,171.59a31,31,0,0,0,12.35-6.83,27.92,27.92,0,0,0,8.54-11.59c1.52-4.18,2.28-9.55,2.28-16.15q0-17.09-17.09-24.68a53.62,53.62,0,0,0-22-4.55H523.2l-.38,65.32H726.38A67.56,67.56,0,0,0,742.34,171.59ZM539,123.66h187.4a37.6,37.6,0,0,1,15.6,3.19c7.07,3.14,7.66,6.61,7.66,10.17,0,6.17-.83,9.36-1.32,10.71a13.21,13.21,0,0,1-3.91,4.93c-3,2.54-5,3.3-5.9,3.53a52.11,52.11,0,0,1-12.13,1.05H538.78ZM765.51,253.25a41.42,41.42,0,0,0-13.29-3q-8.37-.77-9.88-.76H522.82v64.94H742.34q12.52,0,17.85-1.71a26.4,26.4,0,0,0,9.87-5.89q11.4-9.48,11.4-26.2Q781.46,260.09,765.51,253.25ZM759.9,294.6l-.3.25-.28.26a10.68,10.68,0,0,1-4,2.46c-.28.1-3.23.95-13,.95H538.69v-33.2H742.21c.45,0,2.21.12,8.57.69,5.09.47,7.35,1.31,8.08,1.65l.2.09.19.08c2.37,1,6.34,2.72,6.34,12.76C765.59,288.81,762.55,292.39,759.9,294.6Zm147.93-47.54c-6.09-13.91-14.49-24.69-25-32.05a121.35,121.35,0,0,0-15.57-9.32,76.64,76.64,0,0,0,13.14-11.15c9.41-10,15.67-21.22,18.59-33.21,1.59-6.37,2.36-15.19,2.36-27V116.9c0-19.46-3.7-37.2-11-52.71v0C882,46.55,868.69,31.82,850.77,20.36l-.17-.11-.16-.1c-12.92-7.82-33.23-13.38-62.08-17h-.06A405,405,0,0,0,740.07,0H190.21C153,0,124.55,1.33,105.6,4A152.76,152.76,0,0,0,49.07,23.45c-18.77,11-32.4,27.82-40.51,50l0,0,0,.06C2.87,89.43,0,109.37,0,132.85V152.6A128.42,128.42,0,0,0,9.38,202c6.37,15.41,15.49,28.28,27.12,38.25s27.21,17.15,45.88,21c2.89.59,5.85,1.13,8.9,1.62H3.42V329.2c0,12.28,3.36,25.36,10,38.88a82.27,82.27,0,0,0,28.9,33.25c11.8,7.77,27.2,13.31,45.76,16.44,17.27,2.92,37.33,4.4,59.61,4.4h628.1c26,0,48.26-2.71,66.24-8.06,19.31-5.76,35-15.07,46.49-27.66,11.17-12.2,19-25.44,23.22-39.33,3.27-10.73,4.87-23.92,4.87-40.33V293.12C916.58,275.78,913.64,260.28,907.83,247.06Zm-576,159.24H147.66q-32.28,0-57-4.17T51,388.07a66.34,66.34,0,0,1-23.36-27Q19.28,344,19.29,329.2V278.69h110.9v11.4a63.14,63.14,0,0,0,.95,12.91q.95,4.17,5.51,10.25a21.21,21.21,0,0,0,12.34,8,86.12,86.12,0,0,0,19.94,1.9h150.4A121.49,121.49,0,0,0,341,321.61a47.07,47.07,0,0,0,16.71-7.22,22.59,22.59,0,0,0,7.79-9.11,31.31,31.31,0,0,0,2.09-12.16V284A27.1,27.1,0,0,0,363.19,270a28,28,0,0,0-10.25-10.45q-5.9-3.22-15.77-4.18t-25.44-.94l-170.14-3.8q-31.92,0-56-4.94T46.83,228.18Q32.21,215.64,24,195.9a112.1,112.1,0,0,1-8.17-43.3V132.85q0-32.65,7.6-53.93Q33.73,50.81,57.08,37.14a136.81,136.81,0,0,1,50.7-17.47q27.36-3.78,82.43-3.8H311.73q9.82,0,19.16.45,7.86.36,15.4,1h0c2.46.23,4.9.47,7.32.75l.35,0q3.5.39,6.9.86l.21,0q3.36.47,6.64,1l1,.17c2,.34,4.09.69,6.1,1.07l.33.06c2.05.39,4.06.81,6.06,1.23l1.34.3c2,.44,4,.89,5.9,1.37q46.33,11.39,60,35.32,8.73,15.2,11.78,27.53t3,30.58v22.79H353.88V125.26q0-9.89-9.86-17.86a22.31,22.31,0,0,0-9.5-4.55A59.83,59.83,0,0,0,322,101.71H170.83q-11.78,0-16.9.57c-3.42.37-7.16,2.09-11.2,5.12q-13.68,9.88-13.68,23.56v7.21q0,14.81,9.5,22.78a17.74,17.74,0,0,0,8.16,4.38,52.31,52.31,0,0,0,10.83.94h4.94l191.4,1.9a283.26,283.26,0,0,1,40.86,2.76l3.34.51c1.43.23,2.84.46,4.23.72q21.84,4,34.37,12,20.9,13.31,30.39,39.88,7.59,21.65,7.59,52.79v17.85q0,26.21-2.66,37.61-4.94,22-22,40.63-18.23,20.52-58.47,28.49c-1.23.24-2.48.48-3.74.7l-1.06.19-3,.49-1,.16q-4.07.63-8.39,1.14l-.33,0c-1.38.16-2.78.32-4.2.46l-.43,0q-7,.71-14.6,1.12Q343.93,406.3,331.87,406.3Zm19-107.19h0a8,8,0,0,1-2.24,2.24A31.15,31.15,0,0,1,338,306c-3,.56-8.64,1.24-18.7,1.24H168.93a71.23,71.23,0,0,1-16.16-1.45,5.31,5.31,0,0,1-3.42-2.08,21.12,21.12,0,0,1-2.76-4.39,50.82,50.82,0,0,1-.53-9.25V266.56l165.32,3.69h.35c9.85,0,17.9.29,23.92.87,5.77.56,8.52,1.68,9.65,2.29a13.13,13.13,0,0,1,4.31,4.75c.95,1.58,2.09,3.87,2.09,5.84v9.11a16,16,0,0,1-.84,6ZM338,125.26v26.88l-175.39-1.73h-5.09a36.29,36.29,0,0,1-7.48-.6,3.44,3.44,0,0,1-.86-.62L149,149l-.23-.19c-1.78-1.5-3.83-4.06-3.83-10.63V131c0-1.67,0-5.56,7.11-10.7l.11-.08.11-.09a12.08,12.08,0,0,1,3.5-2c2-.22,6.24-.47,15.08-.47H322a45,45,0,0,1,9.18.78A6.37,6.37,0,0,1,334,119.7l0,0,0,0C336.68,121.88,338,123.73,338,125.26ZM900.71,306.79q0,22-4.18,35.7-5.32,17.49-19.75,33.24t-39.3,23.17q-24.88,7.39-61.72,7.4H429.25c13.4-5.95,24.28-13.56,32.5-22.78,13.18-14.37,21.83-30.43,25.72-47.74,2.06-8.86,3.06-22.32,3.06-41.14V276.79c0-22.47-2.86-42-8.49-58v0l0-.05c-7.51-21-19.89-37.15-36.8-47.92-10.21-6.5-23.31-11.14-40-14.19l-1.28-.23h75.26V117.66c0-13.33-1.17-24.88-3.49-34.35-2.39-9.67-6.91-20.31-13.43-31.66-8.76-15.35-24.24-27.15-47-35.78H740.07a388.31,388.31,0,0,1,46.33,3q39.5,4.95,55.82,14.82Q865.38,48.54,876,70.94q9.48,20.15,9.49,46v17.47q0,15.58-1.9,23.17-3.42,14.06-14.81,26.2-8.35,9.12-26.21,17.85-13.29,6.47-19,7.6,8.73,0,24.7,5.69A101.75,101.75,0,0,1,873.74,228q12.15,8.53,19.56,25.44t7.41,39.69ZM72,558.86H53.91V548.19a4.93,4.93,0,0,0-2.1-4A6,6,0,0,0,48.14,543H18.07v15.85L.29,558.8V499H54.08a35.37,35.37,0,0,1,6.59.49,13,13,0,0,1,5.07,2.36A14.59,14.59,0,0,1,72,514.27V523a17.26,17.26,0,0,1-.75,5.44,7.3,7.3,0,0,1-2.86,3.71,23.17,23.17,0,0,1-4.31,2.09,12.86,12.86,0,0,1-2.92.88A10.93,10.93,0,0,1,65,536.36a12,12,0,0,1,4.9,3.61,11,11,0,0,1,1.66,3.41,16,16,0,0,1,.43,4Zm-17.31-35.5v-4.43a10.84,10.84,0,0,0-.23-2.56,4.25,4.25,0,0,0-1.1-1.86,4,4,0,0,0-2-1.2,12.72,12.72,0,0,0-2.79-.26H18.07V528.9H47.55a12.73,12.73,0,0,0,3.5-.32,5.06,5.06,0,0,0,1.87-1.25A5.36,5.36,0,0,0,54.66,523.36Zm104.5,35.5H140.62V536.54H100.76v22.32H82.46V499h18.3v22h39.86V499h18.54ZM251.7,531.7a80.82,80.82,0,0,1-.59,11.83q-1.22,7.29-5.36,10.55a20.76,20.76,0,0,1-8.13,3.61,47.74,47.74,0,0,1-10.92,1.17h-34a38.2,38.2,0,0,1-9.56-1,24.06,24.06,0,0,1-8.63-4.37q-2.85-2.22-4-7.87a53.92,53.92,0,0,1-.76-9.91V533.8c0-.62,0-1.23.06-1.81v-7.28a64.66,64.66,0,0,1,.7-11q1.34-7.35,5.54-10.78a17.17,17.17,0,0,1,7.92-3.56,62.73,62.73,0,0,1,9.27-.46h32.23a56.5,56.5,0,0,1,10,.64,22.11,22.11,0,0,1,8.86,4,16.75,16.75,0,0,1,6.18,9.27,34.73,34.73,0,0,1,1.11,9.5v9.38Zm-20,4.78V520.86a9.72,9.72,0,0,0-.55-3.41,6.29,6.29,0,0,0-1.87-2.59,6.58,6.58,0,0,0-2.94-1.46,19.81,19.81,0,0,0-4-.35h-24.6a17,17,0,0,0-3.76.32,6.82,6.82,0,0,0-5,4.52,16.29,16.29,0,0,0-.52,4.72v12.23a21.65,21.65,0,0,0,.35,4.93,6.44,6.44,0,0,0,1.46,2.53,6.57,6.57,0,0,0,3.29,1.76,15.53,15.53,0,0,0,4.16.69h24.77A10.86,10.86,0,0,0,229,543a5.94,5.94,0,0,0,2-2.68A11.15,11.15,0,0,0,231.65,536.48Zm109-3.32V537a37.58,37.58,0,0,1-.82,9.44,14.76,14.76,0,0,1-5.24,7.28,22.59,22.59,0,0,1-8.33,3.88,44,44,0,0,1-11,1.31H262.07V499h54.37a44.47,44.47,0,0,1,7.64.75q6.12,1.11,9.15,3.09a15.31,15.31,0,0,1,6.29,8.34,27.76,27.76,0,0,1,1.17,8.62c0,.59,0,1.14,0,1.66s0,1,0,1.43ZM322,536.48V520.86a10,10,0,0,0-.55-3.41,6.2,6.2,0,0,0-1.87-2.59,6.58,6.58,0,0,0-2.94-1.46,19.85,19.85,0,0,0-4-.35H280.72l-.06,31.7h32a10.86,10.86,0,0,0,6.65-1.8,5.94,5.94,0,0,0,2-2.68A10.91,10.91,0,0,0,322,536.48Zm94.87,22.38H351.23V499h64.46v14H369.35V523h44.07v11.77H369.53v10h47.32Zm69.42,0H467.21V499h19.06Zm82.81-17.14a28.54,28.54,0,0,1-.41,5.77,13.49,13.49,0,0,1-3.38,6.24c-1.86,2.1-4.86,3.55-9,4.37a47.08,47.08,0,0,1-9.15.76H518.9a52.49,52.49,0,0,1-8.74-.65,15.69,15.69,0,0,1-6.09-2.15,10.21,10.21,0,0,1-3.59-4.14A11.28,11.28,0,0,1,499.2,547v-7.75h17V541a9.56,9.56,0,0,0,.15,2,4.34,4.34,0,0,0,.84,1.57,3.25,3.25,0,0,0,1.89,1.22,12.93,12.93,0,0,0,3.06.3h23.08a18.2,18.2,0,0,0,3.33-.24,7.09,7.09,0,0,0,2.56-1.11,3.4,3.4,0,0,0,1.19-1.39,4.72,4.72,0,0,0,.32-1.87v-1.4a4.14,4.14,0,0,0-.67-2.16,4.31,4.31,0,0,0-1.57-1.6,6.38,6.38,0,0,0-2.42-.64q-1.51-.15-3.9-.15L518,535a43.68,43.68,0,0,1-8.6-.75,12,12,0,0,1-9.44-7.64,17.11,17.11,0,0,1-1.25-6.64v-3a24.82,24.82,0,0,1,1.16-8.27,11.81,11.81,0,0,1,5.16-6.41,20.94,20.94,0,0,1,7.78-2.68,100.1,100.1,0,0,1,12.65-.58h18.65a48.94,48.94,0,0,1,11.77,1.28q7.11,1.74,9.21,5.42a17.13,17.13,0,0,1,1.81,4.22,20.69,20.69,0,0,1,.46,4.69v3.5H550.55v-2.33A3.52,3.52,0,0,0,549,513a3.42,3.42,0,0,0-1.46-.7,9,9,0,0,0-1.92-.17H522.46c-1.21,0-2.07,0-2.6.08a3.63,3.63,0,0,0-1.72.79,4.38,4.38,0,0,0-2.09,3.61v1.11a4.32,4.32,0,0,0,1.45,3.5,2.77,2.77,0,0,0,1.26.67,8.42,8.42,0,0,0,1.66.14h.76l29.37.3a41.36,41.36,0,0,1,7.43.61,14.82,14.82,0,0,1,5.27,1.83,11.62,11.62,0,0,1,4.67,6.12,24.87,24.87,0,0,1,1.16,8.1Zm72.61,17.14H579.33V499h17.54v45.8h44.82Zm96.27,0H717.39l-6-10.67H673.85l-5.53,10.67H648.27L681.37,499H705ZM704.34,535.6l-11.78-22.14L680.32,535.6Zm123,23.26H799.44l-34.68-43.3v43.3h-18.7V499H774.5l35.08,43.88V499H827.3Zm88.93-25.7V537a37.58,37.58,0,0,1-.82,9.44,14.76,14.76,0,0,1-5.24,7.28,22.59,22.59,0,0,1-8.33,3.88,44,44,0,0,1-11,1.31H837.67V499H892a44.47,44.47,0,0,1,7.64.75q6.12,1.11,9.15,3.09a15.27,15.27,0,0,1,6.29,8.34,27.76,27.76,0,0,1,1.17,8.62c0,.59,0,1.14,0,1.66s0,1,0,1.43Zm-18.65,3.32V520.86a10,10,0,0,0-.55-3.41,6.2,6.2,0,0,0-1.87-2.59,6.58,6.58,0,0,0-2.94-1.46,19.81,19.81,0,0,0-4-.35H856.32l-.06,31.7h32A10.86,10.86,0,0,0,895,543a5.94,5.94,0,0,0,2-2.68A10.91,10.91,0,0,0,897.58,536.48Z"/></g></g></svg>