<svg xmlns="http://www.w3.org/2000/svg" viewBox="0 0 23.99 22.28"><defs><style>.cls-1{fill:#d3c58d;}</style></defs><g id="Layer_2" data-name="Layer 2"><g id="Layer_1-2" data-name="Layer 1"><path class="cls-1" d="M23.55,7.67l-11-7.5a1,1,0,0,0-1.13,0L.43,7.73A1,1,0,0,0,.05,8.86a1,1,0,0,0,1,.7H2.46V21.28a1,1,0,0,0,1,1h17a1,1,0,0,0,1-1V9.49H23a1,1,0,0,0,.56-1.82ZM10.47,20.28l0-4.49h3v4.49ZM19.41,8.49V20.28H15.47V14.79a1,1,0,0,0-.29-.71,1,1,0,0,0-.71-.29h-5a1,1,0,0,0-1,1l0,5.5h-4V8.56A1,1,0,0,0,4,7.71l8-5.5,7.93,5.41A1,1,0,0,0,19.41,8.49Z"/></g></g></svg>