<svg xmlns="http://www.w3.org/2000/svg" viewBox="0 0 197.44 216.2"><defs><style>.cls-1{fill:#bac3cf;fill-rule:evenodd;}</style></defs><g id="Layer_2" data-name="Layer 2"><g id="Layer_1-2" data-name="Layer 1"><path class="cls-1" d="M76.43,50.08l.44.22v4.59l-.44.24-3,.09L73,55V50.42l.45-.25ZM44.57,51.63l-.44.27v4.58l.44.2,2.94-.19.44-.27V51.64l-.44-.21Zm71.79-1.71-.44.23v4.6l.44.25,3,.07.44-.23v-4.6c-.15-.08-.3-.16-.44-.25Zm0,7.1-.44.23v4.58l.44.24,3,.07.44-.22V57.34l-.44-.25ZM59,50.77l-.44.25V62.69l.44.21,2.9-.14.45-.26V50.84l-.45-.21ZM117.09,8.54l-1,.54V19.36c.33.2.67.39,1,.58l6.76.19,1-.53V9.33l-1-.6Zm28.11,42.6-.44.21V63l.44.26,2.9.18.45-.21V51.58l-.45-.26Zm-14.4-.72-.45.22V62.3l.45.25,2.9.12.44-.21V50.8l-.44-.26Zm66.6-10.18q-1.8,5.58-3.59,11.16h0q-2.53,3.41-5.07,6.84Q177.9,57,167,56l-1.38,1.68a.81.81,0,0,0,0,.92s3.68,6.06,3.78,6.14l2.92,3.15a.93.93,0,0,1-.55,1.71q-8.79-.81-17.6-1.44a1.59,1.59,0,0,1-1.3-.78c-.19.13-.38.26-.58.38a2.2,2.2,0,0,1-1.08.2q-4.1-.27-8.19-.51a3,3,0,0,1-1.33-.39l-2.22-1.1-2.36,1a1.93,1.93,0,0,1-.92.19c-2.55-.12-5.11-.23-7.66-.33a2.54,2.54,0,0,1-1.17-.33l-2.1-1-2.17.91a2.43,2.43,0,0,1-1.07.2q-5.47-.17-11-.25a2.15,2.15,0,0,1-1.46-1.06,3.23,3.23,0,0,1-.7.52l-.06,0-.39.2a3.06,3.06,0,0,1-.94.26l-4.45,0h0c-1.92,0-3.85,0-5.78,0-1,0-2.51-1.52-2.51-1.52a2.39,2.39,0,0,1-2.09,1.53h-.13c-2.11,0-4.23,0-6.34.07h-1a2.05,2.05,0,0,1-1.46-1,.59.59,0,0,1-.15.15,4,4,0,0,1-1.94.94c-4.33.1-8.66.22-13,.39a2,2,0,0,1-1.46-1,4.16,4.16,0,0,1-2.09,1.13l-.31,0h-.16c-2.67.12-5.35.25-8,.39a1.92,1.92,0,0,1-.95-.18L53.31,66a1.67,1.67,0,0,1-.28-.18l-4.3.26L47.5,67.51a.72.72,0,0,1-.56.36q-5.3.34-10.57.77h-.12q-4.22.33-8.43.71a1.74,1.74,0,0,1-.88-.13l-2.65-1.09a1,1,0,0,1-.61-1V64.94c-.2-1-.4-2-.59-3a.64.64,0,0,1,.57-.75l.91-.08-.58-.4a.74.74,0,0,1-.31-.62V56c-2.89.27-5.77.54-8.65.83q-3.1-3-6.21-6h0l2.95-6.87V29.85Q6,24.23.25,18.67l0,0,0,0h0A.86.86,0,0,1,0,17.83q1.46-5.46,2.9-10.9A1.75,1.75,0,0,1,4.36,5.66q14.2-1.71,28.46-2.9h0l1.28-.1.64,0s0,0,0,0l2.08-.17h.08L38,2.34,41,2.11v0c2.29-.17,4.58-.34,6.87-.49a2.59,2.59,0,0,1,1.21.18,3.23,3.23,0,0,1,1.94,2,3.81,3.81,0,0,1,1.94-2.28,3,3,0,0,1,1.21-.33Q58.51,1,62.87.82h0L64.33.75l1-.05h.09Q80.29.08,95.2,0a1.21,1.21,0,0,1,1.16.88c.2.69.39,1.39.59,2.09,2,0,3.89,0,5.84,0a1,1,0,0,1-.14-.24l-.49-1.18a1.1,1.1,0,0,1,1-1.53h2.51a.86.86,0,0,1,.23.05,3.41,3.41,0,0,1,.46,0q11.39.11,22.76.55a3.52,3.52,0,0,1,1.66.49l3.43,2a3.23,3.23,0,0,1,.34-.7A3.26,3.26,0,0,1,137.48,1q12.63.62,25.25,1.65a3.79,3.79,0,0,1,3,1.95c.08-.27.17-.53.25-.79A1.14,1.14,0,0,1,167.15,3q13.62,1.18,27.2,2.85a1.85,1.85,0,0,1,1.58,1.79v7.23a1.1,1.1,0,0,1-.16.6q-7,11.34-14.09,22.8,3.25.34,6.49.72c2.75,0,5.5,0,8.24,0A1.06,1.06,0,0,1,197.4,40.24ZM24.67,45.69c-.36-.75-.71-1.5-1.06-2.25v-31l1-.65c1.8-.17,3.6-.34,5.4-.49l4.42.18L32.81,6.2q-13.5,1.13-27,2.73l-1.5,5.64L8.67,13.5c1.85-.22,3.71-.42,5.56-.63l1,.46v31l-1.07,2.46Q19.4,46.18,24.67,45.69Zm8.93,7v.79c-.14.34-.29.67-.44,1L38,54.12c-.18-.31-.35-.63-.52-.94V51.11l-2.58-.8L27.2,51l-1.28,1.12v7.1l2,.85c1.76-.16,3.51-.32,5.27-.46l.44.2v4.58l-.44.27-2.94.25-.44-.2V63.9l.48-1-4.78.44c.14.31.29.62.44.93v2.05l2,.82c2.55-.23,5.1-.44,7.64-.65l1.9-1.15v-7.1l-1.9-.85-5.31.44-.44-.19V53l.44-.27,2.94-.25Zm18.22-2.58-1.93-.88q-5,.3-10,.68l.48,1V65.11l-.48,1,4.75-.34-.48-.94V59l.44-.26,5.32-.35,1.93-1.14ZM55.28,27v14l-1,2.4c3.63-.2,7.25-.38,10.88-.54-.37-.76-.73-1.53-1.1-2.29v-34c.37-.81.73-1.63,1.1-2.44-3.63.15-7.25.33-10.88.54l1,2.34v14l-1,.61c-2.22.13-4.44.26-6.66.41l-1-.5v-14c.37-.83.73-1.65,1.1-2.47q-5.39.35-10.77.77L38,8.17v34c-.36.81-.73,1.62-1.09,2.44,3.59-.29,7.18-.54,10.77-.78l-1.1-2.27v-14l1-.63c2.22-.14,4.44-.28,6.66-.4Zm11,22.37-1.9-.92c-2.55.11-5.1.24-7.66.37L54.76,50v14.2l1.93.89c2.56-.13,5.11-.26,7.66-.37l1.9-1.08ZM81,64.12l-.61-1-1.65-6L80.71,56v-7.1l-1.94-1c-3.35.09-6.7.19-10,.32l.48,1V63.49l-.48,1,4.76-.16-.49-1V57.5l.45-.25,1.21,0,.32.18c.54,2,1.07,3.92,1.61,5.88-.11.33-.21.65-.32,1ZM93.5,42.22q.75-2.74,1.51-5.47l-4.35.59q-6,.06-12.07.22l-1-.54v-11l1-.59L82,25.39c1.39.18,2.78.35,4.17.54V19.86q-2.09.33-4.17.69l-3.37.08-1-.54v-11l1-.58q6-.16,12.07-.22L95,8.8C94.5,7,94,5.23,93.5,3.45Q80.85,3.54,68.21,4c.35.76.71,1.53,1.06,2.3v34l-1.06,2.44Q80.84,42.3,93.5,42.22ZM95.79,50c-.16-.76-.33-1.52-.5-2.28q-6.15,0-12.3.15c-.17.76-.35,1.52-.52,2.29l2-.27,2.37,0,.45.22V63l-.49,1,4.8-.06-.48-1V50l.44-.24,2.46,0Zm13.77,1.84-.53-1V48.79l-1.89-1c-2.56,0-5.11-.05-7.67-.05l-2,1v7.1l2,1c1.76,0,3.53,0,5.29,0l.44.24v4.58l-.44.23-3,0-.44-.23v-.79l.48-1h-4.8l.45,1v2.05l2,1c2.56,0,5.11,0,7.67,0L109,63v-7.1l-1.89-1c-1.78,0-3.55,0-5.33,0l-.44-.24V50l.44-.24,3,0,.44.24v.79c-.15.32-.29.65-.44,1Zm14-2.74-1.93-1.06c-3.35-.09-6.7-.17-10.05-.22l.49,1V63l-.49,1q5,.07,10.05.23l1.93-1V57.22l-2-1.09,2-.94ZM134.27,43l-1.37-2.51-3.75-14.64,4.39-2.26V6.6L129.15,4q-11.37-.43-22.76-.55l1.09,2.41v34l-1.09,2.34q5.39,0,10.79.17L116.08,40V26l1-.54,2.74.07.73.48,3.66,14.29c-.25.75-.49,1.51-.73,2.27C127.08,42.7,130.68,42.84,134.27,43ZM138,49.7l-1.89-1.09c-2.55-.12-5.11-.23-7.66-.33l-1.94.93v14.2l1.94,1.07c2.55.1,5.11.21,7.66.33L138,63.9Zm14.4.85-1.89-1.12q-3.83-.26-7.66-.47l-1.93.89v14.2l1.93,1.11q3.84.21,7.66.47l1.89-.88Zm10.31-5.75,1.5-5.33-4.34.21q-6-.47-12-.85l-1-.62v-11l1-.5,3.36.21,4.17.91V21.8l-4.17.32-3.36-.22-1-.62v-11l1-.5q6,.38,12,.85l4.34.91L162.72,6q-12.61-1-25.26-1.65l1.07,2.4v34l-1.07,2.34Q150.1,43.78,162.72,44.8Zm6.39,6.07-5.67-.49.28.6-4.67,5.68V51l.48-1-4.75-.35.48,1V65l-.48,1,4.75.35-.48-1v-3.3l1.45-1.72,3.34,5.66c-.11.24-.22.48-.32.72l5.59.48-1.69-1.32-4.87-8.13,4.79-5.71Zm11.5-.95-1.37-.15h0ZM193,42.4l-4.59,0q-6.31-.72-12.65-1.34,8.39-13.72,16.77-27.25V9q-11.85-1.42-23.75-2.49-.84,2.66-1.69,5.31l4.7-.14c3.57.34,7.15.69,10.72,1.08q-7.86,13.64-15.73,27.45v4.89q12.28,1.06,24.54,2.52ZM65,89.33l2.51,5.77H66.1l-.5-1.22H63.36l-.48,1.22h-1.4L64,89.33Zm.14,3.47L64.46,91l-.7,1.79Zm2.89-2.35H69.7V95.1H71V90.45h1.64V89.33H68.06Zm12.59,3.46a1.47,1.47,0,0,1-.7.16,1.39,1.39,0,0,1-.64-.14,1.62,1.62,0,0,1-.52-.38,2.15,2.15,0,0,1-.34-2.08,1.74,1.74,0,0,1,.35-.59,1.55,1.55,0,0,1,.53-.39,1.59,1.59,0,0,1,.66-.14,1.47,1.47,0,0,1,.64.13,1.2,1.2,0,0,1,.46.35l1-.8a1.77,1.77,0,0,0-.42-.4,2.11,2.11,0,0,0-.49-.26,2.55,2.55,0,0,0-.52-.15,3.08,3.08,0,0,0-.51,0,3.56,3.56,0,0,0-1.25.21,2.94,2.94,0,0,0-1,.61,2.72,2.72,0,0,0-.65,1A3.31,3.31,0,0,0,77,92.21a3.4,3.4,0,0,0,.23,1.26A2.71,2.71,0,0,0,78.87,95a3.56,3.56,0,0,0,1.25.22A2.9,2.9,0,0,0,81.27,95a2.15,2.15,0,0,0,.93-.76l-1.06-.79A1.35,1.35,0,0,1,80.65,93.91Zm9.16-3A3.31,3.31,0,0,1,90,92.21a3.4,3.4,0,0,1-.23,1.26,3.07,3.07,0,0,1-.65,1,2.92,2.92,0,0,1-1,.6,3.61,3.61,0,0,1-1.25.22A3.55,3.55,0,0,1,85.68,95,2.71,2.71,0,0,1,84,93.47a3.4,3.4,0,0,1-.23-1.26A3.31,3.31,0,0,1,84,91a2.72,2.72,0,0,1,.65-1,2.94,2.94,0,0,1,1-.61,3.55,3.55,0,0,1,1.24-.21,3.6,3.6,0,0,1,1.25.21,2.94,2.94,0,0,1,1,.61A2.86,2.86,0,0,1,89.81,91Zm-1.09,1.25a2.26,2.26,0,0,0-.13-.74,1.65,1.65,0,0,0-.93-1,2,2,0,0,0-1.47,0,1.65,1.65,0,0,0-.93,1,2.2,2.2,0,0,0,0,1.49,1.71,1.71,0,0,0,.36.59,1.8,1.8,0,0,0,1.3.52,1.75,1.75,0,0,0,.74-.14,1.73,1.73,0,0,0,.57-.38,1.71,1.71,0,0,0,.36-.59A2.27,2.27,0,0,0,88.72,92.21Zm7,.61a1.35,1.35,0,0,1-.09.5,1,1,0,0,1-.24.4A1,1,0,0,1,95,94a1.19,1.19,0,0,1-.47.09,1.23,1.23,0,0,1-.47-.09,1.18,1.18,0,0,1-.37-.26,1.33,1.33,0,0,1-.24-.4,1.35,1.35,0,0,1-.08-.5V89.33H92.12v3.54a2.87,2.87,0,0,0,.16.95,2.05,2.05,0,0,0,.46.75,2.14,2.14,0,0,0,.76.5,2.91,2.91,0,0,0,1.06.18,2.82,2.82,0,0,0,1-.18,2,2,0,0,0,1.23-1.25,2.87,2.87,0,0,0,.15-.95V89.33H95.72Zm6.55-.76a2.82,2.82,0,0,0-.64-.28c-.23-.06-.44-.13-.64-.2a1.72,1.72,0,0,1-.49-.23.47.47,0,0,1-.2-.4.51.51,0,0,1,.08-.28.65.65,0,0,1,.22-.18.79.79,0,0,1,.27-.1,1,1,0,0,1,.29,0,1.59,1.59,0,0,1,.5.1.86.86,0,0,1,.42.29l.87-1a2.22,2.22,0,0,0-.82-.46,3.36,3.36,0,0,0-.95-.14,2.81,2.81,0,0,0-.82.12,2.14,2.14,0,0,0-.71.35,2,2,0,0,0-.49.59,1.76,1.76,0,0,0-.18.81,1.39,1.39,0,0,0,.2.78,1.5,1.5,0,0,0,.5.47,2.93,2.93,0,0,0,.65.29l.66.21a2,2,0,0,1,.5.26.48.48,0,0,1,.2.41.5.5,0,0,1-.08.27.58.58,0,0,1-.2.18.92.92,0,0,1-.29.11,1.15,1.15,0,0,1-.31,0,1.51,1.51,0,0,1-.62-.14,1.37,1.37,0,0,1-.49-.4l-.91,1a2.52,2.52,0,0,0,.9.55,3,3,0,0,0,1,.18,3,3,0,0,0,.86-.12,1.92,1.92,0,0,0,.7-.35,1.74,1.74,0,0,0,.49-.59,1.86,1.86,0,0,0,.18-.84,1.47,1.47,0,0,0-.2-.81A1.5,1.5,0,0,0,102.27,92.06Zm6.6-.58H106.4V89.33h-1.27V95.1h1.27V92.6h2.47v2.5h1.27V89.33h-1.27Zm6.46-2.15,2.51,5.77H116.4l-.49-1.22h-2.25l-.48,1.22h-1.4l2.5-5.77Zm.14,3.47L114.76,91l-.7,1.79Zm2.89-2.35H120V95.1h1.27V90.45h1.65V89.33h-4.57Zm6.07,0h1.64V95.1h1.27V90.45H129V89.33h-4.56Zm8.63-1.12,2.51,5.77h-1.43l-.5-1.22H131.4l-.49,1.22h-1.4l2.5-5.77Zm.15,3.47L132.5,91l-.71,1.79ZM18.59,76.69l69.25,2.08a11.39,11.39,0,0,1-.16-1.86,11,11,0,0,1,.19-2Zm91.09.22a11.39,11.39,0,0,1-.16,1.86l69.24-2.08L109.49,74.9A11,11,0,0,1,109.68,76.91Zm-3.13.07a8.07,8.07,0,0,1-16.14,0h0v-.14h0a8.07,8.07,0,0,1,16.14,0h0s0,0,0,.07,0,0,0,.07h0Zm-4.74-.2h0a3.29,3.29,0,0,0-6.58,0h0v.1h0a3.29,3.29,0,0,0,6.58,0h0s0,0,0,0,0,0,0,0ZM78.77,205c-1.33-1-2.74.24-3.88,1a4.69,4.69,0,0,0,.62-1.42c-.22-.26-.68.08-1,.13s-.62-.62-.84-.28-.56,1.19-1.57,3.49-1.53,3.33-2.65,5.93c0,.52.53.39.86.63s.13.67.8.64a42.06,42.06,0,0,0,2.31-5c.69-.93,2.32-3.4,3.92-3.85-.31,1.66-2.85,5.89-2.9,7.69,0,.53.43.29.87.45s.24.58.74.44c.88-1.61.68-1.67,2-4.21C79.53,207.64,79.9,205.83,78.77,205Zm77,4.82c-.28,1-.64,2.32.23,2.58s4-1.19,4.74-3.37c.19.08.13.48.2.61s.3.24.29.43c-.24,2.63-5.27,5.45-6.87,3.09-1.81-2.08.25-9.25,5.57-9.82a2.07,2.07,0,0,1,2.15,2.83,5,5,0,0,1-1.62,1.75A13.82,13.82,0,0,1,155.74,209.79Zm.5-1.5c.48-.18,1.84-.77,2.52-1.14,1.4-.78,2.33-1.79,1.86-2.22a1.76,1.76,0,0,0-1.78.18A5.56,5.56,0,0,0,156.24,208.29Zm-16-6.36c0-.39-.3-.3-.91-.27-.93.06-1.45,0-1.76.05.6-1.52,1.24-3.06,1.7-4.16a1.2,1.2,0,0,0-1-.32,3,3,0,0,0-.92.36s-.55,1.27-.93,2.09-1,2.2-1,2.2c-1.71.43-1.59.37-3.5.93-.29.43,0,.57.16.9s-.63,1,.06.88a20.72,20.72,0,0,0,2.43-.63c-1.95,4.67-1.8,6.23-2.77,9.34.17.43.78,0,1,.25s.43,1.17.92.86c1.26-4.89,3-10.69,3-10.69s1.67-.28,3.39-.5c.21-.34-.19-.4-.14-.73S140.29,202,140.28,201.93Zm12.61,8.86a6.59,6.59,0,0,1-7.81,2.23c-.28-.12-.13-.54-.29-.64a10.68,10.68,0,0,0-.63,1.77c-.61-.09-.28-.52-.85-.74,0,0-.49-.41-.47-.53.73-3.88,4.3-11.67,4.3-11.67A11.33,11.33,0,0,0,145,202a2.3,2.3,0,0,1-.07-.42c0-.31.11-.53.12-.82s-.09-.4-.09-.63a16.94,16.94,0,0,1,5-1.77c1.69-.37,4.71.34,5.25,2.16,1,3.86-1.52,3.7-4.19,5.47C152.91,207.41,154.07,208.73,152.89,210.79Zm-5.14-6c3.61-.43,6.12-2.08,5.85-3.64-.4-.75-2-1.12-2.89-.91-.58.13-.82.31-1.24.42Zm3.24,3.67c-.72-1-1.72-1.27-4.1-1.22a39.49,39.49,0,0,0-1.6,3.82c.65-.72,1.57-1.28,2.2-.94,0,.31-.7.58-.87.79s-.3.47.19.73C149.15,211.56,151.21,210.59,151,208.42Zm-21.67-.77a3.46,3.46,0,0,0,2.69-1.46,5.1,5.1,0,0,0,.09-1c0-.17-.57-.59-.57-.59-.33-.59-2-1-3.29-.69-2.89.72-4,2-3.85,3.29.18,2.22,3.84,2.23,3.8,3.73-1,1.75-4.1,2.1-4.31,1.4-.06-1,.23-1.26,1.19-1.7-.4-1.58-2.63-.28-3,1a2,2,0,0,0,1.78,2.67,7.05,7.05,0,0,0,4-.72,4.19,4.19,0,0,0,2.32-2.67c.29-2.2-4.05-2.36-3.75-4.15a4.53,4.53,0,0,1,4.13-1.37c-.78.17-.72.51-1.59.74C128.55,206.51,129,207.27,129.32,207.65Zm-30.6-3c-.34-.61-2.08-1-3.4-.71-3,.74-4.09,2-4,3.4.18,2.3,4,2.31,3.92,3.87-1,1.8-4.23,2.16-4.46,1.45-.06-1,.25-1.31,1.24-1.77-.42-1.63-2.72-.29-3.06,1a2.07,2.07,0,0,0,1.84,2.77,7.3,7.3,0,0,0,4.11-.74,4.35,4.35,0,0,0,2.39-2.77c.31-2.27-4.18-2.44-3.87-4.29a4.64,4.64,0,0,1,4.26-1.42c-.8.17-.74.53-1.64.77-.43.41.06,1.2.36,1.59a3.6,3.6,0,0,0,2.78-1.51,5.32,5.32,0,0,0,.1-1C99.31,205.09,98.72,204.66,98.72,204.66ZM88.81,204l-4.59,10.62c-.26.17-.38,0-.65-.11-.36.07-1.45.91-.59-.64a6.49,6.49,0,0,1-2,.94c-.79.23-2.69-.32-2.83-1.2s0-2.18,1.7-4.74,4.61-5.16,7.4-4.74a1.35,1.35,0,0,0,.16-.29c.28,0,.77-.06.95,0C88.8,203.79,88.81,204,88.81,204Zm-2.28,1.58c-2.65.45-6.67,5.69-6.27,7.46,2.42-.09,3.92-3,4.87-4.88S86.38,206,86.53,205.6Zm35.43,5c-.23,2.63-5.26,5.45-6.86,3.09-1.82-2.08.25-9.25,5.57-9.82a2.07,2.07,0,0,1,2.15,2.83,5.09,5.09,0,0,1-1.62,1.75,13.9,13.9,0,0,1-4.69,1.9c-.28,1-.64,2.32.23,2.58s4-1.19,4.74-3.37c.18.08.13.48.19.61S122,210.37,122,210.56ZM117,208.81c.48-.18,1.84-.77,2.52-1.14,1.4-.78,2.33-1.79,1.85-2.22a1.75,1.75,0,0,0-1.77.18A5.56,5.56,0,0,0,117,208.81Zm53.83-6.41c.06-.23.26-.44.26-.55,0-.4-.31-.31-.92-.27-.93.06-1.45,0-1.75,0,.59-1.52,1.23-3.06,1.69-4.16a1.16,1.16,0,0,0-1-.32,3.09,3.09,0,0,0-.92.35s-.54,1.27-.93,2.1-1,2.2-1,2.2c-1.71.43-1.59.37-3.5.93-.29.42,0,.57.16.9s-.62,1,.06.88a19.48,19.48,0,0,0,2.43-.64c-1.95,4.68-2.62,5.74-3.59,8.84.17.44.79,0,1,.26s.42,1.16.92.86c2.1-5.16,3.83-10.19,3.83-10.19s1.67-.28,3.38-.5C171.19,202.8,170.79,202.74,170.84,202.4Zm-57.18,9.16a6.59,6.59,0,0,1-7.81,2.23c-.28-.12-.13-.54-.29-.64a11.73,11.73,0,0,0-.64,1.77c-.6-.09-.27-.52-.84-.74,0,0-.49-.41-.47-.53.73-3.88,4.3-11.67,4.3-11.67a11.17,11.17,0,0,0-2.15.78c0-.15-.06-.29-.07-.42,0-.31.12-.53.13-.82s-.09-.4-.09-.63a16.94,16.94,0,0,1,5-1.77c1.69-.37,4.71.34,5.25,2.16,1,3.86-1.52,3.7-4.2,5.47C113.68,208.18,114.83,209.5,113.66,211.56Zm-5.14-6c3.61-.43,6.12-2.08,5.85-3.64-.4-.75-2-1.12-2.89-.91-.58.13-.82.31-1.24.42Zm3.24,3.67c-.73-.95-1.72-1.27-4.1-1.22a39.49,39.49,0,0,0-1.6,3.82c.65-.72,1.57-1.28,2.2-.94,0,.31-.7.58-.88.79s-.29.47.2.73C109.92,212.33,112,211.36,111.76,209.19Zm-57.14-1.47a4.65,4.65,0,0,1,4.25-1.42c-.8.17-.74.53-1.64.77-.43.4.07,1.19.36,1.59a3.62,3.62,0,0,0,2.78-1.52,5.36,5.36,0,0,0,.09-1c0-.18-.59-.61-.59-.61-.33-.61-2.07-1-3.39-.71-3,.73-4.07,2-4,3.39.18,2.29,4,2.29,3.92,3.85-1,1.8-4.23,2.16-4.45,1.45-.06-1,.24-1.31,1.23-1.76-.41-1.63-2.71-.29-3.05,1A2.06,2.06,0,0,0,52,215.49a7.23,7.23,0,0,0,4.09-.74A4.31,4.31,0,0,0,58.48,212C58.78,209.73,54.3,209.56,54.62,207.72Zm116.09,2.57c-1.89.58-1.5,3.33-.7,3.62,1.16.47,2.09-.7,2.2-2C172.08,210.76,171.68,210,170.71,210.29ZM51,206.16c-.3,0-.54-.22-.79,0a25.33,25.33,0,0,0-2.09,4.17c-.63,1.43-1.17,2.65-1.86,4.42,0,.31.26.59.82.83.26.28.93.83,1.33.6.82-2.21,1-3.06,1.64-5s1.9-5.09,1.9-5.09C51.62,205.74,51.34,206.16,51,206.16Zm-27.8,7.71,5.7-13.42c-.67-.11-.56.06-1.17.13a5.25,5.25,0,0,0-1.08.27c-.26.45-.3.56-.65,1.15a76.79,76.79,0,0,0-5.58,13.39,1.21,1.21,0,0,1,.42.64,28.31,28.31,0,0,0,9.31-.58,6.56,6.56,0,0,0-.4-2.11A46.17,46.17,0,0,0,23.18,213.87Zm25.18-8.64c-.36,0-.87-.44-1.17,0-3.84,6-5.12,7.54-6.41,7.76-.48-.71.64-2.53,3.76-7.88-.14-.42-.68,0-1-.06s-.59-.33-.93-.13c-1.51,1.91-5.13,7.17-4,9.39,1.74,3.36,5-1.21,5.47-1.45-.13.82-.55,1.12-.39,1.92,0,.27.51.18.69.32s.15.54.65.45l4.31-10.49C49,204.68,48.73,205.23,48.36,205.23Zm3.89-3.53-.32.06a2.07,2.07,0,0,0-.73,2.9C52.51,205.27,54.2,201.92,52.25,201.7ZM32,215.41c-3.36-1.69-1-8.08,3.46-10.47,2.06-1.11,3.58.66,3.81,2.17C39.64,210,35.81,217.71,32,215.41Zm4.94-8.7c-.95-.57-3.07,1.78-3.54,2.55-1,1.59-1.58,4.22-.64,4.69,1.05.13,2.25-.8,3.42-2.71C37,209.82,37.51,207.12,36.91,206.71Zm35.69-2.36L68,215c-.26.17-.39,0-.65-.11-.37.07-1.46.91-.6-.64a6.73,6.73,0,0,1-2,.94c-.78.22-2.69-.33-2.83-1.2s0-2.19,1.71-4.74,4.6-5.17,7.4-4.74a1.32,1.32,0,0,0,.15-.29c.29,0,.77-.06,1,0C72.59,204.12,72.6,204.35,72.6,204.35Zm-2.27,1.57c-2.66.45-6.68,5.69-6.28,7.47,2.42-.09,3.92-3,4.87-4.88S70.17,206.3,70.33,205.92Zm105.35-8.44c-.41-.13-.56-.55-1.3-.44-1.89,2.27-3.25,9.1-3.2,11.76.18.09.38-.05.52,0s.16.28.48.29L177,197.72C176.6,197.16,176.06,197.62,175.68,197.48ZM64,201.14l-.32.06a2.08,2.08,0,0,0-.67,2.91C64.29,204.71,65.92,201.32,64,201.14Zm-.23,4.39c-.31-.34-.59.09-.95.09s-.54-.21-.79,0a24.59,24.59,0,0,0-2,4.21c-.6,1.44-1.11,2.67-1.77,4.45,0,.32.27.59.83.82.26.27,1,.81,1.34.57.78-2.23.92-3.08,1.55-5S63.73,205.53,63.73,205.53Zm28.19-2.75a1.27,1.27,0,0,0-1-.49,1.5,1.5,0,0,0-1.36.83,1.07,1.07,0,0,0,.3,1.36c1,.55-1.18,1.47-1.12,2C90.4,206.92,92.8,204.35,91.92,202.78Zm-5.5-36.17c-1,0-2.13.73-2.13,2.86,0,1.39.6,3.27,2.34,3.27,1.16,0,2.1-.85,2.1-2.86C88.73,168.37,88,166.61,86.42,166.61Zm16,11.43a1.53,1.53,0,0,0-1.41-.23,1.25,1.25,0,0,0-.74.61,1.12,1.12,0,0,0-.11.5,1.19,1.19,0,0,0,.11.51,1.23,1.23,0,0,0,.31.37,1.27,1.27,0,0,0,.43.23,1.51,1.51,0,0,0,1.41-.23,1.12,1.12,0,0,0,.42-.88,1,1,0,0,0-.12-.5A1.1,1.1,0,0,0,102.4,178Zm21.84,1.16h1.19l-.64-1.32Zm-7.64-41.27L114.05,144h5.1ZM106,166.75c-.52,0-.54,0-.54.48v2.09c0,.32,0,.34.49.34a1.27,1.27,0,0,0,1.46-1.44A1.39,1.39,0,0,0,106,166.75Zm23.9,2.72c0,1.39.6,3.27,2.34,3.27,1.16,0,2.1-.85,2.1-2.86,0-1.51-.69-3.27-2.31-3.27C131,166.61,129.87,167.34,129.87,169.47Zm-77-.86a5.31,5.31,0,0,0-.29-.79h0c0,.07-.12.33-.3.79l-.43,1.17c-.11.3-.08.3.16.3H53c.28,0,.32,0,.24-.26Zm21.25,9.33a.91.91,0,0,0-.38-.14,3.48,3.48,0,0,0-.47,0h-1v2.3h1a2.35,2.35,0,0,0,.47,0,.8.8,0,0,0,.38-.15.86.86,0,0,0,.27-.36,2,2,0,0,0,0-1.24A.85.85,0,0,0,74.09,177.94Zm-16.8-32.21a3.34,3.34,0,0,0,3-1.46,8.65,8.65,0,0,0,1-4.47,8,8,0,0,0-1-4.45,3.87,3.87,0,0,0-6-.1,8,8,0,0,0-1,4.55,8.07,8.07,0,0,0,1,4.42A3.37,3.37,0,0,0,57.29,145.73ZM85.06,178.2a.35.35,0,0,0-.19-.31,1.11,1.11,0,0,0-.59-.12H83v.92h1.24C84.8,178.69,85.06,178.52,85.06,178.2Zm56.43-11.45c-.53,0-.54,0-.54.48v2.09c0,.32,0,.34.49.34a1.27,1.27,0,0,0,1.45-1.44A1.38,1.38,0,0,0,141.49,166.75Zm-6.06,12.45h1.2l-.64-1.32Zm57.87-27.34c0,21.43-42.35,38.81-94.58,38.81S4.14,173.29,4.14,151.86,46.48,113,98.72,113,193.3,130.42,193.3,151.86Zm-57.56-18.1h4.36v15.11h4.09V133.76h4.36v-3.14H135.74Zm-3.61,32.45a3.48,3.48,0,0,0-3.64,3.56,3.37,3.37,0,0,0,3.62,3.37,3.42,3.42,0,0,0,3.58-3.44A3.36,3.36,0,0,0,132.13,166.21ZM122,133.76h4.36v15.11h4.08V133.76h4.36v-3.14H122Zm-13.71,15.11h4l1.14-3.05h6.51l1.28,3.05h4.45l-8.1-18.39h-1.28Zm-13.67,0h4.09V141.2h5.11v7.67h4.08V130.62h-4.08v7.57H98.67v-7.57H94.58Zm-14-1.11a13.35,13.35,0,0,0,2.53,1,13.72,13.72,0,0,0,3.69.41,7,7,0,0,0,4.72-1.52,5,5,0,0,0,1.78-4,4.31,4.31,0,0,0-1.59-3.58,13.54,13.54,0,0,0-4.1-2.05,6.28,6.28,0,0,1-2.41-1.15,1.93,1.93,0,0,1-.49-1.36,1.73,1.73,0,0,1,.73-1.33,3.44,3.44,0,0,1,2.2-.6,4.78,4.78,0,0,1,1.91.33,11.82,11.82,0,0,1,1.12.55l1.64-2.68a6.74,6.74,0,0,0-1.94-.94,11.52,11.52,0,0,0-3.49-.4A6.41,6.41,0,0,0,82.69,132a4.84,4.84,0,0,0-1.8,3.93,4.32,4.32,0,0,0,1.27,3.25,9.3,9.3,0,0,0,3.62,2,16.69,16.69,0,0,1,2.81,1.15,1.64,1.64,0,0,1,.89,1.47,2,2,0,0,1-.85,1.62A4.37,4.37,0,0,1,86,146a8.34,8.34,0,0,1-3-.56,11.6,11.6,0,0,1-2.42-1.19Zm-14.19-4.65A6,6,0,0,0,68,147.48c1,1.08,2.68,1.62,4.93,1.62s4-.56,5.09-1.68a6,6,0,0,0,1.65-4.31V130.62H76.08v11.95a3.94,3.94,0,0,1-.68,2.58,3.32,3.32,0,0,1-4.25.08,2.89,2.89,0,0,1-.65-2v-12.6H66.42ZM47.09,171.29a.2.2,0,0,0-.3,0,2.23,2.23,0,0,1-2.13,1.49c-1.31,0-2.67-1-2.67-3.17a2.63,2.63,0,0,1,2.6-3,1.85,1.85,0,0,1,2,1.46.26.26,0,0,0,.33,0c-.1-.74-.12-1.33-.15-1.56l-.28-.06a8,8,0,0,0-1.76-.22,4.79,4.79,0,0,0-2.81.85,3.27,3.27,0,0,0-1.28,2.66,3.13,3.13,0,0,0,1.45,2.75,4.67,4.67,0,0,0,2.6.67,6.07,6.07,0,0,0,1.58-.24l.36-.09A3.85,3.85,0,0,0,47.09,171.29Zm1.67-26.67a9.75,9.75,0,0,1-2.29.76,11.22,11.22,0,0,1-2.41.3,4.18,4.18,0,0,1-3.65-1.63,7.32,7.32,0,0,1-1.18-4.39,6,6,0,0,1,1.48-4.26,4.67,4.67,0,0,1,3.55-1.6,5,5,0,0,1,2,.3,5.89,5.89,0,0,1,1.17.67l1.69-3a7.38,7.38,0,0,0-2.44-1,12.72,12.72,0,0,0-2.6-.31,8.47,8.47,0,0,0-6.73,2.74,10.72,10.72,0,0,0-.1,13.4,8.61,8.61,0,0,0,6.62,2.48,12.62,12.62,0,0,0,2.57-.3,7.72,7.72,0,0,0,2.35-.85Zm.18-4.83a9.78,9.78,0,0,0,2.25,6.83,7.85,7.85,0,0,0,6.1,2.48,7.7,7.7,0,0,0,6.13-2.56,9.85,9.85,0,0,0,2.23-6.75c0-3.08-.74-5.4-2.17-7a8,8,0,0,0-6.19-2.34A7.8,7.8,0,0,0,51.17,133,9.91,9.91,0,0,0,48.94,139.79ZM54.83,173c.53,0,.9,0,1.32,0a.22.22,0,0,0,0-.29l-.15,0c-.52-.09-.57-.16-.81-.83l-1.46-4.2c-.16-.45-.29-.91-.46-1.37a.2.2,0,0,0-.17-.08,1.81,1.81,0,0,1-.71.48,1.59,1.59,0,0,1-.19.73L50.79,171c-.21.54-.37,1-.5,1.22s-.26.42-.56.46l-.3.05a.22.22,0,0,0,0,.29c.35,0,.67,0,1,0s.75,0,1.07,0a.2.2,0,0,0,0-.29l-.29-.05c-.38,0-.42-.08-.22-.67l.42-1.2c.09-.27.08-.27.35-.27h1.35c.29,0,.32,0,.42.27l.48,1.36c.13.43.1.49-.27.53l-.22,0a.23.23,0,0,0,0,.29C54,173,54.39,173,54.83,173Zm5.56,7.53a1.06,1.06,0,0,1-.27-.15l-.24-.23-1.65-1.92L60,176.77a.44.44,0,0,1,.28-.11v-.15H58.67v.15a.11.11,0,0,1,.08,0s0,0,0,.08a.18.18,0,0,1-.06.1l-.18.15-1.63,1.28V176.8a.13.13,0,0,1,0-.11.2.2,0,0,1,.11,0v-.15H55.85v.15c.12,0,.18,0,.18.14v3.57c0,.09-.06.14-.18.14v.14h1.23v-.14a.2.2,0,0,1-.11,0,.14.14,0,0,1,0-.11v-1.13l.67-.51,1.34,1.55a.48.48,0,0,1,.11.18s0,0-.1,0v.14h1.45Zm.46-7.37c1.48,0,2.36-.81,2.36-1.95a2.25,2.25,0,0,0-1.4-2l-.62-.33a1.51,1.51,0,0,1-1-1.23,1,1,0,0,1,1.15-1,1.43,1.43,0,0,1,1.37,1.2.26.26,0,0,0,.33,0,3.9,3.9,0,0,0-.22-1.35,6.74,6.74,0,0,0-1.39-.21c-1.49,0-2.24.84-2.24,1.83A2.31,2.31,0,0,0,60.66,170l.43.23a1.62,1.62,0,0,1,1,1.46,1.08,1.08,0,0,1-1.21,1.07c-1,0-1.55-1.07-1.73-1.58a.22.22,0,0,0-.31,0,3,3,0,0,0,.3,1.52A3.13,3.13,0,0,0,60.85,173.14Zm2.37,4.05H62v.14a.36.36,0,0,1,.18,0,.1.1,0,0,1,0,.09v2.94c0,.05,0,.08,0,.09a.36.36,0,0,1-.18,0v.14h1.2v-.14c-.15,0-.22,0-.22-.12v-2.94c0-.08.07-.12.22-.12Zm6.11,0h-1v.14q.15,0,.15.12v2.13l-1.89-2c-.11-.11-.17-.18-.17-.21s0,0,.06,0v-.14H65.36v.14c.09,0,.14,0,.14.12v2.94c0,.08,0,.12-.14.12v.14h1v-.14c-.11,0-.17,0-.17-.12V178.1l2,2.08.17.18s.08.09.08.11,0,0-.06,0v.14h1v-.14q-.15,0-.15-.12v-2.94q0-.12.15-.12Zm-2-9.37v3.72c0,1.06-.1,1.09-.57,1.15l-.23,0c-.07.07-.06.25,0,.29.45,0,.93,0,1.38,0l1.35,0c.08,0,.09-.22,0-.29l-.22,0c-.48-.06-.57-.09-.57-1.15v-3.72c0-1.07.09-1.1.57-1.16l.22,0c.07-.07.06-.25,0-.29-.45,0-.91,0-1.35,0s-.93,0-1.38,0c-.08,0-.09.22,0,.29l.23,0C67.18,166.72,67.28,166.75,67.28,167.82Zm7.93,11.1a2,2,0,0,0-.1-.64,1.41,1.41,0,0,0-.3-.55,1.57,1.57,0,0,0-.54-.39,1.94,1.94,0,0,0-.8-.15H71.29v.14q.18,0,.18.12v2.94q0,.12-.18.12v.14H73.5a1.86,1.86,0,0,0,.79-.15,1.52,1.52,0,0,0,.53-.39,1.55,1.55,0,0,0,.3-.55A2.25,2.25,0,0,0,75.21,178.92Zm3.17-10v2c0,.16,0,.21,0,.24s-1-1.12-1.47-1.58l-1-1.09a12.94,12.94,0,0,1-1.64-2.07l-.7,0c-.25,0-.81,0-1.2,0-.1,0-.11.23,0,.29l.16,0a1.7,1.7,0,0,1,.53.2c.35.29.34.45.34,1.24v2.37a7.83,7.83,0,0,1-.13,2c-.08.16-.26.2-.45.23l-.23.05a.21.21,0,0,0,0,.29c.36,0,.63,0,1.06,0s.79,0,1.16,0c.1,0,.12-.22,0-.29l-.22,0c-.26,0-.43-.1-.52-.25a6.08,6.08,0,0,1-.18-2v-2c0-.53,0-.63,0-.63s.5.52,1.15,1.26l2.38,2.67c.74.82,1,1.16,1.2,1.37a.36.36,0,0,0,.34-.14c0-.23,0-1.46,0-1.76v-2.39a7.24,7.24,0,0,1,.14-2c.08-.17.25-.21.44-.24l.23-.05a.2.2,0,0,0,0-.29c-.36,0-.63,0-1.06,0s-.78,0-1.17,0c-.11,0-.11.22,0,.29l.23,0c.26,0,.42.1.51.26A5.46,5.46,0,0,1,78.38,168.89Zm1.87,11h-.14A.13.13,0,0,1,80,180a.24.24,0,0,1-.15,0h-2v-.93H79l.24,0c.06,0,.08.05.07.11h.15v-.84h-.14c0,.06,0,.1-.06.11l-.2,0H77.87v-.79h1.92c.16,0,.25,0,.25.15h.14v-.87H80c0,.09-.09.14-.25.14H77v.14l.08,0a.13.13,0,0,1,0,.09v2.94a.1.1,0,0,1,0,.09l-.08,0v.14h3s.07,0,.07.08h.14Zm5.71.6a.46.46,0,0,1-.16-.07.34.34,0,0,1-.14-.13l-.77-1.12a1.75,1.75,0,0,0,.32-.12.91.91,0,0,0,.29-.19.86.86,0,0,0,.21-.29.89.89,0,0,0,.08-.38.84.84,0,0,0-.4-.79,2.18,2.18,0,0,0-1.09-.23H82.13v.14c.09,0,.14,0,.14.12v2.94c0,.08,0,.12-.14.12v.14h1.05v-.14a.17.17,0,0,1-.1,0s0,0,0-.09v-1.12h1.09l.62.93a.51.51,0,0,1,.12.24c0,.05,0,.07-.1.07v.14H86Zm2.82-.14a1,1,0,0,0-.16-.56.56.56,0,0,0-.48-.23.51.51,0,0,0-.37.17.57.57,0,0,0-.16.39.47.47,0,0,0,.15.37.53.53,0,0,0,.34.13h.14s.07,0,.08,0a.51.51,0,0,1-.06.29,1.21,1.21,0,0,1-.2.26,1.39,1.39,0,0,1-.27.21,1.62,1.62,0,0,1-.27.13v.25a1.48,1.48,0,0,0,.47-.2,1.64,1.64,0,0,0,.4-.34,1.52,1.52,0,0,0,.28-.43A1.13,1.13,0,0,0,88.78,180.37Zm1.33-10.67a3.36,3.36,0,0,0-3.56-3.49,3.48,3.48,0,0,0-3.64,3.56,3.37,3.37,0,0,0,3.62,3.37A3.42,3.42,0,0,0,90.11,169.7Zm8,10H98a.16.16,0,0,1-.07.15.32.32,0,0,1-.2.06H95.12V176.8c0-.1.07-.14.22-.14v-.15H94v.15c.15,0,.23,0,.23.14v3.57c0,.09-.08.14-.23.14v.14h3.74l.2,0s.07.05.07.13h.14Zm5.43-.8a1.73,1.73,0,0,0-.16-.78,1.64,1.64,0,0,0-.45-.56,2.21,2.21,0,0,0-.67-.33,3,3,0,0,0-.81-.11,3.12,3.12,0,0,0-.82.11,2.27,2.27,0,0,0-.66.33,1.64,1.64,0,0,0-.45.56,2,2,0,0,0,0,1.56,1.55,1.55,0,0,0,.45.56,1.84,1.84,0,0,0,.66.32,3.61,3.61,0,0,0,.82.1,3.45,3.45,0,0,0,.81-.1,1.81,1.81,0,0,0,.67-.32,1.55,1.55,0,0,0,.45-.56A1.73,1.73,0,0,0,103.57,178.92Zm5.77-1.73h-1.09v.14c.13,0,.19,0,.19.12v1.8a.76.76,0,0,1-.27.61,1.67,1.67,0,0,1-1.69,0,.76.76,0,0,1-.27-.61v-1.8c0-.08.06-.12.17-.12v-.14h-1.12v.14a.39.39,0,0,1,.18,0,.1.1,0,0,1,0,.09v2a1.12,1.12,0,0,0,.11.47,1.27,1.27,0,0,0,.34.4,1.89,1.89,0,0,0,.57.27,3.45,3.45,0,0,0,1.65,0,1.89,1.89,0,0,0,.57-.27,1.27,1.27,0,0,0,.34-.4,1.12,1.12,0,0,0,.11-.47v-2c0-.08,0-.12.17-.12Zm.62-4.39a1.3,1.3,0,0,1-.7-.31,11.39,11.39,0,0,1-1.8-2.59c0-.06-.06-.14,0-.18a1.72,1.72,0,0,0,1.22-1.57,1.58,1.58,0,0,0-.9-1.47,4.28,4.28,0,0,0-1.93-.34c-.83,0-1.7,0-2.34.09a.2.2,0,0,0,0,.28l.27,0c.48,0,.48.17.48,1.13v3.66c0,1.06-.09,1.09-.57,1.15l-.22,0a.2.2,0,0,0,0,.29l1.37,0c.45,0,.91,0,1.36,0,.08,0,.09-.22,0-.29l-.23,0c-.47-.06-.57-.09-.57-1.15v-1.28c0-.21,0-.22.32-.22a.57.57,0,0,1,.63.34c.24.39.53.94.8,1.36a2.31,2.31,0,0,0,2.13,1.32A2.81,2.81,0,0,0,110,173,.18.18,0,0,0,110,172.8Zm2.65,4.39h-1.19v.14a.34.34,0,0,1,.17,0,.11.11,0,0,1,0,.09v2.94c0,.05,0,.08,0,.09a.34.34,0,0,1-.17,0v.14h1.19v-.14c-.14,0-.22,0-.22-.12v-2.94c0-.08.08-.12.22-.12Zm2.73.93a.26.26,0,0,1,.07-.19.43.43,0,0,1,.17-.12.92.92,0,0,1,.25-.06,1.51,1.51,0,0,1,.3,0,2.83,2.83,0,0,1,.74.09,1.32,1.32,0,0,1,.49.23.18.18,0,0,1,.07.09v.1l.15,0,.39-.74-.09-.08-.08,0-.09,0a.43.43,0,0,1-.17-.06l-.29-.13a2.77,2.77,0,0,0-.45-.13,2.86,2.86,0,0,0-.63-.06,1.94,1.94,0,0,0-1.17.3.94.94,0,0,0-.42.8.7.7,0,0,0,.19.53,1.24,1.24,0,0,0,.49.28,3,3,0,0,0,.62.14l.63.09a2.34,2.34,0,0,1,.49.12.26.26,0,0,1,.19.25.3.3,0,0,1-.11.24.69.69,0,0,1-.27.14,1.14,1.14,0,0,1-.32.07l-.27,0-.32,0a3.25,3.25,0,0,1-.42-.11,1.5,1.5,0,0,1-.36-.16.28.28,0,0,1-.15-.22.15.15,0,0,1,0-.07v-.07l-.15,0-.36.88.11.08a.12.12,0,0,1,.09-.05l.18.06.37.13.48.12a3.17,3.17,0,0,0,.53.05c.18,0,.37,0,.57,0a1.74,1.74,0,0,0,.56-.17,1.37,1.37,0,0,0,.42-.34.94.94,0,0,0,.17-.57.73.73,0,0,0-.2-.54,1.19,1.19,0,0,0-.48-.3,2.91,2.91,0,0,0-.63-.15l-.63-.09a1.89,1.89,0,0,1-.48-.11A.27.27,0,0,1,115.34,178.12Zm2.73-6.56a.25.25,0,0,0-.33-.06c-.36.81-.58,1.1-1.87,1.08-.85,0-1-.08-1.15-.22a1.78,1.78,0,0,1-.17-1v-1.27c0-.25,0-.27.24-.27h.49c.88,0,1.06,0,1.13.43l.07.41a.28.28,0,0,0,.32,0c0-.32,0-.67,0-1.05s0-.73,0-1c0-.09-.24-.09-.32,0l-.07.35c-.07.43-.25.44-1.13.44h-.49c-.23,0-.24,0-.24-.27v-1.69c0-.58,0-.6.43-.6h.69a3.05,3.05,0,0,1,.81.09c.32.09.48.34.64.91.08.06.28,0,.33,0-.07-.43-.13-1.22-.17-1.39-.13,0-.72,0-1.37,0H114c-.45,0-.93,0-1.31,0-.09,0-.1.22,0,.29l.17,0c.48.07.57.1.57,1.17v3.72c0,1.06-.09,1.09-.57,1.14l-.38,0c-.07.07-.06.25,0,.29.46,0,1.08,0,1.53,0h1.16c1.18,0,2.06,0,2.51,0A6.94,6.94,0,0,0,118.07,171.56Zm1-11.1H105.7l.28-.33h26.31v-.75H106l-.29-.33h13.4v-.75H105.1l-.29-.33h8.76v-.75h-9.41l-.29-.33h5.53v-.75h-6.18L97,149l-6.27,7.13H84.53v.75h5.56l-.29.33H80.42V158h8.72l-.29.33H74.93v.75H88.19l-.29.33H61.54v.75H88.08l.29.33H74.9v.74H89l.3.34H80.46v.75H90l.28.32H84.64v.75h6.27l6.28,7.21,6.07-7.21h6.25v-.75h-5.62l.27-.32h9.46v-.75h-8.83l.28-.34h14Zm5,11.21a1.08,1.08,0,0,1-1.22,1.07c-1,0-1.54-1.07-1.72-1.58a.23.23,0,0,0-.32,0,2.85,2.85,0,0,0,.31,1.52,3.1,3.1,0,0,0,1.67.42c1.47,0,2.35-.81,2.35-1.95a2.26,2.26,0,0,0-1.39-2l-.63-.33a1.51,1.51,0,0,1-1-1.23,1,1,0,0,1,1.15-1,1.44,1.44,0,0,1,1.38,1.2.24.24,0,0,0,.32,0,4.19,4.19,0,0,0-.21-1.35,6.84,6.84,0,0,0-1.39-.21c-1.49,0-2.24.84-2.24,1.83a2.31,2.31,0,0,0,1.43,1.94l.44.23A1.64,1.64,0,0,1,124.13,171.67Zm-2.95,5.52H120v.14a.34.34,0,0,1,.17,0,.11.11,0,0,1,0,.09v2.94c0,.05,0,.08,0,.09a.34.34,0,0,1-.17,0v.14h1.19v-.14c-.14,0-.22,0-.22-.12v-2.94c0-.08.08-.12.22-.12Zm5.76,3.32-.1,0a.3.3,0,0,1-.09-.1l-1.27-2.67-.08-.16a.26.26,0,0,1,0-.11s0-.06,0-.06l0,0v-.14h-1.19v.14l0,0s0,0,0,.06a.35.35,0,0,1,0,.13s0,.1-.07.18l-1.17,2.55a.8.8,0,0,1-.09.14.24.24,0,0,1-.16.09v.14h1.06v-.14h-.11a.08.08,0,0,1,0-.08.15.15,0,0,1,0-.09.61.61,0,0,1,0-.12l.22-.42h1.68l.22.45a.3.3,0,0,0,0,.1.19.19,0,0,1,0,.08c0,.05,0,.08,0,.09a.13.13,0,0,1-.08,0v.12h1.11Zm5.51-3.32h-1v.14c.11,0,.16,0,.16.12v2.13l-1.89-2c-.12-.11-.17-.18-.17-.21s0,0,0,0v-.14h-1.15v.14c.09,0,.14,0,.14.12v2.94c0,.08,0,.12-.14.12v.14h1v-.14c-.11,0-.16,0-.16-.12V178.1l2,2.08.17.18a.2.2,0,0,1,.07.11s0,0,0,0v.14h1v-.14c-.09,0-.14,0-.14-.12v-2.94c0-.08.05-.12.14-.12Zm5.69,3.32-.1,0a.3.3,0,0,1-.09-.1l-1.27-2.67-.08-.16a.26.26,0,0,1,0-.11s0-.06,0-.06l.06,0v-.14h-1.19v.14l0,0a.08.08,0,0,1,0,.06.35.35,0,0,1,0,.13s0,.1-.07.18l-1.17,2.55-.1.14a.21.21,0,0,1-.15.09v.14h1.06v-.14H135a.08.08,0,0,1,0-.08.15.15,0,0,1,0-.09.61.61,0,0,1,0-.12l.22-.42h1.68l.21.45a.69.69,0,0,1,0,.1.19.19,0,0,1,0,.08.1.1,0,0,1,0,.09.15.15,0,0,1-.09,0v.12h1.12Zm7.33-7.71a1.33,1.33,0,0,1-.7-.31,11.73,11.73,0,0,1-1.8-2.59c0-.06-.06-.14,0-.18a1.72,1.72,0,0,0,1.22-1.57,1.59,1.59,0,0,0-.89-1.47,4.36,4.36,0,0,0-1.94-.34c-.83,0-1.69,0-2.34.09a.21.21,0,0,0,0,.28l.26,0c.48,0,.49.17.49,1.13v3.66c0,1.06-.09,1.09-.57,1.15l-.22,0a.19.19,0,0,0,0,.29l1.38,0,1.35,0c.08,0,.09-.22,0-.29l-.22,0c-.48-.06-.57-.09-.57-1.15v-1.28c0-.21,0-.22.31-.22a.57.57,0,0,1,.63.34c.25.39.53.94.81,1.36a2.31,2.31,0,0,0,2.12,1.32,2.75,2.75,0,0,0,.67-.06A.18.18,0,0,0,145.47,172.8Zm9-6.68a.16.16,0,0,0-.13-.05.28.28,0,0,0-.12,0c-.12.23-.27.26-.77.26h-4.15c-.7,0-.84,0-.89-.26a.12.12,0,0,0-.1,0,.12.12,0,0,0-.11,0,14,14,0,0,1-.4,1.51c0,.11.25.13.33.07.37-.81.65-.92,1.58-.92h.57c.27,0,.28,0,.28.44v4.33c0,1.06-.09,1.09-.57,1.13l-.43.05a.22.22,0,0,0,0,.29l1.58,0,1.49,0c.09,0,.09-.22,0-.29l-.36,0c-.48-.05-.57-.08-.57-1.14v-4.33c0-.42,0-.44.27-.44h.58c1.09,0,1.28.19,1.42,1a.23.23,0,0,0,.31,0A7.07,7.07,0,0,1,154.49,166.12Zm7.81-17.25-8.09-18.39h-1.28l-8,18.39h4l1.14-3.05h6.51l1.27,3.05ZM97.06,151.2l7.51,8.42-7.45,8.53-7.58-8.45Zm0,2.13-5.68,6.38,5.68,6.43,5.69-6.43Zm-3.79,6.38,3.79-4.31,3.84,4.31-3.84,4.34Zm3.79-2.23-2,2.24,2,2.25,2-2.25ZM150.7,144h5.1l-2.55-6.09Zm-53.64,16.9,1.07-1.2-1.06-1.21L96,159.72Z"/></g></g></svg>