<svg width="34" height="17" viewBox="0 0 34 17" fill="none" xmlns="http://www.w3.org/2000/svg">
<g clip-path="url(#clip0_1_14)">
<path fill-rule="evenodd" clip-rule="evenodd" d="M5.6849 1H30.5565C31.6611 1 32.5565 1.89543 32.5565 3C32.5565 3.13274 32.5433 3.26514 32.5171 3.39526L30.2994 14.3953C30.1112 15.3287 29.2911 16 28.3389 16H3.44771C2.34314 16 1.44771 15.1046 1.44771 14C1.44771 13.8661 1.46115 13.7326 1.48783 13.6014L3.72503 2.6014C3.91455 1.66955 4.73398 1 5.6849 1Z" fill="#001C55"/>
<path d="M30.5565 0H5.6849C4.25852 0 3.02937 1.00433 2.74509 2.4021L0.507893 13.4021C0.467871 13.5989 0.447708 13.7992 0.447708 14C0.447708 15.6569 1.79085 17 3.44771 17H28.3389C29.7672 17 30.9974 15.993 31.2797 14.5929L33.4974 3.59289C33.5367 3.39772 33.5565 3.19911 33.5565 3C33.5565 1.34315 32.2134 0 30.5565 0ZM5.6849 2H30.5565C31.1088 2 31.5565 2.44772 31.5565 3C31.5565 3.06637 31.5499 3.13257 31.5368 3.19763L29.3191 14.1976C29.225 14.6643 28.815 15 28.3389 15H3.44771C2.89542 15 2.44771 14.5523 2.44771 14C2.44771 13.9331 2.45443 13.8663 2.46777 13.8007L4.70497 2.8007C4.79973 2.33478 5.20944 2 5.6849 2Z" fill="#001C55"/>
<path d="M30.5565 1C31.6611 1 32.5565 1.89543 32.5565 3C32.5565 3.13274 32.5433 3.26514 32.5171 3.39526L30.2994 14.3953C30.1112 15.3287 29.2911 16 28.3389 16H3.44771C2.34314 16 1.44771 15.1046 1.44771 14C1.44771 13.8661 1.46115 13.7326 1.48783 13.6014L3.72503 2.6014C3.91455 1.66955 4.73398 1 5.6849 1H30.5565ZM30.5565 2H5.6849C5.24907 2 4.86847 2.28131 4.73507 2.68707L4.70497 2.8007L2.46777 13.8007C2.45443 13.8663 2.44771 13.9331 2.44771 14C2.44771 14.5128 2.83375 14.9355 3.33109 14.9933L3.44771 15H28.3389C28.7753 15 29.1562 14.718 29.2892 14.3115L29.3191 14.1976L31.5368 3.19763C31.5499 3.13257 31.5565 3.06637 31.5565 3C31.5565 2.48716 31.1705 2.06449 30.6732 2.00673L30.5565 2Z" fill="white"/>
<path d="M11.39 12.04C12.28 12.04 12.85 11.56 13.04 10.67L13.3 9.44C13.45 8.72 13.15 8.25 12.34 8.03L10.51 7.53C10.34 7.48 10.31 7.41 10.35 7.24L10.5 6.51C10.54 6.34 10.63 6.26 10.81 6.26H12.14C12.32 6.26 12.39 6.34 12.35 6.52L12.22 7.15H13.72L13.83 6.61C14.05 5.55 13.6 4.99 12.5 4.99H10.7C9.81 4.99 9.22 5.47 9.03 6.36L8.82 7.35C8.63 8.26 9.18 8.69 9.68 8.83L11.58 9.35C11.74 9.39 11.8 9.47 11.76 9.64L11.57 10.51C11.53 10.69 11.43 10.77 11.26 10.77H9.8C9.62 10.77 9.55 10.69 9.59 10.51L9.71 9.94H8.21L8.11 10.42C7.89 11.47 8.35 12.04 9.45 12.04H11.39ZM17.61 12.04C18.5 12.04 19.09 11.56 19.27 10.67L19.74 8.38H17.33L17.09 9.58H18L17.81 10.48C17.77 10.66 17.67 10.74 17.5 10.74H16.16C15.98 10.74 15.91 10.66 15.95 10.48L16.78 6.55C16.82 6.37 16.93 6.29 17.1 6.29H18.44C18.62 6.29 18.68 6.37 18.64 6.55L18.5 7.23H20L20.11 6.71C20.34 5.6 19.88 4.99 18.76 4.99H16.97C16.07 4.99 15.49 5.47 15.3 6.36L14.46 10.32C14.22 11.43 14.71 12.04 15.82 12.04H17.61ZM22.01 12L22.53 9.53H24.56C25.45 9.53 26.02 9.05 26.21 8.16L26.51 6.75C26.75 5.64 26.28 5.03 25.17 5.03H21.97L20.49 12H22.01ZM24.43 8.22H22.81L23.21 6.34H24.83C25.01 6.34 25.07 6.42 25.03 6.6L24.74 7.96C24.7 8.14 24.6 8.22 24.43 8.22Z" fill="#FFDC2E"/>
</g>
<defs>
<clipPath id="clip0_1_14">
<rect width="34" height="17" fill="white"/>
</clipPath>
</defs>
</svg>
