<svg xmlns="http://www.w3.org/2000/svg" width="34" height="17" viewBox="0 0 34 17">
    <g fill="none" fill-rule="evenodd">
        <path fill="#1F375B" d="M5.685 1h24.872c1.104 0 2 .895 2 2 0 .133-.014.265-.04.395l-2.218 11C30.111 15.33 29.291 16 28.34 16H3.448c-1.105 0-2-.895-2-2 0-.134.013-.267.04-.399l2.237-11C3.915 1.67 4.734 1 5.685 1z"/>
        <path fill="#1F375B" fill-rule="nonzero" d="M30.557 0H5.685c-1.426 0-2.656 1.004-2.94 2.402l-2.237 11c-.04.197-.06.397-.06.598 0 1.657 1.343 3 3 3h24.89c1.43 0 2.66-1.007 2.942-2.407l2.217-11c.04-.195.06-.394.06-.593 0-1.657-1.344-3-3-3zM5.685 2h24.872c.552 0 1 .448 1 1 0 .066-.007.133-.02.198l-2.218 11c-.094.466-.504.802-.98.802H3.448c-.553 0-1-.448-1-1 0-.067.006-.134.02-.2l2.237-11c.095-.465.504-.8.98-.8z"/>
        <path fill="#FFF" fill-rule="nonzero" d="M30.557 1c1.104 0 2 .895 2 2 0 .133-.014.265-.04.395l-2.218 11C30.111 15.33 29.291 16 28.34 16H3.448c-1.105 0-2-.895-2-2 0-.134.013-.267.04-.399l2.237-11C3.915 1.67 4.734 1 5.685 1h24.872zm0 1H5.685c-.436 0-.817.281-.95.687l-.03.114-2.237 11c-.014.065-.02.132-.02.199 0 .513.386.936.883.993l.117.007h24.89c.437 0 .818-.282.951-.689l.03-.113 2.218-11c.013-.065.02-.132.02-.198 0-.513-.386-.936-.884-.993L30.557 2z"/>
        <path fill="#41E878" fill-rule="nonzero" d="M11.39 12.04c.89 0 1.46-.48 1.65-1.37l.26-1.23c.15-.72-.15-1.19-.96-1.41l-1.83-.5c-.17-.05-.2-.12-.16-.29l.15-.73c.04-.17.13-.25.31-.25h1.33c.18 0 .25.08.21.26l-.13.63h1.5l.11-.54c.22-1.06-.23-1.62-1.33-1.62h-1.8c-.89 0-1.48.48-1.67 1.37l-.21.99c-.19.91.36 1.34.86 1.48l1.9.52c.16.04.22.12.18.29l-.19.87c-.04.18-.14.26-.31.26H9.8c-.18 0-.25-.08-.21-.26l.12-.57h-1.5l-.1.48c-.22 1.05.24 1.62 1.34 1.62h1.94zm6.22 0c.89 0 1.48-.48 1.66-1.37l.47-2.29h-2.41l-.24 1.2H18l-.19.9c-.04.18-.14.26-.31.26h-1.34c-.18 0-.25-.08-.21-.26l.83-3.93c.04-.18.15-.26.32-.26h1.34c.18 0 .24.08.2.26l-.14.68H20l.11-.52c.23-1.11-.23-1.72-1.35-1.72h-1.79c-.9 0-1.48.48-1.67 1.37l-.84 3.96c-.24 1.11.25 1.72 1.36 1.72h1.79zm4.4-.04l.52-2.47h2.03c.89 0 1.46-.48 1.65-1.37l.3-1.41c.24-1.11-.23-1.72-1.34-1.72h-3.2L20.49 12h1.52zm2.42-3.78h-1.62l.4-1.88h1.62c.18 0 .24.08.2.26l-.29 1.36c-.04.18-.14.26-.31.26z"/>
    </g>
</svg>
