<svg width="47" height="17" viewBox="0 0 47 17" fill="none" xmlns="http://www.w3.org/2000/svg">
<g clip-path="url(#clip0_1_15)">
<path d="M44.007 0H42.0017H32.024H31.17H28.0334H21.1924H17.2017H5.22477C3.8021 0 2.57497 1.004 2.29164 2.402L0.0598599 13.402C0.0199533 13.599 0 13.799 0 14C0 15.657 1.33986 17 2.993 17H13.7658H17.7564H24.5974H27.7351H28.5891H38.5667H41.7952C43.2198 17 44.448 15.993 44.7293 14.593L46.9421 3.593C46.98 3.398 47 3.199 47 3C47 1.343 45.6601 0 44.007 0ZM45.9634 3.395L43.7506 14.395C43.563 15.329 42.745 16 41.7952 16H39.5295H38.7693H28.7906H27.9366H24.8H17.959H13.9683H9.9966H2.993C1.89058 16 0.997665 15.105 0.997665 14C0.997665 13.866 1.01063 13.733 1.03757 13.601L3.26935 2.601C3.4589 1.67 4.27599 1 5.22477 1H15.3511H16.9982H20.9889H27.8299H30.9665H31.8205H41.7982H42.8138H44.006C45.1084 1 46.0013 1.895 46.0013 3C46.0023 3.133 45.9894 3.265 45.9634 3.395Z" fill="#001C55"/>
<path d="M44.007 1H42.8148H41.7992H31.8215H30.9675H27.8309H20.9899H16.9992H15.3521H5.22477C4.27599 1 3.4589 1.67 3.26935 2.601L1.03757 13.601C1.01064 13.733 0.997665 13.866 0.997665 14C0.997665 15.105 1.89058 16 2.993 16H9.9966H13.9683H17.959H24.8H27.9366H28.7906H38.7683H39.5285H41.7942C42.744 16 43.562 15.329 43.7506 14.395L45.9634 3.395C45.9894 3.265 46.0023 3.133 46.0023 3C46.0023 1.895 45.1094 1 44.007 1ZM44.9857 3.198L42.7729 14.198L42.743 14.312C42.729 14.355 42.7021 14.39 42.6821 14.43C42.6622 14.471 42.6452 14.513 42.6203 14.551C42.5833 14.606 42.5384 14.652 42.4925 14.698C42.4626 14.728 42.4367 14.761 42.4038 14.787C42.3469 14.831 42.282 14.863 42.2162 14.894C42.1843 14.909 42.1553 14.931 42.1214 14.943C42.0187 14.979 41.9089 15 41.7952 15H40.0802H38.9708H28.9931H28.1391H25.0025H18.1615H14.1708H10.5483H2.993L2.87627 14.993C2.38043 14.936 1.99533 14.513 1.99533 14C1.99533 13.933 2.00231 13.866 2.01528 13.801L4.24706 2.801L4.27699 2.687C4.41068 2.281 4.78979 2 5.22477 2H14.8393H16.7967H20.7873H27.6283H30.765H31.619H41.5966H42.302H44.007L44.1237 2.007C44.1796 2.014 44.2275 2.04 44.2804 2.055C44.3302 2.07 44.3831 2.079 44.429 2.101C44.4969 2.133 44.5557 2.18 44.6136 2.226C44.6515 2.256 44.6934 2.28 44.7273 2.315C44.7832 2.375 44.8241 2.447 44.864 2.519C44.884 2.555 44.9129 2.586 44.9288 2.624C44.9767 2.74 45.0047 2.867 45.0047 3C45.0047 3.066 44.9987 3.133 44.9857 3.198Z" fill="white"/>
<path d="M44.1562 2.007L44.0392 2H36.4672H32.8362H31.6172L28.9902 15L29.0902 14.999V15H30.2032H32.1652H41.8022C42.2382 15 42.6182 14.719 42.7522 14.312L42.7822 14.199L45.0192 3.199L45.0392 3C45.0392 2.487 44.6532 2.064 44.1562 2.007Z" fill="#FFDC2E"/>
<path d="M30.837 2H27.693H20.836H16.836H14.874H5.237C4.801 2 4.421 2.281 4.287 2.688L4.257 2.801L2.02 13.801L2 14C2 14.513 2.386 14.936 2.883 14.993L3 15H10.572H14.203H18.203H25.06H28.205H29.061L31.694 2H30.837Z" fill="#001C55"/>
<path d="M12.0249 4.99H10.2291C9.34114 4.99 8.75251 5.47 8.56296 6.36L8.35345 7.35C8.16389 8.26 8.71261 8.69 9.21144 8.83L11.107 9.35C11.2666 9.39 11.3265 9.47 11.2866 9.64L11.097 10.51C11.0571 10.69 10.9574 10.77 10.7878 10.77H9.33116C9.15158 10.77 9.08174 10.69 9.12165 10.51L9.24137 9.94H7.74487L7.64511 10.42C7.42562 11.47 7.88455 12.04 8.98198 12.04H10.9174C11.8054 12.04 12.374 11.56 12.5636 10.67L12.823 9.44C12.9726 8.72 12.6733 8.25 11.8652 8.03L10.0395 7.53C9.8699 7.48 9.83997 7.41 9.87988 7.24L10.0295 6.51C10.0694 6.34 10.1592 6.26 10.3388 6.26H11.6657C11.8453 6.26 11.9151 6.34 11.8752 6.52L11.7455 7.15H13.242L13.3518 6.61C13.5712 5.55 13.1223 4.99 12.0249 4.99Z" fill="#FFDC2E"/>
<path d="M18.2702 4.99H16.4844C15.5865 4.99 15.0079 5.47 14.8183 6.36L13.9803 10.32C13.7408 11.43 14.2297 12.04 15.3371 12.04H17.1229C18.0108 12.04 18.5995 11.56 18.779 10.67L19.248 8.38H16.8436L16.6041 9.58H17.512L17.3225 10.48C17.2826 10.66 17.1828 10.74 17.0132 10.74H15.6763C15.4967 10.74 15.4269 10.66 15.4668 10.48L16.2949 6.55C16.3348 6.37 16.4445 6.29 16.6141 6.29H17.951C18.1306 6.29 18.1904 6.37 18.1505 6.55L18.0108 7.23H19.5073L19.6171 6.71C19.8465 5.6 19.3876 4.99 18.2702 4.99Z" fill="#FFDC2E"/>
<path d="M24.6653 5.03H21.4727L19.9962 12H21.5126L22.0314 9.53H24.0567C24.9446 9.53 25.5133 9.05 25.7028 8.16L26.0021 6.75C26.2416 5.64 25.7727 5.03 24.6653 5.03ZM24.2363 7.96C24.1964 8.14 24.0966 8.22 23.927 8.22H22.3108L22.7098 6.34H24.3261C24.5056 6.34 24.5655 6.42 24.5256 6.6L24.2363 7.96Z" fill="#FFDC2E"/>
<path d="M38.5657 5.723H37.0403L36.6113 7.837H34.5032L34.193 9.366H36.301L35.872 11.479H37.3975L37.8265 9.366H39.9355L40.2458 7.837H38.1367L38.5657 5.723Z" fill="#001C55"/>
</g>
<defs>
<clipPath id="clip0_1_15">
<rect width="47" height="17" fill="white"/>
</clipPath>
</defs>
</svg>
