<svg width="47" height="17" viewBox="0 0 47 17" fill="none" xmlns="http://www.w3.org/2000/svg">
<path d="M44.007 0H42.0017H32.024H31.17H28.0334H21.1924H17.2017H5.22477C3.8021 0 2.57497 1.004 2.29164 2.402L0.0598599 13.402C0.0199533 13.599 0 13.799 0 14C0 15.657 1.33986 17 2.993 17H13.7658H17.7564H24.5974H27.7351H28.5891H38.5667H41.7952C43.2198 17 44.448 15.993 44.7293 14.593L46.9421 3.593C46.98 3.398 47 3.199 47 3C47 1.343 45.6601 0 44.007 0ZM45.9634 3.395L43.7506 14.395C43.563 15.329 42.745 16 41.7952 16H39.5295H38.7693H28.7906H27.9366H24.8H17.959H13.9683H9.9966H2.993C1.89058 16 0.997665 15.105 0.997665 14C0.997665 13.866 1.01063 13.733 1.03757 13.601L3.26935 2.601C3.4589 1.67 4.27599 1 5.22477 1H15.3511H16.9982H20.9889H27.8299H30.9665H31.8205H41.7982H42.8138H44.006C45.1084 1 46.0013 1.895 46.0013 3C46.0023 3.133 45.9894 3.265 45.9634 3.395Z" fill="#1F375B"/>
<path d="M44.0074 1H42.8152H41.7996H31.8219H30.9679H27.8312H20.9903H16.9996H15.3525H5.22515C4.27637 1 3.45929 1.67 3.26973 2.601L1.03795 13.601C1.01102 13.733 0.998047 13.866 0.998047 14C0.998047 15.105 1.89096 16 2.99338 16H9.99699H13.9687H17.9593H24.8003H27.937H28.791H38.7686H39.5289H41.7946C42.7443 16 43.5624 15.329 43.751 14.395L45.9638 3.395C45.9897 3.265 46.0027 3.133 46.0027 3C46.0027 1.895 45.1098 1 44.0074 1ZM44.9861 3.198L42.7733 14.198L42.7433 14.312C42.7294 14.355 42.7024 14.39 42.6825 14.43C42.6625 14.471 42.6456 14.513 42.6206 14.551C42.5837 14.606 42.5388 14.652 42.4929 14.698C42.463 14.728 42.4371 14.761 42.4041 14.787C42.3473 14.831 42.2824 14.863 42.2166 14.894C42.1847 14.909 42.1557 14.931 42.1218 14.943C42.019 14.979 41.9093 15 41.7956 15H40.0806H38.9712H28.9935H28.1395H25.0029H18.1619H14.1712H10.5487H2.99338L2.87665 14.993C2.38081 14.936 1.99571 14.513 1.99571 14C1.99571 13.933 2.0027 13.866 2.01567 13.801L4.24744 2.801L4.27737 2.687C4.41106 2.281 4.79017 2 5.22515 2H14.8397H16.7971H20.7877H27.6287H30.7654H31.6194H41.597H42.3024H44.0074L44.1241 2.007C44.18 2.014 44.2279 2.04 44.2807 2.055C44.3306 2.07 44.3835 2.079 44.4294 2.101C44.4972 2.133 44.5561 2.18 44.614 2.226C44.6519 2.256 44.6938 2.28 44.7277 2.315C44.7836 2.375 44.8245 2.447 44.8644 2.519C44.8843 2.555 44.9133 2.586 44.9292 2.624C44.9771 2.74 45.0051 2.867 45.0051 3C45.0051 3.066 44.9991 3.133 44.9861 3.198Z" fill="white"/>
<path d="M44.1562 2.007L44.0392 2H36.4672H32.8362H31.6172L28.9902 15L29.0902 14.999V15H30.2032H32.1652H41.8022C42.2382 15 42.6182 14.719 42.7522 14.312L42.7822 14.199L45.0192 3.199L45.0392 3C45.0392 2.487 44.6532 2.064 44.1562 2.007Z" fill="#41E878"/>
<path d="M30.837 2H27.693H20.836H16.836H14.874H5.237C4.801 2 4.421 2.281 4.287 2.688L4.257 2.801L2.02 13.801L2 14C2 14.513 2.386 14.936 2.883 14.993L3 15H10.572H14.203H18.203H25.06H28.205H29.061L31.694 2H30.837Z" fill="#1F375B"/>
<path d="M12.025 4.99023H10.2292C9.34126 4.99023 8.75263 5.47023 8.56308 6.36023L8.35357 7.35023C8.16401 8.26023 8.71273 8.69023 9.21156 8.83023L11.1071 9.35023C11.2667 9.39023 11.3266 9.47023 11.2867 9.64023L11.0971 10.5102C11.0572 10.6902 10.9575 10.7702 10.7879 10.7702H9.33128C9.1517 10.7702 9.08186 10.6902 9.12177 10.5102L9.24149 9.94023H7.74499L7.64522 10.4202C7.42574 11.4702 7.88466 12.0402 8.9821 12.0402H10.9176C11.8055 12.0402 12.3742 11.5602 12.5637 10.6702L12.8231 9.44023C12.9728 8.72023 12.6735 8.25023 11.8653 8.03023L10.0396 7.53023C9.87002 7.48023 9.84009 7.41023 9.87999 7.24023L10.0296 6.51023C10.0696 6.34023 10.1593 6.26023 10.3389 6.26023H11.6658C11.8454 6.26023 11.9152 6.34023 11.8753 6.52023L11.7456 7.15023H13.2421L13.3519 6.61023C13.5714 5.55023 13.1224 4.99023 12.025 4.99023Z" fill="#41E878"/>
<path d="M18.2704 4.99023H16.4845C15.5866 4.99023 15.008 5.47023 14.8184 6.36023L13.9804 10.3202C13.741 11.4302 14.2298 12.0402 15.3372 12.0402H17.123C18.011 12.0402 18.5996 11.5602 18.7792 10.6702L19.2481 8.38023H16.8437L16.6043 9.58023H17.5121L17.3226 10.4802C17.2827 10.6602 17.1829 10.7402 17.0133 10.7402H15.6764C15.4968 10.7402 15.427 10.6602 15.4669 10.4802L16.295 6.55023C16.3349 6.37023 16.4446 6.29023 16.6142 6.29023H17.9511C18.1307 6.29023 18.1905 6.37023 18.1506 6.55023L18.011 7.23023H19.5075L19.6172 6.71023C19.8467 5.60023 19.3877 4.99023 18.2704 4.99023Z" fill="#41E878"/>
<path d="M24.6654 5.03023H21.4729L19.9963 12.0002H21.5128L22.0316 9.53023H24.0568C24.9447 9.53023 25.5134 9.05023 25.703 8.16023L26.0023 6.75023C26.2417 5.64023 25.7728 5.03023 24.6654 5.03023ZM24.2364 7.96023C24.1965 8.14023 24.0967 8.22023 23.9271 8.22023H22.3109L22.71 6.34023H24.3262C24.5058 6.34023 24.5656 6.42023 24.5257 6.60023L24.2364 7.96023Z" fill="#41E878"/>
<path d="M38.5661 5.72266H37.0407L36.6117 7.83666H34.5036L34.1934 9.36566H36.3014L35.8724 11.4787H37.3979L37.8269 9.36566H39.9359L40.2462 7.83666H38.1371L38.5661 5.72266Z" fill="#1F375B"/>
</svg>
