<svg xmlns="http://www.w3.org/2000/svg" viewBox="0 0 248.05 255.69"><defs><style>.cls-1{fill:#9f9f9f;}</style></defs><g id="Layer_2" data-name="Layer 2"><g id="Layer_1-2" data-name="Layer 1"><path class="cls-1" d="M72.26,125.37l-.59-.18C71.83,125,72.09,125,72.26,125.37Zm-13-83.16c0-.05,0-.06,0-.08a1.41,1.41,0,0,0-.18.44C58.89,43.58,59.12,42.82,59.27,42.21ZM76.55,27.05c0-.51,0-.88,0-1.15h0ZM182.43,68.11c.11.14.14-.16.11-.58C182.28,67.62,182.21,67.84,182.43,68.11Zm-7.16-18.62.84,0C175.78,49.27,175.44,49.21,175.27,49.49Zm-5.13,73.29a6.41,6.41,0,0,0-.77,1c-.2.31-.36.58-.46.77a2.47,2.47,0,0,1,.33-.28l.36-.54C170,123.22,170.21,122.77,170.14,122.78Zm13.17-31.33c-.12,0-.26.15-.45.57C183.06,92,183.19,91.76,183.31,91.45Zm-1.93-35.87c.32.62.52,1.08.69,1.47A6.22,6.22,0,0,0,181.38,55.58Zm-16.44,73.16c-1.69-.47-2.46,3-5,3C160.39,133,163.74,129.51,164.94,128.74Zm-30.1,14.12h-.13C134.5,142.92,134.58,142.91,134.84,142.86Zm47.8-98.94c.38.53.8,1,1.17,1.61A3.48,3.48,0,0,0,182.64,43.92ZM130.82,144.68a1.22,1.22,0,0,1-.08-.41,4.34,4.34,0,0,1-.72.13c-.43,0-1.59.92-.78.89a11,11,0,0,0,1.59-.21A1,1,0,0,0,130.82,144.68Zm57.36-89.22c.06-.2,0-.33-.09-.29a.49.49,0,0,0-.12.48C188,55.76,188.14,55.67,188.18,55.46Zm-15.54-12,.69,1.18A3.81,3.81,0,0,0,172.64,43.45ZM132.27,8.93a1.55,1.55,0,0,0-.43,0c-.21,0-.2,0,0,0S132.29,9,132.27,8.93ZM131,144.09c-.14-.08-.22,0-.22.18C131,144.22,131.08,144.15,131,144.09ZM58.38,97.54a6.31,6.31,0,0,0,.23.95A2,2,0,0,0,58.38,97.54Zm.24,1.15c0,.07-.1.18.15.43s.22,0-.08-.46a1.38,1.38,0,0,1-.08-.17C58.62,98.6,58.62,98.68,58.62,98.69Zm10.58,124-8-8.35v12.35h2v-7.39l8,8.35V215.37h-2Zm34.58-8.26,5.61,12.26H107.2L106,224h-4.42l-1.21,2.66H98.17Zm1.34,7.68L103.78,219l-1.35,3.06ZM109,155.28a5,5,0,0,0,.53-.06ZM87.27,221a5.91,5.91,0,0,1-11.82,0,5.91,5.91,0,0,1,11.82,0Zm-2,0a3.88,3.88,0,1,0-7.76,0,3.88,3.88,0,1,0,7.76,0Zm51.49-.06c0,3.53-2.43,5.72-6.35,5.72h-2.5V215.37h2.55C134.26,215.37,136.73,217.56,136.73,221Zm-2,.06c0-3.09-2.55-3.74-4.69-3.74h-.11v7.48H130C132.16,224.76,134.71,224.11,134.71,221ZM42.36,223.3l0,.33A3.67,3.67,0,0,0,46,226.9a3.62,3.62,0,0,0,3.75-3.66c0-2.13-1.53-3-2.86-3.52l-.76-.3c-.85-.32-1.25-.7-1.25-1.19a1.33,1.33,0,0,1,1.42-1.15,1.47,1.47,0,0,1,1.4.83l.18.3,1.65-1-.17-.3a3.34,3.34,0,0,0-3-1.78,3.24,3.24,0,0,0-3.48,3.09c0,1.7,1.28,2.48,2.52,3l.74.31c1,.41,1.61.83,1.61,1.68a1.64,1.64,0,0,1-1.6,1.72,1.74,1.74,0,0,1-1.25-.5,1.61,1.61,0,0,1-.46-1.15v-.44Zm11.91,3.38h2V215.37h-2ZM33.58,214.42l5.61,12.26H37L35.79,224H31.37l-1.21,2.66H28Zm1.35,7.68L33.58,219l-1.35,3.06Zm122.35,4.58V215.37h-2v4.27h-4.34v-4.27h-2v11.31h2v-5.1h4.34v5.1Zm-36.28-4-8-8.34v12.35h2v-7.39l8,8.35V215.37h-2Zm73.31-5.39v-1.91h-6.4v11.31h6.4v-1.92h-4.37v-3.31h4.25v-1.91h-4.25v-2.26ZM37.3,76.43c-.07-.41-.15-.84-.22-1.29l.07,0,.12,0,.46-.16,3.67-1.32a76.53,76.53,0,0,1,8.12-2.31,4.75,4.75,0,0,1,.18-2.16c0-.19,0-.39,0-.59a4.46,4.46,0,0,0-.13-.76c0,.16-.05.16,0-.09v0a3.26,3.26,0,0,1-.18-1.49,3.22,3.22,0,0,1,.24-.67,2.47,2.47,0,0,1,0-.38,10.34,10.34,0,0,1,.78-2.76c0-.15.09-.31.13-.47.12-.79.23-1.47.3-1.86a14.7,14.7,0,0,1,.56-2.63,4.72,4.72,0,0,0,.71-1.2,24.64,24.64,0,0,1,2.37-5.84l.05,0a4,4,0,0,0,0-2.56,157.67,157.67,0,0,1,9.38-12.72,75,75,0,0,0,5.85-7.42c.32-.71.75-1.17.94-1s3.06-2.12,2.66-2.27a1.31,1.31,0,0,0-.81,0c.57-.45,3.7-3.35,4-3.13s-.28,2.45-.78,3,3.77-4,5.59-5.54,7-4.24,11.6-6.1l10.3-3a83.85,83.85,0,0,1,9.12-1.87c.13,0,.92-.23,1.94-.43,0-.51,0-1,0-1.51V3.13l1.34-.23c-.47,0-.94,0-1.43,0,1-2.36,1.55-3,4.22-2.85,2.47.13,4.92.17,7.33.19l-.38.39a2.4,2.4,0,0,1,0,.61l.37-.06h0l0,.06,0,.11.17.45,1.31,3.63c.38,1.07.72,2.14,1,3.2.23,0,.45,0,.63,0,1.34.13,2,.24,1.51.24s-.9,0-.85.09a5.91,5.91,0,0,0,1.41.08,9.94,9.94,0,0,0,1.27,0s9,1.78,12.43,2.88,3.81,1.73,4.32,2.25,6.64,2.38,9.45,4.24,4.78,3.74,4.63,3.82,1.2.85,1.76,1.12.88.49.72.5,5.64,5.6,7.73,7.54,2,1.83,1.76,1.95,3.4,5.07,4.85,7a22.48,22.48,0,0,1,2.26,3.38A11.66,11.66,0,0,0,183.6,46c.5.63.76,1.27.57,1.42s1.72,3.62,2.41,5.18,1.78,6.18,2.8,8.62,2,5.64,1.7,5.56,1.47,1.1,1.71,2.37a21.5,21.5,0,0,1,.25,3.36l8.14,1a4,4,0,0,1,.26-.51l.32.7a5.79,5.79,0,0,1,3.08.75,53.39,53.39,0,0,1-.32,10.61,10.83,10.83,0,0,1-2.68.66l-2.48.88c-1.77.61-3.5,1.12-5.24,1.58,0,.73-.11,1.54-.19,2.39l-.36-.54c0-1.25-1.12-1.29-1.46-.18a9,9,0,0,0-.46,2.51.62.62,0,0,1-.21.59c-.17.1-.56,6-1,8a29.09,29.09,0,0,1-1.58,4.65c-.25.54-.23,1.09,0,1.21s-.31,2.25-.65,3-.75.79-.89.1-3,4.66-3.58,6.71-4.17,5.6-5.73,8-2,3-1.71,2.51-4.85,5.41-6.41,6.67,2.86-1.93,4.53-3.31-4.81,4.8-7.46,7.17-4.74,3.53-4.85,3.36-1.53,1.92-2.54,2.53a20.85,20.85,0,0,1-5,1.85c-.56,0-4,2-5.12,2.8a17.34,17.34,0,0,1-2,1.3c0-.07-3.74,1.21-8.39,2.84l-12.23,1.07c0,.19-.07.38-.11.57a48.77,48.77,0,0,1-.16,9.23,16.07,16.07,0,0,1-.53,2.51c-2,.47-4.41-.3-6.45-.23-1.41.05-3.95.89-4.9-.55l-.48.07h0l0-.07,0-.12-.15-.48-1.17-3.89c-.53-1.82-1-3.6-1.36-5.38-.38,0-.85.08-1.11.11-.5.06-.2-.37-1-.67a66.54,66.54,0,0,0-7-.72c-1.51-.11-2.22-.79-1.5-.87s-2.86-1.58-4.5-1.73a9,9,0,0,1-2.48-.33c.28,0-.09-.19-.82-.34s-1.29-.42-1.21-.6-5.66-2.23-7.46-3.07-3-1.69-2.76-1.89-.52-.74-1.76-1.19-1.64-.66-.89-.46-4.88-3.51-6.94-5a22.44,22.44,0,0,1-3.44-2.68c.18,0-.52-.92-.92-1.12s-.52-.38-.26-.38-6.68-7.54-8.27-10.12-3.51-6.17-2.88-5.35.31-.51-.4-1.27.12-1.18.36-1-.77-1.34-.51-1.54.09-.49-.4-.65-1.53-2.49-1.55-2.94-2.06-3.18-2.07-2.52-1.24-3.46-1.4-5.85-.51-8.85-.2-8.73a5.6,5.6,0,0,1,1.45,2c.49,1,1,.28.92-.27a27.58,27.58,0,0,0-1.38-3.17c-.31-.81,1.42,2.75,1.68,1.21A17.28,17.28,0,0,0,53,90.11c-.09-.52,0-.74,0-.77A4.77,4.77,0,0,0,53,88c-.08-.69.67.68,1,1.17s.6.09.51-.9a1.19,1.19,0,0,1,0-.39c-.61-.15-1.24-.29-1.88-.42a17,17,0,0,1-4-.12l-1.23-.21,1.31-.22c-2.38-.23-4.77-.32-7-.31H39.11a3.29,3.29,0,0,0,0,.44L39,86.25a8.35,8.35,0,0,1-1.34.12C36.94,84.55,36.62,79.34,37.3,76.43Zm162.76-2.87c.36,0,.72,0,1.07.09l0-.09h-1.1Zm-7-.5.27,0,2.2.3.51,0,.81,0c-1.24-.1-2.51-.29-3.79-.51Zm-4.55,32.78c.16-.5.37-1.07.46-1.26s.13-.54,0-.22-.68,1.66-.72,1.91S188.32,106.34,188.49,105.84ZM186,97.23c.13-.43-.74,1.85-.48,2.31a2.87,2.87,0,0,1,.3,1.56c-.07.23.12-.21.15-.4a7,7,0,0,1,.31-1.14C186.44,99.12,185.87,97.67,186,97.23Zm-.33-1.07a9.18,9.18,0,0,0-.42,1.69c-.18.9-.14.86.09-.07A10.2,10.2,0,0,0,185.68,96.16Zm-.6-16.24.33-.77A1.67,1.67,0,0,0,185.08,79.92ZM59.58,108.74c-.17-.4-.53-.57-.81-.39s-.15.5.3.71S59.74,109.13,59.58,108.74Zm6.48,11.5c-.48-.53-.45-.79-.29-.65s0-.13-.3-.63-2.36-1.36-1.73-.22a13.7,13.7,0,0,1,1.14,2.56,2.11,2.11,0,0,0,.53.93,3,3,0,0,1,.66,1c.06.17.17.32.26.33s-.07-.71-.25-.85a2.61,2.61,0,0,1-.59-.78c-.15-.28.34-1.42,1.05-.89S66.55,120.77,66.06,120.24Zm2.45,5.53c-.49,0-.67.13-.4.34a.75.75,0,0,0,.9,0C69.23,126,69,125.79,68.51,125.77Zm4.74,1.89c-.45-.41-2.44-2-2.3-1.11A20.31,20.31,0,0,0,73.25,127.66Zm4.46,12.44A5.29,5.29,0,0,0,75,137.93,7.25,7.25,0,0,0,77.71,140.1Zm12.45.45c-1.24-.26-2.69,0-2.18.27s1.47.63,2.14.87S91.38,140.82,90.16,140.55Zm33.51.7c-.64.44-1.25,1-1.06,1.91A2.73,2.73,0,0,0,123.67,141.25Zm5.13,8.55-1.57.43c0,.24,0,.49,0,.73.51,0,.71.13.44.21s-.11.07.53-.07,1-.29.73-.32a1.24,1.24,0,0,1-.7-.33c-.14-.16.59-.61.88-.68S129,149.76,128.8,149.8Zm12.67-2a10,10,0,0,1,2.11-1.49c.44-.14-2.14.31-2.31.78S141.22,147.82,141.47,147.84Zm3.63-.34-1.27.3-1.6.38c.09.17.06.38-.3.56C141.11,149.13,142.54,148.57,145.1,147.5Zm4.44-1.48c-1.64,1.37-2.86.54-4,2.22C147.9,148.58,148.68,146.9,149.54,146Zm31.8-41.55a1.18,1.18,0,0,0-.45,1c0,.37.24.23.49-.32S181.61,104.29,181.34,104.47ZM183,62.6s0,.1,0,.12.06,0,.06,0S183,62.58,183,62.6Zm-3-19.94c.82,1,1.84,1.85,2.26,1.84s-3.45-5.09-4.14-5.2S179.13,41.63,180,42.66ZM170,28.79a3.74,3.74,0,0,1,.46,1.93c0,.76,2,1.37,1.29.39s-1.63-2.31-1.83-2.51S169.78,28.48,170,28.79Zm-5.36-1.05c0,.34.77.94,1.73,1.35s1.9-.67,1.35-.29S164.66,28.08,164.66,27.74ZM164.09,24c1,.86,2.61,2.88,3.19,2.59C166.21,25.68,165.24,24.71,164.09,24Zm-4,.25c0-.07.11-.1.17-.15C160.12,24.07,160.05,24.12,160.05,24.2Zm-9.09-3c1.5.72,2.83.58,2,.25s-1.15-.54-.68-.46a10.94,10.94,0,0,0-2.37-.75C149,20.09,149.47,20.52,151,21.23Zm-33.73,2.58c.63-.43,1.22-1,1-1.83A2.51,2.51,0,0,0,117.23,23.81ZM65.31,34.47c0,.42.28.35.74-.18s.5-.87.09-.78A1.21,1.21,0,0,0,65.31,34.47ZM50.85,71l.45-.09a.1.1,0,0,0,0,0Zm-.4,9.19a81.63,81.63,0,0,1,8.44,2.35l3.68,1.28,1.85.65.14.14-.06-.11.43.16c.23.57.87.62,1.49.66l.55.07,2.43.87-.2,0h-.14l-.52,0-.1,0-.35,0a3.79,3.79,0,0,0,.45.07l.51.44c-.08-.17-.1-.34.14-.38,0,0,.41,0,.41,0l1.06.37.49.51c.22.18.42,0,.66-.12a73.64,73.64,0,0,0,7.71,2.19,8.85,8.85,0,0,1,1.63,1.52l-.66-.07c0-.28.07-.57-.2-.77l-.7.18c-.75-.9-1.78-.83-2.81-.85l.08.16q.36.1.72.24a.74.74,0,0,0-.23-.3,5.43,5.43,0,0,0,.62.48,10.32,10.32,0,0,1,1.06.51,7.23,7.23,0,0,0,1.46.35v.09c-2,0-4.12,0-6,.07l-.79,0-1.06-.36-1.38-.8-.52,0a6.91,6.91,0,0,1-1.37.11,5.21,5.21,0,0,1-.57-.08,3.61,3.61,0,0,1-1.27.09c-.09,0-.09-.11-.09-.27l-3.67-.16H63.7c.86.14,1.69.28,2.63.46a28.2,28.2,0,0,1-4.74-.6,27.34,27.34,0,0,1-5.18-.9c.57,1.4,1.27,3.36,1.63,4.38.62,1.77.43,2.79.17,2.58s0,1.17.17,2.19l0,0c-.23,0-.48,1.67.11,2.47s1.71,4.34,1.17,4,1.05,1.88,1.65,3.43.79,2.61.45,2.38.34,3,1.19,3.76,1.35,1.34,1.12,1.29a29.75,29.75,0,0,0,3.11,4.71c.84,1,1.4,1.77,1.25,1.77a11.23,11.23,0,0,0,1.92,2.56,6.33,6.33,0,0,1,1.33,2c.09.26,1.89,1.14,2.52,2s-.51.79-1,.87S75,132.05,76,132s2.12,1,1.2.49,3.6,2.52,5.31,3.86,2.8,2.07,2.44,1.62,1.26-.17,1.41,0-.32,0-.48,0,6.13,4,8.61,4.17,3.78.7,3.52.75a9,9,0,0,0,4,1,7.51,7.51,0,0,1,1.74-.26c-.24.07,1,.63,1.3.45s2.33,1.54,5,2.24c0-.4-.1-.79-.13-1.18-.33-1.94-.9-3.51-1-5.14-.5-6.45-5.91-12.76-3.82-19.35,1.23-4.23-1.07-10.58-1.51-7.16.64-6-1.24-8.24,2.1-11.31.18-.3,3.28-1.91,5.35.22l.08,0c2.36,1.22,3.82-.24,5.88.37a14.27,14.27,0,0,0,3,.47,27.72,27.72,0,0,1,5.25.25l.8.13.41.07,0,.07,0-.07h.09c.09.36.22.25.34.14l.11-.06.53.06,0,.07,0,0h0l-.1.09h0l0,0h0l.13.2v-.3h0l.08-.06.23,0,.13.26c.06.08.08-.08.12-.22l1.65.08a3.82,3.82,0,0,1,.4.84l-.13,0a1.72,1.72,0,0,0-.08-.52c-.05.08-.13.25-.13.25-.2-.53-.39-.33-.6-.12l.09.36c.12,0,.13-.24,0-.41.24.45.46.52.69.44V105l-1.15,1.13-.15.19-.22,0-.37-.33c-.18-.2-.38.72-.63.92,0,.08,0-.65-.13-.49s-.35.56-.53.58c-.08.18-.24-.64-.32-.46s-.65,1.24-.35,1.17.71-.36,1.11-.52a2,2,0,0,1-1.13.67c-.27,0-.65-.31-1-.17-.44.41-.87,1.12-1.4,1.17-2.09-.16-3.63,1.43-5.65.76-.38,0-.68.19-1,.06-1.42-.57-2.19,2.14-3.83-.34a2.28,2.28,0,0,0-.5-.52A55.41,55.41,0,0,1,114,116c0,9.36,4.36,17.37,5,27,.06.82.14,1.64.21,2.46a12.33,12.33,0,0,1,2.19,0c.33-1,.68-2.1,1.06-3.15l1.42-3.79.72-1.91.14-.14-.11.06.17-.45c.58-.22.65-.88.73-1.54l.09-.56,1-2.51,0,.21-.08.68s0,.08,0,.11,0,.26,0,.37a3.7,3.7,0,0,0,.09-.48L127,132c-.17.08-.34.09-.38-.15v0l0-.42.41-1.1.53-.49c.19-.22,0-.43-.1-.69a77.83,77.83,0,0,0,2.49-8,8.7,8.7,0,0,1,1.58-1.65l-.1.69c-.27,0-.57-.1-.78.18l.16.74c-.93.75-.9,1.83-.95,2.91l.6-.29c.11-.6-.13-.74-.49-.31a5.81,5.81,0,0,0,1.46-3.23h.09c-.05,2.07-.14,4.31-.16,6.27v.82l-.39,1.1L130,130c-.53.77.33,2.22.11,3.64,0,.25-.88-.13-.8.36a11.81,11.81,0,0,1-.19,3c.07.48-1.18.79-1.1,1.28,0,1.07.47,4,.86,2.48l.31-.39c-.06.19-.12.39-.17.59-.41,1.35-1.44,3-1.71,4.7,0,.41,0,.82-.06,1.24.13.11.14.22,0,.32s0,.22,0,.33a8,8,0,0,0,2.09-.34,2.77,2.77,0,0,0,1.49-2.1,30.57,30.57,0,0,0,3.75-.82c1-.34,1.13-1.49.26-1.4,1.07-.21,5.21-1.11,7.34-1.73a23.39,23.39,0,0,1,4.74-1.15c0,.15,5-3,5.69-3.06s3.57-.92,3.81-.74,1.06-.26.79-.26a22.58,22.58,0,0,1,3.63-3.29c.43-.18.78,0,.8.42s4.64-4.79,6-7a8.19,8.19,0,0,1,1.23-1.5c-.07.14-.11.24-.09.24a2.54,2.54,0,0,0,.42-.52c.44-.32.71-.33.64-.06.73-1.31,3.67-6.35,5.28-8.81,2-3,1.93-4.78,1.59-5.16s-.38,1.21-1,1.88-.53-4.06.86-6.34a21.85,21.85,0,0,1,3.1-4.31c.31-.1.55-1.17.34-1.41s.73-2.89,1.07-3.85.6,1.5.3,3,.16,4.12.61,3.53,1.18-5.62,1.8-6.17-.55-.82-.54-2.36c0-.93.14-2.53.21-3.9a23.18,23.18,0,0,1-3.55.87c-6.16.74-12,6.37-18.41,4.52-4.1-1.08-10.09,1.46-6.81,1.77-5.79-.42-7.85,1.54-10.92-1.68a4.84,4.84,0,0,1-.88-3.48,1.65,1.65,0,0,1,.1-.44,3.19,3.19,0,0,1,.21-.56c.71-2-.34-3.45.18-5.34a15,15,0,0,0,.43-3,34.18,34.18,0,0,1,.23-5.28l.12-.81.06-.41.06,0-.06,0,0-.09c.32-.1.22-.22.12-.35l-.06-.11.06-.53.06,0,.11.13a0,0,0,0,0,0,0l0,0v0l.18-.13h-.29l-.05-.08,0-.23.24-.14c.09,0-.07-.08-.2-.12l.06-1.66a3.41,3.41,0,0,1,.78-.41l0,.14a1.11,1.11,0,0,0-.49.08l.23.13c-.49.2-.3.4-.1.6l.34-.09c0-.12-.23-.13-.38,0,.41-.24.47-.46.4-.69h.06l1.05,1.16.17.14,0,.23-.3.38c-.18.18.68.37.85.63.07,0-.6.06-.45.13s.52.35.54.54-.59.24-.43.32,1.15.65,1.09.36-.34-.73-.49-1.13a1.91,1.91,0,0,1,.62,1.15c0,.27-.29.65-.15,1,.38.44,1,.88,1.09,1.43-.14,2.11,1.32,3.71.71,5.75,0,.38.17.69.05,1-.34.91.56,1.58.64,2.37a47.79,47.79,0,0,1,6.45-1.3c9-.3,16.5-5,25.73-6l.89-.12c0-.86,0-1.8,0-2.79l-1.67-.52-3.69-1.29-1.85-.65-.14-.14.06.11-.43-.16c-.24-.57-.87-.61-1.51-.66l-.53-.08-2.45-.86.21,0h.14l.51,0,.1,0,.36,0-.46-.07-.51-.44c.09.17.1.34-.13.38h0l-.41,0L170,73.48l-.49-.51c-.22-.18-.41,0-.66.12a73.54,73.54,0,0,0-7.74-2.19,8.69,8.69,0,0,1-1.63-1.51l.67.07c0,.27-.08.56.2.77l.7-.18c.75.89,1.78.82,2.82.84l-.31-.59c-.56-.1-.69.15-.26.49a5.46,5.46,0,0,0-3.15-1.33v-.1c2,0,4.14,0,6-.06l.78,0,1.08.36,1.63,1c.75.5,2.11-.42,3.48-.25.24,0-.09.89.37.79a10.69,10.69,0,0,1,2.85.09.26.26,0,0,1,.19,0c1.25,0,2.45-.08,3.66-.07h0c-.66-.18-1.3-.32-1.93-.43l4.43.54c.3,0,.61,0,.92.08,0-.3,0-.41,0-.31,0,.41-.36-3.54-.82-3.53a.78.78,0,0,0-.22,0,4.44,4.44,0,0,0-.38-1.81c-.35-.47-.28-.53.17-.12s.41-.87.11-1.4a2,2,0,0,1-.13-1.46c.11-.06-.17-.69-.33-1.19s.15-.07.27.06S181,57,181.4,57.11s1.13,0,1.06-.56-2.75-1.92-4-3.75-2.31-3.33-2.31-3.33-.63-.73-1.41-1.62a4.43,4.43,0,0,1-1.12-2.11c-.14-.61-.24-1.07-.22-1a9.6,9.6,0,0,1-.29-2,1.8,1.8,0,0,0-.71-1.51c-.49-.39-.6-.6-.6-.8s-.4-.69-.88-1.1S167.55,34,165.77,33a9.19,9.19,0,0,0-1.84-.88h0c.34,0-.19-.78-.65-1s-.77-.43-.69-.44A43.82,43.82,0,0,0,158.31,28c-1.28-.63-.94-1.12-.28-.9s0-1.23-1-1.6a2.34,2.34,0,0,0-2.06.12c-.12.16-.5-.38-.68-.76s-4.17-2.11-5.83-2.54a9.81,9.81,0,0,1-2.85-1.1,2.59,2.59,0,0,1,.81.32,22.93,22.93,0,0,0,2.5.69c.5.09.24-1.64-1.77-2.29s-1.43-.92-.63-.73-2.33-1-7-2.58a37.47,37.47,0,0,1-6.75-2.9c-1.23,0-2.25,0-3.08,0,.45,2,.82,4,1.07,6,.4,1.81,1,3.27,1.21,4.81.73,6.07,6.37,11.83,4.52,18.11-1.08,4,1.46,9.94,1.77,6.69-.42,5.7,1.54,7.73-1.68,10.74a1.66,1.66,0,0,1-.45.31v0l-.12,0a4.55,4.55,0,0,1-4.15.07,11.43,11.43,0,0,1-3.1.11,14.75,14.75,0,0,0-2.56-.28,37.28,37.28,0,0,1-4.49,0l-.69-.08-.35,0,0,0,0,0h-.08c-.09-.24-.19-.16-.3-.09l-.08.06-.47,0,0,0-.07,0-.19,0-.13-.17c-.05-.06-.07,0-.09.16h-1.43a2.43,2.43,0,0,1-.36-.57l.11,0a.87.87,0,0,0,.09.37l.09-.17c.19.36.36.2.53.05l-.09-.25c-.1,0-.11.18,0,.29-.21-.31-.4-.34-.6-.29v0l1-.83.12-.14.19,0,.34.22c.16.13.3-.53.52-.66,0-.06.06.45.13.33s.28-.4.45-.41.21.43.28.31.54-.89.29-.83-.62.27-1,.39a1.73,1.73,0,0,1,1-.49c.23,0,.57.19.85.08.38-.29.75-.81,1.22-.85,1.83,0,3.23-1.08,5-.67a3.06,3.06,0,0,1,.89-.06,1.3,1.3,0,0,0,.83,0,70.92,70.92,0,0,1-1.84-8.5c-.3-8.81-5-16.22-6-25.3q-.37-3-.84-6.07c-.4-.13-.5-.34-.23-.34h.18l-.09-.54h-.25c-.6,2.57-1.34,5.1-2.19,7.66l-1.29,3.63-.65,1.82-.14.13.12-.06-.17.43c-.57.23-.62.86-.66,1.48l-.08.53-.86,2.4,0-.2V32.7h0v0l0-.5s0-.08,0-.11,0-.24,0-.36a3.85,3.85,0,0,0-.08.47l-.44.5c.17-.09.33-.1.39.13h0l0,.4-.37,1.05-.51.48c-.18.22,0,.41.12.65A72.39,72.39,0,0,0,111.65,43a8.76,8.76,0,0,1-1.51,1.61l.06-.66c.27,0,.57.08.78-.2-.06-.23-.19-.69-.19-.69.9-.74.83-1.75.85-2.76l-.6.29c-.09.56.16.69.5.26A5.41,5.41,0,0,0,110.2,44h-.09c0-2,0-4.07-.07-5.92l0-.78.36-1.05.94-1.6a1.4,1.4,0,0,0,.09-1.1,2.18,2.18,0,0,0-.09.23c0-.23,0-.47,0-.7a4.81,4.81,0,0,1-.23-1.86c0-.07.08-.09.2-.09a11.27,11.27,0,0,1,.08-1.44,15,15,0,0,0,.13-2.08c-.13.78-.26,1.55-.43,2.41a26.07,26.07,0,0,1,.49-4.18,2.66,2.66,0,0,1,.17-.7c.06-.28.12-.54.19-.82.36-1.29,1.34-2.87,1.54-4.49.08-1.87-.18-3.83,0-5.84-.55,0-1.19.12-1.62.18-.81.11.33-.49,1.67-.73,0-.11,0-.22,0-.33l-.55.07c-.82.19-1.62.4-2.36.58-2.45.6-5.17.33-7.66.7a22.3,22.3,0,0,0-2.63,1.68c-.84.69-1,.67-.78.48s-.36-.23-.79-.26c-.25.16-.51.33-.78.47a8.71,8.71,0,0,1-1.33.52c-.43.67-.52,1.44-2.84,1.89.73-.48,1.67-1.14,2.69-1.85A24.43,24.43,0,0,1,93,18a16.85,16.85,0,0,1-2.44.07,34.48,34.48,0,0,0-6.9,4.17c-2.25,2.15-5.31,3.68-4.33,2.72s-.3-.53-2.82.94c0-.69,0-.7,0-.7-.62.52-2.58,2.48-4.89,4.87a1.62,1.62,0,0,1-.26.83c-.36.6-.85,1.11-1.1,1.13s0-.3.14-.7l-1.62,1.72-.6.75a9.2,9.2,0,0,0,.78-.76,4.54,4.54,0,0,1-.82.82l-5.56,7c-2.29,4.36-4.52,7.36-4.72,7.37s1.68-4,2.32-5.64c.53-1.39-.48-1.14-.92-.43a5.92,5.92,0,0,0-2.14,2.66c-.2,1-.16,1.63.07,1.43s-1.53,6.1-1.62,7.11-1.74,3-1.75,2.35c0-.13,0-.12-.07-.07a18,18,0,0,0-.56,2.32,2.63,2.63,0,0,0,.77-.67v0a2.28,2.28,0,0,0,.27-.39,10.46,10.46,0,0,1-.28,1.26,5.27,5.27,0,0,1-.32,1.49l-.15,4.09c-.13-.18-.32-.13-.34-.45l-.11,0c0,.24-.07.48-.11.72a1.72,1.72,0,0,0,.13.52,1.81,1.81,0,0,1,.21-.18,4.07,4.07,0,0,0,.59-1.13,4.37,4.37,0,0,0-.11.62c0,.18,0,.36-.05.54-.07.71-.12,1.4-.3,1.32-.16.57-.36,1.13-.54,1.65s-.44,1-.66,1.53A7.86,7.86,0,0,1,51.82,70a2.12,2.12,0,0,0,0,.67,2.24,2.24,0,0,0-.37.1l0,.09c1.47-.29,2.94-.54,4.43-.72,1.84-.4,3.32-1,4.88-1.21,6.15-.74,12-6.37,18.36-4.52,4.08,1.08,10.06-1.45,6.79-1.77,5.77.42,7.82-1.54,10.88,1.68a1.86,1.86,0,0,1,.37.56,2.07,2.07,0,0,1,.94.07c.29.68,1,2,.67,2.87-1.08,2.4.35,3.81-.16,5.88a15.19,15.19,0,0,0-.36,3A29.63,29.63,0,0,1,98.18,82l-.1.81,0,.41-.06,0,.06,0v.09c-.34.11-.23.23-.12.35l.06.1,0,.53-.06,0a1,1,0,0,1-.11-.12l-.19.13h.29l.07.08,0,.23-.25.14c-.08.06.08.08.22.12l0,1.65a3.62,3.62,0,0,1-.79.42L97,86.8a1.37,1.37,0,0,0,.51-.09l-.24-.12c.5-.22.3-.41.09-.6l-.34.1c0,.11.24.12.38,0-.41.25-.47.48-.4.7h-.06L95.8,85.7l-.19-.14,0-.23L96,85c.18-.18-.71-.35-.9-.6-.08,0,.62-.07.46-.14s-.55-.34-.57-.52c-.17-.07.6-.26.43-.33s-1.21-.61-1.13-.31.37.7.53,1.09A2,2,0,0,1,94.11,83c0-.27.28-.66.12-1-.39-.43-1.09-.83-1.15-1.36.09-2.1-1.49-3.58-.91-5.63,0-.37-.2-.66-.09-1,.36-1-.83-1.65-.75-2.54a58.9,58.9,0,0,1-7.51,1.57c-8.95.3-16.45,5-25.65,6C55.59,79.42,53,79.77,50.45,80.19Zm47.18,2.16c.34-.15.61-.31.31-.45C97.61,82.06,97.5,82.24,97.63,82.35ZM53.88,58.28c-.1.35-.18.72-.27,1.07v.24A11.1,11.1,0,0,0,53.88,58.28Zm58.17-33.84.24-.34C112.2,24.07,112.12,24.17,112.05,24.44Zm9.38,35.43c.13.24.27.44.39.21C121.68,59.84,121.54,59.76,121.43,59.87Zm-1.56.08-.11-.14V60l.1-.08h0Zm60.78,16.53c.43.63,1,1.22,1.87,1A2.63,2.63,0,0,0,180.65,76.48Zm-36.05.91c-.33.14-.6.3-.3.44C144.62,77.68,144.73,77.51,144.6,77.39Zm-19,26.69c-.14-.36-.29-.65-.44-.32C125.33,104.1,125.5,104.22,125.62,104.08ZM60.06,83.7c-.44-.63-1-1.21-1.87-1A2.61,2.61,0,0,0,60.06,83.7Zm23.32,52c-2.77-2.2-.88-.45-3.91-2.32A30,30,0,0,0,83.38,135.7Zm97.89,91v-9.4h2.52v-1.91h-7.07v1.91h2.52v9.4Zm13.5-34.07,1.61-1.84.48-1,.36-.36.06-.59.24-1.38v-.65l-.24-.72-.24-.83-.54-.72-.35-.84-.13-.23-.23-.12-.48-.12-.36-.66-.77-.47-1.61-1-3-1.13-2-.6-1.08-.18-.95-.3.95-.59,2.09-.78,2.8-1.61,2.45-1.85,1-1.43.24-1.07-.36-1.44-.78-.89L192,168l-.54-.36-.59-.18-.6-.18-1.31-.18-2-.3-3.1.06h-2.39l-1.31.18h-.9l-2.08.3-1,.3-.47.48-.66-.18h-.48l-1.19.36h-1.25l-1.26.29-.66.12-1.43.48-.65.48-.78-.12-2,.65-1.38.36-1.19.66-1.08,1.37-.29,1.07.17.6.6.54.54.24.54-.36,1.07-.77.3-.66.95-.72.89-.18.67-.36.59-.53.48.18.65-.18.48-.24h.54l.59-.24,2.81-.3.71-.3.48.06.84-.36,1.31-.17.54-.12.71.24-.3.53-.41.24-.48.48.12.77-.6.6-.6,1.26-.41.83.17.77-.59.6-.06.66.36.23-.54.36-.48.3-.17.48-.06.59-.42.18-.12.72-.42.42-.12.71-.71.66v.54l-.54.71-.12.54-.6,1.13-.77,1.49-.54,1.32-.78,2,.06.24.18.54.42.48,1,1.67.36.29.54.24.54.06.3-.65.95-2.21.54-2.21.59-.83,1.19-3.11.48-.71.42-1.19,1.07-2.15.3-1.07L178,178l.72-1.67.71-1.61.42-1,.18-.65.36-.54v-.83l.12-.66-.3-.54-.3-.47v-.24l.3-.3,1.25.18.6-.48.24-.12.53.36.06.06,1.43-.3.6-.06.72.06,1.43.18,2.32.3,1.2.41.65.36.3.3.06.6-.06.53-.12.18-.53.3-.48.42-1.73,1.14-1.91,1.19-.9.35-2.62,1.26-2.38.71-1.5.72-.47.24-.9.95-.48.6-.12.65-.18.72v.06l.06.24.3.24.72.18.65-.06,1-.12.6.06.59.12,1.14-.12,2.32.35,1.5,0,2.68.53,1.37.12,1.19.42,1.07.41.84.42.18.18.42.54.65.18.06.41.6.9-.12.48.24.65-.54.3.06.6-.24.06-.29-.06-.48.48-1.49,1.25-.24.36-.78.47-.77.66-.84.24-.72.89-1.24.36-1.5,1-.65.11-1,.72-1.43.42-1.73.77-1.13.12-.42.36-.24.12-.42.06h-.71l-.48.42-2.32.42-1,.41-1,.06h-1l-2.62-.12-.54-.18-.18-.17v-.25l.24-.35.54-.42,3.7-2.15,1.42-1,1.2-.36,2.63-1.19,3.09-1,.72-.41.84-.06.65-.24.42.18h.89l.9-.06.3.3.89-.18.36-.48.54-1,.06-.36-.24-.72-.89-.89-.84-.24h-.24l-.95.36-.72.17-1.25.54-2.69,1-3.7,1.91-.89.23-.18.54-.06.06-.95.06-2.09,1.13-2.21,1.08-1.55.89-3.7,2.63-.95.89-.6.84-.06.36.3,1,.24.24.12.06.42-.12.35.77.24.18.36.06h.06l.65-.12.78.54.72-.06.47.06.6-.42.42-.12.47.36.6.12h.54l1.55-.42,3.4-.66.54-.23.59-.3.78.12,1-.42.9-.12.36-.3.53-.12,1.32-.71h.53l.48-.48,1.07.12.42-.36.48-.42.18-.06.95.06,1.07-.77.48-.06.48-.36.12-.3.66-.12.77-.24.6-.53.41-.48.6.06.6-.65,1.13-.72.6-.6.53-.18ZM173.35,221a5.91,5.91,0,0,1-11.82,0,5.91,5.91,0,0,1,11.82,0Zm-2,0a3.89,3.89,0,1,0-7.77,0,3.89,3.89,0,1,0,7.77,0Zm-12.38-30.14-.18.78.11.9-.53.77-.3,1.13-.42.18-.65.6-.48.18-.9,1.07-.65.72-.48.36-.24-.3-.36.12-.12.47-.11.24-.12.12-.84.48-.42.35-.71.07-.6.83-1.19.42-1.73.95-.48.12-2.09.78-.65.12-.36-.06-.54-.36-.65.18-1,.12-.36-.12-.48-.3-1.07-.54-.36-.89-.53.06-.66-2.15,0,0-1.32,1-.47.54-.66-.18-.12.06-.36.84-.83.06.06.65-.6.3-.53.24-.66.54-.54.36-.71.06-.72.41-.71-.11-1.32.05-.59-.35-.9-.48-.24-.18-.41-.72-.3-.77-.54-1.07.18-1.08.06-1,.18-.84.18-.36.47-.71.36-1.14.36-.53.24-.6.77-1.08.9-1.72.35-.6v-.18l-.05-.18-.06-.18-.84-.35-.36.59-1,.42-.48.42-.59.29-.66.6-.54.36-.35.66-.78.05-.48.19-.36.53-.77.24-.36.6-.6.23-.36.09v0l-.3.17-.54.72-.53.06-.3.42h-.3l-.54.53-1.43,1.67-.9.54-.41-.12-.36.48-1,.72-.66.83-.9.3-1.25,1.19-.54.18-.23-.06-.72-.66-.48-.35-.41-.66-1.2-1.49v-.12l.12-.84v-1l.48-1v-1.07l.54-.95-.13-.42.13-.72-.72.42-.6.78h-.71l-.36.83-.42.18-.41.42-.66-.06-.12.77-.53.36-.42.48-.3.12-.6.65h-.6l-.17.72-.54.54-.42.41-.6-.06-.18.66-.17.3-.07.06-.77.18-1.85,1.67-.89-.06-.66-.06-.42-.18-.48-.36-.47-.6-.54-.47-.89-1.49-.42-.66v-.6l.18-1.25,1.07-2.21.24-.65h.3l.06-.48.42-.47v-.42l-1,.47-.6.48-.53.24,0,0-.19.22-.24.11-.06.13-.3.06-.29.29-.36.3-.08,0-.28.46-.72.54-.42.41-.71.12-.3.6-.42.18-.47.36-.66.71-.53.06-.24.66-.66.24-.24.42-.3,0-.65.48L85,200l-.65.18-.24.48-.6.3-1,.41-.06.06-.3.42-1,.3-.48.48h-.65l-2.15,1.07-1.19-.12-1.26-.06-.41-.18-.65-.89-1.14-1.56v-.41l.54-.6.3-.54.41-.36.54-.23.84-.18,1-.3.59.6.66-.06.66.17,1-.53.6-.18.24-.6,1.07-1.79.42-.41L82.3,194l.18-.18.35-.12.25-.18-.42-.78.29-.59v-.54l.06-.36-.06-.47.06-.54v-.06l-.11-.6-.19-.59-.53.29-1.25,1.26-.84,1.07-1,.54-.54.77-.36.18-1,.72L76,194.9l-.21.87-.41.36-1.26,1.32-.54.17-.65,1-.72.24-.35.36-.6.17-.3.54-.9.36-1.49.48-.65-.12-.54-.3-.54-.12-.35-.77-.42-.66v-.42l.12-.66-.3-.29.06-.66-.06-.78v-.06l.06-.41.12-.66-.12-.18-.6.48-.65.18-.36.89-.54.36-.24.3-.59.3-.54.42-.48.05-.3.54-.29.36-2.15,1.61-.72.71-.89.54-2.45,1.43L54,203l-1.67-.42-1-.72-.19-.3-.24-.95-.35-.9V199l0-.33,0,0-.42.35-.71.07-.6.83-1.19.42-1.73.95-.48.12-2.09.78-.65.12-.36-.06-.53-.36-.66.18-1,.12-.35-.12-.48-.3-1.07-.54-.36-.89-.54.06-.66-2.15L36,198l-.09-.17-.48.41-1.38,1-.47.54-.66-.18-.12.06-.36.84-.83.06.06.65-.6.3-.54.24-.65.54-.54.36-.72.06-.71.41-.72-.11-1.31.05-.59-.35-.9-.48-.24-.18-.42-.72-.3-.77-.53-1.07.18-1.08.05-1,.19-.84.18-.36.47-.71.36-1.14.36-.53.24-.6.77-1.08.9-1.72.35-.6v-.18l-.06-.18-.05-.18L26,189l-.36.59-1,.42-.48.42-.6.29-.65.6-.54.36-.36.66-.77.05-.48.19-.36.53-.77.24-.36.6-.6.23-.71.18-.54.6-.3.24-.36.06-.41-.12-.24-.24-.06-.36v-.29l.12-1,.59-.66.3-.42.3-.23.54-.18.59-.42.48-.12.36-.54.65-.35.48-.42.84-.84.06-.06.71-.23.36-.48h.36l.35-.66,1.44-.83.48-.6.47-.3.3-.42.66-.41.71-.42.06-.06.9-.06,1.07.24.66.59.18.42.12,1,1.25,3.64-.18.89-.18.36-.83,1-.36.48-.48.3-.3.6-.48.35-.24.48-.23.6-.66.18-.06.83-.89,1.43-.3.78-.3.54.12.3.12.05.24.06,1.13-.11.42.11.54-.41,1.13-.3.54-.36.83-.3,1.37-.95,1-.6.59-.48,1.08-.77.36-.48L37,193.87l.59-1,.3-.22.28-.37.48-.84.23-.6.24-.29.48-.3.59-.36.12-.3.12-.59v-.12l.24-.18.6-.36,1.25-1.08,1.49-.59.9-.54.41.06h.18l.78-.18.54-.18,1.19-.06.66-.06.47.18,1.26.24.65.3.6.72.12.53-.18.78-.66,1.07-1.07.9-.6.18-.42.53-.47.24-.6.48-.78.06-.11.06-.24.3-.42.65h-.54l-.53.36-.12.42-.66.3-.78.65-.47.36-.6-.06-.18.36-.06.59-.41.12-.36.3-.36-.12-.6.6-.77.06-.12.66-.3,1.07.18.54.18.17.24.06,1.72-.06h.9l1.37-.59.66-.06h.65l.54-.66.6-.3.65-.11.3-.54.24-.18.24-.18.89-.24.54-.66.9-.35.53-.54.84-.24L52,194l.78-.54.36-.24h.12l.19-.18.48-.71,1-.78,1.08-1.13L58,189.15,59.7,188l1-.42,1-.59,1.38-.42,1-.42.6.3.53-.3h.18l.66.18,1,.78.24.65.12.78.3.65.47-.41.6-.9.72-.6,1.19-.29.72.18.48.41.17,1-.23,1.37L71,191.42l-.72,1-.66,1.91-.29.48v1l-.06,1,.06.36.12.12.17.06.19-.06.41-.24,1-1,.6-.35,1-1,.21,0,0-.14.24-.47.36-.48.27.09.4-.24.16-.15.12-.06.6-.72.48-.41.24-.06.24.06v0l.28-.2.24-.3.77-.36,1.08-1.13.53-.48,1.2-1.73.66-.71.89-2.63.54-.42.83-.17.9.17.65.48.24.3L85.7,187l.47,1.43.24,1.19.06.84.36.71.06.48-.24.72.06,1.43-.3.59-.06.66-.35.77.17.36,1.56-.89.35-.36,1.68-1.19.77-.9,1.13-.67v0l.66-.66.71-.54.21,0,.27-.31.35-.18.13-.3.77-.18.78-1,.65.05.42-.71.54-.42.36.06.42-.54.59-.12.42-.17.6-.06h.71l.78.83.47.54.42.71.24,1.2-.06.3-.12.17-.54.25-.11.71-.36.89-.24.48-.48.36-.24.54-.47,0-.12.66-.24,1L99,196l-.42.54-.11.48-.3.77-.07.36.07.24.17.18.13.06,0-.06,1.25-.9.42-.23.6-.12.3-.54.71-.66.48-.47.66-.12.11-.54.72-.42.72-.65,1-.84.3-.42h.47l.3-.83,1.79-1.55.36-.6.66-.42,1.49-1.37.72-.42,1.07-.18.78.06.17.18.84.84,1,.77.3.6.06.3-1.37,3.34-.78,2.62-.17,1-.36.12.06.95.59-.24.84-.47.77-.24.36-.6,1-.83.48-.54.42-.24.6-.06.18-.6.65-.77,1.31-1.07.13,0,.06-.08.29-.23.54-.18.6-.42.47-.12.36-.54.66-.35.47-.42.84-.84.06-.06.71-.23.36-.48h.36l.36-.66,1.43-.83.48-.6.48-.3.29-.42.66-.41.72-.42,0-.06.9-.06,1.07.24.66.59.18.42.12,1,1.25,3.64-.18.89-.18.36-.83,1-.36.48-.48.3-.3.6-.47.35-.24.48-.24.6-.66.18-.06.83-.89,1.43-.3.78-.3.54.12.3.12.05.24.06,1.13-.11.42.11.54-.41,1.13-.3.54-.36.83-.3,1.38-.95,1-.6.59-.48,1.08-.77.36-.48.28-.19.3-1.12.24-.24.17-.66.36-.47.48-.84.24-.6.24-.29.47-.3.6-.36.12-.3.12-.59v-.12l.24-.18.6-.36,1.25-1.08,1.49-.59.89-.54.42.06h.18l.77-.18.54-.18,1.2-.06.65-.06.48.18,1.25.24.66.3.6.72.12.53-.18.78-.66,1.07-1.08.9-.59.18-.42.53-.48.24-.59.48-.78.06-.12.06-.24.3-.42.65h-.53l-.54.36-.12.42-.65.3-.78.65-.48.36-.59-.06-.18.36-.06.59-.42.12-.35.3-.36-.12-.6.6-.78.06-.12.66-.29,1.07.18.54.17.17.24.06,1.73-.06h.9l1.37-.59.66-.06h.65l.54-.66.6-.3.65-.11.3-.54.24-.18.24-.18.89-.24.54-.66.89-.35.54-.54.84-.24.53-.65.78-.54.36-.24h.23l.18.42.06-.84.78-.65.72-.3.35-.77.54-.3.42-.24h.06l.18.06.11.11.07.12Zm-15.58,2.39.24.06.54-.36,1.08-.41,1.25-1.08.47-.24.72-.59.42-.3.17-.36.48-.12.42-.54.36-.3.71-.47-.17-.3-.3-.12-.72.24-.83.12-.54.3-1.07.41-.72.54-1.07.78-.3.24-.12.17-.36.9-.47.77Zm-102.05,0,.24.06.53-.36,1.08-.41,1.25-1.08.48-.24.71-.59.42-.3.18-.36.48-.12.42-.54.35-.3.72-.47-.18-.3-.3-.12-.72.24-.83.12-.54.3-1.07.41-.72.54-1.07.78-.3.24-.12.17-.36.9-.47.77Zm25.43-2.74-.6.17h-.9l-1.79-.29-.12.06-.65.3-1.26.35-1.78,1-.6.23-.48.48-1.67,1.25-.29.6-.72.72-.24.53-.78.42-.23.9-.54.77-.06.36v.24l.06.78.12.23.12.06.3.06,1.25-.42,2.92-1.61.36-.47,2.68-1.61.48-.48.3-.18.12-.42,1.25-.89.24-.54.48-.36,1-1,.54-.54ZM93.14,246h2.55v9.48h1.82V246h2.58V244.3h-7Zm81.14-1.73h-2.49l-4,4.08V244.3h-1.82v11.21h1.82v-4.66l4.16,4.66h2.49l-5.41-6Zm-12.81,5.62a5.83,5.83,0,1,1-5.83-5.8A5.8,5.8,0,0,1,161.47,249.92Zm-1.81,0a4,4,0,1,0-4,4.05A4,4,0,0,0,159.66,249.91ZM16.47,181.7l.89-2,.72-.89.42-.78.35-.48.12-1.13.6-.18.29-.36.43-.18.77-1.13.36-.36.47-1.25.54-.78.42-.41.54-.24.71-1.14,2-1.55.48-.77-.18-.6-.3-.77.06-.18.12-.18.48-.24,1.19-.12.59-.12.72.06.89-.06.42.06,1.8.12.59-.18h.72l1-.06,1,.42.65.24.3.42.3.29.53.12h.54l.89-.06.48-.24.84-.36.12,0,.06-.12.24-1.55-.36-1.26-.48-.59-.9-.24-.77.06-.9-.06-1.72.24-.6-.06-.36.17h-.12l-.71,0L31,163.5l-1.61-.17-.84.29L26,163.56l-.95.3H23.8l-.59.3-.42-.06-.24.12-1.13.12-.66.24-1.19.06-.78.18-.89-.06-.66.47-.65.06-.42.18-.78-.06-.83.54-.66-.06-.48.18-3.16,1-.59.48-1.2.36-.6.36-.41.11-1,.48-.77-.06-.48.42-.54.24-.83.48L2,170.48l-.48.18L.6,172l-.42.78-.18.3v.53l.18.84.6.6.53.12h.12l.42-.54.66-.66.65-1,1.37-.72.66-.71.84.12.41-.48L7,171l1.43-.72.6-.06,1.25-.59,1.43-.18,1-.72.77.12,1.79-.77,1.73-.3.6-.36.71-.06.66.12.48-.48h.59l1.26-.36.59.12,1.2-.29h.65l-.29.47-.72.3-.24.72-.18.17-.54.54-.53.66-1.25,1.13-.9,1.32-1.31,1.49-.3.6-1.25,1.25-.42,1.55L15,177l-.53.66-1.14,1.73-1,1.25-.54,1.32-1.07,1.13-.3.72-.77,1v1.13l-1,1L7,190l-.36.48-.12.89v.42l-1.13,2-.54,1.61-.11,1-.6,2.45-.06.6.06.65.3.78L4.83,202l.3.42,1,.77,1.5.3.65-.12.3-.18.3-.42.24-.83.3-.72.06-.29-.06-.3-.3-.9-.06-.06.66-1.91.77-3.58,1.07-1.79.66-2,.72-1.91.06-.9.53-.3.42-.41.24-1,.12-1.25.83-1,.66-1Zm113.71,70.55c0,2-1.53,3.26-4.1,3.26h-2.77V244.3h2.06c2.48,0,3.84,1.13,3.84,3.18a2.71,2.71,0,0,1-.72,2A3.05,3.05,0,0,1,130.18,252.25ZM125.12,249h.13c1.46,0,2.15-.22,2.15-1.48s-.63-1.45-2.13-1.45h-.15Zm3.25,3.2c0-1.08-.78-1.56-2.54-1.56h-.71v3.18H126C128.12,253.78,128.37,252.86,128.37,252.16Zm119.68-46.3-.18,1.19-.3.3-.23.06-.12-.06-.6-.3-.66-.42-.12-.12-.65-1.31-.3-.59h-.6l-.54-.24-.65.11-.54-.17-.89.23H240.6l-.72.3-1.25.3-.78.36-.18.54-.29.71-.54.66-.3.89L236,209l-.24.48-.29.53-.18,1.26-.42.59-.42.48-.06.6-.42.29.07.66-1,1.43-.24.48-.35.18.23.59-.36.54-.23.66-1.68,2.33-.17.71-.36.42-1.25,1.73-.54.36.12.53-.36.78-.54.06-.24.3.06.65-.17.18-.36.24-.66.06.06.65-.6.48-.71.9-.6.41-1,.24-.48-.06-1.85-1.07-1.07-.78-.24-.29-.24-1-.06-1.25v-.18l.36-.6v-.77l.3-.78.18-.77.54-.72.77-1.79.71-1,1.56-2.51.65-.89.12-.42.48-.06.3-.54.23-.65.78-.66.9-1.37.77-.36.3-.6,1.61-1.13.42-.47.47-.07.42-.71.78-.3.06-.54.12-.24L233,206l.6-.36.47-.66.24-.71.54.06.12-.12-.12-.66.18-.65.24-.6.65-.54-.06-.6.06-.71.24-.48.18-.77.54-.54.06-.72.24-.77.65-1.55.36-1.2.3-.47.12-.48v-.6l-1,.66-.77-.12-.72.54-.41.12-.3.41-1.08.6-.36-.36-.29.06-.3.72-.24.18-.48.11H232l-.24.54-.3.36-.18.12-1.31.6-1.25,1-1.38.59-.65.42-1.2.24-.41.6-1-.06-1,.24-.48-.24-1-.78-.36-.47-.06-.18V198l-.18-.59.36-.9.06-.89.48-1.67.23-.54-.12-.18-.53.42-.3.6-.72.77-.14.12-.15.65-.41.36-1.26,1.32-.54.17-.65,1-.72.24-.36.36-.59.17-.3.54-.89.36-1.5.48-.65-.12-.54-.3-.54-.12-.35-.77-.42-.66v-.42l.12-.66-.3-.29.06-.66-.06-.78v-.06l.06-.41.12-.66-.12-.18-.6.48-.65.18-.36.89-.54.36-.24.3-.59.3-.54.42-.48.05-.3.54-.29.36-2.15,1.61-.72.71-.89.54-2.45,1.43-1.07.19-1.67-.42-1-.72-.17-.3-.24-.95-.36-.9V199l.06-.54v-.89l.24-.42h.3l-.12-.66.23-.54,1.26-1.79.12-.41.77-.72.48-.71,1-.78,1.08-1.13,1.91-1.26,1.72-1.19,1-.42,1-.59,1.36-.42,1-.42.6.3.53-.3h.18l.66.18,1,.78.24.65.12.78.3.65.48-.41.59-.9.72-.6,1.19-.29.72.18.47.41.18,1-.24,1.37-.77,1.55-.72,1-.65,1.91-.3.48v1l-.06,1,.06.36.12.12.18.06.18-.06.41-.24,1-1,.59-.35,1-1,.3-.06.47-.77.88-.55.13-.17.16-.13.44-.53.48-.41.24-.06h0l.43-.49.66-.36.3-.53,2-1.61,2-1.68.48-.29.6-.12.83.24.36.35.12,1-.24,1.31-.6,1-.3.89-1.19,1.91-.59,1.25-.66,1.61.06.24.12.12.24.06h.18l.29-.12.9-.54,1.25-.59.48-.54,2.33-1,.41-.6.42-.18.54-.54.65-.12.48-.24.3-.29.54-.6,1.78-1.07,2.81-2,.71-.3,1-.66.89-.24,1.2.36.83.72.18,1-.06,1.32-.24,1.07-.48,1.07-.17,1-.18.54V195l-.72.54.18.71-.06.3-.12.24-.36.48-.12.89-.41.89-.48.72-.66,2.09-.35.72-.42.95.71-.12.36.06.84-.36.65-.11,1.43-.3h1.19l.54-.06.78.17,1,.24.9.48.84.66Zm-36.91-15.33-.6.17h-.9l-1.79-.29-.12.06-.65.3-1.25.35-1.79,1-.6.23-.48.48-1.67,1.25-.3.6-.71.72L200,196l-.77.42-.25.9-.53.77-.06.36v.24l.06.78.12.23.12.06.29.06,1.26-.42,2.92-1.61.36-.47,2.68-1.61.48-.48.3-.18.12-.42,1.25-.89.24-.54.48-.36,1-1,.54-.54Zm21.11,18.67-.12-.54-.54.42-1.13.89-.78.6-.84,1.07-1.61,1.49-.59,1.08-.06.06h-.66l-.18.29.18.66-.48.42-.17.65-.54.36-.48.84-.53.3-.07.71-.11.78-1.2,2-.18.54-.18.35-.11.84-.48.3-.12.29.35.36-.29,1v.83l1-.48.72-.59.48-.36.18-.6.29-.41.48-.3.24-.6.59-.24.18-.84.72-1.07.24-.53.89-1.32.48-1.07.36-.36.36-1.13.42-.54.05-.59.54-.6.42-.78.48-.77.71-1.2.18-.71Zm-31.19,6.17h-2v11.31h5.25v-1.92h-3.22Zm-182,20.24H198v-1.42H19.05Zm126.84,14.31a5.83,5.83,0,1,1-5.83-5.8A5.8,5.8,0,0,1,145.89,249.92Zm-1.81,0a4,4,0,1,0-4,4.05A4,4,0,0,0,144.08,249.91Zm-80.77-2.32a3.25,3.25,0,0,1-1.13,2.52,4.1,4.1,0,0,1-2.71.77h-.53v4.63H57.12V244.3h2.06a4.71,4.71,0,0,1,2.8.62A3.24,3.24,0,0,1,63.31,247.59Zm-1.82,0c0-1.3-.82-1.54-2.44-1.54h-.11v3.12h.46C60.85,249.15,61.49,248.66,61.49,247.57Zm-11.68,1.27-.71-.31c-.83-.37-1.46-.71-1.46-1.36a1.36,1.36,0,0,1,1.44-1.32,1.62,1.62,0,0,1,1.54,1l.17.29,1.47-.94-.14-.26a3.34,3.34,0,0,0-3-1.81,3.08,3.08,0,0,0-3.27,3c0,1.72,1.23,2.42,2.49,3l.69.3c1.06.48,1.71.83,1.71,1.79A1.8,1.8,0,0,1,48.87,254a1.85,1.85,0,0,1-1.8-1.69l-.06-.36-1.78.5.06.29a3.65,3.65,0,0,0,7.24-.59C52.53,250.2,51.19,249.45,49.81,248.84ZM24.46,226.11l.17-.11v-2.54L24,224a3.82,3.82,0,0,1-6.4-2.95,3.92,3.92,0,0,1,3.84-4,4,4,0,0,1,2.57,1l.58.52V216l-.17-.1a5.45,5.45,0,0,0-2.85-.77,5.88,5.88,0,1,0-.12,11.76A6.1,6.1,0,0,0,24.46,226.11Zm83.72,22.73-.71-.31c-.83-.37-1.46-.71-1.46-1.36a1.36,1.36,0,0,1,1.44-1.32,1.62,1.62,0,0,1,1.54,1l.17.29,1.47-.94-.14-.26a3.34,3.34,0,0,0-3-1.81,3.08,3.08,0,0,0-3.27,3c0,1.72,1.23,2.42,2.49,3l.69.3c1.06.48,1.71.83,1.71,1.79a1.8,1.8,0,0,1-1.85,1.74,1.85,1.85,0,0,1-1.8-1.69l-.06-.36-1.78.5.06.29a3.65,3.65,0,0,0,7.24-.59C110.9,250.2,109.56,249.45,108.18,248.84Zm-29.39,1.08a5.83,5.83,0,1,1-5.83-5.8A5.8,5.8,0,0,1,78.79,249.92Zm-1.81,0A4,4,0,1,0,73,254,4,4,0,0,0,77,249.91ZM96.48,88.45l-.06.28.31-.38c.19-.17-.72-.36-.89-.63-.08,0,.63,0,.46-.13s-.51-.35-.52-.54.62-.24.45-.32-1.16-.66-1.11-.37c.12.45.32.73.46,1.13ZM86.87,250.69l3.43,4.82H88.07l-3-4.36v4.36H83.25V244.3H85.1c2.78,0,4.18,1.09,4.18,3.24A3,3,0,0,1,86.87,250.69Zm-1.76-1.49c1.68,0,2.36-.46,2.36-1.58,0-1.34-.8-1.59-2.37-1.59h0v3.17Zm23.1-198c.45-.77-.58-2-.52-3.37-.07-.22.89,0,.76-.42a9.32,9.32,0,0,1-.12-2.82c-.12-.47,1.1-.89,1-1.35-.06-1-.74-3.86-1-2.37-.36,2.26-.46,3.82-.69,5.78,0,1.63.22,3.26.18,4.91a4.85,4.85,0,0,1-.44,1.21Zm8.59,7.4c0-.07,0,.44.12.33s.3-.39.46-.39.21.44.28.32.58-.85.32-.81-.64.24-1,.35l-.82.67-.24,0,.32.22C116.41,59.4,116.57,58.74,116.8,58.62Zm.28,1.92-.19,0A.13.13,0,0,0,117.08,60.54ZM129,73.78ZM116.89,60.57l-.11-.14v.21h0Zm-2.08-.34c.18.36.35.21.52.06l-.09-.25c-.09,0-.1.17,0,.28-.21-.3-.41-.34-.6-.28a.74.74,0,0,0,.07.36Zm17.53,60.7c0,1.1.6,4.12.95,2.56.44-2.38.61-4,.91-6.1,0-1.73-.09-3.46,0-5.2a5.29,5.29,0,0,1,.48-1.28l-1,1.63c-.48.8.5,2.18.39,3.59.06.24-.89-.06-.77.42a10.7,10.7,0,0,1,0,3C133.47,120.05,132.24,120.45,132.34,120.93Zm-16-60.28.21,0-.11-.18C116.35,60.43,116.33,60.55,116.3,60.65ZM114.63,60v0l-.11.08h0Zm2.12.65,0,0-.07,0Zm14.31,42.53.09-.06h-.05ZM146.46,72c.08,0-.6,0-.45.12s.49.37.5.56-.6.23-.45.31,1.11.7,1.07.4a12.13,12.13,0,0,0-.42-1.16l-.84-1,.06-.28-.31.37C145.44,71.53,146.31,71.75,146.46,72Zm14.68-41.24c.67.46.85.5.4.09a6.9,6.9,0,0,0-1.67-1.15A5.78,5.78,0,0,0,161.14,30.78Zm-9.31-5.92a8.27,8.27,0,0,0-1.92-.91c-.38-.09.17.24,1.23.75S152.51,25.27,151.83,24.86Zm-54,65.53h0l-.06-.14h-.06Zm32.91,13,.23,0C130.87,103.27,130.8,103.27,130.7,103.35Zm.22,2.78c0,.08,0-.66-.11-.49s-.37.53-.56.53c-.08.17-.22-.65-.3-.49s-.71,1.2-.41,1.16c.45-.11.75-.31,1.15-.44l1-.91.27.07-.36-.34C131.42,105,131.19,106,130.92,106.13Zm12.8-34.3v0l.06,0ZM98.63,88.33l0-.26-.25.14C98.33,88.26,98.49,88.29,98.63,88.33Zm71.1-49.84c.16.08.29.14.28.11a2.66,2.66,0,0,0-.46-.39C169.29,38,169.57,38.41,169.73,38.49ZM98.49,87.41l0,.22C98.58,87.57,98.58,87.49,98.49,87.41ZM62.67,42.31c0,.4.82-.07,1.47-1.78l.43-2-.31,1.34A5.39,5.39,0,0,0,62.67,42.31Zm36,45.49-.06,0,.05.08ZM98,90.05c.5-.2.3-.41.1-.61l-.35.1c0,.11.24.13.39,0-.42.24-.48.46-.4.69a1.13,1.13,0,0,0,.5-.08Zm.62-2.29-.1-.13-.2.13Zm12.46-37.07-.47.51c-.16.23,0,.41.17.65Zm.34-1.29-.05-.2v.4Zm0-.84a2.13,2.13,0,0,0,.18-1.06A3.28,3.28,0,0,0,111.39,48.56Zm0,.63h0v-.64l-.4.53C111.16,49,111.32,49,111.38,49.19Zm5,27.05,0,.13,0-.05Zm-3.83,1.21.51-.94c.41-.33-.83-1.19-.76-2.14-.06-.18,1,.3.82,0a2.34,2.34,0,0,1,.2-1.79c0-.38,1.2.11,1.15-.22,0-.65.61-2.69-.2-2.11-1.19,1-1.46,2.16-2.06,3.27a10.17,10.17,0,0,0,.44,3.21A1.45,1.45,0,0,1,112.5,77.45ZM110,83c2.13-2.55-.26-3.11,3.71-4.78.26-.11,5-1.75,7.06-.15.11.48.3,1.15.45,1.86.66-.06,1.32-.1,2-.12l-.08-.14a9.41,9.41,0,0,1-1-5.71c.08,0,.08-.31.09-.63l-.13-.07,0-.12v.1L122,73.2c0-.56-.27-.5-.52-.43l-.21.08-1-.17.07-.1,0,0h0l.19-.12s0,0,0,0l.14-.08-.19.06-.24-.31a.53.53,0,0,1,0,.46h0l-.15.09-.43-.07-.3-.37c-.12-.09-.14.17-.17.4a5.08,5.08,0,0,0-2.85,1.22,13.42,13.42,0,0,1-1.47-.22l.14-.3c.24.17.51.41.7.41l-.09-.48c.88.31,1-.09,1.19-.61l-.48-.35c-.2.21,0,.46.3.54-.82-.27-1.41,0-1.62.49l-.09-.06a11.85,11.85,0,0,1,1.51-3.21l.32-.4a1.59,1.59,0,0,1,.68-.14l1.2.19c.51.12,1-1.21,1.92-1.49.14-.12.08,1,.35.75.63-.31,1.29-.77,1.87-.56.35-.16.42,1.15.73,1l2.13-1.31.18.08h0c1.37,2.52,2.16,4,2.6,4.81,0-.1,0,0,.25.44h0v0l0,.09-.13.19c-.09.14-.17.3-.08.44.42.33,1.88.56,1.93,1,.26,1.06,1.39,1.9,2.36,2.6l0,0h0c-.18.35-.35.67-.51,1a4.2,4.2,0,0,1,.75,1.52c.44,1.45-3.2,8.75-5.12,7.88l-.25-.14c-.29.59-.53,1-.71,1.41h0c-.47.92-.93,1.86,0,0h0l-.06,0-.11,0-.22,0-.46.07c-.32,0-.78,0-1.56-.12-.49.1-.91.51-1.55.54-1.25,0-2.33,1.27-3.72,2.15l-1.2.57-.63.18-.16,0h-.07l-1.51-.87-1.23.1c-1.53.15-1.11.31-2.26-.54a13.8,13.8,0,0,1-2-1.72,2.9,2.9,0,0,1-.45-1.27l-1.55-.9h0l0-.06.06-.24a3.93,3.93,0,0,1,1.75-1.93C112.83,83.84,111.21,81.34,110,83Zm13.09-9.66a1.91,1.91,0,0,0-.38.18.24.24,0,0,1,0,.08l-.07,0c-.31.2-.45.45-.09.7C123.14,74,123.33,73.66,123.12,73.38Zm4,16.12c.92-1.84.46-.93,0,0Z"/></g></g></svg>