<svg xmlns="http://www.w3.org/2000/svg" viewBox="0 0 397.19 253.05"><defs><style>.cls-1{fill:#286FB7;}</style></defs><g id="Layer_2" data-name="Layer 2"><g id="Capa_1" data-name="Capa 1"><path class="cls-1" d="M396.2,82.63c-3.75-4.06-16.85-24.9-16.85-24.9s-10.24-17.68-13.88-22.55c-6-8.08-22.63-21.62-22.63-21.62l-1,17.37s-5.41-.51-20.54,9.17c-6.32,4-16.48,18.66-16.48,18.66S297.62,62.62,291,58s-13.52-13.3-12.24-18.4c2-8,7.08-10.52,7.08-10.52s2,8.23,7.7,9S306.07,26.3,306.07,26.3l19.14,2.32L308.79,18S311.1,5.58,297.45,1c-15.37-5.17-19.9,11.56-19.9,11.56S230.76,5.9,219.27,8.46C208.63,10.82,191,17.28,194.73,28.9s33.6,33.37,38.58,35-2.71,14.64-6.58,13.53S207.18,69,198.59,65.2c-12.67-5.52-12.35,5.27.43,10.9,10,4.39.35,4.82-10.14,2.57S166,72.48,146.25,75.61c-17.59,2.78-26.31,21.5-26.31,21.5s-18.25-4.42-29.31,5S66.16,125.28,49,116.27,0,85.63,0,85.63s14.55,23.49,22,30.13,28.66,16.87,35.5,21.17,3,6.93-2.22,5S19.1,121.56,19.1,121.56l15.83,17.11s17.17,16.57,26.35,16.92,17-6.84,24.45-13.09,9.37-12.69,17.07-23.32,13.83-8.68,13.83-8.68a20.57,20.57,0,0,0-.38,20.13c5.36,10,22.5,24.54,22.5,24.54s-11.83,12.52-14.94,15.63-2.2,7.91,2.78,11.79S162,197.76,162,197.76l2.15,6.4s12.73,14.39,27.66,23.79S209,244.76,209,244.76h7.18l1.11,6.08,17.7,2.21s-7.68-10-12.1-15c-4.18-4.71-13.94-14-16.5-15,2.39.27,12.24,1.09,19,1.82,8.3.89,31.91-2,31.91-2s15.82.81,15.27-9.66,2.1-34.44,2.1-34.44,38.6,7.7,38,15.44-26.87,25.68-26.87,25.68l-6.63-2.77s-12.17,14.38-7.75,18.25,28.62-7.07,28.62-7.07,23.32-25.2,27.19-28,1.78-11.7-3.58-18.26-24.58-18.6-24.58-18.6,14.54-6.37,19.41-25.87c1.53-6.12-2.23-16.29,5.94-31.61,7.35-13.79,11.07-22.43,14.86-24.53s6.8.72,15.09,2.38,19.12,9,19.12,9,.4,3.82,4.83,7.69,15.54-3.43,15.54-3.43S399.37,86.06,396.2,82.63ZM150.56,174.85s-2.62-9.37,4.77-8.08S161,183,161,183Zm103.92,36.34c-4.09,2.3-42.13-1-42.13-1L207,202s-4.65-5.71-6.9-1.53-6.38,10.47-6.38,10.47a35.39,35.39,0,0,1-10-14c-3.09-8.57,5-43,5-43s33.09,20.73,58.07,18.48C262.62,171,258.56,208.9,254.48,211.19Zm10-130.77s3.17-.79,1.17-7.2S253,75,252,76.24l-.07.09c.36-.49,6.59-9.24,4.24-14.38-2.57-5.62-15.09-18.47-15.09-18.47s16.38,1,18,4.82,14.13,23.77,24.09,23.45S264.53,80.42,264.53,80.42Z"/></g></g></svg>