<svg xmlns="http://www.w3.org/2000/svg" viewBox="0 0 43.91 43.91"><defs><style>.cls-1{fill:#FF8C03;}</style></defs><g id="Layer_2" data-name="Layer 2"><g id="Layer_1-2" data-name="Layer 1"><path class="cls-1" d="M22,13.12A8.84,8.84,0,1,0,30.8,22,8.84,8.84,0,0,0,22,13.12Zm0,15.4A6.57,6.57,0,1,1,28.52,22,6.57,6.57,0,0,1,22,28.52Z"/><path class="cls-1" d="M22,9A13,13,0,1,0,35,22,13,13,0,0,0,22,9ZM22,32.8A10.84,10.84,0,1,1,32.8,22,10.86,10.86,0,0,1,22,32.8Z"/><path class="cls-1" d="M22,0A22,22,0,1,0,43.91,22,22,22,0,0,0,22,0Zm0,38.64A16.68,16.68,0,1,1,38.64,22,16.7,16.7,0,0,1,22,38.64Z"/></g></g></svg>