<svg xmlns="http://www.w3.org/2000/svg" viewBox="0 0 28.28 33.8"><defs><style>.cls-1{fill:#00a9e0;}</style></defs><g id="Layer_2" data-name="Layer 2"><g id="Layer_1-2" data-name="Layer 1"><path class="cls-1" d="M17.67,18.58H7a.82.82,0,0,0-.77.85v.72a1.21,1.21,0,0,0,0,.19.85.85,0,0,0,.95.75H17.75a.83.83,0,0,0,.8-.87c0-.25,0-.51,0-.77v-.07A.85.85,0,0,0,17.67,18.58Z"/><path class="cls-1" d="M7,14.83h4.47a.83.83,0,0,0,.85-.78c0-.31,0-.62,0-.92v0a.83.83,0,0,0-.86-.8H7A.77.77,0,0,0,6.2,13a6.49,6.49,0,0,0,0,1.08A.81.81,0,0,0,7,14.83Z"/><path class="cls-1" d="M28.28,7.15A7.15,7.15,0,0,0,14.43,4.67H.78a.83.83,0,0,0-.78.9V18.45c0,.75,0,1.49,0,2.22v10.7a.85.85,0,0,0,.34.74l2.27,1.54a.81.81,0,0,0,1,0l2.1-1.41a.83.83,0,0,1,1.05,0l2.08,1.41a.81.81,0,0,0,1,0l2.1-1.43a.84.84,0,0,1,1,0l2.08,1.42a.83.83,0,0,0,1,0L18,32.23a.8.8,0,0,1,1,0l2.05,1.39a.86.86,0,0,0,1,0c.69-.46,1.38-.94,2.08-1.39a1.11,1.11,0,0,0,.51-1c0-1.82,0-3.64,0-5.45V13.33l-.05,0A7.14,7.14,0,0,0,28.28,7.15ZM22.1,30.61c-.48.32-.47.32-.94,0a10.11,10.11,0,0,0-1.33-.82,3.13,3.13,0,0,0-3.2.35c-.35.23-.7.46-1,.7a.21.21,0,0,1-.28,0,15.91,15.91,0,0,0-1.39-.92,3.18,3.18,0,0,0-3.52.24c-.33.23-.68.45-1,.68a.2.2,0,0,1-.27,0c-.37-.25-.74-.52-1.13-.76a3.19,3.19,0,0,0-3.67,0c-.37.24-.73.5-1.1.75-.1.07-.17.05-.28,0a.83.83,0,0,1-.48-.9q0-11.24,0-22.46V7.18a.74.74,0,0,0,.21,0H14a7.15,7.15,0,0,0,7.15,7.14,6.74,6.74,0,0,0,1.11-.09V24.33q0,3,0,6A.28.28,0,0,1,22.1,30.61Zm-1-19a4.49,4.49,0,1,1,4.49-4.49A4.5,4.5,0,0,1,21.13,11.64Z"/></g></g></svg>