<svg xmlns="http://www.w3.org/2000/svg" viewBox="0 0 81.81 64.13"><defs><style>.cls-1{fill:#12284c;}</style></defs><g id="Layer_2" data-name="Layer 2"><g id="Layer_1-2" data-name="Layer 1"><path class="cls-1" d="M24.54,18.46H10.93v-5H24.54Zm0,5.08H10.93v5H24.54ZM81.81,54.65,81,54c-.43-.35-10.6-8.13-21.67-8.3a7.41,7.41,0,0,1-.21-2.81,7.39,7.39,0,0,1,.62-.56,15,15,0,0,0,5.62-12.42c0-9.78-5.68-17.46-12.87-17.46a12.47,12.47,0,0,0-8.79,4,17.94,17.94,0,0,0-4.65,13.27,15.82,15.82,0,0,0,5,11.86A7.19,7.19,0,0,1,45.14,43a7.94,7.94,0,0,1,0,2.75c-10.46.49-21.83,8.23-22.32,8.58l-.93.64v9.18H81.75ZM26.1,57.24c2.83-1.84,12.14-7.31,20-7.31a3,3,0,0,0,2.4-1.41A10,10,0,0,0,49,41.25a8.53,8.53,0,0,0-2-2.64,11.84,11.84,0,0,1-3.69-9,13.66,13.66,0,0,1,3.47-10.14,8.3,8.3,0,0,1,5.62-2.73c4.76,0,8.58,5.9,8.58,13.17a10.72,10.72,0,0,1-4.16,9.2A5.25,5.25,0,0,0,55,41.44a9.62,9.62,0,0,0,.94,7A3.53,3.53,0,0,0,58.89,50c8.08,0,16,5,18.57,6.8v3.05H26.18ZM31,42H2.94A3,3,0,0,1,.06,39.55,2.51,2.51,0,0,1,0,39V3a2.51,2.51,0,0,1,.06-.55A3,3,0,0,1,2.94,0H31a3,3,0,0,1,3,3V39A3,3,0,0,1,31,42ZM29,5H5V37H29Z"/></g></g></svg>