<svg xmlns="http://www.w3.org/2000/svg" xmlns:xlink="http://www.w3.org/1999/xlink" viewBox="0 0 394.47 89.24"><defs><style>.cls-1{fill:url(#linear-gradient);}.cls-2{fill:#e44626;}.cls-3{fill:#008d80;}.cls-4{fill:#fff;}</style><linearGradient id="linear-gradient" x1="80.47" y1="16.79" x2="314.24" y2="16.79" gradientUnits="userSpaceOnUse"><stop offset="0" stop-color="#e44626"/><stop offset="0.07" stop-color="#e44626"/><stop offset="0.14" stop-color="#c05134"/><stop offset="0.29" stop-color="#86634b"/><stop offset="0.42" stop-color="#56725e"/><stop offset="0.55" stop-color="#317e6d"/><stop offset="0.67" stop-color="#168677"/><stop offset="0.78" stop-color="#068b7e"/><stop offset="0.86" stop-color="#008d80"/><stop offset="1" stop-color="#008d80"/></linearGradient></defs><g id="Layer_2" data-name="Layer 2"><g id="Layer_1-2" data-name="Layer 1"><path class="cls-1" d="M299,10.87c-1.63.14-3.13.41-3.67-.27s-4.08-4.76-4.76-5.43-2.45-2-3.53-1.77-3.4.13-5.17.95-7.75,3.81-10.06,4.89-6.93,3.81-8,3.54-2.17-.68-2.58-3.13,0-4.62-1.22-6a5,5,0,0,0-5.44-1.5,72.21,72.21,0,0,0-9.92,4.08c-1.24.73-6.79,3.54-8.15,4.22a40.19,40.19,0,0,1-8,2.58c-2,.27-7.48.54-9.52.13s-7.88-2.85-11.41-4.35-14.14-7.06-20-7.61A38.29,38.29,0,0,0,173.84,2a29.07,29.07,0,0,0-9.1,4.21,63.73,63.73,0,0,0-8.57,7.61c-1.49,1.63-3.53,4.08-3.53,4.08h-2.58V14.41h-3.81V10.74h-3.53V6.93h-3.4V3.67h-3.4V0h-3.26V3.26H129V6.79h-3.26V10.6H122.2v3.81h-3.67v3.8h-3.4V14.54H111.6v-3.8h-3.27V7.07h-3.67V3.67h-3.53V0H97.87V3.53H94.2V7.2H90.8v3.4H87.27v3.81H83.73l0,3.95H80.47V33.57h3.26V30.31h3.4V26.37h3.53V22.83h3.67V19.44h3.4V15.9h3.4V19h3.53V22.7h3.27v3.4s3.67-.55,3.67,0v3.8H115v3.67h3.67V30h3.4V26.1h3.4V22.56H129V18.89h3.26v-3.4h3.67v3.4h3.27v3.67h3.66v3.26h3.4V29.9h3.26v3.53h3.67s7.21-9.78,10.47-12.91,9.79-7.88,13-9.24,8.7-3,13-1.9a154.78,154.78,0,0,1,14.82,5c2.31.95,4.89,2,7.2,2.85a22.48,22.48,0,0,0,8.43,1.9A28.78,28.78,0,0,0,233,16.85c3.67-1.76,10.06-5.16,12.92-6.66s4.34-1.63,5.43-1.22,2.31,3,2.58,4.21a27.18,27.18,0,0,0,2.86,5.58c.68.95,3.12,1.49,4.21,1.22s13.45-6.25,14.82-6.66,8.83-3.81,10.05-4.08a3.46,3.46,0,0,1,3.54,1.09,22.1,22.1,0,0,0,3.94,3.4,4.94,4.94,0,0,0,3.94.27c1.36-.41,17-6.25,17-6.25S300.65,10.74,299,10.87Z"/><path class="cls-2" d="M62.51,84a3.87,3.87,0,0,1-.66,2.51,2.35,2.35,0,0,1-1.92.79,3.51,3.51,0,0,1-2.39-.86,3.69,3.69,0,0,1-1.17-2.94,4.18,4.18,0,0,1,1.18-3.07,3,3,0,0,1,2.18-1,2.17,2.17,0,0,1,1,.2,2.78,2.78,0,0,1,1,.86l.58-1.12h.06v3.45l-.09-.06a3.54,3.54,0,0,0-.85-2.46,2,2,0,0,0-1.49-.77,1.54,1.54,0,0,0-1.49,1A7.08,7.08,0,0,0,58,83.32a6.62,6.62,0,0,0,.49,2.86,1.59,1.59,0,0,0,1.5,1,2.23,2.23,0,0,0,1.74-.66A3.64,3.64,0,0,0,62.41,84Z"/><path class="cls-2" d="M70.92,84.34l-1.09-3-1.09,3Zm.06.13h-2.3l-.36,1a2.05,2.05,0,0,0-.15.69.67.67,0,0,0,.34.63,1.86,1.86,0,0,0,.94.19v.12h-3V87a1.49,1.49,0,0,0,1.28-.62A7.13,7.13,0,0,0,68.34,85l2-5.62h.23l2.58,7c.12.33.24.52.36.58A3.45,3.45,0,0,0,74.6,87v.12H70.2V87A8.2,8.2,0,0,0,71.43,87q.33-.07.33-.27l0-.12Z"/><path class="cls-2" d="M82.6,80.05c.46-.41.72-.64.78-.68V82l-.1,0a3.08,3.08,0,0,0-.87-1.75,2.21,2.21,0,0,0-1.6-.71,2,2,0,0,0-1.07.29,1.12,1.12,0,0,0-.56,1,1.21,1.21,0,0,0,.61,1,5.18,5.18,0,0,0,1.64.61,6.4,6.4,0,0,1,1.91.67,2.05,2.05,0,0,1,.74,1.79,2.24,2.24,0,0,1-.76,1.82,2.31,2.31,0,0,1-1.57.55A3.31,3.31,0,0,1,80.5,87a2.3,2.3,0,0,1-1-.75l-.75,1V84h.09a7.57,7.57,0,0,0,.52,1.64,3.09,3.09,0,0,0,.55.87,2.39,2.39,0,0,0,1.84.68,1.59,1.59,0,0,0,1-.37,1.29,1.29,0,0,0,.53-1.07,1.4,1.4,0,0,0-.72-1.24,7.5,7.5,0,0,0-1.75-.64,5.86,5.86,0,0,1-1.73-.7,1.86,1.86,0,0,1-.71-1.57A2.09,2.09,0,0,1,79.09,80a2.13,2.13,0,0,1,1.55-.64,3,3,0,0,1,1.25.22,6.26,6.26,0,0,1,.71.46"/><path class="cls-2" d="M91.62,80.21v6.15a1.12,1.12,0,0,0,0,.45s.06.06.14.09a4.75,4.75,0,0,0,1.42.13v.12h-4.7V87c.34,0,.64,0,.89,0a3.05,3.05,0,0,0,.51-.09.38.38,0,0,0,.18-.13,1.19,1.19,0,0,0,0-.42V80.21a1,1,0,0,0-.05-.41s-.06-.07-.15-.1a4.8,4.8,0,0,0-1.42-.13v-.11h4.71v.11c-.34,0-.64,0-.89,0a2.48,2.48,0,0,0-.53.1l-.12,0a.79.79,0,0,0-.08.46"/><path class="cls-2" d="M104.1,84.79V81.47a2.2,2.2,0,0,0-.37-1.49,1.71,1.71,0,0,0-1.33-.41v-.11h3.39v.11a1.42,1.42,0,0,0-1.18.41,2.34,2.34,0,0,0-.34,1.49V87.2H104l-4.73-6.3-.13-.15s0,.07,0,.21v3.9a2.87,2.87,0,0,0,.36,1.74,1.66,1.66,0,0,0,1.33.43v.12H97.29V87a1.66,1.66,0,0,0,1.28-.38,2.36,2.36,0,0,0,.35-1.51V81.08A1.5,1.5,0,0,0,98.56,80a1.68,1.68,0,0,0-1.27-.45v-.11h2.47l4.12,5.37c.1.13.16.2.19.2s0-.08,0-.24"/><path class="cls-2" d="M114.84,83.31a6.33,6.33,0,0,0-.51-2.86,1.65,1.65,0,0,0-3,0,8.4,8.4,0,0,0,0,5.71,1.64,1.64,0,0,0,3,0,6.35,6.35,0,0,0,.52-2.85m1.58,0a3.89,3.89,0,0,1-1.18,2.91,3.36,3.36,0,0,1-2.42,1.05,3.4,3.4,0,0,1-2.42-1,3.91,3.91,0,0,1-1.18-3,3.87,3.87,0,0,1,1.18-2.9,3.4,3.4,0,0,1,4.84,0,3.84,3.84,0,0,1,1.18,2.94"/><path class="cls-2" d="M124.7,80.05l.77-.68V82l-.09,0a3.08,3.08,0,0,0-.87-1.75,2.21,2.21,0,0,0-1.6-.71,2,2,0,0,0-1.07.29,1.11,1.11,0,0,0-.56,1,1.22,1.22,0,0,0,.6,1,5.36,5.36,0,0,0,1.65.61,6.4,6.4,0,0,1,1.91.67,2.08,2.08,0,0,1,.74,1.79,2.24,2.24,0,0,1-.77,1.82,2.31,2.31,0,0,1-1.56.55A3.24,3.24,0,0,1,122.6,87a2.32,2.32,0,0,1-1-.75c-.47.63-.72,1-.75,1V84h.1a8.23,8.23,0,0,0,.51,1.64,3.35,3.35,0,0,0,.56.87,2.36,2.36,0,0,0,1.84.68,1.58,1.58,0,0,0,1-.37,1.3,1.3,0,0,0,.54-1.07,1.39,1.39,0,0,0-.73-1.24,7.2,7.2,0,0,0-1.74-.64,5.74,5.74,0,0,1-1.73-.7,1.83,1.83,0,0,1-.71-1.57,2.05,2.05,0,0,1,.65-1.55,2.11,2.11,0,0,1,1.55-.64,3,3,0,0,1,1.25.22,6.26,6.26,0,0,1,.71.46"/><path class="cls-2" d="M136.9,81.89a1.3,1.3,0,0,0,.67-.61,2.08,2.08,0,0,0,.16-.89,1,1,0,0,0-.17-.58.54.54,0,0,0-.47-.24.74.74,0,0,0-.62.26.86.86,0,0,0-.22.58.79.79,0,0,0,.1.42Zm.71,3.82-1.71-3.34a1.59,1.59,0,0,0-.69.36,1.76,1.76,0,0,0-.43.93,2,2,0,0,0-.05.52,3.3,3.3,0,0,0,.13.95,3,3,0,0,0,.39.82,2.76,2.76,0,0,0,.6.68,1,1,0,0,0,.58.22.85.85,0,0,0,.61-.29,3.67,3.67,0,0,0,.57-.85m1.44.35a1,1,0,0,0,.38.45.89.89,0,0,0,.44.1.52.52,0,0,0,.53-.45,6.19,6.19,0,0,0,.13-1.54h.16a6.59,6.59,0,0,1-.17,1.89,1.29,1.29,0,0,1-1.36.75,1.26,1.26,0,0,1-1-.65,8.4,8.4,0,0,1-.42-.74,2.79,2.79,0,0,1-.84,1,2.63,2.63,0,0,1-1.48.34,1.29,1.29,0,0,1-1-.55,2.23,2.23,0,0,1-.49-1.47,3.21,3.21,0,0,1,.06-.63,3.25,3.25,0,0,1,.22-.67,3.54,3.54,0,0,1,.76-1.15,2,2,0,0,1,.93-.53,2.18,2.18,0,0,1-.21-.52,2,2,0,0,1,.31-1.75,1.22,1.22,0,0,1,1-.53,1.36,1.36,0,0,1,.91.29,1,1,0,0,1,.34.81,1.2,1.2,0,0,1-.39.87,2.47,2.47,0,0,1-.87.56l1.33,2.55.73-1.31a1.56,1.56,0,0,0,.23-.61.36.36,0,0,0-.3-.35,4,4,0,0,0-1-.09v-.12h2.89v.12a2,2,0,0,0-.88.18,1.41,1.41,0,0,0-.6.61l-1,1.77Z"/><path class="cls-2" d="M154.58,86.36V83.28h-3.4v3.08a1.35,1.35,0,0,0,0,.45.39.39,0,0,0,.16.1,3.05,3.05,0,0,0,.51.09q.38,0,.87,0v.12H148.1V87c.34,0,.63,0,.88,0a3.24,3.24,0,0,0,.52-.09c.09,0,.15-.08.17-.13a1.1,1.1,0,0,0,.05-.42V80.24a1.13,1.13,0,0,0-.05-.43.31.31,0,0,0-.16-.1,3.18,3.18,0,0,0-.54-.09,5.91,5.91,0,0,0-.87-.05v-.11h4.68v.11a4.73,4.73,0,0,0-1.39.14.32.32,0,0,0-.15.1,1,1,0,0,0-.06.43v2.83h3.4V80.24a1,1,0,0,0-.06-.43s-.06-.07-.15-.1a3.18,3.18,0,0,0-.54-.09,5.94,5.94,0,0,0-.86-.05v-.11h4.69v.11c-.36,0-.65,0-.88,0a2.52,2.52,0,0,0-.54.11l-.11.05a.87.87,0,0,0-.08.48v6.12a1.12,1.12,0,0,0,0,.45s.06.06.14.09a4.75,4.75,0,0,0,1.42.13v.12H153V87a4.68,4.68,0,0,0,1.4-.13q.13,0,.15-.09a1.06,1.06,0,0,0,.05-.45"/><path class="cls-2" d="M167.28,83.31a6.35,6.35,0,0,0-.5-2.86,1.63,1.63,0,0,0-1.52-1,1.61,1.61,0,0,0-1.5,1,8.25,8.25,0,0,0,0,5.71,1.61,1.61,0,0,0,1.5,1,1.64,1.64,0,0,0,1.51-1,6.37,6.37,0,0,0,.51-2.85m1.59,0a3.89,3.89,0,0,1-1.18,2.91,3.37,3.37,0,0,1-4.84.05,3.91,3.91,0,0,1-1.18-3,3.87,3.87,0,0,1,1.18-2.9,3.38,3.38,0,0,1,2.42-1,3.43,3.43,0,0,1,2.42,1,3.84,3.84,0,0,1,1.18,2.94"/><path class="cls-2" d="M180,79.46v3.4h-.16a5.75,5.75,0,0,0-.88-2.68,1.71,1.71,0,0,0-1.44-.61.87.87,0,0,0-.26,0,.55.55,0,0,0-.05.31v6.46a1.35,1.35,0,0,0,.05.45s.07.06.17.1A3.18,3.18,0,0,0,178,87c.27,0,.64,0,1.1,0v.12h-5.19V87c.46,0,.82,0,1.09,0a3.58,3.58,0,0,0,.55-.09c.09,0,.16-.08.18-.13a1.19,1.19,0,0,0,0-.42V79.92c0-.21,0-.32-.07-.34h-.25a1.73,1.73,0,0,0-1.42.6,6,6,0,0,0-.89,2.66H173V79.46Z"/><path class="cls-2" d="M187.15,83.16v3.19a1.23,1.23,0,0,0,0,.42c0,.06.09.11.22.15a1.91,1.91,0,0,0,.44.08h.89a2.57,2.57,0,0,0,2.06-.81,4.71,4.71,0,0,0,.87-2.59h.16v3.54h-7.76V87a4.72,4.72,0,0,0,1.41-.13.3.3,0,0,0,.16-.12,1.15,1.15,0,0,0,0-.42V80.24a1.22,1.22,0,0,0,0-.43.31.31,0,0,0-.16-.1,3.18,3.18,0,0,0-.54-.09,6,6,0,0,0-.87-.05v-.11h7.36v3h-.15a3.6,3.6,0,0,0-.47-1.76,1.91,1.91,0,0,0-1.75-1.11h-.91a3.29,3.29,0,0,0-.81.12.28.28,0,0,0-.15.13,1.15,1.15,0,0,0,0,.42V83a2.81,2.81,0,0,0,1.53-.25,3.47,3.47,0,0,0,.63-2.05h.14v4.69h-.14a3.49,3.49,0,0,0-.62-2,2.73,2.73,0,0,0-1.54-.26"/><path class="cls-2" d="M200.85,87a2.74,2.74,0,0,0,2.2-.88,4,4,0,0,0,.76-2.66H204v3.68h-7.79V87c.34,0,.64,0,.89,0a3.05,3.05,0,0,0,.51-.09.38.38,0,0,0,.18-.13,1.51,1.51,0,0,0,0-.42V80.24a1.13,1.13,0,0,0,0-.43.31.31,0,0,0-.16-.1,3.18,3.18,0,0,0-.54-.09,5.91,5.91,0,0,0-.87-.05v-.11h4.9v.11q-.67,0-1,0a2.62,2.62,0,0,0-.53.1.42.42,0,0,0-.18.11,1,1,0,0,0-.06.43v6.11a1.24,1.24,0,0,0,.05.44.26.26,0,0,0,.15.1,5.5,5.5,0,0,0,1.4.12"/><path class="cls-2" d="M212.23,80.05l.77-.68V82l-.09,0a3.08,3.08,0,0,0-.87-1.75,2.21,2.21,0,0,0-1.6-.71,2,2,0,0,0-1.07.29,1.11,1.11,0,0,0-.56,1,1.22,1.22,0,0,0,.6,1,5.28,5.28,0,0,0,1.64.61,6.38,6.38,0,0,1,1.92.67,2.08,2.08,0,0,1,.74,1.79,2.24,2.24,0,0,1-.77,1.82,2.31,2.31,0,0,1-1.56.55,3.33,3.33,0,0,1-1.26-.23,2.3,2.3,0,0,1-1-.75c-.47.63-.72,1-.75,1V84h.1A8.23,8.23,0,0,0,209,85.6a3.35,3.35,0,0,0,.56.87,2.36,2.36,0,0,0,1.84.68,1.58,1.58,0,0,0,1-.37,1.3,1.3,0,0,0,.54-1.07,1.39,1.39,0,0,0-.73-1.24,7.2,7.2,0,0,0-1.74-.64,5.74,5.74,0,0,1-1.73-.7,1.83,1.83,0,0,1-.71-1.57,2.05,2.05,0,0,1,.65-1.55,2.11,2.11,0,0,1,1.55-.64,3,3,0,0,1,1.25.22,6.26,6.26,0,0,1,.71.46"/><path class="cls-3" d="M242.62,84a3.87,3.87,0,0,1-.66,2.51,2.34,2.34,0,0,1-1.91.79,3.51,3.51,0,0,1-2.4-.86,3.69,3.69,0,0,1-1.17-2.94,4.18,4.18,0,0,1,1.19-3.07,3,3,0,0,1,2.17-1,2.17,2.17,0,0,1,1,.2,2.7,2.7,0,0,1,1,.86l.58-1.12h.06v3.45l-.09-.06a3.49,3.49,0,0,0-.85-2.46,2,2,0,0,0-1.48-.77,1.55,1.55,0,0,0-1.5,1,7.1,7.1,0,0,0-.45,2.89,6.48,6.48,0,0,0,.49,2.86,1.58,1.58,0,0,0,1.49,1,2.27,2.27,0,0,0,1.75-.66,3.64,3.64,0,0,0,.73-2.53Z"/><path class="cls-3" d="M252.77,86.36V83.28h-3.4v3.08a1.35,1.35,0,0,0,0,.45.39.39,0,0,0,.16.1,3.05,3.05,0,0,0,.51.09q.38,0,.87,0v.12h-4.68V87c.35,0,.64,0,.89,0a3.47,3.47,0,0,0,.52-.09c.09,0,.15-.08.17-.13a1.1,1.1,0,0,0,0-.42V80.24a1.13,1.13,0,0,0,0-.43.31.31,0,0,0-.16-.1,3.18,3.18,0,0,0-.54-.09,6.05,6.05,0,0,0-.88-.05v-.11H251v.11a4.73,4.73,0,0,0-1.39.14.32.32,0,0,0-.15.1,1,1,0,0,0-.06.43v2.83h3.4V80.24a1,1,0,0,0-.06-.43.27.27,0,0,0-.15-.1,3.18,3.18,0,0,0-.54-.09,5.94,5.94,0,0,0-.86-.05v-.11h4.69v.11c-.36,0-.65,0-.88,0a2.52,2.52,0,0,0-.54.11l-.11.05a.87.87,0,0,0-.08.48v6.12a1.12,1.12,0,0,0,0,.45s.06.06.14.09a4.75,4.75,0,0,0,1.42.13v.12h-4.68V87a4.68,4.68,0,0,0,1.4-.13q.13,0,.15-.09a1.06,1.06,0,0,0,.05-.45"/><path class="cls-3" d="M265,83.31a6.35,6.35,0,0,0-.5-2.86,1.65,1.65,0,0,0-3,0,8.25,8.25,0,0,0,0,5.71,1.62,1.62,0,0,0,1.5,1,1.64,1.64,0,0,0,1.51-1,6.37,6.37,0,0,0,.51-2.85m1.59,0a3.89,3.89,0,0,1-1.18,2.91,3.37,3.37,0,0,1-4.84.05,3.91,3.91,0,0,1-1.18-3,3.87,3.87,0,0,1,1.18-2.9,3.38,3.38,0,0,1,2.42-1,3.43,3.43,0,0,1,2.42,1,3.84,3.84,0,0,1,1.18,2.94"/><path class="cls-3" d="M276.42,84a3.87,3.87,0,0,1-.66,2.51,2.35,2.35,0,0,1-1.92.79,3.51,3.51,0,0,1-2.39-.86,3.69,3.69,0,0,1-1.17-2.94,4.18,4.18,0,0,1,1.18-3.07,3,3,0,0,1,2.17-1,2.19,2.19,0,0,1,1,.2,2.78,2.78,0,0,1,1,.86l.58-1.12h.06v3.45l-.09-.06a3.54,3.54,0,0,0-.85-2.46,2,2,0,0,0-1.49-.77,1.54,1.54,0,0,0-1.49,1,6.91,6.91,0,0,0-.46,2.89,6.62,6.62,0,0,0,.49,2.86,1.59,1.59,0,0,0,1.5,1,2.23,2.23,0,0,0,1.74-.66,3.64,3.64,0,0,0,.73-2.53Z"/><path class="cls-3" d="M287.38,79.46v3.4h-.17a5.65,5.65,0,0,0-.87-2.68,1.74,1.74,0,0,0-1.44-.61.87.87,0,0,0-.26,0s-.05.13-.05.31v6.46a1.12,1.12,0,0,0,.05.45s.07.06.16.1a3.58,3.58,0,0,0,.55.09c.27,0,.64,0,1.1,0v.12h-5.19V87c.45,0,.81,0,1.09,0a3.18,3.18,0,0,0,.54-.09.37.37,0,0,0,.19-.13,1.19,1.19,0,0,0,0-.42V79.92c0-.21,0-.32-.07-.34h-.25a1.73,1.73,0,0,0-1.42.6,5.83,5.83,0,0,0-.9,2.66h-.16V79.46Z"/><path class="cls-3" d="M295.21,84.34l-1.09-3-1.09,3Zm.05.13H293l-.37,1a2.28,2.28,0,0,0-.14.69.68.68,0,0,0,.33.63,1.89,1.89,0,0,0,.94.19v.12h-3V87a1.48,1.48,0,0,0,1.28-.62,7,7,0,0,0,.65-1.43l2-5.62h.24l2.57,7c.12.33.24.52.36.58a3.53,3.53,0,0,0,1.08.09v.12h-4.4V87a8.13,8.13,0,0,0,1.22-.06c.23,0,.34-.14.34-.27l0-.12Z"/><path class="cls-3" d="M306.38,81.39l-1.51,5.81h-.4l-2.63-7c-.12-.33-.24-.52-.36-.58a3.18,3.18,0,0,0-1-.09v-.11h4.07v.11a3.92,3.92,0,0,0-1,.08c-.19,0-.28.15-.28.3a.71.71,0,0,0,.07.29l1.87,5,1.09-4.15-.25-.85c-.1-.32-.21-.51-.35-.58a3.51,3.51,0,0,0-1.05-.09v-.11h4.09v.11a4,4,0,0,0-1,.08.33.33,0,0,0-.28.32.86.86,0,0,0,.05.27l1.54,5,1.31-3.72a3,3,0,0,0,.21-1c0-.67-.48-1-1.43-1v-.11h3.07v.11a1.32,1.32,0,0,0-1.25.87c0,.09-.19.48-.44,1.17l-2,5.59h-.39Z"/><path class="cls-3" d="M313.19,89.08a2.19,2.19,0,0,0,1-1,1.66,1.66,0,0,0,.23-1,.51.51,0,0,1-.16.09.57.57,0,0,1-.18,0,.61.61,0,0,1-.42-.17.54.54,0,0,1-.18-.41.81.81,0,0,1,.2-.55.74.74,0,0,1,.56-.22.62.62,0,0,1,.52.26,1.24,1.24,0,0,1,.19.71,2.4,2.4,0,0,1-.35,1.32,3.08,3.08,0,0,1-1.32,1Z"/><path class="cls-3" d="M322.46,79.46l2,5.56,1.68-5.56h3.3v.11a4.73,4.73,0,0,0-1.43.14.24.24,0,0,0-.14.1,1,1,0,0,0-.07.43v6.12a1.27,1.27,0,0,0,.05.45.44.44,0,0,0,.18.1,3.28,3.28,0,0,0,.51.09q.38,0,.9,0v.12h-4.6V87c.28,0,.55,0,.79,0a3.09,3.09,0,0,0,.5-.09c.09,0,.15-.07.16-.1a1.35,1.35,0,0,0,.05-.45V79.87c0-.14,0-.21,0-.21s-.07.06-.11.18L324,87.15h-.26l-2.57-7.31-.09-.18s0,.07,0,.21v5a3,3,0,0,0,.35,1.75,1.69,1.69,0,0,0,1.33.42v.12h-3.37V87a1.42,1.42,0,0,0,1.18-.43,2.35,2.35,0,0,0,.34-1.46V81.45a2.44,2.44,0,0,0-.32-1.47,1.42,1.42,0,0,0-1.2-.41v-.12Z"/><path class="cls-3" d="M337.06,80.05l.77-.68V82l-.09,0a3.14,3.14,0,0,0-.87-1.75,2.22,2.22,0,0,0-1.6-.71,2,2,0,0,0-1.08.29,1.12,1.12,0,0,0-.56,1,1.23,1.23,0,0,0,.61,1,5.28,5.28,0,0,0,1.64.61,6.38,6.38,0,0,1,1.92.67,2.08,2.08,0,0,1,.74,1.79,2.24,2.24,0,0,1-.77,1.82,2.31,2.31,0,0,1-1.56.55A3.33,3.33,0,0,1,335,87a2.3,2.3,0,0,1-1-.75l-.75,1V84h.09a8.87,8.87,0,0,0,.52,1.64,3.11,3.11,0,0,0,.56.87,2.36,2.36,0,0,0,1.84.68,1.58,1.58,0,0,0,1-.37,1.3,1.3,0,0,0,.54-1.07,1.41,1.41,0,0,0-.73-1.24,7.2,7.2,0,0,0-1.74-.64,5.62,5.62,0,0,1-1.73-.7,1.84,1.84,0,0,1-.72-1.57,2.06,2.06,0,0,1,.66-1.55,2.11,2.11,0,0,1,1.54-.64,3.06,3.06,0,0,1,1.26.22,7.37,7.37,0,0,1,.71.46"/><rect class="cls-4" x="225.18" y="80.15" width="0.9" height="7.01"/><path class="cls-4" d="M6.1,55.35h.19a2.17,2.17,0,0,0,.85.26q.48,0,1,0h3.7a5.82,5.82,0,0,0,2-.29,4,4,0,0,0,1.35-.78,3,3,0,0,0,.77-1.12,3.71,3.71,0,0,0,.25-1.31,3.12,3.12,0,0,0-.4-1.61,3.29,3.29,0,0,0-1-1.07,4.27,4.27,0,0,0-1.33-.58A6.14,6.14,0,0,0,12,48.71H3.24V60.45c0,.27,0,.68,0,1.23s0,1.12.11,1.72a10.88,10.88,0,0,0,.31,1.68,2.18,2.18,0,0,0,.6,1.12v.19H0V66.2a2.17,2.17,0,0,0,.59-1.12A9.8,9.8,0,0,0,.9,63.4c.07-.6.1-1.17.11-1.72s0-1,0-1.23V50.68c0-.27,0-.58,0-.92a6,6,0,0,0-.11-1,4.12,4.12,0,0,0-.31-1,2.17,2.17,0,0,0-.59-.8v-.19H12.12a7.59,7.59,0,0,1,2.53.4,6,6,0,0,1,2,1.12,5,5,0,0,1,1.74,3.88,5.18,5.18,0,0,1-.47,2.21,5,5,0,0,1-1.31,1.71,6.24,6.24,0,0,1-2,1.12,7,7,0,0,1-2.43.41H4.86l-.08-.13Z"/><path class="cls-4" d="M40.31,66.39H24.14V66.2a2.25,2.25,0,0,0,.55-1.12A10.88,10.88,0,0,0,25,63.4c.06-.6.1-1.17.11-1.72s0-1,0-1.22V50.69c0-.27,0-.58,0-.92a7.07,7.07,0,0,0-.11-1,4.28,4.28,0,0,0-.3-1,2.15,2.15,0,0,0-.55-.81v-.2H40.31l.92,3.16L41,50a4,4,0,0,0-1.23-.65,10,10,0,0,0-1.64-.43,10.83,10.83,0,0,0-1.93-.17H27.32v6.86H39.77l.11.19-1.57,2.55H38.1a2.49,2.49,0,0,0-.73-.39,7.1,7.1,0,0,0-1-.25,6.26,6.26,0,0,0-1.16-.1H27.32v6.77h7.11c.84,0,1.72,0,2.63-.12s1.79-.21,2.66-.37a10.77,10.77,0,0,0,2.21-.6l.16.11Z"/><path class="cls-4" d="M60.64,58.94,56.11,49H56l-4.27,10Zm-15.2,7.45V66.2a4.4,4.4,0,0,0,1-1.12c.34-.53.67-1.09,1-1.68s.6-1.17.85-1.72.43-1,.54-1.23L53,50.68c.13-.27.26-.58.4-.92a7.79,7.79,0,0,0,.32-1,3.15,3.15,0,0,0,.08-1,1.3,1.3,0,0,0-.34-.79v-.19h4.92v.19a1.35,1.35,0,0,0,0,1.07,9.66,9.66,0,0,0,.59,1.6l5,10.85c.12.27.32.68.59,1.23s.57,1.12.88,1.72.63,1.15,1,1.68a4.22,4.22,0,0,0,.85,1.12v.19H63V66.2a1.2,1.2,0,0,0,.25-.78,3.71,3.71,0,0,0-.14-1,7,7,0,0,0-.35-1c-.14-.33-.28-.63-.4-.9l-.79-1.68H50.89l-.72,1.68c-.13.27-.26.57-.4.9a8.25,8.25,0,0,0-.32,1,4.17,4.17,0,0,0-.13,1,1.23,1.23,0,0,0,.2.78v.19Z"/><path class="cls-4" d="M78,55.78h.19a2,2,0,0,0,.85.26c.31,0,.63,0,1,0h4a6.29,6.29,0,0,0,2-.27,3.6,3.6,0,0,0,1.31-.74A2.74,2.74,0,0,0,88,54a4.14,4.14,0,0,0,.22-1.39,4.23,4.23,0,0,0-.31-1.68A3.36,3.36,0,0,0,87,49.68,3.64,3.64,0,0,0,85.72,49a5.29,5.29,0,0,0-1.62-.24H75.38V60.45c0,.27,0,.68,0,1.23a14.86,14.86,0,0,0,.11,1.72,9.8,9.8,0,0,0,.31,1.68,2.17,2.17,0,0,0,.59,1.12v.19H72.14V66.2a2.25,2.25,0,0,0,.6-1.12,10.88,10.88,0,0,0,.31-1.68c.06-.6.1-1.17.1-1.72s0-1,0-1.23V50.68c0-.27,0-.58,0-.92a6.09,6.09,0,0,0-.1-1,4.37,4.37,0,0,0-.31-1,2.26,2.26,0,0,0-.6-.81v-.19H83.92a8.07,8.07,0,0,1,2.76.44,6.11,6.11,0,0,1,2,1.23A5.15,5.15,0,0,1,90,50.26a6,6,0,0,1,.43,2.31,5,5,0,0,1-1.35,3.64,5.86,5.86,0,0,1-3.91,1.62l0,.11,2.05,2.84c.45.63.89,1.22,1.31,1.78s.84,1.06,1.26,1.52A11.25,11.25,0,0,0,91,65.31a6.7,6.7,0,0,0,1.35.89v.19a4.27,4.27,0,0,1-.76.2,4,4,0,0,1-.78.07,3.71,3.71,0,0,1-2.51-.92,13.12,13.12,0,0,1-2.22-2.56L82.54,58H76.79l-.08-.13Z"/><path class="cls-4" d="M112.64,66.39H97.47V66.2A2.25,2.25,0,0,0,98,65.08a10.88,10.88,0,0,0,.3-1.68c.06-.6.1-1.17.11-1.72s0-1,0-1.23V50.68c0-.27,0-.58,0-.92a7.36,7.36,0,0,0-.11-1,4.35,4.35,0,0,0-.3-1,2.15,2.15,0,0,0-.55-.81v-.19h4.26v.19a2.24,2.24,0,0,0-.62.8,5,5,0,0,0-.32,1,5.91,5.91,0,0,0-.12,1c0,.34,0,.65,0,.91V64.34h7.56a16,16,0,0,0,2.19-.15q1.09-.15,2.1-.36a8.62,8.62,0,0,0,1.73-.54l.1.11Z"/><path class="cls-4" d="M135.94,55.78h.19A2,2,0,0,0,137,56c.32,0,.64,0,1,0h4a6.25,6.25,0,0,0,2-.27,3.51,3.51,0,0,0,1.31-.74,2.88,2.88,0,0,0,.72-1.11,4.4,4.4,0,0,0,.21-1.39,4.23,4.23,0,0,0-.31-1.68,3.33,3.33,0,0,0-.86-1.21,3.73,3.73,0,0,0-1.31-.73,5.33,5.33,0,0,0-1.62-.24H133.3V60.45c0,.27,0,.68,0,1.23s.05,1.12.11,1.72a10.88,10.88,0,0,0,.31,1.68,2.17,2.17,0,0,0,.59,1.12v.19h-4.26V66.2a2.17,2.17,0,0,0,.59-1.12A9.8,9.8,0,0,0,131,63.4c.07-.6.1-1.17.11-1.72s0-1,0-1.23V50.68c0-.27,0-.58,0-.92a6.11,6.11,0,0,0-.11-1,3.92,3.92,0,0,0-.31-1,2.13,2.13,0,0,0-.59-.81v-.19h11.77a8.13,8.13,0,0,1,2.77.44,6.11,6.11,0,0,1,2,1.23,5.27,5.27,0,0,1,1.27,1.85,6.24,6.24,0,0,1,.43,2.31A5,5,0,0,1,147,56.21a5.88,5.88,0,0,1-3.92,1.62l0,.11,2.06,2.84c.45.63.88,1.22,1.31,1.78s.84,1.06,1.25,1.52a13.23,13.23,0,0,0,1.27,1.23,6.7,6.7,0,0,0,1.35.89v.19a4.56,4.56,0,0,1-1.54.27,3.73,3.73,0,0,1-2.51-.92A12.78,12.78,0,0,1,144,63.18L140.45,58H134.7l-.08-.13Z"/><path class="cls-4" d="M158.84,60.45c0,.27,0,.68,0,1.23A15.11,15.11,0,0,0,159,63.4a9.8,9.8,0,0,0,.37,1.68,2.12,2.12,0,0,0,.72,1.12v.19h-4.7V66.2a2.06,2.06,0,0,0,.72-1.12,10.85,10.85,0,0,0,.38-1.68,15,15,0,0,0,.13-1.72c0-.55,0-1,0-1.23V50.68c0-.27,0-.58,0-.92a5.19,5.19,0,0,0-.13-1,4.88,4.88,0,0,0-.38-1,2.21,2.21,0,0,0-.72-.8v-.19h4.7v.19a2.3,2.3,0,0,0-.72.8,4.33,4.33,0,0,0-.37,1,5.21,5.21,0,0,0-.14,1c0,.34,0,.65,0,.92Z"/><path class="cls-4" d="M186.35,46.74v.19a4.53,4.53,0,0,0-.62.8c-.2.33-.39.66-.57,1s-.34.69-.48,1-.28.65-.41.92l-5.34,11.88c-.13.27-.26.57-.41.9a8.53,8.53,0,0,0-.35,1,3.28,3.28,0,0,0-.12,1,1.14,1.14,0,0,0,.31.78v.19h-5.18V66.2a1.22,1.22,0,0,0,.29-.78,2.94,2.94,0,0,0-.1-1,8.63,8.63,0,0,0-.36-1c-.14-.33-.27-.63-.4-.9l-5.35-11.88-.41-.92-.49-1c-.17-.34-.36-.67-.55-1a4.53,4.53,0,0,0-.62-.8v-.19h3.88v.19a1.6,1.6,0,0,0-.19.8,4.94,4.94,0,0,0,.11,1,7.52,7.52,0,0,0,.29,1,7.37,7.37,0,0,0,.36.92l6.07,13.53h.11l6.08-13.53a10.45,10.45,0,0,0,.65-2,4.92,4.92,0,0,0,.1-1,1.51,1.51,0,0,0-.19-.8v-.19Z"/><path class="cls-4" d="M207.63,66.39H191.46V66.2a2.33,2.33,0,0,0,.55-1.12,14,14,0,0,0,.3-1.68c.06-.6.09-1.17.1-1.72s0-1,0-1.22V50.69c0-.27,0-.58,0-.92a7,7,0,0,0-.1-1,5.51,5.51,0,0,0-.3-1,2.28,2.28,0,0,0-.55-.81v-.2h16.17l.92,3.16-.19.11a4.2,4.2,0,0,0-1.23-.65,10.15,10.15,0,0,0-1.65-.43,10.66,10.66,0,0,0-1.93-.17h-8.91v6.86h12.45l.11.19-1.57,2.55h-.22a2.42,2.42,0,0,0-.72-.39,6.92,6.92,0,0,0-1-.25,6.19,6.19,0,0,0-1.16-.1h-7.87v6.77h7.1c.85,0,1.72,0,2.64-.12s1.79-.21,2.65-.37a10.7,10.7,0,0,0,2.22-.6l.16.11Z"/><path class="cls-4" d="M220.4,55.78h.19a2,2,0,0,0,.85.26c.31,0,.63,0,1,0h4a6.29,6.29,0,0,0,2-.27,3.6,3.6,0,0,0,1.31-.74,2.74,2.74,0,0,0,.71-1.11,4.14,4.14,0,0,0,.22-1.39,4.41,4.41,0,0,0-.31-1.68,3.36,3.36,0,0,0-.87-1.21,3.64,3.64,0,0,0-1.31-.73,5.29,5.29,0,0,0-1.62-.24h-8.72V60.45c0,.27,0,.68,0,1.23s0,1.12.1,1.72a12.21,12.21,0,0,0,.31,1.68,2.25,2.25,0,0,0,.6,1.12v.19h-4.27V66.2a2.18,2.18,0,0,0,.6-1.12,12.21,12.21,0,0,0,.31-1.68c.06-.6.1-1.17.1-1.72s0-1,0-1.23V50.68c0-.27,0-.58,0-.92a6.09,6.09,0,0,0-.1-1,4.94,4.94,0,0,0-.31-1,2.15,2.15,0,0,0-.6-.81v-.19h11.77a8.09,8.09,0,0,1,2.77.44,6.11,6.11,0,0,1,2,1.23,5.15,5.15,0,0,1,1.27,1.85,6,6,0,0,1,.43,2.31,5,5,0,0,1-1.35,3.64,5.86,5.86,0,0,1-3.91,1.62l0,.11,2.05,2.84c.45.63.89,1.22,1.31,1.78s.84,1.06,1.26,1.52a11.25,11.25,0,0,0,1.27,1.23,6.7,6.7,0,0,0,1.35.89v.19a4.5,4.5,0,0,1-.76.2,4,4,0,0,1-.78.07,3.71,3.71,0,0,1-2.51-.92,13.12,13.12,0,0,1-2.22-2.56L224.91,58h-5.75l-.08-.13Z"/><path class="cls-4" d="M256.34,55.78h.18a2.06,2.06,0,0,0,.86.26c.31,0,.63,0,.95,0h4a6.25,6.25,0,0,0,2-.27,3.51,3.51,0,0,0,1.31-.74A2.77,2.77,0,0,0,266.3,54a4.4,4.4,0,0,0,.22-1.39,4.23,4.23,0,0,0-.32-1.68,3.22,3.22,0,0,0-.86-1.21A3.73,3.73,0,0,0,264,49a5.29,5.29,0,0,0-1.62-.24h-8.72V60.45c0,.27,0,.68,0,1.23s.05,1.12.11,1.72a10.88,10.88,0,0,0,.31,1.68,2.18,2.18,0,0,0,.6,1.12v.19h-4.27V66.2a2.17,2.17,0,0,0,.59-1.12,9.8,9.8,0,0,0,.31-1.68c.07-.6.1-1.17.11-1.72s0-1,0-1.23V50.68c0-.27,0-.58,0-.92a6.11,6.11,0,0,0-.11-1,3.92,3.92,0,0,0-.31-1,2.13,2.13,0,0,0-.59-.81v-.19h11.77a8.09,8.09,0,0,1,2.77.44,6.11,6.11,0,0,1,2,1.23,5.15,5.15,0,0,1,1.27,1.85,6.24,6.24,0,0,1,.43,2.31,5,5,0,0,1-1.35,3.64,5.88,5.88,0,0,1-3.92,1.62l0,.11,2.05,2.84c.45.63.89,1.22,1.31,1.78s.84,1.06,1.25,1.52a13.23,13.23,0,0,0,1.27,1.23,7,7,0,0,0,1.35.89v.19a4.56,4.56,0,0,1-1.54.27,3.73,3.73,0,0,1-2.51-.92,12.78,12.78,0,0,1-2.21-2.56L260.85,58h-5.76l-.08-.13Z"/><path class="cls-4" d="M292,66.39H275.78V66.2a2.33,2.33,0,0,0,.55-1.12,12.23,12.23,0,0,0,.3-1.68c.06-.6.1-1.17.1-1.72s0-1,0-1.22V50.69c0-.27,0-.58,0-.92a5.87,5.87,0,0,0-.1-1,4.82,4.82,0,0,0-.3-1,2.28,2.28,0,0,0-.55-.81v-.2H292l.92,3.16-.19.11a4.07,4.07,0,0,0-1.23-.65,10.15,10.15,0,0,0-1.65-.43,10.66,10.66,0,0,0-1.93-.17H279v6.86h12.45l.11.19L290,58.36h-.22A2.42,2.42,0,0,0,289,58a6.92,6.92,0,0,0-1-.25,6.11,6.11,0,0,0-1.16-.1H279v6.77h7.1q1.28,0,2.64-.12c.9-.09,1.79-.21,2.65-.37a10.7,10.7,0,0,0,2.22-.6l.16.11Z"/><path class="cls-4" d="M315.49,50.65h-.19a3.12,3.12,0,0,0-1.16-.94,9.44,9.44,0,0,0-1.78-.69,13.72,13.72,0,0,0-2.12-.42,18.21,18.21,0,0,0-2.17-.14,13.49,13.49,0,0,0-2.69.26,8.24,8.24,0,0,0-2.17.74,4.36,4.36,0,0,0-1.45,1.21,2.62,2.62,0,0,0-.52,1.6,2,2,0,0,0,.51,1.43,3.64,3.64,0,0,0,1.4.87,10.83,10.83,0,0,0,2.08.48c.79.11,1.64.2,2.54.27l2.24.22a21,21,0,0,1,2.19.31,11.47,11.47,0,0,1,2,.55,6.42,6.42,0,0,1,1.59.89,3.81,3.81,0,0,1,1.08,1.34,4.34,4.34,0,0,1,.39,1.93,5,5,0,0,1-.69,2.62,5.7,5.7,0,0,1-1.94,1.9,9.89,9.89,0,0,1-3,1.18,18,18,0,0,1-4,.4,18.93,18.93,0,0,1-3.39-.27,17.22,17.22,0,0,1-2.58-.66,14.4,14.4,0,0,1-1.89-.82l-1.29-.73,1.16-2.35h.19A5.29,5.29,0,0,0,301.21,63a9.73,9.73,0,0,0,2,.86,14.53,14.53,0,0,0,2.4.54,17.23,17.23,0,0,0,2.58.19,9.55,9.55,0,0,0,5.09-1.1A3.21,3.21,0,0,0,315,60.75a2.13,2.13,0,0,0-.46-1.39,3.18,3.18,0,0,0-1.25-.89,7.81,7.81,0,0,0-1.8-.52c-.69-.11-1.42-.22-2.19-.31l-3.55-.36a16.14,16.14,0,0,1-3.32-.65,6,6,0,0,1-2.46-1.4,3.5,3.5,0,0,1-1-2.63,4.94,4.94,0,0,1,.66-2.52,6,6,0,0,1,1.88-1.93,9.89,9.89,0,0,1,2.92-1.24,14.75,14.75,0,0,1,3.78-.44,16.94,16.94,0,0,1,3.22.28,26.43,26.43,0,0,1,2.57.62,15.08,15.08,0,0,1,1.77.65l.81.39Z"/><path class="cls-4" d="M334.29,48.49a11,11,0,0,0-3.48.54A8.66,8.66,0,0,0,328,50.61,7.51,7.51,0,0,0,326,53.15,8.46,8.46,0,0,0,326,60,7.61,7.61,0,0,0,328,62.52a8.66,8.66,0,0,0,2.86,1.58,11,11,0,0,0,3.48.54,10.9,10.9,0,0,0,3.46-.54,8.42,8.42,0,0,0,2.85-1.58A7.59,7.59,0,0,0,342.53,60a8.46,8.46,0,0,0,0-6.83,7.49,7.49,0,0,0-1.93-2.54A8.42,8.42,0,0,0,337.75,49a10.9,10.9,0,0,0-3.46-.54m0-2a12.84,12.84,0,0,1,4.22.7,11.13,11.13,0,0,1,3.59,2,9.75,9.75,0,0,1,2.5,3.17,10,10,0,0,1,0,8.45A9.75,9.75,0,0,1,342.1,64a11.32,11.32,0,0,1-3.59,2,13.1,13.1,0,0,1-8.45,0,11.64,11.64,0,0,1-3.61-2,9.78,9.78,0,0,1-2.51-3.17,10,10,0,0,1,0-8.45,9.78,9.78,0,0,1,2.51-3.17,11.44,11.44,0,0,1,3.61-2,12.86,12.86,0,0,1,4.23-.7"/><path class="cls-4" d="M357.75,55.78h.19a2,2,0,0,0,.85.26c.31,0,.63,0,1,0h4a6.2,6.2,0,0,0,2-.27,3.44,3.44,0,0,0,1.31-.74,2.67,2.67,0,0,0,.72-1.11,4.14,4.14,0,0,0,.22-1.39,4.41,4.41,0,0,0-.31-1.68,3.36,3.36,0,0,0-.87-1.21,3.64,3.64,0,0,0-1.31-.73,5.29,5.29,0,0,0-1.62-.24H355.1V60.45c0,.27,0,.68,0,1.23s.05,1.12.11,1.72a12.21,12.21,0,0,0,.31,1.68,2.18,2.18,0,0,0,.6,1.12v.19h-4.27V66.2a2.17,2.17,0,0,0,.59-1.12,10.87,10.87,0,0,0,.32-1.68c.06-.6.09-1.17.1-1.72s0-1,0-1.23V50.68c0-.27,0-.58,0-.92a7.32,7.32,0,0,0-.1-1,4.4,4.4,0,0,0-.32-1,2.13,2.13,0,0,0-.59-.81v-.19h11.77a8.09,8.09,0,0,1,2.77.44,6.11,6.11,0,0,1,2,1.23,5.15,5.15,0,0,1,1.27,1.85,6,6,0,0,1,.43,2.31,5,5,0,0,1-1.35,3.64,5.88,5.88,0,0,1-3.92,1.62l0,.11,2,2.84c.45.63.89,1.22,1.31,1.78s.84,1.06,1.26,1.52a11.25,11.25,0,0,0,1.27,1.23,6.93,6.93,0,0,0,1.34.89v.19a4.17,4.17,0,0,1-.75.2,4,4,0,0,1-.78.07,3.69,3.69,0,0,1-2.51-.92,12.79,12.79,0,0,1-2.22-2.56L362.26,58H356.5l-.08-.13Z"/><path class="cls-4" d="M376.81,46.47h.27l2.16.27h12.93l2.16-.27.14.1-1.87,3.27h-.18a1.73,1.73,0,0,0-.8-.85,3.44,3.44,0,0,0-1.61-.31h-4.45V60.45c0,.27,0,.68,0,1.23s.05,1.12.12,1.72a10.86,10.86,0,0,0,.34,1.68,2.12,2.12,0,0,0,.63,1.12v.19h-4.45V66.2a2,2,0,0,0,.66-1.12,10.86,10.86,0,0,0,.34-1.68c.07-.6.11-1.17.12-1.72s0-1,0-1.23V48.68h-3.61a8.34,8.34,0,0,0-4.3,1.16l-.13-.11Z"/><path class="cls-3" d="M207.37,2.85S214.94,8.47,223.66,8s8.1-.73,9.89-1.1,5.09-1.26,5.09-1.26-2.6,3.26-8.83,3.91-6.26.71-10.2-.09c-3.28-.67-12.24-6.59-12.24-6.59"/><path class="cls-3" d="M174.51,22.32s4.48-5.75,9.61-6.93a17.15,17.15,0,0,1,9.08-.09c2.79.61,12.85,6.88,12.85,6.88a70.82,70.82,0,0,0-8.62-4.05,31.11,31.11,0,0,0-8.11-1.26A16.45,16.45,0,0,0,183.88,18c-1.35.57-2,.79-3.92,1.66s-2.31,1-3.13,1.45-2.32,1.17-2.32,1.17"/></g></g></svg>