<svg xmlns="http://www.w3.org/2000/svg" width="44.588" height="44.587" viewBox="0 0 44.588 44.587">
  <g id="Group_2688" data-name="Group 2688" transform="translate(-416.117 -276.909)">
    <g id="Group_2685" data-name="Group 2685" transform="translate(428.181 286.133)">
      <path id="Path_1945" data-name="Path 1945" d="M842.526,414.87h.682V411.4h-3.471v.682h2.789Z" transform="translate(-822.747 -411.399)" fill="#0f6589"/>
      <path id="Path_1946" data-name="Path 1946" d="M842.526,659.125v2.789h-2.789v.682h3.471v-3.471Z" transform="translate(-822.747 -642.135)" fill="#0f6589"/>
      <path id="Path_1947" data-name="Path 1947" d="M592.693,414.87V412.08h2.789V411.4h-3.471v3.471Z" transform="translate(-592.011 -411.399)" fill="#0f6589"/>
      <path id="Path_1948" data-name="Path 1948" d="M592.693,659.125h-.682V662.6h3.471v-.682h-2.789Z" transform="translate(-592.011 -642.135)" fill="#0f6589"/>
    </g>
    <g id="Group_2686" data-name="Group 2686" transform="translate(430.782 288.196)">
      <path id="Path_1949" data-name="Path 1949" d="M637.612,441.484v0h-.072v0c-.775.028-7.593.5-7.593,8.349,0,8.322,5.736,9.857,7.595,9.857l.034,0,.034,0c1.858,0,7.594-1.535,7.594-9.857C645.2,441.984,638.387,441.512,637.612,441.484Z" transform="translate(-629.947 -441.482)" fill="#0f6589"/>
    </g>
    <g id="Group_2687" data-name="Group 2687" transform="translate(424.337 307.761)">
      <path id="Path_1950" data-name="Path 1950" d="M564.122,732.8l-.944-1.8a2.138,2.138,0,0,0-.72-.74l-6.076-3.4a1.06,1.06,0,0,0-.511-.114,9.666,9.666,0,0,1-5.778,2.289l-.044,0-.044,0a9.665,9.665,0,0,1-5.778-2.289,1.06,1.06,0,0,0-.511.114l-6.076,3.4a2.142,2.142,0,0,0-.72.74l-.944,1.8a20.264,20.264,0,0,0,28.147,0Z" transform="translate(-535.975 -726.746)" fill="#0f6589"/>
    </g>
    <path id="Path_1951" data-name="Path 1951" d="M438.411,276.909A22.293,22.293,0,1,0,460.7,299.2,22.319,22.319,0,0,0,438.411,276.909Zm0,43.653a21.359,21.359,0,1,1,21.36-21.359A21.359,21.359,0,0,1,438.411,320.562Z" fill="#0f6589"/>
  </g>
</svg>
