<svg xmlns="http://www.w3.org/2000/svg" viewBox="30 0 100 66.83"><defs><style>.cls-1{fill:#3f73a8;}.cls-2{fill:#fff;}</style></defs><g id="Layer_2" data-name="Layer 2"><g id="Layer_1-2" data-name="Layer 1"><path class="cls-1" d="M111.48,25a4.5,4.5,0,0,0,4.5-4.49v-.17a4.47,4.47,0,0,0-3.9-4.43L77.44,0,42.8,15.88a4.47,4.47,0,0,0-3.9,4.43v.17A4.49,4.49,0,0,0,43.39,25H50v32.7h-6.8a4.49,4.49,0,0,0-4.49,4.49v.18a4.49,4.49,0,0,0,4.49,4.49H111.3a4.49,4.49,0,0,0,4.49-4.49v-.18a4.49,4.49,0,0,0-4.49-4.49h-6.79V25Z"/><path class="cls-2" d="M74.63,55.51a14.88,14.88,0,0,1-7.11-2.33L69.66,48a11.76,11.76,0,0,0,6.78,2.42q5.13,0,5.13-3.53a5.11,5.11,0,0,0-1.31-3.33,16.39,16.39,0,0,0-5-3.39,23.64,23.64,0,0,1-5-3,8.16,8.16,0,0,1-2-2.89,9.54,9.54,0,0,1-.71-3.73A8.19,8.19,0,0,1,69.5,25.1,9.16,9.16,0,0,1,74.63,22v-4h5.13l0,3.82a11.52,11.52,0,0,1,6.13,2l-1.76,5a11,11,0,0,0-6.47-2.19,4.29,4.29,0,0,0-3.12,1.08,3.67,3.67,0,0,0-1.11,2.74q0,2.82,6.24,5.86a20.56,20.56,0,0,1,4.75,3A9,9,0,0,1,86.6,42.4a10.21,10.21,0,0,1,.76,4,8.13,8.13,0,0,1-2,5.47,10.36,10.36,0,0,1-5.59,3.21v5.15H74.63Z"/></g></g></svg>