<svg xmlns="http://www.w3.org/2000/svg" viewBox="30 0 100 61.65"><defs><style>.cls-1{fill:#fff;}.cls-2{fill:#3f74a8;}.cls-3{fill:#3f73a8;}</style></defs><g id="Layer_2" data-name="Layer 2"><g id="Layer_1-2" data-name="Layer 1"><rect class="cls-1" x="36.38" y="2.29" width="80.95" height="57.06" rx="5.25"/><path class="cls-2" d="M112.65,0H41.06A7.26,7.26,0,0,0,33.8,7.25V54.4a7.26,7.26,0,0,0,7.26,7.25h71.59a7.26,7.26,0,0,0,7.26-7.25V7.25A7.26,7.26,0,0,0,112.65,0ZM41.06,4.59h71.59a2.67,2.67,0,0,1,2.67,2.66v6.92H38.39V7.25A2.67,2.67,0,0,1,41.06,4.59Zm71.59,52.47H41.06a2.67,2.67,0,0,1-2.67-2.66V24.51h76.93V54.4A2.67,2.67,0,0,1,112.65,57.06Z"/><path class="cls-2" d="M82.27,32.53H49.84a4,4,0,0,0,0,8H82.27a4,4,0,0,0,0-8Z"/></g></g></svg>