<svg xmlns="http://www.w3.org/2000/svg" viewBox="0 0 160 90"><defs><style>.cls-1{fill:#3f73a8;}.cls-2{fill:#fff;}</style></defs><g id="Layer_2" data-name="Layer 2"><g id="Layer_1-2" data-name="Layer 1"><rect class="cls-1" width="160" height="90" rx="8.72"/><circle class="cls-2" cx="80" cy="45" r="30.21"/><path class="cls-1" d="M77.64,61.31a14.79,14.79,0,0,1-7-2.29l2.12-5.14a11.6,11.6,0,0,0,6.68,2.38q5.06,0,5-3.48a5,5,0,0,0-1.29-3.28,16.07,16.07,0,0,0-4.89-3.34,23.06,23.06,0,0,1-4.91-3,8.05,8.05,0,0,1-2-2.84,9.46,9.46,0,0,1-.69-3.68,8.1,8.1,0,0,1,1.89-5.3,9.05,9.05,0,0,1,5.06-3.06v-4h5l0,3.77a11.41,11.41,0,0,1,6,2L87,35a10.75,10.75,0,0,0-6.37-2.16,4.24,4.24,0,0,0-3.08,1.07,3.64,3.64,0,0,0-1.09,2.7q0,2.77,6.16,5.78a20.18,20.18,0,0,1,4.67,2.92,9,9,0,0,1,2.18,3.11,10.06,10.06,0,0,1,.75,4,8,8,0,0,1-2,5.39,10.17,10.17,0,0,1-5.51,3.16V66h-5Z"/></g></g></svg>