<svg xmlns="http://www.w3.org/2000/svg" viewBox="0 0 736.7 320.17"><defs><style>.cls-1{fill:#e5e5e5;}</style></defs><g id="Layer_2" data-name="Layer 2"><g id="_1_Color" data-name="1 Color"><path class="cls-1" d="M247.6,176.19V32.69h24.47v143.5Zm171.69-76v62.65c-15.27,10-31.91,15.66-53.44,15.66-40.92,0-76.16-29.76-76.16-74,0-44.64,35.83-74.2,76.16-74.2,21.14,0,36.22,5.87,50.9,14.88L405.59,64.8C394,57.36,380.34,52.85,367,52.85c-32.69,0-51.09,23.11-51.09,51.69,0,30.54,22.51,52.27,50.9,52.27,12.33,0,20.55-2.15,29-6.85V121.77H362.32V100.23ZM497.8,55V176.19H473.33V55H427.71V32.69H543.22V55Zm-362.23,74.5h0q3.6-4.22,6.84-8.72h0c1.06-1.47,2.08-3,3.08-4.47l.15-.23c1-1.51,2-3,2.89-4.6h0a132.86,132.86,0,0,0,19-68.64A135,135,0,0,0,166.2,24,100.91,100.91,0,0,0,33.9,176.36H34a133,133,0,0,0,85.83-31.25h0a134.85,134.85,0,0,0,12-11.42l.08-.08Q133.78,131.6,135.57,129.51Zm-99.93,42.3A96.37,96.37,0,0,1,161.93,26.33a130.68,130.68,0,0,1,1,16.5,128.23,128.23,0,0,1-14.87,60.06l-3.74-71.83a.48.48,0,0,0-.5-.49.5.5,0,0,0-.51.48l-6.45,85.59L99.58,77.31a.49.49,0,0,0-.69,0,.53.53,0,0,0-.12.67l28.47,44.93L51.67,104.74a.57.57,0,0,0-.6.33.51.51,0,0,0,.31.64l71.95,27.47L50.76,159a.48.48,0,0,0,.27.93l58.44-12.56A128.12,128.12,0,0,1,35.64,171.81ZM171.76,29.11c.44,4.51.68,9.09.68,13.72a137.61,137.61,0,0,1-18.11,68.38l32.53-32.88a.47.47,0,0,1,.67,0,.49.49,0,0,1,.1.67l-29.26,44.27L201,114.05a100.39,100.39,0,0,0-29.22-84.94ZM145.32,191.58a101.15,101.15,0,0,0,25.44-17.82l-22.32-23.63ZM191.75,145A100.07,100.07,0,0,0,200,120.12l-38,13.5Zm-17.27,25a101.07,101.07,0,0,0,14-18.81l-30.31-7.26Zm-75.7,18.18a.54.54,0,0,1-.69,0,.53.53,0,0,1-.1-.67l26.32-39.87a137.85,137.85,0,0,1-84.58,33.47,100.81,100.81,0,0,0,99.11,13.33L136.53,150ZM516.2,165.44v10.37h-2.07V165.44h-3.82v-1.85h9.76v1.85Zm16.59,10.37-.11-7.56-3.92,6h-.23l-4-6,0,7.56h-2l.5-12.38h.28l5.38,8,5.33-8h.28l.5,12.38ZM265.71,263.65c-3,0-7-.24-10-.48v31.08h-9.6V207.14a153.22,153.22,0,0,1,20.16-1.44c22.68,0,33.84,13,33.84,28C300.15,251.29,287.31,263.65,265.71,263.65Zm2-49.31a60.78,60.78,0,0,0-12,1v39.23a97.35,97.35,0,0,0,10.56.72c16.44,0,23.52-9.48,23.52-20.88C289.83,224.05,282.27,214.34,267.75,214.34Zm41.16,79.91V206.3h9.48v87.95Zm53.52,0V289a21.84,21.84,0,0,1-15.6,6.24c-10,0-18.24-5.88-18.24-16.2,0-9.12,7.8-15.72,18.12-15.72,7,0,10.92,1.56,15.24,3.36v-3c0-8.52-4-12.48-13.2-12.48a36.41,36.41,0,0,0-13.2,2.52L334,245.53a59.24,59.24,0,0,1,16-2.64c14.4,0,21.24,6.84,21.24,21.36v30ZM362,274.57c-5-2.76-8.16-4.08-13.68-4.08-6.48,0-10.68,2.88-10.68,8.52s4.2,8.64,11.64,8.64A16.77,16.77,0,0,0,362,281.41Zm30.12,45.6h-9.48l15.12-30.72-21.24-45.6H387L402.39,280l15.12-36.12h10.2Zm65.76-24.48c-10,0-19.92-3.6-27.6-8.64l5.16-13.44c7,5,15.36,8.16,22.92,8.16,9.24,0,13.32-5.4,13.32-11.52s-2.64-10-16.56-15.84c-15.36-6.48-20.88-14.4-20.88-25,0-12.71,10.56-24.59,28.92-24.59a41.76,41.76,0,0,1,22.08,6.36l-4.8,13.2c-4.68-3.24-11.64-6.24-17.64-6.24-9.24,0-13.56,5-13.56,10.92s4.32,9.35,15.24,14.15c17.4,7.56,22.44,14.64,22.44,26.16C486.87,283.57,476,295.69,457.83,295.69Zm66.72-.48a26.89,26.89,0,0,1-13.44-3.36v28.32H497.55V243h13.08v4.8a23.42,23.42,0,0,1,16.2-5.76c13.32,0,23.28,10.92,23.28,26.16C550.11,283,539.55,295.21,524.55,295.21Zm-1.08-42.36a15.67,15.67,0,0,0-12.36,5.4v21.48c2.76,3.12,7.32,4.68,11.88,4.68,7.68,0,13.56-6,13.56-16.08C536.55,259.33,531.51,252.85,523.47,252.85ZM585,295.21c-16.56,0-26.88-12.12-26.88-26.64s10.32-26.52,26.88-26.52,26.64,12,26.64,26.52S601.47,295.21,585,295.21Zm0-42.72c-8.16,0-13.32,6.24-13.32,16.08s5.16,16.2,13.32,16.2,13.2-6.24,13.2-16.2S593.07,252.49,585,252.49Zm50.52,8v33.72H621.87V243h13.2v8.4c4.8-6.36,10.32-9.36,18.24-9.36v13.44C645.39,254.65,638.67,256.09,635.55,260.53Zm42.84-6.48v23.52c0,4.56,2.16,6.24,6.12,6.24a20.63,20.63,0,0,0,4.44-.6l2.52,10.56a50.58,50.58,0,0,1-10.92,1.44c-9.6,0-15.72-4.68-15.72-18.36v-22.8h-9.72v-1.8l9.72-9.72v-8.27l13.56-8.53V243h14.28v11Zm38.52,41.16a34.53,34.53,0,0,1-20.28-6.72l5.28-9.72c4.56,3.6,10.44,6,14.76,6,5,0,7.32-2,7.32-5.28,0-8.16-24.36-4.92-24.36-21.24,0-9.24,7.92-16.2,19.56-16.2a35.6,35.6,0,0,1,16.8,4.8l-4.2,10c-4.32-2.64-8.88-4.44-13.2-4.44-4.56,0-6.72,2.16-6.72,4.8,0,7.56,24.83,4.68,24.83,21.72C736.7,288.25,728.31,295.21,716.91,295.21Z"/></g></g></svg>