<svg xmlns="http://www.w3.org/2000/svg" width="100" height="100" viewBox="0 0 35 12">
    <defs>
        <linearGradient id="a" x1="0%" y1="49.994%" y2="49.994%">
            <stop offset="0%" stop-color="#27235C"/>
            <stop offset="100%" stop-color="#0A509F"/>
        </linearGradient>
    </defs>
    <path fill="url(#a)" fill-rule="nonzero" d="M10.317.204L7.374 7.768 6.183 1.337A1.325 1.325 0 0 0 4.878.204H.066L0 .525c.988.219 2.11.577 2.79.947.416.23.542.43.677.976l2.25 8.87h2.98L13.288.205h-2.97zm4.184 0l-2.34 11.115h2.828L17.328.204h-2.83.003zm16.213 3.004l.858 4.172h-2.347l1.49-4.172zM30.3.204a1.287 1.287 0 0 0-1.203.816l-4.244 10.299h2.97l.589-1.66h3.627l.347 1.66H35L32.713.204h-2.414zm-12.195 3.47c-.019 1.602 1.404 2.493 2.476 3.032 1.102.551 1.47.894 1.466 1.378-.008.745-.88 1.074-1.692 1.087-1.422.022-2.247-.39-2.904-.703l-.512 2.433c.66.31 1.88.578 3.145.592 2.971 0 4.913-1.493 4.922-3.803.013-2.934-3.989-3.095-3.962-4.41.01-.398.382-.826 1.2-.93.956-.093 1.919.079 2.787.497l.497-2.358A7.49 7.49 0 0 0 22.877 0c-2.796 0-4.762 1.516-4.778 3.673l.005.002z"/>
</svg>
