<svg xmlns="http://www.w3.org/2000/svg" viewBox="0 0 32.81 32.81"><defs><style>.cls-1{fill:#e1b724;}</style></defs><g id="Layer_2" data-name="Layer 2"><g id="Layer_1-2" data-name="Layer 1"><path class="cls-1" d="M31,13.12H24.34l4.71-4.71a1.82,1.82,0,0,0,0-2.56L27,3.76a1.8,1.8,0,0,0-2.56,0L19.69,8.47V1.81A1.81,1.81,0,0,0,17.88,0H14.93a1.81,1.81,0,0,0-1.81,1.81V8.47L8.41,3.76a1.8,1.8,0,0,0-2.56,0L3.76,5.85a1.8,1.8,0,0,0,0,2.56l4.71,4.71H1.81A1.81,1.81,0,0,0,0,14.93v2.95a1.81,1.81,0,0,0,1.81,1.81H8.47L3.76,24.4a1.8,1.8,0,0,0,0,2.56l2.09,2.09a1.82,1.82,0,0,0,2.56,0l4.71-4.71V31a1.81,1.81,0,0,0,1.81,1.81h2.95A1.81,1.81,0,0,0,19.69,31V24.34l4.71,4.71a1.82,1.82,0,0,0,2.56,0L29.05,27a1.82,1.82,0,0,0,0-2.56l-4.71-4.71H31a1.81,1.81,0,0,0,1.81-1.81V14.93A1.81,1.81,0,0,0,31,13.12ZM16.4,20.7a4.3,4.3,0,1,1,4.3-4.3A4.3,4.3,0,0,1,16.4,20.7Z"/></g></g></svg>