<svg xmlns="http://www.w3.org/2000/svg" viewBox="0 0 30.66 33.33"><defs><style>.cls-1{fill:#e1b724;}</style></defs><g id="Layer_2" data-name="Layer 2"><g id="Layer_1-2" data-name="Layer 1"><path class="cls-1" d="M7,10h4.47a.83.83,0,0,0,.85-.77c0-.28,0-.57,0-.91h0a.83.83,0,0,0-.85-.81H7a.77.77,0,0,0-.83.71,6.25,6.25,0,0,0,0,1.06A.81.81,0,0,0,7,10Z"/><path class="cls-1" d="M24.74,13V.76A.85.85,0,0,0,23.83,0H.77A.85.85,0,0,0,0,.89V13.61c0,.73,0,1.48,0,2.2V26.38a.82.82,0,0,0,.35.73l2,1.31.3.2a.77.77,0,0,0,.46.15.86.86,0,0,0,.49-.15l.3-.2h0l1.79-1.19A.89.89,0,0,1,6.2,27a1,1,0,0,1,.53.19h0l2.08,1.39a.91.91,0,0,0,.48.15.89.89,0,0,0,.49-.16l.88-.59A10.74,10.74,0,1,0,24.74,13ZM9.17,22.46a10.8,10.8,0,0,0,.46,3.24l-.23.16a.21.21,0,0,1-.13.05.24.24,0,0,1-.14-.05l-.33-.23c-.26-.17-.53-.36-.8-.52a3.41,3.41,0,0,0-1.83-.57,3.35,3.35,0,0,0-1.84.59c-.35.22-.7.46-1,.7l-.06,0a.28.28,0,0,1-.13,0,.42.42,0,0,1-.15,0A.82.82,0,0,1,2.47,25c0-7.4,0-14.92,0-22.19v-.3a.82.82,0,0,0,.22,0H22c.2,0,.26,0,.26.25,0,2.78,0,5.62,0,8.36v1a10.68,10.68,0,0,0-8.43,1.64H7a.8.8,0,0,0-.77.84v.71a.54.54,0,0,0,0,.18h0a.85.85,0,0,0,.95.75h4.13A10.68,10.68,0,0,0,9.17,22.46Zm10.88,8.87a8.74,8.74,0,1,1-.27-17.48h0a8.83,8.83,0,0,1,8.88,8.74A8.74,8.74,0,0,1,20.05,31.33Z"/><path class="cls-1" d="M18.33,25.08l-2.55-2-.92,1.18L18,26.72a.76.76,0,0,0,.46.16A.79.79,0,0,0,19,26.6L25,19.25l-1.16-.94Z"/></g></g></svg>