<svg xmlns="http://www.w3.org/2000/svg" viewBox="0 0 167.18 224.7"><defs><style>.cls-1{fill:#6c6e76;}</style></defs><g id="Layer_2" data-name="Layer 2"><g id="Layer_1-2" data-name="Layer 1"><path class="cls-1" d="M37.51,0h0c-12.22,0-26.8,5.49-26.8,31.65V59.38a99.49,99.49,0,0,0,.84,14.12,25.86,25.86,0,0,0,6.32,13.19c2.72,3.35,5.39,6.42,8,9.1s5,5.13,7.48,7.42,4.7,4.43,6.89,6.56,4.33,4.38,6.46,6.73c1,1.15,1.77,2.2,2.44,3.11a9.06,9.06,0,0,1,1.16,2.23,13.29,13.29,0,0,1,.63,3.22c.14,1.56.21,3.62.21,6.1v24.71c0,3.1-.6,5.44-1.8,7-1,1.34-3.09,2.2-6.09,2.55a12.69,12.69,0,0,1-1.56.1c-2.41,0-2.92-.8-3.14-1.15-1.22-1.92-1.84-4.8-1.83-8.55v-41l-5,.2-16.38.65-4.6.19v44.05c0,11.26,2.78,19.73,8.25,25.18,4.29,4.3,10.44,6.49,18.27,6.49a53.35,53.35,0,0,0,7.68-.6c11.49-1.65,20-5.7,25.14-12s7.72-14.54,7.72-24.63V130.05c0-3.5-.12-6.53-.36-9.26A40.43,40.43,0,0,0,76,112.9a29.77,29.77,0,0,0-2.94-6.81,37.18,37.18,0,0,0-4.65-6.16A197.39,197.39,0,0,0,53.79,85.48,110,110,0,0,1,40.57,71.37a13.06,13.06,0,0,1-2.41-4.18,27.06,27.06,0,0,1-.59-7V33.45c0-6.82,2.66-6.85,4.82-6.85h0a14.76,14.76,0,0,1,1.68.11c3,.35,4.91,1.24,5.69,2.65a17.66,17.66,0,0,1,1.75,8.49V72l4.59.2,16,.68,5,.2V37.18c0-10.51-2.48-18.89-7.37-24.9S56.4,2.24,44.9.59A49.9,49.9,0,0,0,37.51,0Z"/><path class="cls-1" d="M122.48,1.25c-.84.1-1.7.23-2.58.37C110,3.25,100.2,4.76,90.78,6.13l-4.44.65V184.42l4.32.61c9.15,1.28,18.67,2.71,28.29,4.23.86.14,1.7.26,2.53.36,10.07,1.22,17.83-.22,23.58-4.48,6.8-5,10.36-14.13,10.5-27l.47-46.86c.09-8.68-2-15.3-6.09-19.61a25,25,0,0,0-1.83-1.75c3.74-4.72,5.77-11.48,5.86-19.92L154.36,35c.13-13.48-2.76-23.12-8.56-28.57C140.65,1.61,133-.07,122.48,1.25ZM117.66,28c5-.45,6.12-.5,6.76,0s.78,1.07.75,6.77l-.23,39.56c0,2.64,0,4.41-1,5.38s-1.43.89-5.65,1l-5.36.16.19-52.29S115.64,28.2,117.66,28Zm-4.76,134.4.2-59.1c.4,0,1.07,0,5.25-.1,4.78,0,6.4.23,7.53,1.06s1.16,2.5,1.13,8.47l-.25,43.75c0,3.27.09,4.8-.81,5.95s-3.27,1.1-6.16.9C117.31,163.16,112.9,162.41,112.9,162.41Z"/><path class="cls-1" d="M0,202.57H11.93v4.05H8v17.54H3.83V206.62H0Z"/><path class="cls-1" d="M17,202.57H28.8v4H21.1v3.91h7.7v3.94H21.1v5.68h7.7v4H17Z"/><path class="cls-1" d="M34.9,202.57h3.94l9.24,14.21V202.57h4.11v21.59h-4L39,210v14.16H34.9Z"/><path class="cls-1" d="M59.38,202.57h3.95l9.23,14.21V202.57h4.11v21.59h-4L63.49,210v14.16H59.38Z"/><path class="cls-1" d="M83.87,202.57H95.65v4H88v3.91h7.7v3.94H88v5.68h7.7v4H83.87Z"/><path class="cls-1" d="M113.07,205.51l-3,2.68c-1.07-1.49-2.15-2.23-3.26-2.23a2,2,0,0,0-1.32.43,1.26,1.26,0,0,0-.52,1,1.67,1.67,0,0,0,.37,1,28.34,28.34,0,0,0,3,2.77c1.57,1.31,2.52,2.14,2.86,2.48a8.78,8.78,0,0,1,1.77,2.41,6.17,6.17,0,0,1,.52,2.52,5.77,5.77,0,0,1-1.84,4.39,6.71,6.71,0,0,1-4.79,1.73,7.14,7.14,0,0,1-4-1.13A8.93,8.93,0,0,1,99.87,220l3.46-2.08c1,1.9,2.23,2.86,3.58,2.86a2.64,2.64,0,0,0,1.78-.62,1.84,1.84,0,0,0,.72-1.42,2.47,2.47,0,0,0-.54-1.47,15.42,15.42,0,0,0-2.4-2.25,23.8,23.8,0,0,1-4.55-4.43,5.65,5.65,0,0,1-1-3.12,5.13,5.13,0,0,1,1.71-3.86,5.93,5.93,0,0,1,4.22-1.6,6.64,6.64,0,0,1,3.08.75A11.37,11.37,0,0,1,113.07,205.51Z"/><path class="cls-1" d="M131,205.51l-3,2.68c-1.07-1.49-2.16-2.23-3.27-2.23a2,2,0,0,0-1.32.43,1.29,1.29,0,0,0-.52,1,1.73,1.73,0,0,0,.37,1,28.89,28.89,0,0,0,3,2.77c1.56,1.31,2.51,2.14,2.85,2.48a8.78,8.78,0,0,1,1.77,2.41,6,6,0,0,1,.52,2.52,5.77,5.77,0,0,1-1.84,4.39,6.7,6.7,0,0,1-4.78,1.73,7.15,7.15,0,0,1-4-1.13,8.91,8.91,0,0,1-2.93-3.55l3.45-2.08c1,1.9,2.23,2.86,3.59,2.86a2.63,2.63,0,0,0,1.77-.62,1.84,1.84,0,0,0,.72-1.42,2.47,2.47,0,0,0-.54-1.47,15.7,15.7,0,0,0-2.39-2.25,23.63,23.63,0,0,1-4.56-4.43,5.65,5.65,0,0,1-1-3.12,5.13,5.13,0,0,1,1.71-3.86,5.93,5.93,0,0,1,4.22-1.6,6.64,6.64,0,0,1,3.08.75A11.23,11.23,0,0,1,131,205.51Z"/><path class="cls-1" d="M137.52,202.57H149.3v4h-7.7v3.91h7.7v3.94h-7.7v5.68h7.7v4H137.52Z"/><path class="cls-1" d="M155.4,202.57h11.78v4h-7.7v3.91h7.7v3.94h-7.7v5.68h7.7v4H155.4Z"/><path class="cls-1" d="M164.34,183.57v3.55h.87v-5h-.93l-1.5,2.34-1.51-2.34h-.93v5h.86v-3.54l1.55,2.32h0Zm-6.49-.6h1.57v-.8h-4v.8H157v4.15h.88Z"/></g></g></svg>