<?xml version="1.0" encoding="utf-8"?>
<!-- Generator: Adobe Illustrator 25.2.3, SVG Export Plug-In . SVG Version: 6.00 Build 0)  -->
<svg version="1.1" id="Layer_1" xmlns="http://www.w3.org/2000/svg" xmlns:xlink="http://www.w3.org/1999/xlink" x="0px" y="0px"
	 viewBox="0 0 246.639 295.505" style="enable-background:new 0 0 246.639 295.505;" xml:space="preserve">
<style type="text/css">
	.st0{fill:#6C6E76;}
</style>
<g>
	<path class="st0" d="M64.506,5.395c0.443,0.048,0.884,0.111,1.328,0.143c8.946,0.636,17.634,2.336,25.807,6.197
		c9.471,4.474,15.686,11.79,18.982,21.671c1.784,5.348,2.6,10.861,2.819,16.475c0.049,1.247,0.072,2.496,0.073,3.744
		c0.005,14.847,0.003,29.694,0.003,44.541c0,0.284,0,0.567,0,0.961c-11.44-0.487-22.819-0.971-34.308-1.46c0-0.334,0-0.635,0-0.935
		c0-14.414,0.012-28.829-0.009-43.243c-0.005-3.165-0.41-6.269-1.823-9.169c-0.408-0.838-1-1.478-1.826-1.865
		c-2.611-1.223-5.364-1.568-8.211-1.226c-1.254,0.151-2.121,0.866-2.393,2.077c-0.329,1.466-0.693,2.967-0.7,4.455
		c-0.056,11.868-0.043,23.736-0.018,35.604c0.003,1.629,0.172,3.258,0.299,4.885c0.168,2.16,1.069,4.055,2.418,5.681
		c3.079,3.713,6.079,7.514,9.424,10.978c3.997,4.14,8.334,7.952,12.499,11.931c5.766,5.508,11.498,11.057,16.497,17.29
		c4.442,5.539,6.957,11.935,8.02,18.93c0.651,4.283,0.899,8.595,0.915,12.918c0.044,11.386,0.101,22.773,0.036,34.159
		c-0.044,7.705-1.344,15.185-4.63,22.235c-4.086,8.765-10.656,14.959-19.455,18.867c-5.343,2.373-10.934,3.893-16.702,4.721
		c-3.083,0.442-6.203,0.62-9.307,0.922c-0.108,0.01-0.21,0.076-0.314,0.116c-0.865,0-1.73,0-2.595,0
		c-1.116-0.095-2.233-0.183-3.348-0.286c-4.413-0.407-8.66-1.438-12.607-3.503c-6.354-3.323-10.551-8.577-13.288-15.081
		c-2.752-6.539-3.755-13.433-3.774-20.467c-0.051-18.929-0.018-37.859-0.016-56.788c0-0.253,0.022-0.505,0.036-0.808
		c11.617-0.465,23.16-0.928,34.751-1.392c0,0.422,0,0.732,0,1.042c0,17.128-0.001,34.255,0.002,51.383c0,0.6,0.015,1.2,0.05,1.799
		c0.16,2.673,0.523,5.297,1.782,7.723c0.383,0.737,0.939,1.12,1.735,1.218c2.534,0.311,4.97-0.135,7.355-0.96
		c1.902-0.658,3.111-1.982,3.781-3.866c0.745-2.097,0.863-4.268,0.863-6.458c0.002-9.056,0.015-18.113-0.007-27.169
		c-0.008-3.145-0.062-6.29-0.175-9.433c-0.095-2.64-0.513-5.219-2.164-7.413c-0.837-1.112-1.669-2.234-2.58-3.285
		c-4.694-5.416-9.868-10.362-15.109-15.233c-7.945-7.385-15.447-15.178-22.189-23.684c-3.657-4.614-6.215-9.74-7.077-15.615
		c-0.757-5.162-1.042-10.363-1.05-15.576c-0.02-11.675-0.016-23.349,0.001-35.024c0.004-2.52,0.029-5.044,0.176-7.559
		c0.29-4.98,1.136-9.866,2.883-14.56c2.421-6.508,6.306-11.886,12.26-15.621c4.462-2.8,9.39-4.179,14.592-4.693
		c1.038-0.102,2.078-0.194,3.117-0.291C62.392,5.395,63.449,5.395,64.506,5.395z"/>
	<g>
		<g>
			<path class="st0" d="M123.939,237.852c0-74.457,0-148.874,0-223.331c2.695-0.354,5.357-0.698,8.017-1.055
				c5.542-0.746,11.085-1.483,16.623-2.254c6.204-0.864,12.407-1.738,18.604-2.65c4.832-0.71,9.679-1.176,14.567-0.973
				c4.05,0.168,8.018,0.801,11.804,2.333c6.222,2.517,10.278,7.133,12.806,13.225c1.784,4.3,2.685,8.81,3.002,13.428
				c0.205,2.991,0.27,5.996,0.274,8.995c0.024,18.067,0.035,36.134-0.003,54.201c-0.011,5.279-0.836,10.434-3.155,15.243
				c-0.737,1.527-1.666,2.961-2.55,4.512c0.527,0.502,1.149,1.055,1.727,1.651c3.286,3.383,5.173,7.5,5.986,12.075
				c0.464,2.61,0.754,5.288,0.76,7.937c0.058,23.016,0.045,46.031,0.024,69.047c-0.005,5.241-0.716,10.389-2.513,15.342
				c-3.306,9.114-9.779,14.704-19.108,17.088c-5.434,1.388-10.971,1.681-16.518,1.183c-5.711-0.512-11.396-1.303-17.091-1.99
				c-5.648-0.681-11.292-1.396-16.941-2.077C134.845,239.13,129.432,238.501,123.939,237.852z M159.778,136.821
				c0,24.699,0,49.4,0,74.106c0.195,0.033,0.334,0.066,0.475,0.08c2.82,0.273,5.635,0.623,8.461,0.783
				c1.515,0.086,3.062-0.065,4.571-0.274c1.303-0.18,2.164-1.055,2.405-2.363c0.208-1.126,0.375-2.28,0.377-3.422
				c0.022-20.494,0.025-40.987-0.002-61.481c-0.002-1.551-0.238-3.105-0.41-4.652c-0.149-1.341-0.84-2.197-2.266-2.338
				c-0.499-0.049-0.989-0.24-1.486-0.253c-3.959-0.102-7.918-0.177-11.878-0.257C159.958,136.75,159.89,136.789,159.778,136.821z
				 M158.096,41.429c0,22.012,0,43.926,0,65.876c2.671-0.081,5.286-0.11,7.895-0.258c1.718-0.097,3.43-0.337,5.137-0.568
				c1.421-0.192,2.228-1.008,2.28-2.491c0.019-0.527,0.1-1.052,0.1-1.579c0.005-19.002,0.013-38.004-0.015-57.007
				c-0.002-1.235-0.275-2.471-0.447-3.702c-0.096-0.685-0.551-1.06-1.217-1.116c-1.121-0.096-2.256-0.28-3.366-0.189
				C165.02,40.678,161.586,41.073,158.096,41.429z"/>
			<path class="st0" d="M223.473,237.964v4.271h1.047v-5.955h-1.115l-1.811,2.816l-1.812-2.816h-1.114v5.955h1.029v-4.253
				l1.863,2.79h0.035L223.473,237.964z M215.672,237.25h1.889v-0.969h-4.832v0.969h1.889v4.985h1.055V237.25z"/>
		</g>
	</g>
	<g>
		<g>
			<path class="st0" d="M4.584,262.297h4.954l11.608,17.854v-17.854h5.164v27.13h-4.968L9.748,271.63v17.797H4.584V262.297z"/>
			<path class="st0" d="M35.546,262.297h14.81v5.054h-9.682v4.906h9.682v4.961h-9.682v7.137h9.682v5.072h-14.81V262.297z"/>
			<path class="st0" d="M56.135,262.297h5.08l3.92,17.318l4.844-17.318h4.294l4.916,17.318l3.883-17.318h5.08l-6.112,27.13h-4.953
				l-4.998-17.539l-4.906,17.539h-4.906L56.135,262.297z"/>
			<path class="st0" d="M115.542,262.297h5.182v18.001c0,2.864-0.228,4.875-0.682,6.03c-0.455,1.156-1.205,2.075-2.25,2.758
				c-1.045,0.682-2.299,1.023-3.763,1.023c-2.987,0-5.533-1.31-7.635-3.929l3.726-3.485c0.824,0.935,1.524,1.562,2.103,1.881
				c0.578,0.32,1.137,0.479,1.678,0.479c0.553,0,0.965-0.233,1.236-0.701c0.27-0.467,0.406-1.493,0.406-3.079V262.297z"/>
			<path class="st0" d="M129.962,262.297h14.811v5.054h-9.683v4.906h9.683v4.961h-9.683v7.137h9.683v5.072h-14.811V262.297z"/>
			<path class="st0" d="M152.958,262.297h5.471c2.996,0,5.13,0.268,6.401,0.803s2.294,1.423,3.067,2.665s1.161,2.711,1.161,4.408
				c0,1.782-0.428,3.273-1.282,4.472c-0.854,1.199-2.143,2.105-3.863,2.721l6.427,12.062h-5.646l-6.101-11.49h-0.472v11.49h-5.164
				V262.297z M158.122,272.903h1.617c1.643,0,2.773-0.216,3.393-0.647s0.929-1.147,0.929-2.147c0-0.592-0.153-1.106-0.46-1.545
				c-0.307-0.438-0.717-0.752-1.232-0.943c-0.515-0.191-1.458-0.287-2.831-0.287h-1.415V272.903z"/>
			<path class="st0" d="M191.776,265.987l-3.824,3.375c-1.343-1.869-2.71-2.804-4.102-2.804c-0.678,0-1.231,0.182-1.663,0.544
				c-0.431,0.363-0.646,0.771-0.646,1.227s0.153,0.886,0.462,1.291c0.419,0.541,1.681,1.703,3.787,3.485
				c1.971,1.648,3.165,2.687,3.584,3.117c1.047,1.058,1.789,2.068,2.227,3.034c0.437,0.965,0.655,2.02,0.655,3.163
				c0,2.225-0.769,4.063-2.308,5.514c-1.538,1.451-3.545,2.177-6.019,2.177c-1.933,0-3.616-0.474-5.05-1.42
				c-1.434-0.947-2.662-2.435-3.684-4.464l4.341-2.618c1.306,2.397,2.808,3.596,4.507,3.596c0.887,0,1.632-0.258,2.235-0.774
				s0.905-1.112,0.905-1.789c0-0.614-0.229-1.229-0.684-1.844c-0.456-0.615-1.46-1.556-3.012-2.822
				c-2.956-2.409-4.865-4.27-5.728-5.579c-0.861-1.31-1.293-2.615-1.293-3.919c0-1.881,0.718-3.495,2.151-4.841
				c1.435-1.347,3.204-2.02,5.309-2.02c1.354,0,2.644,0.313,3.869,0.94C189.022,263.183,190.349,264.327,191.776,265.987z"/>
			<path class="st0" d="M200.221,262.297h14.81v5.054h-9.683v4.906h9.683v4.961h-9.683v7.137h9.683v5.072h-14.81V262.297z"/>
			<path class="st0" d="M220.938,262.297h5.544l5.062,9.76l5.037-9.76h5.475l-7.939,15.382v11.748h-5.201v-11.748L220.938,262.297z"
				/>
		</g>
	</g>
</g>
</svg>
