<?xml version="1.0" encoding="UTF-8"?><svg id="Layer_2" xmlns="http://www.w3.org/2000/svg" viewBox="0 0 197.46 284.71"><defs><style>.cls-1{fill:#7e7e7e;}</style></defs><g id="Layer_1-2"><path class="cls-1" d="m37.44,0c.44.05.88.11,1.33.14,8.95.64,17.63,2.34,25.81,6.2,9.47,4.47,15.69,11.79,18.98,21.67,1.78,5.35,2.6,10.86,2.82,16.47.05,1.25.07,2.5.07,3.74,0,14.85,0,29.69,0,44.54v.96c-11.44-.49-22.82-.97-34.31-1.46v-.94c0-14.41.01-28.83,0-43.24,0-3.16-.41-6.27-1.82-9.17-.41-.84-1-1.48-1.83-1.87-2.61-1.22-5.36-1.57-8.21-1.23-1.25.15-2.12.87-2.39,2.08-.33,1.47-.69,2.97-.7,4.45-.06,11.87-.04,23.74-.02,35.6,0,1.63.17,3.26.3,4.89.17,2.16,1.07,4.06,2.42,5.68,3.08,3.71,6.08,7.51,9.42,10.98,4,4.14,8.33,7.95,12.5,11.93,5.77,5.51,11.5,11.06,16.5,17.29,4.44,5.54,6.96,11.93,8.02,18.93.65,4.28.9,8.6.92,12.92.04,11.39.1,22.77.04,34.16-.04,7.7-1.34,15.19-4.63,22.24-4.09,8.77-10.66,14.96-19.46,18.87-5.34,2.37-10.93,3.89-16.7,4.72-3.08.44-6.2.62-9.31.92-.11.01-.21.08-.31.12h-2.59c-1.12-.09-2.23-.18-3.35-.29-4.41-.41-8.66-1.44-12.61-3.5-6.35-3.32-10.55-8.58-13.29-15.08-2.75-6.54-3.76-13.43-3.77-20.47-.05-18.93-.02-37.86-.02-56.79,0-.25.02-.51.04-.81,11.62-.47,23.16-.93,34.75-1.39v1.04c0,17.13,0,34.26,0,51.38,0,.6.01,1.2.05,1.8.16,2.67.52,5.3,1.78,7.72.38.74.94,1.12,1.74,1.22,2.53.31,4.97-.14,7.36-.96,1.9-.66,3.11-1.98,3.78-3.87.75-2.1.86-4.27.86-6.46,0-9.06.02-18.11,0-27.17,0-3.14-.06-6.29-.18-9.43-.09-2.64-.51-5.22-2.16-7.41-.84-1.11-1.67-2.23-2.58-3.28-4.69-5.42-9.87-10.36-15.11-15.23-7.95-7.38-15.45-15.18-22.19-23.68-3.66-4.61-6.22-9.74-7.08-15.62-.76-5.16-1.04-10.36-1.05-15.58-.02-11.67-.02-23.35,0-35.02,0-2.52.03-5.04.18-7.56.29-4.98,1.14-9.87,2.88-14.56,2.42-6.51,6.31-11.89,12.26-15.62C21.03,2.18,25.95.8,31.16.29,32.19.19,33.23.1,34.27,0c1.06,0,2.11,0,3.17,0Zm75.75,234.39c5.65.68,11.29,1.4,16.94,2.08,5.69.69,11.38,1.48,17.09,1.99,5.55.5,11.08.2,16.52-1.18,9.33-2.38,15.8-7.97,19.11-17.09,1.8-4.95,2.51-10.1,2.51-15.34.02-23.02.03-46.03-.02-69.05,0-2.65-.3-5.33-.76-7.94-.81-4.58-2.7-8.69-5.99-12.07-.58-.6-1.2-1.15-1.73-1.65.88-1.55,1.81-2.98,2.55-4.51,2.32-4.81,3.14-9.96,3.16-15.24.04-18.07.03-36.13,0-54.2,0-3-.07-6-.27-9-.32-4.62-1.22-9.13-3-13.43-2.53-6.09-6.58-10.71-12.81-13.22-3.79-1.53-7.75-2.16-11.8-2.33-4.89-.2-9.73.26-14.57.97-6.2.91-12.4,1.79-18.6,2.65-5.54.77-11.08,1.51-16.62,2.25-2.66.36-5.32.7-8.02,1.06v223.33c5.49.65,10.91,1.28,16.32,1.93Zm19.77-103.03c3.96.08,7.92.15,11.88.26.5.01.99.2,1.49.25,1.43.14,2.12,1,2.27,2.34.17,1.55.41,3.1.41,4.65.03,20.49.02,40.99,0,61.48,0,1.14-.17,2.3-.38,3.42-.24,1.31-1.1,2.18-2.41,2.36-1.51.21-3.06.36-4.57.27-2.83-.16-5.64-.51-8.46-.78-.14-.01-.28-.05-.48-.08v-74.11c.11-.03.18-.07.25-.07Zm8.44-96.36c1.11-.09,2.25.09,3.37.19.67.06,1.12.43,1.22,1.12.17,1.23.45,2.47.45,3.7.03,19,.02,38,.02,57.01,0,.53-.08,1.05-.1,1.58-.05,1.48-.86,2.3-2.28,2.49-1.71.23-3.42.47-5.14.57-2.61.15-5.22.18-7.9.26V36.03c3.49-.36,6.92-.75,10.37-1.03Zm53.13,200.38h-.03l-1.86-2.79v4.25h-1.03v-5.95h1.11l1.81,2.82,1.81-2.82h1.12v5.95h-1.05v-4.27l-1.88,2.81Zm-5.92,1.46h-1.05v-4.99h-1.89v-.97h4.83v.97h-1.89v4.99ZM9.72,284.02h5.04l9.89-27.45h-5.37l-7.01,19.5-6.91-19.5H0l9.72,27.45Zm21.81,0h5.19v-27.45h-5.19v27.45Zm14.48,0h5.23v-11.63h.48l6.17,11.63h5.71l-6.5-12.21c1.74-.62,3.04-1.54,3.91-2.75.86-1.21,1.3-2.72,1.3-4.53s-.39-3.2-1.17-4.46c-.78-1.26-1.82-2.16-3.1-2.7s-3.45-.81-6.48-.81h-5.54v27.45Zm5.23-22.36h1.43c1.39,0,2.34.1,2.86.29.52.19.94.51,1.25.96.31.44.46.96.46,1.56,0,1.01-.31,1.74-.94,2.17-.63.44-1.77.66-3.43.66h-1.64v-5.64Zm39.84-4.46c-2.08-.88-4.31-1.32-6.7-1.32-4.57,0-8.27,1.6-11.12,4.8-2.4,2.69-3.6,5.85-3.6,9.48,0,2.65.65,5.12,1.95,7.41,1.3,2.29,3.07,4.05,5.3,5.29,2.23,1.24,4.77,1.86,7.62,1.86,2.66,0,4.98-.57,6.96-1.7,1.98-1.13,3.59-2.77,4.83-4.93,1.24-2.15,1.87-4.43,1.87-6.83l-.04-1.16h-13.81v4.91h7.95c-.76,1.62-1.76,2.81-3,3.57s-2.76,1.14-4.57,1.14c-2.78,0-5.11-.92-7.01-2.76-1.89-1.84-2.84-4.09-2.84-6.74s.91-4.74,2.74-6.53,4.09-2.69,6.79-2.69c3.1,0,5.82,1.23,8.14,3.7l3.68-3.64c-1.68-1.82-3.4-3.1-5.15-3.84Zm14.59,26.82h5.19v-27.45h-5.19v27.45Zm14.14,0h5.23v-18.01l11.73,18.01h5.03v-27.45h-5.23v18.07l-11.75-18.07h-5.01v27.45Zm30.94,0h5.19v-27.45h-5.19v27.45Zm11.91,0h5.43l2.23-5.66h11.2l2.15,5.66h5.43l-10.56-27.45h-5.3l-10.59,27.45Zm16.93-10.75h-7.35l3.68-9.42,3.66,9.42Z"/></g></svg>