<?xml version="1.0" encoding="utf-8"?>
<svg version="1.1" id="Layer_1" xmlns="http://www.w3.org/2000/svg" xmlns:xlink="http://www.w3.org/1999/xlink" x="0px" y="0px" viewBox="0 0 224.50342 284.03165" style="enable-background:new 0 0 224.50342 284.03165;" xml:space="preserve">
<style type="text/css">.st0{fill:#6c6e76;}</style>
<g>
	<path class="st0" d="M54.82582,0c0.44275,0.04826,0.88445,0.11107,1.32838,0.14264
		c8.94584,0.63607,17.63427,2.33605,25.80713,6.19664c9.47081,4.47369,15.68623,11.79017,18.98244,21.67101
		c1.7841,5.34809,2.59959,10.86055,2.8186,16.47455c0.04865,1.24701,0.07232,2.49579,0.07273,3.74376
		c0.00486,14.84691,0.00314,29.69382,0.00314,44.54073c0,0.28354,0,0.56709,0,0.96098
		c-11.43983-0.48696-22.81917-0.97135-34.30796-1.4604c0-0.33438,0-0.63471,0-0.93505c0-14.41447,0.01176-28.82897-0.0092-43.24342
		c-0.00461-3.1647-0.41019-6.26896-1.82258-9.16896c-0.40817-0.8381-1.0002-1.47808-1.82645-1.865
		c-2.61076-1.22258-5.36386-1.5685-8.21054-1.22554c-1.25418,0.1511-2.12116,0.86612-2.39308,2.07699
		c-0.32917,1.46577-0.69304,2.96729-0.70009,4.45495c-0.05618,11.86765-0.04307,23.73571-0.0177,35.60358
		c0.00348,1.6287,0.17218,3.25849,0.2985,4.88512c0.16771,2.15962,1.06948,4.05502,2.4178,5.6814
		c3.07856,3.71348,6.07936,7.51444,9.42398,10.97841c3.99732,4.13995,8.3335,7.95167,12.49904,11.93055
		c5.76604,5.50768,11.49809,11.05692,16.49657,17.28972c4.44222,5.53922,6.95744,11.93454,8.02013,18.92993
		c0.65062,4.28287,0.89871,8.59526,0.91538,12.91821c0.0439,11.38625,0.10067,22.77301,0.036,34.15892
		c-0.04375,7.7047-1.34447,15.18539-4.6304,22.23529c-4.08551,8.76541-10.65649,14.9593-19.45544,18.86653
		c-5.34341,2.37277-10.9341,3.89328-16.70207,4.72121c-3.08271,0.44249-6.20349,0.61958-9.30659,0.92157
		c-0.10752,0.01045-0.20968,0.07588-0.31434,0.11569c-0.86494,0-1.72987,0-2.59481,0
		c-1.11604-0.09499-2.2327-0.18329-3.34801-0.28616c-4.41338-0.4071-8.65963-1.43811-12.60727-3.50272
		c-6.35411-3.32315-10.55119-8.577-13.28808-15.08113c-2.75171-6.53935-3.75528-13.43338-3.77424-20.46666
		c-0.05105-18.92917-0.01759-37.85855-0.01601-56.78787c0.00002-0.25267,0.02173-0.50537,0.0356-0.80775
		c11.61655-0.46539,23.16025-0.92786,34.75127-1.39221c0,0.42239,0,0.73236,0,1.04231c0,17.12767-0.0005,34.25533,0.00209,51.38298
		c0.00009,0.59966,0.01464,1.20029,0.0505,1.79877c0.16016,2.67343,0.52329,5.2966,1.78247,7.72319
		c0.38255,0.73723,0.9393,1.12038,1.73509,1.21793c2.53407,0.31061,4.9702-0.13525,7.35501-0.95982
		c1.90202-0.65765,3.11124-1.98196,3.78098-3.86647c0.74538-2.09732,0.86304-4.2677,0.86346-6.45799
		c0.00175-9.05629,0.01501-18.11258-0.00703-27.16882c-0.00765-3.14458-0.06207-6.29048-0.17506-9.43292
		c-0.09492-2.63965-0.51288-5.21863-2.16418-7.41284c-0.83713-1.11234-1.66887-2.23381-2.57973-3.28468
		c-4.69415-5.41571-9.86827-10.36195-15.10946-15.2332c-7.94537-7.38451-15.44653-15.17773-22.18938-23.68421
		c-3.65735-4.61393-6.21521-9.74033-7.07656-15.6152c-0.75685-5.16214-1.04152-10.36336-1.05033-15.57642
		c-0.01973-11.67464-0.01578-23.34935,0.00143-35.024c0.00372-2.52004,0.02917-5.0443,0.17576-7.55898
		c0.29031-4.98019,1.13615-9.86577,2.88272-14.56036c2.42135-6.50838,6.3055-11.88554,12.25981-15.6214
		c4.46236-2.79979,9.39032-4.1794,14.59208-4.69281C49.57578,0.18805,50.61533,0.09656,51.65439,0C52.71154,0,53.76868,0,54.82582,0
		z"/>
	<g>
		<path class="st0" d="M114.25856,232.45663c0-74.45718,0-148.87436,0-223.33075c2.69508-0.35434,5.35705-0.6975,8.01702-1.05546
			c5.54183-0.74578,11.08488-1.4832,16.62325-2.25408c6.20409-0.86354,12.40677-1.73849,18.60402-2.64957
			c4.83224-0.71041,9.67857-1.17591,14.56671-0.97268c4.05038,0.1684,8.01816,0.80141,11.80383,2.33297
			c6.22191,2.5172,10.27847,7.13345,12.80551,13.22491c1.78366,4.29955,2.68549,8.81011,3.0016,13.42847
			c0.20471,2.9909,0.26958,5.99621,0.27353,8.99523c0.02377,18.06694,0.0351,36.13398-0.0027,54.20087
			c-0.01105,5.27921-0.83583,10.43351-3.15517,15.2425c-0.73656,1.52727-1.66643,2.9613-2.54997,4.51189
			c0.5275,0.50227,1.14883,1.05547,1.72691,1.65067c3.2856,3.3829,5.17337,7.49971,5.98636,12.075
			c0.46382,2.61021,0.75371,5.28847,0.76035,7.93698c0.0576,23.01564,0.0452,46.03146,0.02415,69.04721
			c-0.00481,5.24136-0.716,10.38878-2.51254,15.34216c-3.30551,9.11394-9.77855,14.70413-19.10783,17.08755
			c-5.43358,1.38815-10.97142,1.68088-16.51817,1.18344c-5.71057-0.51215-11.39647-1.30257-17.09097-1.98956
			c-5.64816-0.68138-11.29239-1.39557-16.94055-2.07697C125.16439,233.7348,119.75203,233.10577,114.25856,232.45663z
			 M150.09743,131.42601c0,24.69896,0,49.40033,0,74.10616c0.19484,0.03325,0.33424,0.06615,0.47551,0.07982
			c2.81953,0.27303,5.63481,0.62282,8.46082,0.78329c1.51544,0.08606,3.06168-0.0654,4.57124-0.27414
			c1.30318-0.18021,2.16425-1.05513,2.40524-2.36261c0.20761-1.12637,0.37546-2.27982,0.37669-3.42151
			c0.02203-20.4937,0.02512-40.98743-0.00212-61.48109c-0.00206-1.55118-0.23796-3.10471-0.40982-4.65218
			c-0.14893-1.34084-0.83957-2.19713-2.26651-2.3381c-0.49919-0.04933-0.98929-0.23996-1.48645-0.25275
			c-3.95883-0.10178-7.91833-0.17659-11.87772-0.2565C150.27754,131.35504,150.20999,131.39308,150.09743,131.42601z
			 M148.41554,36.03395c0,22.01169,0,43.92615,0,65.87595c2.67094-0.08118,5.28641-0.10995,7.89513-0.25793
			c1.71785-0.09743,3.42992-0.33733,5.13721-0.5679c1.4209-0.1919,2.22763-1.00792,2.27988-2.49122
			c0.01857-0.52677,0.10007-1.05241,0.10022-1.57858c0.00539-19.0022,0.01311-38.00442-0.0153-57.00658
			c-0.00183-1.23461-0.27473-2.47066-0.4473-3.70243c-0.09596-0.68501-0.55106-1.05967-1.21671-1.11645
			c-1.12073-0.0956-2.25645-0.27972-3.36633-0.18862C155.33948,35.28279,151.90582,35.67739,148.41554,36.03395z"/>
		<path class="st0" d="M213.79292,232.56874v4.27094h1.04674v-5.95468h-1.11504l-1.81136,2.81557l-1.81248-2.81557h-1.11392v5.95468 h1.02884v-4.25302l1.86285,2.78983h0.03471L213.79292,232.56874z M205.99217,231.85449h1.88863v-0.9695h-4.83182v0.9695h1.88863 v4.98518h1.05457V231.85449z"/>
	</g>
	<g>
		<path class="st0" d="M4.69727,256.90176h5.03125l6.28906,18.92285l6.34619-18.92285h5.02832l4.55127,27.12988h-4.99414 l-2.90869-17.13379l-5.76367,17.13379h-4.55078l-5.7124-17.13379l-2.97852,17.13379H0L4.69727,256.90176z"/>
		<path class="st0" d="M47.354,256.90176h5.2373l10.43408,27.12988h-5.3667l-2.12256-5.58789H44.46582l-2.20703,5.58789h-5.3667 L47.354,256.90176z M50.00488,264.09512l-3.64014,9.31348h7.2583L50.00488,264.09512z"/>
		<path class="st0" d="M70.39062,256.90176h5.47119c2.99658,0,5.13037,0.26758,6.40137,0.80273s2.29346,1.42285,3.06738,2.66504 s1.16064,2.71094,1.16064,4.4082c0,1.78223-0.42725,3.27344-1.28174,4.47168c-0.85449,1.19922-2.14209,2.10547-3.86328,2.7207 l6.42676,12.06152h-5.64502l-6.10059-11.49023h-0.47266v11.49023h-5.16406V256.90176z M75.55469,267.50723h1.61816 c1.64209,0,2.77295-0.21582,3.39209-0.64746c0.61865-0.43164,0.92822-1.14746,0.92822-2.14746 c0-0.5918-0.15332-1.10645-0.45947-1.54492c-0.30664-0.4375-0.71729-0.75195-1.23193-0.94336s-1.4585-0.28711-2.83105-0.28711 h-1.41602V267.50723z"/>
		<path class="st0" d="M93.04443,256.90176h5.54443l5.06104,9.75977l5.0376-9.75977h5.47412l-7.93945,15.38184v11.74805H101.021 V272.2836L93.04443,256.90176z"/>
		<path class="st0" d="M121.4165,256.90176h5.16406v22.20605h7.52441v4.92383H121.4165V256.90176z"/>
		<path class="st0" d="M149.33252,256.90176h5.2373l10.43457,27.12988h-5.36719l-2.12305-5.58789h-11.06934l-2.20703,5.58789 h-5.36719L149.33252,256.90176z M151.98291,264.09512l-3.63965,9.31348h7.25879L151.98291,264.09512z"/>
		<path class="st0" d="M172.03662,256.90176h4.95312l11.6084,17.85352v-17.85352h5.16406v27.12988h-4.96777l-11.59375-17.79688 v17.79688h-5.16406V256.90176z"/>
		<path class="st0" d="M202.99951,256.90176h6.11719c3.94336,0,6.87305,0.48926,8.79004,1.4668 c1.91602,0.97754,3.49512,2.56641,4.73535,4.76758c1.24121,2.20117,1.86133,4.77051,1.86133,7.70898 c0,2.08984-0.34668,4.01074-1.04102,5.76367c-0.69434,1.75195-1.65234,3.20605-2.875,4.36133 c-1.22266,1.15625-2.5459,1.95508-3.9707,2.39746s-3.89453,0.66406-7.40723,0.66406h-6.20996V256.90176z M208.12646,261.88223 v17.11426h2.39746c2.36035,0,4.07227-0.27051,5.13672-0.8125c1.0625-0.54102,1.93262-1.45215,2.60938-2.73242 c0.67578-1.2793,1.01465-2.85547,1.01465-4.72656c0-2.87988-0.80566-5.11328-2.41602-6.70117 c-1.45117-1.42773-3.78125-2.1416-6.99023-2.1416H208.12646z"/>
	</g>
</g>
</svg>
