<?xml version="1.0" encoding="utf-8"?>
<!-- Generator: Adobe Illustrator 26.0.3, SVG Export Plug-In . SVG Version: 6.00 Build 0)  -->
<svg version="1.1" id="Layer_1" xmlns="http://www.w3.org/2000/svg" xmlns:xlink="http://www.w3.org/1999/xlink" x="0px" y="0px"
	 viewBox="0 0 196.23 284.71" style="enable-background:new 0 0 196.23 284.71;" xml:space="preserve">
<style type="text/css">
	.st0{fill:#7E7E7E;}
</style>
<path class="st0" d="M36.22,0c0.44,0.05,0.88,0.11,1.33,0.14c8.95,0.64,17.63,2.34,25.81,6.2c9.47,4.47,15.69,11.79,18.98,21.67
	c1.78,5.35,2.6,10.86,2.82,16.47c0.05,1.25,0.07,2.5,0.07,3.74c0,14.85,0,29.69,0,44.54c0,0.28,0,0.57,0,0.96
	c-11.44-0.49-22.82-0.97-34.31-1.46c0-0.33,0-0.63,0-0.94c0-14.41,0.01-28.83-0.01-43.24c0-3.16-0.41-6.27-1.82-9.17
	c-0.41-0.84-1-1.48-1.83-1.87c-2.61-1.22-5.36-1.57-8.21-1.23c-1.25,0.15-2.12,0.87-2.39,2.08c-0.33,1.47-0.69,2.97-0.7,4.45
	c-0.06,11.87-0.04,23.74-0.02,35.6c0,1.63,0.17,3.26,0.3,4.89c0.17,2.16,1.07,4.06,2.42,5.68c3.08,3.71,6.08,7.51,9.42,10.98
	c4,4.14,8.33,7.95,12.5,11.93c5.77,5.51,11.5,11.06,16.5,17.29c4.44,5.54,6.96,11.93,8.02,18.93c0.65,4.28,0.9,8.6,0.92,12.92
	c0.04,11.39,0.1,22.77,0.04,34.16c-0.04,7.7-1.34,15.19-4.63,22.24c-4.09,8.77-10.66,14.96-19.46,18.87
	c-5.34,2.37-10.93,3.89-16.7,4.72c-3.08,0.44-6.2,0.62-9.31,0.92c-0.11,0.01-0.21,0.08-0.31,0.12c-0.86,0-1.73,0-2.59,0
	c-1.12-0.09-2.23-0.18-3.35-0.29c-4.41-0.41-8.66-1.44-12.61-3.5c-6.35-3.32-10.55-8.58-13.29-15.08
	c-2.75-6.54-3.76-13.43-3.77-20.47c-0.05-18.93-0.02-37.86-0.02-56.79c0-0.25,0.02-0.51,0.04-0.81c11.62-0.47,23.16-0.93,34.75-1.39
	c0,0.42,0,0.73,0,1.04c0,17.13,0,34.26,0,51.38c0,0.6,0.01,1.2,0.05,1.8c0.16,2.67,0.52,5.3,1.78,7.72
	c0.38,0.74,0.94,1.12,1.74,1.22c2.53,0.31,4.97-0.14,7.36-0.96c1.9-0.66,3.11-1.98,3.78-3.87c0.75-2.1,0.86-4.27,0.86-6.46
	c0-9.06,0.02-18.11-0.01-27.17c-0.01-3.14-0.06-6.29-0.18-9.43c-0.09-2.64-0.51-5.22-2.16-7.41c-0.84-1.11-1.67-2.23-2.58-3.28
	c-4.69-5.42-9.87-10.36-15.11-15.23c-7.95-7.38-15.45-15.18-22.19-23.68c-3.66-4.61-6.22-9.74-7.08-15.62
	c-0.76-5.16-1.04-10.36-1.05-15.58C0,66.07,0,54.4,0.02,42.72c0-2.52,0.03-5.04,0.18-7.56c0.29-4.98,1.14-9.87,2.88-14.56
	C5.5,14.1,9.38,8.72,15.34,4.98c4.46-2.8,9.39-4.18,14.59-4.69c1.04-0.1,2.08-0.19,3.12-0.29C34.1,0,35.16,0,36.22,0z"/>
<g>
	<path class="st0" d="M95.65,232.46c0-74.46,0-148.87,0-223.33c2.7-0.35,5.36-0.7,8.02-1.06c5.54-0.75,11.08-1.48,16.62-2.25
		c6.2-0.86,12.41-1.74,18.6-2.65c4.83-0.71,9.68-1.18,14.57-0.97c4.05,0.17,8.02,0.8,11.8,2.33c6.22,2.52,10.28,7.13,12.81,13.22
		c1.78,4.3,2.69,8.81,3,13.43c0.2,2.99,0.27,6,0.27,9c0.02,18.07,0.04,36.13,0,54.2c-0.01,5.28-0.84,10.43-3.16,15.24
		c-0.74,1.53-1.67,2.96-2.55,4.51c0.53,0.5,1.15,1.06,1.73,1.65c3.29,3.38,5.17,7.5,5.99,12.07c0.46,2.61,0.75,5.29,0.76,7.94
		c0.06,23.02,0.05,46.03,0.02,69.05c0,5.24-0.72,10.39-2.51,15.34c-3.31,9.11-9.78,14.7-19.11,17.09
		c-5.43,1.39-10.97,1.68-16.52,1.18c-5.71-0.51-11.4-1.3-17.09-1.99c-5.65-0.68-11.29-1.4-16.94-2.08
		C106.56,233.73,101.14,233.11,95.65,232.46z M131.49,131.43c0,24.7,0,49.4,0,74.11c0.19,0.03,0.33,0.07,0.48,0.08
		c2.82,0.27,5.63,0.62,8.46,0.78c1.52,0.09,3.06-0.07,4.57-0.27c1.3-0.18,2.16-1.06,2.41-2.36c0.21-1.13,0.38-2.28,0.38-3.42
		c0.02-20.49,0.03-40.99,0-61.48c0-1.55-0.24-3.1-0.41-4.65c-0.15-1.34-0.84-2.2-2.27-2.34c-0.5-0.05-0.99-0.24-1.49-0.25
		c-3.96-0.1-7.92-0.18-11.88-0.26C131.67,131.36,131.6,131.39,131.49,131.43z M129.81,36.03c0,22.01,0,43.93,0,65.88
		c2.67-0.08,5.29-0.11,7.9-0.26c1.72-0.1,3.43-0.34,5.14-0.57c1.42-0.19,2.23-1.01,2.28-2.49c0.02-0.53,0.1-1.05,0.1-1.58
		c0.01-19,0.01-38-0.02-57.01c0-1.23-0.27-2.47-0.45-3.7c-0.1-0.69-0.55-1.06-1.22-1.12c-1.12-0.1-2.26-0.28-3.37-0.19
		C136.73,35.28,133.3,35.68,129.81,36.03z"/>
	<path class="st0" d="M195.18,232.57v4.27h1.05v-5.95h-1.12l-1.81,2.82l-1.81-2.82h-1.11v5.95h1.03v-4.25l1.86,2.79h0.03
		L195.18,232.57z M187.38,231.85h1.89v-0.97h-4.83v0.97h1.89v4.99h1.05V231.85z"/>
</g>
<g>
	<path class="st0" d="M40.13,256.9h5.13v27.13h-5.13V256.9z"/>
	<path class="st0" d="M66.89,256.22c3.84,0,7.14,1.39,9.9,4.17c2.76,2.78,4.14,6.17,4.14,10.16c0,3.96-1.36,7.31-4.09,10.05
		c-2.73,2.74-6.03,4.11-9.92,4.11c-4.07,0-7.46-1.41-10.15-4.22c-2.69-2.82-4.04-6.16-4.04-10.03c0-2.59,0.63-4.98,1.88-7.16
		c1.25-2.18,2.98-3.9,5.18-5.17C61.99,256.86,64.36,256.22,66.89,256.22z M66.84,261.27c-2.51,0-4.62,0.87-6.33,2.62
		c-1.71,1.75-2.57,3.96-2.57,6.66c0,3,1.08,5.37,3.23,7.12c1.67,1.36,3.59,2.05,5.76,2.05c2.45,0,4.54-0.89,6.26-2.66
		c1.72-1.77,2.58-3.95,2.58-6.55c0-2.58-0.87-4.77-2.6-6.56S69.32,261.27,66.84,261.27z"/>
	<path class="st0" d="M86.77,256.9h5.08l3.92,17.32l4.84-17.32h4.29l4.92,17.32l3.88-17.32h5.08l-6.11,27.13h-4.95l-5-17.54
		l-4.91,17.54h-4.91L86.77,256.9z"/>
	<path class="st0" d="M134.12,256.9h5.24l10.43,27.13h-5.37l-2.12-5.59h-11.07l-2.21,5.59h-5.37L134.12,256.9z M136.77,264.1
		l-3.64,9.31h7.26L136.77,264.1z"/>
</g>
</svg>
