<?xml version="1.0" encoding="utf-8"?>
<!-- Generator: Adobe Illustrator 26.0.0, SVG Export Plug-In . SVG Version: 6.00 Build 0)  -->
<svg version="1.1" id="Layer_1" xmlns="http://www.w3.org/2000/svg" xmlns:xlink="http://www.w3.org/1999/xlink" x="0px" y="0px"
	 viewBox="0 0 193.426 280.124" style="enable-background:new 0 0 193.426 280.124;" xml:space="preserve">
<style type="text/css">
	.st0{fill:#6C6E76;}
</style>
<g>
	<g>
		<path class="st0" d="M36.19,0.867c0.433,0.047,0.865,0.109,1.299,0.139c8.747,0.622,17.243,2.284,25.234,6.059
			c9.26,4.374,15.338,11.528,18.561,21.19c1.744,5.229,2.542,10.619,2.756,16.109c0.048,1.219,0.071,2.44,0.071,3.661
			c0.005,14.517,0.003,29.034,0.003,43.551c0,0.277,0,0.554,0,0.94c-11.186-0.476-22.312-0.95-33.546-1.428c0-0.327,0-0.621,0-0.914
			c0-14.094,0.012-28.189-0.009-42.283c-0.005-3.094-0.401-6.13-1.782-8.965c-0.399-0.819-0.978-1.445-1.786-1.824
			c-2.553-1.195-5.245-1.534-8.028-1.198c-1.226,0.148-2.074,0.847-2.34,2.031c-0.322,1.433-0.678,2.901-0.685,4.356
			c-0.055,11.604-0.042,23.208-0.017,34.813c0.003,1.593,0.168,3.186,0.292,4.777c0.164,2.112,1.046,3.965,2.364,5.555
			c3.01,3.631,5.944,7.348,9.215,10.735c3.909,4.048,8.148,7.775,12.221,11.666c5.638,5.385,11.243,10.811,16.13,16.906
			c4.344,5.416,6.803,11.669,7.842,18.509c0.636,4.188,0.879,8.404,0.895,12.631c0.043,11.133,0.098,22.267,0.035,33.4
			c-0.043,7.534-1.315,14.848-4.528,21.741c-3.995,8.571-10.42,14.627-19.023,18.447c-5.225,2.32-10.691,3.807-16.331,4.616
			c-3.014,0.433-6.066,0.606-9.1,0.901c-0.105,0.01-0.205,0.074-0.307,0.113c-0.846,0-1.691,0-2.537,0
			c-1.091-0.093-2.183-0.179-3.274-0.28c-4.315-0.398-8.467-1.406-12.327-3.425c-6.213-3.249-10.317-8.386-12.993-14.746
			c-2.691-6.394-3.672-13.135-3.69-20.012c-0.05-18.509-0.017-37.018-0.016-55.526c0-0.247,0.021-0.494,0.035-0.79
			c11.359-0.455,22.646-0.907,33.979-1.361c0,0.413,0,0.716,0,1.019c0,16.747,0,33.494,0.002,50.242
			c0,0.586,0.014,1.174,0.049,1.759c0.157,2.614,0.512,5.179,1.743,7.552c0.374,0.721,0.918,1.096,1.697,1.191
			c2.478,0.304,4.86-0.132,7.192-0.938c1.86-0.643,3.042-1.938,3.697-3.781c0.729-2.051,0.844-4.173,0.844-6.315
			c0.002-8.855,0.015-17.71-0.007-26.565c-0.007-3.075-0.061-6.151-0.171-9.223c-0.093-2.581-0.501-5.103-2.116-7.248
			c-0.819-1.088-1.632-2.184-2.522-3.212c-4.59-5.295-9.649-10.132-14.774-14.895c-7.769-7.22-15.103-14.841-21.696-23.158
			c-3.576-4.511-6.077-9.524-6.919-15.268c-0.74-5.047-1.018-10.133-1.027-15.23C0.774,65.473,0.778,54.057,0.795,42.642
			c0.004-2.464,0.029-4.932,0.172-7.391c0.284-4.87,1.111-9.647,2.819-14.237C6.153,14.65,9.951,9.393,15.773,5.74
			c4.363-2.738,9.182-4.087,14.268-4.589c1.015-0.1,2.032-0.19,3.048-0.284C34.122,0.867,35.156,0.867,36.19,0.867z"/>
		<g>
			<path class="st0" d="M94.302,228.16c0-72.803,0-145.567,0-218.37c2.635-0.346,5.238-0.682,7.839-1.032
				c5.419-0.729,10.839-1.45,16.254-2.204c6.066-0.844,12.131-1.7,18.191-2.591c4.725-0.695,9.464-1.15,14.243-0.951
				c3.96,0.165,7.84,0.784,11.542,2.281c6.084,2.461,10.05,6.975,12.521,12.931c1.744,4.204,2.626,8.614,2.935,13.13
				c0.2,2.924,0.264,5.863,0.267,8.795c0.023,17.666,0.034,35.331-0.003,52.997c-0.011,5.162-0.817,10.202-3.085,14.904
				c-0.72,1.493-1.629,2.896-2.493,4.412c0.516,0.491,1.123,1.032,1.689,1.614c3.213,3.308,5.058,7.333,5.853,11.807
				c0.454,2.552,0.737,5.171,0.743,7.761c0.056,22.504,0.044,45.009,0.024,67.513c-0.005,5.125-0.7,10.158-2.457,15.001
				c-3.232,8.911-9.561,14.378-18.683,16.708c-5.313,1.357-10.728,1.644-16.151,1.157c-5.584-0.501-11.143-1.274-16.711-1.945
				c-5.523-0.666-11.042-1.365-16.564-2.031C104.966,229.41,99.674,228.795,94.302,228.16z M129.345,129.374
				c0,24.15,0,48.303,0,72.46c0.191,0.033,0.327,0.065,0.465,0.078c2.757,0.267,5.51,0.609,8.273,0.766
				c1.482,0.084,2.994-0.064,4.47-0.268c1.274-0.176,2.116-1.032,2.352-2.31c0.203-1.101,0.367-2.229,0.368-3.346
				c0.022-20.038,0.025-40.077-0.002-60.115c-0.002-1.517-0.233-3.036-0.401-4.549c-0.146-1.311-0.821-2.148-2.216-2.286
				c-0.488-0.048-0.967-0.235-1.453-0.247c-3.871-0.1-7.742-0.173-11.614-0.251C129.521,129.304,129.455,129.342,129.345,129.374z
				 M127.701,36.101c0,21.523,0,42.95,0,64.413c2.612-0.079,5.169-0.107,7.72-0.252c1.68-0.095,3.354-0.33,5.023-0.555
				c1.389-0.188,2.178-0.986,2.229-2.436c0.018-0.515,0.098-1.029,0.098-1.544c0.005-18.58,0.013-37.16-0.015-55.74
				c-0.002-1.207-0.269-2.416-0.437-3.62c-0.094-0.67-0.539-1.036-1.19-1.092c-1.096-0.093-2.206-0.274-3.292-0.184
				C134.471,35.366,131.113,35.752,127.701,36.101z"/>
			<path class="st0" d="M191.626,228.27v4.176h1.023v-5.822h-1.09l-1.771,2.753l-1.772-2.753h-1.089v5.822h1.006v-4.159l1.821,2.728
				h0.034L191.626,228.27z M183.998,227.571h1.847v-0.948h-4.724v0.948h1.847v4.874h1.031V227.571z"/>
		</g>
		<g>
			<path class="st0" d="M13.386,252.062h5.121l10.202,26.527h-5.247l-2.075-5.464H10.562l-2.158,5.464H3.156L13.386,252.062z
				 M15.978,259.096l-3.559,9.107h7.097L15.978,259.096z"/>
			<path class="st0" d="M35.91,252.062h5.35c2.93,0,5.016,0.262,6.259,0.785s2.243,1.391,2.999,2.606
				c0.757,1.215,1.135,2.651,1.135,4.31c0,1.743-0.418,3.201-1.253,4.372c-0.836,1.173-2.095,2.059-3.777,2.66l6.284,11.794h-5.52
				l-5.965-11.235H40.96v11.235H35.91V252.062z M40.96,262.432h1.582c1.606,0,2.711-0.211,3.317-0.633
				c0.605-0.422,0.908-1.122,0.908-2.1c0-0.579-0.15-1.082-0.449-1.511c-0.3-0.428-0.701-0.735-1.205-0.922
				c-0.503-0.187-1.426-0.281-2.768-0.281H40.96V262.432z"/>
			<path class="st0" d="M59.585,252.062h5.013v26.527h-5.013V252.062z"/>
			<path class="st0" d="M71.827,252.062h16.05l-9.445,21.677h8.832v4.851H71.051l9.402-21.531h-8.627V252.062z"/>
			<path class="st0" d="M107.178,251.396c3.753,0,6.98,1.359,9.68,4.075c2.702,2.717,4.052,6.029,4.052,9.936
				c0,3.871-1.333,7.147-3.997,9.828c-2.666,2.681-5.897,4.022-9.7,4.022c-3.982,0-7.29-1.377-9.925-4.13
				c-2.635-2.753-3.952-6.023-3.952-9.81c0-2.536,0.614-4.869,1.841-6.996c1.227-2.128,2.915-3.815,5.062-5.059
				C102.387,252.017,104.7,251.396,107.178,251.396z M107.124,256.336c-2.455,0-4.519,0.854-6.191,2.561
				c-1.673,1.707-2.509,3.877-2.509,6.51c0,2.933,1.053,5.254,3.16,6.961c1.636,1.334,3.514,2.001,5.632,2.001
				c2.395,0,4.434-0.866,6.119-2.597c1.686-1.731,2.528-3.864,2.528-6.401c0-2.525-0.85-4.662-2.546-6.411
				C111.619,257.211,109.556,256.336,107.124,256.336z"/>
			<path class="st0" d="M128.645,252.062h4.843l11.351,17.457v-17.457h5.049v26.527h-4.857l-11.336-17.402v17.402h-5.049V252.062z"
				/>
			<path class="st0" d="M166.994,252.062h5.121l10.203,26.527h-5.248l-2.076-5.464h-10.823l-2.158,5.464h-5.248L166.994,252.062z
				 M169.586,259.096l-3.559,9.107h7.098L169.586,259.096z"/>
		</g>
	</g>
</g>
</svg>
