<svg xmlns="http://www.w3.org/2000/svg" viewBox="0 0 196.23 284.71"><defs><style>.cls-1{fill:#6c6e76;}</style></defs><g id="Layer_2" data-name="Layer 2"><g id="Layer_1-2" data-name="Layer 1"><path class="cls-1" d="M36.22,0c.44.05.88.11,1.33.14,8.94.64,17.63,2.34,25.8,6.2C72.82,10.81,79,18.13,82.34,28a59.13,59.13,0,0,1,2.81,16.47c0,1.25.08,2.5.08,3.75v45.5L50.92,92.27v-.94q0-21.61,0-43.24a20.59,20.59,0,0,0-1.82-9.17,3.77,3.77,0,0,0-1.83-1.86,14.76,14.76,0,0,0-8.21-1.23,2.59,2.59,0,0,0-2.39,2.08,21.25,21.25,0,0,0-.7,4.45c-.06,11.87,0,23.74,0,35.61,0,1.63.17,3.26.3,4.88a10,10,0,0,0,2.42,5.68c3.08,3.72,6.08,7.52,9.42,11,4,4.14,8.34,7.95,12.5,11.93a180.82,180.82,0,0,1,16.5,17.29,39,39,0,0,1,8,18.93A87.42,87.42,0,0,1,86,160.58c0,11.39.1,22.77,0,34.16A52.68,52.68,0,0,1,81.42,217,37.48,37.48,0,0,1,62,235.84a63.09,63.09,0,0,1-16.7,4.72c-3.08.45-6.2.62-9.31.92a1.51,1.51,0,0,0-.31.12H33.05c-1.12-.09-2.24-.18-3.35-.29a33.23,33.23,0,0,1-12.61-3.5c-6.35-3.32-10.55-8.58-13.29-15.08A52.55,52.55,0,0,1,0,202.26c0-18.93,0-37.86,0-56.78,0-.26,0-.51,0-.81l34.75-1.39V195.7c0,.6,0,1.2.05,1.8a18.76,18.76,0,0,0,1.78,7.72,2.12,2.12,0,0,0,1.74,1.22,16.14,16.14,0,0,0,7.35-1,5.93,5.93,0,0,0,3.79-3.87,19,19,0,0,0,.86-6.45q0-13.59,0-27.17c0-3.15-.06-6.29-.17-9.44A12.64,12.64,0,0,0,48,151.14c-.83-1.11-1.67-2.23-2.58-3.28a199.33,199.33,0,0,0-15.11-15.24A214.23,214.23,0,0,1,8.14,108.94,32.54,32.54,0,0,1,1.07,93.32,108.14,108.14,0,0,1,0,77.75q0-17.52,0-35c0-2.52,0-5,.17-7.55A49.69,49.69,0,0,1,3.08,20.6,30.12,30.12,0,0,1,15.34,5,33,33,0,0,1,29.93.29L33.05,0ZM112,234.39c5.64.68,11.29,1.39,16.94,2.07s11.38,1.48,17.09,2a48.67,48.67,0,0,0,16.52-1.18c9.32-2.38,15.8-8,19.1-17.09a44.76,44.76,0,0,0,2.52-15.34q0-34.51,0-69.05a47,47,0,0,0-.76-7.93,22.51,22.51,0,0,0-6-12.08c-.57-.59-1.19-1.15-1.72-1.65.88-1.55,1.81-3,2.55-4.51a34.69,34.69,0,0,0,3.15-15.24q.06-27.1,0-54.2c0-3-.07-6-.28-9a42.24,42.24,0,0,0-3-13.43C175.54,11.66,171.49,7,165.26,4.53a35.05,35.05,0,0,0-11.8-2.34,78.17,78.17,0,0,0-14.57,1c-6.19.91-12.4,1.78-18.6,2.65-5.54.77-11.08,1.5-16.62,2.25l-8,1.06V232.46C101.14,233.11,106.56,233.73,112,234.39Zm19.77-103c4,.08,7.91.15,11.87.25.5,0,1,.21,1.49.26a2.34,2.34,0,0,1,2.27,2.33,45.55,45.55,0,0,1,.41,4.66q0,30.73,0,61.48a18.85,18.85,0,0,1-.38,3.42,2.73,2.73,0,0,1-2.4,2.36,24.2,24.2,0,0,1-4.57.28c-2.83-.17-5.65-.51-8.47-.79a3.55,3.55,0,0,1-.47-.08v-74.1A.8.8,0,0,1,131.74,131.36ZM140.17,35a20.11,20.11,0,0,1,3.37.19,1.24,1.24,0,0,1,1.22,1.12,27.26,27.26,0,0,1,.44,3.7q0,28.5,0,57c0,.53-.08,1.06-.1,1.58a2.37,2.37,0,0,1-2.28,2.49c-1.71.23-3.42.47-5.14.57-2.61.15-5.22.18-7.89.26V36C133.3,35.68,136.73,35.28,140.17,35ZM193.3,235.38h0l-1.86-2.79v4.25h-1v-6h1.11l1.81,2.81,1.82-2.81h1.11v6h-1v-4.27Zm-5.92,1.46h-1v-5h-1.89v-1h4.83v1h-1.89ZM48.47,258.13a14.37,14.37,0,0,0-3,22.36,13.44,13.44,0,0,0,10.15,4.22,13.47,13.47,0,0,0,9.92-4.11,14.45,14.45,0,0,0-.06-20.21,13.46,13.46,0,0,0-9.9-4.17A13.92,13.92,0,0,0,48.47,258.13ZM61.84,264a9.58,9.58,0,0,1,0,13.1,8.43,8.43,0,0,1-6.26,2.66,8.87,8.87,0,0,1-5.76-2.05,8.69,8.69,0,0,1-3.23-7.12,9.13,9.13,0,0,1,2.56-6.66,8.89,8.89,0,0,1,12.67.07ZM77.48,284h5.24V272.14h9V284H97V256.9H91.77v10.24h-9V256.9H77.48Zm28.36,0H111V256.9h-5.13Zm19.67-25.9a14.36,14.36,0,0,0-3,22.36,14.16,14.16,0,0,0,20.06.11,13.69,13.69,0,0,0,4.09-10.05,13.87,13.87,0,0,0-4.14-10.16,13.46,13.46,0,0,0-9.9-4.17A14,14,0,0,0,125.51,258.13ZM138.89,264a9.56,9.56,0,0,1,0,13.1,8.41,8.41,0,0,1-6.25,2.66,8.87,8.87,0,0,1-5.76-2.05,8.67,8.67,0,0,1-3.24-7.12,9.14,9.14,0,0,1,2.57-6.66,8.89,8.89,0,0,1,12.67.07Z"/></g></g></svg>