<?xml version="1.0" encoding="utf-8"?>
<!-- Generator: Adobe Illustrator 25.2.1, SVG Export Plug-In . SVG Version: 6.00 Build 0)  -->
<svg version="1.1" id="Layer_1" xmlns="http://www.w3.org/2000/svg" xmlns:xlink="http://www.w3.org/1999/xlink" x="0px" y="0px"
	 viewBox="0 0 112.4 92.9" style="enable-background:new 0 0 112.4 92.9;" xml:space="preserve">
<style type="text/css">
	.st0{fill:#6D6E76;}
</style>
<g>
	<g>
		<path class="st0" d="M40.3,0.5c0.1,0,0.3,0,0.4,0c2.6,0.2,5.1,0.7,7.5,1.8c2.7,1.3,4.5,3.4,5.5,6.3c0.5,1.5,0.8,3.1,0.8,4.8
			c0,0.4,0,0.7,0,1.1c0,4.3,0,8.6,0,12.9c0,0.1,0,0.2,0,0.3c-3.3-0.1-6.6-0.3-9.9-0.4c0-0.1,0-0.2,0-0.3c0-4.2,0-8.3,0-12.5
			c0-0.9-0.1-1.8-0.5-2.6c-0.1-0.2-0.3-0.4-0.5-0.5c-0.8-0.4-1.5-0.5-2.4-0.4c-0.4,0-0.6,0.3-0.7,0.6c-0.1,0.4-0.2,0.9-0.2,1.3
			c0,3.4,0,6.9,0,10.3c0,0.5,0,0.9,0.1,1.4c0,0.6,0.3,1.2,0.7,1.6c0.9,1.1,1.8,2.2,2.7,3.2c1.2,1.2,2.4,2.3,3.6,3.4
			c1.7,1.6,3.3,3.2,4.8,5c1.3,1.6,2,3.4,2.3,5.5c0.2,1.2,0.3,2.5,0.3,3.7c0,3.3,0,6.6,0,9.9c0,2.2-0.4,4.4-1.3,6.4
			c-1.2,2.5-3.1,4.3-5.6,5.4c-1.5,0.7-3.2,1.1-4.8,1.4c-0.9,0.1-1.8,0.2-2.7,0.3c0,0-0.1,0-0.1,0c-0.2,0-0.5,0-0.7,0
			c-0.3,0-0.6-0.1-1-0.1c-1.3-0.1-2.5-0.4-3.6-1c-1.8-1-3-2.5-3.8-4.4c-0.8-1.9-1.1-3.9-1.1-5.9c0-5.5,0-10.9,0-16.4
			c0-0.1,0-0.1,0-0.2c3.4-0.1,6.7-0.3,10-0.4c0,0.1,0,0.2,0,0.3c0,4.9,0,9.9,0,14.8c0,0.2,0,0.3,0,0.5c0,0.8,0.2,1.5,0.5,2.2
			c0.1,0.2,0.3,0.3,0.5,0.4c0.7,0.1,1.4,0,2.1-0.3c0.5-0.2,0.9-0.6,1.1-1.1c0.2-0.6,0.2-1.2,0.2-1.9c0-2.6,0-5.2,0-7.8
			c0-0.9,0-1.8-0.1-2.7c0-0.8-0.1-1.5-0.6-2.1c-0.2-0.3-0.5-0.6-0.7-0.9c-1.4-1.6-2.9-3-4.4-4.4c-2.3-2.1-4.5-4.4-6.4-6.8
			c-1.1-1.3-1.8-2.8-2-4.5c-0.2-1.5-0.3-3-0.3-4.5c0-3.4,0-6.7,0-10.1c0-0.7,0-1.5,0.1-2.2c0.1-1.4,0.3-2.8,0.8-4.2
			c0.7-1.9,1.8-3.4,3.5-4.5c1.3-0.8,2.7-1.2,4.2-1.4c0.3,0,0.6-0.1,0.9-0.1C39.7,0.5,40,0.5,40.3,0.5z M32,44.3c0,0.1,0,0.2,0,0.3
			c0,4.4,0,8.8,0,13.3c0,0.9,0,1.8,0.1,2.6c0.1,1.4,0.4,2.7,1,3.9c0.8,1.6,2,2.8,3.7,3.3c1.1,0.3,2.2,0.4,3.3,0.4
			c2.1-0.1,4.1-0.4,6.1-1.2c2.6-1,4.5-2.7,5.5-5.3c0.6-1.7,0.9-3.4,0.9-5.1c0-3.2,0-6.3,0-9.5c0-1.2-0.1-2.3-0.2-3.5
			c-0.2-1.8-0.8-3.4-2-4.7c-1.3-1.6-2.8-3.1-4.4-4.6c-1-0.9-2-1.8-3-2.8c-1.2-1.2-2.3-2.4-3.4-3.8c-0.6-0.7-1.1-1.5-1.3-2.4
			c-0.1-0.8-0.2-1.5-0.2-2.3c0-3.5,0-6.9,0-10.4c0-0.5,0.1-1,0.2-1.5c0.3-1.5,1.2-2.3,2.7-2.5c1.1-0.1,2.1,0,3.1,0.4
			C45,9.5,45.6,10.1,46,11c0.5,1.1,0.7,2.2,0.7,3.3c0,3.5,0,7.1,0,10.6c0,0.1,0,0.2,0,0.3c1.9,0.1,3.8,0.2,5.7,0.2
			c0-0.1,0-0.2,0-0.3c0-3.6,0-7.3,0-10.9c0-1.1-0.1-2.2-0.3-3.2c-0.2-1.3-0.7-2.6-1.4-3.8c-1-1.5-2.3-2.5-4-3.2
			c-1.4-0.6-3-0.9-4.5-1.2c-1.4-0.2-2.8-0.3-4.2,0C35.7,3.1,34,4.4,33,6.5c-0.7,1.5-1,3.1-1,4.8c0,4.3,0,8.7,0,13c0,1,0.1,2,0.3,2.9
			c0.2,1.3,0.8,2.4,1.6,3.4c1.3,1.6,2.6,3.1,4,4.5c1.7,1.7,3.4,3.3,5.1,4.9c0.9,0.8,1.7,1.7,2.4,2.7c0.4,0.6,0.7,1.3,0.9,2
			c0.2,1,0.2,2,0.2,3c0,3.1,0,6.1,0,9.2c0,0.6-0.1,1.1-0.2,1.7c-0.3,1.4-1,2.4-2.3,3c-0.9,0.4-1.8,0.5-2.8,0.5
			c-1.3,0-2.3-0.6-2.8-1.9c-0.4-1-0.6-2-0.6-3c0-4.3,0-8.6,0-13c0-0.1,0-0.2,0-0.3C35.9,44.1,33.9,44.2,32,44.3z"/>
		<path class="st0" d="M57.5,67.6c0-21.5,0-43,0-64.5C58.3,3,59,2.9,59.8,2.8c1.6-0.2,3.2-0.4,4.8-0.7c1.8-0.2,3.6-0.5,5.4-0.8
			c1.4-0.2,2.8-0.3,4.2-0.3c1.2,0,2.3,0.2,3.4,0.7c1.8,0.7,3,2.1,3.7,3.8c0.5,1.2,0.8,2.5,0.9,3.9c0.1,0.9,0.1,1.7,0.1,2.6
			c0,5.2,0,10.4,0,15.7c0,1.5-0.2,3-0.9,4.4c-0.2,0.4-0.5,0.9-0.7,1.3c0.2,0.1,0.3,0.3,0.5,0.5c0.9,1,1.5,2.2,1.7,3.5
			C83,38.2,83,39,83,39.7c0,6.6,0,13.3,0,19.9c0,1.5-0.2,3-0.7,4.4c-1,2.6-2.8,4.2-5.5,4.9c-1.6,0.4-3.2,0.5-4.8,0.3
			c-1.6-0.1-3.3-0.4-4.9-0.6c-1.6-0.2-3.3-0.4-4.9-0.6C60.6,68,59.1,67.8,57.5,67.6z M59.6,65.8c0.6,0.1,1.2,0.1,1.8,0.2
			c1.6,0.2,3.3,0.4,4.9,0.6c1.8,0.2,3.7,0.5,5.5,0.6c1.5,0.1,2.9,0.1,4.3-0.3c2.1-0.5,3.6-1.8,4.3-3.9c0.4-1.1,0.5-2.3,0.5-3.5
			c0-6.5,0-13,0-19.5c0-0.5,0-1-0.1-1.5c-0.2-1.8-1.2-3.2-2.8-4c-0.6-0.3-1.3-0.5-2-0.6c0.1,0,0.2-0.1,0.3-0.1
			c1.7-0.5,2.8-1.6,3.3-3.2c0.3-0.9,0.4-1.8,0.4-2.8c0-3.8,0-7.7,0-11.5c0-1.9,0-3.7,0-5.6c0-1.3-0.2-2.5-0.7-3.7
			c-0.7-1.7-1.9-2.9-3.7-3.3c-1.3-0.3-2.7-0.4-4.1-0.2c-1.9,0.2-3.9,0.5-5.8,0.8c-1.5,0.2-3.1,0.4-4.6,0.6c-0.6,0.1-1.1,0.1-1.7,0.2
			C59.6,25.2,59.6,45.5,59.6,65.8z"/>
		<path class="st0" d="M32,44.3c2-0.1,3.9-0.2,5.9-0.2c0,0.1,0,0.2,0,0.3c0,4.3,0,8.6,0,13c0,1,0.2,2.1,0.6,3
			c0.5,1.3,1.4,1.9,2.8,1.9c1,0,1.9-0.1,2.8-0.5c1.3-0.5,2.1-1.6,2.3-3c0.1-0.6,0.2-1.1,0.2-1.7c0-3.1,0-6.1,0-9.2c0-1,0-2-0.2-3
			c-0.1-0.7-0.5-1.4-0.9-2c-0.7-1-1.5-1.9-2.4-2.7c-1.7-1.7-3.4-3.3-5.1-4.9c-1.4-1.4-2.8-2.9-4-4.5c-0.8-1-1.4-2.1-1.6-3.4
			c-0.1-1-0.3-2-0.3-2.9c0-4.3-0.1-8.7,0-13c0-1.7,0.3-3.3,1-4.8c1-2.2,2.7-3.4,5.1-3.8c1.4-0.2,2.8-0.2,4.2,0
			C43.8,3,45.3,3.4,46.7,4c1.6,0.7,3,1.7,4,3.2c0.7,1.2,1.2,2.4,1.4,3.8c0.2,1.1,0.3,2.2,0.3,3.2c0,3.6,0,7.3,0,10.9
			c0,0.1,0,0.2,0,0.3c-1.9-0.1-3.8-0.2-5.7-0.2c0-0.1,0-0.2,0-0.3c0-3.5,0-7.1,0-10.6c0-1.1-0.2-2.2-0.7-3.3c-0.4-0.9-1-1.4-1.9-1.8
			c-1-0.4-2-0.5-3.1-0.4c-1.5,0.2-2.4,1-2.7,2.5c-0.1,0.5-0.2,1-0.2,1.5c0,3.5,0,6.9,0,10.4c0,0.8,0.1,1.5,0.2,2.3
			c0.2,0.9,0.7,1.7,1.3,2.4c1,1.3,2.1,2.6,3.4,3.8c1,1,2,1.8,3,2.8c1.5,1.5,3,2.9,4.4,4.6c1.1,1.4,1.8,3,2,4.7
			c0.1,1.1,0.2,2.3,0.2,3.5c0,3.2,0,6.3,0,9.5c0,1.8-0.2,3.5-0.9,5.1c-1,2.6-2.9,4.3-5.5,5.3c-2,0.7-4,1.1-6.1,1.2
			c-1.1,0-2.3-0.1-3.3-0.4c-1.7-0.5-2.9-1.7-3.7-3.3c-0.6-1.2-0.9-2.6-1-3.9C32,59.6,32,58.7,32,57.8c0-4.4,0-8.8,0-13.3
			C32,44.5,32,44.4,32,44.3z"/>
		<path class="st0" d="M59.6,65.8c0-20.3,0-40.5,0-60.8c0.6-0.1,1.1-0.1,1.7-0.2c1.5-0.2,3.1-0.4,4.6-0.6c1.9-0.3,3.9-0.5,5.8-0.8
			c1.4-0.2,2.7-0.1,4.1,0.2c1.8,0.4,3,1.6,3.7,3.3c0.4,1.2,0.6,2.4,0.7,3.7c0,1.9,0,3.7,0,5.6c0,3.8,0,7.7,0,11.5
			c0,0.9-0.1,1.9-0.4,2.8c-0.5,1.7-1.7,2.7-3.3,3.2c-0.1,0-0.2,0.1-0.3,0.1c0.7,0.1,1.4,0.3,2,0.6c1.6,0.8,2.6,2.1,2.8,4
			c0.1,0.5,0.1,1,0.1,1.5c0,6.5,0,13,0,19.5c0,1.2-0.1,2.4-0.5,3.5c-0.7,2.1-2.2,3.4-4.3,3.9c-1.4,0.4-2.9,0.4-4.3,0.3
			c-1.8-0.2-3.7-0.4-5.5-0.6c-1.6-0.2-3.3-0.4-4.9-0.6C60.8,65.9,60.2,65.9,59.6,65.8z M65.8,61.8c0,0,0.1,0,0.1,0
			c1.3,0.1,2.6,0.3,3.9,0.4c0.7,0.1,1.5,0.1,2.2,0c1.2-0.2,2.1-0.9,2.4-2.1c0.1-0.5,0.2-1,0.2-1.5c0-6.1,0-12.2,0-18.2
			c0-0.7-0.1-1.3-0.2-2c-0.3-1.1-0.9-1.8-2.1-2c-0.6-0.1-1.1-0.2-1.7-0.2c-1.6,0-3.1,0-4.7,0c-0.1,0-0.1,0-0.2,0
			C65.8,44.8,65.8,53.3,65.8,61.8z M65.3,32.1c0.1,0,0.1,0,0.2,0c1.4,0,2.8,0,4.2-0.1c0.6,0,1.2-0.1,1.8-0.2
			c0.8-0.1,1.5-0.5,1.9-1.2c0.4-0.6,0.6-1.3,0.6-2.1c0-5.6,0-11.2,0-16.8c0-0.6-0.1-1.2-0.3-1.8c-0.3-0.8-0.8-1.2-1.6-1.4
			c-0.6-0.1-1.1-0.2-1.7-0.1c-1.1,0.1-2.2,0.2-3.3,0.4c-0.6,0.1-1.2,0.1-1.8,0.2C65.3,16.7,65.3,24.4,65.3,32.1z"/>
		<path class="st0" d="M65.8,61.8c0-8.5,0-17,0-25.5c0.1,0,0.1,0,0.2,0c1.6,0,3.1,0,4.7,0c0.6,0,1.1,0.1,1.7,0.2
			c1.1,0.2,1.8,0.9,2.1,2c0.2,0.6,0.2,1.3,0.2,2c0,6.1,0,12.2,0,18.2c0,0.5-0.1,1-0.2,1.5c-0.3,1.2-1.2,1.9-2.4,2.1
			c-0.7,0.1-1.5,0.1-2.2,0c-1.3-0.1-2.6-0.3-3.9-0.4C65.8,61.8,65.8,61.8,65.8,61.8z M67.8,38.5c0,7.1,0,14.3,0,21.4
			c0.1,0,0.1,0,0.1,0c0.8,0.1,1.6,0.2,2.4,0.2c0.4,0,0.9,0,1.3-0.1c0.4-0.1,0.6-0.3,0.7-0.7c0.1-0.3,0.1-0.7,0.1-1
			c0-5.9,0-11.8,0-17.8c0-0.4-0.1-0.9-0.1-1.3c0-0.4-0.2-0.6-0.7-0.7c-0.1,0-0.3-0.1-0.4-0.1C70.2,38.5,69.1,38.5,67.8,38.5
			C67.9,38.4,67.9,38.4,67.8,38.5z"/>
		<path class="st0" d="M65.3,32.1c0-7.7,0-15.4,0-23.1c0.6-0.1,1.2-0.1,1.8-0.2c1.1-0.1,2.2-0.3,3.3-0.4c0.6-0.1,1.1,0,1.7,0.1
			c0.8,0.2,1.3,0.6,1.6,1.4c0.2,0.6,0.3,1.2,0.3,1.8c0,5.6,0,11.2,0,16.8c0,0.7-0.1,1.4-0.6,2.1c-0.4,0.7-1.1,1-1.9,1.2
			C70.9,32,70.3,32,69.7,32c-1.4,0-2.8,0.1-4.2,0.1C65.4,32.1,65.4,32.1,65.3,32.1z M67.4,10.9c0,6.4,0,12.7,0,19
			c0.8,0,1.5,0,2.3-0.1c0.5,0,1-0.1,1.5-0.2c0.4-0.1,0.6-0.3,0.7-0.7c0-0.2,0-0.3,0-0.5c0-5.5,0-11,0-16.5c0-0.4-0.1-0.7-0.1-1.1
			c0-0.2-0.2-0.3-0.4-0.3c-0.3,0-0.7-0.1-1-0.1C69.4,10.7,68.4,10.8,67.4,10.9z"/>
		<path class="st0" d="M86.2,67.7v1.2h0.3v-1.7h-0.3L85.7,68l-0.5-0.8h-0.3v1.7h0.3v-1.2l0.5,0.8h0L86.2,67.7z M84,67.5h0.5v-0.3
			h-1.4v0.3h0.5v1.4H84V67.5z"/>
	</g>
	<g>
		<path class="st0" d="M8.8,74.6l-0.7,0.5c-0.4-0.5-0.8-0.9-1.3-1.1S5.7,73.7,5,73.7c-0.7,0-1.3,0.2-1.9,0.5s-1,0.8-1.4,1.3
			c-0.3,0.6-0.5,1.2-0.5,1.9c0,1,0.4,1.9,1.1,2.6s1.6,1,2.7,1c1.2,0,2.2-0.5,3-1.4l0.7,0.5c-0.4,0.5-1,1-1.6,1.3S5.8,81.8,5,81.8
			c-1.5,0-2.7-0.5-3.5-1.5c-0.7-0.8-1.1-1.9-1.1-3c0-1.3,0.4-2.3,1.3-3.2c0.9-0.9,2-1.3,3.3-1.3c0.8,0,1.5,0.2,2.2,0.5
			C7.8,73.6,8.4,74.1,8.8,74.6z"/>
		<path class="st0" d="M10.5,73h0.9v3.6h4.4V73h0.9v8.6h-0.9v-4.1h-4.4v4.1h-0.9V73z"/>
		<path class="st0" d="M18.6,73h4.9v0.8h-4v2.7h4v0.8h-4v3.4h4v0.8h-4.9V73z"/>
		<path class="st0" d="M33,74.6l-0.7,0.5c-0.4-0.5-0.8-0.9-1.3-1.1s-1.1-0.4-1.7-0.4c-0.7,0-1.3,0.2-1.9,0.5s-1,0.8-1.4,1.3
			c-0.3,0.6-0.5,1.2-0.5,1.9c0,1,0.4,1.9,1.1,2.6c0.7,0.7,1.6,1,2.7,1c1.2,0,2.2-0.5,3-1.4l0.7,0.5c-0.4,0.5-1,1-1.6,1.3
			c-0.6,0.3-1.4,0.4-2.1,0.4c-1.5,0-2.7-0.5-3.5-1.5c-0.7-0.8-1.1-1.9-1.1-3c0-1.3,0.4-2.3,1.3-3.2c0.9-0.9,2-1.3,3.3-1.3
			c0.8,0,1.5,0.2,2.2,0.5C32,73.6,32.6,74.1,33,74.6z"/>
		<path class="st0" d="M34.7,73h0.9v3.2L39,73h1.1L36,76.9l4.4,4.7h-1.1l-3.8-4v4h-0.9V73z"/>
		<path class="st0" d="M45.1,73h1.7c0.7,0,1.2,0.1,1.6,0.2c0.4,0.2,0.7,0.4,0.9,0.7s0.3,0.7,0.3,1.1c0,0.4-0.1,0.7-0.3,1
			s-0.5,0.6-0.8,0.8c0.4,0.2,0.8,0.3,1,0.5c0.2,0.2,0.4,0.4,0.6,0.7c0.1,0.3,0.2,0.6,0.2,0.9c0,0.7-0.3,1.3-0.8,1.7s-1.2,0.7-2,0.7
			h-2.4V73z M45.9,73.9v2.7h0.5c0.6,0,1-0.1,1.3-0.2c0.3-0.1,0.5-0.3,0.7-0.5c0.2-0.2,0.2-0.5,0.2-0.8c0-0.4-0.1-0.7-0.4-0.9
			c-0.3-0.2-0.7-0.3-1.3-0.3H45.9z M45.9,77.5v3.3H47c0.6,0,1.1-0.1,1.4-0.2c0.3-0.1,0.5-0.3,0.7-0.6c0.2-0.3,0.3-0.5,0.3-0.8
			c0-0.4-0.1-0.7-0.4-1c-0.2-0.3-0.6-0.5-1-0.6c-0.3-0.1-0.8-0.1-1.5-0.1H45.9z"/>
		<path class="st0" d="M55.4,73l4,8.6h-0.9l-1.3-2.8h-3.7l-1.3,2.8h-1l4-8.6H55.4z M55.3,74.9L53.8,78h2.9L55.3,74.9z"/>
		<path class="st0" d="M68.7,74.6L68,75.1c-0.4-0.5-0.8-0.9-1.3-1.1c-0.5-0.3-1.1-0.4-1.7-0.4c-0.7,0-1.3,0.2-1.9,0.5
			s-1,0.8-1.4,1.3c-0.3,0.6-0.5,1.2-0.5,1.9c0,1,0.4,1.9,1.1,2.6s1.6,1,2.7,1c1.2,0,2.2-0.5,3-1.4l0.7,0.5c-0.4,0.5-1,1-1.6,1.3
			c-0.6,0.3-1.4,0.4-2.1,0.4c-1.5,0-2.7-0.5-3.5-1.5c-0.7-0.8-1.1-1.9-1.1-3c0-1.3,0.4-2.3,1.3-3.2c0.9-0.9,2-1.3,3.3-1.3
			c0.8,0,1.5,0.2,2.2,0.5C67.7,73.6,68.2,74.1,68.7,74.6z"/>
		<path class="st0" d="M70.4,73h0.9v3.2l3.4-3.2h1.1l-4.1,3.8l4.4,4.7H75l-3.8-4v4h-0.9V73z"/>
		<path class="st0" d="M80.7,73h0.9v7.7h3.3v0.8h-4.1V73z"/>
		<path class="st0" d="M89.7,73l4,8.6h-0.9l-1.3-2.8h-3.7l-1.3,2.8h-1l4-8.6H89.7z M89.6,74.9L88.1,78h2.9L89.6,74.9z"/>
		<path class="st0" d="M94.2,73.9V73h4.7v0.8H97v7.7h-0.9v-7.7H94.2z"/>
		<path class="st0" d="M100.1,73h4.9v0.8h-4v2.7h4v0.8h-4v3.4h4v0.8h-4.9V73z"/>
		<path class="st0" d="M106.5,73h1.7c1,0,1.6,0,1.9,0.1c0.5,0.1,0.9,0.4,1.2,0.7s0.5,0.9,0.5,1.4c0,0.5-0.1,0.9-0.3,1.2
			s-0.5,0.6-0.9,0.8c-0.4,0.2-1,0.3-1.7,0.3l3.1,4H111l-3.1-4h-0.5v4h-0.9V73z M107.4,73.9v2.9l1.5,0c0.6,0,1-0.1,1.3-0.2
			c0.3-0.1,0.5-0.3,0.6-0.5c0.2-0.2,0.2-0.5,0.2-0.8c0-0.3-0.1-0.5-0.2-0.8c-0.2-0.2-0.4-0.4-0.6-0.5c-0.3-0.1-0.7-0.2-1.3-0.2
			H107.4z"/>
	</g>
	<g>
		<path class="st0" d="M0.4,83.2h4.5v1.7H2.1v1.6h2.8v1.6H2.1v4H0.4V83.2z"/>
		<path class="st0" d="M10.6,83c1.3,0,2.4,0.5,3.3,1.4c0.9,0.9,1.4,2,1.4,3.4c0,1.3-0.5,2.4-1.4,3.3s-2,1.4-3.3,1.4
			c-1.3,0-2.5-0.5-3.4-1.4c-0.9-0.9-1.3-2-1.3-3.3c0-0.9,0.2-1.6,0.6-2.4c0.4-0.7,1-1.3,1.7-1.7C9,83.2,9.8,83,10.6,83z M10.6,84.7
			c-0.8,0-1.5,0.3-2.1,0.9c-0.6,0.6-0.8,1.3-0.8,2.2c0,1,0.4,1.8,1.1,2.4c0.6,0.5,1.2,0.7,1.9,0.7c0.8,0,1.5-0.3,2.1-0.9
			c0.6-0.6,0.9-1.3,0.9-2.2c0-0.9-0.3-1.6-0.9-2.2S11.4,84.7,10.6,84.7z"/>
		<path class="st0" d="M17,83.2h1.8c1,0,1.7,0.1,2.1,0.3c0.4,0.2,0.8,0.5,1,0.9c0.3,0.4,0.4,0.9,0.4,1.5c0,0.6-0.1,1.1-0.4,1.5
			c-0.3,0.4-0.7,0.7-1.3,0.9l2.1,4h-1.9l-2-3.8h-0.2v3.8H17V83.2z M18.7,86.7h0.5c0.5,0,0.9-0.1,1.1-0.2c0.2-0.1,0.3-0.4,0.3-0.7
			c0-0.2-0.1-0.4-0.2-0.5c-0.1-0.1-0.2-0.2-0.4-0.3c-0.2-0.1-0.5-0.1-0.9-0.1h-0.5V86.7z"/>
		<path class="st0" d="M28.5,83.2h1.7l2.1,6.3l2.1-6.3H36l1.5,9h-1.7l-1-5.7L33,92.2h-1.5l-1.9-5.7l-1,5.7h-1.7L28.5,83.2z"/>
		<path class="st0" d="M43.1,83c1.3,0,2.4,0.5,3.3,1.4c0.9,0.9,1.4,2,1.4,3.4c0,1.3-0.5,2.4-1.4,3.3s-2,1.4-3.3,1.4
			c-1.3,0-2.5-0.5-3.4-1.4c-0.9-0.9-1.3-2-1.3-3.3c0-0.9,0.2-1.6,0.6-2.4c0.4-0.7,1-1.3,1.7-1.7C41.5,83.2,42.3,83,43.1,83z
			 M43.1,84.7c-0.8,0-1.5,0.3-2.1,0.9c-0.6,0.6-0.8,1.3-0.8,2.2c0,1,0.4,1.8,1.1,2.4c0.6,0.5,1.2,0.7,1.9,0.7c0.8,0,1.5-0.3,2.1-0.9
			c0.6-0.6,0.9-1.3,0.9-2.2c0-0.9-0.3-1.6-0.9-2.2S43.9,84.7,43.1,84.7z"/>
		<path class="st0" d="M49.5,83.2h1.8c1,0,1.7,0.1,2.1,0.3c0.4,0.2,0.8,0.5,1,0.9c0.3,0.4,0.4,0.9,0.4,1.5c0,0.6-0.1,1.1-0.4,1.5
			s-0.7,0.7-1.3,0.9l2.1,4h-1.9l-2-3.8h-0.2v3.8h-1.7V83.2z M51.2,86.7h0.5c0.5,0,0.9-0.1,1.1-0.2c0.2-0.1,0.3-0.4,0.3-0.7
			c0-0.2-0.1-0.4-0.2-0.5c-0.1-0.1-0.2-0.2-0.4-0.3c-0.2-0.1-0.5-0.1-0.9-0.1h-0.5V86.7z"/>
		<path class="st0" d="M56.6,83.2h4.9v1.7h-3.2v1.6h3.2v1.6h-3.2v2.4h3.2v1.7h-4.9V83.2z"/>
		<path class="st0" d="M69.3,83.2h1.7l3.5,9h-1.8L72,90.4h-3.7l-0.7,1.8h-1.8L69.3,83.2z M70.2,85.6L69,88.7h2.4L70.2,85.6z"/>
		<path class="st0" d="M84.1,84.8l-1.2,1.1c-0.8-0.9-1.7-1.3-2.7-1.3c-0.9,0-1.6,0.3-2.2,0.9c-0.6,0.6-0.9,1.3-0.9,2.2
			c0,0.6,0.1,1.1,0.4,1.6c0.3,0.5,0.6,0.8,1.1,1.1c0.5,0.3,1,0.4,1.6,0.4c0.5,0,0.9-0.1,1.4-0.3c0.4-0.2,0.9-0.5,1.4-1l1.2,1.2
			c-0.7,0.6-1.3,1.1-1.9,1.3c-0.6,0.3-1.3,0.4-2,0.4c-1.4,0-2.5-0.4-3.4-1.3c-0.9-0.9-1.3-2-1.3-3.4c0-0.9,0.2-1.7,0.6-2.4
			s1-1.3,1.7-1.7s1.6-0.6,2.4-0.6c0.7,0,1.5,0.2,2.1,0.5C83,83.8,83.6,84.2,84.1,84.8z"/>
		<path class="st0" d="M84.7,83.2h5v1.7H88v7.3h-1.7v-7.3h-1.6V83.2z"/>
		<path class="st0" d="M90.7,83.2h1.7v9h-1.7V83.2z"/>
		<path class="st0" d="M98.6,83c1.3,0,2.4,0.5,3.3,1.4c0.9,0.9,1.4,2,1.4,3.4c0,1.3-0.5,2.4-1.4,3.3s-2,1.4-3.3,1.4
			c-1.3,0-2.5-0.5-3.4-1.4c-0.9-0.9-1.3-2-1.3-3.3c0-0.9,0.2-1.6,0.6-2.4c0.4-0.7,1-1.3,1.7-1.7C96.9,83.2,97.7,83,98.6,83z
			 M98.5,84.7c-0.8,0-1.5,0.3-2.1,0.9c-0.6,0.6-0.8,1.3-0.8,2.2c0,1,0.4,1.8,1.1,2.4c0.6,0.5,1.2,0.7,1.9,0.7c0.8,0,1.5-0.3,2.1-0.9
			c0.6-0.6,0.9-1.3,0.9-2.2c0-0.9-0.3-1.6-0.9-2.2C100.1,85,99.4,84.7,98.5,84.7z"/>
		<path class="st0" d="M104.8,83.2h1.6l3.8,5.9v-5.9h1.7v9h-1.6l-3.8-5.9v5.9h-1.7V83.2z"/>
	</g>
</g>
</svg>
