<svg xmlns="http://www.w3.org/2000/svg" viewBox="0 0 179.87 122.78"><defs><style>.cls-1,.cls-3,.cls-4{fill:#6c6e76;}.cls-2,.cls-3,.cls-4{isolation:isolate;}.cls-3{font-size:14.63px;font-family:CenturyGothic-Bold, Century Gothic;font-weight:700;}.cls-4{font-size:10px;font-family:CenturyGothic, Century Gothic;}</style></defs><g id="Layer_2" data-name="Layer 2"><g id="Layer_1-2" data-name="Layer 1"><path class="cls-1" d="M78.79,49.26,67.56,41.8,88,29.52l20.53-12.33L92.61,11v-.22c13-2.42,26-4.81,39.17-7.27L117,40.42l-.21,0-3.15-16.91-.14,0s-.08,0-.09,0L96.47,42.1c-.13.15-.24.31-.43.55L106.74,50c-.58.59-57.39,33.69-58.67,34.16C58.37,72.45,68.55,60.89,78.79,49.26Z"/><path class="cls-1" d="M63.64,61.7l-5,5.63c-.22-.2-.42-.36-.6-.55a36.38,36.38,0,0,1-9.33-19.23c-2.16-14.63,1.83-27.31,12.76-37.47A36.93,36.93,0,0,1,81.8.49a42.08,42.08,0,0,1,25,3.73c.27.13.52.29,1,.53-1.11.22-2,.42-2.94.59-4,.75-8.06,1.51-12.09,2.23a5.86,5.86,0,0,1-1.62,0,30.17,30.17,0,0,0-17,3.31c-9.48,4.87-15.36,12.57-17.32,23A32.3,32.3,0,0,0,59.9,56C61,57.91,62.33,59.71,63.64,61.7Z"/><path class="cls-1" d="M69.27,75.63c.46-.28.82-.51,1.2-.73,2-1.19,4.11-2.37,6.15-3.58a1.34,1.34,0,0,1,1.23-.12,32.3,32.3,0,0,0,12,1.62c14.32-.7,27.34-10.36,30.27-26.26.38-2.06.4-4.18.6-6.27a4.82,4.82,0,0,1,.25-1.38q2.43-6.15,4.9-12.28c.07-.18.17-.36.38-.77.39,1.29.75,2.36,1,3.46a43,43,0,0,1,1.31,11.9,37.86,37.86,0,0,1-6.37,20.92c-5.38,8-12.51,13.66-21.8,16.47a40.8,40.8,0,0,1-10,1.62A41.74,41.74,0,0,1,75.5,78.31c-1.83-.6-3.58-1.44-5.36-2.18C69.88,76,69.63,75.83,69.27,75.63Z"/><g class="cls-2"><text class="cls-3" transform="translate(0 99.71)">NOTHING NEW TO REPORT</text><text class="cls-4" transform="translate(25.45 109.71)">CHECK BACK LATER TO SEE </text><text class="cls-4" transform="translate(32.82 119.71)">WHAT WE HAVE IN PLAY</text></g></g></g></svg>