<?xml version="1.0" encoding="UTF-8"?>
<svg width="240px" height="41px" viewBox="0 0 240 41" version="1.1" xmlns="http://www.w3.org/2000/svg" xmlns:xlink="http://www.w3.org/1999/xlink">
    <!-- Generator: sketchtool 50.2 (55047) - http://www.bohemiancoding.com/sketch -->
    <title>31B2AAFC-F9B7-4DE8-9CF2-B25ADDD88694</title>
    <desc>Created with sketchtool.</desc>
    <defs></defs>
    <g id="Page-1" stroke="none" stroke-width="1" fill="none" fill-rule="evenodd">
        <g id="Paysafe_Card" transform="translate(-5.000000, -8.000000)" fill-rule="nonzero">
            <g id="paysafecard" transform="translate(5.000000, 8.000000)">
                <path d="M31.8672199,17.5133435 C31.8974511,15.6893645 32.2904564,14.3213802 33.0764671,13.378991 C33.4694724,12.9837956 33.9834025,12.6493994 34.6182573,12.3758026 C35.253112,12.0718061 35.8879668,11.9502075 36.4925904,11.9502075 L43.838767,11.9502075 C47.0735033,11.9806071 48.7362181,13.7741865 48.7966805,17.300546 L48.7966805,28.2140205 C48.7664493,29.4604062 48.2827504,30.5547936 47.3455839,31.4667831 C46.4084173,32.439572 45.2898637,32.9259664 43.9899229,32.956366 L37.0367516,32.956366 L37.0367516,40.8298755 L31.8974511,40.8298755 L31.8672199,17.5133435 Z M43.65738,18.5469316 C43.6271488,17.7261411 43.2341434,17.300546 42.478364,17.2701463 L38.4576171,17.2701463 C37.5204505,17.3309456 37.0065205,17.8477397 37.0065205,18.8509282 L37.0065205,26.086045 C37.0367516,27.0892335 37.5809129,27.6060275 38.6390041,27.6364272 L42.3272081,27.6364272 C42.7202134,27.6364272 43.0225252,27.4844289 43.2643746,27.2108321 C43.5364552,26.9980345 43.65738,26.7244377 43.65738,26.3596418 L43.65738,18.5469316 Z" id="Shape" fill="#538DC9"></path>
                <path d="M64.6216198,18.3965748 C64.6519051,17.6096943 64.1976262,17.216254 63.2284978,17.2465187 L52.8406535,17.2465187 L52.8406535,11.9502075 L64.530764,11.9502075 C67.9227132,12.0107367 69.6792583,13.6450271 69.7095436,16.883343 L69.7095436,27.9601996 C69.6792583,29.3523728 69.2552647,30.502429 68.4072774,31.4406327 C67.5290048,32.3788364 66.4084502,32.8630705 65.0456135,32.8630705 L58.019433,32.8630705 C54.5669134,32.8328059 52.8406535,31.2590449 52.780083,28.1417874 L52.780083,23.8744738 C52.8103682,20.6058932 54.4760576,18.9716029 57.777151,18.9110736 L64.6519051,18.9110736 L64.6216198,18.3965748 Z M57.9285773,26.5377617 C57.9285773,26.8404081 58.0800036,27.0825252 58.3525709,27.264113 C58.594853,27.4759654 58.8977056,27.597024 59.291414,27.597024 L63.2587831,27.597024 C64.1673409,27.597024 64.6216198,27.264113 64.6519051,26.5377617 L64.6519051,25.0547946 C64.6519051,24.2376494 64.1673409,23.8442092 63.2284978,23.8442092 L59.291414,23.8442092 C58.7765646,23.8442092 58.4131414,23.9350031 58.2314299,24.0863263 C58.0497183,24.2679141 57.9588625,24.6613543 57.9588625,25.2061178 L57.9588625,26.5377617 L57.9285773,26.5377617 Z" id="Shape" fill="#538DC9"></path>
                <path d="M84.0269076,35.5155307 C84.4524237,35.485163 84.7867577,35.3333246 85.0906978,35.0903831 C85.3642438,34.8474417 85.5162139,34.5741325 85.5162139,34.240088 L85.5162139,33.754205 L85.5162139,32.9950129 L78.8903209,32.9950129 C78.0392887,32.9950129 77.3402266,32.8735422 76.8235285,32.6609684 C76.2764365,32.4483946 75.7293444,32.0839824 75.1822523,31.5677317 C74.6655542,31.0211134 74.3008262,30.4137597 74.0576741,29.806406 C73.8145221,29.2597877 73.6929461,28.5309633 73.6929461,27.6806681 L73.6929461,11.9502075 L78.8599268,11.9502075 L78.8599268,25.9497101 C78.8599268,27.0733144 79.3158369,27.6199327 80.2580511,27.6199327 L83.9053316,27.6199327 C84.3308477,27.6199327 84.7259697,27.4680943 85.0299098,27.1947851 C85.3338498,26.9518437 85.4858199,26.6481668 85.4858199,26.3141223 L85.4858199,25.7371363 L85.4858199,11.9502075 L90.6224066,11.9502075 L90.6224066,35.0903831 C90.5920126,36.7909735 90.1664966,38.187887 89.3154644,39.2203882 C88.4644323,40.2528895 87.2790661,40.7995078 85.7897599,40.8298755 L73.6929461,40.8298755 L73.6929461,35.5155307 L84.0269076,35.5155307 Z" id="Shape" fill="#538DC9"></path>
                <path d="M95.6016598,27.6120904 L104.898814,27.6120904 C105.755131,27.5817379 106.183289,27.2478606 106.213872,26.6104584 L106.213872,26.1248186 C106.213872,25.9730561 106.183289,25.8212937 106.091541,25.6695313 C105.877462,25.274949 105.6328,25.0624816 105.326973,25.0624816 L104.776483,25.0624816 L100.739561,25.0624816 C99.3633373,25.0321291 98.201193,24.5768418 97.2225452,23.6662672 C96.2438974,22.8467501 95.7239907,21.8147655 95.693408,20.6006661 L95.693408,16.6548428 C95.7545735,13.5588892 97.4366244,11.98056 100.770144,11.9502075 L111.53527,11.9502075 L111.53527,17.2315401 L102.421612,17.2315401 C101.351216,17.2315401 100.800726,17.5654174 100.800726,18.2028196 L100.800726,18.7188119 C100.800726,19.3865666 101.351216,19.720444 102.452195,19.720444 L107.039606,19.720444 C108.262916,19.7507965 109.302729,20.2060837 110.159046,21.1166583 C111.045946,22.0272329 111.504687,23.1199224 111.504687,24.3643744 L111.504687,28.2494926 C111.474104,29.3421821 110.98478,30.4348716 110.006132,31.4972087 C109.516809,32.0132009 109.027485,32.4077832 108.568743,32.5898982 C108.048837,32.7720131 107.376016,32.8630705 106.5197,32.8630705 L95.6322425,32.8630705 L95.6322425,27.6120904 L95.6016598,27.6120904 Z" id="Shape" fill="#538DC9"></path>
                <path d="M127.378348,18.3965748 C127.408525,17.6096943 126.925688,17.216254 125.990192,17.2465187 L115.639381,17.2465187 L115.639381,11.9502075 L127.287816,11.9502075 C130.667673,12.0107367 132.417955,13.6450271 132.448133,16.883343 L132.448133,27.9601996 C132.417955,29.3523728 131.995473,30.502429 131.150509,31.4406327 C130.275368,32.3788364 129.158808,32.8630705 127.80083,32.8630705 L120.739344,32.8630705 C117.299132,32.8328059 115.579027,31.2590449 115.518672,28.1417874 L115.518672,23.8744738 C115.548849,20.6058932 117.208601,18.9413382 120.497925,18.9110736 L127.348171,18.9110736 L127.378348,18.3965748 Z M120.709166,26.5377617 C120.709166,26.8404081 120.860053,27.0825252 121.131648,27.264113 C121.373067,27.4759654 121.67484,27.597024 122.067144,27.597024 L126.02037,27.597024 C126.925688,27.597024 127.378348,27.264113 127.408525,26.5377617 L127.408525,25.0547946 C127.408525,24.2376494 126.925688,23.8442092 125.990192,23.8442092 L122.067144,23.8442092 C121.554131,23.8442092 121.192003,23.9350031 121.010939,24.0863263 C120.829876,24.2679141 120.739344,24.6613543 120.739344,25.2061178 L120.739344,26.5377617 L120.709166,26.5377617 Z" id="Shape" fill="#538DC9"></path>
                <path d="M137.427386,7.82618961 C137.458185,6.39590047 137.981777,5.23949648 139.05976,4.35697764 C140.076143,3.47445881 141.400522,3.01798355 143.063695,2.98755187 L146.390041,2.98755187 L146.390041,8.13050645 L144.357274,8.13050645 C143.248492,8.16093814 142.694101,8.67827676 142.663302,9.68252233 L142.663302,10.8084946 L146.390041,10.8084946 L146.390041,16.164471 L142.663302,16.164471 L142.663302,31.8672199 L137.427386,31.8672199 L137.427386,7.82618961 Z" id="Shape" fill="#538DC9"></path>
                <path d="M154.595993,25.7611589 L154.595993,26.0935889 C154.595993,26.5166815 154.717352,26.8491114 154.929728,27.0908786 C155.081426,27.3930876 155.324142,27.574413 155.597198,27.574413 L156.264668,27.574413 L166.216035,27.574413 L166.216035,32.8630705 L154.929728,32.8630705 C153.898184,32.8630705 153.109356,32.7724078 152.532905,32.5608615 C151.926114,32.3493152 151.349663,32.0168853 150.864231,31.5635718 C150.287779,30.9893747 149.893365,30.4453985 149.711328,29.8409805 C149.498952,29.2365625 149.407933,28.4205982 149.407933,27.3930876 L149.377593,16.8157724 C149.438272,13.612357 151.106947,11.9804284 154.413956,11.9502075 L161.392049,11.9502075 C164.60804,12.0106493 166.246375,13.7030197 166.307054,16.9970978 L166.307054,21.1675821 L154.595993,25.7611589 Z M160.997635,18.2965966 L160.997635,18.1757129 C160.997635,17.9037248 160.876277,17.6619576 160.6639,17.5108531 C160.421184,17.3295277 160.117789,17.2690859 159.784054,17.2690859 L156.173649,17.2690859 C155.718556,17.2690859 155.354482,17.3899695 155.051086,17.6619576 C154.687012,17.9037248 154.504975,18.2361548 154.504975,18.6290265 L154.504975,20.7444895 L160.997635,18.2965966 Z" id="Shape" fill="#538DC9"></path>
                <path d="M177.555601,31.8672199 C176.741364,31.8672199 176.021078,31.8071255 175.332108,31.6568894 C174.643139,31.5367005 173.922852,31.2362284 173.233883,30.6953785 C172.513597,30.0944341 171.981211,29.4033481 171.730677,28.6521677 C171.448826,27.9009873 171.292242,27.0596652 171.292242,26.1282015 L171.292242,16.3027615 C171.260925,15.4914866 171.354875,14.8004006 171.542776,14.1994563 C171.730677,13.5985119 172.106478,12.9975676 172.670181,12.4266705 C173.327833,11.8257261 173.985486,11.4050651 174.674456,11.1947346 C175.332108,11.0444985 176.115028,10.9543568 176.960582,10.9543568 L185.134265,10.9543568 L185.134265,12.1862927 L177.148482,12.1862927 C175.739227,12.1862927 174.643139,12.4567177 173.828902,13.0276148 C173.014665,13.6285592 172.57623,14.6802118 172.57623,16.1525254 L172.57623,25.9479182 C172.57623,26.6390041 172.670181,27.3000429 172.889398,27.9610817 C173.108616,28.5920733 173.484417,29.1629704 174.016803,29.6437259 C174.611822,30.0643869 175.175524,30.3348118 175.739227,30.4550007 C176.334246,30.5751896 176.960582,30.635284 177.618234,30.635284 L185.228216,30.635284 L185.228216,31.8672199 L177.555601,31.8672199 Z" id="Shape" fill="#538DC9"></path>
                <path d="M206.141079,26.1792605 C206.141079,26.9615678 206.080181,27.6536088 205.988835,28.2854724 C205.806143,28.9474247 205.471208,29.5792883 204.953581,30.2111519 C203.857429,31.3545241 202.517687,31.8961215 200.903908,31.8660328 L194.692379,31.8660328 C193.078599,31.8660328 191.769307,31.3846129 190.7645,30.4518619 C189.729246,29.5191109 189.211618,28.2252949 189.211618,26.5403254 L189.211618,23.3810074 C189.272516,19.8004471 191.068987,17.9650338 194.631482,17.9048563 L204.923132,17.9048563 L204.923132,16.5207742 C204.923132,15.377402 204.588197,14.3844735 203.918326,13.5118999 C203.492045,12.9402138 203.004866,12.5791489 202.426341,12.3986165 C201.847816,12.2481728 201.208394,12.1879953 200.477626,12.1879953 L189.211618,12.1879953 L189.211618,10.9543568 L199.899101,10.9543568 C200.873459,10.9543568 201.75647,11.0145343 202.548136,11.164978 C202.943968,11.2552443 203.339801,11.405688 203.674737,11.6163092 C204.040121,11.8269304 204.375056,12.1579065 204.679543,12.5791489 C205.623451,13.8127874 206.11063,15.1968695 206.080181,16.7915729 L206.080181,26.1792605 L206.141079,26.1792605 Z M204.892683,19.108406 L194.479238,19.108406 C193.230843,19.1384948 192.256485,19.5296484 191.556166,20.2517782 C190.825398,21.0039968 190.460014,22.027014 190.460014,23.3208299 L190.460014,26.4500591 C190.460014,27.051834 190.520911,27.6235201 190.642706,28.10494 C190.7645,28.6164486 191.099436,29.0978685 191.617063,29.5191109 C192.530523,30.2713294 193.504881,30.6323943 194.601033,30.6323943 L200.903908,30.6323943 C203.552942,30.6023056 204.862235,29.2182234 204.862235,26.5102366 L204.892683,19.108406 Z" id="Shape" fill="#538DC9"></path>
                <path d="M218.550884,12.212724 C215.696967,12.2726462 214.285028,13.8306245 214.345111,16.886659 L214.345111,31.8672199 L213.11342,31.8672199 L213.11342,16.8566979 C213.053337,12.9317909 214.945936,10.9543568 218.731132,10.9543568 L220.082988,10.9543568 L220.082988,12.1827628 L218.550884,12.1827628 L218.550884,12.212724 Z" id="Shape" fill="#538DC9"></path>
                <path d="M240,25.9990408 C239.87976,29.9908873 237.805622,31.926328 233.717466,31.8658455 L229.17841,31.8658455 C228.216491,31.8658455 227.374812,31.7751217 226.593253,31.6239154 C225.811693,31.4122266 225.060194,30.9283664 224.338755,30.2025761 C223.797675,29.5372684 223.436955,28.8417194 223.316716,28.1461704 C223.136356,27.4506214 223.046176,26.6945898 223.076236,25.8478345 L223.076236,16.8359386 C223.136356,12.7836096 225.150374,10.7876863 229.14835,10.8179276 L238.767541,10.8179276 L238.767541,3.98340249 L240,3.98340249 L240,25.9990408 Z M238.797601,12.0578193 L229.08823,12.0578193 C228.396851,12.0578193 227.765591,12.1485431 227.194452,12.2997494 C226.593253,12.4207144 226.022113,12.7836096 225.511094,13.3884348 C225.000074,13.9327775 224.669414,14.4468789 224.549174,14.9912216 C224.368815,15.5355644 224.278635,16.1706308 224.308695,16.9266624 L224.308695,26.5131423 C224.308695,28.1159291 224.759594,29.2046145 225.691453,29.7791985 C226.142353,30.0513698 226.653372,30.2630587 227.224512,30.3840237 C227.795651,30.53523 228.426911,30.5957125 229.11829,30.5957125 L233.356746,30.5957125 C234.949925,30.5957125 236.242504,30.2328174 237.234483,29.4767859 C238.226462,28.7812369 238.737481,27.5715864 238.767541,25.8780758 L238.767541,12.0578193 L238.797601,12.0578193 Z" id="Shape" fill="#538DC9"></path>
                <path d="M2.64755763,10.8893535 C3.03796111,10.702144 3.45839562,10.5773377 3.84879909,10.4837329 C4.59957501,6.80194577 7.72280281,4.05620619 11.4466513,4.05620619 C15.2005309,4.05620619 18.3237587,6.80194577 19.0445036,10.4837329 C20.185683,10.702144 21.1466761,11.2013694 21.8974521,11.9190059 C21.9274831,11.2013694 21.8974521,10.5461361 21.8073589,9.89090279 C21.3568934,4.33702047 16.882269,0 11.4466513,0 C5.83084751,0 1.26612995,4.61783474 1.02588166,10.3901282 C0.995850622,10.8893535 0.995850622,11.4197805 0.995850622,11.9502075 C1.47634721,11.5445868 2.01690586,11.1701678 2.64755763,10.8893535" id="Shape" fill="#A7262B"></path>
                <path d="M17.0069005,11.9502075 L4.57303301,11.9502075 C3.97525092,11.9502075 3.34757972,12.1015306 2.71990852,12.3739124 C2.09223732,12.6462941 1.58412255,12.9792051 1.19556419,13.3726453 C0.418447465,14.310849 0.0298891046,15.6727576 0,17.4886357 L0,27.3246423 C0.0298891046,29.1405204 0.418447465,30.502429 1.19556419,31.4406327 C1.58412255,31.8340729 2.09223732,32.1669839 2.71990852,32.4393656 C3.34757972,32.7117474 3.97525092,32.8630705 4.57303301,32.8630705 L17.0069005,32.8630705 C20.2050347,32.8328059 21.8489355,31.0471924 21.9087137,27.5364947 L21.9087137,17.2767833 C21.8489355,13.7660856 20.2349238,11.9804721 17.0069005,11.9502075" id="Shape" fill="#A7262B"></path>
            </g>
        </g>
    </g>
</svg>