<svg xmlns="http://www.w3.org/2000/svg" viewBox="0 0 216 216"><defs><style>.cls-1{fill:#e1b724;}</style></defs><g id="Layer_2" data-name="Layer 2"><g id="Layer_1-2" data-name="Layer 1"><path class="cls-1" d="M108.07,0A108,108,0,1,0,216,108.09,108,108,0,0,0,108.07,0ZM108,207a99,99,0,1,1,99-99A99,99,0,0,1,108,207Zm.09-172.43a73.43,73.43,0,1,0,73.32,73.49A73.42,73.42,0,0,0,108.1,34.58ZM108,173.94a65.94,65.94,0,1,1,65.91-66A65.91,65.91,0,0,1,108,173.94Zm-5-47.15a17.79,17.79,0,0,1-.38-2.06c-.19-1.21-.26-2.44-.56-3.62-.4-1.57-1-3.09-1.49-4.63a10.9,10.9,0,0,0-1.77-3.6,5.54,5.54,0,0,1-.32-.59,3.09,3.09,0,0,0-.57-.76,22,22,0,0,0-3.56-2.33,19.44,19.44,0,0,0-4.89-1.59c-.75-.18-1.51-.31-2.27-.46a.2.2,0,0,0,0-.15l3.61-1.17.15,0a36.25,36.25,0,0,0,3.72-1.12A13.83,13.83,0,0,0,99.41,102a9.15,9.15,0,0,0,2.42-3.52,16.14,16.14,0,0,0,.8-6.42c0-.89-.2-1.79-.2-2.68a8.83,8.83,0,0,0-1.49-4.48c-.2-.34-.45-.66-.63-1a10.46,10.46,0,0,0-2.36-3A16.64,16.64,0,0,0,90.7,77.2a19.67,19.67,0,0,0-5.77-.69c-2.19.11-4.39.07-6.59.09l-16.11.15c-1.13,0-1.37.25-1.37,1.35q0,13.23,0,26.45,0,14.24-.07,28.47c0,.31,0,.62,0,.92a2.64,2.64,0,0,0,.33.05l13,.13c.24,0,.48-.05.8-.08v-1l-.09-19.11c0-.3,0-.6,0-.9a1.23,1.23,0,0,1,1.18-1.24,6.27,6.27,0,0,1,.75,0c1,0,2.1,0,3.15.06a6.63,6.63,0,0,1,6.28,4.42,31.1,31.1,0,0,1,1.61,5c.55,2.28.93,4.6,1.37,6.9.33,1.71.64,3.43,1,5.14.15.74.19.75,1,.75h13.26a6.2,6.2,0,0,0,.62-.06,1.52,1.52,0,0,0,0-.22C104.37,131.39,103.69,129.1,103.05,126.79Zm-19.72-25a7.13,7.13,0,0,1-3.07.52c-1.12-.09-2.25-.06-3.37-.08a6.3,6.3,0,0,1-.75,0,1.26,1.26,0,0,1-1.21-1.36c0-1,0-2.09,0-3.14V94.81h0c0-1.85,0-3.7,0-5.53,0-1.65.84-2,2-1.93,1.57.05,3.14.1,4.71.05A6,6,0,0,1,86.65,90l.09.12c1.16,1.64,1.18,1.7,1.12,3.74,0,.9-.11,1.79-.1,2.69a4.38,4.38,0,0,1-1,2.62A7.36,7.36,0,0,1,83.33,101.76Zm73.28,2.7q0,14.46,0,28.92c0,.12,0,.25,0,.37a.34.34,0,0,1-.06.12H146v-1c0-3.72.05-7.44.08-11.16a2.49,2.49,0,0,0,0-.67.69.69,0,0,0-.34-.42c-.23-.08-.43.07-.51.32s-.09.29-.14.43c-.72,2.13-1.37,4.28-2.17,6.38a11.19,11.19,0,0,1-5.79,6.28,4.21,4.21,0,0,1-.71.23,14.88,14.88,0,0,1-5.71.44c-1.84-.16-3.68-.34-5.5-.65a11.73,11.73,0,0,1-6.87-3.82,10.61,10.61,0,0,1-1.75-2.5c-.67-1.37-1.45-2.67-2-4.11a27,27,0,0,1-1.58-6.91c-.17-1.69-.37-3.38-.54-5.06a9,9,0,0,1,0-1.27c.18-4.19.32-8.38.59-12.57a35.44,35.44,0,0,1,.76-4,30.52,30.52,0,0,1,3.52-8.87,7.66,7.66,0,0,1,2.09-2.51c1.16-.86,2.27-1.8,3.48-2.6a11.52,11.52,0,0,1,2.68-1.32A26.86,26.86,0,0,1,131.83,77a44.83,44.83,0,0,1,4.63-.21,33.56,33.56,0,0,1,7,.86,5.17,5.17,0,0,1,1.39.52c1.44.84,2.91,1.67,4.27,2.63a18.34,18.34,0,0,1,2.46,2.29,15.82,15.82,0,0,1,3.93,8.65c.05.27.09.54.14.81s.08.55.14.9c-.85.17-1.68.35-2.5.5-2.4.45-4.8.92-7.22,1.32-1.15.19-2.33.24-3.5.32-.49,0-.56,0-.61-.53-.08-.74-.14-1.49-.21-2.23a6.6,6.6,0,0,0-3-5.2A7.1,7.1,0,0,0,128,91.23a26,26,0,0,0-.82,3.72,50.4,50.4,0,0,0-.68,9c0,2,.08,4,.12,6,0,.8,0,1.6,0,2.4a19.85,19.85,0,0,0,1.78,8,8.12,8.12,0,0,0,10.82,4.28,7,7,0,0,0,4.29-5.55,2.4,2.4,0,0,0,0-.6c-.06-1.5-.13-3-.2-4.49,0-.27-.05-.54-.09-.89-.37,0-.71-.09-1.05-.09h-8.42a62.72,62.72,0,0,1,0-8.88c.61-.14,21.56-.26,22.59-.13l0,0,.05.06A1.6,1.6,0,0,1,156.61,104.46ZM52.24,53.28l-4-4.1,1-1,5.59,2.57,3.65-3.58L52,44.37a4.41,4.41,0,0,0,.3-2.75,4.77,4.77,0,0,0-1.23-2,4,4,0,0,0-3.27-1.29,6.13,6.13,0,0,0-3.73,2l-5.61,5.5L48.94,56.51Zm-4.12-9a2.45,2.45,0,0,1-.74,1.24L46,46.88l-2-2.05,1.52-1.49q1.28-1.25,2.28-.21A1.21,1.21,0,0,1,48.12,44.26Zm11.07,2.5L50.58,34.44,59.85,28l2,2.84-5.56,3.89,1.25,1.79L62,33.34l1.91,2.74-4.49,3.14,1.41,2,5.37-3.77c-.21-.19-.43-.39-.64-.62l3.51-2.57a2.54,2.54,0,0,0,3.29.41c1-.51,1.43-1,1.16-1.6a.84.84,0,0,0-.69-.5,4.35,4.35,0,0,0-1.5.2q-3.88,1-5.43.45a4.09,4.09,0,0,1-2.27-2.09,4.5,4.5,0,0,1-.1-3.89A6.8,6.8,0,0,1,67.1,24c2.75-1.34,5.11-1.13,7.07.65l-2.92,2.72a2.34,2.34,0,0,0-2.83-.3c-.9.44-1.22.94-.94,1.5a.74.74,0,0,0,.59.43,4,4,0,0,0,1.38-.19A27.8,27.8,0,0,1,73.34,28a4.22,4.22,0,0,1,4.14,2.44,4.41,4.41,0,0,1,0,4.13A7.86,7.86,0,0,1,73.7,38c-2.7,1.33-5,1.3-6.9-.05l1.66,2.37ZM84.43,33.39l-1.56-5.23,2.49-.75A5.81,5.81,0,0,0,88.81,25a4.41,4.41,0,0,0,.44-3.75A4.61,4.61,0,0,0,87.82,19,4.37,4.37,0,0,0,85.44,18a9.43,9.43,0,0,0-3.65.52l-6.15,1.84L80,34.73ZM82.67,21.82c1.2-.36,1.94-.09,2.21.81s-.22,1.63-1.52,2l-1.48.44-.83-2.78ZM93.6,29a7.31,7.31,0,0,0,10.25-1.24,8.17,8.17,0,0,0,1.32-5.93,7.7,7.7,0,0,0-2.6-5.26,6.76,6.76,0,0,0-5.32-1.47,6.67,6.67,0,0,0-5,2.79A8.15,8.15,0,0,0,91,23.67,7.86,7.86,0,0,0,93.6,29Zm4.05-10.5c1.39-.16,2.24,1,2.54,3.65a9.23,9.23,0,0,1-.08,3.76,1.75,1.75,0,0,1-1.55,1.2q-2.16.24-2.65-3.91Q95.4,18.79,97.65,18.53Zm12.61,11.23-3.74-.24,1-15,4.35.28L115,20.52a21.58,21.58,0,0,1,1.4,3,21.75,21.75,0,0,1-.1-4l.28-4.44,3.75.24-1,15-3.75-.24-3.69-6.89a25.72,25.72,0,0,1-1.4-3.2,10.63,10.63,0,0,1,.21,2.48Zm12.33-6.34a4.14,4.14,0,0,1-.43-3.06,4.52,4.52,0,0,1,2.38-3.07,6.8,6.8,0,0,1,4.84-.3q4.47,1.07,5.05,5l-4,.24a2.32,2.32,0,0,0-2-2c-1-.23-1.54,0-1.68.56a.74.74,0,0,0,.18.71,4,4,0,0,0,1.18.73,28.82,28.82,0,0,1,3.5,1.87,4.13,4.13,0,0,1,1.5,1.9,4.2,4.2,0,0,1,.16,2.61,4.42,4.42,0,0,1-2.65,3.17,7.81,7.81,0,0,1-5,.26c-3.57-.83-5.42-2.84-5.55-6l4.35.24a2.55,2.55,0,0,0,2.28,2.41c1.13.27,1.76.1,1.91-.5a.88.88,0,0,0-.22-.83,4.38,4.38,0,0,0-1.29-.8Q123.4,24.87,122.59,23.42Zm10,10.31,5.18-14.11,4.33,1.59-5.18,14.11Zm12,5.21c2,1,3.5,1.32,4.51.85a4.67,4.67,0,0,0,2.29-2.18,3.36,3.36,0,0,0-1-4.45,3.21,3.21,0,0,0,2.25-.24,3.47,3.47,0,0,0,1.49-1.52,4,4,0,0,0,.29-2.94,4.47,4.47,0,0,0-2.53-2.66l-6.78-3.5-6.89,13.36Zm2.84-11.81,1.83.94c.91.47,1.17,1.08.79,1.82a1.36,1.36,0,0,1-.69.62,1.38,1.38,0,0,1-1.2-.16l-1.9-1Zm-.78,6a1.81,1.81,0,0,1,1,1,1.42,1.42,0,0,1-.1,1,1.26,1.26,0,0,1-.77.65,1.63,1.63,0,0,1-1.28-.2l-2-1,1.25-2.43Zm3.17,8.68,8.86-12.14,3.73,2.72-6.68,9.16,4.77,3.49-2.17,3Zm8.69,6.42L169,37.53l8.08,7.91-2.43,2.48-4.85-4.74-1.52,1.56,3.92,3.84L169.91,51,166,47.12l-1.72,1.76,4.85,4.73-2.51,2.57ZM79.77,188.5,76,196.9l-2.25-1a9.52,9.52,0,0,0,.11-1.84,5.38,5.38,0,0,1-5-.08A6.82,6.82,0,0,1,65,189.77a8.53,8.53,0,0,1,.63-6.33A9.73,9.73,0,0,1,70,178.61a7,7,0,0,1,6.42.16,7.17,7.17,0,0,1,3.7,3.32,7,7,0,0,1,.36,4.83l-4.66-1.59q.74-2.49-1-3.27c-1.51-.69-2.91.41-4.22,3.28-.79,1.73-1.07,3-.84,3.76a2.47,2.47,0,0,0,1.38,1.63,2.32,2.32,0,0,0,1.65.14,2,2,0,0,0,1.23-1.11l-2.48-1.13L73,185.45ZM87.08,183l-8.91,14.75,4,1,1.74-2.91,4.28,1.07.12,3.37,5,1.24-1-17.22Zm-1.48,9.55,2.45-4.32.14,5ZM108,186l6.63.28L114,202.72l-4.69-.19.47-11.76-3.51,11.64-3.21-.13-2.7-11.89-.47,11.76L96.09,202l.65-16.45,6.6.26,2,8.83Zm12.71-.85,1.91,16.35-5,.59-1.91-16.35Zm14.82-3.43,4.14,15.93-4,1-6.19-5.91a29.61,29.61,0,0,1-2.55-2.85,11.24,11.24,0,0,1,1.06,2.52l2,7.72-4,1-4.12-15.94,4.62-1.2,5.22,4.88a23.52,23.52,0,0,1,2.47,2.62,23.52,23.52,0,0,1-1.45-4.08l-1.22-4.72Zm16.82.12,4,8.33-2.23,1.06a9,9,0,0,0-1.34-1.27,5.39,5.39,0,0,1-3.25,3.73,6.77,6.77,0,0,1-5.68.23,8.54,8.54,0,0,1-4.44-4.56,9.66,9.66,0,0,1-.87-6.46,7.06,7.06,0,0,1,4.25-4.8,7.15,7.15,0,0,1,4.92-.68,7,7,0,0,1,3.92,2.84l-4.22,2.54q-1.43-2.16-3.14-1.35-2.25,1.06-.22,5.34,1.23,2.58,2.34,3.06a2.45,2.45,0,0,0,2.13,0,2.3,2.3,0,0,0,1.17-1.17,1.92,1.92,0,0,0-.06-1.65l-2.46,1.17-1.5-3.16Z"/></g></g></svg>