<svg xmlns="http://www.w3.org/2000/svg" width="502" height="163" viewBox="0 0 502 163">
    <g fill="none" fill-rule="evenodd">
        <g fill-rule="nonzero">
            <path fill="#00794D" d="M120 11.2c0 6.1-5 11.1-11.1 11.1s-11.1-5-11.1-11.1S102.8.1 108.9.1s11.1 5 11.1 11.1z"/>
            <g fill="#00467F">
                <path d="M76.1 63.7c8.7 0 14.6-5.7 14.6-14.4s-6-14.7-15.1-14.7c-8.2 0-14 5.8-14 15.1-.1 8.9 5.4 14 14.5 14z"/>
                <path d="M121.4 18c-2.4 4.4-7.1 7.4-12.5 7.4-7.8 0-14.2-6.4-14.2-14.2 0-1.7.3-3.3.8-4.8C89.7 5 83.6 4.3 77.4 4.3 34.7 4.3.1 38.9.1 81.6c0 42.7 34.6 77.3 77.3 77.3 42.7 0 77.3-34.6 77.3-77.3 0-26.4-13.2-49.7-33.3-63.6z"/>
            </g>
            <g fill="#1B75BC">
                <path d="M180.3 56.4c2-1.9 4.1-3.4 6.2-4.3 2.1-1 4.1-1.4 6.2-1.4 2.7 0 5.5 1 8.6 2.9 3 1.9 5.4 4.8 7.1 8.6 1.7 3.8 2.5 8 2.5 12.7 0 7.5-1.9 13.5-5.7 18-3.8 4.5-7.9 6.7-12.2 6.7-1.8 0-3.7-.4-5.5-1.3-1.8-.8-4.2-2.5-7.1-5v24.5h-12.1V51.6h12.1v4.8h-.1zm0 8.1v20.4c1.7 1.2 3.3 2.1 4.8 2.7 1.6.6 3 .9 4.5.9 2.5 0 4.7-1.1 6.5-3.4 1.8-2.2 2.7-5.9 2.7-10.9 0-4.4-.9-7.8-2.8-10s-4.1-3.4-6.6-3.4c-1.3 0-2.7.3-4.2.9-1.5.7-3.1 1.6-4.9 2.8zM227.4 62.7c2.7-4.5 5.2-7.6 7.6-9.3 2.4-1.7 4.9-2.6 7.7-2.8v12.1h-1.1c-2.9 0-5.7.9-8.3 2.7-2.6 1.8-4.6 4.4-5.9 7.7v25.4h-12V51.3h12v11.4zM283.3 87.3c-1.1 2.1-2.1 3.6-3 4.7-1.4 1.7-3 3.1-4.8 4.2-1.8 1.1-3.6 1.9-5.5 2.4s-3.8.8-5.9.8c-4 0-7.8-1-11.4-3.1-3.6-2-6.3-5-8.2-8.9-1.9-3.9-2.9-8.2-2.9-13 0-7.3 2.1-13.1 6.2-17.4 4.1-4.3 9.4-6.5 15.8-6.5 6.3 0 11.3 2 15.1 5.9 3.8 3.9 5.7 9.4 5.7 16.5 0 .9 0 2.3-.1 4.1h-29.9c.1 4.3 1.1 7.4 3 9.5 1.8 2.1 4.2 3.1 7 3.1 2.1 0 4-.6 5.5-1.7s2.8-2.7 3.9-4.9l9.5 4.3zM273.5 70c-.2-3.6-1.2-6.4-3-8.3-1.8-1.9-4.1-2.9-6.8-2.9-2.6 0-4.7.9-6.5 2.8-1.8 1.9-2.8 4.7-3 8.4h19.3zM288.8 51.4c.2-4.9.7-8.5 1.5-10.8.7-2.3 1.9-4.1 3.4-5.6 1.1-1.1 2.7-2 4.8-2.7 2.1-.7 4.2-1 6.3-1h4.5v8.4h-2c-2.3 0-4 .4-5 1.3s-1.5 2-1.5 3.5v6.8h7.1v8.6h-7.1v38.6h-12V60h-5.4v-8.6h5.4zM348.6 87.3c-1.1 2.1-2.1 3.6-3 4.7-1.4 1.7-3 3.1-4.8 4.2-1.8 1.1-3.6 1.9-5.5 2.4s-3.8.8-5.9.8c-4 0-7.8-1-11.4-3.1-3.6-2-6.3-5-8.2-8.9-1.9-3.9-2.9-8.2-2.9-13 0-7.3 2.1-13.1 6.2-17.4 4.1-4.3 9.4-6.5 15.8-6.5 6.3 0 11.3 2 15.1 5.9 3.8 3.9 5.7 9.4 5.7 16.5 0 .9 0 2.3-.1 4.1h-29.9c.1 4.3 1.1 7.4 3 9.5 1.8 2.1 4.2 3.1 7 3.1 2.1 0 4-.6 5.5-1.7s2.8-2.7 3.9-4.9l9.5 4.3zM338.9 70c-.2-3.6-1.2-6.4-3-8.3-1.8-1.9-4.1-2.9-6.8-2.9-2.6 0-4.7.9-6.5 2.8-1.8 1.9-2.8 4.7-3 8.4h19.3zM365.7 62.7c2.7-4.5 5.2-7.6 7.6-9.3 2.4-1.7 4.9-2.6 7.7-2.8v12.1h-1c-2.9 0-5.7.9-8.3 2.7-2.6 1.8-4.6 4.4-5.9 7.7v25.4h-12V51.3h12v11.4h-.1zM397.5 62.7c2.7-4.5 5.2-7.6 7.6-9.3 2.4-1.7 4.9-2.6 7.7-2.8v12.1h-1.1c-2.9 0-5.7.9-8.3 2.7-2.6 1.8-4.6 4.4-5.9 7.7v25.4h-12V51.3h12v11.4zM455.1 87.3c-1.1 2.1-2.1 3.6-3 4.7-1.4 1.7-3 3.1-4.8 4.2-1.8 1.1-3.6 1.9-5.5 2.4s-3.8.8-5.9.8c-4 0-7.8-1-11.4-3.1-3.6-2-6.3-5-8.2-8.9-1.9-3.9-2.9-8.2-2.9-13 0-7.3 2.1-13.1 6.2-17.4 4.1-4.3 9.4-6.5 15.8-6.5 6.3 0 11.3 2 15.1 5.9 3.8 3.9 5.7 9.4 5.7 16.5 0 .9 0 2.3-.1 4.1h-29.9c.1 4.3 1.1 7.4 3 9.5 1.8 2.1 4.2 3.1 7 3.1 2.1 0 4-.6 5.5-1.7s2.8-2.7 3.9-4.9l9.5 4.3zM445.4 70c-.2-3.6-1.2-6.4-3-8.3-1.8-1.9-4.1-2.9-6.8-2.9-2.6 0-4.7.9-6.5 2.8-1.8 1.9-2.8 4.7-3 8.4h19.3zM489.8 31.4h11.9v67.2h-11.9v-5.5c-2 2.1-4 3.6-6.2 4.7-2.2 1-4.4 1.6-6.8 1.6-4.7 0-8.7-1.9-11.9-5.8-3.9-4.7-5.9-10.8-5.9-18.5 0-4 .6-7.5 1.7-10.7 1.1-3.2 2.5-5.7 4-7.6 1.6-1.9 3.4-3.4 5.5-4.5s4.3-1.7 6.8-1.7c2.4 0 4.7.5 6.8 1.6 2.1 1 4.1 2.6 6 4.7V31.4zm0 53.7V65.3c-1.4-1.5-2.8-2.7-4.2-3.4-1.4-.8-2.8-1.1-4.2-1.1-2.6 0-4.8 1.1-6.5 3.3-1.8 2.2-2.6 6-2.6 11.4 0 4.9.9 8.5 2.7 10.7 1.8 2.3 4 3.4 6.6 3.4 1.4 0 2.8-.4 4.2-1.1 1.3-.8 2.7-1.9 4-3.4z"/>
            </g>
            <g fill="#FFF">
                <path d="M25.4 56.7h11.1L44.9 88l8.4-31.3h11.2l-12.7 47.2H38zM70.1 36.7H82v11.9H70.1V36.7zm0 20H82v47.2H70.1V56.7zM101.2 61.7c2-1.9 4.1-3.4 6.2-4.3 2.1-1 4.1-1.4 6.2-1.4 2.7 0 5.5 1 8.6 2.9 3 1.9 5.4 4.8 7.1 8.6 1.7 3.8 2.5 8 2.5 12.7 0 7.5-1.9 13.5-5.7 18-3.8 4.5-7.9 6.7-12.2 6.7-1.8 0-3.7-.4-5.5-1.3-1.8-.8-4.2-2.5-7.1-5v24.5H89.2V56.9h12.1v4.8h-.1zm0 8.1v20.4c1.7 1.2 3.3 2.1 4.8 2.7 1.6.6 3 .9 4.5.9 2.5 0 4.7-1.1 6.5-3.4 1.8-2.2 2.7-5.9 2.7-10.9 0-4.4-.9-7.8-2.8-10s-4.1-3.4-6.6-3.4c-1.3 0-2.7.3-4.2.9-1.4.7-3.1 1.6-4.9 2.8z"/>
            </g>
            <path fill="#00467F" d="M61.5 29.4h25.7V51H61.5z"/>
            <path fill="#FFF" d="M69.3 40.956c-.4-5.036 4.2-8.863 9.1-7.654 2.9.805 5.1 3.424 5.4 6.446.4 5.036-4.2 8.863-9.1 7.654-3-.705-5.2-3.323-5.4-6.446z"/>
        </g>
        <path d="M195.4 117.6h290.1v46H195.4z"/>
        <text fill="#000" font-family="Helvetica" font-size="60">
            <tspan x="195.351" y="160.212">e-check</tspan>
        </text>
    </g>
</svg>
