<svg xmlns="http://www.w3.org/2000/svg" width="38.475" height="31.263" viewBox="0 0 38.475 31.263">
  <path id="Path_1699" data-name="Path 1699" d="M97.957,249.92a15.753,15.753,0,0,1-4.534,1.242,7.921,7.921,0,0,0,3.471-4.367,15.793,15.793,0,0,1-5.012,1.915,7.9,7.9,0,0,0-13.451,7.2,22.4,22.4,0,0,1-16.269-8.247A7.9,7.9,0,0,0,64.6,258.2a7.86,7.86,0,0,1-3.575-.989c0,.033,0,.067,0,.1a7.9,7.9,0,0,0,6.333,7.738,7.9,7.9,0,0,1-3.564.137,7.9,7.9,0,0,0,7.374,5.481,15.954,15.954,0,0,1-11.686,3.269,22.331,22.331,0,0,0,12.1,3.547c14.519,0,22.458-12.027,22.458-22.459q0-.512-.024-1.021a16.027,16.027,0,0,0,3.939-4.085Zm0,0" transform="translate(-59.482 -246.22)" fill="#fff"/>
</svg>
