<svg xmlns="http://www.w3.org/2000/svg" viewBox="0 0 519.15 350.57"><defs><style>.cls-1{fill:#999;}</style></defs><g id="Layer_2" data-name="Layer 2"><g id="Layer_1-2" data-name="Layer 1"><path class="cls-1" d="M181.63,148v-.08a13.19,13.19,0,0,1,13.59-13.19c7.88,0,13.53,5.87,13.53,13.12v.07a13.2,13.2,0,0,1-13.6,13.2C187.28,161.14,181.63,155.27,181.63,148Zm21.25,0v-.08a7.75,7.75,0,0,0-7.73-8,7.62,7.62,0,0,0-7.65,7.94v.07a7.75,7.75,0,0,0,7.72,8A7.63,7.63,0,0,0,202.88,148Zm10.84-12.83h19.43v5.1H219.33v5.43h12.18v5.11H219.33v9.87h-5.61Zm59,4.74H265v-5.18h21.14v5.18h-7.76v20.34h-5.61Zm17.66-5.18H296v10.1h10.35v-10.1H312v25.52h-5.62V150H296v10.25h-5.61Zm27.68,0h19.25v5H323.68v5.17h12v5h-12v5.36h13.85v5H318.1ZM0,337.6v-.08a12.82,12.82,0,0,1,13.16-13,13,13,0,0,1,9.94,3.89l-3.53,4.07a9.35,9.35,0,0,0-6.45-2.85c-4.25,0-7.32,3.54-7.32,7.86v.07c0,4.33,3,7.93,7.32,7.93,2.88,0,4.65-1.15,6.63-2.95l3.53,3.57a12.9,12.9,0,0,1-10.34,4.5A12.73,12.73,0,0,1,0,337.6Zm54.4-12.87h5.12l10.81,25.41h-5.8l-2.31-5.66H51.55l-2.31,5.66H43.58Zm5.84,14.85-3.36-8.18-3.35,8.18Zm29.92,6.88,3.28-3.93A11.55,11.55,0,0,0,101,345.6c2.28,0,3.64-.9,3.64-2.38v-.07c0-1.41-.86-2.13-5.08-3.21-5.08-1.3-8.36-2.7-8.36-7.71v-.08c0-4.57,3.68-7.6,8.83-7.6a14.57,14.57,0,0,1,9.37,3.21l-2.88,4.18a11.85,11.85,0,0,0-6.56-2.49c-2.13,0-3.24,1-3.24,2.2v.07c0,1.66,1.08,2.2,5.44,3.32,5.12,1.33,8,3.17,8,7.57v.07c0,5-3.82,7.82-9.26,7.82A16,16,0,0,1,90.16,346.46Zm43.08-21.55h5.55v25.23h-5.55Zm29.89,0h5.12l11.82,15.53V324.91h5.48v25.23h-4.73l-12.21-16v16h-5.48Zm45.39,12.69v-.08a13,13,0,0,1,13.44-13c7.78,0,13.37,5.8,13.37,13v.07a13,13,0,0,1-13.44,13.05C214.1,350.57,208.52,344.77,208.52,337.6Zm21,0v-.08a7.67,7.67,0,0,0-7.64-7.93,7.55,7.55,0,0,0-7.57,7.86v.07a7.66,7.66,0,0,0,7.64,7.93A7.54,7.54,0,0,0,229.53,337.6Zm50.4-12.69h11.53c3.21,0,5.7.9,7.36,2.56a7.93,7.93,0,0,1,2.16,5.76v.08a7.84,7.84,0,0,1-5.41,7.82l6.17,9h-6.49l-5.41-8.08h-4.36v8.08h-5.55Zm11.17,12.25c2.71,0,4.26-1.44,4.26-3.57v-.07c0-2.38-1.66-3.6-4.36-3.6h-5.52v7.24ZM324,324.91h19v4.94H329.54V335h11.89v4.94H329.54v5.3h13.69v4.94H324Zm40.45,21.55,3.28-3.93a11.55,11.55,0,0,0,7.53,3.07c2.27,0,3.64-.9,3.64-2.38v-.07c0-1.41-.86-2.13-5.08-3.21-5.08-1.3-8.36-2.7-8.36-7.71v-.08c0-4.57,3.68-7.6,8.83-7.6a14.57,14.57,0,0,1,9.37,3.21l-2.88,4.18a11.88,11.88,0,0,0-6.56-2.49c-2.13,0-3.25,1-3.25,2.2v.07c0,1.66,1.09,2.2,5.45,3.32,5.11,1.33,8,3.17,8,7.57v.07c0,5-3.82,7.82-9.26,7.82A16,16,0,0,1,364.47,346.46Zm41.71-8.86v-.08a13,13,0,0,1,13.44-13c7.79,0,13.37,5.8,13.37,13v.07a13,13,0,0,1-13.44,13.05C411.77,350.57,406.18,344.77,406.18,337.6Zm21,0v-.08a7.67,7.67,0,0,0-7.64-7.93,7.55,7.55,0,0,0-7.57,7.86v.07a7.67,7.67,0,0,0,7.64,7.93A7.54,7.54,0,0,0,427.19,337.6ZM456,324.91H467.5c3.21,0,5.69.9,7.35,2.56a7.89,7.89,0,0,1,2.16,5.76v.08a7.84,7.84,0,0,1-5.4,7.82l6.16,9h-6.49l-5.4-8.08h-4.36v8.08H456Zm11.17,12.25c2.7,0,4.25-1.44,4.25-3.57v-.07c0-2.38-1.66-3.6-4.36-3.6h-5.51v7.24ZM505.93,330h-7.68v-5.12h20.9V330h-7.67v20.11h-5.55ZM72.94,0l38.41,106.83H93.16l-8.09-23H57.7l-7.46,23H31.89l7.62-23H34.38l5.13-14.92H44.8L68.12,0ZM62.52,68.89H79.63L70.77,43.54Zm77.31-67.8L194.1,65.31V3h16.48V108.54h-2.64L153.51,43.7v63.13H136.56V1.09ZM403.61,3.27l3.27,15.86H380V49.76h29.39v15.4H380v26h26.9v15.71H363V65.16h-6.54V49.76h6.38V3.27Zm53.95,0V91.59H487v15.24h-46V3.27ZM329.29,48.36V95.63A55.31,55.31,0,0,1,294,108.08c-29.54,0-53-23.49-53-53.34,0-29.55,23.17-52.87,52.56-52.87a58.73,58.73,0,0,1,27.52,7L317.79,25a54.91,54.91,0,0,0-26-7c-18.2,0-32.66,16.79-32.66,37.78,0,20.84,15.09,37.17,34,37.17,8.09,0,15.87-2,19.75-5.13V63.44H287.31l3.42-15.08ZM179.82,188.29V291.85H163.18V188.29Zm38.26-2.18,54.27,64.23V188h16.48V293.57h-2.64l-54.43-64.85v63.13H214.81V186.11Zm261,19c-9-3.26-17.73-5.28-23.63-5.28-8.25,0-14.78,5.91-14.78,13.37,0,7.77,3.27,10.42,20.53,17.57,10.73,4.51,15.55,7.16,20.06,11.66a29.34,29.34,0,0,1,8.55,20.53c0,18-15.08,31.57-35,31.57a84.07,84.07,0,0,1-33.12-7.31l4.35-14.46,1.24.31c16.95,5.6,19.75,6.38,27.37,6.38,10.57,0,18-6.69,18-16.18,0-6.37-3.57-10.73-12.12-14.46l-8.09-3.42c-8.09-3.58-16.17-8.08-20.21-11.51-5.44-4.51-9-12.44-9-20.21,0-16.64,13.68-28.15,33.43-28.15a72.9,72.9,0,0,1,28.45,6.22ZM45.57,188.29l15.56,62.2,21.45-57.07L105,250.49l15.24-62.2h17.26L109.8,296.05h-4L82.89,237.59l-22.7,58.46H56.46L28.16,188.29Zm301.64.16h1.4c28.61,0,51.16,23.17,51.16,52.55,0,29.55-21.93,50.85-52.56,50.85H324V188.45Zm-2.8,87.85h.94c21.45,0,36.85-14.92,36.85-35.76S366.18,204,344.57,204h-3.89v72.3Z"/></g></g></svg>