<svg xmlns="http://www.w3.org/2000/svg" viewBox="0 0 588.01 158.01"><defs><style>.cls-1{fill:#007a4e;}.cls-2{fill:#1c76bc;}.cls-3{fill:#16487e;}.cls-4{fill:#231f20;}.cls-5{fill:#232020;}.cls-6{fill:#242021;}.cls-7{fill:#272324;}</style></defs><g id="Layer_2" data-name="Layer 2"><g id="Layer_1-2" data-name="Layer 1"><g id="VIP-Preferred-logo"><path class="cls-1" d="M357.31,63.7c.19.24.5.19.76.27a6.55,6.55,0,1,1-3.38-.12c.12,0,.29,0,.35-.15Z"/><path class="cls-2" d="M469.4,110.4c0,3.54,0,7.08,0,10.61,0,.65-.19.78-.79.77-1.84,0-3.69,0-5.53,0-.68,0-.8-.21-.8-.83,0-7,0-14.06,0-21.09,0-.69-.18-.9-.86-.84s-1.22,0-1.84,0c-.36,0-.49-.12-.49-.49,0-1.36,0-2.73,0-4.1,0-.37.11-.5.49-.49.68,0,1.37,0,2.05,0,.47,0,.65-.11.68-.6a35.45,35.45,0,0,1,.48-4.36c.88-4.66,3.5-6.18,7.3-6.77a27.6,27.6,0,0,1,3.75-.12c.45,0,.56.17.55.58,0,1.27,0,2.55,0,3.82,0,.43-.12.59-.56.57a8,8,0,0,0-2.39.2,2.53,2.53,0,0,0-2.08,2.52c0,1.22,0,2.45,0,3.68,0,.37.13.48.5.48,1.06,0,2.12,0,3.18,0,.43,0,.58.11.57.55,0,1.32,0,2.64,0,4,0,.51-.2.58-.62.57-.92,0-1.85,0-2.77,0-.66,0-.88.13-.87.84C469.42,103.37,469.4,106.89,469.4,110.4Z"/><path class="cls-2" d="M507.75,100.28c.83-1,1.52-2.1,2.33-3.09a9.22,9.22,0,0,1,6.08-3.66c.51-.06.64.07.64.58,0,2,0,3.91,0,5.87,0,.53-.16.66-.68.67a9.09,9.09,0,0,0-8.27,5.86,2.55,2.55,0,0,0-.1.91c0,4.52,0,9,0,13.58,0,.64-.17.79-.79.78-1.91,0-3.82,0-5.73,0-.5,0-.64-.14-.64-.63q0-13.27,0-26.54c0-.48.11-.65.62-.64,2,0,4,0,5.95,0,.49,0,.59.16.59.61C507.74,96.47,507.75,98.37,507.75,100.28Z"/><path class="cls-2" d="M426.16,100.48A21.28,21.28,0,0,1,430,95.54a8.4,8.4,0,0,1,4.52-2c.41,0,.59,0,.58.48,0,2,0,4,0,6.08,0,.44-.14.54-.57.55-4,.12-6.63,2.21-8.29,5.72a2.3,2.3,0,0,0-.16,1c0,4.53,0,9.06,0,13.58,0,.68-.21.82-.84.81-1.91,0-3.82,0-5.73,0-.47,0-.6-.13-.6-.6q0-13.29,0-26.59c0-.42.07-.63.57-.62,2,0,4,0,6,0,.51,0,.57.2.57.62,0,1.68,0,3.35,0,5C426.12,99.83,426.14,100.05,426.16,100.48Z"/><path class="cls-2" d="M526.49,100.35c.92-1.21,1.73-2.45,2.7-3.57A8.93,8.93,0,0,1,535,93.52c.4,0,.52,0,.52.46,0,2,0,4.1,0,6.15,0,.41-.12.5-.52.51-4,.1-6.68,2.19-8.35,5.73a2.28,2.28,0,0,0-.19,1c0,4.55,0,9.1,0,13.65,0,.6-.18.74-.75.73-1.94,0-3.87,0-5.81,0-.42,0-.57-.09-.57-.54q0-13.38,0-26.74c0-.38.08-.53.5-.53,2,0,4.06,0,6.09,0,.49,0,.52.21.52.59C526.49,96.48,526.49,98.41,526.49,100.35Z"/><path class="cls-3" d="M382.94,106.85q-.15-1.36-.39-2.73A45.25,45.25,0,0,0,364.1,74.63c-.42-.3-.61-.35-.94.16A8.35,8.35,0,0,1,348.1,68c.14-.51.08-.67-.44-.79a45.55,45.55,0,1,0,35.55,44.06C383.19,110.09,383.11,108.47,382.94,106.85Zm-54.56-3.94q-2.88,10.65-5.75,21.31c-.14.5-.3.68-.84.68-2.31,0-4.63,0-6.94,0-.38,0-.57-.08-.68-.5Q310.6,111,307,97.55c0-.14-.05-.27-.09-.45,2.06,0,4.09,0,6.12,0,.45,0,.46.26.54.56q1.32,4.95,2.65,9.88c.66,2.5,1.33,5,2,7.5l.17.41c.39-1.41.74-2.67,1.08-3.94,1.24-4.61,2.48-9.21,3.71-13.83.11-.42.26-.6.74-.59,2,0,4,0,6,0C329.41,99.07,328.9,101,328.38,102.91Zm11.91,21.38c0,.46-.12.61-.59.6-1.92,0-3.83,0-5.74,0-.63,0-.72-.22-.71-.77,0-4.39,0-8.77,0-13.16s0-8.82,0-13.23c0-.53.14-.67.67-.66,1.91,0,3.83,0,5.74,0,.47,0,.64.1.64.61Q340.26,111,340.29,124.29Zm-3.23-32.57a4.28,4.28,0,1,1,4.25-4.28A4.26,4.26,0,0,1,337.06,91.72Zm31,26.84a12.7,12.7,0,0,1-4.46,5.28,7.61,7.61,0,0,1-8.77.27,24.25,24.25,0,0,1-3.23-2.42v.86c0,4.27,0,8.54,0,12.81,0,.57-.11.77-.72.75-1.87,0-3.74,0-5.6,0-.63,0-.83-.13-.83-.8q0-17.16,0-34.32c0-1.13,0-2.26,0-3.39,0-.41.13-.52.52-.51,2,0,4.06,0,6.09,0,.48,0,.54.18.53.58,0,.73,0,1.45,0,2.33A12.09,12.09,0,0,1,357,96.83c3-.69,5.59.32,7.9,2.15a12.37,12.37,0,0,1,4.21,7.4A19.23,19.23,0,0,1,368.08,118.56Z"/><path class="cls-2" d="M588,82.74c0-.51-.18-.62-.65-.62-1.84,0-3.68,0-5.52,0-.7,0-.92.13-.92.88,0,4.38,0,8.77,0,13.16a1.58,1.58,0,0,1-.17.94,7.38,7.38,0,0,0-.7-.84,9.18,9.18,0,0,0-8.78-2.53,9.81,9.81,0,0,0-6.4,5.29A19.35,19.35,0,0,0,563,111a15.11,15.11,0,0,0,2.65,7.07,9.24,9.24,0,0,0,14.07,1.73l1.25-1.09c0,.92,0,1.69,0,2.46,0,.47.11.65.63.65,1.93,0,3.87,0,5.8,0,.48,0,.65-.11.65-.62Q588,101.95,588,82.74Zm-7,21.16a30.06,30.06,0,0,0,0,4c0,1.76,0,3.53,0,5.3a1.29,1.29,0,0,1-.4,1,7,7,0,0,1-3.46,2.1,4.88,4.88,0,0,1-5.23-2.42,8.2,8.2,0,0,1-1.1-3.33,17.78,17.78,0,0,1,.38-7.08,5.08,5.08,0,0,1,4.37-4.07,5.35,5.35,0,0,1,3.65,1.07A3.27,3.27,0,0,1,581,103.9Z"/><path class="cls-2" d="M416.26,106.83a16.46,16.46,0,0,0-2.43-8.45c-2.67-4.17-8.72-7.32-14.55-2.39-.3.26-.61.5-1,.83,0-.82,0-1.52,0-2.21,0-.48-.09-.66-.61-.65-2,0-4,0-5.95,0-.49,0-.57.17-.57.61q0,18.92,0,37.84c0,.48.16.6.61.59,1.93,0,3.87,0,5.8,0,.61,0,.73-.19.73-.76,0-4.29,0-8.58,0-12.87v-.79A31.12,31.12,0,0,0,401.5,121a7.63,7.63,0,0,0,8.95-.37,13.11,13.11,0,0,0,4.67-6A19.45,19.45,0,0,0,416.26,106.83ZM408.6,112a5.15,5.15,0,0,1-6.89,3.5,12.12,12.12,0,0,1-3-1.52.85.85,0,0,1-.42-.81c0-1.84,0-3.68,0-5.51s0-3.64,0-5.45a.83.83,0,0,1,.47-.84,14.65,14.65,0,0,1,3.12-1.49,5.1,5.1,0,0,1,6.35,2.59,7.73,7.73,0,0,1,.89,2.88A15.74,15.74,0,0,1,408.6,112Z"/><path class="cls-2" d="M498,103.43a11.34,11.34,0,0,0-5-8.08,12.62,12.62,0,0,0-8.2-1.81,11.81,11.81,0,0,0-10.41,7.37,17.08,17.08,0,0,0-.55,11.83,12.65,12.65,0,0,0,10.81,9.4,12.37,12.37,0,0,0,12.7-6.4c.29-.51.28-.72-.31-.95-1.36-.52-2.69-1.12-4-1.69-1-.42-1-.42-1.62.52a9.39,9.39,0,0,1-.81,1.07,5.5,5.5,0,0,1-9.17-1.41,10.58,10.58,0,0,1-.8-3.28c-.08-.69.06-.93.83-.91,2.64,0,5.29,0,7.93,0s5.48,0,8.22,0c.47,0,.64-.11.67-.61A20.57,20.57,0,0,0,498,103.43Zm-6.66,1.45h-9.9c-1,0-1,0-.85-1a6.69,6.69,0,0,1,1.94-4.21,5.39,5.39,0,0,1,8.4,1.42,8.86,8.86,0,0,1,.95,3.37C491.93,105,491.6,104.88,491.33,104.88Z"/><path class="cls-2" d="M459.46,103.73c-.64-4.11-2.6-7.3-6.44-9.12a12.94,12.94,0,0,0-6.84-1.07,11.65,11.65,0,0,0-10.1,6.72,17,17,0,0,0-.32,14,11.7,11.7,0,0,0,5.14,6.1,12.67,12.67,0,0,0,17.88-4.74c.25-.46.18-.61-.28-.79-1.25-.49-2.48-1-3.72-1.55-.45-.19-.93-.57-1.36-.52s-.52.77-.85,1.13c-.12.14-.22.3-.33.45a5.54,5.54,0,0,1-9.62-1.43,11.71,11.71,0,0,1-.67-3.17c-.06-.5.06-.65.57-.64,2.74,0,5.48,0,8.22,0s5.52,0,8.28,0c.39,0,.6-.05.6-.53A28.18,28.18,0,0,0,459.46,103.73Zm-6.76,1.16c-1.7,0-3.4,0-5.1,0h-5.17c-.29,0-.58.05-.51-.42a9.29,9.29,0,0,1,1-3.5,5.38,5.38,0,0,1,9.31,0,7.89,7.89,0,0,1,1,3.35C453.3,104.76,453.17,104.9,452.7,104.89Z"/><path class="cls-2" d="M560.91,103.77c-.63-4.11-2.57-7.31-6.41-9.15a13.15,13.15,0,0,0-6.84-1.09,11.72,11.72,0,0,0-10.16,6.76,16.72,16.72,0,0,0-.49,13.47c2,5.42,6.08,8.2,11.74,8.44,5.12.22,9-2.1,11.48-6.61.23-.4.21-.56-.25-.74-1.4-.55-2.78-1.16-4.17-1.75-1-.42-1-.42-1.61.52-.18.27-.38.54-.58.8a5.51,5.51,0,0,1-9.43-1.21,11.3,11.3,0,0,1-.79-3.35c-.08-.59,0-.77.66-.77,2.72,0,5.43,0,8.15,0s5.47,0,8.21,0c.49,0,.64-.13.65-.62A29.89,29.89,0,0,0,560.91,103.77Zm-6.71,1.12c-1.72,0-3.45,0-5.17,0s-3.45,0-5.17,0c-.39,0-.56-.08-.49-.51a9.63,9.63,0,0,1,.84-3.12,5.37,5.37,0,0,1,9.16-.78,7.33,7.33,0,0,1,1.33,3.89C554.73,104.79,554.59,104.89,554.2,104.89Z"/><path class="cls-3" d="M351.62,110.79c0-1.82,0-3.63,0-5.45a.86.86,0,0,1,.46-.85,15,15,0,0,1,3.11-1.48,5.12,5.12,0,0,1,6.36,2.58,8.29,8.29,0,0,1,.93,3.23A15.55,15.55,0,0,1,362,115a5.24,5.24,0,0,1-4.73,3.94,8.9,8.9,0,0,1-4.41-1.32,2,2,0,0,1-1.25-2.14C351.7,114,351.62,112.37,351.62,110.79Z"/></g><path class="cls-4" d="M283.06,1.64c-4.63,30.48-9.23,60.45-13.66,90.44-.41,2.76-.36,3.56-.71,3.55-5.65-.08-18.26-.11-23.94-.12-.26,0-.05-.92.43-3.87,1.58-9.75,3.1-22.84,4.81-32.57.06-.08-44.14-.2-44.16-.06-1.4,10-3.73,23.24-5,33.2-.37,2.87-.28,3.37-.57,3.36-5.48-.11-18.61-.17-24.16-.14-.2,0-.11-.35.44-3.84,2.9-18.24,5.55-36.51,8.29-54.77,1.55-10.27,5.23-35.48,5.42-35.48,5.53.11,18.91.33,24.41.34.18,0-3.87,25.35-5.33,34.48,0,.15,44,.23,44,0,1.28-9,5-34.53,5.22-34.53C265.5,1.58,275.91,1.64,283.06,1.64Z"/><path class="cls-4" d="M172.94,63.43c-1.23,7.77-2.93,18.2-4.15,25.69,0,.14-.54.29-1.95.89-14.7,6.26-29.74,9.07-45.52,4.66C97.73,88.08,85.7,66.26,91.9,41.34,97.69,18,113.31,4.11,140.05.54c16.75-2.23,36.9,3.1,36.83,3.55-.89,5-3,15.76-4.08,20.79,0,.11-.44.05-3.42-.86-9.81-3-19.85-4.13-29.91-1.49-14,3.68-23.48,14.64-23.67,28.87-.24,17.44,13.06,26.49,30.21,23.46a64.37,64.37,0,0,0,22.09-8.61C169.33,65.52,170.58,64.71,172.94,63.43Z"/><path class="cls-5" d="M126.71,119.92a21.05,21.05,0,0,1,8.67-4.29c8.59-1.94,15.24,3.31,14.38,12-.8,8-3.79,26.28-3.79,26.28l-12.28-.1s2.41-18.25,3-22.67c.21-1.74.52-3.73-1.42-4.92-2.11-1.28-4.34-.52-5.95.56a10.89,10.89,0,0,0-4.86,8.87c-.79,5.06-2.8,18.26-2.8,18.26h-12s5.6-39.41,7.16-52c3.7.07,1-.07,5.07.12,7.61.35,7.43.45,7.43.45S127.32,116.15,126.71,119.92Z"/><path class="cls-5" d="M257.1,115.57s10.91.26,14.71.26c-4.79,5.75-10.37,12.92-14.74,18-1,1.12-1,1.12-.48,1.81,3.43,5,8.64,12.5,12.78,18.26H255.49l-12.07-17.33c-.77,4.84-2.45,17.33-2.45,17.33H228.31c2-13.22,7.28-52.09,7.28-52.09s8.36.07,12.58.26c-.83,6.46-2.76,20.84-3.67,27.29C244.77,129.47,257.1,115.57,257.1,115.57Z"/><path class="cls-6" d="M103.85,153c-5.14,2.19-13.52,1.66-19.28-.16-11.17-3.54-15.24-18.71-7.53-29,5.9-9.44,21.69-11.52,30.09-7.73a20.54,20.54,0,0,0,2,.78s-1.6,8.41-2,10.83c-8.07-2.71-14.64-1.71-18.06.57-3.06,2-4.21,6.51-2.69,10.57,1.59,4.22,8.91,7.87,19.51,2.93"/><path class="cls-7" d="M41.05,141.06c1.9-11.78,2.06-11.78,2.06-11.78H68.2s-.92,7-1.34,10.24c-.21,1.68-.51,1.54-.51,1.54Z"/><path class="cls-4" d="M92.23,95.64S89.4,83.22,88.51,78.36q-6.6-36-13.15-72c-.6-3.36-.85-4.68-1.16-4.68-5.63,0-19.81-.15-25.45-.15-.26,0-.75,1.05-2.07,3.71C41.54,15.55,36.26,25.82,31,36.13L.87,95.57c8.12,0,25.2.07,25.2.07l9-20.73,29.18-.25s2,20.81,2.23,20.81ZM60.86,61.14h-19C47.12,49.59,52.09,38.72,57.62,26.6c1.45,11.56,2.72,21.95,4.09,32.33C62,61.35,62.38,61.15,60.86,61.14Z"/><path class="cls-6" d="M26.07,116.59c-7.69-3.11-15.51-.41-21.14,6.34-5.37,6.43-6.5,16.37-2.65,23.2s12.5,9.88,22.85,8.25c2.87-.45,6.54-2.23,6.87-2.89s1.27-3,2.43-9.05c-4.91,2.49-9.76,3.79-14.92,3.35a8.58,8.58,0,0,1-5.63-3.35,6.68,6.68,0,0,1-.88-4s16.11-.09,22-.07c.3,0,.45.09.56-.3C37.85,129.71,33.45,119.58,26.07,116.59ZM13.69,131.17c-.15-3.33,3.12-6.7,6.64-6.83,3.24-.11,5.74,3.51,5.74,6.9C23.22,131.27,16.32,131.3,13.69,131.17Z"/><path class="cls-6" d="M179,116.59c-7.69-3.11-15.51-.41-21.14,6.34-5.37,6.43-6.5,16.37-2.65,23.2s12.5,9.88,22.85,8.25c2.87-.45,6.54-2.23,6.87-2.89s1.27-3,2.43-9.05c-4.91,2.49-9.76,3.79-14.92,3.35a8.58,8.58,0,0,1-5.63-3.35,6.68,6.68,0,0,1-.88-4s16.11-.09,22-.07c.3,0,.45.09.56-.3C190.76,129.71,186.36,119.58,179,116.59ZM166.6,131.17c-.15-3.33,3.12-6.7,6.64-6.83,3.24-.11,5.74,3.51,5.74,6.9C176.13,131.27,169.23,131.3,166.6,131.17Z"/><path class="cls-4" d="M400.24,154h-2.45v-7.1a2.16,2.16,0,0,0-.49-1.62,1.6,1.6,0,0,0-1.14-.47,2.21,2.21,0,0,0-1.75.83,4.14,4.14,0,0,0-.71,2.73V154h-2.45V139.36h2.45v5.71a3.24,3.24,0,0,1,3.2-2.34q3.35,0,3.34,3.83Z"/><path class="cls-4" d="M400.34,154.12h-2.65v-7.2a2.05,2.05,0,0,0-.46-1.54,1.47,1.47,0,0,0-1.07-.45,2.14,2.14,0,0,0-1.68.8,4.13,4.13,0,0,0-.68,2.66v5.73h-2.65V139.26h2.65v5.34a3.25,3.25,0,0,1,3.1-2c2.28,0,3.44,1.32,3.44,3.93Zm-2.45-.2h2.25v-7.36c0-2.51-1.06-3.73-3.24-3.73a3.13,3.13,0,0,0-3.11,2.28l-.19.49v-6.14h-2.25v14.46h2.25v-5.53a4.26,4.26,0,0,1,.73-2.79,2.34,2.34,0,0,1,1.83-.86,1.68,1.68,0,0,1,1.21.49,2.26,2.26,0,0,1,.52,1.69Z"/><path class="cls-4" d="M405.62,141.9h-2.45v-2.54h2.45Zm0,12.12h-2.45V143.17h2.45Z"/><path class="cls-4" d="M405.72,154.12h-2.65V143.07h2.65Zm-2.45-.2h2.25V143.27h-2.25ZM405.72,142h-2.65v-2.74h2.65Zm-2.45-.2h2.25v-2.34h-2.25Z"/><path class="cls-4" d="M418.46,141.1V143h-.75a3.23,3.23,0,0,0-.87.11,1.51,1.51,0,0,0-.72.77,3,3,0,0,1,1.29,2.34,2.92,2.92,0,0,1-1.21,2.38,5.06,5.06,0,0,1-3.2.95,8.52,8.52,0,0,1-2-.28,1.12,1.12,0,0,0-.75,1.06,1,1,0,0,0,.37.73,1.54,1.54,0,0,0,1.1.34h3.23a3.71,3.71,0,0,1,2.59.85,2.74,2.74,0,0,1,.94,2.12,3,3,0,0,1-1.42,2.55,7.32,7.32,0,0,1-4.22,1q-5.25,0-5.25-2.93a2.37,2.37,0,0,1,1.58-2.21,2.38,2.38,0,0,1-1-1.79,2.53,2.53,0,0,1,1.73-2.26,2.79,2.79,0,0,1-1.51-2.51,3,3,0,0,1,1.11-2.31,5,5,0,0,1,3.36-1,10.15,10.15,0,0,1,2.1.23,2.43,2.43,0,0,1,2.61-2.07Zm-8.25,12.33a1.33,1.33,0,0,0-.53.93,1.6,1.6,0,0,0,.88,1.31,5.46,5.46,0,0,0,2.81.56c1.88,0,2.82-.48,2.82-1.45a.87.87,0,0,0-.49-.81,2.33,2.33,0,0,0-1.13-.27H412A7.06,7.06,0,0,1,410.21,153.43Zm2.68-5.35c1.34,0,2-.63,2-1.88a1.59,1.59,0,0,0-.5-1.21,2,2,0,0,0-1.45-.5,2,2,0,0,0-1.5.52,1.69,1.69,0,0,0-.53,1.29,1.65,1.65,0,0,0,.52,1.28A2.05,2.05,0,0,0,412.89,148.08Z"/><path class="cls-4" d="M412.83,158c-3.55,0-5.35-1-5.35-3a2.43,2.43,0,0,1,1.5-2.23,2.42,2.42,0,0,1-.93-1.77,2.56,2.56,0,0,1,1.62-2.27,2.87,2.87,0,0,1-1.4-2.5,3.06,3.06,0,0,1,1.14-2.38,5.12,5.12,0,0,1,3.43-1,10,10,0,0,1,2,.21,2.53,2.53,0,0,1,2.69-2.05h1v2.08h-.85a2.67,2.67,0,0,0-.84.11,1.31,1.31,0,0,0-.62.64,3.11,3.11,0,0,1,1.26,2.37,3,3,0,0,1-1.25,2.46,5.18,5.18,0,0,1-3.26,1,8.85,8.85,0,0,1-2-.27,1,1,0,0,0-.66.95.88.88,0,0,0,.33.66,1.56,1.56,0,0,0,1,.31h3.23a3.81,3.81,0,0,1,2.66.88,2.85,2.85,0,0,1,1,2.19A3.11,3.11,0,0,1,417.1,157,7.41,7.41,0,0,1,412.83,158Zm0-15a5,5,0,0,0-3.3.94,2.85,2.85,0,0,0-1.07,2.23,2.71,2.71,0,0,0,1.46,2.43l.16.09-.17.08a2.46,2.46,0,0,0-1.67,2.17,2.31,2.31,0,0,0,1,1.72l.12.1-.14.06a2.28,2.28,0,0,0-1.52,2.12c0,1.88,1.73,2.83,5.15,2.83a7.3,7.3,0,0,0,4.16-1,2.93,2.93,0,0,0,1.38-2.47,2.69,2.69,0,0,0-.91-2,3.66,3.66,0,0,0-2.52-.82h-3.23a1.69,1.69,0,0,1-1.17-.36,1.09,1.09,0,0,1-.4-.81,1.21,1.21,0,0,1,.81-1.15l0,0h0a8.23,8.23,0,0,0,2,.28,5,5,0,0,0,3.14-.93,2.82,2.82,0,0,0,1.17-2.3,2.93,2.93,0,0,0-1.26-2.27l-.06-.05,0-.07a1.56,1.56,0,0,1,.78-.81,3.06,3.06,0,0,1,.9-.12h.65V141.2h-.81a2.34,2.34,0,0,0-2.52,2l0,.1-.09,0A10,10,0,0,0,412.84,143Zm.53,13.29a5.41,5.41,0,0,1-2.86-.58,1.67,1.67,0,0,1-.93-1.39,1.44,1.44,0,0,1,.56-1l0,0h.05a7,7,0,0,0,1.74.27h2.6a2.42,2.42,0,0,1,1.18.28,1,1,0,0,1,.54.9C416.29,155.81,415.31,156.33,413.37,156.33Zm-3.13-2.79a1.22,1.22,0,0,0-.46.82,1.48,1.48,0,0,0,.84,1.22,5.2,5.2,0,0,0,2.75.55c1.81,0,2.72-.45,2.72-1.35a.76.76,0,0,0-.44-.72,2.13,2.13,0,0,0-1.08-.26H412A7.19,7.19,0,0,1,410.24,153.54Zm2.65-5.36a2.15,2.15,0,0,1-1.52-.52,1.8,1.8,0,0,1-.56-1.36,1.85,1.85,0,0,1,.56-1.37,2.17,2.17,0,0,1,1.57-.54,2.1,2.1,0,0,1,1.52.52,1.76,1.76,0,0,1,.53,1.29C415,147.51,414.29,148.18,412.89,148.18Zm.05-3.59a1.94,1.94,0,0,0-1.43.49,1.74,1.74,0,0,0,0,2.43,2,2,0,0,0,1.39.47c1.28,0,1.9-.58,1.9-1.78a1.5,1.5,0,0,0-.47-1.14A1.87,1.87,0,0,0,412.94,144.59Z"/><path class="cls-4" d="M428.94,154h-2.45v-7.1a2.21,2.21,0,0,0-.48-1.62,1.63,1.63,0,0,0-1.15-.47,2.23,2.23,0,0,0-1.75.83,4.2,4.2,0,0,0-.71,2.73V154H420V139.36h2.45v5.71a3.25,3.25,0,0,1,3.2-2.34q3.34,0,3.34,3.83Z"/><path class="cls-4" d="M429,154.12h-2.65v-7.2a2.1,2.1,0,0,0-.45-1.54,1.51,1.51,0,0,0-1.08-.45,2.12,2.12,0,0,0-1.67.8,4.06,4.06,0,0,0-.69,2.66v5.73h-2.65V139.26h2.65v5.34a3.26,3.26,0,0,1,3.1-2c2.29,0,3.44,1.32,3.44,3.93Zm-2.45-.2h2.25v-7.36c0-2.51-1.06-3.73-3.24-3.73a3.13,3.13,0,0,0-3.11,2.28l-.19.49v-6.14h-2.25v14.46h2.25v-5.53a4.32,4.32,0,0,1,.73-2.79,2.34,2.34,0,0,1,1.83-.86,1.68,1.68,0,0,1,1.21.49,2.26,2.26,0,0,1,.52,1.69Z"/><path class="cls-4" d="M438.78,150.56l2.22.3a4.68,4.68,0,0,1-1.68,2.43,5,5,0,0,1-3.13,1,4.68,4.68,0,0,1-3.63-1.52,5.9,5.9,0,0,1-1.37-4.1,6,6,0,0,1,1.38-4.07,4.7,4.7,0,0,1,3.76-1.62,4.32,4.32,0,0,1,3.59,1.59,6.34,6.34,0,0,1,1.27,4.09v.28h-7.45a6.11,6.11,0,0,0,.21,1.77,2.57,2.57,0,0,0,4.84-.11Zm-.15-3.24a2.73,2.73,0,0,0-.7-1.92,2.37,2.37,0,0,0-3.4,0,3.12,3.12,0,0,0-.8,2Z"/><path class="cls-4" d="M436.19,154.34a4.8,4.8,0,0,1-3.7-1.54,6,6,0,0,1-1.4-4.17,6.13,6.13,0,0,1,1.41-4.14,4.83,4.83,0,0,1,3.83-1.65,4.44,4.44,0,0,1,3.67,1.63,6.45,6.45,0,0,1,1.29,4.15V149h-7.44a5.63,5.63,0,0,0,.2,1.64,2.3,2.3,0,0,0,.8,1.11,2.35,2.35,0,0,0,1.49.47,2.3,2.3,0,0,0,2.36-1.69l0-.08h.08l2.33.32,0,.11a4.71,4.71,0,0,1-1.71,2.48A5.09,5.09,0,0,1,436.19,154.34Zm.14-11.3a4.65,4.65,0,0,0-3.68,1.58,6,6,0,0,0-1.36,4,5.76,5.76,0,0,0,1.35,4,4.57,4.57,0,0,0,3.55,1.49,4.92,4.92,0,0,0,3.07-.94,4.57,4.57,0,0,0,1.61-2.27l-2-.27a2.51,2.51,0,0,1-2.52,1.75,2.57,2.57,0,0,1-1.62-.51,2.46,2.46,0,0,1-.86-1.21,6.29,6.29,0,0,1-.21-1.8v-.1h7.44v-.19a6.24,6.24,0,0,0-1.25-4A4.25,4.25,0,0,0,436.33,143Zm2.4,4.38h-5.1v-.11a3.17,3.17,0,0,1,.82-2,2.38,2.38,0,0,1,1.76-.73,2.34,2.34,0,0,1,1.78.78,2.78,2.78,0,0,1,.73,2Zm-4.88-.2h4.68a2.59,2.59,0,0,0-.67-1.75,2.27,2.27,0,0,0-3.26,0A2.92,2.92,0,0,0,433.85,147.22Z"/><path class="cls-4" d="M445.87,154h-2.45V143.17h2.22v2.59a4.56,4.56,0,0,1,1.3-2.21,2.58,2.58,0,0,1,1.69-.7H449v2.63a2.52,2.52,0,0,0-2.48,1.19,5.18,5.18,0,0,0-.61,2.31Z"/><path class="cls-4" d="M446,154.12h-2.65V143.07h2.42v2.11a4.29,4.29,0,0,1,1.13-1.71,2.72,2.72,0,0,1,1.76-.72h.43v2.83H449a2.42,2.42,0,0,0-2.39,1.14A4.93,4.93,0,0,0,446,149Zm-2.45-.2h2.25V149a5.19,5.19,0,0,1,.62-2.35,2.56,2.56,0,0,1,2.47-1.25V143h-.23a2.51,2.51,0,0,0-1.63.67,4.59,4.59,0,0,0-1.27,2.17l-.19.62v-3.14h-2Z"/><path class="cls-4" d="M458.66,154h-2.45V139.36h2.45Z"/><path class="cls-4" d="M458.76,154.12h-2.65V139.26h2.65Zm-2.45-.2h2.25V139.46h-2.25Z"/><path class="cls-4" d="M464,141.9h-2.45v-2.54H464ZM464,154h-2.45V143.17H464Z"/><path class="cls-4" d="M464.14,154.12h-2.65V143.07h2.65Zm-2.45-.2h2.25V143.27h-2.25ZM464.14,142h-2.65v-2.74h2.65Zm-2.45-.2h2.25v-2.34h-2.25Z"/><path class="cls-4" d="M483.18,154h-2.57v-6.76c0-1.4-.62-2.1-1.87-2.1A2.11,2.11,0,0,0,477,146a3.71,3.71,0,0,0-.65,2.38V154h-2.6v-6.76c0-1.42-.58-2.13-1.75-2.13a2.25,2.25,0,0,0-1.79.85,3.57,3.57,0,0,0-.72,2.35V154H467V143.17h2.37v2.31a3.83,3.83,0,0,1,3.63-2.54,3,3,0,0,1,3.11,2.54,4,4,0,0,1,3.62-2.54,3.32,3.32,0,0,1,3.48,3.41Z"/><path class="cls-4" d="M483.28,154.12h-2.77v-6.86c0-1.35-.58-2-1.77-2a2,2,0,0,0-1.65.76,3.58,3.58,0,0,0-.63,2.31v5.79h-2.8v-6.86c0-1.37-.54-2-1.65-2a2.15,2.15,0,0,0-1.71.83,3.42,3.42,0,0,0-.71,2.28v5.79h-2.72V143.07h2.57v2a3.84,3.84,0,0,1,3.53-2.21,3.09,3.09,0,0,1,3.14,2.38,4,4,0,0,1,3.59-2.38,3.41,3.41,0,0,1,3.58,3.51Zm-2.57-.2h2.37v-7.57a3.23,3.23,0,0,0-.93-2.36,3.28,3.28,0,0,0-2.45-1,3.93,3.93,0,0,0-3.53,2.49l-.12.22-.07-.24a2.93,2.93,0,0,0-3-2.47,3.74,3.74,0,0,0-3.53,2.48l-.19.42v-2.67h-2.18v10.65h2.33v-5.59a3.67,3.67,0,0,1,.74-2.41A2.37,2.37,0,0,1,472,145c1.23,0,1.85.75,1.85,2.23v6.66h2.4v-5.59a3.82,3.82,0,0,1,.67-2.44,2.23,2.23,0,0,1,1.81-.83c1.31,0,2,.74,2,2.2Z"/><path class="cls-4" d="M488.56,141.9h-2.45v-2.54h2.45Zm0,12.12h-2.45V143.17h2.45Z"/><path class="cls-4" d="M488.66,154.12H486V143.07h2.65Zm-2.45-.2h2.25V143.27h-2.25ZM488.66,142H486v-2.74h2.65Zm-2.45-.2h2.25v-2.34h-2.25Z"/><path class="cls-4" d="M496.53,152.11V154a8.49,8.49,0,0,1-1.69.24,3.37,3.37,0,0,1-1.7-.4,2.44,2.44,0,0,1-1-1.07,5.09,5.09,0,0,1-.33-2.1v-5.62h-1.35v-1.9h1.49l.23-2.83,2-.18v3h2.18v1.9h-2.18v5.3a1.44,1.44,0,0,0,1.77,1.76Z"/><path class="cls-4" d="M494.84,154.36a3.57,3.57,0,0,1-1.75-.41,2.54,2.54,0,0,1-1.08-1.12,5.24,5.24,0,0,1-.33-2.14v-5.52h-1.36v-2.1h1.5l.23-2.82,2.2-.2v3h2.18v2.1h-2.18v5.2a1.89,1.89,0,0,0,.34,1.32,2,2,0,0,0,1.33.34l.61,0h.1v2.1l-.08,0A8.65,8.65,0,0,1,494.84,154.36ZM490.52,145h1.35v5.72a5,5,0,0,0,.32,2.06,2.36,2.36,0,0,0,1,1,3.38,3.38,0,0,0,1.65.38,8.74,8.74,0,0,0,1.59-.22v-1.73l-.51,0a1.53,1.53,0,0,1-1.87-1.86V145h2.18v-1.7h-2.18v-3l-1.82.17-.22,2.83h-1.49Z"/><path class="cls-6" d="M223,153c-5.14,2.19-13.52,1.66-19.28-.16-11.17-3.54-15.24-18.71-7.53-29,5.9-9.44,21.69-11.52,30.09-7.73a20.54,20.54,0,0,0,2,.78s-1.6,8.41-2,10.83c-8.07-2.71-14.64-1.71-18.06.57-3.06,2-4.21,6.51-2.69,10.57,1.59,4.22,8.91,7.87,19.51,2.93"/></g></g></svg>