<svg xmlns="http://www.w3.org/2000/svg" xmlns:xlink="http://www.w3.org/1999/xlink" viewBox="0 0 22 22">
  <defs>
    <style>
      .cls-1 {
        clip-path: url(#clip-icon_football_black);
      }

      .cls-2 {
	    fill: #D0BD8E;
        fill-rule: evenodd;
      }

      .cls-3 {
        fill: rgba(139,139,139,0);
      }
    </style>
    <clipPath id="clip-icon_football_black">
      <rect width="22" height="22"/>
    </clipPath>
  </defs>
  <g id="icon_football_black" class="cls-1">
    <rect class="cls-3" width="22" height="22"/>
    <path id="football_icon" data-name="football icon" class="cls-2" d="M18.793,3.994l1.986-1.986C19.871,1.1,18,.731,15.749.951ZM4.511,18.276l2.141-2.141L5.811,15.3a.654.654,0,0,1,.925-.925l.841.84,1.08-1.08-.839-.844a.654.654,0,0,1,.463-1.117.647.647,0,0,1,.462.191l.84.841,1.081-1.08-.841-.842a.655.655,0,0,1,0-.925c.006-.006.014-.011.02-.017s.01-.014.017-.02a.655.655,0,0,1,.925,0l.841.84,1.082-1.081-.84-.84a.654.654,0,0,1,.925-.925l.84.839,1.08-1.08-.84-.841a.654.654,0,0,1,.925-.925l.841.841L17.87,4.917,14.151,1.2A17.742,17.742,0,0,0,5.37,5.867h0A17.731,17.731,0,0,0,.732,14.5Zm-4.039-2.2c-.256,2.32.108,4.267,1.038,5.2L3.59,19.2ZM19.288,4.489,21.273,2.5c.908.908,1.278,2.783,1.058,5.029ZM5.006,18.77l2.141-2.141.84.842a.654.654,0,0,0,.925-.925l-.84-.84,1.08-1.08.84.84A.654.654,0,0,0,11.109,15a.648.648,0,0,0-.191-.462l-.838-.842,1.079-1.078.84.84a.655.655,0,0,0,.925,0c.006-.006.011-.014.017-.02s.014-.01.02-.017a.655.655,0,0,0,0-.925l-.837-.844,1.081-1.08.84.84a.654.654,0,1,0,.925-.925l-.84-.84,1.08-1.08.839.838a.654.654,0,0,0,.925-.925l-.84-.841L18.366,5.41l3.72,3.72a17.743,17.743,0,0,1-4.671,8.781h0a17.732,17.732,0,0,1-8.629,4.636Zm2.2,4.039c-2.32.255-4.267-.108-5.2-1.038l2.079-2.078Z" transform="translate(-0.393 -0.889)"/>
  </g>
</svg>
