<svg xmlns="http://www.w3.org/2000/svg" xmlns:xlink="http://www.w3.org/1999/xlink" viewBox="0 0 40 40">
  <defs>
    <style>
      .cls-1 {
        clip-path: url(#clip-icon_baseball_selected);
      }

      .cls-2 {
        fill: #f15b00;
        fill-rule: evenodd;
      }

      .cls-3 {
        fill: rgba(139,139,139,0);
      }
    </style>
    <clipPath id="clip-icon_baseball_selected">
      <rect width="40" height="40"/>
    </clipPath>
  </defs>
  <g id="icon_baseball_selected" class="cls-1">
    <rect class="cls-3" width="40" height="40"/>
    <path id="baseball_icon" data-name="baseball icon" class="cls-2" d="M7.872,33.434q-.453.844-.967,1.663a19.957,19.957,0,0,1,0-30.193q.562.893,1.051,1.82L6.437,7.49l.628,1.244,1.511-.764q.591,1.265,1.052,2.578l-1.5.484.429,1.327,1.5-.484a28.023,28.023,0,0,1,.711,2.972L9.179,15.1l.214,1.379,1.593-.248a28.668,28.668,0,0,1,.24,3.145H9.375v1.45h1.849a28.824,28.824,0,0,1-.261,3.14L9.4,23.718,9.182,25.1l1.556.243a28.109,28.109,0,0,1-.73,2.961l-1.444-.467-.43,1.331,1.436.464Q9.1,30.933,8.5,32.189l-1.438-.723-.628,1.244ZM20,40A19.886,19.886,0,0,1,8.75,36.526q.64-1,1.2-2.044l1.858.937.628-1.244-1.857-.938a30.345,30.345,0,0,0,1.2-2.892l1.934.622.429-1.327-1.927-.622a30.369,30.369,0,0,0,.815-3.319l1.943.3.217-1.379-1.933-.3a31.247,31.247,0,0,0,.289-3.5h1.838V19.378H13.554a31.118,31.118,0,0,0-.267-3.5l1.907-.3L14.98,14.2l-1.908.3a30.539,30.539,0,0,0-.795-3.331l1.872-.605-.429-1.328-1.872.605a30.6,30.6,0,0,0-1.19-2.91l1.778-.9-.628-1.244-1.778.9Q9.439,4.553,8.751,3.474a19.952,19.952,0,0,1,22.5,0Q30.566,4.54,29.976,5.66l-1.74-.877-.628,1.244,1.744.88a30.443,30.443,0,0,0-1.195,2.916l-1.833-.593L25.9,10.557l1.833.593a30.43,30.43,0,0,0-.8,3.337L25.062,14.2l-.214,1.379,1.867.291a31.041,31.041,0,0,0-.267,3.509H24.655v1.45H26.45a31.157,31.157,0,0,0,.291,3.5l-1.892.294L25.067,26l1.9-.3a30.639,30.639,0,0,0,.818,3.325l-1.887.611.429,1.327,1.9-.613a30.463,30.463,0,0,0,1.207,2.9l-1.82.918.628,1.244,1.823-.92q.553,1.033,1.189,2.028A19.889,19.889,0,0,1,20,40Zm13.1-4.9q-.509-.811-.958-1.648l1.469-.741-.628-1.242-1.473.742q-.6-1.258-1.071-2.566l1.477-.478-.429-1.327L30,28.317a27.961,27.961,0,0,1-.732-2.967l1.6-.249-.214-1.379-1.608.251a28.688,28.688,0,0,1-.267-3.147h1.889V19.378h-1.9a28.581,28.581,0,0,1,.241-3.151l1.635.254.214-1.379-1.633-.258a28.16,28.16,0,0,1,.711-2.98l1.537.5.435-1.326-1.536-.5q.463-1.316,1.058-2.584l1.545.781.628-1.244-1.553-.782q.488-.918,1.044-1.8a19.959,19.959,0,0,1,0,30.192Z" transform="translate(-0.001 0)"/>
  </g>
</svg>
