<svg xmlns="http://www.w3.org/2000/svg" xmlns:xlink="http://www.w3.org/1999/xlink" viewBox="0 0 22 22">
  <defs>
    <style>
      .cls-1 {
        clip-path: url(#clip-icon_baseball_black);
      }

      .cls-2 {
	    fill: #D0BD8E;
        fill-rule: evenodd;
      }

      .cls-3 {
        fill: rgba(139,139,139,0);
      }
    </style>
    <clipPath id="clip-icon_baseball_black">
      <rect width="22" height="22"/>
    </clipPath>
  </defs>
  <g id="icon_baseball_black" class="cls-1">
    <rect class="cls-3" width="22" height="22"/>
    <path id="baseball_icon" data-name="baseball icon" class="cls-2" d="M4.33,18.39q-.249.464-.532.915A10.977,10.977,0,0,1,3.8,2.7q.309.491.578,1l-.835.421.346.684.831-.42q.325.7.579,1.418l-.823.266.236.73.823-.266a15.414,15.414,0,0,1,.391,1.635L5.049,8.3l.118.758.876-.136a15.769,15.769,0,0,1,.132,1.73H5.157v.8H6.174A15.854,15.854,0,0,1,6.03,13.18l-.861-.134-.118.758.856.133a15.461,15.461,0,0,1-.4,1.629l-.794-.257-.237.732.79.255q-.258.718-.587,1.409l-.791-.4-.346.684ZM11,22a10.938,10.938,0,0,1-6.188-1.911q.352-.551.659-1.125l1.022.515L6.84,18.8l-1.021-.516a16.691,16.691,0,0,0,.662-1.59l1.064.342.236-.73-1.06-.342a16.7,16.7,0,0,0,.448-1.826l1.069.166.119-.758-1.063-.166a17.187,17.187,0,0,0,.159-1.924H8.464v-.795H7.456a17.116,17.116,0,0,0-.147-1.927l1.049-.163L8.24,7.81l-1.05.163a16.8,16.8,0,0,0-.437-1.832l1.03-.333-.236-.73-1.03.333a16.832,16.832,0,0,0-.655-1.6l.978-.494-.346-.684-.978.492q-.324-.62-.7-1.213a10.974,10.974,0,0,1,12.375,0q-.376.587-.7,1.2l-.957-.483-.346.684.959.484a16.745,16.745,0,0,0-.657,1.6L14.48,5.076l-.236.73,1.008.326a16.737,16.737,0,0,0-.44,1.835l-1.027-.16-.118.758,1.027.16a17.073,17.073,0,0,0-.147,1.93h-.986v.8h.987a17.137,17.137,0,0,0,.16,1.928l-1.041.162.12.759,1.046-.163a16.852,16.852,0,0,0,.45,1.829l-1.038.336.236.73,1.043-.337a16.755,16.755,0,0,0,.664,1.594l-1,.505.346.684,1-.506q.3.568.654,1.116A10.939,10.939,0,0,1,11,22Zm7.2-2.7q-.28-.446-.527-.906l.808-.408-.346-.683-.81.408Q17,17.024,16.74,16.3l.813-.263-.236-.73-.816.264a15.379,15.379,0,0,1-.4-1.632l.88-.137-.118-.758-.884.138a15.779,15.779,0,0,1-.147-1.731h1.039v-.8H15.826a15.72,15.72,0,0,1,.132-1.733l.9.14.118-.758-.9-.142a15.488,15.488,0,0,1,.391-1.639l.845.273.239-.729L16.708,5.8q.255-.724.582-1.421l.85.43.346-.684-.854-.43q.268-.505.574-.992a10.978,10.978,0,0,1,0,16.607Z" transform="translate(-0.001 0)"/>
  </g>
</svg>
