<svg xmlns="http://www.w3.org/2000/svg" xmlns:xlink="http://www.w3.org/1999/xlink" viewBox="0 0 40 40">
  <defs>
    <style>
      .cls-1 {
        clip-path: url(#clip-icon_basketball_white);
      }

      .cls-2 {
        fill: #073f79;
        fill-rule: evenodd;
      }

      .cls-3 {
        fill: rgba(139,139,139,0);
      }
    </style>
    <clipPath id="clip-icon_basketball_white">
      <rect width="40" height="40"/>
    </clipPath>
  </defs>
  <g id="icon_basketball_white" class="cls-1">
    <rect class="cls-3" width="40" height="40"/>
    <path id="basketball_selected" class="cls-2" d="M5.862,5.854c1.254.267,6.093,1.6,6.994,6.3A42.747,42.747,0,0,0,.423,15.9,20.007,20.007,0,0,1,5.862,5.854ZM2.522,29.715A19.9,19.9,0,0,1,0,20a20.167,20.167,0,0,1,.148-2.391A40.707,40.707,0,0,1,13,13.542c.128,6.232-6.354,11.263-6.757,11.569A10.507,10.507,0,0,0,2.522,29.715ZM19.3,40A19.964,19.964,0,0,1,4.365,32.461c-.054-3.258,3.149-5.4,3.181-5.421L7.6,27c.337-.247,8.042-6.017,7.713-13.744q1.97-.194,3.986-.226Zm0-28.367q-2.087.033-4.134.235c-.786-4.455-4.344-6.831-7.2-7.842A19.877,19.877,0,0,1,19.3,0V11.632ZM39.553,15.8a42.969,42.969,0,0,0-12.4-3.67c.913-4.678,5.737-6,6.988-6.272A20.007,20.007,0,0,1,39.553,15.8ZM20.7,0a19.877,19.877,0,0,1,11.34,4.025c-2.856,1.01-6.409,3.381-7.2,7.822q-2.047-.195-4.138-.218V0Zm0,40V13.026q2.012.024,3.987.21C24.34,20.973,32.059,26.752,32.4,27l.058.04c.035.023,3.242,2.139,3.183,5.419A19.966,19.966,0,0,1,20.7,40ZM33.755,25.11c-.411-.312-6.9-5.355-6.757-11.6A40.973,40.973,0,0,1,39.838,17.5,20.1,20.1,0,0,1,40,20a19.9,19.9,0,0,1-2.522,9.715,10.506,10.506,0,0,0-3.723-4.6Z"/>
  </g>
</svg>
