<svg xmlns="http://www.w3.org/2000/svg" xmlns:xlink="http://www.w3.org/1999/xlink" viewBox="0 0 22 22">
  <defs>
    <style>
      .cls-1 {
        clip-path: url(#clip-icon_basketball_black);
      }

      .cls-2 {
        fill-rule: evenodd;
      }

      .cls-3 {
        fill: rgba(139,139,139,0);
      }
    </style>
    <clipPath id="clip-icon_basketball_black">
      <rect width="22" height="22"/>
    </clipPath>
  </defs>
  <g id="icon_basketball_black" class="cls-1">
    <rect class="cls-3" width="22" height="22"/>
    <path id="basketball_selected" class="cls-2" d="M3.224,3.22c.69.147,3.351.879,3.846,3.464A23.511,23.511,0,0,0,.232,8.746,11,11,0,0,1,3.224,3.22ZM1.387,16.343A10.948,10.948,0,0,1,0,11,11.092,11.092,0,0,1,.081,9.685a22.389,22.389,0,0,1,7.07-2.237c.07,3.428-3.495,6.195-3.717,6.363A5.779,5.779,0,0,0,1.387,16.343ZM10.616,22A10.98,10.98,0,0,1,2.4,17.853,3.992,3.992,0,0,1,4.15,14.872l.032-.022c.185-.136,4.423-3.309,4.242-7.559q1.083-.107,2.192-.124Zm0-15.6q-1.148.018-2.274.129A5.759,5.759,0,0,0,4.38,2.214,10.932,10.932,0,0,1,10.616,0V6.4Zm11.138,2.29A23.633,23.633,0,0,0,14.932,6.67c.5-2.573,3.155-3.3,3.843-3.45a11,11,0,0,1,2.978,5.468ZM11.384,0A10.932,10.932,0,0,1,17.62,2.214a5.761,5.761,0,0,0-3.961,4.3q-1.126-.107-2.276-.12V0Zm0,22V7.164q1.107.013,2.193.115c-.189,4.256,4.056,7.434,4.241,7.57l.032.022a3.948,3.948,0,0,1,1.75,2.98A10.981,10.981,0,0,1,11.384,22Zm7.182-8.189c-.226-.172-3.8-2.945-3.717-6.378a22.535,22.535,0,0,1,7.062,2.192A11.056,11.056,0,0,1,22,11a10.944,10.944,0,0,1-1.387,5.343,5.778,5.778,0,0,0-2.048-2.533Z"/>
  </g>
</svg>
