<svg xmlns="http://www.w3.org/2000/svg" xmlns:xlink="http://www.w3.org/1999/xlink" width="40" height="40" viewBox="0 0 40 40">
  <defs>
    <clipPath id="clip-icon_cricket">
      <rect width="40" height="40"/>
    </clipPath>
  </defs>
  <g id="icon_cricket" clip-path="url(#clip-icon_cricket)">
    <rect width="40" height="40" fill="rgba(139,139,139,0)"/>
    <g id="Group_15747" data-name="Group 15747" transform="translate(-5777.875 -2039.508)">
      <path id="Path_24123" data-name="Path 24123" d="M5786.549,2039.94a5.547,5.547,0,0,0-2.733.712,14.055,14.055,0,0,0-4.751,4.543,3.87,3.87,0,0,0-.7,3.1,3.375,3.375,0,0,0,.991,1.845c6.8,6.816,13.2,13.218,20.014,20.023a1.547,1.547,0,0,0,2.559-.005q3.451-3.434,6.884-6.882a1.307,1.307,0,0,0,.066-2.057c-.135-.159-.289-.3-.438-.449q-10.045-10.044-20.091-20.087l-.009-.008a3.413,3.413,0,0,0-2.133-.732Z" transform="translate(0)" fill="#e8ecf1"/>
      <path id="Path_24124" data-name="Path 24124" d="M6571.6,2122.825a3.406,3.406,0,0,0-1.006.794.935.935,0,0,0-.064.074,4.046,4.046,0,0,0-.859,3.944,3.679,3.679,0,0,0,1.665,2.079,1.108,1.108,0,0,0,.859,0c2.337-.954,3.249-4.787,1.652-6.739a1.209,1.209,0,0,0-.8-.482,2.263,2.263,0,0,0-.783.074A3.6,3.6,0,0,0,6571.6,2122.825Z" transform="translate(-769.313 -80.268)" fill="#e8ecf1"/>
      <path id="Path_24125" data-name="Path 24125" d="M6712.1,2960.7a4.485,4.485,0,0,1,3.8,1.722l6,6.007a1.9,1.9,0,0,0,2.824-.079,2.191,2.191,0,0,0,.857-1.58,2.382,2.382,0,0,0-.813-1.9l-5.6-5.52c-1.179-1.118-2-2.316-1.824-3.906C6715.61,2957.186,6713.854,2958.944,6712.1,2960.7Z" transform="translate(-908.001 -890.23)" fill="#e8ecf1"/>
      <path id="Path_24126" data-name="Path 24126" d="M6671.634,2127.075a3.879,3.879,0,0,0,3.771-.805,3.668,3.668,0,0,0,1.082-3.988,4.078,4.078,0,0,0-3.344-2.912,3.858,3.858,0,0,1,1.369,4.261C6674.108,2125.162,6673.5,2126.539,6671.634,2127.075Z" transform="translate(-868.656 -77.237)" fill="#e8ecf1"/>
    </g>
  </g>
</svg>
