<svg xmlns="http://www.w3.org/2000/svg" xmlns:xlink="http://www.w3.org/1999/xlink" width="22" height="22" viewBox="0 0 22 22">
  <defs>
    <clipPath id="clip-icon_cricket_black">
      <rect width="22" height="22"/>
    </clipPath>
  </defs>
  <g id="icon_cricket_black" clip-path="url(#clip-icon_cricket_black)">
    <rect width="22" height="22" fill="rgba(139,139,139,0)"/>
    <g id="Group_15745" data-name="Group 15745" transform="translate(-5778.166 -2039.795)">
      <path id="Path_24123" data-name="Path 24123" d="M5782.864,2039.94a3.068,3.068,0,0,0-1.511.393,7.763,7.763,0,0,0-2.625,2.511,2.138,2.138,0,0,0-.386,1.712,1.868,1.868,0,0,0,.547,1.02c3.758,3.767,7.3,7.305,11.062,11.067a.855.855,0,0,0,1.415,0q1.906-1.9,3.8-3.8a.723.723,0,0,0,.037-1.137c-.075-.088-.16-.167-.242-.249q-5.552-5.551-11.1-11.1l0,0a1.885,1.885,0,0,0-1.179-.4Z"/>
      <path id="Path_24124" data-name="Path 24124" d="M6570.647,2122.674a1.881,1.881,0,0,0-.556.439.513.513,0,0,0-.036.041,2.237,2.237,0,0,0-.475,2.18,2.034,2.034,0,0,0,.92,1.149.611.611,0,0,0,.475,0,2.606,2.606,0,0,0,.914-3.724.67.67,0,0,0-.443-.266,1.251,1.251,0,0,0-.433.041A1.945,1.945,0,0,0,6570.647,2122.674Z" transform="translate(-779.085 -81.287)"/>
      <path id="Path_24125" data-name="Path 24125" d="M6712.1,2958.352a2.477,2.477,0,0,1,2.1.952l3.315,3.32a1.051,1.051,0,0,0,1.56-.043,1.208,1.208,0,0,0,.474-.873,1.316,1.316,0,0,0-.449-1.048l-3.094-3.051a2.544,2.544,0,0,1-1.008-2.159Z" transform="translate(-919.534 -901.538)"/>
      <path id="Path_24126" data-name="Path 24126" d="M6671.634,2123.629a2.143,2.143,0,0,0,2.083-.445,2.026,2.026,0,0,0,.6-2.2,2.253,2.253,0,0,0-1.848-1.609,2.131,2.131,0,0,1,.757,2.355A2.284,2.284,0,0,1,6671.634,2123.629Z" transform="translate(-879.689 -78.218)"/>
    </g>
  </g>
</svg>
