<svg xmlns="http://www.w3.org/2000/svg" viewBox="0 0 256.28 192.42"><defs><style>.cls-1,.cls-2{fill:#e8ecf1;}.cls-1{fill-rule:evenodd;}</style></defs><g id="Layer_2" data-name="Layer 2"><g id="Layer_1-2" data-name="Layer 1"><path class="cls-1" d="M202.77,20.61A20.61,20.61,0,1,1,182.16,0,20.61,20.61,0,0,1,202.77,20.61Z"/><path class="cls-2" d="M126,20.68c-21.46.21-37.38,3.25-53.46,9.66-13,5.16-21.21,18.33-18.9,29.87,2.05,10.21,8.06,13.47,15.83,17.62,5.54,3,19,9.4,27.58,13.27,5.67,2.57,26.59,6.88,26.81,16.09.25,11-17.33,52.67-7.56,54.55,14.93,2.87,21.5-26.94,23.17-33.06,2-7.44,9.41-26.67,0-38.85C131.86,80.05,94.2,68.5,99.11,61.74c3.66-5,28.26-12.59,33.79-7.66S140.52,81.3,150.39,80c23.76-3.23,27.78-4,40-5.14,11.53-1.09,11.49-15.13-1.75-13.9-16.88,1.56-30.45,4.41-30.8-1-1-15.13,5.37-20.46.39-29.89C152.92,19.87,141.6,20.52,126,20.68Z"/><path class="cls-2" d="M63.74,137.06a8.38,8.38,0,1,1-8.37-8.38A8.38,8.38,0,0,1,63.74,137.06Z"/><path class="cls-2" d="M209.29,137.06a8.38,8.38,0,1,1-8.38-8.38A8.38,8.38,0,0,1,209.29,137.06Z"/><path class="cls-2" d="M55.37,192.42a55.37,55.37,0,1,1,55.36-55.36A55.43,55.43,0,0,1,55.37,192.42Zm0-98.73a43.37,43.37,0,1,0,43.36,43.37A43.42,43.42,0,0,0,55.37,93.69Z"/><path class="cls-2" d="M200.91,192.42a55.37,55.37,0,1,1,55.37-55.36A55.42,55.42,0,0,1,200.91,192.42Zm0-98.73a43.37,43.37,0,1,0,43.37,43.37A43.42,43.42,0,0,0,200.91,93.69Z"/></g></g></svg>