<svg xmlns="http://www.w3.org/2000/svg" xmlns:xlink="http://www.w3.org/1999/xlink" width="40" height="40" viewBox="0 0 40 40">
  <defs>
    <clipPath id="clip-icon_darts_white">
      <rect width="40" height="40"/>
    </clipPath>
  </defs>
  <g id="icon_darts_white" clip-path="url(#clip-icon_darts_white)">
    <rect width="40" height="40" fill="rgba(139,139,139,0)"/>
    <g id="Group_15749" data-name="Group 15749" transform="translate(-7125.249 -1084.884)">
      <path id="Path_24127" data-name="Path 24127" d="M7153.195,1133.072a1.518,1.518,0,0,0-.309.184q-1.254,1.243-2.5,2.5a.367.367,0,0,1-.5.1,14.584,14.584,0,0,0-2.769-.933,14.9,14.9,0,0,0-3.034-.365,13.776,13.776,0,0,0-3.288.326,14.184,14.184,0,0,0-4.5,1.807,14.686,14.686,0,0,0-3.415,2.9,15.1,15.1,0,0,0-2.3,3.578,14.119,14.119,0,0,0-1.03,3.208,14.979,14.979,0,0,0-.163,4.566,13.782,13.782,0,0,0,.6,2.791,14.568,14.568,0,0,0,2.648,4.808,14.82,14.82,0,0,0,2.621,2.487,12.757,12.757,0,0,0,3.388,1.839,20.212,20.212,0,0,0,2.6.739,13.191,13.191,0,0,0,4.1.171,15.765,15.765,0,0,0,3.164-.673,14.245,14.245,0,0,0,3.257-1.56,14.713,14.713,0,0,0,5.578-6.619,14.158,14.158,0,0,0,1.139-5.054,13.661,13.661,0,0,0-.021-1.789,12.6,12.6,0,0,0-.5-2.811c-.243-.727-.529-1.439-.783-2.163a.371.371,0,0,1,.065-.316c.87-.9,1.749-1.789,2.63-2.678.172-.175.217-.165.341.058a17.215,17.215,0,0,1,1.556,3.795,18.5,18.5,0,0,1,.513,2.238,16.552,16.552,0,0,1,.19,4.282c-.062.533-.084,1.073-.169,1.6-.1.6-.226,1.2-.373,1.793a17.868,17.868,0,0,1-1.065,3.051,18.739,18.739,0,0,1-4.81,6.433,18.328,18.328,0,0,1-3.107,2.177,17.954,17.954,0,0,1-3.325,1.445c-.65.209-1.325.347-1.991.506a16.564,16.564,0,0,1-3.883.391,17.474,17.474,0,0,1-3.292-.313,18.632,18.632,0,0,1-10.644-6.126,18.42,18.42,0,0,1-2.875-4.472,18.145,18.145,0,0,1-1.2-3.507,18.781,18.781,0,0,1,.106-8.954,16.369,16.369,0,0,1,1.5-3.89c.484-.87,1.012-1.72,1.576-2.54a16.418,16.418,0,0,1,2.175-2.459,16.172,16.172,0,0,1,3.025-2.323c.867-.505,1.774-.946,2.685-1.365a15.2,15.2,0,0,1,3.212-1.006,17.078,17.078,0,0,1,4.466-.377,24.1,24.1,0,0,1,2.667.261,15.077,15.077,0,0,1,3.429.963c.781.331,1.543.7,2.313,1.058a2.126,2.126,0,0,1,.226.138C7153.142,1133,7153.168,1133.038,7153.195,1133.072Z" transform="translate(0 -43)" fill="#fff"/>
      <path id="Path_24128" data-name="Path 24128" d="M7277.824,1269.431a9.388,9.388,0,0,1,.591,3.958,10.885,10.885,0,0,1-3.514,7.666,11.056,11.056,0,1,1-4.061-18.6.936.936,0,0,1-.111.181q-1.4,1.41-2.814,2.811a.48.48,0,0,1-.316.118,7.726,7.726,0,0,0-2.4.334,7.412,7.412,0,0,0-4.421,3.8,11.334,11.334,0,0,0-.561,1.663,6.086,6.086,0,0,0-.119,2.688,7.212,7.212,0,0,0,1.925,3.951,7.383,7.383,0,0,0,3.634,2.124,7.029,7.029,0,0,0,2.4.181,7.142,7.142,0,0,0,3.245-1.114,7.294,7.294,0,0,0,2.8-3.258,9.194,9.194,0,0,0,.485-1.6,4.713,4.713,0,0,0,.128-1.284,1.236,1.236,0,0,1,.447-1.008c.178-.178.374-.339.554-.517.671-.666,1.335-1.336,2-2C7277.737,1269.5,7277.761,1269.484,7277.824,1269.431Z" transform="translate(-123.48 -166.745)" fill="#fff"/>
      <path id="Path_24129" data-name="Path 24129" d="M7406.4,1089.4c-.271.275-.5.513-.733.748q-2.24,2.251-4.486,4.494a.408.408,0,0,1-.3.081c-.415-.046-.829-.106-1.241-.173a.539.539,0,0,0-.513.184q-1.712,1.736-3.437,3.461-2.4,2.408-4.807,4.815c-.362.364-.707.745-1.068,1.109-.236.238-.487.46-.73.69a.8.8,0,0,0-.3.739,3.852,3.852,0,0,1-.08,1.683,3.914,3.914,0,0,1-1.387,2.026,3.791,3.791,0,0,1-5.785-1.592,3.582,3.582,0,0,1-.293-1.812,6.469,6.469,0,0,1,.269-1.031,3.278,3.278,0,0,1,1.352-1.746,3.737,3.737,0,0,1,2.941-.592.464.464,0,0,0,.476-.147q3.662-3.684,7.328-7.36c.989-.993,1.983-1.983,2.965-2.984a.512.512,0,0,0,.1-.359c-.043-.429-.126-.855-.165-1.285a.533.533,0,0,1,.128-.374q2.082-2.106,4.179-4.2c.275-.274.547-.55.824-.821.037-.037.1-.081.142-.069s.08.085.088.135c.087.666.163,1.332.248,2,.071.555.141,1.109.23,1.661a.322.322,0,0,0,.221.2c.966.133,1.936.246,2.9.37C7405.767,1089.286,7406.054,1089.34,7406.4,1089.4Z" transform="translate(-241.152)" fill="#fff"/>
    </g>
  </g>
</svg>
