<svg xmlns="http://www.w3.org/2000/svg" viewBox="0 0 20.22 14.38"><defs><style>.cls-1{fill:#7A7A7A;}</style></defs><g id="Layer_2" data-name="Layer 2"><g id="Layer_1-2" data-name="Layer 1"><path class="cls-1" d="M13.85,0C11,.37,11.73.68,10.11.63S9.06.25,6.73,0C3.48-.32,0,7.72,0,9.87s.41,4.51,2.18,4.4c1.52-.08,3.37-2.65,4.94-3.13a12.81,12.81,0,0,1,3-.55,10.62,10.62,0,0,1,3,.38c1.56.48,3.31,3.34,4.86,3.4,1.75.08,2.24-2.35,2.24-4.5S16.79-.35,13.85,0ZM7.71,7.42a.31.31,0,0,1-.31.31H6.19V9.1a.31.31,0,0,1-.32.31H4.63a.31.31,0,0,1-.32-.31V7.73H3.16a.31.31,0,0,1-.31-.31V6.17a.31.31,0,0,1,.31-.31H4.31V4.72a.31.31,0,0,1,.32-.31H5.87a.31.31,0,0,1,.32.31V5.86H7.4a.31.31,0,0,1,.31.31Zm7.17-3.67a1.13,1.13,0,1,1-1.13,1.13A1.13,1.13,0,0,1,14.88,3.75ZM12.81,7.92A1.13,1.13,0,1,1,13.93,6.8,1.12,1.12,0,0,1,12.81,7.92Zm2.07,1.9A1.13,1.13,0,1,1,16,8.7,1.13,1.13,0,0,1,14.88,9.82ZM17,7.92A1.13,1.13,0,1,1,18.14,6.8,1.13,1.13,0,0,1,17,7.92Z"/></g></g></svg>