<svg xmlns="http://www.w3.org/2000/svg" viewBox="0 0 434.8 456.81"><defs><style>.cls-1{fill:#e8ecf1;}</style></defs><g id="Layer_2" data-name="Layer 2"><g id="Layer_1-2" data-name="Layer 1"><path class="cls-1" d="M156.94,118.25,170,159.73s29.65-1.15,53.52-11.52c-8.6-28.32-13-45.15-13-45.15S190.58,113.47,156.94,118.25Z"/><path class="cls-1" d="M184.3,213l15,45s38.62-3.69,55-11.36c-7.58-29.13-14-46.82-14-46.82A247.13,247.13,0,0,1,184.3,213Z"/><path class="cls-1" d="M223.56,148.21l16.79,51.65s33.21-16.7,51.37-27.3c-8.28-28.93-15.66-52.67-15.66-52.67S249,139.13,223.56,148.21Z"/><path class="cls-1" d="M291.77,171.8l14.94,46s23.53-16.27,51-24.89c-6.39-30-14.1-48.51-14.1-48.51S307.17,164.48,291.77,171.8Z"/><path class="cls-1" d="M259.77,70.89l16.29,49s32.46-20.34,51.67-27.82c-9.17-30.22-18-55.26-18-55.26S283.67,55.21,259.77,70.89Z"/><path class="cls-1" d="M327.73,92.16l15.89,52.2s26.4-12.05,53.45-11.6A335.74,335.74,0,0,0,381.3,80.08S347,82.65,327.73,92.16Z"/><path class="cls-1" d="M237.6,456.81a15,15,0,0,1-14.36-10.7L119.57,100.55a15,15,0,1,1,28.73-8.62L252,437.49a15,15,0,0,1-14.37,19.32Z"/><path class="cls-1" d="M139.3,400.77a15,15,0,0,1-13-7.51L2,178a15,15,0,0,1,26-15L152.28,378.26a15,15,0,0,1-13,22.51Z"/><path class="cls-1" d="M39.62,192.37,54.82,220S78,203.53,93.12,199.86c-8.22-19.32-10-28.12-10-28.12S58.13,178.13,39.62,192.37Z"/><path class="cls-1" d="M69.88,245l18.31,31.16S105,263.3,118.9,254.72c-8.26-19-12.29-30.38-12.29-30.38S85.4,233.49,69.88,245Z"/><path class="cls-1" d="M93.12,199.86l12,25.83s18.42-8.88,36.26-11.43c-5.64-19.44-7-26.22-7-26.22A184.83,184.83,0,0,0,93.12,199.86Z"/><path class="cls-1" d="M183.42,282.45l-3.12-9.54c-29.84-91.11-47-146.23-51.06-163.82l-3.72-16.2,16.59.92c44.14,2.44,87.1-27.91,112.77-46,5-3.5,9.25-6.53,12.9-8.87s7.49-5.07,11.7-8.06c22.46-16,56.39-40.1,95.56-27.19,6.41,2.11,8.27,7.35,11.08,15.28,1.67,4.71,3.88,11.37,6.55,19.78,5.06,15.9,11.6,37.49,18,59.22,25.88,88.52,24.66,94,23.86,97.67a12.79,12.79,0,0,1-13.93,10.06c-15.89-1.85-50.69-.09-80.38,18.21a161,161,0,0,0-13.87,10.05c-21.42,16.63-50.75,39.4-132.9,47.53Zm-25.8-164c5.77,20.11,18.06,59.84,43.28,137,67.29-8.09,90.92-26.43,110.08-41.31a181.92,181.92,0,0,1,16.08-11.58c26.52-16.34,57-22.22,80.29-22.52-8.6-35.87-36.92-131.4-45.19-154C336.88,20.72,313.22,37.53,294,51.22c-4.47,3.18-8.7,6.18-12.72,8.76-3.17,2-7.24,4.9-11.95,8.22C245.67,84.88,203.89,114.39,157.62,118.47Z"/><path class="cls-1" d="M80.88,315.72l-8-15.72c-3.7-7.25-12.4-23-21.62-39.59-13.06-23.58-27.86-50.3-35-64.66l-4.49-9.09,8-6.27a180.51,180.51,0,0,1,77-35.7c15.69-3,35.87-4.17,42.46-.81,5.45,2.79,6.85,7.17,11.49,21.71,2.62,8.22,6,19.3,9.42,31.2,13.47,46.42,13.23,50.49,13.1,52.68A12.75,12.75,0,0,1,165,260.72c-.63.23-1.21.39-2.16.67C136.17,269,111.37,283.75,93.05,303ZM43.45,194c7.67,14.62,19.23,35.5,29.67,54.34,5.3,9.56,10.2,18.42,14.2,25.73a184.3,184.3,0,0,1,59-33.61c-4.7-18.54-16.16-58-21.39-73.51h-.27C111.44,166.9,78.46,169.69,43.45,194Z"/></g></g></svg>