<svg xmlns="http://www.w3.org/2000/svg" xmlns:xlink="http://www.w3.org/1999/xlink" viewBox="0 0 22 22">
  <defs>
    <style>
      .cls-1 {
        clip-path: url(#clip-icon_golf_black);
      }

      .cls-2 {
        fill-rule: evenodd;
      }

      .cls-3 {
        fill: rgba(139,139,139,0);
      }
    </style>
    <clipPath id="clip-icon_golf_black">
      <rect width="22" height="22"/>
    </clipPath>
  </defs>
  <g id="icon_golf_black" class="cls-1">
    <rect class="cls-3" width="22" height="22"/>
    <g id="Group_15709" data-name="Group 15709" transform="translate(-734 -232)">
      <g id="Group_36" data-name="Group 36" transform="translate(739.049 241.669)">
        <g id="Group_34" data-name="Group 34">
          <path id="Path_40" data-name="Path 40" d="M21.041,56.3A3.65,3.65,0,1,0,24.7,59.958,3.646,3.646,0,0,0,21.041,56.3Zm-.326,6.681a.463.463,0,0,0-.91-.12,2.5,2.5,0,0,1-.515-.292.61.61,0,0,0,.034-.172.462.462,0,0,0-.464-.464.529.529,0,0,0-.223.052,2.525,2.525,0,0,1-.172-.223.483.483,0,0,0,.447-.464.462.462,0,0,0-.464-.464.483.483,0,0,0-.361.172,2.191,2.191,0,0,1-.12-.481.508.508,0,0,0,.172.034.464.464,0,1,0-.206-.876,3.156,3.156,0,0,1,6.286,0,.462.462,0,1,0-.206.876.61.61,0,0,0,.172-.034,4.918,4.918,0,0,1-.12.481.483.483,0,0,0-.361-.172.464.464,0,0,0-.017.927,1.944,1.944,0,0,1-.172.223.527.527,0,0,0-.258-.069.462.462,0,0,0-.464.464.508.508,0,0,0,.034.172,5,5,0,0,1-.515.292.463.463,0,0,0-.91.12.292.292,0,0,0,.017.12,2.3,2.3,0,0,1-.343.017,2.189,2.189,0,0,1-.343-.017A.218.218,0,0,1,20.715,62.981Z" transform="translate(-17.4 -56.3)"/>
          <path id="Path_41" data-name="Path 41" d="M33.245,79.964a.462.462,0,0,0-.464-.464.477.477,0,0,0-.481.464.466.466,0,0,0,.481.464A.451.451,0,0,0,33.245,79.964Z" transform="translate(-29.741 -75.516)"/>
          <path id="Path_42" data-name="Path 42" d="M39.959,80.527a.464.464,0,1,0-.464-.464A.451.451,0,0,0,39.959,80.527Z" transform="translate(-35.7 -75.598)"/>
          <path id="Path_43" data-name="Path 43" d="M26.327,78.264a.464.464,0,1,0-.464.464A.462.462,0,0,0,26.327,78.264Z" transform="translate(-24.026 -74.108)"/>
          <path id="Path_44" data-name="Path 44" d="M36.927,87.064a.464.464,0,1,0-.464.464A.473.473,0,0,0,36.927,87.064Z" transform="translate(-32.806 -81.396)"/>
          <path id="Path_45" data-name="Path 45" d="M43.5,85.959a.464.464,0,1,0,.464-.464A.462.462,0,0,0,43.5,85.959Z" transform="translate(-39.018 -80.481)"/>
          <path id="Path_46" data-name="Path 46" d="M28.764,85.4a.464.464,0,1,0,.464.464A.473.473,0,0,0,28.764,85.4Z" transform="translate(-26.428 -80.402)"/>
          <path id="Path_47" data-name="Path 47" d="M46.964,78.827a.464.464,0,1,0-.464-.464A.462.462,0,0,0,46.964,78.827Z" transform="translate(-41.502 -74.19)"/>
        </g>
        <g id="Group_35" data-name="Group 35" transform="translate(2.215 7.934)">
          <path id="Path_48" data-name="Path 48" class="cls-2" d="M33.265,102.717v.052c0,1.065-1,.79-1.048,1.666l-.155,2.628H31.7l-.155-2.628c-.052-.876-1.048-.6-1.048-1.666V102.7a3.8,3.8,0,0,0,1.408.258A4.03,4.03,0,0,0,33.265,102.717Z" transform="translate(-30.466 -102.666)"/>
          <path id="Path_49" data-name="Path 49" d="M31.9,106.9h-.4v-.017l-.155-2.628a.834.834,0,0,0-.5-.721,1,1,0,0,1-.55-.945V102.5h.017a3.934,3.934,0,0,0,1.408.258,4.03,4.03,0,0,0,1.357-.24H33.1v.069a1.027,1.027,0,0,1-.55.945.865.865,0,0,0-.5.721Zm-.361-.017h.343l.155-2.61a.885.885,0,0,1,.5-.738.99.99,0,0,0,.55-.927v-.034a4.03,4.03,0,0,1-1.357.24,3.843,3.843,0,0,1-1.391-.258v.052a.953.953,0,0,0,.55.927.885.885,0,0,1,.5.738Z" transform="translate(-30.3 -102.5)"/>
        </g>
      </g>
      <g id="Group_37" data-name="Group 37" transform="translate(736 232)">
        <path id="Path_50" data-name="Path 50" class="cls-2" d="M5.522,8.506A2.19,2.19,0,0,0,2.654,9.588c-.618,1.391-1.374,3.641-.223,4.98.017.034.052.052.086.086a4.416,4.416,0,0,0,1.477,2.49C.954,16.3-.918,13.882,1.28,8.97A3.7,3.7,0,0,1,6.158,7.115l6.269,2.834c.155.069.292.137.447.206l.017-.034.824-1.855a1.466,1.466,0,0,1,.962-.859L17.785.4l1.357.6L16.033,8.025a1.409,1.409,0,0,1,.017,1.288l-.824,1.855a1.311,1.311,0,0,1-.258.4c2.473,2.507-1.219,4.963-5.513,5.719a4.328,4.328,0,0,0,1.425-1.889,10.09,10.09,0,0,0,1.82-.738c.4-.206,1.494-.893,1.546-1.408.017-.172-.189-.429-.292-.532a6.82,6.82,0,0,0-2.164-1.374l-2.456-1.1a4.186,4.186,0,0,0-1.546-.687L5.522,8.506Z" transform="translate(-0.206 -0.331)"/>
        <path id="Path_51" data-name="Path 51" d="M8.707,17.037l.155-.12a4.211,4.211,0,0,0,1.408-1.872v-.017h.017a9.815,9.815,0,0,0,1.82-.738c.412-.223,1.46-.876,1.511-1.357.017-.1-.1-.292-.275-.5A6.607,6.607,0,0,0,11.2,11.077l-2.456-1.1A4.186,4.186,0,0,0,7.2,9.291L4.911,8.261a2.088,2.088,0,0,0-.859-.189A2.12,2.12,0,0,0,2.112,9.308c-1,2.233-1.082,3.933-.24,4.929.017.034.052.052.069.086l.017.017v.017a4.326,4.326,0,0,0,1.46,2.473l.172.137L3.366,16.9a4.866,4.866,0,0,1-3.315-2.49c-.687-1.46-.5-3.4.567-5.753a3.739,3.739,0,0,1,3.418-2.2,3.653,3.653,0,0,1,1.528.326L11.833,9.6c.137.069.275.12.4.189L13.1,7.934a1.533,1.533,0,0,1,.979-.876L17.191,0l1.443.635V.687L15.525,7.694A1.505,1.505,0,0,1,15.542,9l-.824,1.855a1.418,1.418,0,0,1-.24.378,2.153,2.153,0,0,1,.687,2.233C14.666,15.01,12.159,16.436,8.9,17ZM10.373,15.1a4.413,4.413,0,0,1-1.288,1.769c3.126-.584,5.53-1.941,5.994-3.435a2.058,2.058,0,0,0-.7-2.164l-.034-.034.034-.034a1.164,1.164,0,0,0,.24-.4l.824-1.855a1.394,1.394,0,0,0-.017-1.254L15.4,7.677l.017-.017L18.513.67,17.242.1,14.151,7.144h-.017a1.375,1.375,0,0,0-.927.824l-.859,1.923L12.3,9.875c-.155-.069-.292-.137-.447-.206L5.564,6.835A3.62,3.62,0,0,0,.755,8.656C-.292,10.991-.481,12.9.206,14.34a4.737,4.737,0,0,0,3.04,2.387,4.315,4.315,0,0,1-1.322-2.37c-.017-.034-.052-.052-.069-.086-.893-1.03-.807-2.731.223-5.032A2.221,2.221,0,0,1,5,8.123l2.267,1.03a4.268,4.268,0,0,1,1.563.7l2.456,1.1a6.816,6.816,0,0,1,2.181,1.391c.12.137.326.378.309.584-.052.635-1.546,1.425-1.563,1.443A12.8,12.8,0,0,1,10.373,15.1Z" transform="translate(0.353)"/>
      </g>
    </g>
  </g>
</svg>
