<svg xmlns="http://www.w3.org/2000/svg" xmlns:xlink="http://www.w3.org/1999/xlink" viewBox="0 0 40 40">
  <defs>
    <style>
      .cls-1 {
        clip-path: url(#clip-icon_golf_white);
      }

      .cls-2, .cls-3 {
        fill: #7A7A7A;
      }

      .cls-3 {
        fill-rule: evenodd;
      }

      .cls-4 {
        fill: rgba(139,139,139,0);
      }
    </style>
    <clipPath id="clip-icon_golf_white">
      <rect width="40" height="40"/>
    </clipPath>
  </defs>
  <g id="icon_golf_white" class="cls-1">
    <rect class="cls-4" width="40" height="40"/>
    <g id="Group_15709" data-name="Group 15709" transform="translate(-733 -232)">
      <g id="Group_36" data-name="Group 36" transform="translate(741.543 249.58)">
        <g id="Group_34" data-name="Group 34">
          <path id="Path_40" data-name="Path 40" class="cls-2" d="M24.02,56.3a6.635,6.635,0,1,0,6.651,6.651A6.63,6.63,0,0,0,24.02,56.3Zm-.593,12.147a.842.842,0,0,0-1.655-.219,4.554,4.554,0,0,1-.937-.531,1.109,1.109,0,0,0,.062-.312.84.84,0,0,0-.843-.843.961.961,0,0,0-.406.094,4.591,4.591,0,0,1-.312-.406.877.877,0,0,0,.812-.843.84.84,0,0,0-.843-.843.879.879,0,0,0-.656.312,3.985,3.985,0,0,1-.219-.874.924.924,0,0,0,.312.062.843.843,0,1,0-.375-1.593,5.738,5.738,0,0,1,11.429,0,.841.841,0,1,0-.375,1.593,1.11,1.11,0,0,0,.312-.062,8.943,8.943,0,0,1-.219.874.879.879,0,0,0-.656-.312.843.843,0,0,0-.031,1.686,3.535,3.535,0,0,1-.312.406.959.959,0,0,0-.468-.125.84.84,0,0,0-.843.843.924.924,0,0,0,.062.312,9.085,9.085,0,0,1-.937.531.842.842,0,0,0-1.655.219.531.531,0,0,0,.031.219,4.184,4.184,0,0,1-.625.031,3.98,3.98,0,0,1-.625-.031A.4.4,0,0,1,23.427,68.447Z" transform="translate(-17.4 -56.3)"/>
          <path id="Path_41" data-name="Path 41" class="cls-2" d="M34.017,80.343a.84.84,0,0,0-.843-.843.867.867,0,0,0-.874.843.847.847,0,0,0,.874.843A.821.821,0,0,0,34.017,80.343Z" transform="translate(-27.647 -72.256)"/>
          <path id="Path_42" data-name="Path 42" class="cls-2" d="M40.339,81.286a.843.843,0,1,0-.843-.843A.82.82,0,0,0,40.339,81.286Z" transform="translate(-32.595 -72.324)"/>
          <path id="Path_43" data-name="Path 43" class="cls-2" d="M27.086,78.643a.843.843,0,1,0-.843.843A.84.84,0,0,0,27.086,78.643Z" transform="translate(-22.902 -71.087)"/>
          <path id="Path_44" data-name="Path 44" class="cls-2" d="M37.686,87.443a.843.843,0,1,0-.843.843A.86.86,0,0,0,37.686,87.443Z" transform="translate(-30.192 -77.139)"/>
          <path id="Path_45" data-name="Path 45" class="cls-2" d="M43.5,86.339a.843.843,0,1,0,.843-.843A.84.84,0,0,0,43.5,86.339Z" transform="translate(-35.35 -76.378)"/>
          <path id="Path_46" data-name="Path 46" class="cls-2" d="M29.143,85.4a.843.843,0,1,0,.843.843A.86.86,0,0,0,29.143,85.4Z" transform="translate(-24.896 -76.313)"/>
          <path id="Path_47" data-name="Path 47" class="cls-2" d="M47.343,79.586a.843.843,0,1,0-.843-.843A.84.84,0,0,0,47.343,79.586Z" transform="translate(-37.413 -71.155)"/>
        </g>
        <g id="Group_35" data-name="Group 35" transform="translate(4.028 14.426)">
          <path id="Path_48" data-name="Path 48" class="cls-3" d="M35.527,102.731v.094c0,1.936-1.811,1.436-1.9,3.029l-.281,4.778h-.656l-.281-4.778c-.094-1.593-1.9-1.093-1.9-3.029V102.7a6.911,6.911,0,0,0,2.56.468A7.327,7.327,0,0,0,35.527,102.731Z" transform="translate(-30.438 -102.638)"/>
          <path id="Path_49" data-name="Path 49" class="cls-2" d="M33.2,110.494h-.718v-.031l-.281-4.778a1.517,1.517,0,0,0-.906-1.311,1.815,1.815,0,0,1-1-1.717V102.5h.031a7.153,7.153,0,0,0,2.56.468,7.327,7.327,0,0,0,2.467-.437h.031v.125a1.867,1.867,0,0,1-1,1.717,1.573,1.573,0,0,0-.906,1.311Zm-.656-.031h.625l.281-4.746a1.609,1.609,0,0,1,.906-1.343,1.8,1.8,0,0,0,1-1.686v-.062a7.327,7.327,0,0,1-2.467.437,6.986,6.986,0,0,1-2.529-.468v.094a1.732,1.732,0,0,0,1,1.686,1.609,1.609,0,0,1,.906,1.343Z" transform="translate(-30.3 -102.5)"/>
        </g>
      </g>
      <g id="Group_37" data-name="Group 37" transform="translate(736 232)">
        <path id="Path_50" data-name="Path 50" class="cls-3" d="M9.777,15.138a3.982,3.982,0,0,0-5.215,1.967c-1.124,2.529-2.5,6.62-.406,9.055.031.062.094.094.156.156A8.029,8.029,0,0,0,7,30.845c-5.527-1.53-8.931-5.933-4.934-14.863a6.728,6.728,0,0,1,8.868-3.372l11.4,5.152c.281.125.531.25.812.375l.031-.062,1.5-3.372A2.666,2.666,0,0,1,26.42,13.14L32.072.4l2.467,1.093L28.887,14.264a2.562,2.562,0,0,1,.031,2.342l-1.5,3.372a2.384,2.384,0,0,1-.468.718c4.5,4.559-2.217,9.024-10.023,10.4a7.87,7.87,0,0,0,2.592-3.435,18.346,18.346,0,0,0,3.31-1.343c.718-.375,2.717-1.624,2.81-2.56.031-.312-.343-.781-.531-.968a12.4,12.4,0,0,0-3.934-2.5l-4.465-2a7.611,7.611,0,0,0-2.81-1.249l-4.122-1.9Z" transform="translate(-0.111 -0.275)"/>
        <path id="Path_51" data-name="Path 51" class="cls-2" d="M16.119,30.976l.281-.219a7.657,7.657,0,0,0,2.561-3.4v-.031h.031A17.846,17.846,0,0,0,22.3,25.98c.749-.406,2.654-1.593,2.748-2.467.031-.187-.187-.531-.5-.906a12.012,12.012,0,0,0-3.9-2.467l-4.465-2a7.611,7.611,0,0,0-2.81-1.249L9.219,15.02a3.8,3.8,0,0,0-1.561-.343,3.855,3.855,0,0,0-3.528,2.248c-1.811,4.059-1.967,7.151-.437,8.962.031.062.094.094.125.156l.031.031V26.1A7.866,7.866,0,0,0,6.5,30.6l.312.25-.406-.125C3.473,29.914,1.381,28.353.382,26.2c-1.249-2.654-.906-6.183,1.03-10.461a6.8,6.8,0,0,1,6.214-4,6.641,6.641,0,0,1,2.779.593l11.4,5.121c.25.125.5.219.718.343l1.592-3.372a2.788,2.788,0,0,1,1.78-1.593L31.545,0l2.623,1.155v.094l-5.652,12.74a2.737,2.737,0,0,1,.031,2.373l-1.5,3.372a2.579,2.579,0,0,1-.437.687,3.915,3.915,0,0,1,1.249,4.059c-.906,2.81-5.464,5.4-11.4,6.432Zm3.029-3.528a8.023,8.023,0,0,1-2.342,3.216c5.683-1.062,10.055-3.528,10.9-6.245.437-1.343,0-2.654-1.28-3.934l-.062-.062.062-.062a2.116,2.116,0,0,0,.437-.718l1.5-3.372a2.535,2.535,0,0,0-.031-2.279l-.031-.031.031-.031L33.949,1.218,31.639.187l-5.621,12.8h-.031a2.5,2.5,0,0,0-1.686,1.5l-1.561,3.5-.094-.031c-.281-.125-.531-.25-.812-.375L10.405,12.428a6.582,6.582,0,0,0-8.743,3.31c-1.9,4.247-2.248,7.713-1,10.336a8.613,8.613,0,0,0,5.527,4.34,7.845,7.845,0,0,1-2.4-4.309c-.031-.062-.094-.094-.125-.156-1.624-1.874-1.468-4.965.406-9.149a4.038,4.038,0,0,1,5.308-2.03L13.5,16.643a7.761,7.761,0,0,1,2.842,1.28l4.465,2a12.393,12.393,0,0,1,3.966,2.529c.219.25.593.687.562,1.062-.094,1.155-2.81,2.592-2.842,2.623A23.266,23.266,0,0,1,19.148,27.447Z" transform="translate(0.353)"/>
      </g>
    </g>
  </g>
</svg>
