<?xml version="1.0" encoding="utf-8"?>
<!-- Generator: Adobe Illustrator 25.2.3, SVG Export Plug-In . SVG Version: 6.00 Build 0)  -->
<svg version="1.1" id="Layer_1" xmlns="http://www.w3.org/2000/svg" xmlns:xlink="http://www.w3.org/1999/xlink" x="0px" y="0px"
	 viewBox="0 0 22.878 21.66" style="enable-background:new 0 0 22.878 21.66;" xml:space="preserve">
<style type="text/css">
	.st0{fill:#073f79;}
</style>
<path class="st0" d="M21.9,2.83c0.009,0.423-0.092,0.822-0.253,1.209c-0.025,0.061-0.034,0.117-0.019,0.183
	c0.096,0.416,0.103,0.837,0.062,1.261c-0.048,0.502-0.15,0.994-0.3,1.475c-0.165,0.53-0.367,1.047-0.591,1.555
	c-0.166,0.377-0.345,0.748-0.536,1.112c-0.201,0.384-0.422,0.758-0.649,1.127c-0.247,0.402-0.498,0.801-0.777,1.183
	c-0.323,0.444-0.65,0.885-0.996,1.312c-0.199,0.245-0.396,0.492-0.604,0.73c-0.196,0.225-0.394,0.45-0.602,0.665
	c-0.272,0.28-0.529,0.574-0.801,0.853c-0.303,0.31-0.61,0.618-0.931,0.91c-0.288,0.262-0.582,0.518-0.875,0.774
	c-0.37,0.323-0.749,0.637-1.138,0.937c-0.269,0.207-0.544,0.406-0.821,0.602c-0.467,0.33-0.941,0.651-1.435,0.941
	c-0.508,0.298-1.021,0.586-1.561,0.823c-0.371,0.163-0.742,0.325-1.125,0.458c-0.575,0.199-1.165,0.329-1.775,0.363
	c-0.333,0.018-0.664,0.018-0.989-0.058c-0.308-0.072-0.606-0.175-0.854-0.38c-0.105-0.087-0.216-0.116-0.351-0.118
	c-0.375-0.004-0.746-0.049-1.086-0.224c-0.166-0.085-0.322-0.187-0.459-0.315c-0.217-0.204-0.418-0.421-0.573-0.678
	c-0.241-0.399-0.346-0.828-0.295-1.293c0.007-0.064-0.012-0.112-0.051-0.159c-0.345-0.409-0.499-0.892-0.529-1.417
	c-0.049-0.878,0.126-1.72,0.424-2.541c0.246-0.677,0.534-1.336,0.882-1.968c0.238-0.433,0.485-0.86,0.756-1.273
	c0.262-0.399,0.524-0.798,0.803-1.185c0.203-0.283,0.414-0.561,0.634-0.832c0.21-0.26,0.423-0.518,0.637-0.775
	C5.676,7.422,6.266,6.79,6.884,6.183C7.18,5.892,7.483,5.608,7.784,5.322c0.402-0.382,0.826-0.74,1.258-1.089
	c0.341-0.275,0.688-0.544,1.036-0.81c0.342-0.262,0.698-0.505,1.064-0.733c0.33-0.206,0.66-0.412,0.996-0.608
	c0.444-0.26,0.903-0.493,1.37-0.709c0.421-0.195,0.849-0.371,1.285-0.527c0.592-0.213,1.197-0.368,1.825-0.433
	c0.401-0.042,0.799-0.038,1.195,0.041c0.099,0.02,0.197,0.047,0.293,0.081c0.083,0.029,0.156,0.036,0.244,0.004
	c0.332-0.121,0.675-0.186,1.031-0.192c0.401-0.007,0.787,0.055,1.152,0.224c0.441,0.204,0.79,0.513,1.034,0.933
	c0.182,0.313,0.273,0.656,0.316,1.014C21.895,2.622,21.899,2.726,21.9,2.83z M17.654,0.851c-0.345-0.035-0.668-0.037-0.989,0.004
	c-0.541,0.069-1.062,0.219-1.575,0.397c-0.492,0.171-0.966,0.386-1.426,0.628c-0.57,0.3-1.122,0.631-1.661,0.982
	c-0.404,0.263-0.793,0.547-1.183,0.83c-0.4,0.29-0.793,0.586-1.175,0.898C9.229,4.93,8.82,5.276,8.423,5.635
	C8.184,5.851,7.939,6.059,7.708,6.283C7.067,6.905,6.45,7.551,5.851,8.215C5.443,8.667,5.057,9.138,4.683,9.62
	c-0.405,0.522-0.805,1.049-1.165,1.604c-0.353,0.543-0.684,1.099-0.985,1.674c-0.427,0.817-0.77,1.663-0.967,2.566
	c-0.091,0.416-0.137,0.834-0.085,1.259c0.028,0.23,0.084,0.453,0.174,0.667c0.01,0.023,0.014,0.062,0.048,0.058
	c0.026-0.003,0.026-0.04,0.033-0.062c0.107-0.34,0.257-0.66,0.461-0.953c0.144-0.206,0.292-0.409,0.483-0.58
	c0.174-0.156,0.358-0.3,0.524-0.464c0.408-0.405,0.797-0.827,1.194-1.242c0.471-0.493,0.949-0.979,1.422-1.47
	c0.476-0.495,0.944-0.998,1.426-1.488c0.526-0.534,1.047-1.074,1.566-1.616c0.411-0.429,0.833-0.847,1.251-1.269
	c0.512-0.518,1.033-1.028,1.54-1.552c0.447-0.462,0.922-0.897,1.384-1.345c0.519-0.503,1.021-1.025,1.529-1.539
	c0.554-0.562,1.115-1.116,1.671-1.676c0.159-0.16,0.337-0.298,0.481-0.474c0.219-0.27,0.479-0.499,0.763-0.699
	C17.502,0.97,17.582,0.933,17.654,0.851z M21.274,5.03c0-0.069,0-0.138,0-0.206c0-0.021,0.007-0.05-0.02-0.057
	c-0.023-0.006-0.028,0.021-0.038,0.036c-0.18,0.258-0.384,0.495-0.62,0.703c-0.099,0.087-0.205,0.167-0.29,0.268
	c-0.19,0.225-0.401,0.431-0.605,0.642c-0.695,0.716-1.394,1.428-2.097,2.136c-0.963,0.969-1.931,1.934-2.897,2.9
	c-0.961,0.961-1.92,1.922-2.882,2.881c-1.171,1.167-2.345,2.33-3.513,3.5c-0.299,0.299-0.587,0.609-0.889,0.906
	c-0.178,0.175-0.353,0.356-0.502,0.556c-0.272,0.364-0.582,0.684-0.97,0.926c-0.284,0.177-0.586,0.308-0.908,0.399
	c-0.021,0.006-0.049,0.005-0.055,0.029c-0.006,0.025,0.02,0.028,0.038,0.034c0.203,0.071,0.412,0.116,0.625,0.135
	c0.377,0.034,0.75-0.009,1.118-0.089c0.612-0.134,1.204-0.334,1.773-0.593c0.603-0.274,1.185-0.589,1.749-0.937
	c0.351-0.217,0.698-0.44,1.033-0.68c0.218-0.156,0.438-0.31,0.65-0.474c0.31-0.241,0.62-0.48,0.924-0.729
	c0.276-0.226,0.549-0.456,0.816-0.692c0.171-0.151,0.332-0.313,0.501-0.465c0.364-0.328,0.71-0.674,1.056-1.02
	c0.297-0.297,0.595-0.594,0.871-0.912c0.284-0.328,0.569-0.655,0.851-0.985c0.318-0.371,0.626-0.751,0.92-1.141
	c0.288-0.383,0.565-0.775,0.841-1.168c0.512-0.728,0.977-1.485,1.392-2.273c0.384-0.729,0.706-1.482,0.917-2.281
	C21.177,5.935,21.27,5.489,21.274,5.03z M18.887,2.198c-0.229-0.005-0.442,0.019-0.65,0.067c-0.415,0.095-0.817,0.234-1.206,0.408
	c-0.266,0.119-0.51,0.277-0.68,0.519c-0.318,0.453-0.383,0.944-0.186,1.464c0.118,0.31,0.295,0.589,0.468,0.87
	c0.086,0.14,0.173,0.281,0.203,0.448c0.015,0.082-0.012,0.147-0.073,0.197c-0.053,0.043-0.111,0.08-0.172,0.112
	c-0.344,0.182-0.719,0.28-1.084,0.405c-0.591,0.201-1.196,0.363-1.767,0.62c-0.241,0.108-0.47,0.239-0.667,0.417
	c-0.403,0.365-0.53,0.82-0.424,1.346c0.05,0.248,0.149,0.483,0.198,0.731c0.041,0.211,0.002,0.385-0.189,0.519
	c-0.194,0.136-0.405,0.228-0.625,0.306c-0.623,0.223-1.269,0.365-1.907,0.536c-0.498,0.134-0.994,0.271-1.46,0.498
	c-0.294,0.143-0.55,0.331-0.74,0.6c-0.265,0.375-0.331,0.795-0.264,1.242c0.025,0.168,0.052,0.336,0.075,0.505
	c0.014,0.105-0.028,0.185-0.117,0.245c-0.119,0.081-0.248,0.141-0.379,0.196C6.96,14.567,6.67,14.66,6.383,14.762
	c-0.364,0.129-0.727,0.263-1.082,0.416c-0.454,0.196-0.906,0.396-1.294,0.711c-0.306,0.249-0.477,0.569-0.483,0.969
	c-0.005,0.313,0.097,0.599,0.225,0.878c0.156,0.341,0.316,0.678,0.605,0.934c0.07,0.062,0.11,0.149,0.146,0.237
	c0.029,0.071,0.061,0.142,0.131,0.185c0.167,0.103,0.379,0.051,0.505-0.123c0.084-0.117,0.127-0.248,0.141-0.39
	c0.042-0.432-0.059-0.822-0.327-1.169c-0.091-0.117-0.161-0.249-0.215-0.388c-0.05-0.128-0.031-0.232,0.078-0.323
	c0.121-0.102,0.261-0.172,0.402-0.237c0.505-0.231,1.038-0.383,1.567-0.548c0.453-0.141,0.907-0.279,1.325-0.512
	c0.248-0.138,0.463-0.312,0.611-0.559c0.177-0.295,0.191-0.62,0.166-0.95c-0.017-0.224-0.048-0.448-0.068-0.672
	c-0.013-0.145,0.024-0.272,0.158-0.356c0.07-0.044,0.14-0.087,0.215-0.12c0.412-0.183,0.84-0.321,1.269-0.455
	c0.57-0.179,1.145-0.342,1.716-0.517c0.413-0.127,0.815-0.282,1.15-0.567c0.29-0.247,0.477-0.551,0.506-0.939
	c0.021-0.28-0.038-0.552-0.096-0.823c-0.046-0.217-0.116-0.43-0.122-0.655c-0.003-0.112,0.031-0.207,0.119-0.285
	c0.128-0.114,0.283-0.179,0.437-0.238c0.371-0.141,0.749-0.264,1.132-0.372c0.488-0.138,0.983-0.249,1.463-0.413
	c0.3-0.103,0.583-0.24,0.818-0.461c0.332-0.312,0.444-0.69,0.338-1.132c-0.082-0.34-0.253-0.643-0.405-0.953
	c-0.114-0.231-0.262-0.445-0.35-0.69c-0.069-0.191-0.025-0.347,0.122-0.484c0.092-0.085,0.198-0.147,0.303-0.212
	c0.361-0.223,0.734-0.418,1.161-0.482c0.32-0.048,0.643-0.072,0.957-0.153c0.151-0.039,0.302-0.075,0.452-0.12
	c0.106-0.032,0.153-0.122,0.142-0.233c-0.014-0.13-0.1-0.173-0.209-0.192c-0.13-0.023-0.261-0.038-0.39-0.061
	C19.428,2.258,19.156,2.188,18.887,2.198z"/>
</svg>
