<svg xmlns="http://www.w3.org/2000/svg" xmlns:xlink="http://www.w3.org/1999/xlink" width="22" height="22" viewBox="0 0 22 22">
  <defs>
    <clipPath id="clip-icon_martial_arts_black">
      <rect width="22" height="22"/>
    </clipPath>
  </defs>
  <g id="icon_martial_arts_black" clip-path="url(#clip-icon_martial_arts_black)">
    <rect width="22" height="22" fill="rgba(139,139,139,0)"/>
    <g id="Group_15753" data-name="Group 15753" transform="translate(-8369.2 -2208.123)">
      <path id="Path_24130" data-name="Path 24130" d="M8568.926,2216c-.032.145-.062.238-.073.333-.068.632-.124,1.265-.2,1.9-.062.517-.141,1.032-.223,1.546-.007.041-.1.091-.158.092-.491.007-.982,0-1.473.005s-.982.018-1.475.02c-.273,0-.545-.02-.818-.02-.621,0-1.242.009-1.863.012a1.578,1.578,0,0,1-.191-.025c.117-.382.225-.737.336-1.091.152-.488.309-.974.461-1.461s.3-.978.453-1.466c.206-.664.41-1.329.618-1.993.151-.487.31-.972.461-1.46.2-.653.4-1.307.6-1.959.117-.379.24-.756.353-1.137.047-.158.129-.195.271-.145.342.12.688.229,1.025.359a.258.258,0,0,1,.094.2.255.255,0,0,0,.209.306,10.561,10.561,0,0,1,1.436.524,3.8,3.8,0,0,1,1.578,1.523c.234.405.395.859.607,1.281q.708,1.411,1.435,2.811c.315.608.641,1.211.969,1.812.353.645.714,1.285,1.071,1.927.094.169.19.337.287.5.071.124.026.2-.082.266-.594.376-1.185.758-1.777,1.137-.237.152-.483.292-.713.457-.131.094-.18.109-.283-.1-.113-.224-.215-.453-.324-.679-.227-.472-.457-.942-.68-1.416-.3-.635-.586-1.274-.883-1.909-.309-.663-.623-1.324-.937-1.985A1.85,1.85,0,0,0,8568.926,2216Z" transform="translate(-183.547 0)"/>
      <path id="Path_24131" data-name="Path 24131" d="M8374.987,2217.95c-1,2.1-1.992,4.206-3,6.326-.175-.107-.331-.2-.482-.3q-1.071-.686-2.139-1.375c-.207-.133-.209-.147-.084-.377.395-.721.785-1.444,1.178-2.165.462-.848.934-1.689,1.385-2.542.406-.766.795-1.542,1.182-2.319.186-.373.316-.778.525-1.135a4.009,4.009,0,0,1,1.982-1.789c.367-.146.746-.259,1.123-.375.131-.04.188-.107.164-.246-.029-.181.051-.253.213-.3.311-.088.617-.2.92-.311.141-.053.217-.017.263.127q.255.824.512,1.647.267.855.534,1.709c.152.493.277,1,.464,1.477a1.315,1.315,0,0,1-.044.857c-.124.5-.254,1-.383,1.505-.113.44-.233.879-.346,1.32-.1.4-.2.8-.294,1.206-.056.224-.106.449-.175.669a.188.188,0,0,1-.143.094c-.257.019-.514.031-.77.03-.633,0-1.266-.018-1.9-.02a.179.179,0,0,1-.209-.181c-.039-.3-.084-.6-.117-.9-.09-.816-.174-1.634-.263-2.45a1.2,1.2,0,0,0-.05-.19Z" transform="translate(0 -1.801)"/>
      <path id="Path_24132" data-name="Path 24132" d="M8543.756,2460.206l.549.885q.771,1.247,1.543,2.5c.053.085.105.1.189.046.493-.331.988-.658,1.482-.987a2.945,2.945,0,0,1,.32-.208c.126-.062.106-.139.049-.233q-.381-.618-.764-1.236-.5-.806-1-1.611a1.675,1.675,0,0,1-.074-.159,1.831,1.831,0,0,1,.192-.022c1.131,0,2.263,0,3.394,0,.146,0,.2.064.221.21.1.615.212,1.229.315,1.843.095.564.185,2.21.278,2.774.033.193.066.386.113.575.027.109,0,.148-.1.168-.363.077-.727.159-1.09.237l-1.456.313-1.026.219c-.486.1-.973.211-1.457.314-.466.1-.932.195-1.4.292-.278.058-.557.117-.834.177-.142.031-.2-.026-.207-.179-.036-.724-.077-2.529-.118-3.252-.021-.382-.043-.764-.061-1.146a.381.381,0,0,1,.025-.2c.263-.406.533-.805.8-1.206A.984.984,0,0,1,8543.756,2460.206Z" transform="translate(-164.906 -236.719)"/>
      <path id="Path_24133" data-name="Path 24133" d="M8491.895,2423a1.052,1.052,0,0,0,.06.166q.662,1.074,1.326,2.147c.23.373.457.748.688,1.12.069.111.058.18-.057.251-.276.173-.547.359-.818.541-.143.095-.19.081-.286-.074q-.993-1.6-1.988-3.2l-.154-.246c-.06-.094-.117-.086-.177,0q-.365.555-.731,1.109c-.081.124-.165.246-.242.372a.137.137,0,0,1-.223.046c-.3-.2-.591-.4-.889-.588a.122.122,0,0,1-.043-.2q.366-.555.728-1.111c.063-.1.116-.2.2-.329-.112-.006-.171-.011-.229-.011h-1.983c-.219,0-.22,0-.22-.226q0-.487,0-.975c0-.219,0-.22.211-.22h9.015c.159,0,.317.007.476,0,.133-.008.169.052.167.185,0,.348,0,.7,0,1.044,0,.154-.05.2-.19.2-1.421,0-2.842,0-4.262,0Z" transform="translate(-111.742 -201.128)"/>
      <path id="Path_24134" data-name="Path 24134" d="M8481.6,2459.186c-.194.3-.366.556-.537.816-.022.033-.048.064-.068.1-.127.2-.129.206.069.339.442.3.884.6,1.331.885a.224.224,0,0,1,.111.226c-.017.446-.036.892-.048,1.339-.015.487,0,2.025,0,2.511,0,.137-.032.2-.171.153-.323-.1-.68-.167-1-.268s-.655-.211-.983-.315a3.482,3.482,0,0,1-.36-.111.191.191,0,0,1-.1-.146c.04-.309.1-1.7.147-2q.1-.614.21-1.227c.069-.4.141-.8.211-1.193.056-.318.113-.636.164-.956a.176.176,0,0,1,.212-.175c.207.011.415,0,.623.006C8481.458,2459.163,8481.51,2459.175,8481.6,2459.186Z" transform="translate(-105.083 -236.705)"/>
    </g>
  </g>
</svg>
