<svg xmlns="http://www.w3.org/2000/svg" xmlns:xlink="http://www.w3.org/1999/xlink" width="40" height="40" viewBox="0 0 40 40">
  <defs>
    <clipPath id="clip-icon_martial_arts_white">
      <rect width="40" height="40"/>
    </clipPath>
  </defs>
  <g id="icon_martial_arts_white" clip-path="url(#clip-icon_martial_arts_white)">
    <rect width="40" height="40" fill="rgba(139,139,139,0)"/>
    <g id="Group_15752" data-name="Group 15752" transform="translate(-8369.2 -2207.445)">
      <path id="Path_24130" data-name="Path 24130" d="M8574.224,2221.619a6.167,6.167,0,0,0-.134.605c-.124,1.149-.227,2.3-.363,3.448-.112.94-.256,1.877-.406,2.812-.012.073-.187.166-.287.168-.893.013-1.785,0-2.678.01s-1.787.033-2.681.036c-.5,0-.992-.037-1.488-.036-1.13,0-2.259.017-3.389.022a2.8,2.8,0,0,1-.347-.046c.213-.694.408-1.34.609-1.984.277-.886.563-1.771.84-2.657s.55-1.777.824-2.666q.561-1.812,1.123-3.623c.276-.886.563-1.768.838-2.655.367-1.186.725-2.376,1.089-3.562.212-.689.437-1.375.641-2.067.085-.288.234-.354.492-.263.621.219,1.249.416,1.864.653a.463.463,0,0,1,.17.37.464.464,0,0,0,.381.557,19.265,19.265,0,0,1,2.609.953,6.9,6.9,0,0,1,2.868,2.769c.429.737.72,1.562,1.1,2.33q1.288,2.565,2.609,5.111c.573,1.106,1.165,2.2,1.762,3.294.642,1.173,1.3,2.337,1.947,3.5.171.308.347.612.522.917.13.226.048.358-.149.483-1.08.684-2.153,1.378-3.23,2.067-.433.277-.88.53-1.3.83-.238.171-.326.2-.516-.177-.205-.407-.391-.824-.588-1.236-.412-.858-.833-1.712-1.237-2.574-.541-1.154-1.064-2.317-1.6-3.471-.562-1.206-1.134-2.407-1.7-3.61A3.627,3.627,0,0,0,8574.224,2221.619Z" transform="translate(-175.608 0)" fill="#D0BD8E"/>
      <path id="Path_24131" data-name="Path 24131" d="M8379.722,2223.616l-5.448,11.5c-.318-.194-.6-.36-.879-.538q-1.945-1.247-3.889-2.5c-.376-.241-.379-.267-.15-.686.716-1.311,1.426-2.625,2.141-3.937.84-1.541,1.7-3.071,2.518-4.623.737-1.393,1.444-2.8,2.147-4.216.337-.678.577-1.415.956-2.062a7.3,7.3,0,0,1,3.6-3.253c.668-.265,1.356-.472,2.042-.681.238-.073.341-.2.3-.448-.053-.33.093-.46.387-.542.564-.16,1.121-.357,1.672-.566.257-.1.4-.031.478.231q.464,1.5.931,2.995c.323,1.036.649,2.071.971,3.108.278.9.5,1.815.844,2.685a2.382,2.382,0,0,1-.08,1.558c-.225.914-.46,1.826-.7,2.737-.207.8-.425,1.6-.628,2.4-.186.729-.356,1.461-.535,2.192-.1.407-.193.817-.317,1.216a.343.343,0,0,1-.261.171c-.466.033-.933.057-1.4.055-1.15-.005-2.3-.033-3.452-.035a.327.327,0,0,1-.38-.329c-.07-.543-.152-1.084-.212-1.628-.163-1.485-.316-2.971-.479-4.455a2.4,2.4,0,0,0-.09-.345Z" transform="translate(0 -1.718)" fill="#D0BD8E"/>
      <path id="Path_24132" data-name="Path 24132" d="M8544.519,2461.053l1,1.608q1.4,2.268,2.806,4.537c.1.154.193.186.345.084q1.346-.9,2.7-1.8a5.537,5.537,0,0,1,.583-.378c.229-.113.193-.253.088-.425q-.693-1.124-1.388-2.247-.905-1.464-1.812-2.929c-.046-.075-.076-.162-.136-.29a3.343,3.343,0,0,1,.351-.04c2.057,0,4.113,0,6.171-.009.267,0,.357.117.4.381.182,1.119.386,2.234.574,3.351.173,1.025.335,4.018.507,5.043.059.351.119.7.205,1.046.05.2-.006.27-.178.306-.66.14-1.32.288-1.98.431q-1.323.286-2.648.569c-.622.133-1.245.263-1.867.4-.884.189-1.767.384-2.649.571-.846.18-1.691.354-2.536.531-.506.106-1.012.212-1.517.322-.256.056-.362-.048-.376-.325-.064-1.316-.142-4.6-.214-5.914-.038-.694-.079-1.389-.11-2.084a.681.681,0,0,1,.046-.364c.478-.737.969-1.464,1.459-2.192A1.648,1.648,0,0,1,8544.519,2461.053Z" transform="translate(-157.773 -225.813)" fill="#D0BD8E"/>
      <path id="Path_24133" data-name="Path 24133" d="M8496.021,2424.164a2.029,2.029,0,0,0,.108.3q1.2,1.953,2.412,3.9c.419.678.831,1.36,1.252,2.036.125.2.1.327-.1.457-.5.315-.994.653-1.488.984-.259.173-.346.146-.52-.135q-1.806-2.91-3.616-5.816c-.093-.149-.186-.3-.28-.447-.108-.172-.213-.157-.32.006q-.664,1.01-1.33,2.018c-.148.224-.3.446-.44.675a.25.25,0,0,1-.405.085c-.538-.357-1.073-.719-1.615-1.07a.221.221,0,0,1-.078-.359q.665-1.009,1.323-2.02c.112-.173.211-.355.354-.6-.205-.01-.312-.019-.417-.019-1.2,0-2.4,0-3.606,0-.4,0-.4,0-.4-.412,0-.591,0-1.181,0-1.772,0-.4,0-.4.384-.4h16.391c.288,0,.577.012.864,0,.241-.014.308.1.3.336-.01.632-.01,1.266.006,1.9.008.279-.089.359-.346.358-2.583-.008-5.166,0-7.748,0Z" transform="translate(-106.908 -191.862)" fill="#D0BD8E"/>
      <path id="Path_24134" data-name="Path 24134" d="M8483.036,2459.21l-.978,1.483c-.04.061-.086.116-.124.178-.23.368-.233.374.127.616.8.542,1.606,1.085,2.42,1.609a.407.407,0,0,1,.2.411c-.031.811-.065,1.622-.088,2.434-.025.885.009,3.681,0,4.566,0,.249-.058.357-.311.277-.588-.187-1.235-.3-1.824-.487s-1.192-.384-1.789-.573a6.35,6.35,0,0,1-.654-.2.349.349,0,0,1-.179-.265c.074-.562.174-3.086.269-3.645q.189-1.116.382-2.231c.126-.724.256-1.447.383-2.17.1-.579.206-1.157.3-1.737a.32.32,0,0,1,.386-.319c.377.019.755.006,1.133.011C8482.783,2459.169,8482.878,2459.19,8483.036,2459.21Z" transform="translate(-100.537 -225.801)" fill="#D0BD8E"/>
    </g>
  </g>
</svg>
