<svg xmlns="http://www.w3.org/2000/svg" xmlns:xlink="http://www.w3.org/1999/xlink" viewBox="0 0 22 22">
  <defs>
    <style>
      .cls-1 {
        clip-path: url(#clip-icon_motor_sports_black);
      }

      .cls-2 {
        fill: rgba(139,139,139,0);
      }
    </style>
    <clipPath id="clip-icon_motor_sports_black">
      <rect width="22" height="22"/>
    </clipPath>
  </defs>
  <g id="icon_motor_sports_black" class="cls-1">
    <rect class="cls-2" width="22" height="22"/>
    <g id="Group_15714" data-name="Group 15714" transform="translate(-1309 -574)">
      <path id="Path_38" data-name="Path 38" d="M26.329,16.9a9.124,9.124,0,1,0,9.129,9.124A9.124,9.124,0,0,0,26.329,16.9Zm-1.712,1.711a7.652,7.652,0,0,1,3.423,0,7.19,7.19,0,0,1,1.62.57c-.251,1.083-1.05,3.364-3.332,3.421-2.282-.068-3.081-2.338-3.332-3.421A7.393,7.393,0,0,1,24.617,18.611Zm3.343,7.527a.262.262,0,1,1-.262-.262A.258.258,0,0,1,27.96,26.138ZM25,25.191a.269.269,0,1,1,.377-.057A.26.26,0,0,1,25,25.191Zm.114,1.711a.269.269,0,1,1,.057-.376A.261.261,0,0,1,25.119,26.9Zm-6.322.182a7.967,7.967,0,0,1-.08-1.049,6.643,6.643,0,0,1,.034-.673,7.693,7.693,0,0,1,1.05-3.25,7.569,7.569,0,0,1,1.05-1.357c.959.57,2.876,2.03,2.225,4.22C22.312,27.119,19.9,27.176,18.8,27.085ZM25,33.517a8.009,8.009,0,0,1-1.643-.479,7.61,7.61,0,0,1-2.773-2.007,8.028,8.028,0,0,1-.981-1.414c.844-.73,2.818-2.11,4.713-.821C26.135,30.187,25.45,32.49,25,33.517Zm1.609-5.862a.263.263,0,1,1,.171-.331A.265.265,0,0,1,26.614,27.655Zm-.377-1.129a.559.559,0,1,1,.559-.559A.56.56,0,0,1,26.237,26.526Zm.867-1.8a.263.263,0,1,1-.171-.331A.265.265,0,0,1,27.1,24.724Zm4.975,6.3a7.533,7.533,0,0,1-2.761,2.007,8.035,8.035,0,0,1-1.643.49c-.434-1.026-1.13-3.33.673-4.733,1.883-1.289,3.868.08,4.713.81A7.713,7.713,0,0,1,32.08,31.019Zm-2.5-6.056c-.65-2.19,1.267-3.65,2.225-4.231a7.539,7.539,0,0,1,2.111,4.608q.034.342.034.684a7.8,7.8,0,0,1-.068,1.038C32.753,27.164,30.357,27.107,29.581,24.963Z" transform="translate(1293.763 559.027)"/>
      <path id="Path_39" data-name="Path 39" d="M11,22A11,11,0,1,1,22,10.994,11.02,11.02,0,0,1,11,22ZM11,1.426a9.58,9.58,0,1,0,9.585,9.58A9.6,9.6,0,0,0,11,1.426Z" transform="translate(1309 574)"/>
    </g>
  </g>
</svg>
