<svg xmlns="http://www.w3.org/2000/svg" xmlns:xlink="http://www.w3.org/1999/xlink" viewBox="0 0 40 40">
  <defs>
    <style>
      .cls-1 {
        clip-path: url(#clip-icon_motor_sports);
      }

      .cls-2 {
        fill: #E5BF83;
      }

      .cls-3 {
        fill: rgba(139,139,139,0);
      }
    </style>
    <clipPath id="clip-icon_motor_sports">
      <rect width="40" height="40"/>
    </clipPath>
  </defs>
  <g id="icon_motor_sports" class="cls-1">
    <rect class="cls-3" width="40" height="40"/>
    <g id="Group_15715" data-name="Group 15715" transform="translate(-1444 -574)">
      <path id="Path_60" data-name="Path 60" class="cls-2" d="M33.8,16.9A16.589,16.589,0,1,0,50.4,33.489,16.589,16.589,0,0,0,33.8,16.9Zm-3.112,3.11a13.913,13.913,0,0,1,6.224,0,13.073,13.073,0,0,1,2.946,1.037c-.456,1.97-1.909,6.117-6.058,6.221-4.149-.124-5.6-4.251-6.058-6.221A13.442,13.442,0,0,1,30.685,20.01ZM36.764,33.7a.477.477,0,1,1-.477-.477A.469.469,0,0,1,36.764,33.7Zm-5.373-1.721a.489.489,0,1,1,.685-.1A.473.473,0,0,1,31.391,31.975Zm.207,3.11a.489.489,0,1,1,.1-.684A.475.475,0,0,1,31.6,35.086ZM20.1,35.417a14.485,14.485,0,0,1-.145-1.908,12.079,12.079,0,0,1,.062-1.223,13.988,13.988,0,0,1,1.909-5.91,13.761,13.761,0,0,1,1.909-2.468c1.743,1.037,5.228,3.691,4.046,7.672C26.495,35.48,22.117,35.583,20.1,35.417Zm11.286,11.7a14.562,14.562,0,0,1-2.988-.871,13.836,13.836,0,0,1-5.041-3.65,14.6,14.6,0,0,1-1.784-2.571c1.535-1.327,5.124-3.836,8.568-1.493C33.445,41.058,32.2,45.246,31.391,47.113Zm2.925-10.658a.479.479,0,1,1,.311-.6A.482.482,0,0,1,34.316,36.454ZM33.632,34.4a1.016,1.016,0,1,1,1.017-1.016A1.018,1.018,0,0,1,33.632,34.4Zm1.577-3.276a.479.479,0,1,1-.311-.6A.482.482,0,0,1,35.208,31.125Zm9.046,11.446a13.7,13.7,0,0,1-5.021,3.65,14.61,14.61,0,0,1-2.988.892c-.788-1.866-2.054-6.055,1.224-8.605,3.423-2.343,7.033.145,8.568,1.472A14.024,14.024,0,0,1,44.254,42.571ZM39.71,31.56c-1.183-3.981,2.3-6.636,4.046-7.693a13.707,13.707,0,0,1,3.838,8.377q.062.622.062,1.244a14.177,14.177,0,0,1-.124,1.887C45.478,35.563,41.121,35.459,39.71,31.56Z" transform="translate(1430.369 560.604)"/>
      <path id="Path_61" data-name="Path 61" class="cls-2" d="M20,40A20,20,0,1,1,40,19.99,20.037,20.037,0,0,1,20,40ZM20,2.592A17.418,17.418,0,1,0,37.427,20.01,17.447,17.447,0,0,0,20,2.592Z" transform="translate(1444 574)"/>
    </g>
  </g>
</svg>
