<svg xmlns="http://www.w3.org/2000/svg" xmlns:xlink="http://www.w3.org/1999/xlink" viewBox="0 0 40 40">
  <defs>
    <style>
      .cls-1 {
        clip-path: url(#clip-icon_football);
      }

      .cls-2 {
        fill: #073f79;
        fill-rule: evenodd;
      }

      .cls-3 {
        fill: rgba(139,139,139,0);
      }
    </style>
    <clipPath id="clip-icon_football">
      <rect width="40" height="40"/>
    </clipPath>
  </defs>
  <g id="icon_football" class="cls-1">
    <rect class="cls-3" width="40" height="40"/>
    <path id="football_icon" data-name="football icon" class="cls-2" d="M33.848,6.535l3.611-3.611C35.808,1.274,32.4.6,28.314,1ZM7.881,32.5l3.893-3.893-1.531-1.523a1.19,1.19,0,0,1,1.681-1.681l1.529,1.528,1.964-1.964-1.526-1.534a1.19,1.19,0,0,1,.842-2.03,1.177,1.177,0,0,1,.84.348l1.528,1.53,1.965-1.964-1.529-1.531a1.191,1.191,0,0,1,0-1.681c.011-.012.025-.019.037-.03s.019-.026.03-.037a1.191,1.191,0,0,1,1.681,0l1.53,1.527L22.783,17.6l-1.528-1.528a1.189,1.189,0,0,1,1.681-1.681l1.528,1.526,1.964-1.964L24.9,12.426a1.19,1.19,0,0,1,1.681-1.681l1.529,1.529,4.061-4.061L25.409,1.447A32.26,32.26,0,0,0,9.443,9.941h0A32.239,32.239,0,0,0,1.01,25.63ZM.538,28.508c-.465,4.218.2,7.758,1.887,9.45l3.781-3.78ZM34.748,7.435l3.611-3.611c1.651,1.651,2.323,5.06,1.923,9.145ZM8.781,33.4l3.893-3.893L14.2,31.04a1.19,1.19,0,0,0,1.681-1.681l-1.528-1.528,1.964-1.964,1.528,1.528a1.19,1.19,0,0,0,2.03-.842,1.178,1.178,0,0,0-.348-.84l-1.524-1.531,1.962-1.961L21.5,23.749a1.191,1.191,0,0,0,1.681,0c.011-.012.019-.025.03-.037s.026-.019.037-.03a1.191,1.191,0,0,0,0-1.681l-1.523-1.534L23.686,18.5l1.528,1.528A1.189,1.189,0,0,0,26.9,18.349l-1.528-1.528,1.964-1.964,1.526,1.524A1.19,1.19,0,0,0,30.538,14.7l-1.527-1.53L33.072,9.11l6.764,6.764A32.261,32.261,0,0,1,31.343,31.84h0a32.24,32.24,0,0,1-15.689,8.429Zm3.994,7.343c-4.218.464-7.758-.2-9.45-1.888l3.78-3.779Z" transform="translate(-0.393 -0.889)"/>
  </g>
</svg>
