<svg xmlns="http://www.w3.org/2000/svg" viewBox="0 0 85.36 77.88"><defs><style>.cls-1{fill:#D0BD8E;}</style></defs><g id="Layer_2" data-name="Layer 2"><g id="Layer_1-2" data-name="Layer 1"><g id="Layer_2-2" data-name="Layer 2"><g id="Layer_1-2-2" data-name="Layer 1-2"><path class="cls-1" d="M49.78,10.26a5.91,5.91,0,0,0-8-2.18l-.33.17L14.78,31.88A6.29,6.29,0,0,0,12.64,34a6.11,6.11,0,0,0-2.55.66l-6.87,3.6A6,6,0,0,0,.67,46.32L9.29,62.89a6,6,0,0,0,8.06,2.54l5.5-2.86,6.53,13.09A4,4,0,0,0,37,73.88a4.13,4.13,0,0,0-.42-1.79L30.16,59.3,63.63,48.6l.48-.19a6.3,6.3,0,0,0,3-3.25,5.55,5.55,0,0,0-.25-4.66ZM14.65,60,6.15,43.62l5.75-3,8.22,16.49Zm12.8-6.1L19,37a5.65,5.65,0,0,0-.36-.58l26-23L61.37,43ZM63.14,19l12-6A3,3,0,0,1,78,18.29l-.16.08-12,6A3,3,0,0,1,63.14,19Zm-4.86-3.3a3,3,0,0,1-.4-4.22L66.45,1.09a3,3,0,0,1,4.63,3.82L62.5,15.29A3,3,0,0,1,58.28,15.7ZM85.36,30a3,3,0,0,1-3,3H68.9a3,3,0,0,1,0-6H82.36A3,3,0,0,1,85.36,30Z"/></g></g></g></g></svg>