<svg xmlns="http://www.w3.org/2000/svg" xmlns:xlink="http://www.w3.org/1999/xlink" width="22" height="22" viewBox="0 0 22 22">
  <defs>
    <clipPath id="clip-icon_rugby_black">
      <rect width="22" height="22"/>
    </clipPath>
  </defs>
  <g id="icon_rugby_black" clip-path="url(#clip-icon_rugby_black)">
    <rect width="22" height="22" fill="rgba(139,139,139,0)"/>
    <g id="Group_15754" data-name="Group 15754" transform="translate(-8606.266 -3063.305)">
      <path id="Path_24135" data-name="Path 24135" d="M8635.309,3079.849c.36-.37.36-.37-.2-1.115.118-.132.3-.251.347-.409a1.924,1.924,0,0,0-.044-.623,2.452,2.452,0,0,0-.462.1,3.566,3.566,0,0,0-.475.288l-.37-.5a3.5,3.5,0,0,1,.285-.237c.238-.158.332-.35.132-.592-.164-.2-.341-.328-.6-.094a.382.382,0,0,1-.619-.026c-.2-.259-.069-.409.144-.585.351-.291.084-.515-.12-.764-.114.063-.212.11-.3.169-.368.235-.7.126-.809-.286a.3.3,0,0,1,.117-.259.466.466,0,0,0,.136-.791c-.266-.326-.433.038-.639.115a1.2,1.2,0,0,0-.217.153l-.572-.694a2.188,2.188,0,0,1,.268-.249c.185-.123.431-.195.233-.5-.175-.271-.4-.469-.7-.25-.426.31-.583.06-.8-.4a3.281,3.281,0,0,0,.359-.23c.19-.154.3-.326.089-.561-.174-.191-.352-.282-.574-.1-.407.341-.621.114-.793-.256.094-.326.92-.317.4-.923-.4-.465-.674.022-1.035.095l-.263-.3a2.1,2.1,0,0,1,.347-.3c.274-.15.318-.33.144-.582-.2-.282-.4-.262-.7-.111a3.843,3.843,0,0,1-.9.263c-.046.011-.133-.077-.175-.137q-1.756-2.511-3.507-5.028a3.285,3.285,0,0,1-.166-.339,8.267,8.267,0,0,1,1.272-.406,8.892,8.892,0,0,1,4.435.678,20.6,20.6,0,0,1,5.424,3.069,16.87,16.87,0,0,1,4.307,4.876,17.511,17.511,0,0,1,2.1,5.537,12.833,12.833,0,0,1,.155,4.562,10.181,10.181,0,0,1-.764,2.183c-.146.35-.394.389-.694.064-1.336-1.439-2.692-2.859-4.04-4.287A2.569,2.569,0,0,1,8635.309,3079.849Z" transform="translate(-14.757)"/>
      <path id="Path_24136" data-name="Path 24136" d="M8624.684,3096.791a11.126,11.126,0,0,1-1.2.271,9.729,9.729,0,0,1-4.085-.565,18.591,18.591,0,0,1-4.282-2.019,15,15,0,0,1-5.218-5.442,21.206,21.206,0,0,1-2.48-7.453,9.63,9.63,0,0,1,.275-4.678c.1-.264.238-.511.376-.8.133.089.248.129.3.209.91,1.369,1.812,2.742,2.716,4.115a.416.416,0,0,0,.057.076,2.107,2.107,0,0,1,.63,1.9c-.038.4.237.587.79.541a2.647,2.647,0,0,0-.082.712,3.1,3.1,0,0,0,.309.717l.488-.382c.2.143.452.243.161.559-.306.331-.043.586.161.827.268.316.392-.045.573-.136a1.438,1.438,0,0,1,.206-.045c0,.206-.014.392,0,.575a1.886,1.886,0,0,0,.126.792c.238.375.447.018.688-.139l.451.557c-.376.528-.442.946-.106,1.128.187.1.52-.073.853-.135.163.148.425.346-.019.661-.074.053.026.41.113.6.027.058.274.036.415.012a1.31,1.31,0,0,0,.326-.171c.133.227.507.315.095.7-.252.237,0,.614.292.86l.157-.088c.212-.121.428-.336.646-.021.206.3.032.443-.218.6a.4.4,0,0,0-.05.384c.15.145.433.362.541.308.763-.383,1.243.023,1.724.518q1.976,2.037,3.96,4.065A4.916,4.916,0,0,1,8624.684,3096.791Z" transform="translate(0 -11.799)"/>
    </g>
  </g>
</svg>
