<svg xmlns="http://www.w3.org/2000/svg" xmlns:xlink="http://www.w3.org/1999/xlink" width="40" height="40" viewBox="0 0 40 40">
  <defs>
    <clipPath id="clip-icon_rugby">
      <rect width="40" height="40"/>
    </clipPath>
  </defs>
  <g id="icon_rugby" clip-path="url(#clip-icon_rugby)">
    <rect width="40" height="40" fill="rgba(139,139,139,0)"/>
    <g id="Group_15755" data-name="Group 15755" transform="translate(-8604.266 -3063.305)">
      <path id="Path_24135" data-name="Path 24135" d="M8645.16,3093.385c.656-.672.656-.672-.359-2.027.215-.24.553-.458.629-.745a3.471,3.471,0,0,0-.078-1.132,4.436,4.436,0,0,0-.84.177,6.388,6.388,0,0,0-.863.524c-.23-.314-.445-.6-.674-.914a6.212,6.212,0,0,1,.52-.431c.432-.287.6-.637.238-1.077-.3-.358-.619-.6-1.09-.17a.694.694,0,0,1-1.125-.046c-.369-.47-.127-.743.26-1.063.639-.53.154-.936-.217-1.389-.209.114-.387.2-.551.307-.67.428-1.277.23-1.471-.519a.557.557,0,0,1,.213-.471.848.848,0,0,0,.248-1.437c-.484-.592-.787.068-1.162.209a2.177,2.177,0,0,0-.395.278c-.352-.425-.676-.822-1.041-1.262a3.967,3.967,0,0,1,.488-.453c.334-.223.781-.354.424-.911-.318-.493-.729-.852-1.271-.455-.773.564-1.061.109-1.455-.731a5.906,5.906,0,0,0,.654-.417c.346-.279.549-.593.162-1.019-.316-.348-.641-.513-1.045-.174-.74.62-1.129.207-1.441-.465.17-.593,1.672-.576.723-1.678-.729-.845-1.225.041-1.883.172l-.477-.552a3.776,3.776,0,0,1,.629-.554c.5-.272.58-.6.262-1.058-.357-.514-.734-.476-1.264-.2a7.006,7.006,0,0,1-1.645.478c-.084.02-.242-.14-.318-.249q-3.193-4.565-6.375-9.142a5.678,5.678,0,0,1-.3-.616,15,15,0,0,1,2.314-.739,16.165,16.165,0,0,1,8.063,1.233,37.463,37.463,0,0,1,9.861,5.579,30.654,30.654,0,0,1,7.83,8.865,31.839,31.839,0,0,1,3.826,10.068,23.343,23.343,0,0,1,.283,8.3,18.616,18.616,0,0,1-1.389,3.97c-.266.635-.717.707-1.264.117-2.428-2.617-4.895-5.2-7.344-7.795A4.523,4.523,0,0,1,8645.16,3093.385Z" transform="translate(-13.739)" fill="#073f79"/>
      <path id="Path_24136" data-name="Path 24136" d="M8638.936,3113.719a20.165,20.165,0,0,1-2.174.493,17.691,17.691,0,0,1-7.428-1.027,33.8,33.8,0,0,1-7.785-3.671,27.279,27.279,0,0,1-9.486-9.895,38.558,38.558,0,0,1-4.51-13.551,17.513,17.513,0,0,1,.5-8.506c.174-.48.434-.93.684-1.462.242.162.451.234.547.38,1.654,2.488,3.293,4.986,4.938,7.481a.807.807,0,0,0,.1.139,3.83,3.83,0,0,1,1.145,3.448c-.068.735.432,1.067,1.438.983a4.87,4.87,0,0,0-.15,1.294,5.621,5.621,0,0,0,.563,1.3c.359-.281.6-.47.887-.694.365.26.822.441.293,1.016-.555.6-.078,1.066.293,1.5.486.574.713-.082,1.043-.247a2.67,2.67,0,0,1,.375-.082c0,.375-.025.712,0,1.045a3.43,3.43,0,0,0,.23,1.439c.432.683.813.033,1.252-.253.271.335.551.682.82,1.013-.684.96-.8,1.72-.2,2.051.34.182.945-.133,1.551-.247.3.27.773.629-.033,1.2-.135.1.047.746.205,1.084.051.105.5.066.756.022a2.367,2.367,0,0,0,.592-.312c.242.414.922.574.172,1.277-.457.43,0,1.116.531,1.564l.287-.16c.385-.22.777-.61,1.174-.037.375.539.059.805-.395,1.087a.731.731,0,0,0-.092.7c.273.264.787.658.984.56,1.387-.7,2.26.042,3.135.942,2.395,2.469,4.8,4.926,7.2,7.392A8.932,8.932,0,0,1,8638.936,3113.719Z" transform="translate(-0.001 -10.986)" fill="#073f79"/>
    </g>
  </g>
</svg>
