<svg xmlns="http://www.w3.org/2000/svg" xmlns:xlink="http://www.w3.org/1999/xlink" viewBox="0 0 22 22">
  <defs>
    <style>
      .cls-1 {
        clip-path: url(#clip-icon_soccer_black);
      }

      .cls-2 {
        fill-rule: evenodd;
      }

      .cls-3 {
        fill: rgba(139,139,139,0);
      }
    </style>
    <clipPath id="clip-icon_soccer_black">
      <rect width="22" height="22"/>
    </clipPath>
  </defs>
  <g id="icon_soccer_black" class="cls-1">
    <rect class="cls-3" width="22" height="22"/>
    <path id="soccer_icon" data-name="soccer icon" class="cls-2" d="M10.641,19.141c-1.99-.7-4.008-1.228-4.541-1.364l-.969-4.2,3.293-2.842L12.7,12.42a34.99,34.99,0,0,0,.979,3.88ZM10.8,2.97A15.631,15.631,0,0,1,15.31,4.6l.007,0,.85,3.892c-1.54,1.7-2.834,2.878-3.191,3.2L8.691,10.007c-.078-.238-.9-2.743-1.26-4.156Zm8.678,14.568-.429-1.208a8,8,0,0,0,1.508-5.16,12.97,12.97,0,0,0,1.139-.917c.017.245.029.491.029.74A10.636,10.636,0,0,1,19.481,17.538Zm2.109-8.253A12.236,12.236,0,0,1,20.157,10.5a19.312,19.312,0,0,0-3.23-2.166c-.257-1.183-.661-3.036-.845-3.88l1.895-1.587a10.692,10.692,0,0,1,3.613,6.415ZM9.777.368a10.491,10.491,0,0,0,.486,2.039L6.912,5.27a4.913,4.913,0,0,0-1.274-.15,6.787,6.787,0,0,0-2.556.52c-.281-.279-.585-.579-.81-.8A10.712,10.712,0,0,1,9.777.368ZM1.837,5.5c.2.193.429.423.65.644a8.926,8.926,0,0,0-1.4,4.654l-.767.3c0-.036,0-.071,0-.108A10.625,10.625,0,0,1,1.837,5.5ZM.358,11.92l1-.391A8.382,8.382,0,0,0,4.37,13.747l.971,4.2c-.313.25-.954.716-1.415,1.044A10.676,10.676,0,0,1,.358,11.92Zm11.6,9.728a14.855,14.855,0,0,0-.755-1.962l2.908-2.72h.213a27.3,27.3,0,0,0,4.028-.3l.55,1.557a10.687,10.687,0,0,1-6.944,3.42Zm-.932.361a11,11,0,1,1,11.008-11A11,11,0,0,1,11.021,22.008Zm0-21.473A10.473,10.473,0,1,0,21.5,11.008,10.473,10.473,0,0,0,11.021.535Z" transform="translate(-0.029 -0.008)"/>
  </g>
</svg>
