<svg xmlns="http://www.w3.org/2000/svg" xmlns:xlink="http://www.w3.org/1999/xlink" viewBox="0 0 40 40">
  <defs>
    <style>
      .cls-1 {
        clip-path: url(#clip-icon_soccer);
      }

      .cls-2 {
        fill: #e5e5e5;
        fill-rule: evenodd;
      }

      .cls-3 {
        fill: rgba(139,139,139,0);
      }
    </style>
    <clipPath id="clip-icon_soccer">
      <rect width="40" height="40"/>
    </clipPath>
  </defs>
  <g id="icon_soccer" class="cls-1">
    <rect class="cls-3" width="40" height="40"/>
    <path id="soccer_icon" data-name="soccer icon" class="cls-2" d="M19.323,34.8c-3.618-1.273-7.288-2.233-8.256-2.481L9.306,24.687l5.986-5.168,7.775,3.056a63.618,63.618,0,0,0,1.78,7.054Zm.295-29.4a28.421,28.421,0,0,1,8.194,2.961l.013.007,1.546,7.076c-2.8,3.084-5.153,5.233-5.8,5.813l-7.792-3.062c-.142-.432-1.637-4.987-2.291-7.556ZM35.4,31.88l-.779-2.2A14.55,14.55,0,0,0,37.358,20.3a23.582,23.582,0,0,0,2.071-1.667c.031.445.052.892.052,1.345A19.339,19.339,0,0,1,35.4,31.88Zm3.834-15a22.248,22.248,0,0,1-2.6,2.212,35.112,35.112,0,0,0-5.873-3.939c-.467-2.151-1.2-5.52-1.537-7.054L32.66,5.209A19.44,19.44,0,0,1,39.23,16.872ZM17.752.663a19.074,19.074,0,0,0,.884,3.708l-6.093,5.2A8.933,8.933,0,0,0,10.227,9.3a12.34,12.34,0,0,0-4.647.946c-.51-.507-1.063-1.053-1.473-1.455A19.476,19.476,0,0,1,17.752.663ZM3.316,9.995c.355.35.779.769,1.182,1.171a16.229,16.229,0,0,0-2.55,8.463l-1.395.546c-.005-.065-.005-.129-.005-.2A19.319,19.319,0,0,1,3.316,9.995ZM.626,21.666l1.813-.71c.758.838,3.092,3.243,5.482,4.032l1.765,7.639c-.568.455-1.735,1.3-2.574,1.9A19.411,19.411,0,0,1,.626,21.666ZM21.71,39.352a27.009,27.009,0,0,0-1.372-3.568l5.287-4.945h.386a49.637,49.637,0,0,0,7.324-.537l1,2.832A19.432,19.432,0,0,1,21.71,39.352Zm-1.7.656A20,20,0,1,1,40.029,20,20,20,0,0,1,20.014,40.008Zm0-39.042A19.042,19.042,0,1,0,39.07,20.007,19.042,19.042,0,0,0,20.014.966Z" transform="translate(-0.029 -0.008)"/>
  </g>
</svg>
