<svg xmlns="http://www.w3.org/2000/svg" viewBox="0 0 148.51 148.55"><defs><style>.cls-1{fill:#1ecad4;}</style></defs><g id="Layer_2" data-name="Layer 2"><g id="Layer_1-2" data-name="Layer 1"><path class="cls-1" d="M93.85,5.83C124,4.46,162,39.49,143.72,82.84c-10.43,24.67-29,39.19-56.38,40.21-6.29.24-12.82-1.3-19-3-9.52-2.63-13.7-1.88-20.07,5.72-4.8,5.71-9.28,11.69-14.08,17.39-5.42,6.44-11.61,7.12-18.25,2a37,37,0,0,1-6.61-6.69c-5.19-6.79-4.35-13.2,2.27-18.7C17.38,115,23,110,29.08,105.74c7.17-5,7.83-11.86,5.53-18.94C21.51,46.43,49.72,13.32,84.94,6.49A75.34,75.34,0,0,1,93.85,5.83Zm49.44,54.74c-.08-26.45-23.2-49.53-49.6-49.5-28.58,0-54.65,24-56.87,52.61a8,8,0,0,0,2.28,5.5q22.84,23.17,46,46a8.8,8.8,0,0,0,6,2.24C119.3,115.36,143.37,89,143.29,60.57ZM38.1,76.51c-.31.18.72,5.82,1.36,8.51,2.22,9.36,2.23,18-6.78,24.43-5.92,4.23-11.38,9.1-17,13.71s-5.9,8.23-.92,13.69a27.11,27.11,0,0,0,4.81,4.28c4.87,3.24,7.28,2.84,11.05-1.75,4.63-5.64,9.45-11.14,13.65-17.08,6.8-9.63,15.81-10.24,26-7.33,2.47.7,5,1.31,7,1.86Z"/><path class="cls-1" d="M17.52,35A17.41,17.41,0,0,1,0,17.21,17.27,17.27,0,0,1,17.52,0,17.26,17.26,0,0,1,35,17.2,17.36,17.36,0,0,1,17.52,35Zm12.29-17.8a12.31,12.31,0,1,0-24.61.57A12.5,12.5,0,0,0,17.8,29.81,12.43,12.43,0,0,0,29.81,17.15Z"/></g></g></svg>