<?xml version="1.0" encoding="utf-8"?>
<!-- Generator: Adobe Illustrator 25.2.3, SVG Export Plug-In . SVG Version: 6.00 Build 0)  -->
<svg version="1.1" id="Layer_1" xmlns="http://www.w3.org/2000/svg" xmlns:xlink="http://www.w3.org/1999/xlink" x="0px" y="0px"
	 viewBox="0 0 40 40" style="enable-background:new 0 0 40 40;" xml:space="preserve">
<style type="text/css">
	.st0{fill:#6a818b;}
</style>
<g>
	<path class="st0" d="M3.9,39.4l13.5-11l-4.7-4.7L1.6,37c-0.6,0.7-0.5,1.6,0.1,2.3C2.3,39.9,3.3,40,3.9,39.4z"/>
	<path class="st0" d="M18.5,28.6c0.8,0.8,2.1,1.1,3.2,0.6l5.2-2.5L16.4,16.1c-0.1,0-0.1-0.1-0.2-0.2l-1.8-1.8L11.8,19
		c-0.6,1.1-0.4,2.5,0.5,3.4L18.5,28.6z"/>
	<path class="st0" d="M22.8,21.4c3.4-0.2,6-1.3,7.7-3.3c2.1-2.4,2.4-5.5,2.4-6.9c-0.9,0.8-2.6,2.1-4.8,2.1c-3.7,0-4.7,1.2-4.7,1.2
		c-0.1,0.1-0.2,0.1-0.3,0.1c-0.1,0-0.2-0.1-0.2-0.3c-0.2-1.1-0.1-1.9,0-2.5c-1.4,1-2.3,2.3-2.8,4c-0.4,1.4-0.3,2.5-0.3,2.7
		L22.8,21.4C22.7,21.4,22.8,21.4,22.8,21.4z"/>
	<path class="st0" d="M19.5,15.7c0.4-1.5,1.4-3.5,3.9-4.9c0.1-0.1,0.3-0.1,0.4,0.1c0.1,0.1,0.1,0.3,0,0.4c0,0-0.5,0.8-0.3,2.4
		c0.7-0.4,2.1-1,4.7-1c2.8,0,4.8-2.4,4.9-2.5c0.1-0.1,0.2-0.1,0.4-0.1c0.1,0,0.2,0.2,0.2,0.3c0,0.2,0.4,4.8-2.6,8.2
		c-1.8,2-4.4,3.2-7.7,3.5l2.4,2.4c0,0,0,0,0.1,0c4.5,0.8,7.6-1.9,7.7-1.9c0,0,0,0,0,0c3.3-2.6,4.3-5.6,4.6-7.6c0-0.1,0-0.1,0-0.2
		c0,0,0,0,0-0.1c0,0,0-0.1,0-0.1c0,0,0-0.1,0-0.1c0,0,0-0.1,0-0.1c0,0,0-0.1,0-0.1c0,0,0-0.1,0-0.1c0,0,0-0.1,0-0.1c0,0,0-0.1,0-0.1
		c0,0,0-0.1,0-0.1c0,0,0-0.1,0-0.1c0,0,0-0.1,0-0.1c0,0,0-0.1,0-0.1c0,0,0-0.1,0-0.1c0,0,0-0.1,0-0.1c0,0,0-0.1,0-0.1
		c0,0,0-0.1,0-0.1c0,0,0-0.1,0-0.1c0,0,0-0.1,0-0.1c0,0,0-0.1,0-0.1c0,0,0-0.1,0-0.1c0,0,0,0,0-0.1c0,0,0-0.1,0-0.1c0,0,0,0,0-0.1
		c0,0,0-0.1,0-0.1c0,0,0,0,0-0.1c0,0,0-0.1,0-0.1c0,0,0,0,0-0.1c0,0,0-0.1,0-0.1c0,0,0,0,0,0c0,0,0-0.1,0-0.1c0,0,0,0,0,0
		c-0.8,1.2-1.9,1.9-2,1.9c-0.1,0.1-0.3,0-0.4-0.1c-0.1-0.1-0.1-0.3,0-0.4c0,0,1.1-1.9,0.5-6.5c-0.3-2.6,0.7-4.1,1.5-4.9
		c0.4-0.4,0.8-0.6,1.2-0.8c-2-0.6-3.8-0.2-5.5,1c-1.4,1.1-2.2,2.4-2.2,2.4c-0.1,0.1-0.2,0.2-0.3,0.2c-0.1,0-0.2-0.1-0.3-0.2
		c-0.7-1.9,0.5-3.6,1.3-4.5c-0.4,0.1-0.9,0.2-1.4,0.5c-0.8,0.4-1.9,1.3-2.3,3c-0.5,1.9-1.6,2.8-2.4,3.3C24.8,7.4,24,7.5,24,7.5
		c-0.1,0-0.2,0-0.3-0.1c-0.1-0.1-0.1-0.2,0-0.3c0.4-0.7,0.8-1.3,1.2-1.6c-0.6,0-1.4,0.1-2.1,0.4c-0.5,0.2-1,0.4-1.6,0.8
		c-1.8,1.1-3.1,2.7-3.8,4.6c-0.5,1.4-0.7,3-0.4,4.5l2.3,2.3C19.2,17.3,19.2,16.6,19.5,15.7z"/>
</g>
</svg>
