<?xml version="1.0" encoding="UTF-8"?>
<svg width="20px" height="20px" viewBox="0 0 17 17" version="1.1" xmlns="http://www.w3.org/2000/svg" xmlns:xlink="http://www.w3.org/1999/xlink">
    <defs>
        <path d="M12.688,14.719 C11.637,14.142 10.876,13.398 10.337,12.622 C11.853,11.975 14.736,10.324 15.814,6.864 C15.932,7.391 16,7.938 16,8.5 C16,11.086 14.684,13.369 12.688,14.719 M9.133,15.968 C4.735,13.625 4.766,9.067 4.871,7.782 C6.358,7.931 7.508,8.499 7.984,8.771 C8.025,9.522 8.395,13.156 11.673,15.285 C10.89,15.654 10.036,15.892 9.133,15.968 M1,8.52 C2.002,8.005 2.979,7.79 3.877,7.755 C3.792,9.106 3.855,13.182 7.203,15.88 C3.691,15.264 1.01,12.203 1,8.52 M1.964,4.833 C6.203,2.604 9.899,4.981 11.013,5.835 C10.09,7.012 8.995,7.68 8.524,7.929 C7.634,7.413 4.544,5.903 1.094,7.369 C1.233,6.46 1.529,5.604 1.964,4.833 M8.5,1 C9.957,1 11.313,1.425 12.465,2.146 C12.368,3.277 12.025,4.222 11.572,5.004 C10.409,4.13 7.094,2.075 3.114,3.292 C4.479,1.882 6.387,1 8.5,1 M15.17,5.088 C14.673,9.301 11.334,11.133 9.824,11.752 C9.176,10.471 9.023,9.275 8.989,8.814 C9.917,8.321 12.805,6.507 13.392,2.828 C14.121,3.458 14.726,4.224 15.17,5.088 M8.5,0 C3.805,0 0,3.806 0,8.5 C0,13.195 3.805,17 8.5,17 C10.136,17 11.659,16.53 12.956,15.729 C12.958,15.728 12.959,15.727 12.961,15.725 C15.381,14.227 17,11.556 17,8.5 C17,3.806 13.194,0 8.5,0" id="path-1"></path>
    </defs>
    <g id="Iconography/Sports/Volleyball" stroke="none" stroke-width="1" fill="none" fill-rule="evenodd">
        <g>
            <rect id="Bounds" x="0" y="0" width="20" height="20"></rect>
            <mask id="mask-2" fill="white">
                <use xlink:href="#path-1"></use>
            </mask>
            <use id="Fill-1" fill="#6a818b" xlink:href="#path-1"></use>
            <g id="Colors/Grey/Grey-darken-4-(copy)" mask="url(#mask-2)" fill="#6a818b">
                <polygon id="Colors/Fills/Grey-darken-4" points="0 0 17 0 17 17 0 17"></polygon>
            </g>
        </g>
    </g>
</svg>