<svg xmlns="http://www.w3.org/2000/svg" viewBox="0 0 36.25 39.32"><defs><style>.cls-1{fill:#fff;}</style></defs><g id="Layer_2" data-name="Layer 2"><g id="Layer_1-2" data-name="Layer 1"><path class="cls-1" d="M18.94,0H1A1,1,0,0,0,0,1V22.77a1,1,0,0,0,1,1H18.94a1,1,0,0,0,1-1V1A1,1,0,0,0,18.94,0Zm-1,21.77H2V2H17.94ZM8.57,6.4h-4v-2h4Zm7,0h-4v-2h4Zm-7,4h-4v-2h4Zm7,0h-4v-2h4Zm-10.93,2h4v2h-4Zm7,0h4v2h-4Zm4,7.05h-11v-2h11Zm-.76-2-.08.08a18.28,18.28,0,0,1-1.12,21.83L36.25,21.56A18.29,18.29,0,0,1,14.78,17.41Z"/></g></g></svg>