<svg xmlns="http://www.w3.org/2000/svg" viewBox="0 0 23.04 18.45"><defs><style>.cls-1{fill:#003764;}</style></defs><g id="Layer_2" data-name="Layer 2"><g id="Layer_1-2" data-name="Layer 1"><path class="cls-1" d="M5.65,8.44A6.12,6.12,0,0,1,3.71,4,3.87,3.87,0,0,1,7.39,0h.28A3.88,3.88,0,0,1,11.91,3.5a4.25,4.25,0,0,1-.05,1.07A6.08,6.08,0,0,1,10,8.42a2.9,2.9,0,0,1-4.09.27A2,2,0,0,1,5.65,8.44ZM11.21,9a.87.87,0,0,0-.82.24,3.84,3.84,0,0,1-2.47,1A4,4,0,0,1,5.09,9.12.49.49,0,0,0,4.77,9a5.74,5.74,0,0,0-2.48.6C-.07,11-.61,18.45.68,18.45c3,0,12.83-.05,14.08-.05,1.08,0,.94-7.11-.95-8.6A5.19,5.19,0,0,0,11.21,9ZM22,5.54h-3.2V2.34a1,1,0,0,0-2,0v3.2H13.65a1,1,0,0,0,0,2h3.19v3.19a1,1,0,0,0,2,0V7.54H22a1,1,0,0,0,0-2Z"/></g></g></svg>