<svg xmlns="http://www.w3.org/2000/svg" viewBox="0 0 15 22"><defs><style>.cls-1{fill:#000;}</style></defs><g id="Layer_2" data-name="Layer 2"><g id="Layer_1-2" data-name="Layer 1"><path id="icon_responsible_gaming" data-name="icon responsible gaming" class="cls-1" d="M14.9,9.38h0l-3,8.34h0a6.13,6.13,0,0,1-.22.6,6,6,0,0,1-3.87,3.42,6.26,6.26,0,0,1-6.06-1.47A5.75,5.75,0,0,1,0,16.12V4.37A1.11,1.11,0,0,1,1.13,3.28h0a1.14,1.14,0,0,1,1.1,1.14V9.5a.27.27,0,0,0,.27.27h0a.28.28,0,0,0,.28-.27V2.19A1.11,1.11,0,0,1,4,1.09H4A1.14,1.14,0,0,1,5.07,2.23V9.5a.28.28,0,0,0,.28.27h0a.27.27,0,0,0,.27-.27V1.09A1.11,1.11,0,0,1,6.76,0h0A1.14,1.14,0,0,1,7.89,1.14V9.5a.28.28,0,0,0,.28.27h0a.28.28,0,0,0,.28-.27V2.28h0a.28.28,0,0,1,0-.09,1.13,1.13,0,0,1,2.26,0s0,.06,0,.09h0s0,10,0,10a.26.26,0,0,0,.24.27c.15,0,.24-.1.32-.27l.93-2.37c.34-.94.85-1.64,1.88-1.62.12,0,1.27,0,.82,1.08h0Z"/></g></g></svg>