<svg xmlns="http://www.w3.org/2000/svg" viewBox="0 0 444.5 131.95"><defs><style>.cls-1{fill:#304c60;}</style></defs><g id="Layer_2" data-name="Layer 2"><g id="Layer_1-2" data-name="Layer 1"><polygon class="cls-1" points="124.8 117.21 0 115.8 124.8 114.38 124.8 117.21"/><polygon class="cls-1" points="319.7 117.21 444.5 115.8 319.7 114.38 319.7 117.21"/><path class="cls-1" d="M1.94,64.71A29,29,0,0,1,5.15,52.09l1.79.74a19.16,19.16,0,0,0-.59,4.84A15.07,15.07,0,0,0,10,67.85q3.64,4.43,10.75,4.42A11.46,11.46,0,0,0,28,70.12a10.35,10.35,0,0,0,3.8-4.94A17.17,17.17,0,0,0,32.75,59a9.67,9.67,0,0,0-3.1-6.36,72.44,72.44,0,0,0-9.2-7.31q-6-4.22-9.7-7.41a30.48,30.48,0,0,1-6.4-7.84,20.37,20.37,0,0,1-2.7-10.52A18.9,18.9,0,0,1,11.8,2.66,22.82,22.82,0,0,1,22.85,0a54.09,54.09,0,0,1,6.2.16c2.33.17,5.84.51,10.5,1-.06.21-.2.66-.4,1.36a15.32,15.32,0,0,0-.45,2.26,24.13,24.13,0,0,0-.15,2.9c0,2,.14,4.59.4,7.67H37C37,7,33.15,3.5,26.08,3.5a13.76,13.76,0,0,0-7.25,1.84,11.63,11.63,0,0,0-4.57,4.58,10.3,10.3,0,0,0-1.21,5.36,9.63,9.63,0,0,0,1.65,5.36,20.09,20.09,0,0,0,4.15,4.58q2.5,2.05,7,5.2a115.62,115.62,0,0,1,9.55,7.47,31.28,31.28,0,0,1,6.3,7.89A21,21,0,0,1,44.36,56.4a17.27,17.27,0,0,1-3.06,9.89,20.9,20.9,0,0,1-8.3,7.1A26,26,0,0,1,21.35,76a28.84,28.84,0,0,1-9.1-1.47,20.7,20.7,0,0,1-7.41-4,7.57,7.57,0,0,1-2.9-5.73"/><path class="cls-1" d="M208.2,73.82v1.05h-25V73.82a8,8,0,0,0,4.65-1.15,4,4,0,0,0,1.65-3.47V40H159.58V69.3a4,4,0,0,0,1.6,3.47,7.79,7.79,0,0,0,4.6,1.16v1h-25v-1a8,8,0,0,0,4.66-1.16,4,4,0,0,0,1.65-3.47V7.14a4.1,4.1,0,0,0-1.65-3.53,7.81,7.81,0,0,0-4.66-1.21v-1h25v1a7.57,7.57,0,0,0-4.6,1.21,4.14,4.14,0,0,0-1.6,3.53v29h29.91V7a4.09,4.09,0,0,0-1.65-3.52,7.73,7.73,0,0,0-4.65-1.21v-1h25v1a7.48,7.48,0,0,0-4.6,1.21A4.13,4.13,0,0,0,202,7V69.2a4,4,0,0,0,1.6,3.47,7.77,7.77,0,0,0,4.6,1.15"/><path class="cls-1" d="M340.87,21.33A20.34,20.34,0,0,0,339,12.71a16.31,16.31,0,0,0-5-6.36A11.17,11.17,0,0,0,327.17,4h-1.3V38.07h1.44c2.47,0,4.61-.15,6.71-1.69a16,16,0,0,0,5-6.32,20.55,20.55,0,0,0,1.85-8.73M367,73.71v1.37a28.43,28.43,0,0,1-4.9.42,19.81,19.81,0,0,1-11.26-3,21.4,21.4,0,0,1-6.8-7.16,72,72,0,0,1-4.55-10q-2.7-7.16-6.5-10.57a10,10,0,0,0-7.1-2.81V69.3a4,4,0,0,0,1.6,3.47,7.77,7.77,0,0,0,4.6,1.15V75h-25V73.92a8,8,0,0,0,4.65-1.15,4,4,0,0,0,1.65-3.47V7.14a4.12,4.12,0,0,0-1.65-3.53,7.8,7.8,0,0,0-4.65-1.21v-1h30.11A13.48,13.48,0,0,1,345.27,4a18.71,18.71,0,0,1,5.9,7.31,23,23,0,0,1,2.2,10,23.42,23.42,0,0,1-1.8,9.21,19.26,19.26,0,0,1-4.95,7.05,14.64,14.64,0,0,1-7.05,3.52q9,3.78,12.9,14.51,3.4,9,6.76,13.57T367,73.71"/><path class="cls-1" d="M118.46,72.79a7.59,7.59,0,0,1-2.18-3.58L93.53.23H90.38l-22.75,69c-1.09,3.14-3.62,4.7-7.62,4.7V75H78.44V73.91a10.34,10.34,0,0,1-4.73-1,3,3,0,0,1-1.88-2.67A3.62,3.62,0,0,1,72,69.21L87.75,21.6l15.83,47.61a3.56,3.56,0,0,1,.2,1.07A2.94,2.94,0,0,1,101.91,73a10.13,10.13,0,0,1-4.63,1V75h25.39V73.91a6.56,6.56,0,0,1-4.21-1.12"/><path class="cls-1" d="M284.75,72.79a7.52,7.52,0,0,1-2.19-3.58L259.81.23h-3.15l-22.75,69q-1.62,4.71-7.61,4.7V75h18.42V73.91A10.3,10.3,0,0,1,240,73a3,3,0,0,1-1.88-2.67,3.91,3.91,0,0,1,.2-1.07L254,21.6l15.84,47.61a3.91,3.91,0,0,1,.2,1.07A3,3,0,0,1,268.19,73a10.06,10.06,0,0,1-4.62,1V75H289V73.91a6.54,6.54,0,0,1-4.21-1.12"/><path class="cls-1" d="M438.64,72.79a7.59,7.59,0,0,1-2.18-3.58L413.71.23h-3.15l-22.75,69q-1.62,4.71-7.62,4.7V75h18.43V73.91a10.34,10.34,0,0,1-4.73-1A3,3,0,0,1,392,70.28a3.62,3.62,0,0,1,.21-1.07L407.93,21.6l15.83,47.61a3.62,3.62,0,0,1,.21,1.07A3,3,0,0,1,422.09,73a10.12,10.12,0,0,1-4.62,1V75h25.39V73.91a6.59,6.59,0,0,1-4.22-1.12"/><path class="cls-1" d="M150,131.42V101.74h18.86c5.87,0,8.67,3.83,8.67,7.56a6.62,6.62,0,0,1-5.07,6.81,7.1,7.1,0,0,1,5.65,7.25c0,4.32-2.89,8.06-8.72,8.06Zm19.75-20.78a2.44,2.44,0,0,0-2.63-2.45H157.6v4.94h9.47A2.45,2.45,0,0,0,169.7,110.64Zm.58,11.65a2.68,2.68,0,0,0-2.94-2.67H157.6V125h9.74A2.63,2.63,0,0,0,170.28,122.29Z"/><path class="cls-1" d="M193.09,131.42V101.74h23.8v6.67H200.74V113h15.84v6.67H200.74v5h16.15v6.68Z"/><path class="cls-1" d="M240.85,131.42v-23H230.49v-6.67h28.34v6.67H248.51v23Z"/><path class="cls-1" d="M270.83,127.23l4.05-5.74a13.36,13.36,0,0,0,9.47,3.92c2.63,0,4.23-1,4.23-2.45,0-4-16.82-.8-16.82-12.23,0-5,4.23-9.44,11.84-9.44a18.09,18.09,0,0,1,12,4.14l-4.18,5.47a14,14,0,0,0-8.67-3.07c-2.23,0-3.21.89-3.21,2.14,0,3.78,16.78,1,16.78,12.06,0,6-4.41,9.92-12.37,9.92C278,132,273.81,130.08,270.83,127.23Z"/></g></g></svg>