<?xml version="1.0" encoding="UTF-8"?>
<svg width="117px" height="18px" viewBox="0 0 117 18" version="1.1" xmlns="http://www.w3.org/2000/svg" xmlns:xlink="http://www.w3.org/1999/xlink">
    <!-- Generator: Sketch 52.4 (67378) - http://www.bohemiancoding.com/sketch -->
    <title>Group 15</title>
    <desc>Created with Sketch.</desc>
    <g id="Page-1" stroke="none" stroke-width="1" fill="none" fill-rule="evenodd">
        <g id="Payment-Methods" transform="translate(-701.000000, -642.000000)">
            <g id="Group-15" transform="translate(701.000000, 642.000000)">
                <path d="M74.0405368,6.37853684 C74.0405368,7.54995789 73.0908,8.49969474 71.9193789,8.49969474 C70.7484316,8.49969474 69.7991684,7.54995789 69.7991684,6.37853684 C69.7991684,5.20711579 70.7484316,4.25785263 71.9193789,4.25785263 C73.0908,4.25785263 74.0405368,5.20711579 74.0405368,6.37853684" id="Fill-1" fill="#7887E6"></path>
                <path d="M74.0405368,13.0158947 C74.0405368,14.1873158 73.0908,15.1370526 71.9193789,15.1370526 C70.7484316,15.1370526 69.7991684,14.1873158 69.7991684,13.0158947 C69.7991684,11.8444737 70.7484316,10.8947368 71.9193789,10.8947368 C73.0908,10.8947368 74.0405368,11.8444737 74.0405368,13.0158947" id="Fill-3" fill="#FF5073"></path>
                <path d="M5.03109474,7.31297368 L3.34098947,7.31297368 L3.34098947,3.2805 L5.03109474,3.2805 C6.23377895,3.2805 6.90546316,4.11465789 6.90546316,5.31734211 C6.90546316,6.6015 6.15183158,7.31297368 5.03109474,7.31297368 Z M5.3982,0.835342105 L9.47368421e-05,0.835342105 L9.47368421e-05,14.8919211 L3.34098947,14.8919211 L3.34098947,9.75813158 L5.3982,9.75813158 C8.1072,9.75813158 10.1454632,8.06755263 10.1454632,5.19465789 C10.1454632,2.70971053 8.61641053,0.835342105 5.3982,0.835342105 Z M27.7134632,4.50213158 L25.4719895,10.7107105 L22.8984632,4.50213158 L19.5618316,4.50213158 L23.9562,14.4030789 L22.5853579,17.8069737 L25.6870421,17.8069737 L30.9520421,4.50213158 L27.7134632,4.50213158 Z M51.7903579,4.07439474 L51.7903579,4.50213158 L50.0585684,4.50213158 L50.0585684,6.72276316 L51.7903579,6.72276316 L51.7903579,14.8919211 L55.0294105,14.8919211 L55.0294105,6.72276316 L57.2704105,6.72276316 L57.2704105,4.50213158 L55.0294105,4.50213158 L55.0294105,3.95218421 C55.0294105,3.03560526 55.3960421,2.38334211 56.3945684,2.38334211 C56.7000947,2.38334211 57.0870947,2.44492105 57.3518842,2.52639474 L57.3518842,0.203921053 C56.9037789,0.0812368421 56.3945684,0.000236842105 55.8038842,0.000236842105 C53.1758842,0.000236842105 51.7903579,1.60934211 51.7903579,4.07439474 Z M45.8655158,12.6106579 C45.5599895,12.8347105 45.0910421,13.0180263 44.5818316,13.0180263 C43.7670947,13.0180263 43.2171474,12.5495526 43.2171474,11.7954474 C43.2171474,10.9399737 43.8912,10.1029737 45.8655158,10.4307632 L45.8655158,12.6106579 Z M45.2340947,4.25771053 C43.2171474,4.25771053 41.6284105,4.88960526 40.6502526,5.50065789 L41.5464632,7.35465789 C42.1371474,7.08986842 43.3800947,6.62139474 44.4392526,6.62139474 C45.1928842,6.62139474 45.8655158,6.88618421 45.8655158,7.68055263 L45.8655158,8.37307895 C41.3726211,8.05334211 40.0808842,10.0300263 40.0808842,11.8551316 C40.0808842,13.6395 41.5914632,15.1368158 43.5790421,15.1368158 C44.3634632,15.1368158 45.2142,14.8402895 45.8655158,14.4315 L45.8655158,14.8919211 L49.1249368,14.8919211 L49.1249368,7.66018421 C49.1249368,5.31734211 47.6375684,4.25771053 45.2340947,4.25771053 Z M16.2237789,12.6106579 C15.9182526,12.8347105 15.4497789,13.0180263 14.9405684,13.0180263 C14.1253579,13.0180263 13.5754105,12.5495526 13.5754105,11.7954474 C13.5754105,10.9399737 14.2494632,10.1029737 16.2237789,10.4307632 L16.2237789,12.6106579 Z M15.4706211,4.25771053 C13.4536737,4.25771053 11.8649368,4.88960526 10.8867789,5.50065789 L11.7834632,7.35465789 C12.3741474,7.08986842 13.6170947,6.62139474 14.6762526,6.62139474 C15.4298842,6.62139474 16.1020421,6.88618421 16.1020421,7.68055263 L16.1020421,8.37307895 C11.6096211,8.05334211 10.3178842,10.0300263 10.3178842,11.8551316 C10.3178842,13.6395 11.8279895,15.1368158 13.8160421,15.1368158 C14.5999895,15.1368158 15.4512,14.8402895 16.1020421,14.4315 L16.1020421,14.8919211 L19.3619368,14.8919211 L19.3619368,7.66018421 C19.3619368,5.31734211 17.8745684,4.25771053 15.4706211,4.25771053 Z M34.3052526,7.43613158 C34.3052526,6.94728947 34.7940947,6.64176316 35.6093053,6.64176316 C36.4647789,6.64176316 37.3609895,6.94728947 38.0132526,7.23244737 L38.9293579,5.09328947 C38.0743579,4.66555263 36.7703053,4.25771053 35.4463579,4.25771053 C33.0220421,4.25771053 31.0662,5.35807895 31.0662,7.55834211 C31.0662,11.0219211 35.9555684,10.3900263 35.9555684,11.9176579 C35.9555684,12.4879737 35.3852526,12.7736053 34.4279368,12.7736053 C33.4497789,12.7736053 32.5128316,12.4472368 31.7790947,12.0810789 L30.7398316,14.1795 C31.9624105,14.8312895 33.3886737,15.1368158 34.7126211,15.1368158 C37.0758316,15.1368158 39.1131474,13.9142368 39.1131474,11.6737105 C39.1131474,8.25086842 34.3052526,8.82118421 34.3052526,7.43613158 Z M62.6585684,6.53944737 C63.5552526,6.53944737 64.2681474,7.25281579 64.3903579,8.63786842 L60.9272526,8.63786842 C61.0494632,7.25281579 61.7623579,6.53944737 62.6585684,6.53944737 Z M67.6824632,10.3492895 L67.6824632,9.53786842 C67.6824632,6.49113158 65.5518316,4.25771053 62.6585684,4.25771053 C59.7657789,4.25771053 57.5247789,6.55981579 57.5247789,9.75860526 C57.5247789,13.0383947 59.6435684,15.1368158 63.0256737,15.1368158 C63.9683053,15.1368158 65.8327263,14.9667632 67.2713053,13.9710789 L66.3623053,11.9512895 C65.3874632,12.5040789 64.3998316,12.7532368 63.5145158,12.7532368 C63.4373053,12.7532368 63.3619895,12.7503947 63.2866737,12.7456579 C63.2700947,12.7447105 63.2530421,12.7437632 63.2364632,12.7423421 C63.1658842,12.7376053 63.0953053,12.7305 63.0270947,12.7215 C63.0109895,12.7196053 62.9958316,12.7167632 62.9802,12.7143947 C62.9247789,12.7058684 62.8698316,12.6963947 62.8153579,12.6850263 C62.7964105,12.6812368 62.7769895,12.6779211 62.7585158,12.6736579 C62.7026211,12.6613421 62.6486211,12.6457105 62.5941474,12.6300789 C62.5652526,12.6220263 62.5358842,12.6130263 62.5079368,12.6030789 C62.4690947,12.5907632 62.4316737,12.5765526 62.3937789,12.5623421 C62.3511474,12.5452895 62.3089895,12.5277632 62.2682526,12.5092895 C62.2564105,12.5036053 62.2440947,12.4983947 62.2322526,12.4922368 C62.1659368,12.4609737 62.1024632,12.4268684 62.0418316,12.3903947 C62.0404105,12.3894474 62.0385158,12.3880263 62.0370947,12.3870789 C61.9020947,12.3051316 61.7808316,12.2108684 61.6723579,12.1071316 C61.6704632,12.1057105 61.6690421,12.1042895 61.6671474,12.1023947 C61.6230947,12.0592895 61.5814105,12.0138158 61.5411474,11.9678684 C61.5255158,11.9498684 61.5098842,11.9313947 61.4947263,11.9129211 C61.4715158,11.8845 61.4492526,11.8551316 61.4279368,11.8257632 C61.3909895,11.7746053 61.3554632,11.7234474 61.3227789,11.6685 L61.3199368,11.6642368 C61.1138842,11.3184474 60.9779368,10.8836053 60.9272526,10.3497632 L60.9272526,10.3492895 L67.6824632,10.3492895 Z" id="Fill-5" fill="#2D2341"></path>
                <path d="M93.0461684,12.6107053 C92.7406421,12.8347579 92.2721684,13.0180737 91.7629579,13.0180737 C90.9477474,13.0180737 90.3978,12.5496 90.3978,11.7954947 C90.3978,10.9400211 91.0723263,10.1030211 93.0461684,10.4303368 L93.0461684,12.6107053 Z M92.4147474,4.25775789 C90.3978,4.25775789 88.8090632,4.88965263 87.8309053,5.50070526 L88.7275895,7.35470526 C89.3182737,7.08991579 90.5612211,6.62096842 91.6203789,6.62096842 C92.3740105,6.62096842 93.0461684,6.88623158 93.0461684,7.6806 L93.0461684,8.37312632 C88.5537474,8.05338947 87.2620105,10.0300737 87.2620105,11.8551789 C87.2620105,13.6395474 88.7721158,15.1368632 90.7601684,15.1368632 C91.5441158,15.1368632 92.3953263,14.8403368 93.0461684,14.4315474 L93.0461684,14.8919684 L96.3060632,14.8919684 L96.3060632,7.66023158 C96.3060632,5.31738947 94.8186947,4.25775789 92.4147474,4.25775789 Z" id="Fill-7" fill="#7887E6"></path>
                <path d="M98.6517474,12.0815053 C99.3850105,12.4476632 100.321484,12.7740316 101.299642,12.7740316 C102.256484,12.7740316 102.8268,12.4884 102.8268,11.9185579 C102.8268,10.3909263 97.9388526,11.0223474 97.9388526,7.56018947 C97.9388526,5.3604 99.8942211,4.26050526 102.317589,4.26050526 C103.641537,4.26050526 104.945116,4.66787368 105.800589,5.09561053 L104.884011,7.23429474 C104.232221,6.94913684 103.336484,6.64361053 102.480537,6.64361053 C101.666274,6.64361053 101.176958,6.94913684 101.176958,7.43750526 C101.176958,8.82255789 105.983905,8.25224211 105.983905,11.6741368 C105.983905,13.9146632 103.947537,15.1362947 101.584326,15.1362947 C100.260379,15.1362947 98.8350632,14.8312421 97.6134316,14.1794526 L98.6517474,12.0815053 Z" id="Fill-9" fill="#7887E6"></path>
                <path d="M113.621353,14.8921579 L113.621353,7.947 C113.621353,7.173 113.275563,6.66378947 112.501089,6.66378947 C111.706721,6.66378947 110.871616,7.19336842 110.443879,7.53963158 L110.443879,14.8921579 L107.185405,14.8921579 L107.185405,0.859263158 L110.443879,0.859263158 L110.443879,5.625 C111.279458,4.95284211 112.440458,4.26031579 113.763932,4.26031579 C115.087879,4.26031579 116.879826,4.95284211 116.879826,7.78405263 L116.879826,14.8921579 L113.621353,14.8921579 Z" id="Fill-11" fill="#7887E6"></path>
                <path d="M83.2713632,11.2109211 C83.0042053,12.1554474 82.4248895,12.7750263 81.4363105,12.7750263 C79.9901526,12.7750263 79.4198368,11.4302368 79.4198368,9.71976316 C79.4198368,7.92734211 80.0512579,6.64413158 81.4363105,6.64413158 C82.3931526,6.64413158 82.9805211,7.23907895 83.2590474,8.18360526 L86.3962579,8.18360526 C85.8046263,5.67828947 83.7450474,4.26102632 81.4363105,4.26102632 C78.2384684,4.26102632 75.9576789,6.2775 75.9576789,9.69939474 C75.9576789,13.1208158 78.2384684,15.1372895 81.4363105,15.1372895 C83.7459947,15.1372895 85.8069947,13.7186053 86.3972053,11.2109211 L83.2713632,11.2109211 Z" id="Fill-13" fill="#7887E6"></path>
            </g>
        </g>
    </g>
</svg>