<svg xmlns="http://www.w3.org/2000/svg"  viewBox="0 0 148 73.977">
    <defs>
        <style>
            .cls-1{fill:#1d1934}.cls-2{fill:#cdde00}.cls-3{fill:#e81f76}.cls-4{fill:#00a7e1}.cls-5{fill:#ffa400}
        </style>
    </defs>
    <g id="Play_Color" data-name="Play+Color">
        <path id="Path_1" d="M8.822 45.094v11.193H0V16.72h18.65c10.117 0 15.147 6.556 15.147 14.187 0 7.909-5.087 14.072-15.147 14.187H8.822zm0-8.082h9.828c4.243 0 6.325-2.775 6.325-5.932s-2.151-5.989-6.325-5.989H8.822v11.921z" class="cls-1" data-name="Path 1" transform="translate(0 2.896)"/>
        <path id="Path_2" d="M41.022 16.77v39.509H32.94V16.77z" class="cls-1" data-name="Path 2" transform="translate(5.419 2.904)"/>
        <path id="Path_3" d="M67.3 26.873h7.631V54.8h-7.342l-.451-3.5c-1.862 2.937-5.874 4.07-8.591 4.128-8.36.058-14.407-5.365-14.407-14.58 0-9.273 6.382-14.7 14.638-14.58 3.5 0 6.787 1.353 8.256 3.839zM52.268 40.841a6.989 6.989 0 0 0 7.342 7.342 7.175 7.175 0 0 0 7.4-7.065c0-4.012-2.544-7.689-7.4-7.689a7.045 7.045 0 0 0-7.342 7.412z" class="cls-1" data-name="Path 3" transform="translate(7.334 4.443)"/>
        <path id="Path_4" d="M83.99 26.79v14.245c0 3.619 1.8 6.787 5.712 6.787 3.781 0 6.325-3.272 6.325-7.065V26.79h8.082V55.5c0 9.608-7.007 13.794-13.563 13.794-7.238 0-13.112-3.388-14.129-11.192h7.851c.786 3.11 3.33 3.735 6.047 3.735a6.064 6.064 0 0 0 6.047-6.278v-4.187c-2.775 3.619-5.423 3.781-9.319 3.781-6.44 0-11.192-5.145-11.192-14.072V26.79z" class="cls-1" data-name="Path 4" transform="translate(12.586 4.683)"/>
        <path id="Path_5" d="M107.09 13.678V4.752A4.767 4.767 0 0 1 111.842 0a4.767 4.767 0 0 1 4.752 4.752v8.926l-4.752 4.752" class="cls-2" data-name="Path 5" transform="translate(17.727)"/>
        <path id="Path_6" d="M116.594 20.692v8.926a4.767 4.767 0 0 1-4.752 4.752 4.767 4.767 0 0 1-4.752-4.752v-8.926l4.752-4.752" class="cls-3" data-name="Path 6" transform="translate(17.727 2.657)"/>
        <path id="Path_7" d="M108.938 21.334h-8.926a4.767 4.767 0 0 1-4.752-4.752 4.767 4.767 0 0 1 4.752-4.752h8.926l4.752 4.752" class="cls-4" data-name="Path 7" transform="translate(15.879 1.955)"/>
        <path id="Path_8" d="M115.952 11.83h8.926a4.767 4.767 0 0 1 4.752 4.752 4.767 4.767 0 0 1-4.752 4.752h-8.926l-4.752-4.752" class="cls-5" data-name="Path 8" transform="translate(18.369 1.955)"/>
    </g>
</svg>
