<svg xmlns="http://www.w3.org/2000/svg" viewBox="0 0 21.19 23.02"><defs><style>.cls-1{fill:#286FB7;}</style></defs><g id="Layer_2" data-name="Layer 2"><g id="Layer_1-2" data-name="Layer 1"><path class="cls-1" d="M11.05,14.39a5.72,5.72,0,0,1,5.3-2.34c0-.14,0-.25-.06-.36a2.89,2.89,0,0,0-1.5-1.89A7.85,7.85,0,0,0,12.19,9a.85.85,0,0,0-.81.24,3.88,3.88,0,0,1-2.48,1A4,4,0,0,1,6.07,9.12.47.47,0,0,0,5.76,9a8.82,8.82,0,0,0-2.48.6,3.11,3.11,0,0,0-2,2.17c-.15.68-1.47,6.36-1.28,7,2.89.27,8.2.3,9.8.24C10.35,19,9.34,16.44,11.05,14.39Z"/><path class="cls-1" d="M6.88,8.69A2.9,2.9,0,0,0,11,8.42a6.08,6.08,0,0,0,1.87-3.85,3.83,3.83,0,0,0,.05-1.07A3.87,3.87,0,0,0,8.66,0H8.37A3.85,3.85,0,0,0,4.7,4a6.11,6.11,0,0,0,1.93,4.4Z"/><path class="cls-1" d="M19.69,14.36a5.09,5.09,0,0,0-3.58-1.5h0a5.08,5.08,0,0,0-3.57,1.5l0,0A5.08,5.08,0,0,0,16.1,23h0a5,5,0,0,0,3.58-1.5.46.46,0,0,1,.07-.07A5,5,0,0,0,19.69,14.36Zm-.91,5.32-.86.87-1.74-1.74h0l-1.74,1.74-.87-.87,1.74-1.74L13.57,16.2l.87-.87,1.74,1.74,1.74-1.74.86.87-1.73,1.74Z"/></g></g></svg>