<svg xmlns="http://www.w3.org/2000/svg" viewBox="0 0 81.41 75.77"><defs><style>.cls-1{fill:#286FB7;}</style></defs><g id="Layer_2" data-name="Layer 2"><g id="Layer_1-2" data-name="Layer 1"><path class="cls-1" d="M79.52,8.25a7.33,7.33,0,0,0-5.45-2.43H64.56c-.14-1-.3-1.93-.49-2.87A3.56,3.56,0,0,0,60.63,0H21.79a3.57,3.57,0,0,0-3.44,3c-.18.94-.35,1.9-.49,2.87H7.34A7.35,7.35,0,0,0,0,14c1.21,11.43,4.64,25.33,14.07,26.6a71.43,71.43,0,0,0,9,.72h0a5.53,5.53,0,0,0,.71,0c2.92,4.91,6.63,8.58,10.81,10.48V63.59c-8.07,1.46-13.88,5.53-13.88,10.34a6.07,6.07,0,0,0,.31,1.84H61.29a6.08,6.08,0,0,0,.32-1.84c0-4.81-5.82-8.88-13.89-10.34V51.71c4.17-1.89,7.88-5.55,10.8-10.44a72.48,72.48,0,0,0,8.78-.72C76.73,39.28,80.16,25.38,81.37,14A7.35,7.35,0,0,0,79.52,8.25ZM15.05,33.61c-3.57-.48-6.81-8.68-8-20.4a.33.33,0,0,1,.09-.27.31.31,0,0,1,.25-.12h9.94c0,.59,0,1.17,0,1.75a57.19,57.19,0,0,0,3.32,19.6C18.91,34.07,17.08,33.89,15.05,33.61Zm51.31,0c-1.61.22-3.1.38-4.47.49a57.35,57.35,0,0,0,3.3-19.53c0-.58,0-1.16,0-1.75h8.93a.31.31,0,0,1,.25.12.33.33,0,0,1,.09.27C73.17,24.93,69.93,33.13,66.36,33.61Z"/></g></g></svg>