<svg xmlns="http://www.w3.org/2000/svg" viewBox="0 0 26.16 24.5"><defs><style>.cls-1{fill:#d0bd8e;}</style></defs><g id="Layer_2" data-name="Layer 2"><g id="Layer_1-2" data-name="Layer 1"><path class="cls-1" d="M20.66.61a5.79,5.79,0,0,0-6.36.78C13.06,2.4,1.85,14.72.63,16.21a3.41,3.41,0,0,0-.24,3.6c.53,1.25,1.67,2.64,2.93,2.74a5.08,5.08,0,0,0,3-.74l.09,0c.11.12.22.26.32.38,1,1.29,2.23,2.76,3.37,2.26.16,0,3.94-1.29,5.77-2l.1,0a1.59,1.59,0,0,0,.89-1c.31-.95-.34-2-.91-3l-.4-.67c1.7-.72,5.79-2.51,7.5-3.37a5.88,5.88,0,0,0,1.22-.81l.13-.1a5.61,5.61,0,0,0,1.8-4.36A10.3,10.3,0,0,0,20.66.61ZM14.4,16.39a1.18,1.18,0,0,0-.67.7c-.22.68.2,1.37.73,2.24a6.19,6.19,0,0,1,.74,1.48c-1.59.63-4.82,1.7-5.58,2A8.72,8.72,0,0,1,8,21.07c-.72-.88-1.15-1.42-1.85-1.1-.23.1-.45.22-.67.33a3.46,3.46,0,0,1-2,.56A3,3,0,0,1,2,19.14c-.16-.37-.47-1.29,0-1.85C3,16,8.88,9.55,12.51,5.67a9.43,9.43,0,0,0,1.35,4.58,8.62,8.62,0,0,0,5.23,4.1C17.18,15.21,15.14,16.09,14.4,16.39ZM24.46,9.15a4,4,0,0,1-1.27,3.09c-3.57,1.67-6.46-.47-7.87-2.85S13.62,4,15.6,2.6a1.31,1.31,0,0,0,.11-.12,4.09,4.09,0,0,1,4.23-.33A8.58,8.58,0,0,1,24.46,9.15ZM12.52,18.32a.83.83,0,0,1-.42,1.12l-1.91.87a.85.85,0,0,1-1.13-.42.86.86,0,0,1,.43-1.13l1.91-.86A.83.83,0,0,1,12.52,18.32Z"/></g></g></svg>
