<svg xmlns="http://www.w3.org/2000/svg" viewBox="0 0 58.89 59.29"><defs><style>.cls-1{fill:#c6d9e7;}</style></defs><g id="Layer_2" data-name="Layer 2"><g id="Layer_1-2" data-name="Layer 1"><path class="cls-1" d="M25.47,45.35c-.64-.33-.69-.51-.69-1.76,0-2.32.19-4.18.23-4.92,0-.51.14-.74.37-.74s.33.14.33.51a8.19,8.19,0,0,0,.14,1.72c.69,3.43,3.75,4.72,6.86,4.72,4.45,0,6.63-3.19,6.63-6.16,0-3.2-1.35-5-5.34-8.35l-2.08-1.71c-4.92-4-6-6.91-6-10.06,0-5,3.71-8.35,9.6-8.35a17.83,17.83,0,0,1,4.31.47,7.91,7.91,0,0,0,1.62.23c.37,0,.46.09.46.32S41.7,13,41.7,16.19c0,.74-.09,1.06-.32,1.06s-.33-.23-.38-.6a7.86,7.86,0,0,0-.6-2.32c-.28-.51-1.53-2.45-5.79-2.45-3.2,0-5.7,2-5.7,5.37,0,2.65,1.2,4.31,5.65,7.79l1.3,1c5.47,4.31,6.77,7.19,6.77,10.9a9.62,9.62,0,0,1-3.94,7.69,12.22,12.22,0,0,1-7,2,14.2,14.2,0,0,1-6.22-1.25"/><path class="cls-1" d="M22.27,1.09a32.3,32.3,0,0,0-4.74,1.77,30.51,30.51,0,0,0-4.48,2.58A29.69,29.69,0,0,0,0,29.74V30A28.7,28.7,0,0,0,5.56,46.87,30.62,30.62,0,0,0,30.18,59.29h.48a31.44,31.44,0,0,0,17.63-5.54A30.26,30.26,0,0,0,58.12,42.6l.77-1.69-1,1.69a29.1,29.1,0,0,1-8,8.19C36.79,59.85,18.6,56.93,9.36,44.26S3.31,14,16.47,4.9a29.4,29.4,0,0,1,3.39-2c2.8-1.2,5.89-2.87,9.19-2.8A8.7,8.7,0,0,0,27.81,0a18.66,18.66,0,0,0-5.54,1.09"/><path class="cls-1" d="M20.68,3.71a27.89,27.89,0,0,0-4.85,3A26.85,26.85,0,0,0,6.28,20.89C2.35,35.18,11.11,49.77,25.83,53.44a28.32,28.32,0,0,0,13.57,0L41,53l-1.76.34a26.92,26.92,0,0,1-10.39-.52C14.9,49.33,6.58,35.48,10.31,21.9a25.27,25.27,0,0,1,4.8-9.3A25.63,25.63,0,0,1,18.75,9C26,3.15,35.89,1.13,44.5,4.1c1.53.41,3,.9,4.51,1.42A30.29,30.29,0,0,0,44.39,3.1,27.73,27.73,0,0,0,33.31.82,29.15,29.15,0,0,0,20.68,3.71"/><path class="cls-1" d="M52.65,54.53v1.61h-.31V54.53h-.58v-.25h1.47v.25Zm2.69,1.61V54.59h0l-.61,1.55h-.19l-.61-1.55h0v1.55h-.31V54.28h.47l.55,1.41.55-1.41h.47v1.86Z"/></g></g></svg>