<svg width="48" height="48" viewBox="0 0 48 48" version="1.1" xmlns="http://www.w3.org/2000/svg"><g id="Page-1" stroke="none" stroke-width="1" fill="none" fill-rule="evenodd"><g id="logo" fill-rule="nonzero"><path d="M23.841 0C10.674 0 0 10.674 0 23.841v23.842h23.841c13.167 0 23.841-10.674 23.841-23.842 0-13.167-10.674-23.84-23.841-23.84" id="Path" fill="#FFF"/><path d="M23.841 0C10.674 0 0 10.674 0 23.841v23.842h23.841c13.167 0 23.841-10.674 23.841-23.842 0-13.167-10.674-23.84-23.841-23.84m0 35.76h-11.92v-11.92c0-6.583 5.336-11.92 11.92-11.92s11.921 5.337 11.921 11.92c0 6.584-5.337 11.92-11.921 11.92" id="Shape" fill="#009940"/><path d="M11.922 35.762h-.002l-.004-.006.004-.005v-11.91c0-6.583 5.338-11.92 11.921-11.92 3.29 0 6.27 1.334 8.427 3.49l.002.002 14.601 14.6c.526-1.969.811-4.037.811-6.171C47.682 10.674 37.008 0 23.842 0 10.674 0 0 10.674 0 23.842v23.84h23.842l-11.92-11.92z" id="Path" fill="#00CC5C"/></g></g></svg>