<svg xmlns="http://www.w3.org/2000/svg" viewBox="0 0 12.45 27.72"><defs><style>.cls-1{fill:#fff;}.cls-2{fill:#dc1f32;}.cls-3{fill:#1b4689;}</style></defs><g id="Layer_2" data-name="Layer 2"><g id="Layer_1-2" data-name="Layer 1"><path class="cls-1" d="M9.53,0H2.92A2.9,2.9,0,0,0,0,2.87v22a2.9,2.9,0,0,0,2.92,2.87H9.53a2.9,2.9,0,0,0,2.92-2.87v-22A2.9,2.9,0,0,0,9.53,0"/><path class="cls-2" d="M7.89,5.08v.1c.2.11.3.2.5.33.54.34,1.21.93,1.12,3,.15.44.22,1.32.36,1.6a4.42,4.42,0,0,1,.55,1.42s.08.8.19.86c.55.12.39.18.48.27s.4.11.4.4a1.93,1.93,0,0,1,.26.46V2.87A2.21,2.21,0,0,0,9.53.68H7.39A1,1,0,0,1,8,1.16c.28,0,.61.63.1,1.53.22.15,0,.37-.12.62,0,.09-.09.23-.25.22-.19.4-.42.79-.6.82a.27.27,0,0,0,0,.31,3.51,3.51,0,0,1,.73.42m3.87,9.85a2,2,0,0,1-3.84-.73,2,2,0,0,1,1.52-1.9c-.23-.56-.72-1.48-.86-1.78S8.12,8.36,8,8c0-.08-.85.48-.86.51s-.63,1.54-.65,1.63,0,.25,0,.25.29,0,.46.52.66,2.28.66,2.28l-.14.13c.63,2.07.41,3,.69,3.57.35.85.45.74.75,1.46.22.52.46,2.58.55,2.67A2,2,0,0,1,10,22a5.13,5.13,0,0,0-.19,1.37c.07.24.1.78.22.89s.1.2.05.29,0,.08,0,.12c.19.65.79,1.76-.19,2.34h0a2.2,2.2,0,0,0,1.88-2.17Z"/><path class="cls-3" d="M9.25,24.43c-.36-.32-.12-.45-.14-.58-.23-1-1-1.54-.61-1.85-.1-.32-.3-.72-.29-.72a12.4,12.4,0,0,1-2.42-2c-.21-.23-.57-.46-.64-.64a18.59,18.59,0,0,1-2.05-3l-.58-.08c-.26-1.06-1.14-1.94-1.16-3a5.39,5.39,0,0,1,.26-1.43,2,2,0,0,1,.4-.46v-.28c-1.26,0-.9-.09-1.12-.58-.15-.33,0-.4,0-.64A14.36,14.36,0,0,1,1.88,7c.07-.24.32-.83.32-.83.94-1.88,1.29-1.74,2.41-1.85l0-.07c1.12,0,.94-.13,1.1-1.19-.17.06-.22-.34-.22-.34-.08-.6.17-.48.3-.5,0-1,.13-1.3.86-1.57H2.92A2.21,2.21,0,0,0,.69,2.87v22A2.21,2.21,0,0,0,2.92,27H9.53c-.76-.4-.31-1.16-.28-2.61"/><path class="cls-1" d="M2.57,25.66H2.09v-4h.75l.6,3.26c0-.78-.12-1.72-.12-2.52v-.74H3.8v4H3.11l-.6-3.19c0,.74.06,1.32.06,1.94Zm4.15-3.53h0c0,.48-.1,1.32-.12,1.59l-.06.68h.42l-.06-.68c0-.28-.1-1.11-.15-1.59M7,24.85H6.47l-.06.81H5.86l.49-4h.78l.47,4H7ZM4.71,22.18V23.5h.2c.19,0,.25-.07.25-.29v-.76c0-.18-.06-.27-.24-.27Zm0,1.75v1.23h.21c.18,0,.24-.1.24-.28V24.2c0-.19-.07-.27-.25-.27Zm-.54,1.73v-4H5c.45,0,.73.24.73.8v.59c0,.36-.11.55-.27.64a.63.63,0,0,1,.27.58v.58c0,.55-.29.79-.73.79Z"/></g></g></svg>