<svg xmlns="http://www.w3.org/2000/svg" viewBox="0 0 23.36 15.42"><defs><style>.cls-1{fill:#073f79;}</style></defs><g id="Layer_2" data-name="Layer 2"><g id="Layer_1-2" data-name="Layer 1"><polygon class="cls-1" points="18.75 3.1 17.94 3.91 21.17 7.14 15.25 7.14 15.25 8.29 21.17 8.29 17.94 11.52 18.75 12.32 23.36 7.71 18.75 3.1"/><path class="cls-1" d="M9.82,12.84a.48.48,0,0,0,.5-.47v-.28a3,3,0,0,0,1.77-.8,2.53,2.53,0,0,0,.32-3,2.48,2.48,0,0,0-1.13-.89c-.3-.11-.62-.19-.92-.29-.6-.21-1.13-.22-1.5-.82A1.16,1.16,0,0,1,8.9,5a1.25,1.25,0,0,1,1.23-.47,1.16,1.16,0,0,1,.68.46,5.63,5.63,0,0,1,.34.89.68.68,0,0,0,.65.35h0a.76.76,0,0,0,.76-.75,1.78,1.78,0,0,0-.16-.6,2.71,2.71,0,0,0-1.17-1.2,2.87,2.87,0,0,0-.91-.3v-.3h0a.47.47,0,0,0-.48-.48h0a.49.49,0,0,0-.48.48v.3a2.73,2.73,0,0,0-1.53.79,2.27,2.27,0,0,0-.66,1.68,2.21,2.21,0,0,0,.34,1.3,4.58,4.58,0,0,0,2.68,1.47,2,2,0,0,1,.81.44,1,1,0,0,1,.27.71,1.06,1.06,0,0,1-.29.74,1.44,1.44,0,0,1-1.56.37c-.72-.23-.85-.81-1.08-1.29a.69.69,0,0,0-.65-.35h0a.76.76,0,0,0-.75.75,1.57,1.57,0,0,0,.16.6A2.67,2.67,0,0,0,8.3,11.8a4.29,4.29,0,0,0,1,.28v.29A.48.48,0,0,0,9.82,12.84Z"/><path class="cls-1" d="M1.5,13.55V1.88a.38.38,0,0,1,.38-.38H18.5V0H1.88A1.88,1.88,0,0,0,0,1.88V13.55a1.88,1.88,0,0,0,1.88,1.87H18.5v-1.5H1.88A.38.38,0,0,1,1.5,13.55Z"/></g></g></svg>