<svg xmlns="http://www.w3.org/2000/svg" xmlns:xlink="http://www.w3.org/1999/xlink" viewBox="0 0 21 25">
  <defs>
    <style>
      .cls-1 {
        clip-path: url(#clip-bin_icon);
      }

      .cls-2 {
        fill: #727272;
        stroke: #727272;
        stroke-width: 0.5px;
      }

      .cls-3 {
        fill: rgba(255,255,255,0);
      }
    </style>
    <clipPath id="clip-bin_icon">
      <rect width="21" height="25"/>
    </clipPath>
  </defs>
  <g id="bin_icon" class="cls-1">
    <rect class="cls-3" width="21" height="25"/>
    <path id="Path_13643" data-name="Path 13643" class="cls-2" d="M1018.88,37.706a.541.541,0,0,0,.558-.549v-13.1a.558.558,0,0,0-1.116,0v13.02a.612.612,0,0,0,.558.627m3.346,0a.541.541,0,0,0,.558-.549l.8-13.02a.558.558,0,0,0-1.115,0l-.8,13.02a.665.665,0,0,0,.557.549m6.056-17.412h-5.5V18.1a1.081,1.081,0,0,0-1.116-1.1h-5.5a1.081,1.081,0,0,0-1.116,1.1v2.2h-5.5a.549.549,0,1,0,0,1.1h1.116l1.115,17.412a2.319,2.319,0,0,0,2.231,2.2h9.96a2.446,2.446,0,0,0,2.231-2.2l1.115-17.412h1.116a.54.54,0,0,0,.558-.549.849.849,0,0,0-.717-.549m-12.111-2.2h5.5v2.2h-5.5Zm8.844,20.627a1.19,1.19,0,0,1-1.115,1.1h-9.96a1.131,1.131,0,0,1-1.115-1.1l-1.116-17.412h14.343Zm-9.4-1.02a.54.54,0,0,0,.558-.549l-.8-13.02a.558.558,0,0,0-1.115,0l.8,13.02a.54.54,0,0,0,.558.549" transform="translate(-1008.552 -16.5)"/>
  </g>
</svg>
