<svg xmlns="http://www.w3.org/2000/svg" viewBox="0 0 14.76 23.65"><defs><style>.cls-1{fill:#ffffff;}</style></defs><g id="Layer_2" data-name="Layer 2"><g id="Layer_2-2" data-name="Layer 2"><path 
class="cls-1" d="M.13,21.65a2,2,0,0,0,2,2h10a2,2,0,0,0,2-2v-15H.13Zm10-13h2v13h-2Zm-4,0h2v13h-2Zm-4,0h2v13h-2ZM14,4.13l-2.89-.8A2,2,0,0,0,9.74.87L6.85.07a2,2,0,0,0-2.46,1.4L1.5.67a1,1,0,0,0-1.23.7L0,2.33l14.46,4,.27-1A1,1,0,0,0,14,4.13ZM10.17,3
.06,5.35,1.73A1,1,0,0,1,6.58,1l2.89.79A1,1,0,0,1,10.17,3.06Z"/></g></g></svg>