<svg xmlns="http://www.w3.org/2000/svg" viewBox="0 0 59.14 59.15"><defs><style>.cls-1{fill:#3ca77c;}</style></defs><g id="Layer_2" data-name="Layer 2"><g id="Layer_1-2" data-name="Layer 1"><path class="cls-1" d="M56.36,22.85,36.29,2.78a9.51,9.51,0,0,0-13.44,0L2.78,22.85a9.51,9.51,0,0,0,0,13.44L22.85,56.36a9.49,9.49,0,0,0,13.44,0L56.36,36.29A9.51,9.51,0,0,0,56.36,22.85ZM53.53,33.46,33.46,53.53a5.48,5.48,0,0,1-7.78,0L5.61,33.46a5.5,5.5,0,0,1,0-7.78L25.68,5.61a5.5,5.5,0,0,1,7.78,0L53.53,25.68A5.5,5.5,0,0,1,53.53,33.46ZM43.44,21.62a2,2,0,0,1,.09,2.82l-17,18,0,0v0l-.16.13-.14.12-.21.11-.14.08-.25.07-.13,0a1.72,1.72,0,0,1-.39,0,1.55,1.55,0,0,1-.37,0l-.12,0-.25-.07-.13-.07L24,42.75l-.13-.1-.16-.13,0,0a0,0,0,0,1,0,0l-8-8a2,2,0,0,1,2.83-2.82L25,38.2,40.62,21.7A2,2,0,0,1,43.44,21.62Z"/></g></g></svg>