<svg xmlns="http://www.w3.org/2000/svg" viewBox="0 0 52.97 52.97"><defs><style>.cls-1{fill:#fff;}</style></defs><g id="Layer_2" data-name="Layer 2"><g id="Layer_1-2" data-name="Layer 1"><path class="cls-1" d="M50.08,19.48,33.49,2.89a9.94,9.94,0,0,0-14,0L2.89,19.48a9.94,9.94,0,0,0,0,14L19.48,50.08a9.93,9.93,0,0,0,14,0L50.08,33.49A9.92,9.92,0,0,0,50.08,19.48Zm-2,12L31.5,48.1a7.11,7.11,0,0,1-10,0L4.88,31.5a7.1,7.1,0,0,1,0-10L21.46,4.88a7.1,7.1,0,0,1,10,0L48.1,21.46A7.12,7.12,0,0,1,48.1,31.5ZM26.46,23.81a6.76,6.76,0,0,0,6.43-7.07,6.76,6.76,0,0,0-6.43-7.06A6.76,6.76,0,0,0,20,16.74,6.77,6.77,0,0,0,26.46,23.81Zm-4.19-7.07a4.51,4.51,0,0,1,4.19-4.8,4.5,4.5,0,0,1,4.18,4.8,4.52,4.52,0,0,1-4.18,4.82,4.52,4.52,0,0,1-4.19-4.82Zm4.2,8.32a16.3,16.3,0,0,0-9.71,2.73,6.85,6.85,0,0,0-3.15,5.1,2.26,2.26,0,0,0,2.1,2.4H37.2a2.15,2.15,0,0,0,2.16-2.17v-.19C39.31,29.75,35.23,25.06,26.47,25.06Zm-10.6,8a2.7,2.7,0,0,1,.47-1.56c.59-1,3.05-4.15,10.15-4.15s9.45,3.15,10.05,4.12A2.86,2.86,0,0,1,37.07,33Z"/></g></g></svg>