<svg xmlns="http://www.w3.org/2000/svg" viewBox="0 0 18 18"><defs><style>.cls-1{fill:#4298b4;}</style></defs><g id="Layer_2" data-name="Layer 2"><g id="Layer_1-2" data-name="Layer 1"><path class="cls-1" d="M13.24,5.92H4.76a.92.92,0,0,1,0-1.84h8.48a.92.92,0,0,1,0,1.84ZM14.16,9a.92.92,0,0,0-.92-.92H4.76a.92.92,0,0,0,0,1.84h8.48A.92.92,0,0,0,14.16,9Zm-3.94,4a.92.92,0,0,0-.92-.92H4.76a.92.92,0,0,0,0,1.84H9.3A.92.92,0,0,0,10.22,13ZM18,15V3a3,3,0,0,0-3-3H3A3,3,0,0,0,0,3V15a3,3,0,0,0,3,3H15A3,3,0,0,0,18,15ZM15,1a2,2,0,0,1,2,2V15a2,2,0,0,1-2,2H3a2,2,0,0,1-2-2V3A2,2,0,0,1,3,1Z"/></g></g></svg>