<svg xmlns="http://www.w3.org/2000/svg" viewBox="0 0 31.35 35.34"><defs><style>.cls-1{fill:#000;}</style></defs><g id="Layer_2" data-name="Layer 2"><g id="Layer_1-2" data-name="Layer 1"><path class="cls-1" d="M29.82,8c-3.2-3.15-4.06-4-8-7.68L21.48,0H8.5a4.05,4.05,0,0,0-4,4V7.17H2.21A2.21,2.21,0,0,0,0,9.38V33.13a2.21,2.21,0,0,0,2.21,2.21H22.69a2.2,2.2,0,0,0,2.2-2.21v-3H27.3a4.05,4.05,0,0,0,4.05-4V9.45ZM22.09,3.29C24.53,5.56,25.6,6.6,27.9,8.87H24.13a2,2,0,0,1-2-2Zm7.26,22.84a2.05,2.05,0,0,1-2.05,2H8.5a2.05,2.05,0,0,1-2-2V4A2.05,2.05,0,0,1,8.5,2H20.09V6.83a4,4,0,0,0,4,4h5.22Z"/></g></g></svg>