<svg xmlns="http://www.w3.org/2000/svg" viewBox="0 0 34.79 37.29"><defs><style>.cls-1{fill:#d0bc90;}</style></defs><g id="Layer_2" data-name="Layer 2"><g id="Layer_1-2" data-name="Layer 1"><path class="cls-1" d="M11.38,10.26A4.14,4.14,0,0,0,15.72,6V4.27A4.19,4.19,0,0,0,11.38,0,4.19,4.19,0,0,0,7,4.27V6a4.17,4.17,0,0,0,4.35,4.27Z"/><path class="cls-1" d="M10.89,26A10.28,10.28,0,0,1,12,24.32a12.89,12.89,0,0,1,1.54-1.5,14.62,14.62,0,0,1,1.85-1.31,17.39,17.39,0,0,1,2.11-1.07,19.8,19.8,0,0,1,2.28-.79,19.1,19.1,0,0,1,2.37-.47l.56-.05v-.8c0-4.27-7.55-6.1-11.37-6.1S0,14.06,0,18.33v8H4.2V22.61l2.08,3.74H10.7C10.76,26.21,10.82,26.08,10.89,26Z"/><polygon class="cls-1" points="22.75 18.33 22.75 18.33 22.75 18.33 22.75 18.33"/><path class="cls-1" d="M23.66,35.48c-6.12,1.84-12.1-.12-13.38-4.36s2.65-9.18,8.76-11,12.1.12,13.37,4.37S29.78,33.65,23.66,35.48ZM34.52,24.34c-1.41-4.7-8-6.87-14.8-4.83S8.61,27,10,31.7s8.05,6.86,14.81,4.83S35.93,29,34.52,24.34Z"/><path class="cls-1" d="M20.07,28.4h2.46c1.9,0,3.37.85,3.37,1.82s-1.53,1.64-3.37,1.64H20.07Zm0-4.2h1.82C23.7,24.2,25,25,25,26s-1.35,1.68-3.13,1.68H20.07ZM15.7,32.59h6.83c3,0,6.3-.59,6.3-2.37,0-1.08-1.78-2.16-4.1-2.35,1.83-.31,3.19-1.18,3.19-1.9,0-1.86-3-2.51-6-2.51H15.7l1.58.79V31.8Z"/></g></g></svg>