<?xml version="1.0" encoding="UTF-8"?><svg id="Layer_2" xmlns="http://www.w3.org/2000/svg" viewBox="0 0 49.17 37.08"><defs><style>.cls-1{fill:#ffffff;}</style></defs><g id="Layer_1-2"><path class="cls-1" d="m44.97,0H4.2C1.88,0,0,1.88,0,4.2v28.68c0,2.32,1.88,4.2,4.2,4.2h40.77c2.32,0,4.2-1.88,4.2-4.2V4.2c0-2.32-1.88-4.2-4.2-4.2ZM4.2,2.4h40.77c.99,0,1.8.81,1.8,1.8v.7c-.22,0-.43.02-.63.14l-21.55,12.52L2.82,4.91c-.13-.08-.27-.12-.42-.14v-.57c0-.99.81-1.8,1.8-1.8Zm40.77,32.28H4.2c-.99,0-1.8-.81-1.8-1.8V7.45l21.58,12.53s0,0,0,0c.07.04.15.07.22.09.02,0,.04.02.07.03.05.01.09.01.14.02.05,0,.11.02.16.02,0,0,0,0,0,0s0,0,0,0c.05,0,.11-.01.16-.02.05,0,.1,0,.14-.02.02,0,.04-.02.07-.03.08-.03.15-.05.22-.09,0,0,0,0,0,0l21.58-12.53v25.43c0,.99-.81,1.8-1.8,1.8Z"/></g></svg>