<svg xmlns="http://www.w3.org/2000/svg" viewBox="0 0 35.81 25.37"><defs><style>.cls-1{fill:#cb2026;}</style></defs><g id="Layer_2" data-name="Layer 2"><g id="Layer_1-2" data-name="Layer 1"><polygon class="cls-1" points="6.76 6.97 4.49 6.97 4.49 19.13 11.1 19.13 11.1 17 6.76 17 6.76 6.97"/><rect class="cls-1" x="12.21" y="6.97" width="2.27" height="12.15"/><path class="cls-1" d="M20.51,14.2A21.65,21.65,0,0,0,20,16.88c0-.22-.11-.62-.23-1.18s-.23-1.07-.34-1.5L17.37,7H15.08l3.63,12.16h2.48L24.83,7H22.54Z"/><polygon class="cls-1" points="25.43 19.13 31.59 19.13 31.59 17 27.7 17 27.7 13.86 31.32 13.86 31.32 11.75 27.7 11.75 27.7 9.08 31.59 9.08 31.59 6.97 25.43 6.97 25.43 19.13"/><path class="cls-1" d="M32.14,0H3.67A3.68,3.68,0,0,0,0,3.67v18a3.67,3.67,0,0,0,3.67,3.66H32.14a3.67,3.67,0,0,0,3.67-3.66v-18A3.68,3.68,0,0,0,32.14,0Zm1.47,21.71a1.46,1.46,0,0,1-1.47,1.46H3.67A1.46,1.46,0,0,1,2.2,21.71v-18A1.47,1.47,0,0,1,3.67,2.2H32.14a1.47,1.47,0,0,1,1.47,1.47Z"/></g></g></svg>