<svg width="18" height="18" viewBox="0 0 18 18" fill="none" xmlns="http://www.w3.org/2000/svg">
<path d="M9 4.23529H5.29412V0.529412C5.29412 0.237176 5.05694 0 4.76471 0C4.47247 0 4.23529 0.237176 4.23529 0.529412V4.23529H0.529412C0.237176 4.23529 0 4.47247 0 4.76471C0 5.05694 0.237176 5.29412 0.529412 5.29412H4.23529V9C4.23529 9.29223 4.47247 9.52941 4.76471 9.52941C5.05694 9.52941 5.29412 9.29223 5.29412 9V5.29412H9C9.29223 5.29412 9.52941 5.05694 9.52941 4.76471C9.52941 4.47247 9.29223 4.23529 9 4.23529Z" transform="translate(4.23486 4.23535)" fill="#fff"/>
</svg>
