<?xml version="1.0" encoding="UTF-8"?><svg id="Layer_2" xmlns="http://www.w3.org/2000/svg" viewBox="0 0 40.96 40.96"><defs><style>.cls-1{fill:#FF8C03;}</style></defs><g id="Layer_1-2"><path class="cls-1" d="m20.48,0C9.19,0,0,9.19,0,20.48s9.19,20.48,20.48,20.48,20.48-9.19,20.48-20.48S31.77,0,20.48,0Zm0,38.56c-9.97,0-18.08-8.11-18.08-18.08S10.51,2.4,20.48,2.4s18.08,8.11,18.08,18.08-8.11,18.08-18.08,18.08Zm10.4-10.57h-.03c-1.4-.38-2.31-1.7-2.17-3.17v-7.53c.04-3.42-2.09-6.54-5.28-7.75-.22-.1-.41-.28-.5-.48-.39-.98-1.33-1.63-2.39-1.67h-.09c-1.05.03-1.98.69-2.36,1.64-.11.22-.3.4-.52.5-3.2,1.22-5.32,4.33-5.29,7.75v7.56c.15,1.43-.75,2.75-2.17,3.14-.29.11-1.16.44-1,1.33.08.42.38.93,1.41.93h6.56c.17,1.55,1.3,2.86,2.91,3.23h1.09c1.53-.37,2.67-1.65,2.86-3.19h6.55c.4,0,1.24,0,1.41-.93.17-.94-.67-1.25-.99-1.37Zm-8.71.07c-.13,0-.24.05-.32.14-.17.2-.13.5-.07.86.02.14.04.28.04.4,0,.45-.12.89-.39,1.28-.08.13-.19.25-.34.34-.18.14-.4.21-.61.22-.23,0-.45-.09-.64-.23-.13-.09-.24-.21-.33-.35-.26-.37-.39-.81-.39-1.27,0-.13.03-.29.05-.44.06-.36.1-.64-.06-.83l-.16-.14h-5.42c.69-1.09,1.03-2.37.95-3.65v-7.11c-.06-2.81,1.81-5.24,4.54-5.92.67-.18,1.08-.46,1.04-1.29,0-.12.04-.23.13-.31s.19-.13.31-.13h0c.12,0,.23.05.31.13.08.08.13.19.13.31,0,.82.36,1.09,1.05,1.29,2.73.68,4.59,3.11,4.54,5.93v7.08c-.09,1.29.24,2.58.92,3.67h-5.29Z"/></g></svg>