<svg xmlns="http://www.w3.org/2000/svg" viewBox="0 0 59.52 59.52"><defs><style>.cls-1{fill:red;}</style></defs><g id="Layer_2" data-name="Layer 2"><g id="Layer_1-2" data-name="Layer 1"><path class="cls-1" d="M29.76,0A29.76,29.76,0,1,0,59.52,29.76,29.79,29.79,0,0,0,29.76,0Zm0,54.52A24.76,24.76,0,1,1,54.52,29.76,24.79,24.79,0,0,1,29.76,54.52Zm3-41.12v23a1.29,1.29,0,0,1-1.29,1.29H28.05a1.29,1.29,0,0,1-1.29-1.29v-23a1.29,1.29,0,0,1,1.29-1.29h3.42A1.29,1.29,0,0,1,32.76,13.4Zm0,29.69V47.5a.79.79,0,0,1-.79.79H27.55a.79.79,0,0,1-.79-.79V43.09a.8.8,0,0,1,.79-.8H32A.79.79,0,0,1,32.76,43.09Z"/></g></g></svg>