<svg xmlns="http://www.w3.org/2000/svg" viewBox="0 0 82.37 82.37"><defs><style>.cls-1{fill:#cccccb;}</style></defs><g id="Layer_2" data-name="Layer 2"><g id="Layer_1-2" data-name="Layer 1"><path class="cls-1" d="M31.25,56.12a1.82,1.82,0,0,1,.92-2.39l4-1.82a1.75,1.75,0,0,1,2.34.83l0,.06h0a1.77,1.77,0,0,1-.83,2.34l-.06,0-4,1.84a1.79,1.79,0,0,1-2.38-.88ZM82.37,41.19A41.19,41.19,0,1,1,41.19,0,41.22,41.22,0,0,1,82.37,41.19ZM65.55,69.44,46.14,51.16l-1.15.5.84,1.41c1.21,2.12,2.58,4.34,1.93,6.35a3.4,3.4,0,0,1-1.89,2.12h-.21c-3.87,1.5-11.87,4.23-12.21,4.23-2.41,1.06-5-2-7.13-4.78-.21-.25-.44-.55-.68-.8h-.19a10.72,10.72,0,0,1-6.34,1.56c-2.67-.21-5.08-3.15-6.2-5.8a7.22,7.22,0,0,1,.5-7.61c1.24-1.51,7.33-8.28,13.62-15.16L11.51,18.57a37.31,37.31,0,0,0,54,50.87ZM41.41,35.72A20,20,0,0,1,38.55,26c-1.85,2-4,4.29-6.19,6.68l14.89,14c1.62-.71,3.45-1.52,5.23-2.32A18.24,18.24,0,0,1,41.41,35.72ZM44.5,33.9c3,5,9.1,9.56,16.65,6a8.45,8.45,0,0,0,2.69-6.53,18.15,18.15,0,0,0-9.56-14.82,8.63,8.63,0,0,0-9,.7,2.83,2.83,0,0,1-.24.25C40.9,22.49,41.52,28.86,44.5,33.9ZM29.66,35.65c-6.06,6.61-11.95,13.17-13.35,15-1,1.19-.34,3.13,0,3.92a6.4,6.4,0,0,0,3.14,3.64A7.4,7.4,0,0,0,23.68,57c.46-.23.93-.49,1.42-.7,1.48-.67,2.39.47,3.91,2.33a18.16,18.16,0,0,0,3.43,3.68c1.61-.63,8.44-2.9,11.81-4.23a13.12,13.12,0,0,0-1.57-3.13c-1.12-1.84-2-3.3-1.54-4.74a2.43,2.43,0,0,1,1.41-1.48l.69-.29Zm48.86,5.54A37.3,37.3,0,0,0,14.11,15.53l15.63,14.7C35.65,23.81,41.15,17.94,42.34,17A12.27,12.27,0,0,1,55.8,15.32a21.82,21.82,0,0,1,11.72,18,11.85,11.85,0,0,1-3.81,9.23l-.27.21a12.3,12.3,0,0,1-2.58,1.71c-2.37,1.19-6.88,3.22-10.73,4.91L68.44,66.67A37.18,37.18,0,0,0,78.52,41.19Z"/></g></g></svg>