<svg xmlns="http://www.w3.org/2000/svg" viewBox="0 0 38.83 38.06"><defs><style>.cls-1{fill:#0c1f8f;}</style></defs><g id="Layer_2" data-name="Layer 2"><g id="Layer_1-2" data-name="Layer 1"><path class="cls-1" d="M16,6.82A9.18,9.18,0,1,0,25.18,16,9.18,9.18,0,0,0,16,6.82ZM23.3,16A7.3,7.3,0,1,1,16,8.7,7.31,7.31,0,0,1,23.3,16Zm-2.14-1.57h0l-5.86,5.87-.08.06s0,.06-.07.08a.94.94,0,0,1-1.33,0L10.9,17.5a.94.94,0,0,1,1.33-1.33l2.27,2.26,5.33-5.34a.94.94,0,0,1,1.33,1.33Zm16.5,16.81-7.6-7.6a16.09,16.09,0,1,0-5.47,5.85L32,36.89a4,4,0,1,0,5.66-5.66ZM16,27A11,11,0,1,1,27,16,11,11,0,0,1,16,27Z"/></g></g></svg>