<svg xmlns="http://www.w3.org/2000/svg" viewBox="0 0 93.68 61.86"><defs><style>.cls-1{fill:#00001a;}</style></defs><g id="Layer_2" data-name="Layer 2"><g id="Layer_1-2" data-name="Layer 1"><path class="cls-1" d="M39.07,43.22a3.73,3.73,0,0,1,.71,2.14H11.21a3.61,3.61,0,0,1,.63-2.11c.79-1.31,4.11-5.59,13.68-5.59S38.26,41.91,39.07,43.22ZM25.48,29.89h0a6.08,6.08,0,0,0,5.64-6.49,6.08,6.08,0,0,0-5.64-6.47h0a6.08,6.08,0,0,0-5.64,6.48h0A6.07,6.07,0,0,0,25.48,29.89ZM93.68,6.42v49a6.42,6.42,0,0,1-6.42,6.42H6.42A6.41,6.41,0,0,1,0,55.44v-49A6.41,6.41,0,0,1,6.42,0H87.26A6.42,6.42,0,0,1,93.68,6.42ZM16.8,23.4a9.12,9.12,0,0,0,8.68,9.53,9.12,9.12,0,0,0,8.68-9.53,9.11,9.11,0,0,0-8.68-9.51A9.11,9.11,0,0,0,16.8,23.4ZM42.88,45.48a2.09,2.09,0,0,0,0-.25c-.06-4.29-5.57-10.61-17.38-10.61-6.68,0-10.83,2.06-13.08,3.68a9.23,9.23,0,0,0-4.24,6.86A3,3,0,0,0,11,48.4H40A2.92,2.92,0,0,0,42.88,45.48Zm42.32-.13a3.06,3.06,0,0,0-3.06-3.06H56.19a3.06,3.06,0,1,0,0,6.11h26A3.05,3.05,0,0,0,85.2,45.35Zm0-13.81a3.06,3.06,0,0,0-3.06-3.06H56.19a3.06,3.06,0,1,0,0,6.11h26A3.06,3.06,0,0,0,85.2,31.54Zm0-13.82a3.06,3.06,0,0,0-3.06-3H56.19a3.06,3.06,0,0,0-3.06,3h0a3.06,3.06,0,0,0,3.06,3.06h26a3.06,3.06,0,0,0,3.06-3.06Z"/></g></g></svg>