<svg id="button_search" xmlns="http://www.w3.org/2000/svg" width="30" height="30" viewBox="0 0 30 30">
  <defs>
    <style>
      .cls-1 {
        fill: #fff;
      }
    </style>
  </defs>
  <path id="Search" class="cls-1" d="M28.229,30a1.781,1.781,0,0,1-1.282-.549l-8.206-8.21-.008.006a11.512,11.512,0,0,1-6.9,2.276h-.045a11.808,11.808,0,0,1-8.38-20.1A11.734,11.734,0,0,1,11.65,0H11.7A11.855,11.855,0,0,1,23.486,11.8a11.543,11.543,0,0,1-2.251,6.926l8.214,8.216A1.771,1.771,0,0,1,28.229,30ZM11.665,2.353A9.376,9.376,0,0,0,5.122,18.386a9.428,9.428,0,0,0,6.655,2.783h.036a9.409,9.409,0,0,0-.106-18.816Z" transform="translate(0)"/>
</svg>
