<svg xmlns="http://www.w3.org/2000/svg" viewBox="0 0 58.54 58.54"><defs><style>.cls-1{fill:#1d9add;}</style></defs><g id="Layer_2" data-name="Layer 2"><g id="Layer_1-2" data-name="Layer 1"><path class="cls-1" d="M29.28,0A29.27,29.27,0,1,0,58.54,29.28h0A29.31,29.31,0,0,0,29.28,0Zm0,52.53A23.27,23.27,0,1,1,52.54,29.25v0A23.29,23.29,0,0,1,29.28,52.53Zm16.49-28.3L27.06,42.94a1.71,1.71,0,0,1-.26.21c-.07.08-.13.17-.21.25a3,3,0,0,1-4.24,0L13,34.05a3,3,0,0,1,4.24-4.25L24.47,37l17-17a3,3,0,0,1,4.25,4.24h.05Z"/></g></g></svg>