<svg xmlns="http://www.w3.org/2000/svg" viewBox="0 0 432 144.77"><defs><style>.cls-1{fill:none;}.cls-2{fill:#fff;}</style></defs><g id="Layer_2" data-name="Layer 2"><g id="Layer_1-2" data-name="Layer 1"><rect class="cls-1" width="432" height="144.77"/><path class="cls-2" d="M36.25,72.67H80.61c19.56,0,40.84-3.82,40.84-15.35,0-7-11.54-14.06-26.6-15.26,11.85-2,20.68-7.63,20.68-12.35,0-12-19.57-16.26-39.14-16.26H36.25l10.23,5.12v49Zm28.3-54.4H76.39c11.74,0,20.27,5.32,20.27,11.44S87.93,40.65,76.39,40.65H64.55Zm0,27.2H80.61c12.34,0,21.87,5.53,21.87,11.85,0,6.52-10,10.53-21.87,10.53H64.55ZM174,74c31.31,0,50.88-15.45,50.88-30.91S205.26,12.14,174,12.14,123.06,27.6,123.06,43.06,142.63,74,174,74Zm0-56.9c22.58,0,28.61,14.25,28.61,26s-6,26-28.61,26-28.61-14.26-28.61-26S151.36,17.07,174,17.07Zm222.61,26c0-15.16-20.37-29.61-50.79-29.61H275l10,5L262.47,39.65,239,18.47l10-5H208.88l10.43,5.22,29.91,26.5V67.55L239,72.67h38.55l-10.25-5.12V45.28L296.6,18.57,302,15.85l5.45,2.72v49l-10.25,5.12h48.58C376.18,72.67,396.56,58.22,396.56,43.06Zm-55,24.79H325.5V18.27h16.05c22.79,0,32.83,13.14,32.83,24.79S364.34,67.85,341.55,67.85ZM65.49,88.9l28.3,21.5-28.3,21.5V119.22l11.6-8.82-11.6-8.81Zm0,21.5L37.2,131.9V119.22l11.6-8.82-11.6-8.81V88.9ZM301.84,89h41.73v7.59H326.5V132h-7.59V96.56H301.84ZM208.1,89,204,93.09v34.75L208.1,132h33.49l4.12-4.12V93.09L241.59,89Zm30,35.4H211.57V96.56h26.55ZM155.05,89v43h7.59V120h30l4.12-4.12V93.09L192.66,89Zm34.14,23.39H162.64V96.56h26.55Zm-45.46-5.69,4.12,4.12v17L143.73,132h-37v-7.59h33.51V114.26h-30l-4.12-4.12v-17L110.24,89h36.87v7.59h-33.4v10.11Zm244.65,0,4.11,4.12v17L388.38,132h-37v-7.59h33.51V114.26h-30l-4.12-4.12v-17L354.89,89h36.87v7.59h-33.4v10.11ZM252.91,89v43h7.59V119.31h21.82l4.73,4.74V132h7.59V120.9l-5.39-5.38,5.39-5.38v-17L290.52,89Zm34.14,18-4.73,4.73H260.5V96.56h26.55ZM397.43,92.4a1,1,0,0,1-1.14,1.14,1.13,1.13,0,0,1-1.12-1.26h.44c0,.52.26.85.73.85a.64.64,0,0,0,.66-.73c0-1-1.78-1.13-1.78-2.4a1,1,0,0,1,1.07-1c.64,0,1.06.43,1.09,1.21h-.44c0-.46-.22-.8-.68-.8a.56.56,0,0,0-.61.58C395.65,91,397.43,91,397.43,92.4ZM401.1,89v4.45h-.45V89.4h0l-.92,4.08h-.32l-.92-4.08h0v4.08H398V89h.77l.77,3.36h0l.75-3.36Z"/></g></g></svg>