<svg xmlns="http://www.w3.org/2000/svg" viewBox="0 0 203.07 144.35"><defs><style>.cls-1{fill:#c5cbd1;}</style></defs><g id="Layer_2" data-name="Layer 2"><g id="Layer_1-2" data-name="Layer 1"><path class="cls-1" d="M191.72,138.93c-5.85,1.76-15.16,1.36-25.1.28-11.15-1.22-13.87-2.89-20.94-5.68a75.38,75.38,0,0,1-10-5.56c-.93.06-2,.11-3,.11h-.19a28.2,28.2,0,0,1-6.8-.59h-.14l0-.14v-1a39,39,0,0,0,5.46.34h.19c3.57,0,6.7-.46,6.7-.74v-2.64l-.05,0a11,11,0,0,0-2.44-.81h0a10.43,10.43,0,0,0,2.45-.77l0,0v-3c0-.28-3.13-.74-6.69-.74H131a26.63,26.63,0,0,0-6.8.62l-.1,0v1.86c-3.53-2.4-6.15-4.24-6.61-4.57a35.12,35.12,0,0,0,10.29-5.25h7.61q2.14-5.76,6.83-18.72h-1.38a39.9,39.9,0,0,0,1.61-8.52l42-4v-.32l-42.19-3.87c-2-16.92-13.78-31.72-35-33.23L103.44,0h-.38L99,41.93C80.18,43.8,66.7,57,64.31,75.07l-42,3.85v.34l41.66,4a38,38,0,0,0,1.54,8.55H49.75L48.28,95.9H62.93c.4,0,.65.25.75.76a12.29,12.29,0,0,1-.85,2.6,2,2,0,0,1-1.89,1.42H58.38l-1.33,3.74h2.84c.51.07.76.27.76.62v.14a21.89,21.89,0,0,0-.95,3v.23a1.92,1.92,0,0,0,.19.81c.42.85.93,1.28,1.52,1.28h7l1.42-4H69.6a.61.61,0,0,1-.61-.38v-.1a8.69,8.69,0,0,0,.61-2v-.33c0-.52-.39-1-1.18-1.28v0a5.83,5.83,0,0,0,1.75-1.18,6.41,6.41,0,0,0,1.62-3.08,10.43,10.43,0,0,0,1-3.6v-.28a1.45,1.45,0,0,0-.1-.62.45.45,0,0,0,0-.11,2.15,2.15,0,0,1,1.48,1.56s0,0,0,0l-.27.76h.36V96a10.28,10.28,0,0,1-1,3.6,6.36,6.36,0,0,1-1.61,3.08l-.52.42c.44.62.91,1.21,1.39,1.8l-2,5.62h8.62c.82-2.3,1.25-3.47,1.28-3.51A42.75,42.75,0,0,1,82,102.72H89L90.36,99H83.3c0-.08.21-.68.62-1.8H75.43l.46-1.28H90.45L90,97.22h6l1.94-5.4H80.87A55.51,55.51,0,0,1,79,77.7c0-23.53,12.1-31.59,23.2-31.59,17.66,0,25.21,19.33,25.21,36a58.28,58.28,0,0,1-.79,9.79,6.7,6.7,0,0,0-1.05-.08H106l-1.46,4.08h14.64c.4,0,.65.25.76.76a4.52,4.52,0,0,1-.34,1.23v0h8.63a.82.82,0,0,1,.09-.33,8.75,8.75,0,0,0,.81-3v-.28a1.63,1.63,0,0,0-.1-.62l0-.11a2.17,2.17,0,0,1,1.48,1.56,0,0,0,0,1,0,0l-.27.76h.36V96a8.75,8.75,0,0,1-.81,3,.82.82,0,0,0-.09.33h-5.07a26.46,26.46,0,0,1-2.59,5h-4.79q-.63,2-2.13,2h-2.79c-.44,0-.69-.28-.76-.85v0c.09-.37,1.08-3.17,3-8.38h-8.62l-2.18,6a40.6,40.6,0,0,0-1.71,5v.23a1.92,1.92,0,0,0,.19.81c.43.85.93,1.28,1.52,1.28h17a4.09,4.09,0,0,0,3.08-1,29.51,29.51,0,0,0,1.45-3.67h1.94v0A42.16,42.16,0,0,1,125.3,111a4.09,4.09,0,0,1-3.08,1h-9a21.78,21.78,0,0,1-8.67,1.71c-8.21,0-14.09-3.89-18.13-9.53h-3a42.75,42.75,0,0,0-1.61,4.31s-.46,1.2-1.28,3.51h-.2a35.43,35.43,0,0,0,17.79,5.8,62.91,62.91,0,0,0,6.74,0l.27.23c-.9-.07-2-.12-3.2-.12h-.35c-3.46,0-6.71.46-6.71.73v4.67l11.63,0v1.23a38.53,38.53,0,0,1-4.72.22,34.62,34.62,0,0,1-6.69-.6l-.2-.08v1.89l0,.14H95a30,30,0,0,0,6.61.59h0v0h.14c3.67,0,6.89-.48,6.89-.75v-4.65l-11.62,0v-1.19a29.55,29.55,0,0,1,4.36-.25H102a32.32,32.32,0,0,1,6.51.58l.2.1v-.85c.66.1,1.11.19,1.33.24h.14v1.87c4,2.88,10.68,7.43,21.42,14.11,18.8,11.7,43.51,8.79,57.23,5.78C199.12,139.41,198.59,136.85,191.72,138.93Zm-65.47-18.86a41.39,41.39,0,0,1,4.4-.23h.63a41.1,41.1,0,0,1,4.38.23v.74a10.9,10.9,0,0,1-3.5.45h-5.93Zm0,3.17h6.4a9.05,9.05,0,0,1,3,.42v.77a40.58,40.58,0,0,1-4.39.23h-.63a42,42,0,0,1-4.41-.23ZM122,124.82v-1.53c.53,0,1.14,0,1.7,0h.36v1.47c-1,0-1.88.08-1.89.09ZM53.45,110.54H44.82l4.84-13.36h8.62Zm-43.17,0H1.71L6.54,97.18h8.58Zm28.72,0H21.94c-.59,0-1.1-.43-1.52-1.28a1.78,1.78,0,0,1-.19-.81v-.23a48.73,48.73,0,0,1,2.14-6.17l3.69-10.23h8.62l-4.92,13.65v.14c.07.57.32.85.76.85h2.79c1.11,0,1.89-.88,2.32-2.65t4.36-12h8.62l-6.25,17.25Q41.63,110.54,39,110.54ZM22.55,95.9H0l1.47-4.08H24Zm180.52-1.61v.28a10.57,10.57,0,0,1-1.18,3.89,5.77,5.77,0,0,1-2.65,2.36v.05c.79.33,1.18.75,1.18,1.28v.38c-.13.47-.62,1.88-1.47,4.22-.66,2-1.18,3.06-1.56,3.12a4.28,4.28,0,0,1-2.66.67H175.07l4.83-13.36h8.63l-3.37,9.28h3.94c1.19,0,2-1,2.41-3v-.09c0-.35-.25-.56-.76-.62h-2.84L189.24,99h2.56c1,0,1.68-.65,2.08-2a.46.46,0,0,0,.05-.23v0c-.07-.57-.32-.85-.76-.85H178.53L180,91.82h19.52c2,0,3.16.62,3.46,1.85A1.66,1.66,0,0,1,203.07,94.29Zm-24.21-2.47-6.25,17.25c-.49,1-1.62,1.47-3.37,1.47H152.19c-.6,0-1.1-.43-1.52-1.28a1.78,1.78,0,0,1-.19-.81v-.23a49.54,49.54,0,0,1,2.13-6.17l3.7-10.23h8.62L160,105.47v.14c.07.57.32.85.76.85h2.8c1.11,0,1.88-.88,2.32-2.65t4.36-12Zm-31.37,18.72H136.74l1.47-4.08h4.73l.72-2h6v0ZM5.18,120.09l0,1.19,11.62,0v4.65c0,.27-3.22.74-6.89.75H9.74v0h0a29.78,29.78,0,0,1-6.6-.59H3l0-.14V124l.2.08a34.62,34.62,0,0,0,6.69.6,38.53,38.53,0,0,0,4.72-.22v-1.23L3,123.27V118.6c0-.27,3.25-.73,6.71-.73H10a30.55,30.55,0,0,1,6.61.59h.15l0,.14v1.92l-.2-.1a32.32,32.32,0,0,0-6.51-.58H9.53A29.23,29.23,0,0,0,5.18,120.09Zm25-2.26h-.36c-3.62,0-6.8.46-6.8.74v2.69c-.85,0-2.4,0-3.41-.12l-.16,0,0,2.3h.16s1.7-.15,3.12-.15H23v3.36l2.21,0,0-3.34,4.8,0,.14,0h.05c3.51,0,6.81-.47,6.81-.75v-4.09h-.14A30.24,30.24,0,0,0,30.18,117.83Zm4.61,3.22a34.88,34.88,0,0,1-4.35.23H25.2l0-1.22a31.93,31.93,0,0,1,4.44-.24h.76a36.8,36.8,0,0,1,4.38.23Zm56.43-2.61h.14v.15l0,2-.21-.12h0a22.42,22.42,0,0,0-5.67-.53v6.71l-2.24,0,0-6.79a23.34,23.34,0,0,0-5.7.6H77.4l-.05-.14v-1.73c0-.27,3.11-.71,6.8-.71h.39A30.56,30.56,0,0,1,91.22,118.44Zm105.43,3a10,10,0,0,1-2.47.78,12.25,12.25,0,0,1,2.47.81l.07,0v3.54l-2.25,0,0-2.26c-2.66-1-7.4-1.13-9.33-1.13h-.42v3.37l-2.23,0v-3.39h-.34c-.61,0-1.65,0-3.12.16h-.15v-2.31h.15s2,.11,3.45.12v-3.37l2.23,0v3.41h0a36.21,36.21,0,0,0,9.75-1.17l0-2.22,2.24,0v3.57ZM47.91,117.88h-.39a37.86,37.86,0,0,0-5,.3c-1.72.24-1.72.35-1.72.44v7.31c0,.09,0,.2,1.72.44a36.14,36.14,0,0,0,5,.3h.39c4.19,0,6.62-.56,6.7-.74v-7.31C54.61,118.34,51.48,117.88,47.91,117.88Zm4.55,6.6a38.56,38.56,0,0,1-9.44,0v-4.41a36.09,36.09,0,0,1,9.44,0Zm92.21,1.89a36.09,36.09,0,0,0,5,.3H150c4.19,0,6.63-.56,6.71-.74v-7.31c0-.28-3.13-.74-6.71-.74h-.39a37.8,37.8,0,0,0-5,.3c-1.73.24-1.73.35-1.73.44v7.31C142.94,126,142.94,126.13,144.67,126.37Zm.47-6.3a36.09,36.09,0,0,1,9.44,0v4.41a38.56,38.56,0,0,1-9.44,0Zm23.37-2.19a38,38,0,0,0-5,.3c-1.72.24-1.72.35-1.72.44v7.31c0,.09,0,.2,1.72.44a36.26,36.26,0,0,0,5,.3h.39c4.19,0,6.62-.56,6.71-.74v-7.31c0-.28-3.14-.74-6.71-.74Zm4.94,6.6a38.56,38.56,0,0,1-9.44,0v-4.41a36.09,36.09,0,0,1,9.44,0Zm-100.3-6a30,30,0,0,0-6.67-.6h-.37c-3.63,0-6.81.46-6.81.74v8.06l2.22,0v-3.32c7.61,0,9.26,1,9.58,1.33v2l2.21,0v-3.37h0a11,11,0,0,0-2.44-.81h0a10.43,10.43,0,0,0,2.45-.77h0v-3.2Zm-6.87,2.85h-4.8v-1.23a37.93,37.93,0,0,1,4.45-.22h.75a37,37,0,0,1,4.37.23v1C69.69,121.18,68.08,121.26,66.28,121.28Z"/></g></g></svg>