<svg xmlns="http://www.w3.org/2000/svg" viewBox="0 0 262.85 157.38"><defs><style>.cls-1{fill:#fff;}</style></defs><g id="Layer_2" data-name="Layer 2"><g id="Layer_1-2" data-name="Layer 1"><path class="cls-1" d="M192.53,1.15c-1,1.34-4.75,5.88-12.68,10.89,2.72-2.73,4.55-5.9,4.63-8.44,0-.4,0-.33-.28,0s-6,5.93-10.9,8.12A4.83,4.83,0,0,0,174,8.67c0-.22-.08-.23-.28,0a48.41,48.41,0,0,1-11.59,7.17,6.17,6.17,0,0,0,1.71-3.08c.06-.25-.12-.11-.38,0a37,37,0,0,0-8.08,4.09,43.23,43.23,0,0,1-12.73,5.24,36.59,36.59,0,0,0-10.06,4.58l-4.17,2.57a22.23,22.23,0,0,0-9.4-.91l-.13,0c-8.48-2-20.78-3.52-23.59-4-3.34-.57-14-.47-37.85-18.83-.32-.32-.4,0-.1.65s1.93,6.28,11.25,12.64c-4.17-.91-9.32-2.79-11.35-4.09-.58-.34-.35.08-.08.45s2.65,6,12.64,8.51c2.63.63,9.29,2.52,10.28,2.74A97.56,97.56,0,0,1,70,25c-.49-.18-.45-.08.22.43s5.2,5.55,16.85,6c2.46.07,10.37.05,12.54.66-2.82.1-6,1.21-6.58,1.92-.28.29-.12.26.42.39A90.4,90.4,0,0,0,111.17,36h.27s-3.24,1.28-4.86,2.18a37.83,37.83,0,0,1-4.94,2.42,19.7,19.7,0,0,0,5.67,4.2,8.82,8.82,0,0,0,3.12,1.15c.29.22,2,1.38,6.1.94A5.45,5.45,0,0,0,121,47c.34-1.24,1-2.81,1.07-3.1a13.45,13.45,0,0,0,.86-3.46,35.76,35.76,0,0,0,5.49,0,4.68,4.68,0,0,1,2.16.06,19.92,19.92,0,0,1,3.68,1.77c1.48,1,5.73,4.36,4.72,7.64,1.89-.1,4.34-1.23,3.91-4.76a5.64,5.64,0,0,0-.64-5.53c-1.36-2.19-2.86-4.37-3.12-4.64-.11-.12,0-.17.29-.36a71.92,71.92,0,0,1,23.11-11C182.65,18,191,9.13,193.37.43,193.57-.26,193.51-.19,192.53,1.15ZM141.44,41.87c.9.41.72,2.37.53,1.89S140.55,41.46,141.44,41.87Zm-33.34,77c-.07.93,0,1.29-1.08,1.79a14.76,14.76,0,0,1-6.46,1.29c-3,0-6.44-.56-8.86-2.07A8.53,8.53,0,0,1,87.42,113c0-2.76,1.69-5.27,4.35-6.92a19,19,0,0,1,9.46-2.34,23.92,23.92,0,0,1,5,.58c.91.23.91.34,1.08,1.12l.27,1.42a3.33,3.33,0,0,1,.13.81c0,.31-.27.48-.63.48-1.55,0-1.66-3.33-6.2-3.33a7.46,7.46,0,0,0-5.56,2.52,8.38,8.38,0,0,0-1.85,5.41,8.92,8.92,0,0,0,1.68,5.36,7.18,7.18,0,0,0,5.73,2.79,6.35,6.35,0,0,0,3.53-1.06,8.37,8.37,0,0,0,2.23-2.57.92.92,0,0,1,.84-.59c.74,0,.71.64.67,1.06Zm20.58-13.75c.47-.92.5-1.42,1.85-1.42,1.11,0,1.08.33,1.48,1.12L139,118.38a8.24,8.24,0,0,0,.84,1.43,1.63,1.63,0,0,0,1.39.67c.57,0,1.21-.06,1.21.58s-.68.59-1.15.59c-1.41,0-2.76-.11-4.11-.11-1.68,0-3.3.11-4.92.11-.47,0-1.07-.06-1.07-.59,0-.94,2.35-.17,2.35-1.17a2.75,2.75,0,0,0-.33-1.06l-1.08-2.26c-.44-1-.34-.92-1.55-.92h-4.41c-1.18,0-1.08-.05-1.48.84a7.48,7.48,0,0,0-.74,2.54c0,2,3.33.78,3.33,2,0,.5-.64.59-1.11.59-1,0-2.12-.06-3.17-.06s-2.12.06-3.16.06c-.51,0-1.05-.09-1.05-.59s.51-.53,1-.58c1-.14,1.31-.2,1.82-1s1-2.11,1.41-2.89l1.85-3.85Zm-2.53,8.15a3.74,3.74,0,0,0-.3.81c0,.39.7.28,1,.28h2.93c.24,0,1.11.11,1.11-.22a3.89,3.89,0,0,0-.3-.71l-2.22-4.77Zm41.13-5.69c0,.44.06,1.06-.68,1.06-.57,0-.77-.39-.91-.76-.64-1.56-1.64-3-3.87-3-1.75,0-3.8.89-3.8,2.52,0,1.47,1.65,2,3.09,2.42l1.72.47c3.37.9,6,2.32,6,5.56a5.66,5.66,0,0,1-2.69,4.46A10.91,10.91,0,0,1,160,122a18.35,18.35,0,0,1-5.7-.93c-1.07-.45-1-.8-1-1.73v-1.53c0-.44-.14-1.51.67-1.51s1,.84,1.15,1.32a4.36,4.36,0,0,0,1.35,2.31,5.63,5.63,0,0,0,3.5,1c2.12,0,4.58-.94,4.58-3,0-2.26-2.93-2.93-5-3.63-2.66-.92-5.93-2.18-5.93-5,0-3.68,4.89-5.63,8.76-5.63a14.39,14.39,0,0,1,4.37.72c.65.28.55.73.55,1.25Zm22.06,10.3c0,1.63-.14,2.31,2,2.59.44,0,1.08.14,1.08.64s-.37.53-.8.53c-1.76,0-3.44-.11-5.19-.11s-3.23.11-4.85.11c-.48,0-.81-.11-.81-.53s.51-.59.91-.64c2.22-.31,2.12-.78,2.12-2.59V108c0-1.7.2-2.42-1.95-2.73-.4-.06-1.08-.08-1.08-.56s.33-.53.81-.53c1.75,0,3.43.12,5.18.12s3.24-.12,4.82-.12c.47,0,.84.09.84.53s-.54.5-.94.56c-2.29.31-2.12.87-2.12,2.73Zm33.1-9.72a4.88,4.88,0,0,0-.27-2,2.13,2.13,0,0,0-1.82-1c-.57-.06-1.27.11-1.27-.49s.73-.6,1.24-.6c1,0,2,.06,3,.06s2-.06,3-.06c.5,0,.93.09.93.56,0,.67-1.14.47-1.71.53-1.58.17-1.38,1.51-1.38,2.6v13.22c0,.78.17,1.29-1,1.29-.84,0-1.28-.59-1.75-1.09L208.09,107.5v9.21a10.07,10.07,0,0,0,.24,2.71c.34.83,1,1,2,1.06.47,0,1.41,0,1.41.58s-.54.59-1,.59c-1.08,0-2.09-.11-3.16-.11s-2.17.11-3.21.11c-.47,0-.9-.14-.9-.59,0-.61.84-.56,1.38-.58a1.35,1.35,0,0,0,1.41-.84,9.78,9.78,0,0,0,.3-3.29v-8.68c0-1.09.14-2.34-1.54-2.43-.55,0-1.31,0-1.31-.58s.66-.51,1.14-.51h5.92c1.35,0,1.25.06,2.09.92l9.63,9.88Zm20.05,11.53a8.23,8.23,0,0,1-3.84-6.79,8.4,8.4,0,0,1,3.39-6.47,12.83,12.83,0,0,1,8.33-2.73c6.39,0,12.45,3.4,12.45,9.09,0,5.42-5.55,9.16-11.85,9.16A16.84,16.84,0,0,1,242.49,119.7ZM257,113.53c0-3.32-1.88-8.85-6.87-8.85-4.31,0-5.66,4.55-5.66,7.4a10.65,10.65,0,0,0,1.52,5.55,6.44,6.44,0,0,0,5.35,3.32C255.72,121,257,116.38,257,113.53ZM87.26,54v46.26H99.61V73.53l16.66,26.71h11.45V54H116.27V77.6L99.62,54Zm73.42,0H131v46.26h29.64V89.52H142.91V82.46H158.7V71.11H142.91V64.7h17.77Zm14.71,46.26V54H164v46.26ZM234.59,54h7.72l20.53,46.21H251.12l-3.3-7.85H229.1l-3.28,7.86H214Zm3.87,15.62-4.93,12h9.86ZM215.23,89.84a21.36,21.36,0,0,1-15,10,49.76,49.76,0,0,1-7.91.43h-13.7V53.94s12.66.11,18,0c6.31.3,12.73.65,17.52,7.78,5.43,7.9,5.8,16.17,2.81,24.44A21.11,21.11,0,0,1,215.23,89.84Zm-8-12.79a11.86,11.86,0,0,0-3.37-9c-3.56-3-8.1-3.81-13-3.43V89.52c4.86.37,9.4-.35,13-3.35a11.62,11.62,0,0,0,3.37-9Zm-192.44,77,2.64-3.18a9.34,9.34,0,0,0,6.08,2.48c1.84,0,2.94-.73,2.94-1.92v-.06c0-1.14-.69-1.72-4.1-2.59-4.1-1.05-6.75-2.18-6.75-6.23v-.06c0-3.69,3-6.14,7.13-6.14A11.81,11.81,0,0,1,30.33,139L28,142.34a9.59,9.59,0,0,0-5.3-2c-1.72,0-2.62.79-2.62,1.78v0c0,1.34.88,1.78,4.4,2.68C28.62,145.92,31,147.4,31,151V151c0,4.05-3.09,6.31-7.48,6.31A12.94,12.94,0,0,1,14.83,154.07Zm24.09-17.41h8.33c4.86,0,7.79,2.89,7.79,7.05v.06c0,4.71-3.66,7.15-8.23,7.15h-3.4V157H38.92Zm8,10.28c2.24,0,3.55-1.34,3.55-3.09v-.06c0-2-1.4-3.08-3.64-3.08H43.41v6.23Zm14.58,0v-.06a10.83,10.83,0,0,1,21.65-.06v.06a10.83,10.83,0,0,1-21.65.06Zm17,0v-.06a6.19,6.19,0,0,0-6.16-6.4,6.1,6.1,0,0,0-6.12,6.34v.06a6.19,6.19,0,0,0,6.17,6.4A6.09,6.09,0,0,0,78.5,146.91Zm12.76-10.25h9.31a8.08,8.08,0,0,1,5.93,2.07,6.39,6.39,0,0,1,1.75,4.66v.06a6.33,6.33,0,0,1-4.36,6.31l5,7.27h-5.24l-4.36-6.51H95.74V157H91.26Zm9,9.9c2.18,0,3.43-1.17,3.43-2.88v-.06c0-1.92-1.34-2.91-3.52-2.91H95.74v5.85Zm20.84-5.76h-6.2v-4.14H131.8v4.14h-6.2V157h-4.48Zm16.36,13.27,2.64-3.18a9.35,9.35,0,0,0,6.09,2.48c1.83,0,2.93-.73,2.93-1.92v-.06c0-1.14-.69-1.72-4.1-2.59-4.1-1.05-6.75-2.18-6.75-6.23v-.06c0-3.69,3-6.14,7.13-6.14A11.86,11.86,0,0,1,153,139l-2.33,3.38a9.59,9.59,0,0,0-5.3-2c-1.71,0-2.62.79-2.62,1.78v0c0,1.34.88,1.78,4.4,2.68,4.13,1.08,6.46,2.56,6.46,6.11V151c0,4.05-3.09,6.31-7.48,6.31A12.94,12.94,0,0,1,137.48,154.07Zm24.1-17.41H171a7.39,7.39,0,0,1,5.33,1.81,4.66,4.66,0,0,1,1.39,3.46V142a4.73,4.73,0,0,1-2.67,4.39c2.35.91,3.81,2.27,3.81,5v.06c0,3.72-3,5.58-7.63,5.58h-9.68Zm11.72,6c0-1.34-1.05-2.1-2.94-2.1h-4.42v4.31h4.13c2,0,3.23-.64,3.23-2.15Zm-2.18,5.93h-5.18v4.49h5.32c2,0,3.18-.7,3.18-2.22v0C174.44,149.47,173.42,148.62,171.12,148.62Zm14.64-1.71v-.06a10.83,10.83,0,0,1,21.65-.06v.06a10.83,10.83,0,0,1-21.65.06Zm17,0v-.06a6.19,6.19,0,0,0-6.17-6.4,6.09,6.09,0,0,0-6.11,6.34v.06a6.19,6.19,0,0,0,6.17,6.4A6.09,6.09,0,0,0,202.73,146.91Zm11.85,0v-.06a10.83,10.83,0,0,1,21.65-.06v.06a10.83,10.83,0,0,1-21.65.06Zm17,0v-.06a6.19,6.19,0,0,0-6.17-6.4,6.09,6.09,0,0,0-6.11,6.34v.06a6.19,6.19,0,0,0,6.17,6.4A6.09,6.09,0,0,0,231.54,146.91Zm12.75-10.25h4.48v8.91l8.27-8.91h5.41l-8.29,8.65L262.83,157h-5.38l-6.32-8.67-2.36,2.45V157h-4.48Zm18.56-9.24h-248v2h248Zm-194-55A26.81,26.81,0,1,1,42,45.64,26.8,26.8,0,0,1,68.82,72.44Zm15.21,0c0,23.87-18.81,43.22-42,43.22S0,96.31,0,72.44,18.81,29.23,42,29.23,84,48.58,84,72.44Zm-12.86,0A29.16,29.16,0,1,0,42,101.27,29,29,0,0,0,71.17,72.44Z"/></g></g></svg>