<svg xmlns="http://www.w3.org/2000/svg" viewBox="0 0 23.99 22.28"><defs><style>.cls-1{fill:#fff;}</style></defs><g id="Layer_2" data-name="Layer 2"><g id="Layer_1-2" data-name="Layer 1"><path class="cls-1" d="M23.55,7.67l-11-7.5a1,1,0,0,0-1.13,0L.43,7.74A1,1,0,0,0,1,9.56H2.46V21.28a1,1,0,0,0,1,1h17a1,1,0,0,0,1-1V9.5H23a1,1,0,0,0,1-.71A1,1,0,0,0,23.55,7.67Zm-13,12.39,0-7h2.83v7ZM19.41,8.5V20.28H15.57l0-8.32a1.1,1.1,0,0,0-.32-.77,1.08,1.08,0,0,0-.76-.31h-5A1.07,1.07,0,0,0,8.45,12l0,8.33H4.46V8.56A1,1,0,0,0,4,7.72l8-5.51,7.93,5.41A1,1,0,0,0,19.41,8.5Z"/></g></g></svg>