<svg xmlns="http://www.w3.org/2000/svg" viewBox="0 0 22.08 23.1"><defs><style>.cls-1{fill:#fff;}</style></defs><g id="Layer_2" data-name="Layer 2"><g id="Layer_1-2" data-name="Layer 1"><path class="cls-1" d="M1,23.1a1,1,0,0,1-.7-.29A1,1,0,0,1,0,22.1C0,17.43,4.11,16,6.57,15.2a10.38,10.38,0,0,0,1.53-.6,3.09,3.09,0,0,0,.26-2,2.72,2.72,0,0,0-.51-.67A7.57,7.57,0,0,1,5.67,6.53,6.44,6.44,0,0,1,7.28,1.67,5.86,5.86,0,0,1,11.43,0C14,0,16.57,2.11,16.57,6.82a6.13,6.13,0,0,1-2.11,5.1c-.28.27-.52.5-.54.66a3.55,3.55,0,0,0,.54,2,8.23,8.23,0,0,0,1.44.6c2.31.84,6.18,2.23,6.18,6.68a1,1,0,0,1-1,1L1,23.1Zm8.92-7.67c-.34.86-1.33,1.2-2.71,1.66-2.5.85-4.63,1.76-5.11,4L20,20.9c-.46-2.09-2.43-3-4.75-3.81-1.26-.46-2.16-.78-2.53-1.55a5.48,5.48,0,0,1-.76-3.29,3.2,3.2,0,0,1,1.14-1.78,4.17,4.17,0,0,0,1.49-3.65C14.57,3.27,13,2,11.43,2A3.81,3.81,0,0,0,8.72,3.07a4.52,4.52,0,0,0-1.05,3.4,5.69,5.69,0,0,0,1.67,4.14,3.44,3.44,0,0,1,1,1.6,5.15,5.15,0,0,1-.4,3.22ZM8.06,14.7Z"/></g></g></svg>