<svg xmlns="http://www.w3.org/2000/svg" viewBox="0 0 34 34"><defs><style>.cls-1{fill:#fff;fill-rule:evenodd;}</style></defs><g id="Layer_2" data-name="Layer 2"><g id="Layer_1-2" data-name="Layer 1"><path id="icon_football" data-name="icon football" class="cls-1" d="M28.44,4.8l3.07-3.07c-1.4-1.4-4.3-2-7.77-1.63ZM6.37,26.87l3.31-3.31-1.3-1.29a1,1,0,0,1,0-1.43,1,1,0,0,1,1.39,0l1.3,1.3,1.66-1.67-1.3-1.3a1,1,0,0,1,.72-1.73,1,1,0,0,1,.71.3L14.2,19l1.67-1.66-1.3-1.3a1,1,0,0,1,0-1.43l0,0,0,0a1,1,0,0,1,1.43,0l1.3,1.3L19,14.22l-1.3-1.3a1,1,0,0,1,0-1.43,1,1,0,0,1,1.43,0l1.3,1.3,1.67-1.67-1.3-1.3a1,1,0,0,1,1.43-1.43l1.3,1.3L27,6.23,21.27.47A27.54,27.54,0,0,0,7.69,7.69h0A27.47,27.47,0,0,0,.53,21ZM.13,23.48c-.4,3.58.16,6.59,1.6,8L4.94,28.3ZM29.2,5.56,32.27,2.5c1.4,1.4,2,4.3,1.64,7.77ZM7.13,27.64l3.31-3.31,1.3,1.3a1,1,0,0,0,1.43-1.43l-1.3-1.3,1.67-1.67,1.3,1.3a1,1,0,0,0,1.73-.72,1,1,0,0,0-.3-.71L15,19.8l1.67-1.67,1.3,1.3a1,1,0,0,0,1.43,0l0,0,0,0a1,1,0,0,0,0-1.42l-1.3-1.3L19.8,15l1.3,1.3a1,1,0,0,0,1.43-1.44l-1.3-1.3,1.67-1.67,1.3,1.3a1,1,0,0,0,1.43-1.43l-1.3-1.3L27.78,7l5.75,5.75a27.39,27.39,0,0,1-7.22,13.57h0A27.49,27.49,0,0,1,13,33.48Zm3.4,6.24c-3.59.39-6.6-.17-8-1.6l3.21-3.22Z"/></g></g></svg>