<svg xmlns="http://www.w3.org/2000/svg" viewBox="0 0 42 20"><defs><style>.cls-1{fill:#d71f2b;}.cls-2{isolation:isolate;}.cls-3{fill:#fff;}</style></defs><g id="Layer_2" data-name="Layer 2"><g id="Layer_1-2" data-name="Layer 1"><path id="Rectangle_38808" data-name="Rectangle 38808" class="cls-1" d="M1,0H41a1,1,0,0,1,1,1v18.1A1,1,0,0,1,41,20H1a1,1,0,0,1-1-.95V1A1,1,0,0,1,1,0Z"/><g id="LIVE" class="cls-2"><g class="cls-2"><path class="cls-3" d="M6,15.71V4.29H7.88v9.82h4.84v1.6Z"/><path class="cls-3" d="M14.69,15.71V4.29h1.86V15.71Z"/><path class="cls-3" d="M26.08,4.29H28L24,15.71h-2l-4-11.42H20l2.39,7.1c.12.34.26.78.4,1.31s.23.93.27,1.19c.07-.39.17-.85.31-1.37s.26-.91.35-1.16Z"/><path class="cls-3" d="M36,15.71H29.52V4.29H36V5.87H31.39V9H35.7v1.56H31.39v3.59H36Z"/></g></g></g></g></svg>