<svg xmlns="http://www.w3.org/2000/svg" viewBox="0 0 275.11 275.1"><defs><style>.cls-1{fill:#182F3A;fill-rule:evenodd;}</style></defs><g id="Layer_2" data-name="Layer 2"><g id="Layer_1-2" data-name="Layer 1"><path class="cls-1" d="M216,24.71c-3.86-2.46-6.43-1.75-6.75-.6-.21.78.11,2,1.89,3.54,15.17,13.31,45.68,44.64,51.56,88.44,6.34,47.22-11.77,85.69-14.93,62.73-1.39-10.18-2.53-20.55-5.46-31.53-2.12-7.87-3.86-14.52-8.11-24.23a57,57,0,0,0-4.35-8c-9-13.68-21.44-12.18-28,.41C190.19,137.7,194,258.19,152.28,252c-16.34-2.43-12.51-21.42-15.44-69.24-5.48-89.45-59.56-94.19-53.35-97.85,7.52-4.42,25.41,4.47,56.14,5.67,18.84.73,46-2.51,51.66-11.59,5.36-8.69-1.39-24.85-20.91-39.44C153.84,27.16,133.91,21,149.62,16.73,156,15,169,14.42,179.94,15.68c6.2.72,13.16,2.06,16.84,2.45s4.66-1.92-.38-4.82C185.33,7.7,176.51,5.05,163.74,2.57,89.2-12,17,36.88,2.56,111.73c-12,62,19.16,122.44,72.69,149.47,6.73,3.39,10.39,4.51,11.11,2.68.19-.49-.11-1.21-.89-1.91-5.83-5.22-39.31-26.4-53.52-63.05-3.3-8.51-12.26-32-7.66-57.3,2.3-12.75,13.75-21.46,24.06-22.05,32.05-1.89,52,34.48,59.44,87s19.54,66.62,41.08,68.39c30,2.44,63-33.8,66.28-114,.36-8.9,1.85-12.65,4.89-12.61,3.81.06,11.78,27.25,13,60.61.61,17.29,4.94,27.23,16,11.23a153.2,153.2,0,0,0,23.44-55.83C283.29,108.45,260.19,54.78,216,24.71Z"/></g></g></svg>