<svg id="SiteIconsall-AtoZ" xmlns="http://www.w3.org/2000/svg" width="24.574" height="23.361" viewBox="0 0 24.574 23.361">
  <path id="Path_1871" data-name="Path 1871" d="M4.311,0H7.006l4.311,10.131H8.3L7.545,8.3H3.664L2.91,10.131H0ZM6.682,6.143,5.6,3.341l-1.186,2.8Z" transform="translate(0 0)" fill="#fff"/>
  <path id="Path_1872" data-name="Path 1872" d="M.5,20.161l5.712-6.467H.716V11h9.916v2.263L4.919,19.73h5.712v2.694H.5Z" transform="translate(0.039 0.856)" fill="#fff"/>
  <path id="Path_1873" data-name="Path 1873" d="M10.3,16.6l2.263-2.263,2.91,2.91h0V0H18.6V17.245l2.91-2.91L23.772,16.6h0l-4.419,4.419L17.09,23.28c-.108.108-.108.108-.108,0l-2.156-2.156q-2.1-2.263-4.527-4.527Z" transform="translate(0.801 0)" fill="#fff"/>
</svg>
