<svg xmlns="http://www.w3.org/2000/svg" viewBox="0 0 154.97 183.57"><defs><style>.cls-1,.cls-2{fill:#cccccb;}.cls-2{font-size:25.94px;font-family:CenturyGothic, Century Gothic;}</style></defs><g id="Layer_2" data-name="Layer 2"><g id="Layer_1-2" data-name="Layer 1"><path class="cls-1" d="M37.93,148.45c-6.22,0-11.14-1.81-14.62-5.37-4.34-4.43-6.54-11.22-6.54-20.17V88l4.85-.21,12.14-.49L39,87.12v32.66a11.32,11.32,0,0,0,1.14,5.71,2,2,0,0,0,1,.16,7.15,7.15,0,0,0,1-.07c1.75-.21,3-.69,3.5-1.36a7.45,7.45,0,0,0,1-4.38V101.08c0-1.84-.05-3.36-.15-4.5a9,9,0,0,0-.39-2.08,5.53,5.53,0,0,0-.67-1.33c-.47-.65-1.06-1.42-1.75-2.27-1.52-1.73-3.11-3.42-4.68-5s-3.34-3.29-5.08-5-3.72-3.66-5.61-5.69-3.94-4.42-6-7a21.27,21.27,0,0,1-5-10.74,79,79,0,0,1-.64-10.93v-21C16.77,3.32,30.16,0,38.14,0h0a38.76,38.76,0,0,1,5.7.46C52.75,1.78,59.26,5,63.19,9.89S69,21.4,69,29.73V58.54l-5.27-.22c-4-.16-7.89-.34-11.84-.51L47,57.59V30.24a12.23,12.23,0,0,0-1.13-5.74c-.31-.58-1.43-1-3.07-1.23a8.33,8.33,0,0,0-1.07-.07c-1.26,0-2.09,0-2.09,3.7V47.19a19.9,19.9,0,0,0,.38,4.91,8.48,8.48,0,0,0,1.54,2.67,80.35,80.35,0,0,0,9.61,10.52A149.71,149.71,0,0,1,62.16,76.37a30.17,30.17,0,0,1,3.63,4.92,25,25,0,0,1,2.32,5.52,32.36,32.36,0,0,1,1.1,6.28c.18,2.1.27,4.44.27,7.15v18.44c0,8-2,14.61-6.05,19.63S52.74,146.67,43.84,148A40.84,40.84,0,0,1,37.93,148.45ZM19.77,90.91v32c0,8.14,1.92,14.22,5.69,18.07,2.89,3,7.08,4.47,12.47,4.47A38.89,38.89,0,0,0,43.4,145c8.13-1.2,14.08-4.09,17.68-8.59s5.4-10.44,5.4-17.75V100.24c0-2.62-.09-4.88-.26-6.9a29.79,29.79,0,0,0-1-5.71,21.66,21.66,0,0,0-2-4.84,26.59,26.59,0,0,0-3.27-4.42A149.64,149.64,0,0,0,49.2,67.51a83,83,0,0,1-10-10.91,11.47,11.47,0,0,1-2-3.67,23.16,23.16,0,0,1-.5-5.74V26.9c0-5.91,2.56-6.7,5.07-6.7a12.13,12.13,0,0,1,1.45.09c2.73.33,4.53,1.27,5.36,2.79A15.2,15.2,0,0,1,50,30.24V54.72l2,.09q5.91.27,11.83.51l2.14.1V29.73c0-7.63-1.73-13.68-5.14-18S51.53,4.63,43.4,3.43A35.67,35.67,0,0,0,38.14,3C26,3,19.77,10.58,19.77,25.53v21a76.25,76.25,0,0,0,.61,10.52,18.38,18.38,0,0,0,4.35,9.26c2,2.55,4,4.84,5.84,6.84s3.7,3.86,5.49,5.58,3.48,3.36,5.13,5S44.44,87.14,46,89c.77,1,1.4,1.77,1.91,2.48a8.4,8.4,0,0,1,1,2.07,11.85,11.85,0,0,1,.55,2.81c.1,1.24.16,2.84.16,4.76v18.76a10.11,10.11,0,0,1-1.64,6.2c-1,1.35-2.89,2.2-5.53,2.52a10.89,10.89,0,0,1-1.34.09c-2.35,0-3.18-.91-3.6-1.59A14,14,0,0,1,36,119.78V90.24l-2.14.08-12.13.5Z"/><path class="cls-1" d="M112.8,148.45a42.8,42.8,0,0,1-5.15-.33c-.64-.08-1.3-.17-2-.28-7.24-1.17-14.46-2.26-21.45-3.26l-4.57-.65V4.79l4.65-.69c7.18-1,14.61-2.22,22.08-3.46l2-.3h0c8.49-1.07,14.68.37,18.93,4.41,4.72,4.49,7.07,12.25,7,23.06L134,56.87c-.06,6.19-1.39,11.27-4,15.11.17.16.33.33.5.5,3.41,3.62,5.1,9,5,16.12l-.36,33.82c-.11,10.41-3,17.8-8.57,22C123,147.11,118.45,148.45,112.8,148.45Zm-30.14-7.12,2,.28c7,1,14.25,2.1,21.51,3.27.63.1,1.25.19,1.86.26,7.29.89,12.79-.14,16.82-3.16,4.79-3.58,7.27-10.17,7.37-19.59l.36-33.82c.06-6.27-1.35-11-4.22-14-.41-.44-.85-.86-1.28-1.24L126,72.36l.87-1.11c2.64-3.38,4.07-8.36,4.13-14.41l.3-29.06c.1-9.94-1.93-17-6-20.86-3.55-3.38-8.94-4.56-16.48-3.6h0c-.62.08-1.26.17-1.9.28C99.39,4.84,92,6,84.75,7.07l-2.09.31Zm24.94-8.73a10.86,10.86,0,0,1-1.1-.06l-.48-.06-5.83-.83-1.29-.18L99.06,78l7.48.15c4.55.09,5.74,1.78,5.94,2.11.4.72,1.08,2.6,1,7.26l-.18,37.22c0,2.88-.46,4.85-1.36,6A5.24,5.24,0,0,1,107.6,132.6Zm-5.7-3.74,4.54.65.37.05c1.37.14,2.39-.08,2.8-.62.22-.28.72-1.24.74-4.2l.18-37.21c0-3.67-.43-5.19-.6-5.62a6.22,6.22,0,0,0-3.45-.74l-4.43-.09Zm-2.77-63.7.16-48.53,1.29-.18,5.94-.83.59-.07c3.34-.36,4.68.64,5.18,1.26s1.1,2.26,1.08,6.42l-.18,34.7c0,2.45-.36,4.15-1,5-.43.56-1.82,1.86-5.49,2Zm3.15-45.91-.14,42.82,4.42-.13c2.51-.08,3.22-.81,3.22-.82a8.39,8.39,0,0,0,.41-3.21l.18-34.69a14.36,14.36,0,0,0-.43-4.51,4.88,4.88,0,0,0-2.52-.18l-.47.06Z"/><text class="cls-2" transform="translate(0 175.62)">COLORADO</text></g></g></svg>