<svg xmlns="http://www.w3.org/2000/svg" viewBox="0 0 20 20"><defs><style>.cls-1{fill:#fff;}</style></defs><g id="Layer_2" data-name="Layer 2"><g id="Layer_1-2" data-name="Layer 1"><path class="cls-1" d="M18.92,1c-1.57-1.38-6-1.28-10,.28a13.81,13.81,0,0,0-4.74,3,13.87,13.87,0,0,0-3,4.89C-.31,13.17-.41,17.68,1,19s5.92,1.27,10-.28a14,14,0,0,0,4.79-3,14.3,14.3,0,0,0,3-4.75C20.33,6.93,20.45,2.32,18.92,1ZM3,18.76a2.75,2.75,0,0,1-1.31-.45,3,3,0,0,1-.48-1.47,14.39,14.39,0,0,1-.11-2l.11.12L5,18.76l.13.13A13.11,13.11,0,0,1,3,18.76ZM18.77,7c0,.14-.06.29-.08.44A14,14,0,0,1,15,15.06a13.77,13.77,0,0,1-8,3.7h0l-.48.06s0,0,0-.06l0-.06-5-5a.38.38,0,0,0-.13-.09l0,0,0-.32a1,1,0,0,0,0-.17A14,14,0,0,1,4.92,5,13.75,13.75,0,0,1,12.8,1.25l.11,0,.52-.06a.22.22,0,0,0,.05.08.39.39,0,0,0,.08.14l5,5s.07,0,.11.07a.54.54,0,0,0,.13.07C18.8,6.7,18.78,6.84,18.77,7Zm.13-1.66-.21-.22L14.86,1.25,14.7,1.1a12,12,0,0,1,2.21.15,3,3,0,0,1,1.34.48,2,2,0,0,1,.44,1A10,10,0,0,1,18.9,5.32Z"/><path class="cls-1" d="M13.54,6.4a.51.51,0,0,0-.72,0l-.71.72L11.4,6.4a.51.51,0,1,0-.72.72l.71.72L10,9.28l-.71-.71a.51.51,0,1,0-.72.72l.71.71L7.79,11.45l-.71-.72a.51.51,0,0,0-.72.72l.72.72-.72.72a.51.51,0,0,0,.72.72l.71-.72.72.72a.51.51,0,0,0,.72,0,.53.53,0,0,0,0-.72l-.72-.72L10,10.73l.71.71a.51.51,0,0,0,.72-.72L10.67,10l1.44-1.44.71.72a.51.51,0,0,0,.72,0,.52.52,0,0,0,0-.73l-.71-.71.71-.72A.51.51,0,0,0,13.54,6.4Z"/></g></g></svg>