<svg xmlns="http://www.w3.org/2000/svg" width="23.987" height="16.928" viewBox="0 0 23.987 16.928">
  <g id="SiteIconsall-Live" transform="translate(-0.237 -2.9)">
    <path id="Path_1866" data-name="Path 1866" d="M19.5,19.828l-1.5-1.5a9.551,9.551,0,0,0,2.893-6.964A9.551,9.551,0,0,0,18,4.4l1.5-1.5A12.094,12.094,0,0,1,19.5,19.828Z" transform="translate(1.268 0)" fill="#ff0000"/>
    <path id="Path_1867" data-name="Path 1867" d="M3.733,2.9a19.8,19.8,0,0,0,1.5,1.5A9.993,9.993,0,0,0,2.34,11.364a9.551,9.551,0,0,0,2.893,6.964l-1.5,1.5A11.989,11.989,0,0,1,3.733,2.9Z" transform="translate(0)" fill="#ff0000"/>
    <path id="Path_1868" data-name="Path 1868" d="M14.9,7.521,16.721,5.7a7.89,7.89,0,0,1,0,11.035L14.9,14.914A5.237,5.237,0,0,0,14.9,7.521Z" transform="translate(1.047 0.2)" fill="#ff0000"/>
    <path id="Path_1869" data-name="Path 1869" d="M8.274,14.907,6.453,16.728a7.663,7.663,0,0,1,0-10.928L8.274,7.621a5.354,5.354,0,0,0-1.5,3.75A4.416,4.416,0,0,0,8.274,14.907Z" transform="translate(0.28 0.207)" fill="#ff0000"/>
    <path id="Path_1870" data-name="Path 1870" d="M14.257,10.978A2.678,2.678,0,1,1,11.578,8.3,2.652,2.652,0,0,1,14.257,10.978Z" transform="translate(0.618 0.385)" fill="#ff0000"/>
  </g>
</svg>
