<svg xmlns="http://www.w3.org/2000/svg" viewBox="0 0 139.52 147.7"><defs><style>.cls-1{fill:#ffffff;}</style></defs><g id="Layer_2" data-name="Layer 2"><g id="Layer_1-2" data-name="Layer 1"><path class="cls-1" d="M139.49,13.22C139.48,3.7,135.72,0,126.19,0H17.33a35,35,0,0,0-4,.1C6.18,1,1.27,5.77.19,12.93c-1,6.79,2.16,13.24,8.67,15.66C12.48,29.94,13,32,13,35.23c-.13,34-.08,67.34-.24,101.31,0,3.92,4.3,10.09,5.32,9.83,1.76-.44,10.69-10.42,11.79-10.46S42,147.7,43.13,147.7s16.95-12.88,17.7-12.9S74.71,147.7,76,147.7c1.07,0,14.45-12.73,15.27-12.77S105,147.64,106.39,147.7s14.92-12.81,15.49-12.85,13.28,11.89,14.6,11.89c2.19,0,2.9-6.78,2.91-9.71C139.56,95.76,139.52,54.49,139.49,13.22ZM12.4,21.32c-4.34-.9-5-3.64-4.82-6.7.13-2.73.93-5.17,4.82-5.36Zm118.92,111c-1.57,0-8.82-7.27-9.68-7.26S108,136.51,106.45,136.53c-1.23,0-14-11.43-15.2-11.43S77.52,136.54,76,136.53c-1.17,0-13.83-11.43-15.15-11.43-1.66,0-16.18,12.08-17.52,12.08-1.15,0-11.63-12.08-13-12.08-1.07,0-8.42,6.36-9.62,6.36-1,0-.72-4.84-.72-6.4-.06-37.46,0-74.91-.11-112.37,0-3.59,1.05-5,4.79-5,33.3.1,66.61,0,99.91.08,5.68,0,7.28,1.72,7.29,7.57q0,56.43,0,112.86C131.86,129.61,132.11,132.36,131.32,132.36Z"/><path class="cls-1" d="M29.82,71.72V61.5h89.62V71.72Z"/><path class="cls-1" d="M29.9,32.25V22.62h89.63v9.63Z"/><path class="cls-1" d="M30,51.87V42.43h76.56v9.44Z"/><path class="cls-1" d="M29.93,91V81.38H106.5V91Z"/></g></g></svg>