<?xml version="1.0" encoding="utf-8"?>
<!-- Generator: Adobe Illustrator 24.2.3, SVG Export Plug-In . SVG Version: 6.00 Build 0)  -->
<svg version="1.1" id="Layer_1" xmlns="http://www.w3.org/2000/svg" xmlns:xlink="http://www.w3.org/1999/xlink" x="0px" y="0px"
	 viewBox="0 0 22.9 21.7" style="enable-background:new 0 0 22.9 21.7;" xml:space="preserve">
<style type="text/css">
	.st0{fill:#ffffff;}
</style>
<g>
	<path class="st0" d="M7.2,14.3c-1.7,0-3.5,0-5.2,0c0,0,0,0.1,0,0.1c0,0.1-0.1,0.2-0.1,0.3c-0.1,0.2-0.3,0.2-0.4,0.1
		c-0.1-0.1-0.2-0.1-0.2-0.2c-0.2-0.2-0.3-0.4-0.4-0.7c-0.3-0.7-0.5-1.4-0.6-2.1c-0.1-0.4-0.1-0.9-0.1-1.3c0-0.2,0-0.3,0.1-0.5
		c0-0.1,0.1-0.2,0.1-0.2c0.1-0.2,0.3-0.2,0.4-0.1c0.1,0,0.1,0.1,0.2,0.2c5.7-2.7,11.3-5.3,17-8c0,0,0,0,0,0
		c-0.3,0.3-0.4,0.7-0.5,1.1c-0.1,0.5-0.1,1.1-0.1,1.6c0,0.8,0.1,1.6,0.2,2.3c0.1,0.9,0.3,1.8,0.6,2.7c0.3,1.1,0.7,2.1,1.2,3.1
		c0.2,0.4,0.4,0.7,0.7,1c0.2,0.2,0.4,0.4,0.7,0.5c0,0,0,0,0,0c-1.8,0-3.6,0-5.4,0c0,0.1,0,0.1,0,0.2c0.1,0.4,0.2,0.8,0.3,1.2
		c0.1,0.2,0.1,0.4,0.1,0.7c0,0.4-0.2,0.7-0.4,0.9c0,0-0.1,0.1-0.2,0.1c-0.2,0.1-0.5,0.2-0.7,0.2c-1.7,0-3.4,0-5.1,0
		c-0.2,0-0.3,0-0.5,0c-0.1,0-0.1,0-0.2,0c-0.1-0.1-0.2-0.1-0.4-0.2c-0.3-0.2-0.4-0.5-0.5-0.9c-0.2-0.6-0.3-1.3-0.4-2
		C7.2,14.4,7.2,14.3,7.2,14.3z M14.4,16.2c-0.1-0.7-0.3-1.3-0.4-2c-0.2,0-5.4,0-5.5,0c0.1,0.7,0.3,1.3,0.4,2
		C10.7,16.3,12.6,16.3,14.4,16.2z"/>
	<path class="st0" d="M21.6,7.5c0.2,1.1,0.4,2.2,0.4,3.2c0,0.7,0,1.3-0.1,2c0,0.2-0.1,0.4-0.2,0.7c0,0.1-0.1,0.3-0.2,0.4
		c-0.2,0.3-0.5,0.3-0.8,0.2c-0.2-0.1-0.3-0.2-0.4-0.3c-0.3-0.3-0.5-0.6-0.7-0.9c-0.3-0.6-0.6-1.1-0.8-1.8c-0.3-0.9-0.6-1.8-0.8-2.8
		c-0.2-1.1-0.4-2.2-0.4-3.3c0-0.6,0-1.1,0.1-1.7c0-0.2,0.1-0.4,0.2-0.6c0-0.1,0.1-0.2,0.2-0.4c0.2-0.3,0.5-0.4,0.8-0.2
		c0.1,0.1,0.3,0.2,0.4,0.3c0.3,0.3,0.5,0.6,0.7,0.9c0.4,0.6,0.6,1.3,0.9,1.9C21.2,6,21.4,6.7,21.6,7.5z"/>
	<path class="st0" d="M21.5,14.2C21.5,14.1,21.5,14.1,21.5,14.2c0.2-0.2,0.4-0.4,0.5-0.6c0.1-0.2,0.2-0.5,0.2-0.7
		c0.1-0.6,0.2-1.2,0.2-1.9c0-0.7,0-1.3-0.1-2c-0.1-0.8-0.3-1.6-0.5-2.4c-0.3-1.1-0.7-2.2-1.4-3.2c-0.3-0.4-0.5-0.8-0.8-1.1
		C19.5,2,19.3,1.8,19,1.7c-0.1,0-0.2-0.1-0.3-0.1c0.1,0,0.2,0,0.3,0c0.3,0.1,0.5,0.2,0.7,0.4c0.4,0.3,0.7,0.7,1,1.2
		c0.4,0.6,0.7,1.2,0.9,1.8c0.4,1,0.7,2,0.9,3.1c0.2,1.2,0.3,2.5,0.2,3.7c-0.1,0.6-0.2,1.1-0.4,1.6c-0.1,0.3-0.3,0.5-0.5,0.7
		C21.7,14.1,21.6,14.1,21.5,14.2z"/>
</g>
</svg>
