<svg xmlns="http://www.w3.org/2000/svg" viewBox="0 0 22.88 23"><defs><style>.cls-1{fill:#ffffff;}</style></defs><g id="Layer_2" data-name="Layer 2"><g id="Layer_1-2" data-name="Layer 1"><path class="cls-1" d="M22.77,17.9,19.5,13.57a9.13,9.13,0,0,0,1.08-4.32A9.25,9.25,0,1,0,3.25,13.74L.12,17.9a.51.51,0,0,0-.09.16.58.58,0,0,0,.36.73l3.28,1.12,2,2.84a.8.8,0,0,0,.13.13.59.59,0,0,0,.81-.11l3.31-4.4a9.76,9.76,0,0,0,1.44.12A9.8,9.8,0,0,0,13,18.34l3.34,4.43a.5.5,0,0,0,.13.12.58.58,0,0,0,.8-.14l2-2.84,3.27-1.12a.8.8,0,0,0,.16-.08A.58.58,0,0,0,22.77,17.9ZM6.13,21.43,4.51,19.09a.61.61,0,0,0-.29-.21L1.52,18l2.41-3.2a9.19,9.19,0,0,0,4.72,3.33ZM3.24,9.24a8.09,8.09,0,1,1,8.09,8.1A8.09,8.09,0,0,1,3.24,9.24Zm15.43,9.64h0a.58.58,0,0,0-.28.21l-1.63,2.34L14.19,18a9.27,9.27,0,0,0,4.66-3.42L21.36,18Z"/><path class="cls-1" d="M17.14,8a.88.88,0,0,0-.74-1l-2.89-.42L12.22,3.93a.86.86,0,0,0-.78-.49.88.88,0,0,0-.79.49L9.36,6.54,6.47,7A.87.87,0,0,0,6,8.45l2.09,2-.49,2.88a.84.84,0,0,0,.09.56.87.87,0,0,0,1.18.36l2.58-1.36L14,14.29a.79.79,0,0,0,.4.1h.14a.87.87,0,0,0,.72-1l-.49-2.88,2.09-2A.92.92,0,0,0,17.14,8ZM14,9.81a.88.88,0,0,0-.25.77l.45,2.64L11.85,12A.83.83,0,0,0,11,12L8.67,13.22l.45-2.64a.88.88,0,0,0-.25-.77L7,7.94l2.66-.38a.85.85,0,0,0,.65-.48l1.19-2.4,1.18,2.4a.88.88,0,0,0,.66.48l2.65.38Z"/><polygon class="cls-1" points="14.43 14.39 14.43 14.39 14.43 14.39 14.43 14.39"/></g></g></svg>