<svg xmlns="http://www.w3.org/2000/svg" width="74.958" height="102.747" viewBox="0 0 74.958 102.747">
  <g id="Group_2562" data-name="Group 2562" transform="translate(-205.833 -1697.571)">
    <path id="Path_2234" data-name="Path 2234" d="M307.689,1756.652a32.741,32.741,0,1,0,2.565,12.7A32.531,32.531,0,0,0,307.689,1756.652Zm-30.071,44.058a31.354,31.354,0,1,1,31.355-31.354A31.39,31.39,0,0,1,277.617,1800.71Z" transform="translate(-34.306 -34.305)" fill="#001e61"/>
    <path id="Path_2235" data-name="Path 2235" d="M277.845,1749.639a37.5,37.5,0,1,0-61.035,11.913,37.777,37.777,0,0,0,4.233,3.649L208.6,1789.42a.641.641,0,0,0,.807.889l14.72-5.848,3.821,15.37a.641.641,0,0,0,.548.482.629.629,0,0,0,.074,0,.641.641,0,0,0,.57-.348l14.094-27.441h.15l14.094,27.441a.641.641,0,0,0,.57.348.632.632,0,0,0,.074,0,.641.641,0,0,0,.548-.482l3.821-15.37,14.719,5.848a.641.641,0,0,0,.807-.889l-12.439-24.22a37.763,37.763,0,0,0,4.233-3.648A37.364,37.364,0,0,0,277.845,1749.639Zm-49.063,48.226L225.2,1783.44a.641.641,0,0,0-.859-.441l-13.814,5.488,11.574-22.534a37.3,37.3,0,0,0,19.713,6.547Zm47.317-9.378L262.286,1783a.641.641,0,0,0-.859.441l-3.586,14.425L244.813,1772.5a37.3,37.3,0,0,0,19.713-6.547Zm-32.3-17.243h-.039l-.445,0-.446,0h-.039a36.2,36.2,0,1,1,.969,0Z" transform="translate(0 0)" fill="#000038"/>
    <path id="Path_2236" data-name="Path 2236" d="M305.745,1858.111a3.3,3.3,0,0,1-.011-.911,11.005,11.005,0,0,1,.595-1.714,6.388,6.388,0,0,0,.165-1.8,7.452,7.452,0,0,0-.257-1.927,1.474,1.474,0,0,0-.173-.073,3.955,3.955,0,0,0-.987,1.509,4.188,4.188,0,0,0-.327,1.791c.044.657.312,1.38.349,2.03.007.084-.015.165-.011.246a30.691,30.691,0,0,1-3.157-5.158,3,3,0,0,1,.209-1.013,11.011,11.011,0,0,1,.951-1.406,5.308,5.308,0,0,0,.543-1.593,6.442,6.442,0,0,0,.143-1.82c-.051-.033-.106-.066-.158-.1a3.711,3.711,0,0,0-1.255,1.146,3.814,3.814,0,0,0-.69,1.549c-.1.606,0,1.322-.107,1.913a3.25,3.25,0,0,1-.1.323,31.03,31.03,0,0,1-1.846-5.557,3,3,0,0,1,.459-1.094,9.833,9.833,0,0,1,1.189-1.05,4.512,4.512,0,0,0,.822-1.336,5.551,5.551,0,0,0,.47-1.663l-.132-.132a3.344,3.344,0,0,0-1.406.76,3.408,3.408,0,0,0-.954,1.263c-.209.532-.257,1.215-.477,1.729a2.633,2.633,0,0,1-.217.371,31.3,31.3,0,0,1-.558-5.7,2.939,2.939,0,0,1,.753-1.134,9.123,9.123,0,0,1,1.318-.679,3.879,3.879,0,0,0,1.021-1.053,5.054,5.054,0,0,0,.742-1.469c-.033-.055-.066-.107-.1-.161a3.319,3.319,0,0,0-2.584,1.333c-.3.451-.466,1.079-.771,1.505a2.334,2.334,0,0,1-.356.378,31.868,31.868,0,0,1,.694-5.576c.018-.029.037-.055.055-.084a2.866,2.866,0,0,1,1.043-1.054,8.254,8.254,0,0,1,1.347-.312,3.253,3.253,0,0,0,1.142-.764,4.684,4.684,0,0,0,.962-1.248c-.022-.058-.04-.121-.062-.183a2.666,2.666,0,0,0-1.413.008,2.624,2.624,0,0,0-1.223.646c-.36.363-.639.925-1,1.248a2.2,2.2,0,0,1-.51.345,31.552,31.552,0,0,1,1.964-5.37c.015.022.033.04.048.063.07-.073.143-.143.213-.217a2.583,2.583,0,0,1,1.164-.76,7.551,7.551,0,0,1,1.285.026,2.826,2.826,0,0,0,1.2-.477,4.459,4.459,0,0,0,1.142-1.013c0-.066-.011-.132-.015-.195a2.32,2.32,0,0,0-1.285-.323,2.287,2.287,0,0,0-1.248.345c-.4.271-.778.752-1.175.98a1.866,1.866,0,0,1-.606.235c.007-.04.007-.077.015-.118a31.456,31.456,0,0,1,5.1-6.964,32.025,32.025,0,0,0-4.992,6.2c0-.066.033-.144.033-.209a8.5,8.5,0,0,0,.011-1.4,4.52,4.52,0,0,0-1.032-2.441l-.209.077a6.343,6.343,0,0,0-.874,3.245,4.944,4.944,0,0,0,.279,1.321,3.393,3.393,0,0,0,.595,1.156c.037.052.073.1.114.151a31.579,31.579,0,0,0-1.979,4.625c0-.015,0-.033,0-.051a12.917,12.917,0,0,0-.367-1.442,5.4,5.4,0,0,0-1.63-2.353l-.184.121a6.852,6.852,0,0,0-.033,3.542,5.57,5.57,0,0,0,.62,1.318,3.989,3.989,0,0,0,.892,1.087.211.211,0,0,1,.029.026,32.023,32.023,0,0,0-.852,4.78,11.9,11.9,0,0,0-.7-1.366,6.394,6.394,0,0,0-2.221-2.14c-.051.052-.1.1-.154.158a7.522,7.522,0,0,0,.863,3.663,6.4,6.4,0,0,0,.965,1.241,4.47,4.47,0,0,0,1.09.874,32.454,32.454,0,0,0,.228,4.772,13.783,13.783,0,0,0-.995-1.182,7.665,7.665,0,0,0-2.786-1.8c-.04.063-.077.125-.118.187a8.215,8.215,0,0,0,1.806,3.587,7.043,7.043,0,0,0,1.3,1.083,4.705,4.705,0,0,0,1.2.61,32.266,32.266,0,0,0,1.285,4.585c-.415-.33-.822-.668-1.252-.951a8.9,8.9,0,0,0-3.315-1.31c-.026.07-.048.139-.073.209a9.093,9.093,0,0,0,2.768,3.3,7.977,7.977,0,0,0,1.626.844,5.24,5.24,0,0,0,1.244.342,32,32,0,0,0,2.327,4.214c-.492-.235-.98-.484-1.472-.668a10.684,10.684,0,0,0-3.777-.7c-.007.077-.015.15-.022.228a10.17,10.17,0,0,0,3.73,2.8,9.228,9.228,0,0,0,1.924.525,5.958,5.958,0,0,0,1.244.081,33,33,0,0,0,2.228,2.555l1.259-1.259A31.712,31.712,0,0,1,305.745,1858.111Z" transform="translate(-77.491 -104.341)" fill="#000038"/>
    <path id="Path_2237" data-name="Path 2237" d="M619.652,1849.761c-.429.283-.837.62-1.252.951a32.278,32.278,0,0,0,1.285-4.585,4.7,4.7,0,0,0,1.2-.61,7.021,7.021,0,0,0,1.3-1.083,8.214,8.214,0,0,0,1.806-3.587c-.04-.062-.077-.125-.117-.187a7.671,7.671,0,0,0-2.786,1.8,13.869,13.869,0,0,0-.995,1.182,32.434,32.434,0,0,0,.228-4.772,4.462,4.462,0,0,0,1.09-.874,6.407,6.407,0,0,0,.965-1.241,7.524,7.524,0,0,0,.863-3.663l-.154-.154a6.4,6.4,0,0,0-2.221,2.14,11.927,11.927,0,0,0-.7,1.366,32.049,32.049,0,0,0-.852-4.779.2.2,0,0,1,.029-.026,4,4,0,0,0,.892-1.086,5.579,5.579,0,0,0,.62-1.318,6.9,6.9,0,0,0-.037-3.543c-.062-.041-.125-.077-.187-.118a5.406,5.406,0,0,0-1.63,2.353,11.276,11.276,0,0,0-.36,1.45c0,.018,0,.037,0,.052a31.552,31.552,0,0,0-1.978-4.625c.04-.051.077-.1.114-.151a3.39,3.39,0,0,0,.595-1.156,4.941,4.941,0,0,0,.279-1.321,6.345,6.345,0,0,0-.874-3.245l-.209-.077a4.52,4.52,0,0,0-1.031,2.441,8.508,8.508,0,0,0,.011,1.4c0,.066.029.144.033.209a32,32,0,0,0-4.992-6.2,31.461,31.461,0,0,1,5.1,6.964c0,.037.007.077.015.114a1.873,1.873,0,0,1-.606-.235c-.4-.228-.771-.709-1.175-.98a2.287,2.287,0,0,0-1.248-.345,2.317,2.317,0,0,0-1.285.323c0,.062-.011.128-.015.194a4.461,4.461,0,0,0,1.142,1.013,2.827,2.827,0,0,0,1.2.477,7.5,7.5,0,0,1,1.285-.026,2.577,2.577,0,0,1,1.164.76c.07.073.143.143.213.216.015-.022.033-.041.048-.062a30.7,30.7,0,0,1,1.957,5.367,2.182,2.182,0,0,1-.51-.345c-.363-.323-.642-.885-1-1.248a2.626,2.626,0,0,0-1.222-.646,2.669,2.669,0,0,0-1.413-.007c-.022.063-.041.125-.063.184a4.693,4.693,0,0,0,.962,1.248,3.248,3.248,0,0,0,1.142.764,8.277,8.277,0,0,1,1.347.312,2.869,2.869,0,0,1,1.043,1.053c.018.029.037.055.055.085a31.824,31.824,0,0,1,.694,5.576,2.323,2.323,0,0,1-.356-.378c-.3-.426-.473-1.054-.771-1.505a3.323,3.323,0,0,0-2.584-1.333c-.033.055-.066.107-.1.162a5.048,5.048,0,0,0,.742,1.469,3.891,3.891,0,0,0,1.02,1.054,9.083,9.083,0,0,1,1.318.679,2.942,2.942,0,0,1,.752,1.134,31.308,31.308,0,0,1-.558,5.7,2.644,2.644,0,0,1-.217-.371c-.22-.514-.268-1.2-.477-1.729a3.407,3.407,0,0,0-.954-1.263,3.343,3.343,0,0,0-1.406-.76l-.132.132a5.546,5.546,0,0,0,.47,1.663,4.512,4.512,0,0,0,.822,1.336,9.811,9.811,0,0,1,1.189,1.05,3,3,0,0,1,.459,1.094,31.034,31.034,0,0,1-1.846,5.558,3.309,3.309,0,0,1-.1-.323c-.107-.591-.011-1.307-.107-1.912a3.817,3.817,0,0,0-.69-1.549,3.713,3.713,0,0,0-1.255-1.146c-.051.037-.107.07-.158.1a6.445,6.445,0,0,0,.143,1.821,5.31,5.31,0,0,0,.543,1.593,10.955,10.955,0,0,1,.951,1.406,3,3,0,0,1,.209,1.013,30.692,30.692,0,0,1-3.157,5.157c0-.081-.018-.162-.011-.246.037-.65.3-1.373.349-2.03a4.187,4.187,0,0,0-.327-1.791,3.96,3.96,0,0,0-.987-1.509c-.059.022-.117.044-.165.066a7.468,7.468,0,0,0-.257,1.928,6.392,6.392,0,0,0,.165,1.8,10.993,10.993,0,0,1,.595,1.714,3.292,3.292,0,0,1-.011.91,31.635,31.635,0,0,1-2.548,2.771l1.259,1.259a33.062,33.062,0,0,0,2.228-2.555,5.918,5.918,0,0,0,1.245-.081,9.2,9.2,0,0,0,1.923-.525,10.164,10.164,0,0,0,3.73-2.8c-.007-.077-.015-.151-.022-.228a10.69,10.69,0,0,0-3.777.7c-.492.183-.98.433-1.472.668a31.967,31.967,0,0,0,2.327-4.214,5.216,5.216,0,0,0,1.244-.341,7.986,7.986,0,0,0,1.626-.844,9.091,9.091,0,0,0,2.768-3.3c-.026-.07-.048-.14-.073-.209A8.9,8.9,0,0,0,619.652,1849.761Z" transform="translate(-354.139 -104.394)" fill="#000038"/>
    <path id="Path_2238" data-name="Path 2238" d="M409.9,1905.113a.335.335,0,0,1,.122-.374l8.552-6.214a.335.335,0,0,0-.2-.605H407.81a.334.334,0,0,1-.318-.231l-3.267-10.054a.335.335,0,0,0-.636,0l-3.267,10.054a.334.334,0,0,1-.318.231H389.433a.335.335,0,0,0-.2.605l8.552,6.214a.335.335,0,0,1,.121.374l-3.267,10.054a.335.335,0,0,0,.515.374l8.552-6.214a.335.335,0,0,1,.393,0l8.552,6.214a.335.335,0,0,0,.515-.374Z" transform="translate(-160.595 -166.351)" fill="#000038"/>
  </g>
</svg>
