<?xml version="1.0" encoding="utf-8"?>
<!-- Generator: Adobe Illustrator 24.3.0, SVG Export Plug-In . SVG Version: 6.00 Build 0)  -->
<svg version="1.1" id="Layer_1" xmlns="http://www.w3.org/2000/svg" xmlns:xlink="http://www.w3.org/1999/xlink" x="0px" y="0px"
	 viewBox="0 0 800 800" style="enable-background:new 0 0 800 800;" xml:space="preserve">
<style type="text/css">
	.st0{fill:#fff;}
</style>
<g>
	<path id="Path_1" class="st0" d="M379.48,399.34c-32.11-18.05-68.41-27.33-105.24-26.89c-32.94-0.42-65.47,7.31-94.7,22.5
		c-22.2,11.59-41.66,27.81-57.05,47.57V235.76c0.99-13.86-9.45-25.89-23.31-26.88c-1.19-0.08-2.38-0.08-3.57,0
		c-7.06-0.2-13.92,2.38-19.09,7.19c-5.28,5.15-8.11,12.32-7.78,19.69v346.58c0.11,36.22,9.78,71.77,28.01,103.07
		c17.7,30.45,43.31,55.55,74.1,72.64c65.19,35.11,143.72,34.83,208.65-0.74c30.95-17.52,56.55-43.14,74.05-74.1
		c35.85-65.33,35.85-144.44,0-209.77C436.03,442.48,410.43,416.87,379.48,399.34z M426.72,577.95c0.35,27.69-6.59,54.98-20.11,79.14
		c-42.9,72.98-136.54,97.85-210,55.79c-22.8-13.37-41.58-32.63-54.36-55.76c-26.35-49.49-26.35-108.85,0-158.34
		c12.73-23.06,31.51-42.2,54.33-55.36c48.32-26.79,107.03-26.79,155.35,0c22.87,13.24,41.77,32.38,54.71,55.42
		C420.14,523,427.07,550.28,426.72,577.95z"/>
	<g>
		<path class="st0" d="M750.98,366.32c-0.91-8.84-8.86-15.31-17.68-14.41l-182.07,18.53c-8.86,0.72-15.49,8.51-14.77,17.37
			c0.68,8.37,7.71,14.83,15.99,14.83c0.65,0,1.3-0.02,1.96-0.09L736.56,384c4.28-0.43,8.14-2.51,10.87-5.84
			c2.68-3.28,3.94-7.39,3.57-11.6L750.98,366.32z"/>
		<path class="st0" d="M591.72,16.19c-3.99-1.62-8.38-1.59-12.35,0.09c-3.97,1.68-7.05,4.8-8.67,8.79l-101.54,250
			c-1.62,3.99-1.6,8.37,0.08,12.34c1.67,3.97,4.79,7.05,8.78,8.67l0.01,0.01c1.96,0.8,4.02,1.2,6.08,1.2c2.12,0,4.25-0.42,6.26-1.27
			c3.97-1.67,7.05-4.79,8.68-8.8L600.6,37.21C603.94,28.97,599.96,19.55,591.72,16.19z"/>
		<path class="st0" d="M678.8,146.51L678.8,146.51c4.81,1.98,9.79,2.92,14.7,2.92c15.19,0,29.64-9.01,35.79-23.89
			c3.94-9.54,3.93-20.05-0.03-29.59c-3.96-9.53-11.4-16.96-20.94-20.9c-19.7-8.13-42.35,1.28-50.48,20.97
			C649.7,115.73,659.11,138.38,678.8,146.51z M697.84,100.42c2.77,1.14,4.92,3.29,6.07,6.06c1.15,2.77,1.15,5.81,0.01,8.58
			c-2.36,5.71-8.93,8.44-14.63,6.08c-5.7-2.36-8.43-8.93-6.08-14.64c1.14-2.77,3.29-4.92,6.06-6.07
			C692.03,99.28,695.07,99.28,697.84,100.42z"/>
		<path class="st0" d="M438.16,87.22c-11.71-4.84-24.61-4.83-36.31,0.03c-24.16,10.03-35.66,37.84-25.63,62
			c7.57,18.23,25.27,29.26,43.88,29.26c6.05,0,12.2-1.16,18.12-3.62c11.71-4.86,20.82-13.99,25.66-25.69
			c4.81-11.55,4.8-24.79-0.03-36.32C458.99,101.17,449.86,92.06,438.16,87.22z M434.07,136.86L434.07,136.86
			c-3.2,7.75-12.09,11.45-19.83,8.25c-7.74-3.19-11.43-12.09-8.24-19.82c2.41-5.85,8.08-9.39,14.05-9.39c1.93,0,3.88,0.37,5.77,1.15
			c3.7,1.52,6.69,4.52,8.23,8.22C435.6,128.95,435.6,133.17,434.07,136.86z"/>
		<path class="st0" d="M580.34,227.32l-0.33,0.67v0.31c-1.17,3.85-0.87,7.95,0.87,11.61c1.82,3.81,4.98,6.71,8.93,8.18l0.15,0.06
			c0.03,0.01,0.05,0.02,0.08,0.03l26.96,9.56l-9.33,27.02c-1.41,4.07-1.14,8.45,0.74,12.32c1.88,3.87,5.16,6.78,9.24,8.19
			c1.73,0.6,3.51,0.89,5.28,0.89c2.41,0,4.81-0.55,7.04-1.63c3.87-1.88,6.78-5.17,8.19-9.24l9.26-26.78l26.71,9.46
			c4.06,1.44,8.44,1.21,12.33-0.64c3.89-1.85,6.82-5.11,8.26-9.17c2.97-8.38-1.43-17.62-9.81-20.59l-26.95-9.55l9.33-27.03
			c2.9-8.41-1.58-17.61-9.99-20.52c-8.39-2.9-17.61,1.57-20.52,9.98l-9.25,26.79l-26.7-9.46
			C592.56,214.83,583.41,219.11,580.34,227.32z"/>
		<path class="st0" d="M301.46,166.58c-3.5-8.18-12.99-11.99-21.18-8.49c-3.96,1.69-7.03,4.83-8.63,8.83
			c-1.6,4-1.55,8.38,0.14,12.35l56.86,132.97v0c2.62,6.11,8.59,9.78,14.85,9.78c2.11,0,4.26-0.42,6.32-1.3
			c3.96-1.69,7.03-4.83,8.63-8.83c1.6-4,1.55-8.38-0.14-12.34L301.46,166.58z"/>
	</g>
</g>
</svg>
