<svg xmlns="http://www.w3.org/2000/svg" viewBox="0 0 22.62 22.47"><defs><style>.cls-1{fill:#ffffff;}</style></defs><g id="Layer_2" data-name="Layer 2"><g id="Layer_1-2" data-name="Layer 1"><path class="cls-1" d="M22.45,9.8,11.6.13a.5.5,0,0,0-.67,0c-.1.09-10,9-10.75,9.66a.5.5,0,0,0,.32.88H2.67V22a.5.5,0,0,0,.5.5H19.38a.51.51,0,0,0,.5-.5V10.67h2.24a.49.49,0,0,0,.47-.32A.5.5,0,0,0,22.45,9.8ZM9,21.47v-7h4.54v7Zm9.9,0H14.52V14a.5.5,0,0,0-.5-.5H8.48A.51.51,0,0,0,8,14v7.51H3.67V10.67H18.88ZM1.82,9.67c2.36-2.1,8-7.19,9.45-8.5l9.54,8.5Z"/></g></g></svg>