<svg xmlns="http://www.w3.org/2000/svg" viewBox="0 0 46.74 45.21"><defs><style>.cls-1{fill:#003764;}</style></defs><g id="Layer_2" data-name="Layer 2"><g id="Layer_1-2" data-name="Layer 1"><path class="cls-1" d="M10.42,20.1l1.11.56a17.63,17.63,0,0,0-.74,1.81l-1.21-.39-.28.82,1.21.4c-.14.46-.27.93-.37,1.41A12.42,12.42,0,0,1,.22,14.79c.48-.1,1-.23,1.43-.37l.4,1.23.83-.27-.41-1.23a19.13,19.13,0,0,0,1.81-.75l.58,1.13.77-.4L5.06,13a18.72,18.72,0,0,0,1.82-1.1l.73,1,.7-.52-.72-1A18.7,18.7,0,0,0,9.26,10l.81.81.64-.63L9.9,9.35a20.51,20.51,0,0,0,1.43-1.66l1,.71.51-.71-1-.71A17.75,17.75,0,0,0,13,5.16l1.09.56.4-.77-1.1-.56a17.78,17.78,0,0,0,.76-1.81L15.29,3l.27-.83-1.18-.39A15.65,15.65,0,0,0,14.79.22a12.44,12.44,0,0,1,9.93,9.92c-.52.11-1,.25-1.53.4l-.38-1.15L22,9.66l.38,1.15c-.61.23-1.22.48-1.81.76L20,10.51l-.77.39L19.78,12A19.06,19.06,0,0,0,18,13.09l-.69-.95-.71.51.7.95A20.65,20.65,0,0,0,15.58,15l-.78-.79-.64.64.79.79a17.51,17.51,0,0,0-1.42,1.68l-1-.71-.52.71,1,.7a18.87,18.87,0,0,0-1.1,1.83l-1.1-.56Zm-9.54-8,.83-.27.31.95a14.94,14.94,0,0,0,1.6-.66l-.43-.84L4,10.88l.43.84c.56-.3,1.1-.63,1.63-1l-.58-.8.7-.51.58.8A16.75,16.75,0,0,0,8.23,9l-.81-.82.64-.64.81.81a16.59,16.59,0,0,0,1.29-1.49l-.81-.59.51-.7.81.59a19,19,0,0,0,1-1.62l-.88-.45.4-.77.87.44c.25-.52.47-1.05.67-1.6l-1-.33L12,1l1,.33c.13-.42.24-.84.34-1.27a13.51,13.51,0,0,0-1.8,0A12.46,12.46,0,0,0,0,13.35c.4-.09.78-.19,1.16-.31Zm43.37.85c-1.4-1.41-4.3-2-7.78-1.64L41.18,16Zm-31,19.3,5.84,5.84,3.31-3.31-1.3-1.3a1,1,0,0,1,1.43-1.42l1.3,1.3,1.67-1.67-1.3-1.3a1,1,0,0,1,.72-1.73,1,1,0,0,1,.71.3l1.3,1.3,1.67-1.67-1.3-1.3a1,1,0,0,1,0-1.43l0,0,0,0a1,1,0,0,1,1.43,0l1.3,1.3,1.67-1.67-1.3-1.3A1,1,0,1,1,31.9,22.7L33.2,24l1.67-1.67L33.57,21a1,1,0,0,1,0-1.43,1,1,0,0,1,1.39,0l1.3,1.3,3.45-3.47L34,11.68A27.39,27.39,0,0,0,20.43,18.9,27.44,27.44,0,0,0,13.26,32.24Zm-.4,2.44c-.4,3.59.17,6.6,1.6,8l3.22-3.22Zm24.2-13,1.3,1.3a1,1,0,0,1,0,1.38,1,1,0,0,1-1.43.05l-1.3-1.3L34,24.75l1.3,1.3a1,1,0,0,1,0,1.43,1,1,0,0,1-1.43,0l-1.3-1.3-1.67,1.67,1.29,1.3a1,1,0,0,1,0,1.43l0,0,0,0a1,1,0,0,1-1.43,0l-1.3-1.3L27.71,31,29,32.3a1,1,0,0,1,.3.72,1,1,0,0,1-.29.71,1,1,0,0,1-1.43,0l-1.3-1.3L24.61,34.1l1.3,1.3a1,1,0,0,1-1.43,1.43l-1.3-1.3-3.31,3.31,5.84,5.84a27.47,27.47,0,0,0,13.34-7.16,27.44,27.44,0,0,0,7.21-13.58l-5.74-5.75ZM14.25,24.79a27.31,27.31,0,0,1,5-7.07,27,27,0,0,1,5.66-4.22,12.28,12.28,0,0,0,0-1.92c-.42.1-.84.21-1.25.34l.33,1-.83.27-.33-1c-.55.2-1.09.42-1.61.67l.46.9-.78.39-.46-.89a16.78,16.78,0,0,0-1.62,1l.6.83-.7.52-.61-.84a16.59,16.59,0,0,0-1.49,1.29l.84.84-.64.63L16,16.7a18.43,18.43,0,0,0-1.27,1.51l.82.6-.51.7-.82-.6c-.35.53-.68,1.07-1,1.63l.86.45-.39.77-.86-.44a15.84,15.84,0,0,0-.66,1.6l1,.33-.27.82-1-.32c-.12.38-.22.76-.31,1.15h0a13.51,13.51,0,0,0,1.8,0C13.68,24.88,14,24.83,14.25,24.79ZM45,13.7l-3.07,3.07,4.7,4.7C47,18,46.41,15.1,45,13.7ZM15.23,43.48c1.44,1.44,4.45,2,8,1.6l-4.81-4.81Z"/></g></g></svg>