<svg xmlns="http://www.w3.org/2000/svg" viewBox="0 0 20.94 21.2"><defs><style>.cls-1{fill:#003764;}</style></defs><g id="Layer_2" data-name="Layer 2"><g id="Layer_1-2" data-name="Layer 1"><path class="cls-1" d="M20.54,3.67a2.25,2.25,0,0,0-.71-.88,2.54,2.54,0,0,0-1-.43h-.13A2.07,2.07,0,0,0,18.25.74,2,2,0,0,0,16.65,0H4.28a2,2,0,0,0-1.6.74A2.12,2.12,0,0,0,2.2,2.35H2.09a2.51,2.51,0,0,0-1,.43,2.32,2.32,0,0,0-.7.88,3.76,3.76,0,0,0,.18,3.7,8.55,8.55,0,0,0,2.86,2.72,15.06,15.06,0,0,0,3.38,1.58l.13,0H7l1.63,3.07a1.42,1.42,0,0,0,.25.37L5.8,17.41A2.1,2.1,0,0,0,7.05,21.2h6.83a2.1,2.1,0,0,0,1.24-3.79l-3-2.25a2.19,2.19,0,0,0,.25-.37l1.62-3.07h0l.14,0a15.48,15.48,0,0,0,3.38-1.58,8.55,8.55,0,0,0,2.86-2.72A3.81,3.81,0,0,0,20.54,3.67ZM19.23,5.49a2.08,2.08,0,0,1-.11.54,3.25,3.25,0,0,1-.28.56,4.07,4.07,0,0,1-.54.69,7.15,7.15,0,0,1-.74.69,9.59,9.59,0,0,1-.93.66c-.34.22-.71.42-1.09.62l-.1,0h0l2.72-5.2.1,0a.35.35,0,0,1,.11,0h.19l.1,0,.12,0a.43.43,0,0,1,.12.11.53.53,0,0,1,.11.15,2.38,2.38,0,0,1,.19.57A2,2,0,0,1,19.23,5.49ZM6.81,18.78l3.42-2.52a.4.4,0,0,1,.23-.08.45.45,0,0,1,.24.08l3.42,2.52a.4.4,0,0,1-.24.72H7.05a.4.4,0,0,1-.24-.72Zm3.65-4.57a.36.36,0,0,1-.35-.21L3.93,2.29a.39.39,0,0,1,0-.4.37.37,0,0,1,.34-.19H16.65a.38.38,0,0,1,.34.19.42.42,0,0,1,0,.4L10.82,14A.38.38,0,0,1,10.46,14.21ZM5.5,9.3h0l-.09,0c-.39-.2-.75-.4-1.1-.62A11,11,0,0,1,3.37,8a7.15,7.15,0,0,1-.74-.69,5.42,5.42,0,0,1-.54-.69A2.6,2.6,0,0,1,1.82,6a2.1,2.1,0,0,1-.12-.54,2,2,0,0,1,0-.54,2.44,2.44,0,0,1,.2-.57A.49.49,0,0,1,2,4.23l.12-.11.13,0a.19.19,0,0,1,.1,0h.19l.11,0,.1,0Z"/></g></g></svg>