<?xml version="1.0" encoding="utf-8"?>
<!-- Generator: Adobe Illustrator 25.2.0, SVG Export Plug-In . SVG Version: 6.00 Build 0)  -->
<svg version="1.1" id="Layer_1" xmlns="http://www.w3.org/2000/svg" xmlns:xlink="http://www.w3.org/1999/xlink" x="0px" y="0px"
	 viewBox="0 0 86.4 86.4" style="enable-background:new 0 0 86.4 86.4;" xml:space="preserve">
<style type="text/css">
	.st0{fill:#E1B724;}
</style>
<g>
	<path class="st0" d="M32.06,50.4c-3.75-2.49-7.44-4.95-11.23-7.46c6.9-4.14,13.67-8.21,20.44-12.28
		c6.77-4.07,13.54-8.13,20.53-12.33c-5.44-2.13-10.68-4.19-15.92-6.24c0-0.07,0-0.15,0-0.22C58.86,9.45,71.84,7.06,85.05,4.6
		c-4.99,12.46-9.89,24.71-14.79,36.96c-0.07-0.01-0.14-0.01-0.21-0.02c-1.05-5.64-2.1-11.28-3.15-16.91
		c-0.07-0.01-0.11-0.02-0.14-0.02c-0.03,0-0.08,0-0.09,0.02c-5.64,6.2-11.29,12.41-16.93,18.61c-0.13,0.15-0.24,0.31-0.43,0.55
		c3.59,2.45,7.14,4.88,10.7,7.31C59.44,51.69,2.63,84.79,1.35,85.26C11.63,73.59,21.81,62.03,32.06,50.4z"/>
	<path class="st0" d="M16.91,62.84c-1.59,1.81-3.25,3.69-4.96,5.63c-0.22-0.2-0.42-0.36-0.6-0.55C6.41,62.4,3.11,56.03,2.03,48.69
		c-2.16-14.63,1.83-27.31,12.76-37.47c5.7-5.3,12.56-8.48,20.29-9.59c8.68-1.25,17.03-0.13,24.96,3.73C60.3,5.48,60.56,5.64,61,5.88
		c-1.11,0.22-2.02,0.42-2.94,0.59C54.02,7.23,50,7.98,45.96,8.71c-0.53,0.09-1.09,0.07-1.62,0.01c-6.01-0.58-11.69,0.56-17.03,3.31
		C17.82,16.9,11.95,24.6,9.99,35.08c-1.43,7.65-0.61,15.09,3.18,22.02C14.24,59.05,15.6,60.85,16.91,62.84z"/>
	<path class="st0" d="M22.54,76.77c0.46-0.28,0.82-0.51,1.2-0.73c2.05-1.19,4.11-2.37,6.15-3.58c0.41-0.24,0.76-0.28,1.23-0.12
		c3.9,1.32,7.93,1.82,12.02,1.62c14.32-0.7,27.34-10.36,30.27-26.26c0.38-2.06,0.4-4.18,0.6-6.27c0.04-0.47,0.08-0.96,0.25-1.38
		c1.62-4.1,3.26-8.19,4.9-12.28c0.07-0.18,0.17-0.36,0.38-0.77c0.39,1.29,0.75,2.36,1.04,3.46c1.02,3.9,1.4,7.87,1.31,11.9
		c-0.16,7.57-2.1,14.62-6.37,20.92c-5.38,7.95-12.51,13.66-21.8,16.47c-3.26,0.99-6.6,1.46-10.01,1.62
		c-5.1,0.23-10.09-0.34-14.94-1.92c-1.83-0.6-3.58-1.44-5.36-2.18C23.14,77.14,22.9,76.97,22.54,76.77z"/>
</g>
</svg>
