<?xml version="1.0" encoding="utf-8"?>
<!-- Generator: Adobe Illustrator 24.2.3, SVG Export Plug-In . SVG Version: 6.00 Build 0)  -->
<svg version="1.1" id="Layer_1" xmlns="http://www.w3.org/2000/svg" xmlns:xlink="http://www.w3.org/1999/xlink" x="0px" y="0px"
	 viewBox="0 0 22.9 21.7" style="enable-background:new 0 0 22.9 21.7;" xml:space="preserve">
<style type="text/css">
	.st0{fill:#E1B724;}
</style>
<path class="st0" d="M4.4,10.5c0.2,0.4,0.4,0.7,0.7,1.1c0.2,0.3,0.5,0.7,0.7,1c0.3,0.4,0.7,0.8,1,1.1c0.2,0.3,0.5,0.5,0.8,0.6
	c-0.1-0.1-0.2-0.3-0.4-0.4c-1.1-1-2-2.2-2.6-3.6c-0.1-0.2-0.1-0.4-0.1-0.6c0-0.6,0-1.1,0-1.7C4.6,7.3,4.8,6.6,5,6
	c0.6-1.7,1.5-3.2,2.9-4.4C8.5,1,9.3,0.5,10.2,0.3c0.5-0.1,1-0.1,1.4,0c0.5,0.2,0.9,0.6,1,1.1c0,0,0,0.1-0.1,0.2
	c-0.3,0.4-0.7,0.7-1,1.1c-0.3,0.4-0.5,0.8-0.7,1.2c-0.2,0.5-0.4,1.1-0.5,1.6c-0.1,0.4-0.1,0.7-0.1,1.1c0,1,0.3,2,0.9,2.8
	c0.4,0.5,0.8,1,1.2,1.4c0,0,0,0,0.1,0c0,0,0-0.1,0-0.1c-0.4-0.5-0.8-1.1-1.1-1.7c-0.4-0.8-0.6-1.6-0.7-2.4c0-0.7,0-1.3,0.2-1.9
	c0.2-0.6,0.5-1.1,0.9-1.6c0.4-0.5,0.8-0.9,1.3-1.4c0.5-0.5,1.1-0.7,1.8-0.8c1-0.1,1.9,0.2,2.8,0.7c0.9,0.5,1.6,1.2,2.3,1.9
	c0.7,0.6,1.3,1.3,1.7,2.1c0.5,0.8,0.8,1.6,0.9,2.6c0,0.6-0.1,1.1-0.2,1.7c-0.3,0.9-0.8,1.6-1.4,2.3c-1.6,1.7-3.4,3.2-5.5,4.2
	c-1,0.5-2.1,0.9-3.3,1c-0.2,0-0.5,0-0.7,0c-0.1,0-0.1,0-0.2,0.1c-0.8,0.8-1.5,1.5-2.3,2.3c-0.4,0.4-0.8,0.8-1.3,1.2
	c-0.4,0.4-0.9,0.4-1.4,0.4c-0.8-0.1-1.5-0.4-2.2-0.9c-1.3-1-2.4-2.1-3.3-3.5c-0.3-0.5-0.5-1.1-0.5-1.7c0-0.5,0.1-0.9,0.5-1.3
	c1-1,1.9-2,2.9-2.9C4,10.9,4.2,10.7,4.4,10.5z M3.7,11.9c-0.1,0-0.1,0.1-0.1,0.1c-0.2,0.2-0.4,0.5-0.6,0.7C2.6,13,2.5,13.5,2.5,14
	c0,0.4,0.1,0.8,0.3,1.1c0.3,0.8,0.8,1.4,1.3,2c0.4,0.5,0.9,1,1.3,1.5c0.2,0.3,0.5,0.5,0.8,0.8c0.2,0.2,0.4,0.2,0.6,0
	C7,19.2,7.2,19,7.5,18.7c0.3-0.4,0.3-0.5,0-0.8c-0.5-0.5-1-1.1-1.5-1.6c-0.8-0.9-1.5-1.8-2-2.9c-0.2-0.4-0.3-0.8-0.3-1.2
	C3.7,12.1,3.7,12,3.7,11.9z"/>
</svg>
