<svg xmlns="http://www.w3.org/2000/svg" xmlns:xlink="http://www.w3.org/1999/xlink" width="22" height="22" viewBox="0 0 22 22">
  <defs>
    <clipPath id="clip-icon_darts_black">
      <rect width="22" height="22"/>
    </clipPath>
  </defs>
  <g id="icon_darts_black" clip-path="url(#clip-icon_darts_black)">
    <rect width="22" height="22" fill="rgba(139,139,139,0)"/>
    <g id="Group_15748" data-name="Group 15748" transform="translate(-7125.249 -1084.884)">
      <path id="Path_24127" data-name="Path 24127" d="M7140.62,1131.927a.84.84,0,0,0-.17.1q-.69.683-1.373,1.374a.2.2,0,0,1-.273.056,8.007,8.007,0,0,0-1.522-.513,8.206,8.206,0,0,0-1.669-.2,7.586,7.586,0,0,0-1.809.179,7.806,7.806,0,0,0-2.475.993,8.082,8.082,0,0,0-1.878,1.592,8.3,8.3,0,0,0-1.266,1.967,7.741,7.741,0,0,0-.566,1.763,8.225,8.225,0,0,0-.09,2.51,7.6,7.6,0,0,0,.331,1.534,8.012,8.012,0,0,0,1.457,2.643,8.131,8.131,0,0,0,1.441,1.367,7.025,7.025,0,0,0,1.863,1.011,11.155,11.155,0,0,0,1.428.406,7.259,7.259,0,0,0,2.253.094,8.683,8.683,0,0,0,1.74-.37,7.833,7.833,0,0,0,1.791-.858,8.085,8.085,0,0,0,3.068-3.638,7.784,7.784,0,0,0,.626-2.778,7.5,7.5,0,0,0-.012-.983,6.918,6.918,0,0,0-.277-1.545c-.134-.4-.291-.791-.431-1.189a.2.2,0,0,1,.036-.174c.479-.494.962-.983,1.446-1.472.095-.1.119-.091.188.032a9.435,9.435,0,0,1,.855,2.086,10.124,10.124,0,0,1,.282,1.23,9.092,9.092,0,0,1,.1,2.354c-.034.293-.046.589-.093.88-.053.331-.124.66-.205.986a9.811,9.811,0,0,1-.586,1.677,10.306,10.306,0,0,1-2.646,3.536,10.091,10.091,0,0,1-1.709,1.2,9.86,9.86,0,0,1-1.829.794c-.357.115-.729.191-1.095.278a9.117,9.117,0,0,1-2.136.215,9.619,9.619,0,0,1-1.811-.172,10.251,10.251,0,0,1-5.854-3.367,10.128,10.128,0,0,1-1.581-2.458,9.987,9.987,0,0,1-.658-1.928,10.327,10.327,0,0,1,.059-4.922,9.012,9.012,0,0,1,.822-2.138c.267-.478.557-.946.867-1.4a9.035,9.035,0,0,1,1.2-1.352,8.886,8.886,0,0,1,1.664-1.277c.477-.278.976-.52,1.477-.75a8.359,8.359,0,0,1,1.767-.553,9.394,9.394,0,0,1,2.456-.207,13.269,13.269,0,0,1,1.467.143,8.3,8.3,0,0,1,1.886.53c.43.182.849.386,1.272.581a1.1,1.1,0,0,1,.124.076Z" transform="translate(0 -44.191)"/>
      <path id="Path_24128" data-name="Path 24128" d="M7268.146,1266.032a5.158,5.158,0,0,1,.325,2.176,5.984,5.984,0,0,1-1.933,4.213,6.079,6.079,0,1,1-2.233-10.223.511.511,0,0,1-.062.1q-.771.775-1.548,1.545a.264.264,0,0,1-.174.065,4.247,4.247,0,0,0-1.321.184,4.075,4.075,0,0,0-2.432,2.087,6.2,6.2,0,0,0-.309.914,3.344,3.344,0,0,0-.065,1.477,3.966,3.966,0,0,0,1.059,2.172,4.064,4.064,0,0,0,2,1.168,3.867,3.867,0,0,0,1.319.1,3.934,3.934,0,0,0,1.785-.612,4.012,4.012,0,0,0,1.541-1.791,5.037,5.037,0,0,0,.267-.879,2.572,2.572,0,0,0,.07-.706.681.681,0,0,1,.246-.554c.1-.1.206-.186.3-.284.369-.366.734-.734,1.1-1.1C7268.1,1266.07,7268.112,1266.061,7268.146,1266.032Z" transform="translate(-126.895 -171.363)"/>
      <path id="Path_24129" data-name="Path 24129" d="M7395.07,1087.364c-.148.151-.274.282-.4.411q-1.232,1.237-2.468,2.47a.224.224,0,0,1-.164.044c-.229-.025-.456-.058-.683-.095a.3.3,0,0,0-.282.1q-.942.954-1.891,1.9-1.321,1.324-2.644,2.646c-.2.2-.389.409-.588.61-.13.13-.268.253-.4.379a.441.441,0,0,0-.163.406,2.119,2.119,0,0,1-.044.925,2.149,2.149,0,0,1-.763,1.114,2.085,2.085,0,0,1-3.182-.875,1.964,1.964,0,0,1-.161-1,3.5,3.5,0,0,1,.147-.567,1.8,1.8,0,0,1,.743-.96,2.058,2.058,0,0,1,1.618-.326.256.256,0,0,0,.262-.081q2.014-2.025,4.03-4.046c.544-.546,1.091-1.09,1.631-1.64a.281.281,0,0,0,.057-.2c-.023-.236-.069-.47-.091-.706a.294.294,0,0,1,.07-.205q1.146-1.158,2.3-2.306c.151-.151.3-.3.453-.451.021-.02.058-.045.078-.038a.1.1,0,0,1,.048.074c.048.366.09.732.137,1.1.039.3.077.61.127.913a.177.177,0,0,0,.121.11c.531.073,1.064.135,1.6.2C7394.721,1087.3,7394.879,1087.333,7395.07,1087.364Z" transform="translate(-247.821)"/>
    </g>
  </g>
</svg>
