<svg xmlns="http://www.w3.org/2000/svg" width="13.98" height="22.546" viewBox="0 0 13.98 22.546">
  <g id="SiteIconsSports-Golf" transform="translate(-8.099 -0.874)">
    <path id="Path_40" d="M10.505,13.094a6.985,6.985,0,0,0,9.212-10.5,7.027,7.027,0,0,0-9.857.645,6.931,6.931,0,0,0,.645,9.857Zm8.919-9.271a.851.851,0,0,0,.059,1.232.806.806,0,0,0,1.056.059,3.73,3.73,0,0,1,.352,1.056c-.117.059-.176.117-.293.176a1.054,1.054,0,0,0,.176,1.35h0a.946.946,0,0,0,.411.235,1.624,1.624,0,0,1-.059.528.914.914,0,0,0-1.232.117.851.851,0,0,0,.059,1.232h0a1.082,1.082,0,0,0,.763.235,3.585,3.585,0,0,1-.411.821c-.059-.117-.117-.176-.176-.293a.872.872,0,1,0-1.173,1.291.507.507,0,0,0,.352.176,6.055,6.055,0,0,1-8.625-.117,6.118,6.118,0,0,1-.528-7.745.894.894,0,1,0,1.643-.7,1.227,1.227,0,0,0-.235-.352c-.117-.059-.176-.117-.293-.176.235-.176.528-.352.763-.528a.972.972,0,0,0,.293.7.918.918,0,0,0,1.291,0,.851.851,0,0,0-.059-1.232h0c.176-.059.352-.059.528-.117a1.052,1.052,0,0,0,.293.411.984.984,0,0,0,1.291-.059h0a1.283,1.283,0,0,0,.176-.293,7.545,7.545,0,0,1,1.115.235.819.819,0,0,0,.411,1.173A.823.823,0,0,0,18.427,3c.059-.059.117-.117.117-.176a3.225,3.225,0,0,1,.528.411,1.786,1.786,0,0,1,.469.469Z" transform="translate(0 0)" fill="#00001a"/>
    <path id="Path_41" d="M21.933,10.792a.851.851,0,0,0,.059,1.232h0a.923.923,0,0,0,1.291-.059.851.851,0,0,0-.059-1.232h0a.921.921,0,0,0-1.291.059Z" transform="translate(-5.619 -3.977)" fill="#00001a"/>
    <path id="Path_42" d="M20.266,8.033a.872.872,0,1,0,.059,1.232.851.851,0,0,0-.059-1.232Z" transform="translate(-4.421 -2.861)" fill="#00001a"/>
    <path id="Path_43" d="M24.233,14.092a.872.872,0,1,0,1.232-.059.851.851,0,0,0-1.232.059Z" transform="translate(-6.57 -5.34)" fill="#00001a"/>
    <path id="Path_44" d="M23.033,6.492a.872.872,0,1,0,1.291,1.173.807.807,0,0,0-.059-1.232A.853.853,0,0,0,23.033,6.492Z" transform="translate(-6.074 -2.2)" fill="#00001a"/>
    <path id="Path_45" d="M20.81,5.366a.872.872,0,0,0-1.291-1.173.807.807,0,0,0,.059,1.232.853.853,0,0,0,1.232-.059Z" transform="translate(-4.613 -1.249)" fill="#00001a"/>
    <path id="Path_46" d="M25.909,11.124a.872.872,0,1,0-.059-1.232A.907.907,0,0,0,25.909,11.124Z" transform="translate(-7.247 -3.605)" fill="#00001a"/>
    <path id="Path_47" d="M16.666,6.133a.872.872,0,1,0,.059,1.232.851.851,0,0,0-.059-1.232Z" transform="translate(-2.933 -2.076)" fill="#00001a"/>
    <path id="Path_48" d="M20.781,25.059v.117c0,2.054-1.936,1.526-1.995,3.168l-.293,5.046h-.7l-.293-5.046c-.117-1.7-1.995-1.174-1.995-3.168V25a6.11,6.11,0,0,0,2.7.469A7.915,7.915,0,0,0,20.781,25.059Z" transform="translate(-3.058 -9.97)" fill="#00001a" fill-rule="evenodd"/>
  </g>
</svg>
