<?xml version="1.0" encoding="utf-8"?>
<!-- Generator: Adobe Illustrator 24.2.3, SVG Export Plug-In . SVG Version: 6.00 Build 0)  -->
<svg version="1.1" id="Layer_1" xmlns="http://www.w3.org/2000/svg" xmlns:xlink="http://www.w3.org/1999/xlink" x="0px" y="0px"
	 viewBox="0 0 22.9 21.7" style="enable-background:new 0 0 22.9 21.7;" xml:space="preserve">
<style type="text/css">
	.st0{fill:#E1B724;}
</style>
<path class="st0" d="M19.5,21.4c-1.7,0-3.5,0-5.2,0c0-2.4,0-4.9,0-7.3c-1.9,0-3.8,0-5.8,0c0,0.3,0,0.6,0,0.9c0,0.3,0,0.6,0,0.9
	c0,0.3,0,0.6,0,0.9s0,0.6,0,0.9c0,0.3,0,0.6,0,0.9c0,0.3,0,0.6,0,0.9c0,0.3,0,0.6,0,0.9c0,0.3,0,0.6,0,0.9c-1.7,0-3.4,0-5.2,0
	c0-0.5,0-1,0-1.5c0-0.5,0-1,0-1.5c0-0.5,0-1,0-1.5c0-0.5,0-1,0-1.5c0-0.5,0-1,0-1.5s0-1,0-1.5c0-0.5,0-1,0-1.5c-1.1,0-2.2,0-3.3,0
	c0,0,0,0,0,0C3.8,7.3,7.6,3.8,11.4,0.4c3.8,3.4,7.6,6.9,11.4,10.3c0,0,0,0,0,0c-1.1,0-2.2,0-3.3,0C19.5,14.3,19.5,17.9,19.5,21.4z"
	/>
</svg>
