<svg xmlns="http://www.w3.org/2000/svg" xmlns:xlink="http://www.w3.org/1999/xlink" viewBox="0 0 22 22">
  <defs>
    <style>
      .cls-1 {
        clip-path: url(#clip-icon_hockey_black);
      }

      .cls-2 {
        fill: rgba(139,139,139,0);
      }
    </style>
    <clipPath id="clip-icon_hockey_black">
      <rect width="22" height="22"/>
    </clipPath>
  </defs>
  <g id="icon_hockey_black" class="cls-1">
    <rect class="cls-2" width="22" height="22"/>
    <g id="Group_15716" data-name="Group 15716" transform="translate(-1402 -199.559)">
      <g id="Group_39" data-name="Group 39" transform="translate(1402 201)">
        <path id="Path_52" data-name="Path 52" d="M98.414,53,97.7,54.381l2.3.853.574-1.1Z" transform="translate(-82.542 -44.777)"/>
        <rect id="Rectangle_37" data-name="Rectangle 37" width="2.762" height="2.436" transform="matrix(0.463, -0.887, 0.887, 0.463, 16.256, 7.477)"/>
        <path id="Path_53" data-name="Path 53" d="M15.111,60.964h0l.047-.078-.5-.186-.295.59-1.039,1.676a1.162,1.162,0,0,1-.9.5l-10.379.946A2.023,2.023,0,0,0,0,66.44v.543a2.046,2.046,0,0,0,2.048,2.048l2.032-.155.031-.4c.016-1.4,1.753-2.451,4.049-2.482h.062c2.032,0,3.615.807,3.956,1.986l.031.093v.171h0l1.862-.14a1.479,1.479,0,0,0,1.241-.807l2.467-5.43-.326-.124-.186.341Z" transform="translate(0 -51.283)"/>
        <path id="Path_54" data-name="Path 54" d="M97.4,61.978l2.157,1.117.186-.341-2.3-.853Z" transform="translate(-82.289 -52.296)"/>
        <path id="Path_55" data-name="Path 55" d="M99.557,63.517,97.4,62.4h0Z" transform="translate(-82.289 -52.719)"/>
        <path id="Path_56" data-name="Path 56" d="M117.75,0,115.5,4.3l2.157,1.117,1.924-3.693Z" transform="translate(-97.58)"/>
      </g>
      <path id="Path_57" data-name="Path 57" d="M37.61,102.869l.078-1.1a1.036,1.036,0,0,1-.264.559,2.182,2.182,0,0,1-.745.559,5.13,5.13,0,0,1-2.25.481,5,5,0,0,1-2.265-.45,2.075,2.075,0,0,1-.838-.667,1.027,1.027,0,0,1-.186-.512,1.124,1.124,0,0,0,.248.434,2.667,2.667,0,0,0,1.241.729,5.245,5.245,0,0,0,1.769.248,5.638,5.638,0,0,0,1.769-.279,2.89,2.89,0,0,0,1.164-.683,1.3,1.3,0,0,0,.31-.543.82.82,0,0,0,.016-.2v-.031c-.233-.822-1.6-1.427-3.258-1.412-1.815.016-3.274.776-3.258,1.707v.016l-.078,1.086a.331.331,0,0,0,0,.124c.016.931,1.474,1.676,3.289,1.66C36.167,104.56,37.625,103.8,37.61,102.869Z" transform="translate(1375.763 116.516)"/>
    </g>
  </g>
</svg>
