<?xml version="1.0" encoding="utf-8"?>
<!-- Generator: Adobe Illustrator 24.2.3, SVG Export Plug-In . SVG Version: 6.00 Build 0)  -->
<svg version="1.1" id="Layer_1" xmlns="http://www.w3.org/2000/svg" xmlns:xlink="http://www.w3.org/1999/xlink" x="0px" y="0px"
	 viewBox="0 0 22.9 21.7" style="enable-background:new 0 0 22.9 21.7;" xml:space="preserve">
<style type="text/css">
	.st0{fill:#E1B724;}
</style>
<path class="st0" d="M6.2,6.4c0.4,1,0.8,2.1,1.3,3.1c0,0.1,0.1,0.2,0.1,0.2c0.7,0.4,1.4,0.8,2.2,1.1c0.9,0.3,1.8,0.4,2.7,0.5
	c0.8,0.1,1.5,0.3,2.1,0.6c0.4,0.2,0.8,0.3,1.3,0.4c0.4,0.1,0.9,0.2,1.3,0.3c0.8,0.2,1.6,0.4,2.4,0.3c1-0.1,1.9-0.4,2.8-0.7
	c0.1,0,0.3,0,0.5,0.1c0,0,0,0.3,0,0.4c-0.2,0.4-0.2,0.9-0.7,1.1c-0.1,0.1-0.3,0.1-0.4,0.2c-0.3,0.1-0.6,0.2-1,0.3
	c-0.1,0-0.2,0-0.2,0c-0.7-0.3-1.5-0.2-2.3-0.2c-0.8,0-1.6,0.1-2.4,0.1c-0.6,0-1.1-0.1-1.6-0.5c-0.6-0.5-1.3-0.5-2-0.3
	c-1.2,0.2-2.3,0.4-3.5,0.6c-0.5,0.1-0.9,0.3-1.2,0.7c-0.3,0.4-0.6,0.7-1,1c-0.5,0.4-1,0.7-1.5,1c0,0-0.1,0.1-0.2,0.2
	c1,0.3,1.9,0.7,2.9,1c0.2,0.1,0.5-0.1,0.7-0.1c0.1,0,0.1-0.1,0.1-0.1c0.5-0.2,0.9-0.1,0.9,0.5c0,0.4,0.2,0.8,0.4,1.1
	c0.2,0.4,0.5,0.7,0.8,0.9c0.1,0.1,0.1,0.2,0.2,0.3c-0.1,0-0.2,0.1-0.3,0.1c-0.7,0-1.3-0.4-1.9-0.8c-0.9-0.7-2-0.8-3.1-0.9
	c-0.7,0-1.4-0.1-2.1-0.1c-0.3,0-0.7,0-1,0c-0.5,0-0.9-0.2-1.1-0.6c-0.3-0.4-0.1-0.9,0.2-1.2c0.6-0.8,1.3-1.6,2-2.5
	c0.2-0.2,0.4-0.5,0.6-0.7c0.4-0.5,0.4-1,0.2-1.6c-0.3-0.7-0.7-1.4-1.4-1.9c-0.1,0-0.1-0.1-0.1-0.2C2.6,9.7,2.5,9.7,2.3,9.8
	c-0.5,0.2-1,0.5-1.5,0.6c-0.6,0.2-1-0.2-0.8-0.7C0.1,9.1,0.3,8.5,0.5,8c0.3-0.9,0.6-1.9,1-2.8C1.6,5,1.7,4.9,1.9,4.8
	c0.2-0.1,0.3-0.4,0.1-0.6C1.6,4,1.6,3.7,1.6,3.4c0-0.1,0-0.2-0.1-0.4C1.3,2.3,1.4,2,2.1,1.6c0.3-0.2,0.7-0.4,1.1-0.2
	c0.5,0.2,0.7,0.5,0.9,1c0,0.2,0.1,0.3,0.3,0.4c0.1,0.1,0.2,0.5,0.1,0.7C4.2,3.9,4.3,4.3,4.3,4.8C4.3,4.9,4.5,5,4.6,5
	c0.6,0,1.3-0.1,1.9-0.2c0.4,0,0.9,0,1.3,0C8.3,4.9,8.8,5,9.2,5c0.4,0,0.8-0.1,1.3-0.2c0.1,0,0.1-0.1,0.1-0.1
	c0.3-0.3,0.7-0.4,1.1-0.2c0.5,0.2,0.6,0.5,0.6,1C12.2,6,11.9,6.2,11.5,6c0,0-0.1,0-0.2,0c-0.4,0-0.8,0.1-1.2,0.1
	C9.5,6.1,9,6.2,8.4,6.2C7.8,6.3,7.1,6.3,6.5,6.4C6.4,6.4,6.3,6.4,6.2,6.4z M1.7,8.9c0.3-0.1,0.5-0.2,0.7-0.3C2.2,8.3,2.1,8,2,7.8
	c0,0-0.1,0-0.1,0C1.8,8.1,1.8,8.4,1.7,8.9z"/>
</svg>
