<svg xmlns="http://www.w3.org/2000/svg" viewBox="0 0 143.33 148.47"><defs><style>.cls-1{fill:#00001a;}</style></defs><g id="Layer_2" data-name="Layer 2"><g id="Layer_1-2" data-name="Layer 1"><path class="cls-1" d="M143.33,93.16c.07,4.2-1.68,6-5.26,7.76-17.22,8.69-34.53,6.7-52.09,1.44-17-5.07-31.88.9-46.28,9.19-3,1.71-2.8,4.06-1.8,6.83,2.89,8,5.83,15.87,8.35,23.94.53,1.7,0,5.13-1.19,5.72-3,1.55-3.74-1.41-4.52-3.6Q20.59,88.22.59,32c-.95-2.67-.91-4.6,1.31-6.61,18.72-17,40.47-24.82,65.67-21,5.9.9,11.77,3.54,17.08,6.44C103.8,21.34,120,14.7,135.57,3c1.59-1.19,3.83-3.9,5.45-2.66s1.72,3.85,1.74,5.79C142.9,20.7,143.09,78.74,143.33,93.16Zm-5.28-37.39h0c0-3.65.06-7.3,0-11s-2.3-4.61-5.37-3.55c-2.49.85-4.79,2.25-7.21,3.32-3.24,1.44-5,.48-5.3-3.21-.29-4.3-.75-8.59-1-12.89-.21-3.32-1.85-4.39-5.14-4.55-6.86-.34-13.72-1.07-20.55-1.84-3.75-.42-5.46.94-4.86,4.69C89,29.56,90,32.26,90.39,35c.22,1.51.3,3.72-.57,4.52s-3,.41-4.48,0a143.42,143.42,0,0,1-14.46-5.13A8,8,0,0,1,67,30c-1.7-5.19-2.64-10.62-4.37-15.8-.55-1.65-2.54-3.86-4-4A67.82,67.82,0,0,0,30.3,13.84C26.88,15,26,17,27.45,20.31,29.38,24.7,31,29.24,33,33.63c1.5,3.39.84,5.44-2.65,7.12A97.51,97.51,0,0,0,17,48.43c-1.33.92-2.56,3.75-2.13,5.17,2.69,8.7,5.8,17.28,8.92,25.84,1.21,3.3,3.34,4.29,6.54,2s6.52-4.57,9.94-6.57c5.51-3.22,6-3,8.21,2.72C50.3,82.18,51.8,87,54.06,91.36c.77,1.49,3.43,2.83,5.22,2.81,5.91-.06,11.81-1,17.72-1.15,5.22-.14,6.23-1.1,4.89-6.24-1.08-4.17-2.37-8.29-3.36-12.48-.76-3.21.59-4.82,4-4.18,1.3.24,2.57.62,3.85.95,13.12,3.38,13.12,3.38,16.24,16.53s3.13,13.16,16.68,12.27c3.59-.24,5.16-1.65,4.87-5.23a152.58,152.58,0,0,1-1-15.37c0-1.76,1.69-4.54,3.21-5,14.23-4.84,11.24-2.87,11.61-17C138.06,56.77,138.05,56.27,138.05,55.77Z"/><path class="cls-1" d="M66.74,36c-2.56-1.91-18.38.6-27.4,2.16-3.07.54-4,2.45-2.75,5.49,3.12,7.65,6.21,15.31,9.13,23,1.12,3,2.92,3.35,5.78,3q9.48-1.28,19-1.88c3.29-.21,5.18-1.1,4.22-4.76C72.34,53.77,69.3,37.94,66.74,36Z"/><path class="cls-1" d="M121,74.07c-1.63,1.14-11.72.86-17.55.41-1.53-.12-3.73-2.21-4.18-3.81C97.47,64.16,95.36,55.75,94,49.12c-.81-3.93.58-4.87,4.54-4.28,5.17.77,10.41,1.17,15.64,1.42,2.46.13,4.86-.09,5.1,3.14C119.86,57.09,121.78,73.54,121,74.07Z"/></g></g></svg>