<svg id="Layer_1" data-name="Layer 1" xmlns="http://www.w3.org/2000/svg" viewBox="0 0 164.5 223.87"><defs><style>.cls-1{fill:#fff;}.cls-2{fill:#1d3767;}.cls-3{fill:#b42025;}</style></defs><path class="cls-1" d="M107.23-4.55A56.31,56.31,0,0,1,99.55,7C80.2,29.45,54.16,37,25,10.66V163.58c.32,17.36,13.52,23.23,25.7,27.81l9.54,2.7c14.29,1.85,28.17,5.4,47,25.24,18.84-19.84,32.73-23.39,47-25.24l9.53-2.7c12.19-4.58,25.39-10.45,25.71-27.81V10.66C160.31,37,134.27,29.45,114.92,7a56.77,56.77,0,0,1-7.69-11.57" transform="translate(-24.98 4.55)"/><path class="cls-2" d="M115,16.75A51.33,51.33,0,0,1,107.83,6a51.33,51.33,0,0,1-7.21,10.77,49.63,49.63,0,0,1-68.29,6.63V158.31c.29,15.7,12.38,21,23.54,25.15l8.73,2.44c13.12,1.67,25.85,4.89,43.15,22.91l.08-.1.08.1c17.3-18,30-21.24,43.15-22.91l8.73-2.44C171,179.32,183,174,183.33,158.31V23.38A49.63,49.63,0,0,1,115,16.75Z" transform="translate(-24.98 4.55)"/><path class="cls-1" d="M126.33,32.19S103.1,28.81,92,46.76C81,64.49,88.75,80.6,88.75,80.6s23.32,3.92,35.71-15.16C134.74,49.6,126.33,32.19,126.33,32.19Z" transform="translate(-24.98 4.55)"/><path class="cls-2" d="M101.4,45.8l10.4,5.32,1.2-1.24-10.42-5.33C102.18,45,101.79,45.38,101.4,45.8Z" transform="translate(-24.98 4.55)"/><path class="cls-2" d="M97.9,50.26,108,55.44c.39-.49.79-1,1.2-1.45L99,48.74C98.61,49.24,98.24,49.74,97.9,50.26Z" transform="translate(-24.98 4.55)"/><path class="cls-2" d="M95.16,54.9l9.78,5c.28-.48.57-.95.86-1.42l-9.86-5Z" transform="translate(-24.98 4.55)"/><path class="cls-2" d="M111.73,37c-.51.34-1,.7-1.54,1.07l10,5.14L121.61,42Z" transform="translate(-24.98 4.55)"/><path class="cls-2" d="M105.43,41.83l10.38,5.3,1.42-1.31-10.31-5.27C106.42,41,105.92,41.39,105.43,41.83Z" transform="translate(-24.98 4.55)"/><path class="cls-2" d="M117,40.49A134.1,134.1,0,0,1,127.72,32l-.89-.59s-5.35,1.89-12.45,7.8Z" transform="translate(-24.98 4.55)"/><path class="cls-2" d="M99.62,56.11A134.11,134.11,0,0,0,87.94,80.86L89,81.5a162.2,162.2,0,0,1,12.73-24.34Z" transform="translate(-24.98 4.55)"/><polygon class="cls-1" points="141.78 44.62 144.29 51.77 152.22 51.77 145.89 56.81 148.3 64.51 141.78 59.53 135.25 64.21 137.76 56.76 131.64 51.77 139.27 51.77 141.78 44.62"/><polygon class="cls-1" points="141.78 67.99 144.29 75.14 152.22 75.14 145.89 80.17 148.3 87.88 141.78 82.9 135.25 87.58 137.76 80.13 131.64 75.14 139.27 75.14 141.78 67.99"/><polygon class="cls-1" points="116.68 67.99 119.2 75.14 127.12 75.14 120.8 80.17 123.21 87.88 116.68 82.9 110.16 87.58 112.67 80.13 106.55 75.14 114.18 75.14 116.68 67.99"/><polygon class="cls-1" points="116.48 44.62 118.99 51.77 126.93 51.77 120.6 56.81 123.01 64.51 116.48 59.53 109.96 64.21 112.47 56.76 106.35 51.77 113.98 51.77 116.48 44.62"/><polygon class="cls-1" points="48.91 44.62 51.42 51.77 59.35 51.77 53.02 56.81 55.44 64.51 48.91 59.53 42.39 64.21 44.89 56.76 38.77 51.77 46.4 51.77 48.91 44.62"/><polygon class="cls-1" points="48.91 67.99 51.42 75.14 59.35 75.14 53.02 80.17 55.44 87.88 48.91 82.9 42.39 87.58 44.89 80.13 38.77 75.14 46.4 75.14 48.91 67.99"/><polygon class="cls-1" points="23.82 67.99 26.33 75.14 34.25 75.14 27.93 80.17 30.34 87.88 23.82 82.9 17.3 87.58 19.8 80.13 13.68 75.14 21.31 75.14 23.82 67.99"/><polygon class="cls-1" points="23.61 44.62 26.13 51.77 34.06 51.77 27.73 56.81 30.14 64.51 23.61 59.53 17.09 64.21 19.6 56.76 13.48 51.77 21.11 51.77 23.61 44.62"/><path class="cls-1" d="M39.81,88.56v64.8C40.07,167.78,51,172.65,61,176.45l7.86,2.25c11.82,1.54,23.29,4.49,38.88,21l.07-.09.07.09c15.59-16.55,27.06-19.5,38.88-21l7.87-2.25c10-3.8,20.94-8.67,21.2-23.09V88.56Z" transform="translate(-24.98 4.55)"/><path class="cls-3" d="M111.86,97.13H95.53v10.26h4.3v59.38c-2.64-.3-4.91-.47-4.91-.47v9.29a64.86,64.86,0,0,1,9.74,1.83c3.26,1,11.27,4.72,11.27,4.72V171.86a31.59,31.59,0,0,0-4.07-2.08V136.56h6.29l1.51,4.23h6.76v-19h-6.76L118,126.29h-6.18v-18.9h7.92l2.58,6h8.15V97.13Z" transform="translate(-24.98 4.55)"/><path class="cls-3" d="M87.81,97.13H72.28v10.26h3.5v25.08L63.22,96.55v0H47.77v10.27h3.42V152c-2.76-.14-5.17-.14-5.17-.14l.84,10.44a58.26,58.26,0,0,1,9.87,1.28c3.34.84,11.66,4.41,11.66,4.41l-.93-11.56a30.59,30.59,0,0,0-4.24-2V133l13,37.2,11.58,3.58V107.39h3.34V97.13Z" transform="translate(-24.98 4.55)"/><path class="cls-3" d="M159.41,139.63v14.6c-3.17.71-6.62,1.53-9.49,2.34V107.41l3.5-1.6V97.13h-19v8.68l3.5,1.6v54c-2,1-3.78,2.08-5.17,3v11.73c3.8-2.2,13.26-7.56,17.86-9.41a72.78,72.78,0,0,1,18.33-4.39V139.63Z" transform="translate(-24.98 4.55)"/></svg>