<?xml version="1.0" encoding="utf-8"?>
<!-- Generator: Adobe Illustrator 25.2.1, SVG Export Plug-In . SVG Version: 6.00 Build 0)  -->
<svg version="1.1" id="Layer_1" xmlns="http://www.w3.org/2000/svg" xmlns:xlink="http://www.w3.org/1999/xlink" x="0px" y="0px"
	 viewBox="0 0 22.878 21.66" style="enable-background:new 0 0 22.878 21.66;" xml:space="preserve">
<style type="text/css">
	.st0{fill:#DFB724;}
</style>
<path class="st0" d="M17.09,20.348c-0.191-0.016-0.405-0.075-0.613-0.156c-0.553-0.213-1.038-0.539-1.498-0.905
	c-0.738-0.588-1.381-1.271-1.994-1.985c-0.64-0.745-1.198-1.55-1.761-2.351c-0.049-0.069-0.083-0.074-0.153-0.032
	c-0.521,0.313-1.044,0.621-1.567,0.931c-1.037,0.617-2.074,1.236-3.113,1.849c-0.144,0.085-0.2,0.226-0.259,0.361
	c-0.054,0.122-0.121,0.222-0.234,0.291c-0.517,0.314-1.034,0.628-1.549,0.945c-0.051,0.031-0.092,0.028-0.133-0.007
	c-0.21-0.181-0.347-0.407-0.414-0.675c-0.014-0.056,0.007-0.095,0.06-0.127c0.52-0.314,1.039-0.631,1.558-0.947
	c0.111-0.068,0.229-0.081,0.359-0.066c0.174,0.02,0.337,0.012,0.505-0.088c1.529-0.915,3.064-1.82,4.597-2.728
	c0.097-0.057,0.096-0.057,0.038-0.153c-0.299-0.494-0.599-0.988-0.898-1.483c-0.056-0.093-0.057-0.094-0.154-0.037
	c-0.664,0.391-1.327,0.782-1.991,1.173c-1.01,0.595-2.018,1.191-3.031,1.781c-0.143,0.083-0.205,0.213-0.261,0.348
	c-0.05,0.121-0.117,0.218-0.229,0.286c-0.517,0.314-1.034,0.628-1.549,0.945c-0.053,0.033-0.096,0.032-0.14-0.006
	c-0.209-0.182-0.346-0.408-0.412-0.676c-0.013-0.052,0.005-0.091,0.056-0.122c0.524-0.317,1.047-0.638,1.571-0.956
	c0.106-0.064,0.22-0.074,0.345-0.061c0.195,0.021,0.379,0.014,0.567-0.098c1.627-0.969,3.26-1.925,4.891-2.886
	c0.13-0.076,0.138-0.046,0.056-0.192c-0.285-0.512-0.557-1.031-0.822-1.553c-0.032-0.063-0.061-0.03-0.094-0.009
	c-0.794,0.479-1.588,0.959-2.383,1.438c-0.924,0.558-1.847,1.118-2.775,1.67c-0.143,0.085-0.218,0.207-0.273,0.348
	c-0.048,0.122-0.118,0.218-0.229,0.285c-0.517,0.314-1.034,0.629-1.549,0.945c-0.049,0.03-0.091,0.033-0.133-0.003
	c-0.214-0.181-0.351-0.41-0.418-0.682c-0.013-0.052,0.007-0.091,0.057-0.121c0.522-0.316,1.043-0.635,1.564-0.952
	c0.108-0.066,0.225-0.084,0.352-0.063c0.126,0.021,0.255,0.007,0.382,0.005c0.024,0,0.05-0.019,0.073-0.033
	c1.726-1.04,3.452-2.081,5.179-3.119c0.064-0.039,0.067-0.068,0.038-0.132c-0.257-0.562-0.51-1.126-0.764-1.689
	C7.885,8.725,7.886,8.725,7.759,8.8C7.103,9.187,6.446,9.574,5.79,9.962c-1.057,0.626-2.114,1.253-3.172,1.878
	c-0.063,0.037-0.112,0.081-0.146,0.147c-0.055,0.108-0.126,0.208-0.166,0.325c-0.03,0.09-0.097,0.157-0.178,0.206
	c-0.528,0.322-1.056,0.643-1.584,0.966c-0.045,0.028-0.083,0.023-0.119-0.007c-0.217-0.182-0.356-0.413-0.422-0.688
	c-0.013-0.054,0.012-0.09,0.061-0.119c0.201-0.119,0.399-0.242,0.598-0.363c0.079-0.048,0.158-0.094,0.223-0.161
	c0.031-0.032,0.072-0.061,0.115-0.076c0.217-0.078,0.4-0.217,0.595-0.332c0.125-0.074,0.25-0.098,0.396-0.078
	c0.148,0.02,0.291,0.01,0.435-0.076c1.748-1.046,3.5-2.085,5.252-3.124c0.065-0.039,0.075-0.069,0.048-0.139
	C7.356,7.389,7.018,6.446,6.743,5.48C6.513,4.672,6.32,3.854,6.199,3.022C6.164,2.786,6.142,2.548,6.115,2.311
	c-0.003-0.03-0.004-0.06-0.003-0.089C6.12,2.07,6.256,1.984,6.395,2.045c0.047,0.021,0.09,0.05,0.133,0.078
	c0.776,0.504,1.49,1.087,2.17,1.713c0.836,0.769,1.616,1.593,2.352,2.458c0.047,0.055,0.08,0.092,0.164,0.04
	c1.84-1.125,3.681-2.248,5.525-3.365c0.175-0.106,0.276-0.252,0.345-0.433c0.042-0.112,0.118-0.19,0.214-0.258
	c0.195-0.137,0.408-0.246,0.611-0.37c0.31-0.19,0.622-0.376,0.93-0.569c0.065-0.041,0.114-0.036,0.167,0.012
	c0.194,0.176,0.323,0.392,0.393,0.643c0.018,0.063,0.002,0.11-0.062,0.149c-0.518,0.312-1.034,0.628-1.551,0.943
	c-0.111,0.068-0.228,0.081-0.359,0.067c-0.167-0.018-0.326-0.018-0.489,0.079c-1.827,1.094-3.644,2.203-5.454,3.324
	c-0.127,0.079-0.127,0.08-0.037,0.195c0.382,0.487,0.766,0.972,1.144,1.462c0.064,0.082,0.109,0.037,0.162,0.005
	c0.512-0.307,1.023-0.614,1.535-0.922c1.353-0.814,2.705-1.628,4.059-2.44c0.153-0.091,0.208-0.245,0.274-0.39
	c0.054-0.119,0.119-0.217,0.23-0.285c0.517-0.314,1.034-0.628,1.549-0.945c0.054-0.033,0.096-0.03,0.14,0.008
	c0.207,0.18,0.342,0.404,0.41,0.669c0.015,0.059-0.007,0.1-0.063,0.134c-0.518,0.313-1.034,0.628-1.55,0.943
	c-0.114,0.069-0.233,0.087-0.367,0.066c-0.175-0.028-0.337,0.004-0.496,0.101c-0.722,0.441-1.45,0.873-2.176,1.308
	c-1.13,0.678-2.26,1.357-3.392,2.033c-0.06,0.036-0.063,0.056-0.024,0.112c0.336,0.483,0.67,0.968,1,1.456
	c0.046,0.067,0.079,0.076,0.148,0.033c1.02-0.629,2.043-1.256,3.064-1.884c0.728-0.448,1.452-0.901,2.184-1.342
	c0.168-0.101,0.248-0.254,0.318-0.416c0.053-0.123,0.121-0.222,0.235-0.291c0.515-0.313,1.029-0.625,1.542-0.941
	c0.057-0.035,0.101-0.031,0.147,0.009c0.203,0.179,0.337,0.401,0.406,0.662C21.941,5.956,21.924,6,21.867,6.034
	c-0.52,0.314-1.038,0.631-1.557,0.947c-0.111,0.068-0.229,0.079-0.359,0.066c-0.155-0.016-0.307-0.026-0.46,0.068
	c-1.751,1.084-3.51,2.152-5.257,3.242c-0.117,0.073-0.118,0.074-0.047,0.19c0.299,0.494,0.6,0.988,0.897,1.483
	c0.035,0.058,0.059,0.064,0.117,0.029c1.67-1.023,3.34-2.046,5.015-3.061c0.176-0.107,0.278-0.249,0.345-0.43
	c0.038-0.104,0.107-0.182,0.2-0.239c0.523-0.319,1.047-0.638,1.57-0.958c0.048-0.03,0.088-0.024,0.126,0.008
	c0.211,0.179,0.347,0.407,0.416,0.674c0.015,0.059-0.008,0.1-0.063,0.133c-0.518,0.313-1.034,0.628-1.55,0.943
	c-0.111,0.068-0.228,0.085-0.359,0.068c-0.117-0.015-0.238-0.007-0.357-0.006c-0.022,0-0.044,0.019-0.065,0.031
	c-1.631,0.988-3.262,1.975-4.886,2.975c-0.079,0.048-0.155,0.1-0.237,0.143c-0.06,0.031-0.067,0.065-0.038,0.122
	c0.085,0.164,0.165,0.33,0.249,0.494c0.409,0.793,0.81,1.589,1.129,2.424c0.301,0.788,0.572,1.585,0.731,2.416
	c0.088,0.459,0.15,0.921,0.139,1.39c-0.008,0.331-0.067,0.652-0.17,0.966C17.348,20.291,17.266,20.348,17.09,20.348z M14.173,17.115
	c0.022,0.027,0.036,0.047,0.053,0.064c0.352,0.35,0.689,0.716,1.063,1.043c0.347,0.303,0.695,0.606,1.096,0.84
	c0.091,0.053,0.183,0.001,0.187-0.106c0.005-0.131-0.008-0.26-0.027-0.389c-0.072-0.502-0.197-0.993-0.335-1.48
	c-0.087-0.307-0.18-0.613-0.307-0.908c-0.038-0.089-0.04-0.088-0.116-0.024c-0.133,0.111-0.272,0.217-0.4,0.334
	c-0.191,0.175-0.41,0.298-0.651,0.389C14.548,16.948,14.362,17.023,14.173,17.115z M7.348,3.938c0,0.03-0.001,0.046,0,0.062
	C7.351,4.024,7.355,4.048,7.36,4.072c0.178,0.845,0.428,1.667,0.746,2.47c0.051,0.128,0.093,0.26,0.168,0.378
	C8.3,6.96,8.322,6.967,8.364,6.941c0.396-0.24,0.793-0.479,1.191-0.717C9.596,6.2,9.593,6.18,9.57,6.149
	C9.531,6.097,9.496,6.041,9.455,5.991C8.933,5.357,8.351,4.782,7.739,4.236C7.62,4.13,7.498,4.027,7.348,3.938z"/>
</svg>
