<svg xmlns="http://www.w3.org/2000/svg" xmlns:xlink="http://www.w3.org/1999/xlink" width="20" height="20" viewBox="0 0 20 20">
  <defs>
    <clipPath id="clip-path">
      <rect id="Rectangle_308" data-name="Rectangle 308" width="20" height="20"/>
    </clipPath>
  </defs>
  <g id="icon_rugby" clip-path="url(#clip-path)">
    <rect id="Rectangle_307" data-name="Rectangle 307" width="20" height="20" fill="rgba(139,139,139,0)"/>
    <g id="Group_15755" data-name="Group 15755" transform="translate(1.488 0.021)">
      <path id="Path_24135" data-name="Path 24135" d="M8634.2,3078.345c.328-.335.328-.335-.179-1.012.106-.12.275-.229.314-.372a1.774,1.774,0,0,0-.04-.565,2.172,2.172,0,0,0-.419.088,3.21,3.21,0,0,0-.432.262c-.115-.157-.223-.3-.336-.457a3.024,3.024,0,0,1,.259-.215c.217-.143.3-.318.119-.538-.149-.179-.309-.3-.544-.085a.348.348,0,0,1-.562-.023c-.183-.235-.062-.371.131-.531.318-.265.076-.467-.108-.694-.1.057-.193.1-.275.153-.334.214-.638.115-.734-.259a.278.278,0,0,1,.106-.235.423.423,0,0,0,.125-.717c-.242-.3-.395.034-.581.1a1.082,1.082,0,0,0-.2.139c-.175-.212-.337-.41-.521-.63a2.1,2.1,0,0,1,.244-.226c.167-.111.391-.177.213-.455-.159-.246-.364-.425-.636-.227-.386.281-.53.054-.727-.365a2.942,2.942,0,0,0,.326-.208c.174-.139.274-.3.081-.509-.157-.174-.318-.256-.521-.087-.369.31-.564.1-.72-.232.084-.3.835-.287.36-.837-.364-.422-.611.02-.94.086l-.237-.276a1.925,1.925,0,0,1,.313-.276c.249-.136.289-.3.131-.529-.179-.257-.366-.238-.631-.1a3.5,3.5,0,0,1-.822.239c-.041.01-.12-.07-.158-.124q-1.594-2.279-3.183-4.565a2.763,2.763,0,0,1-.149-.307,7.418,7.418,0,0,1,1.156-.369,8.068,8.068,0,0,1,4.025.616,18.709,18.709,0,0,1,4.923,2.785,15.31,15.31,0,0,1,3.909,4.426,15.915,15.915,0,0,1,1.91,5.027,11.662,11.662,0,0,1,.143,4.144,9.317,9.317,0,0,1-.693,1.982c-.133.317-.357.353-.631.059-1.213-1.306-2.444-2.6-3.667-3.892q-.078-.092-.146-.193Z" transform="translate(-8622.129 -3063.348)" fill="#000"/>
      <path id="Path_24136" data-name="Path 24136" d="M8623.068,3094.882a10.067,10.067,0,0,1-1.085.246,8.83,8.83,0,0,1-3.709-.513,16.862,16.862,0,0,1-3.887-1.833,13.624,13.624,0,0,1-4.736-4.94,19.249,19.249,0,0,1-2.252-6.766,8.744,8.744,0,0,1,.25-4.247c.086-.24.216-.464.342-.73.12.081.225.117.272.19.826,1.242,1.644,2.489,2.465,3.735a.437.437,0,0,0,.05.07,1.912,1.912,0,0,1,.572,1.721c-.034.367.216.533.718.491a2.442,2.442,0,0,0-.074.646,2.763,2.763,0,0,0,.281.649l.442-.346c.182.13.41.22.146.507s-.039.532.146.749c.242.287.355-.041.521-.123a1.317,1.317,0,0,1,.187-.041c0,.187-.013.355,0,.522a1.718,1.718,0,0,0,.116.718c.215.341.405.017.624-.126l.409.506c-.341.479-.4.859-.1,1.024.169.091.471-.067.773-.123.149.135.387.314-.017.6-.067.05.023.373.1.541.025.052.249.033.377.011a1.175,1.175,0,0,0,.3-.156c.121.207.461.286.086.637-.229.215,0,.557.265.781l.144-.08c.192-.11.388-.3.587-.019.188.269.028.4-.2.543a.364.364,0,0,0-.045.349c.137.132.393.329.491.28.692-.349,1.128.021,1.565.47q1.793,1.849,3.595,3.691a4.455,4.455,0,0,1,.278.367Z" transform="translate(-8607.247 -3075.218)" fill="#000"/>
    </g>
  </g>
</svg>
