<?xml version="1.0" encoding="utf-8"?>
<!-- Generator: Adobe Illustrator 25.2.1, SVG Export Plug-In . SVG Version: 6.00 Build 0)  -->
<svg version="1.1" id="Layer_1" xmlns="http://www.w3.org/2000/svg" xmlns:xlink="http://www.w3.org/1999/xlink" x="0px" y="0px"
	 viewBox="0 0 22.878 21.66" style="enable-background:new 0 0 22.878 21.66;" xml:space="preserve">
<style type="text/css">
	.st0{fill:#00001a;}
</style>
<g>
	<path class="st0" d="M18.025,11.703c0.05-0.206,0.108-0.391,0.017-0.591c-0.013,0.029-0.031,0.058-0.038,0.089
		c-0.037,0.173-0.071,0.346-0.106,0.519c-0.013,0.065-0.051,0.104-0.11,0.134c-0.108,0.054-0.211,0.116-0.339,0.188
		c0.022-0.119,0.048-0.212,0.054-0.308c0.006-0.084,0.058-0.18-0.048-0.279c-0.019,0.068-0.031,0.113-0.043,0.157
		c-0.044,0.154-0.082,0.31-0.134,0.461c-0.018,0.053-0.062,0.105-0.109,0.138c-0.117,0.082-0.243,0.154-0.393,0.247
		c0.013-0.106,0.027-0.188,0.033-0.271c0.006-0.083,0.025-0.176-0.091-0.235c-0.012,0.05-0.021,0.085-0.029,0.12
		c-0.002,0.011-0.002,0.022-0.003,0.033c-0.041,0.445-0.048,0.457-0.416,0.707c-0.035,0.024-0.071,0.045-0.109,0.069
		c-0.023-0.159-0.044-0.31-0.067-0.461c-0.002-0.012-0.022-0.02-0.033-0.03c-0.069,0.02-0.04,0.071-0.042,0.11
		c-0.009,0.148-0.013,0.298-0.029,0.445c-0.005,0.044-0.035,0.095-0.069,0.124c-0.135,0.112-0.277,0.217-0.429,0.335
		c-0.033-0.194,0.016-0.394-0.128-0.552c-0.003,0.042-0.006,0.085-0.008,0.127c-0.001,0.016,0.002,0.033,0.003,0.05
		c0.031,0.446,0.018,0.478-0.313,0.77c-0.053,0.046-0.108,0.09-0.177,0.148c-0.049-0.237-0.076-0.462-0.233-0.631
		c-0.012,0.004-0.024,0.008-0.036,0.012c0.015,0.05,0.028,0.1,0.045,0.149c0.059,0.168,0.11,0.338,0.094,0.518
		c-0.004,0.045-0.022,0.098-0.052,0.13c-0.109,0.117-0.226,0.228-0.354,0.355c-0.017-0.047-0.033-0.079-0.04-0.112
		c-0.041-0.189-0.075-0.381-0.176-0.55c-0.032-0.053-0.074-0.1-0.138-0.134c0.007,0.025,0.012,0.05,0.023,0.073
		c0.116,0.243,0.17,0.502,0.192,0.769c0.003,0.036,0.004,0.084-0.016,0.108c-0.139,0.163-0.283,0.321-0.439,0.495
		c-0.053-0.177-0.095-0.33-0.144-0.481c-0.025-0.079-0.059-0.155-0.093-0.231c-0.026-0.059-0.072-0.08-0.153-0.048
		c0.017,0.078,0.036,0.157,0.052,0.236c0.046,0.222,0.093,0.443,0.136,0.666c0.007,0.035,0.008,0.084-0.011,0.109
		c-0.107,0.145-0.22,0.285-0.352,0.452c-0.046-0.315-0.151-0.574-0.281-0.824c-0.008-0.016-0.033-0.024-0.079-0.055
		c0.007,0.067,0.001,0.11,0.016,0.144c0.104,0.24,0.157,0.494,0.215,0.748c0.02,0.088,0.021,0.155-0.037,0.23
		c-0.095,0.122-0.176,0.255-0.264,0.382c-0.03,0.044-0.064,0.085-0.11,0.146c-0.121-0.286-0.321-0.482-0.508-0.689
		c-0.014,0.008-0.027,0.017-0.041,0.025c0.03,0.059,0.05,0.126,0.092,0.175c0.143,0.173,0.239,0.37,0.329,0.573
		c0.026,0.058,0.027,0.103-0.004,0.155c-0.094,0.156-0.186,0.313-0.29,0.49c-0.152-0.291-0.291-0.578-0.563-0.757
		c-0.012,0.008-0.023,0.016-0.035,0.024c0.018,0.036,0.033,0.076,0.056,0.109c0.161,0.226,0.29,0.469,0.4,0.724
		c0.029,0.068,0.037,0.121,0,0.186c-0.054,0.095-0.1,0.194-0.161,0.313c-0.169-0.278-0.273-0.582-0.55-0.747
		c-0.011,0.007-0.021,0.013-0.032,0.02c0.014,0.032,0.021,0.069,0.043,0.096c0.176,0.223,0.295,0.48,0.422,0.731
		c0.016,0.032,0.033,0.078,0.023,0.107c-0.05,0.132-0.11,0.261-0.17,0.398c-0.454-0.558-0.549-0.65-0.74-0.691
		c0.235,0.304,0.454,0.587,0.672,0.869c-0.054,0.15-0.102,0.285-0.156,0.435c-0.198-0.26-0.385-0.507-0.582-0.768
		c-0.057,0.087-0.015,0.138,0.014,0.185c0.083,0.137,0.173,0.27,0.258,0.405c0.065,0.103,0.126,0.207,0.192,0.309
		c0.039,0.06,0.044,0.119,0.022,0.188c-0.05,0.157-0.091,0.316-0.144,0.502c-0.083-0.105-0.147-0.19-0.216-0.271
		c-0.075-0.088-0.153-0.174-0.235-0.256c-0.026-0.026-0.071-0.033-0.108-0.048c-0.009,0.01-0.017,0.02-0.026,0.03
		c0.042,0.06,0.082,0.122,0.127,0.18c0.126,0.161,0.256,0.318,0.379,0.481c0.023,0.03,0.035,0.08,0.03,0.118
		c-0.014,0.104-0.039,0.206-0.065,0.331c-0.109-0.11-0.206-0.209-0.305-0.307c-0.097-0.096-0.204-0.177-0.347-0.258
		c0.025,0.155,0.134,0.204,0.204,0.281c0.117,0.131,0.241,0.255,0.356,0.388c0.047,0.054,0.065,0.123,0.048,0.2
		c-0.022,0.1-0.032,0.203-0.05,0.327c-0.17-0.139-0.288-0.306-0.481-0.392c-0.007,0.087,0.054,0.124,0.094,0.17
		c0.089,0.105,0.175,0.215,0.277,0.307c0.097,0.088,0.11,0.184,0.07,0.321c-1.572-0.079-3.062-0.474-4.458-1.208
		c-2.172-1.142-3.769-2.837-4.802-5.061c-0.586-1.262-1.099-3.569-0.944-4.23c0.223,0.121,0.365,0.339,0.579,0.467
		c-0.062-0.2-0.23-0.314-0.36-0.478c0.141-0.049,0.278-0.048,0.411-0.063c0.023-0.003,0.053,0.017,0.073,0.034
		c0.136,0.119,0.273,0.238,0.405,0.362c0.082,0.077,0.139,0.183,0.294,0.238c-0.138-0.287-0.36-0.457-0.559-0.67
		c0.128-0.025,0.24-0.051,0.353-0.066c0.032-0.004,0.073,0.017,0.101,0.039c0.196,0.152,0.389,0.307,0.584,0.461
		c0.02,0.016,0.044,0.026,0.094,0.056c-0.015-0.184-0.152-0.248-0.24-0.338c-0.091-0.092-0.205-0.162-0.333-0.26
		c0.212-0.057,0.397-0.112,0.584-0.154c0.04-0.009,0.096,0.022,0.136,0.048c0.191,0.122,0.378,0.249,0.568,0.372
		c0.06,0.039,0.123,0.074,0.188,0.105c0.024,0.012,0.057,0.005,0.093-0.008c-0.225-0.213-0.467-0.397-0.747-0.592
		c0.157-0.057,0.287-0.104,0.443-0.161c0.277,0.218,0.561,0.442,0.856,0.675c0.027-0.097-0.027-0.147-0.076-0.194
		c-0.19-0.182-0.382-0.362-0.585-0.555c0.124-0.051,0.253-0.109,0.385-0.157c0.029-0.011,0.074,0.007,0.106,0.023
		c0.251,0.128,0.506,0.249,0.727,0.427c0.024,0.019,0.055,0.03,0.086,0.047c0.039-0.056,0.013-0.092-0.021-0.12
		c-0.12-0.097-0.238-0.196-0.365-0.283c-0.095-0.065-0.202-0.114-0.331-0.185c0.142-0.07,0.265-0.135,0.392-0.189
		c0.027-0.011,0.072,0.015,0.107,0.03c0.25,0.105,0.488,0.233,0.709,0.392c0.038,0.027,0.081,0.048,0.133,0.079
		C5.488,10.278,5.352,10.167,4.78,9.84c0.184-0.107,0.358-0.21,0.535-0.307c0.022-0.012,0.065,0,0.093,0.012
		C5.612,9.633,5.81,9.729,5.982,9.874c0.056,0.047,0.114,0.101,0.239,0.085C6.095,9.844,5.998,9.745,5.89,9.66
		C5.778,9.572,5.655,9.499,5.521,9.408c0.095-0.063,0.185-0.123,0.275-0.183C5.91,9.149,6.017,9.033,6.142,9.006
		C6.26,8.981,6.4,9.042,6.527,9.077C6.666,9.115,6.8,9.166,6.937,9.21C6.998,9.23,7.06,9.249,7.128,9.27
		c0.021-0.083-0.026-0.103-0.071-0.123c-0.232-0.104-0.461-0.218-0.72-0.243c-0.01-0.001-0.018-0.011-0.041-0.024
		c0.15-0.117,0.293-0.234,0.443-0.342c0.028-0.02,0.085-0.012,0.125-0.003C7.103,8.583,7.34,8.636,7.578,8.688
		C7.635,8.7,7.693,8.711,7.749,8.722c0.04-0.097-0.007-0.139-0.076-0.163C7.507,8.5,7.34,8.442,7.172,8.386
		C7.121,8.368,7.067,8.357,6.994,8.338c0.049-0.048,0.084-0.087,0.123-0.121c0.058-0.052,0.119-0.099,0.176-0.151
		C7.517,7.859,7.519,7.85,7.817,7.909C7.995,7.944,8.166,8.011,8.34,8.065c0.03,0.009,0.058,0.023,0.099,0.039
		C8.373,7.986,8.283,7.922,8.083,7.862C7.946,7.821,7.806,7.792,7.634,7.75c0.144-0.143,0.269-0.272,0.401-0.394
		c0.023-0.021,0.073-0.016,0.111-0.018c0.176-0.012,0.339,0.04,0.501,0.097c0.049,0.018,0.1,0.032,0.156,0.03
		C8.644,7.29,8.422,7.259,8.191,7.212c0.029-0.041,0.047-0.073,0.071-0.1C8.321,7.046,8.397,6.991,8.44,6.916
		c0.099-0.169,0.252-0.201,0.424-0.198C9.002,6.72,9.138,6.726,9.284,6.73C9.213,6.633,9.213,6.633,8.729,6.588
		C8.857,6.43,8.977,6.279,9.102,6.133C9.124,6.107,9.17,6.094,9.206,6.091c0.137-0.012,0.275-0.018,0.413-0.024
		c0.041-0.002,0.083,0,0.14,0.001C9.711,5.938,9.608,5.97,9.532,5.955C9.448,5.94,9.36,5.941,9.249,5.934
		c0.107-0.151,0.199-0.287,0.3-0.417c0.023-0.03,0.077-0.041,0.119-0.049c0.167-0.031,0.335-0.058,0.506-0.087
		c0.014-0.056-0.016-0.087-0.065-0.092c-0.065-0.007-0.132-0.004-0.198-0.002C9.847,5.29,9.784,5.298,9.692,5.306
		c0.102-0.162,0.188-0.302,0.28-0.437c0.019-0.028,0.063-0.046,0.098-0.056c0.154-0.046,0.308-0.087,0.463-0.13
		c0.045-0.013,0.091-0.024,0.148-0.038c-0.1-0.09-0.1-0.09-0.571-0.002c0.081-0.141,0.148-0.268,0.226-0.388
		c0.021-0.032,0.072-0.052,0.113-0.061c0.162-0.036,0.324-0.066,0.487-0.099c0.035-0.007,0.07-0.014,0.113-0.024
		c-0.089-0.088-0.089-0.088-0.609-0.012c0.068-0.133,0.126-0.255,0.194-0.373c0.016-0.028,0.062-0.045,0.098-0.056
		c0.132-0.04,0.266-0.075,0.399-0.111c0.041-0.011,0.081-0.023,0.127-0.035c-0.067-0.08-0.067-0.08-0.535,0.009
		c0.067-0.142,0.111-0.282,0.193-0.394c0.045-0.062,0.149-0.09,0.232-0.113c0.116-0.032,0.236-0.046,0.355-0.067
		c0.016-0.068-0.022-0.09-0.07-0.089c-0.083,0.003-0.165,0.013-0.247,0.023c-0.053,0.007-0.106,0.019-0.178,0.033
		c0.053-0.175,0.098-0.328,0.28-0.391c0.13-0.045,0.256-0.101,0.385-0.149c0.05-0.019,0.101-0.032,0.148-0.046
		c-0.001-0.083-0.051-0.087-0.093-0.079c-0.119,0.024-0.237,0.054-0.353,0.087c-0.047,0.013-0.091,0.039-0.17,0.074
		c0.059-0.174,0.105-0.324,0.173-0.465c0.017-0.036,0.063-0.062,0.102-0.082c0.147-0.077,0.296-0.149,0.444-0.223
		c0.046-0.023,0.117-0.024,0.09-0.123c-0.195,0.007-0.365,0.097-0.551,0.188c0.027-0.171,0.05-0.319,0.223-0.396
		c0.146-0.065,0.283-0.15,0.423-0.228c0.035-0.019,0.068-0.043,0.1-0.063c-0.032-0.08-0.082-0.06-0.119-0.045
		c-0.122,0.05-0.242,0.107-0.363,0.161c-0.034,0.015-0.067,0.033-0.126,0.061c0.029-0.114,0.045-0.206,0.077-0.291
		c0.013-0.034,0.058-0.062,0.095-0.079c0.178-0.077,0.357-0.149,0.536-0.223c0.043-0.018,0.101-0.019,0.109-0.108
		c-0.245,0.006-0.45,0.135-0.688,0.192c0.039-0.191,0.076-0.369,0.117-0.569c1.37,0.053,2.683,0.35,3.935,0.906
		c2.031,0.903,3.635,2.302,4.811,4.188c1.017,1.631,1.544,3.551,1.579,5.13c-0.238,0.046-0.479,0.093-0.733,0.142
		c0.079-0.236,0.189-0.442,0.21-0.672c-0.082-0.03-0.086,0.025-0.102,0.063c-0.074,0.179-0.154,0.356-0.22,0.537
		c-0.033,0.091-0.087,0.132-0.177,0.145c-0.063,0.009-0.125,0.029-0.188,0.044c0.076-0.193,0.146-0.369,0.214-0.547
		c0.004-0.01-0.014-0.027-0.033-0.063c-0.033,0.04-0.063,0.067-0.082,0.1c-0.08,0.139-0.152,0.282-0.234,0.419
		c-0.113,0.187-0.141,0.199-0.397,0.223c0.092-0.174,0.179-0.344,0.193-0.533c-0.083-0.046-0.095,0.012-0.116,0.056
		c-0.059,0.125-0.117,0.25-0.177,0.374c-0.068,0.141-0.167,0.24-0.329,0.271c-0.085,0.016-0.165,0.055-0.266,0.09
		c0.068-0.209,0.179-0.39,0.142-0.599c-0.07-0.032-0.08,0.012-0.096,0.057c-0.05,0.146-0.091,0.297-0.16,0.434
		c-0.114,0.225-0.136,0.231-0.402,0.296c0.014-0.165,0.099-0.333,0.033-0.495c-0.021,0-0.043-0.001-0.064-0.001
		c-0.018,0.101-0.036,0.202-0.055,0.303c-0.034,0.177-0.1,0.326-0.298,0.377c-0.073,0.019-0.141,0.061-0.222,0.098
		c0.005-0.183,0.118-0.345,0.045-0.561c-0.033,0.06-0.055,0.088-0.065,0.119c-0.044,0.148-0.079,0.299-0.129,0.446
		c-0.016,0.046-0.06,0.094-0.104,0.117C18.254,11.607,18.157,11.676,18.025,11.703z"/>
	<path class="st0" d="M11.158,21.563c0.095-0.108,0.159-0.198,0.24-0.268c0.08-0.071,0.176-0.123,0.278-0.192
		c-0.132-0.051-0.132-0.051-0.518,0.227c0.014-0.126,0.023-0.232,0.039-0.338c0.003-0.022,0.031-0.043,0.052-0.058
		c0.119-0.08,0.24-0.157,0.361-0.235c0.04-0.026,0.081-0.051,0.136-0.086c-0.112-0.066-0.189-0.012-0.265,0.023
		c-0.08,0.036-0.154,0.083-0.257,0.14c0.022-0.131,0.036-0.239,0.062-0.343c0.009-0.038,0.043-0.076,0.074-0.103
		c0.152-0.132,0.32-0.234,0.518-0.284c0.029-0.007,0.056-0.024,0.094-0.04c-0.155-0.069-0.301-0.026-0.637,0.186
		c0.036-0.191,0.078-0.357,0.132-0.52c0.011-0.032,0.051-0.057,0.082-0.077c0.151-0.097,0.31-0.171,0.496-0.164
		c0.022,0.001,0.044-0.006,0.065-0.01c0.005-0.001,0.008-0.007,0.012-0.011c-0.078-0.117-0.244-0.12-0.573-0.001
		c0.033-0.165,0.083-0.314,0.153-0.452c0.022-0.043,0.099-0.075,0.153-0.081c0.137-0.013,0.275-0.01,0.412-0.01
		c0.051,0,0.102,0.008,0.155-0.005c-0.197-0.126-0.415-0.116-0.661-0.099c0.061-0.147,0.109-0.28,0.173-0.405
		c0.021-0.041,0.083-0.069,0.133-0.085c0.203-0.066,0.414-0.062,0.625-0.059c0.075,0.001,0.15,0.002,0.227-0.016
		c-0.129-0.101-0.282-0.092-0.43-0.091c-0.148,0.001-0.295,0.017-0.442,0.027c0.051-0.34,0.3-0.473,0.589-0.565
		c0.167-0.053,0.337-0.053,0.509-0.039c0.075,0.006,0.151,0.003,0.242,0.005c-0.073-0.081-0.102-0.095-0.338-0.111
		c-0.115-0.008-0.233-0.003-0.346,0.016c-0.119,0.019-0.234,0.062-0.369,0.1c0.071-0.177,0.17-0.327,0.262-0.48
		c0.015-0.024,0.055-0.034,0.084-0.048c0.305-0.148,0.626-0.171,0.956-0.119c0.084,0.013,0.169,0.017,0.255,0.002
		c-0.372-0.139-0.749-0.184-1.15-0.083c0.115-0.173,0.228-0.347,0.346-0.519c0.016-0.024,0.05-0.044,0.079-0.049
		c0.378-0.067,0.756-0.113,1.133,0.001c0.031,0.009,0.065,0.007,0.098,0.007c0.008,0,0.016-0.012,0.024-0.018
		c-0.149-0.168-0.54-0.218-1.184-0.145c0.077-0.106,0.14-0.196,0.206-0.284c0.07-0.092,0.143-0.182,0.21-0.267
		c0.147-0.003,0.285-0.013,0.422-0.008c0.138,0.004,0.275,0.021,0.413,0.035c0.133,0.013,0.257,0.088,0.399,0.059
		c-0.158-0.123-0.345-0.158-0.534-0.179c-0.19-0.021-0.381-0.026-0.579-0.039c0.026-0.037,0.052-0.078,0.082-0.115
		c0.05-0.059,0.102-0.117,0.155-0.174c0.086-0.093,0.174-0.185,0.261-0.277c0.198,0.007,0.398-0.004,0.592,0.026
		c0.162,0.025,0.316,0.098,0.474,0.149c0.034,0.011,0.069,0.017,0.139,0.034c-0.1-0.139-0.227-0.164-0.339-0.205
		c-0.119-0.044-0.242-0.082-0.367-0.101c-0.123-0.019-0.25-0.013-0.409-0.019c0.134-0.133,0.244-0.247,0.361-0.354
		c0.028-0.025,0.079-0.03,0.12-0.036c0.278-0.035,0.536,0.053,0.795,0.136c0.057,0.018,0.113,0.039,0.207,0.072
		c-0.038-0.051-0.049-0.082-0.07-0.093c-0.237-0.125-0.488-0.207-0.756-0.233c-0.027-0.003-0.055-0.005-0.082-0.009
		c-0.004-0.001-0.007-0.007-0.025-0.029c0.125-0.11,0.25-0.223,0.379-0.332c0.022-0.018,0.061-0.018,0.093-0.022
		c0.252-0.032,0.496,0.005,0.733,0.093c0.048,0.018,0.101,0.024,0.173,0.041c-0.112-0.162-0.264-0.211-0.783-0.269
		c0.121-0.201,0.391-0.368,0.612-0.372c0.241-0.004,0.473,0.041,0.695,0.135c0.059,0.025,0.119,0.047,0.194,0.076
		c-0.063-0.171-0.263-0.245-0.89-0.346c0.096-0.11,0.221-0.168,0.322-0.254c0.123-0.105,0.264-0.078,0.395-0.051
		c0.199,0.042,0.394,0.108,0.59,0.163c0.065,0.018,0.127,0.074,0.221,0.012c-0.282-0.178-0.583-0.25-0.932-0.302
		c0.106-0.075,0.185-0.136,0.268-0.191c0.216-0.142,0.216-0.141,0.475-0.104c0.185,0.026,0.348,0.104,0.503,0.204
		c0.05,0.032,0.104,0.088,0.2,0.027c-0.209-0.208-0.455-0.312-0.765-0.374c0.16-0.105,0.289-0.192,0.435-0.248
		c0.036-0.014,0.087,0.005,0.129,0.017c0.176,0.052,0.343,0.122,0.491,0.234c0.036,0.027,0.071,0.078,0.147,0.022
		c-0.131-0.209-0.352-0.278-0.574-0.368c0.108-0.096,0.231-0.14,0.348-0.194c0.026-0.012,0.067-0.005,0.095,0.006
		c0.148,0.059,0.295,0.122,0.441,0.186c0.048,0.021,0.094,0.049,0.152,0.08c-0.034-0.137-0.05-0.15-0.457-0.379
		c0.137-0.086,0.26-0.162,0.428-0.099c0.129,0.049,0.263,0.084,0.371,0.177c0.034,0.029,0.08,0.043,0.13,0.049
		c-0.083-0.183-0.242-0.268-0.418-0.334c0.129-0.133,0.27-0.171,0.42-0.095c0.123,0.062,0.236,0.143,0.352,0.216
		c0.05,0.031,0.097,0.066,0.155,0.105c0-0.134,0-0.134-0.453-0.449c0.152-0.071,0.297-0.142,0.448-0.16
		c0.087-0.01,0.19,0.047,0.274,0.095c0.124,0.071,0.236,0.163,0.358,0.239c0.04,0.025,0.089,0.081,0.151-0.002
		c-0.136-0.179-0.341-0.278-0.539-0.425c0.134-0.041,0.241-0.087,0.353-0.104c0.057-0.008,0.131,0.023,0.183,0.058
		c0.159,0.11,0.31,0.23,0.464,0.346c0.036,0.027,0.074,0.051,0.128,0.089c0.016-0.133-0.075-0.167-0.125-0.224
		c-0.054-0.062-0.118-0.116-0.181-0.17c-0.062-0.053-0.128-0.102-0.205-0.162c0.166-0.082,0.318-0.132,0.472-0.016
		c0.171,0.129,0.339,0.263,0.508,0.395c0.03,0.023,0.058,0.049,0.093,0.079c-0.019-0.141-0.209-0.348-0.555-0.605
		c0.26-0.065,0.504-0.11,0.751-0.15C22.483,16.453,17.37,21.795,11.158,21.563z"/>
	<path class="st0" d="M10.88,0.092c0.114,0.131,0.221,0.25,0.323,0.373c0.056,0.068,0.109,0.14,0.154,0.215
		c0.124,0.204,0.123,0.269,0.005,0.524c-0.15-0.2-0.295-0.397-0.498-0.541c-0.054,0.064-0.016,0.094,0.01,0.128
		c0.107,0.14,0.211,0.282,0.321,0.42c0.102,0.127,0.14,0.259,0.062,0.413c-0.027,0.053-0.04,0.114-0.066,0.189
		c-0.144-0.189-0.243-0.394-0.413-0.537c-0.07,0.022-0.064,0.061-0.036,0.104c0.077,0.121,0.156,0.241,0.233,0.362
		c0.03,0.046,0.06,0.093,0.084,0.142c0.047,0.093,0.058,0.186,0.012,0.286c-0.049,0.104-0.085,0.215-0.136,0.348
		c-0.072-0.112-0.123-0.209-0.19-0.292c-0.062-0.077-0.104-0.185-0.242-0.193c0.001,0.07,0.044,0.111,0.074,0.159
		c0.078,0.126,0.158,0.252,0.233,0.381c0.047,0.081,0.054,0.164,0.002,0.25c-0.03,0.051-0.05,0.107-0.087,0.187
		c-0.089-0.193-0.162-0.369-0.352-0.471c-0.015,0.08,0.034,0.116,0.056,0.162c0.05,0.104,0.104,0.206,0.15,0.311
		c0.074,0.168,0.04,0.32-0.085,0.467c-0.113-0.156-0.163-0.358-0.352-0.471c-0.022,0.079,0.032,0.116,0.05,0.162
		c0.058,0.143,0.119,0.284,0.182,0.425c0.033,0.074,0.018,0.138-0.02,0.204c-0.049,0.085-0.094,0.172-0.155,0.283
		c-0.094-0.231-0.164-0.447-0.355-0.586c-0.075,0.039-0.043,0.08-0.012,0.12c0.114,0.146,0.183,0.314,0.24,0.489
		c0.03,0.094,0.032,0.179-0.031,0.267c-0.067,0.093-0.119,0.197-0.197,0.33C9.786,4.395,9.681,4.146,9.468,3.908
		c-0.01,0.065-0.026,0.101-0.017,0.126c0.02,0.051,0.051,0.098,0.082,0.144c0.134,0.201,0.167,0.43,0.19,0.662
		c0.003,0.03-0.01,0.066-0.027,0.092C9.608,5.072,9.515,5.209,9.402,5.379C9.349,5.033,9.282,4.726,9.11,4.446
		C9.039,4.512,9.084,4.569,9.1,4.621c0.041,0.138,0.089,0.273,0.133,0.41c0.012,0.037,0.018,0.075,0.025,0.113
		c0.046,0.23,0.057,0.451-0.136,0.631C9.067,5.827,9.026,5.895,8.957,5.982C8.918,5.639,8.892,5.316,8.663,5.051
		C8.615,5.11,8.649,5.153,8.667,5.194c0.078,0.179,0.137,0.364,0.147,0.559c0.006,0.126-0.004,0.253-0.011,0.38
		C8.801,6.164,8.789,6.2,8.77,6.223C8.674,6.344,8.573,6.461,8.447,6.612c-0.02-0.311-0.043-0.587-0.214-0.826
		C8.165,5.851,8.204,5.903,8.222,5.952C8.308,6.19,8.346,6.433,8.311,6.685C8.305,6.727,8.3,6.779,8.274,6.806
		C8.166,6.924,8.05,7.033,7.927,7.155C7.904,6.829,7.822,6.523,7.661,6.242C7.649,6.245,7.637,6.248,7.625,6.251
		c0.002,0.027-0.001,0.055,0.007,0.081c0.045,0.154,0.106,0.305,0.134,0.461c0.028,0.156,0.024,0.318,0.03,0.477
		C7.797,7.295,7.787,7.328,7.77,7.345C7.659,7.459,7.545,7.57,7.414,7.676c0.014-0.393-0.085-0.743-0.27-1.069
		C7.131,6.61,7.118,6.613,7.105,6.616c0.002,0.03-0.002,0.061,0.007,0.088c0.032,0.1,0.069,0.198,0.104,0.297
		C7.289,7.208,7.294,7.42,7.291,7.639C7.289,7.78,7.235,7.862,7.14,7.942c-0.14,0.117-0.277,0.237-0.434,0.371
		c0.001-0.148,0.008-0.276,0-0.404c-0.008-0.127-0.025-0.254-0.05-0.378C6.629,7.406,6.604,7.276,6.528,7.169
		C6.516,7.172,6.504,7.175,6.492,7.177C6.494,7.217,6.488,7.259,6.5,7.295c0.114,0.344,0.097,0.698,0.09,1.052
		c0,0.025-0.009,0.059-0.027,0.072c-0.167,0.132-0.337,0.26-0.52,0.381c0.061-0.407,0.068-0.798-0.122-1.18
		c-0.076,0.045-0.048,0.101-0.035,0.15c0.065,0.244,0.08,0.491,0.049,0.741c-0.016,0.126-0.036,0.252-0.06,0.376
		C5.869,8.917,5.848,8.95,5.824,8.967C5.651,9.084,5.475,9.198,5.3,9.313c0.019-0.204,0.054-0.394,0.049-0.582
		C5.344,8.54,5.3,8.35,5.268,8.125C5.19,8.205,5.214,8.263,5.217,8.318c0.01,0.193,0.04,0.388,0.019,0.578
		C5.217,9.068,5.144,9.235,5.089,9.402c-0.011,0.032-0.047,0.062-0.079,0.08C4.871,9.562,4.73,9.637,4.55,9.735
		C4.72,9.366,4.737,9.021,4.633,8.64C4.609,8.689,4.586,8.714,4.585,8.739C4.585,8.856,4.59,8.972,4.594,9.088
		C4.603,9.349,4.487,9.57,4.368,9.789C4.348,9.824,4.307,9.853,4.269,9.873c-0.092,0.048-0.188,0.09-0.304,0.145
		C4.008,9.702,4.045,9.41,3.92,9.119C3.914,9.15,3.901,9.181,3.901,9.213C3.9,9.456,3.911,9.699,3.849,9.939
		c-0.027,0.105-0.073,0.176-0.184,0.208c-0.1,0.029-0.196,0.075-0.312,0.121c0-0.126,0.007-0.239-0.001-0.351
		c-0.008-0.107-0.03-0.214-0.08-0.31C3.259,9.61,3.245,9.612,3.232,9.614C3.237,9.67,3.247,9.726,3.246,9.781
		c-0.004,0.143-0.008,0.286-0.021,0.428c-0.008,0.084-0.06,0.136-0.145,0.16c-0.121,0.033-0.24,0.075-0.369,0.117
		c0.025-0.115,0.059-0.215,0.066-0.316c0.006-0.09,0.039-0.198-0.074-0.279C2.692,9.935,2.682,9.965,2.677,9.995
		c-0.008,0.055-0.004,0.112-0.02,0.164c-0.07,0.227-0.156,0.44-0.443,0.467c-0.095,0.009-0.189,0.041-0.317,0.071
		c0.147-0.212,0.26-0.396,0.241-0.621c-0.013-0.005-0.025-0.01-0.038-0.014c-0.014,0.031-0.033,0.06-0.041,0.092
		c-0.051,0.211-0.178,0.378-0.308,0.543c-0.018,0.023-0.055,0.038-0.085,0.044c-0.102,0.021-0.206,0.036-0.33,0.057
		c0.056-0.179,0.222-0.306,0.146-0.509c-0.029,0.043-0.059,0.086-0.086,0.13c-0.06,0.099-0.117,0.2-0.18,0.298
		c-0.05,0.078-0.118,0.126-0.218,0.125c-0.066-0.001-0.131,0.01-0.224,0.017c0.07-0.093,0.129-0.167,0.183-0.244
		c0.051-0.073,0.117-0.145,0.053-0.277c-0.101,0.136-0.187,0.251-0.281,0.376c-0.119-0.381,0.153-2.167,0.482-3.176
		C1.884,5.477,3.061,3.76,4.761,2.413C6.549,0.996,8.595,0.236,10.88,0.092z"/>
	<path class="st0" d="M11.01,0.091c0.206,0.008,0.412,0.016,0.63,0.024c-0.037,0.174-0.076,0.36-0.117,0.553
		c-0.185-0.187-0.359-0.362-0.533-0.537C10.997,0.118,11.004,0.105,11.01,0.091z"/>
</g>
</svg>
