<?xml version="1.0" encoding="utf-8"?>
<!-- Generator: Adobe Illustrator 25.2.1, SVG Export Plug-In . SVG Version: 6.00 Build 0)  -->
<svg version="1.1" id="Layer_1" xmlns="http://www.w3.org/2000/svg" xmlns:xlink="http://www.w3.org/1999/xlink" x="0px" y="0px"
	 viewBox="0 0 22.9 21.7" style="enable-background:new 0 0 22.9 21.7;" xml:space="preserve">
<style type="text/css">
	.st0{fill:#E1B724;}
</style>
<g>
	<path class="st0" d="M9.9,0.1c0.6,0,1.1,0.1,1.7,0.2c0.6,0.1,1.2,0.3,1.8,0.6c0.5,0.3,1,0.6,1.5,1.1c1,0.9,1.8,2,2.5,3.1
		c0.4,0.6,0.7,1.3,0.8,2c0.1,0.5,0.1,0.9,0.1,1.4c0,0.2,0,0.5-0.1,0.7c-0.1,0.4-0.3,0.8-0.6,1.2c-0.1,0.1-0.1,0.2-0.2,0.3
		c-0.3,0.4-0.4,0.8-0.5,1.2c-0.2,0.9,0,1.7,0.5,2.5c0.3,0.4,0.6,0.8,0.9,1.2c0.4,0.4,0.8,0.9,1.2,1.4c0.5,0.6,1.1,1.2,1.6,1.8
		c0.1,0.1,0.2,0.2,0.3,0.3c0.1,0.1,0.1,0.2,0.1,0.3c-0.1,0.3-0.3,0.6-0.5,0.9c-0.5,0.5-1,0.9-1.6,1.1c-0.2,0.1-0.4,0.1-0.6,0.1
		c-0.1,0-0.2,0-0.2-0.1c-1.1-1.7-2.3-3.4-3.4-5.1c-0.2-0.3-0.5-0.5-0.8-0.7c-0.5-0.3-1-0.5-1.6-0.5c-0.2,0-0.5,0-0.7,0
		c-0.2,0.1-0.3,0.1-0.5,0.2c-0.5,0.2-1,0.3-1.5,0.4c-0.3,0-0.6,0-0.9-0.1c-0.1,0-0.3,0-0.4-0.1c-0.5-0.1-1-0.4-1.4-0.7
		c-0.7-0.5-1.3-1-1.9-1.7c-0.3-0.3-0.5-0.6-0.7-0.9c0,0,0-0.1,0-0.1c0.7-0.4,1.1-0.9,1.2-1.7C6,9.6,5.7,8.9,5,8.3
		C4.6,7.9,4,7.7,3.4,7.7c-0.2,0-0.4,0-0.6,0.1c0,0-0.1,0-0.1,0c0-0.7,0-1.5,0.2-2.2c0.3-1.1,0.8-2.1,1.5-2.9
		c0.7-0.8,1.5-1.4,2.4-1.9c0.7-0.3,1.5-0.6,2.3-0.7C9.4,0.1,9.6,0.1,9.9,0.1z M6.4,2.1C6.4,2.1,6.4,2.1,6.4,2.1
		C6.4,2.1,6.4,2.1,6.4,2.1c1-0.6,2-0.9,3.1-1C10,1,10.7,1,11.3,1.2c0.8,0.2,1.6,0.5,2.3,0.9c0,0,0,0,0.1,0C13.6,2,13.5,2,13.4,1.9
		C12.2,1,10.8,0.6,9.3,0.8C8.5,0.9,7.8,1.2,7.1,1.6C6.8,1.7,6.6,1.9,6.4,2.1C6.4,2.1,6.4,2.1,6.4,2.1C6.3,2.1,6.3,2.1,6.4,2.1
		C6.3,2.1,6.4,2.1,6.4,2.1z M15.1,14C15.1,14,15.1,13.9,15.1,14C15.1,13.9,15.1,14,15.1,14C15.1,14,15.1,14,15.1,14
		C15.1,14,15.1,14,15.1,14C15.1,14,15.1,14,15.1,14c0.1,0.1,0.1,0.2,0.1,0.2c1.2,1.6,2.3,3.3,3.5,4.9c0.4,0.5,0.7,1,1.1,1.5
		c0,0,0.1,0.1,0.1,0c0.1-0.1,0.2-0.1,0.2-0.2c0,0,0-0.1,0-0.1c-0.5-0.6-1-1.2-1.5-1.9c-1-1.2-2-2.5-3-3.7
		C15.5,14.5,15.3,14.3,15.1,14C15.1,14,15.1,14,15.1,14C15.1,14,15.1,14,15.1,14C15.1,14,15.1,14,15.1,14z M15.4,13.7
		C15.4,13.7,15.4,13.7,15.4,13.7C15.4,13.7,15.4,13.7,15.4,13.7C15.4,13.7,15.4,13.7,15.4,13.7C15.4,13.8,15.4,13.8,15.4,13.7
		C15.4,13.8,15.4,13.8,15.4,13.7C15.4,13.7,15.4,13.7,15.4,13.7z M16.6,11.8C16.6,11.8,16.6,11.8,16.6,11.8
		c-0.3,0.3-0.6,0.5-0.9,0.8c0,0,0,0.1,0,0.1c0.3,0.4,0.6,0.7,0.9,1.1c0,0,0,0,0.1,0c0,0,0,0,0,0c0,0,0-0.1,0-0.1
		c-0.1-0.5-0.2-1-0.1-1.5C16.5,12.1,16.6,11.9,16.6,11.8C16.6,11.8,16.6,11.8,16.6,11.8C16.6,11.8,16.6,11.8,16.6,11.8z M15.5,13.8
		C15.4,13.8,15.5,13.9,15.5,13.8c1.4,1.9,2.8,3.8,4.2,5.6c0.2,0.3,0.4,0.5,0.6,0.8c0,0,0.1,0,0.1,0c0-0.1,0.1-0.1,0.1-0.1
		c0.1-0.1,0.1-0.1,0-0.2c-0.8-1-1.6-1.9-2.4-2.9c-0.8-1-1.6-1.9-2.4-2.9C15.6,14,15.5,13.9,15.5,13.8z M14.8,14.2
		C14.7,14.2,14.8,14.2,14.8,14.2c0.2,0.2,0.3,0.4,0.4,0.6c1.3,1.8,2.5,3.7,3.8,5.5c0.1,0.2,0.3,0.4,0.4,0.6c0,0,0,0.1,0.1,0
		c0.1-0.1,0.2-0.1,0.3-0.1c0.1,0,0.1-0.1,0-0.1c0,0,0,0,0,0c-0.8-1-1.6-2.1-2.3-3.1C16.5,16.4,15.6,15.3,14.8,14.2
		C14.8,14.2,14.8,14.2,14.8,14.2z M15.7,13.5C15.7,13.5,15.8,13.6,15.7,13.5c0.5,0.7,1,1.3,1.5,1.9c1,1.3,2,2.5,3,3.8
		c0.2,0.2,0.3,0.4,0.5,0.6c0,0.1,0.1,0.1,0.1,0c0-0.1,0.1-0.1,0.1-0.2c0.1-0.1,0-0.1,0-0.2c-0.7-0.9-1.5-1.7-2.2-2.6
		C17.7,15.7,16.7,14.6,15.7,13.5C15.8,13.5,15.8,13.5,15.7,13.5z M14.5,14.4C14.4,14.4,14.5,14.5,14.5,14.4c0.4,0.6,0.7,1.1,1,1.6
		c1.1,1.7,2.2,3.3,3.3,5c0,0.1,0.1,0.1,0.1,0c0.1,0,0.1,0,0.2-0.1c0.1,0,0.1,0,0-0.1C17.6,18.7,16.1,16.6,14.5,14.4
		C14.5,14.5,14.5,14.4,14.5,14.4z M7.2,13.9c0.6,0.4,1.4,0.7,2.1,0.7c0.9,0.1,2-0.2,2.2-0.4C10.1,14.6,8.7,14.5,7.2,13.9z
		 M14.3,15.3C14.3,15.3,14.3,15.2,14.3,15.3C14.3,15.2,14.3,15.2,14.3,15.3c-0.2-0.4-0.5-0.7-0.7-1.1c0,0-0.1,0-0.1,0
		c-0.2,0.1-0.4,0.2-0.6,0.4c-0.1,0.1-0.2,0.1-0.3,0.2C13.3,14.8,13.8,15,14.3,15.3z M14.7,14.1C14.7,14.1,14.7,14.1,14.7,14.1
		C14.7,14.2,14.7,14.1,14.7,14.1C14.7,14.1,14.7,14.1,14.7,14.1C14.7,14.1,14.7,14.1,14.7,14.1z M13.6,2.1
		C13.6,2.1,13.6,2.1,13.6,2.1C13.6,2.1,13.6,2.1,13.6,2.1C13.6,2.1,13.6,2.1,13.6,2.1C13.6,2.1,13.6,2.1,13.6,2.1z M6.3,2.1L6.3,2.1
		L6.3,2.1L6.3,2.1z"/>
	<path class="st0" d="M5.6,10.1c0,1.1-0.9,2.1-2.1,2.1c-1.1,0-2.1-0.9-2.1-2.1c0-1.1,0.9-2.1,2.1-2.1C4.7,8.1,5.6,9,5.6,10.1z"/>
</g>
</svg>
