<svg xmlns="http://www.w3.org/2000/svg" viewBox="0 0 21.37 21.4"><defs><style>.cls-1{fill:#0e0f1b;}</style></defs><g id="Layer_2" data-name="Layer 2"><g id="Layer_1-2" data-name="Layer 1"><path class="cls-1" d="M7.8,14.4a3.82,3.82,0,0,1-.9-.9v-.1a6.5,6.5,0,0,0,.9-2.3A3.21,3.21,0,0,0,8,9.4V8.3a7.73,7.73,0,0,1,.8-2.7c.4-.7.8-1.3,1.2-1.9a9.27,9.27,0,0,1,1.4-1.4A10.43,10.43,0,0,1,14.6.4,6.72,6.72,0,0,1,17,0a4.06,4.06,0,0,1,2.1.5A4,4,0,0,1,21.2,3a5.45,5.45,0,0,1,.1,2.2,7.82,7.82,0,0,1-.9,2.7,6.57,6.57,0,0,1-1.2,1.7A9.27,9.27,0,0,1,17.8,11a10.91,10.91,0,0,1-3.3,1.9,6.61,6.61,0,0,1-2.4.3h-.6a7.61,7.61,0,0,0-2.1.3c-.5.3-1,.6-1.6.9Zm5.4-2.1c0,.1.1.1,0,0h.4c.1,0,.2-.1.3-.1V12h.3v.1c.3-.1.5-.2.8-.3v-1h.3v.8c.1,0,.2-.1.1-.2h.3c.1-.1.2-.1.3-.2V9.7h.3v1.2h0a2.19,2.19,0,0,1,.5-.3h-.3v-.4h.8l.7-.7V9.4h-.5V9.1h.7c.1,0,.1,0,.2-.1s.3-.4.4-.6l.1-.1h-.3V8H19c.2,0,.2,0,.3-.2h-.1V6.3h.3v1c.1-.1.2-.3.1-.4h.1c.1-.3.2-.5.3-.8H18.6V5.8h1.5V6a1.27,1.27,0,0,0,.1-.6V5.3c.1-.1,0-.1,0-.2h-.6V4.8h.7V4.6h-.1v-1a2.54,2.54,0,0,0-.2-.7h-.4V2.6h.2a3,3,0,0,0-.5-.7h-.8V1.6h.3c-.1-.1-.3-.2-.4-.3V2.5h-.3V1.2C18,1,17.7,1,17.5.9v.4h-.3V.9h-.7V2.4h-.3V.9a1.45,1.45,0,0,0-.7.2v.2h-.3V1.2c-.3.1-.5.2-.8.3v.9h-.3V1.6a.22.22,0,0,0-.2.2.37.37,0,0,0-.3.1c-.1,0-.1.1-.2.1a.1.1,0,0,0-.1.1V3.4H13V2.2c-.1.1-.3.2-.4.3h.2v.3h-.7c-.1,0-.1.1-.2.2h.3V4.5h-.3V3c-.2.2-.4.3-.6.5h.4v.4H11c-.1,0-.1.1-.2.2h.3V5.5h-.3V4.1h0c-.1.2-.3.3-.4.5h.3v.3h-.3c-.2,0-.1,0-.3.1h0V6.5H9.8v-1c-.1.1-.1.3-.2.4s-.1.3-.2.4-.1.3-.1.4h1.4V7H9.2A3.08,3.08,0,0,0,9,8.1h.6v.3H9v.2h.1v.9a1.45,1.45,0,0,0,.2.7h.4v.3H9.5a1.79,1.79,0,0,0,.5.7h.8v.3h-.3a2.19,2.19,0,0,0,.5.3V10.6h.3v1.3a2.54,2.54,0,0,0,.7.2v-.4h.3v.4h1c-.2.3-.1.3-.1.2Zm-5,.9c.5-.2,1-.4,1.6-.6a4.74,4.74,0,0,1-1-1C8.6,12.1,8.4,12.7,8.2,13.2Z"/><path class="cls-1" d="M6.7,13.5a6.79,6.79,0,0,0,1.2,1.2c-1.2,1-2.4,2.1-3.5,3.2s-2.2,2.3-3.2,3.5L0,20.2c1.2-1,2.4-2.1,3.5-3.2S5.6,14.7,6.7,13.5Z"/><path class="cls-1" d="M18.1,1.5v.3H16.6V1.5Z"/><path class="cls-1" d="M11.1,10.1h-.3V8.6h.3Z"/><path class="cls-1" d="M10.8,6.5h.3V7.9h-.3Z"/><path class="cls-1" d="M14.5,1.5h1.4v.3H14.4A.37.37,0,0,0,14.5,1.5Z"/><path class="cls-1" d="M17.2,8.7h.3v1.5h-.3Z"/><path class="cls-1" d="M15.1,6.5h.3V8h-.3Z"/><path class="cls-1" d="M13.4,5.1V4.8h1.5v.3Z"/><path class="cls-1" d="M17.5,6.5V7.9h-.3V6.4A.37.37,0,0,0,17.5,6.5Z"/><path class="cls-1" d="M17.2,4.2h.3V5.6h-.3Z"/><path class="cls-1" d="M16.4,4.6h-.3V3.1h.3Z"/><path class="cls-1" d="M13.2,7.9h-.3V6.5h.3Z"/><path class="cls-1" d="M20.2,3.7V4H18.7V3.7Z"/><path class="cls-1" d="M15.1,8.7h.3v1.5h-.3Z"/><path class="cls-1" d="M13.8,8.1v.3H12.3V8.1Z"/><path class="cls-1" d="M19.3,4.2h.3V5.7h-.3Z"/><path class="cls-1" d="M13.4,7.3V7h1.5v.3Z"/><path class="cls-1" d="M15.9,8.1v.3H14.4V8.1Z"/><path class="cls-1" d="M15.1,4.2h.3V5.7h-.3Z"/><path class="cls-1" d="M16.1,5.3h.3V6.8h-.3Z"/><path class="cls-1" d="M16.1,9V7.5h.3V9Z"/><path class="cls-1" d="M13.2,10.1h-.3V8.7h.3Z"/><path class="cls-1" d="M13.8,4H12.3V3.7h1.5Z"/><path class="cls-1" d="M11.7,8.1v.3H10.2V8.1Z"/><path class="cls-1" d="M16.6,4V3.7h1.5V4Z"/><path class="cls-1" d="M13.2,5.7h-.3V4.2h.3Z"/><path class="cls-1" d="M18,8.4H16.5V8.1H18Z"/><path class="cls-1" d="M15.3,2V3.5H15V2Z"/><path class="cls-1" d="M17.5,3.5h-.3V2h.3Z"/><path class="cls-1" d="M19.3,2h.3V3.5h-.3Z"/><path class="cls-1" d="M13.4,9.6V9.3h1.5v.3Z"/><path class="cls-1" d="M15.9,3.7V4H14.4V3.7Z"/><path class="cls-1" d="M19.1,4.8v.3H17.6V4.8Z"/><path class="cls-1" d="M13.2,12.3h-.3V10.8h.3v1.5Z"/><path class="cls-1" d="M12.7,4.8v.3H11.2V4.8Z"/><path class="cls-1" d="M17,4.8v.3H15.5V4.8Z"/><path class="cls-1" d="M15.5,7.3V7H17v.3Z"/><path class="cls-1" d="M11.3,9.6V9.3h1.5v.3Z"/><path class="cls-1" d="M9.1,9.3h1.5v.3H9.1Z"/><path class="cls-1" d="M19.1,7v.3H17.6V7Z"/><path class="cls-1" d="M15.5,9.6V9.3H17v.3Z"/><path class="cls-1" d="M11.2,7.3V7h1.5v.3Z"/><path class="cls-1" d="M11.7,5.9v.3H10.2V5.9Z"/><path class="cls-1" d="M13.9,9V7.6h.3V9Z"/><path class="cls-1" d="M15.9,10.4v.3H14.4v-.3Z"/><path class="cls-1" d="M18.5,6.8h-.3V5.3h.3Z"/><path class="cls-1" d="M12.1,6.8h-.3V5.3h.3Z"/><path class="cls-1" d="M11.8,9V7.5h.3V9Z"/><path class="cls-1" d="M13.9,9.8h.3v1.4h-.3Z"/><path class="cls-1" d="M13.9,5.3h.3V6.8h-.3Z"/><path class="cls-1" d="M13.8,10.4v.3H12.4v-.3Z"/><path class="cls-1" d="M14.8,11.5v.3H13.4v-.3Z"/><path class="cls-1" d="M9.7,7.6H10V9.1H9.7Z"/><path class="cls-1" d="M18.5,4.6h-.3V3.1h.3Z"/><path class="cls-1" d="M14.5,6.2V5.9H16v.3Z"/><path class="cls-1" d="M18.5,9h-.3V7.5h.3Z"/><path class="cls-1" d="M11.6,10.7H10.2v-.3h1.5C11.7,10.5,11.6,10.6,11.6,10.7Z"/><path class="cls-1" d="M14.2,4.6h-.3V3.2h.3Z"/><path class="cls-1" d="M18.1,5.9v.3H16.6V5.9Z"/><path class="cls-1" d="M13.4,2.9V2.6h1.5v.3Z"/><path class="cls-1" d="M12.3,6.2V5.9h1.5v.3Z"/><path class="cls-1" d="M12.1,11.2h-.3V9.7h.3Z"/><path class="cls-1" d="M10,11.2H9.7V9.7H10A7.52,7.52,0,0,1,10,11.2Z"/><path class="cls-1" d="M17,2.6v.3H15.5V2.6Z"/><path class="cls-1" d="M17.6,2.9V2.6h1.5v.3Z"/><path class="cls-1" d="M12.7,11.5v.3H11.2v-.3Z"/></g></g></svg>