<?xml version="1.0" encoding="utf-8"?>
<!-- Generator: Adobe Illustrator 25.2.3, SVG Export Plug-In . SVG Version: 6.00 Build 0)  -->
<svg version="1.1" id="Layer_1" xmlns="http://www.w3.org/2000/svg" xmlns:xlink="http://www.w3.org/1999/xlink" x="0px" y="0px"
	 viewBox="0 0 40 40" style="enable-background:new 0 0 40 40;" xml:space="preserve">
<style type="text/css">
	.st0{fill:#E1B724;}
</style>
<g>
	<path class="st0" d="M15.8,13.8c-0.4-0.5-0.8-0.9-1.3-1.4c-1.1-1.1-2.3-2.1-3.3-2.9c-5.9,5.3-8.6,11-9.8,14.8
		c-0.1,0.3-0.2,0.6-0.3,0.9c0.7,2.6,1.9,5,3.7,7.2c0.2-1,0.5-2,0.8-3.2C6.8,25.2,9.6,19.2,15.8,13.8z"/>
	<path class="st0" d="M34.6,24.3c-3.2,1.5-6.2,2.4-9.1,2.6c-3.4,0.3-6.5-0.3-9.2-1.8c-0.8,1.1-1.5,2.5-2.2,4
		c-0.3,0.6-0.5,1.1-0.7,1.6c6,3.5,12.9,2.8,17.7,1.6c2.1-0.5,3.9-1.1,5.4-1.7c1.8-2.8,2.8-6,3.1-9.2C38.2,22.4,36.5,23.4,34.6,24.3z
		"/>
	<path class="st0" d="M29.5,18.2c-4.9,2.3-8.2,2.3-9.3,2.2c0,0-0.1,0-0.1,0c0,0,0,0,0,0c-0.5,0.4-1.8,1.8-3.2,3.9
		c5.8,3.2,12.6,1.3,17.3-0.9c2.1-1,4-2.1,5.6-3.1c0-2.7-0.5-5.4-1.6-7.9c0,0,0,0,0,0C37,13.5,34,16.1,29.5,18.2z"/>
	<path class="st0" d="M25.3,18.8c-0.1-6.8-5.6-11.6-10.2-14.4c-1.3-0.8-2.6-1.5-3.9-2.1C9.6,3.2,8,4.2,6.6,5.6
		c1.5,0.7,5,2.5,8.5,6.1c3.7,3.7,4.9,6.7,5.2,7.8C21.1,19.5,22.8,19.5,25.3,18.8z"/>
	<path class="st0" d="M10.3,8.9C8.2,7.4,6.5,6.6,5.8,6.3c-4.5,4.7-6.3,11-5.3,17C1.9,19.4,4.7,13.9,10.3,8.9z"/>
	<path class="st0" d="M31.3,33.4c-7.1,1.7-13.4,1.1-18.3-1.7c-1.2,3.4-1.1,5.6-1.1,6.3c7.2,3.2,16,1.9,22-4.1
		c0.6-0.6,1.1-1.2,1.6-1.8C34.3,32.6,32.9,33,31.3,33.4z"/>
	<path class="st0" d="M15.6,3.6c3.1,1.8,5.5,3.9,7.3,6.1c2.2,2.7,3.3,5.7,3.4,8.8c0.9-0.3,1.8-0.6,2.8-1.1c0.7-0.3,1.3-0.6,1.9-0.9
		c0,0,0-0.1,0-0.1C30.8,9.4,26.2,4.2,22.4,1c-0.3-0.2-0.6-0.4-0.8-0.7c-3.1-0.2-6.2,0.2-9.1,1.5C13.4,2.3,14.5,2.9,15.6,3.6z"/>
	<path class="st0" d="M13.2,28.7c2.4-5.1,5.5-8.2,6.3-9c-0.2-0.8-1-2.7-3-5.2c-6,5.3-8.7,11-10,14.9c-0.5,1.5-0.8,2.8-1,3.9
		c0.2,0.2,0.4,0.4,0.6,0.6c1.5,1.5,3.1,2.7,4.9,3.6C10.9,36.1,11.2,33,13.2,28.7z"/>
	<path class="st0" d="M23.4,0.6c2.4,2,4.3,4.1,5.7,6.4c1.8,2.8,2.7,5.8,2.8,8.9c3.2-1.9,5.2-3.9,5.8-4.5c-0.9-1.9-2.2-3.7-3.8-5.3
		C31,3.1,27.3,1.3,23.4,0.6z"/>
</g>
</svg>
