<svg xmlns="http://www.w3.org/2000/svg" viewBox="0 0 19.94 27.02"><defs><style>.cls-1{fill:#341A5D;}</style></defs><g id="Layer_2" data-name="Layer 2"><g id="Layer_1-2" data-name="Layer 1"><path class="cls-1" d="M3.93,7.37V7a.8.8,0,0,1,.8-.8H8.27a.8.8,0,0,1,.8.8v.41a.79.79,0,0,1-.8.79H4.73A.79.79,0,0,1,3.93,7.37ZM19.94,1V21.67a.7.7,0,0,1-.7.7H.7a.7.7,0,0,1-.7-.7V1A1,1,0,0,1,1,0H18.94A1,1,0,0,1,19.94,1Zm-2,1H2V20.37H17.94ZM11.61,8.16h3.54a.79.79,0,0,0,.8-.79V7a.8.8,0,0,0-.8-.8H11.61a.8.8,0,0,0-.8.8v.41A.79.79,0,0,0,11.61,8.16ZM8.3,10.49H4.76a.8.8,0,0,0-.8.8v.4a.8.8,0,0,0,.8.8H8.3a.8.8,0,0,0,.8-.8v-.4A.8.8,0,0,0,8.3,10.49Zm6.88,0H11.64a.8.8,0,0,0-.8.8v.4a.8.8,0,0,0,.8.8h3.54a.8.8,0,0,0,.8-.8v-.4A.8.8,0,0,0,15.18,10.49ZM8.3,15H4.76a.8.8,0,0,0-.8.8v.4a.8.8,0,0,0,.8.8H8.3a.8.8,0,0,0,.8-.8v-.4A.8.8,0,0,0,8.3,15Zm6.88,0H11.64a.8.8,0,0,0-.8.8v.4a.8.8,0,0,0,.8.8h3.54a.8.8,0,0,0,.8-.8v-.4A.8.8,0,0,0,15.18,15Zm4.06,10H.7a.7.7,0,0,0-.7.7v.6a.7.7,0,0,0,.7.7H19.24a.7.7,0,0,0,.7-.7v-.6A.7.7,0,0,0,19.24,25Z"/></g></g></svg>