<svg id="Group_2501" data-name="Group 2501" xmlns="http://www.w3.org/2000/svg" width="40.243" height="40.244" viewBox="0 0 40.243 40.244">
  <g id="Group_2500" data-name="Group 2500">
    <path id="Path_1695" data-name="Path 1695" d="M313.55,352.863H295.494A11.094,11.094,0,0,0,284.4,363.957v18.056a11.094,11.094,0,0,0,11.094,11.094H313.55a11.093,11.093,0,0,0,11.093-11.094V363.957a11.093,11.093,0,0,0-11.094-11.094Zm7.841,29.1a7.888,7.888,0,0,1-7.887,7.888H295.54a7.889,7.889,0,0,1-7.888-7.887V364a7.888,7.888,0,0,1,7.887-7.887H313.5A7.887,7.887,0,0,1,321.391,364Z" transform="translate(-284.4 -352.863)" fill="#fff"/>
    <path id="Path_1696" data-name="Path 1696" d="M305.93,363.789a10.6,10.6,0,1,0,7.5,3.1,10.6,10.6,0,0,0-7.5-3.1Zm0,17.522a6.918,6.918,0,1,1,6.918-6.918,6.918,6.918,0,0,1-6.918,6.918Z" transform="translate(-285.809 -354.272)" fill="#fff"/>
    <path id="Path_1697" data-name="Path 1697" d="M322.117,363.031a2.379,2.379,0,1,1-2.38-2.379,2.379,2.379,0,0,1,2.38,2.379Z" transform="translate(-288.65 -353.867)" fill="#fff"/>
  </g>
</svg>
