<svg xmlns="http://www.w3.org/2000/svg" viewBox="0 0 24.74 35.87"><defs><style>.cls-1{fill:#000;}</style></defs><g id="Layer_2" data-name="Layer 2"><g id="Layer_1-2" data-name="Layer 1"><path class="cls-1" d="M7.23,9.44H17.84a.84.84,0,0,0,.8-.87c0-.25,0-.52,0-.77V7.73a.84.84,0,0,0-.87-.81H9.21c-.7,0-1.4,0-2.1,0H7a.8.8,0,0,0-.76.85V8.5a.54.54,0,0,0,0,.18A.86.86,0,0,0,7.23,9.44Z"/><path class="cls-1" d="M17.77,12.4H7.05a.82.82,0,0,0-.77.85V14a1.21,1.21,0,0,0,0,.19.85.85,0,0,0,1,.75H17.85a.84.84,0,0,0,.8-.87c0-.25,0-.51,0-.77v-.07A.84.84,0,0,0,17.77,12.4Z"/><path class="cls-1" d="M24.73,21.1V.91a.33.33,0,0,0,0-.14A.84.84,0,0,0,23.82,0H.78A.85.85,0,0,0,0,.9V13.79c0,.75,0,1.49,0,2.22V26.7a.85.85,0,0,0,.34.74L2.63,29a.79.79,0,0,0,1,0,1.64,1.64,0,0,0,.22-.14,8.74,8.74,0,0,0,17.14,0l.17.12a.86.86,0,0,0,1,0c.69-.47,1.38-.94,2.08-1.4a1.1,1.1,0,0,0,.51-1C24.72,24.74,24.73,22.92,24.73,21.1ZM12.37,33.87a6.74,6.74,0,1,1,6.74-6.74A6.74,6.74,0,0,1,12.37,33.87Zm9.88-8.2a.29.29,0,0,1-.15.28c-.48.31-.47.31-.94,0a1.19,1.19,0,0,1-.15-.09,8.73,8.73,0,0,0-17.28,0l-.5.34c-.1.07-.17.05-.28,0a.84.84,0,0,1-.48-.9q0-11.24,0-22.47V2.52a.75.75,0,0,0,.21,0H22c.2,0,.26,0,.26.24,0,2.82,0,5.65,0,8.47v8.46Q22.24,22.67,22.25,25.67Z"/><path class="cls-1" d="M14,26.63c-.34-.14-.71-.22-1-.34-.7-.24-1.31-.26-1.73-.94a1.34,1.34,0,0,1,.05-1.54,1.42,1.42,0,0,1,1.41-.53,1.35,1.35,0,0,1,.79.53,7.72,7.72,0,0,1,.38,1,.78.78,0,0,0,.75.41h0a.87.87,0,0,0,.86-.87,1.86,1.86,0,0,0-.18-.68A3.14,3.14,0,0,0,14,22.3,3.51,3.51,0,0,0,12.93,22v-.34h0a.56.56,0,0,0-.56-.55h0a.57.57,0,0,0-.56.56V22a3.1,3.1,0,0,0-1.76.91,2.62,2.62,0,0,0-.76,1.93,2.65,2.65,0,0,0,.39,1.48A5.34,5.34,0,0,0,12.77,28a2.3,2.3,0,0,1,.93.51,1,1,0,0,1,.3.82,1.22,1.22,0,0,1-.32.85,1.68,1.68,0,0,1-1.79.42c-.83-.26-1-.93-1.24-1.48a.81.81,0,0,0-.75-.41h0a.87.87,0,0,0-.86.87,1.61,1.61,0,0,0,.19.68,3,3,0,0,0,1.4,1.4,4.63,4.63,0,0,0,1.2.32v.34a.56.56,0,0,0,1.12,0V32a3.42,3.42,0,0,0,2-.91,2.91,2.91,0,0,0,.37-3.42A2.72,2.72,0,0,0,14,26.63Z"/></g></g></svg>