<svg xmlns="http://www.w3.org/2000/svg" width="26.404" height="26.403" viewBox="0 0 26.404 26.403">
  <path id="download" d="M26.22,3.667A3.886,3.886,0,0,0,22.736.183C18.145-.263,9.694-.273,4.711,4.711S-.264,18.142.184,22.735A3.888,3.888,0,0,0,3.669,26.22c1.062.1,2.333.184,3.719.184,4.6,0,10.475-.883,14.3-4.711C26.675,16.708,26.668,8.26,26.22,3.667ZM5.809,5.809C9.264,2.354,14.69,1.55,18.987,1.55c1.341,0,2.57.077,3.6.177a2.332,2.332,0,0,1,.776.217L16.308,9,13.751,6.44a.777.777,0,0,0-1.1,1.1L15.209,10.1,13.2,12.1,10.645,9.546a.777.777,0,1,0-1.1,1.1L12.1,13.2,10.1,15.208,7.54,12.651a.777.777,0,1,0-1.1,1.1L9,16.306,1.946,23.359a2.309,2.309,0,0,1-.216-.777C1.308,18.263,1.279,10.338,5.809,5.809ZM3.819,24.673c4.321.42,12.245.452,16.776-4.08S25.1,8.139,24.673,3.817a2.316,2.316,0,0,0-.215-.775L17.405,10.1l2.556,2.557a.776.776,0,1,1-1.1,1.1l-2.556-2.556L14.3,13.2l2.557,2.557a.776.776,0,1,1-1.1,1.1L13.2,14.3l-2.007,2.008,2.557,2.557a.776.776,0,1,1-1.1,1.1L10.1,17.4,3.043,24.458A2.333,2.333,0,0,0,3.819,24.673Z" fill="#e5e5e5" fill-rule="evenodd"/>
</svg>
