<svg xmlns="http://www.w3.org/2000/svg" width="23.497" height="26.63" viewBox="0 0 23.497 26.63">
  <g id="download_1_" data-name="download (1)" transform="translate(-0.177)">
    <path id="Path_1614" data-name="Path 1614" d="M4.313-7.068H16.844a.783.783,0,0,1,.554.229.783.783,0,0,1,.229.554.783.783,0,0,1-.229.554.783.783,0,0,1-.554.229H4.313a.783.783,0,0,1-.554-.229.783.783,0,0,1-.229-.554.783.783,0,0,1,.229-.554A.783.783,0,0,1,4.313-7.068Z" transform="translate(1.347 24.287)" fill="#fff"/>
    <path id="Path_1615" data-name="Path 1615" d="M4.333-11.775H10.6a.784.784,0,0,1,.554.229.783.783,0,0,1,.229.554.783.783,0,0,1-.229.554.784.784,0,0,1-.554.229H4.333a.783.783,0,0,1-.554-.229.783.783,0,0,1-.229-.554.783.783,0,0,1,.229-.554A.783.783,0,0,1,4.333-11.775Z" transform="translate(1.353 22.726)" fill="#fff"/>
    <path id="Path_1616" data-name="Path 1616" d="M12.543-11.775H14.11a.784.784,0,0,1,.554.229.783.783,0,0,1,.23.554.783.783,0,0,1-.23.554.784.784,0,0,1-.554.229H12.543a.783.783,0,0,1-.554-.229.783.783,0,0,1-.229-.554.783.783,0,0,1,.229-.554A.783.783,0,0,1,12.543-11.775Z" transform="translate(4.075 22.726)" fill="#fff"/>
    <path id="Path_1617" data-name="Path 1617" d="M4.333-15.312H10.6a.784.784,0,0,1,.554.229.783.783,0,0,1,.229.554.783.783,0,0,1-.229.554.784.784,0,0,1-.554.23H4.333a.783.783,0,0,1-.554-.23.783.783,0,0,1-.229-.554.783.783,0,0,1,.229-.554A.783.783,0,0,1,4.333-15.312Z" transform="translate(1.353 21.554)" fill="#fff"/>
    <path id="Path_1618" data-name="Path 1618" d="M12.557-15.312h1.566a.782.782,0,0,1,.554.229.783.783,0,0,1,.229.554.782.782,0,0,1-.229.554.783.783,0,0,1-.554.23H12.557a.784.784,0,0,1-.554-.23.782.782,0,0,1-.229-.554A.783.783,0,0,1,12-15.083.784.784,0,0,1,12.557-15.312Z" transform="translate(4.08 21.554)" fill="#fff"/>
    <path id="Path_1619" data-name="Path 1619" d="M2.35-20h18.8a2.342,2.342,0,0,1,2.35,2.328V4.3a2.342,2.342,0,0,1-2.35,2.33.753.753,0,0,1-.246-.041L16.448,5.126,12.06,6.587a.778.778,0,0,1-.5,0L7.022,5.053,2.607,6.587a.809.809,0,0,1-.257.043A2.342,2.342,0,0,1,0,4.3V-17.672A2.342,2.342,0,0,1,2.35-20ZM1.762,4.8a.764.764,0,0,0,.478.252L6.762,3.483a.781.781,0,0,1,.508,0L11.814,5.02,16.2,3.558a.8.8,0,0,1,.494,0l4.558,1.5A.77.77,0,0,0,21.93,4.3V-17.672a.773.773,0,0,0-.783-.762H2.35a.773.773,0,0,0-.783.762V4.3A.766.766,0,0,0,1.762,4.8Z" transform="translate(0.177 20)" fill="#e5e5e5" fill-rule="evenodd"/>
  </g>
</svg>
