<svg xmlns="http://www.w3.org/2000/svg" width="24.246" height="23.299" viewBox="0 0 24.246 23.299">
  <path id="Path_1585" data-name="Path 1585" d="M277.611,136.464,266,126.263a.507.507,0,0,0-.67,0l-11.616,10.2a.507.507,0,0,0,.335.888h2.544a.439.439,0,0,0-.014.068v11.507a.508.508,0,0,0,.507.507h17.156a.508.508,0,0,0,.507-.507V137.353h2.53a.507.507,0,0,0,.335-.888Zm-9.752,11.956h-4.4v-6.684h4.4Zm5.872,0h-4.857v-7.191a.508.508,0,0,0-.507-.507h-5.412a.508.508,0,0,0-.507.507v7.191h-4.857v-11a.447.447,0,0,0-.014-.068h16.155Zm-18.34-12.083,10.269-9.019,10.269,9.019Z" transform="translate(-253.537 -126.136)" fill="#000"/>
</svg>
