<svg xmlns="http://www.w3.org/2000/svg" width="27.465" height="27.465" viewBox="0 0 27.465 27.465">
  <g id="dc2946229e3b343dd62b5db66596b1b8" transform="translate(-10 -10)">
    <path id="Path_1620" data-name="Path 1620" d="M306.966,173.234a5.567,5.567,0,1,1,5.566-5.569A5.573,5.573,0,0,1,306.966,173.234Zm0-9.98a4.414,4.414,0,1,0,4.414,4.414A4.416,4.416,0,0,0,306.966,163.255Z" transform="translate(-283.233 -147.837)" fill="#e5e5e5"/>
    <path id="Path_1621" data-name="Path 1621" d="M184.9,527.89a.576.576,0,0,1-.577-.577,8.185,8.185,0,0,0-16.37,0,.577.577,0,0,1-1.155,0,9.339,9.339,0,0,1,18.679,0A.58.58,0,0,1,184.9,527.89Z" transform="translate(-152.406 -493.763)" fill="#e5e5e5"/>
    <path id="Path_1622" data-name="Path 1622" d="M23.732,37.465A13.732,13.732,0,1,1,37.465,23.732,13.747,13.747,0,0,1,23.732,37.465Zm0-26.31A12.578,12.578,0,1,0,36.313,23.732,12.591,12.591,0,0,0,23.732,11.155Z" transform="translate(0 0)" fill="#e5e5e5"/>
  </g>
</svg>
