<svg id="Layer_1" data-name="Layer 1" xmlns="http://www.w3.org/2000/svg" viewBox="0 0 73.34 116.09"><g id="Group_2553" data-name="Group 2553"><path d="M20.62,106.05l.06-2c0-1.13.76-27.57.85-28.86h0a1.22,1.22,0,0,1,.54-.92c.76-.5,1.84-.13,4.45.75a54.75,54.75,0,0,0,5.94,1.76,22.24,22.24,0,0,0,4.32.65,16.83,16.83,0,0,0,2.36-.21,13,13,0,0,1,1.8-.15,49,49,0,0,0,5.32-1.58c3.56-1.2,4.84-1.59,5.63-1a1.17,1.17,0,0,1,.5,1c0,1.06-.15,27.47-.16,28.59v1.91L36.43,94.84Zm2.87-29.89c-.13,3.53-.51,17.16-.76,25.94l13.7-9.71,13.81,9.7c0-5.6.14-21.84.15-25.79-.86.2-2.34.7-3.49,1.08a46.41,46.41,0,0,1-5.7,1.67l-.11,0H41a9,9,0,0,0-1.56.14,20.14,20.14,0,0,1-2.68.22,24.54,24.54,0,0,1-4.72-.7,58.14,58.14,0,0,1-6.14-1.81C25.06,76.64,24.12,76.32,23.49,76.16Zm0-.82Z"/><path d="M36.57,73.46A36.78,36.78,0,1,1,70.46,22.39a36.29,36.29,0,0,1,2.88,14.28A36.82,36.82,0,0,1,36.57,73.46Zm0-71.56A34.77,34.77,0,1,0,71.34,36.67a34.35,34.35,0,0,0-2.72-13.5h0A34.83,34.83,0,0,0,36.52,1.9Zm.15,66.45h0A31.68,31.68,0,1,1,68.35,36.67,31.71,31.71,0,0,1,36.67,68.35ZM36.67,7A29.68,29.68,0,1,0,66.35,36.67,29.71,29.71,0,0,0,36.67,7Z"/><path d="M48.72,56.41a2.46,2.46,0,0,1-1.19-.31L36.57,50l-11,6A2.46,2.46,0,0,1,22,53.35L24.39,41,15.28,32.4a2.49,2.49,0,0,1-.75-1.48,2.45,2.45,0,0,1,2.14-2.73l12.47-1.5,5.39-11.33a2.45,2.45,0,0,1,4.44,0l5.28,11.39L56.69,28.4a2.45,2.45,0,0,1,1.86,1.3l.06,0,.11.36A2.45,2.45,0,0,1,58,32.63l-9.2,8.54,2.3,12.34a2.53,2.53,0,0,1-.27,1.64A2.47,2.47,0,0,1,48.72,56.41ZM36.58,47.7l11.93,6.65a.45.45,0,0,0,.61-.18.44.44,0,0,0,.05-.3l-2.5-13.42,10-9.29a.46.46,0,0,0,.14-.4l0-.07a.46.46,0,0,0-.37-.31L42.89,28.61,37.15,16.22a.46.46,0,0,0-.81,0L30.47,28.54,16.91,30.17a.46.46,0,0,0-.39.51.42.42,0,0,0,.14.27l9.9,9.39-2.63,13.4a.45.45,0,0,0,.35.53.48.48,0,0,0,.31-.05Z"/></g></svg>