<svg xmlns="http://www.w3.org/2000/svg" viewBox="0 0 246.28 278.23"><defs><style>.cls-1{fill:#606E76;}</style></defs><g id="Layer_2" data-name="Layer 2"><g id="Layer_1-2" data-name="Layer 1"><path class="cls-1" d="M92.49,230.27a36.87,36.87,0,0,0,19.09-18.51A51.27,51.27,0,0,0,116.12,190c.06-10,0-20.14,0-29.95l0-3.33a85.47,85.47,0,0,0-.89-12.63,38.45,38.45,0,0,0-7.87-18.57,175.1,175.1,0,0,0-16.1-16.87c-1.36-1.31-2.75-2.59-4.13-3.88-2.68-2.49-5.46-5.06-8-7.73S74,91.33,71.63,88.45l-1.74-2.11A9.5,9.5,0,0,1,67.6,81l-.08-1c-.1-1.24-.2-2.51-.21-3.77,0-11.08,0-23,0-34.67a18.81,18.81,0,0,1,.61-4l.07-.3a2.22,2.22,0,0,1,2.08-1.8,14.21,14.21,0,0,1,7.83,1.17,3.4,3.4,0,0,1,1.64,1.68,19.65,19.65,0,0,1,1.75,8.81q0,15.48,0,31V90.45l34,1.44V47.27c0-1.23,0-2.46-.07-3.66a57.89,57.89,0,0,0-2.76-16.13A34.8,34.8,0,0,0,93.84,6.2C86.69,2.82,78.43.84,68.6.14c-.29,0-.57-.06-.86-.09L67.3,0H64.17l-1,.09-2,.19A32.23,32.23,0,0,0,46.8,4.9c-5.57,3.49-9.52,8.52-12.06,15.36a48.2,48.2,0,0,0-2.83,14.27c-.15,2.49-.17,5-.17,7.38,0,12.57,0,23.73,0,34.11a105.74,105.74,0,0,0,1,15.21,31.67,31.67,0,0,0,7,15.35,208.16,208.16,0,0,0,21.64,23.11A192.62,192.62,0,0,1,76.05,144.5c.81.93,1.57,1.94,2.31,2.92l.19.26a12,12,0,0,1,2,7.06c.11,2.92.17,6,.17,9.18q0,9.89,0,19.77v6.69a18.44,18.44,0,0,1-.82,6.19,5.5,5.5,0,0,1-3.51,3.59,15.67,15.67,0,0,1-7,.92,1.73,1.73,0,0,1-1.46-1,18.25,18.25,0,0,1-1.71-7.41c0-.54,0-1.11,0-1.73V139.54l-34.42,1.38,0,.54c0,.19,0,.36,0,.53v15.19c0,13.15,0,26.75,0,40.12a51.18,51.18,0,0,0,3.7,20c2.9,6.9,7.18,11.75,13.07,14.83a32.83,32.83,0,0,0,12.39,3.45l2.33.2,1,.08h2.58l0,0,.12,0,.11-.05,2.9-.25c2-.17,4.13-.35,6.18-.64A62.16,62.16,0,0,0,92.49,230.27Z"/><path class="cls-1" d="M210.89,124.78A22.31,22.31,0,0,0,205,112.86c-.39-.4-.81-.79-1.2-1.15l-.32-.31c.23-.4.47-.81.71-1.2.6-1,1.17-2,1.66-3a34,34,0,0,0,3.11-15c0-18.76,0-37.22,0-52.8,0-3.39-.09-6.18-.27-8.78a41,41,0,0,0-2.94-13.17c-2.66-6.41-6.79-10.68-12.64-13A34.15,34.15,0,0,0,181.5,2.14a75.08,75.08,0,0,0-14.24.95c-5.23.77-10.82,1.56-18.12,2.58-4.29.6-8.59,1.17-12.89,1.75l-3.3.44-5.27.7-2.79.36V227l4.85.57L141,228.88l8.25,1,8.26,1,4.52.56c4,.5,8.08,1,12.13,1.38,1.63.15,3.23.22,4.81.22a45.9,45.9,0,0,0,11.38-1.38c9.29-2.37,15.62-8,18.81-16.83a43.5,43.5,0,0,0,2.47-15c0-21.38,0-44.18,0-67.25A44.53,44.53,0,0,0,210.89,124.78ZM160.76,99.2l-2,0V35.65l2.59-.27c2.38-.25,4.83-.51,7.24-.71a14.22,14.22,0,0,1,2.43.11l.8.08a.9.9,0,0,1,.92.84c0,.32.1.64.15,1a16.4,16.4,0,0,1,.28,2.6q0,25.64,0,51.26v4.27c0,.28,0,.55,0,.83s0,.46-.05.69a2,2,0,0,1-2,2.15l-.29,0c-1.53.21-3.12.42-4.69.51C164.34,99.11,162.52,99.16,160.76,99.2Zm-.38,29.33,1.49,0c3.34.07,6.68.13,10,.22a3.44,3.44,0,0,1,.75.12,5.09,5.09,0,0,0,.68.12,2,2,0,0,1,1.94,2c0,.32.07.64.11,1a30,30,0,0,1,.29,3.54c0,18.64,0,38.23,0,59.89a18.15,18.15,0,0,1-.36,3.27,2.37,2.37,0,0,1-2.1,2.07,23.14,23.14,0,0,1-4.39.26c-1.95-.11-3.93-.31-5.84-.51l-2.39-.25a1.38,1.38,0,0,1-.2,0Z"/><polygon class="cls-1" points="219.54 223.86 221.41 226.65 221.44 226.65 223.32 223.84 223.32 228.11 224.37 228.11 224.37 222.16 223.25 222.16 221.44 224.97 219.63 222.16 218.51 222.16 218.51 228.11 219.54 228.11 219.54 223.86"/><polygon class="cls-1" points="217.41 222.16 212.58 222.16 212.58 223.13 214.46 223.13 214.46 228.11 215.52 228.11 215.52 223.13 217.41 223.13 217.41 222.16"/><path class="cls-1" d="M15.06,253.63a11.71,11.71,0,0,1,8.68,4.08l3.78-3.61a16.41,16.41,0,0,0-12.38-5.71,15.48,15.48,0,0,0-7.71,2,14.3,14.3,0,0,0-5.51,5.31A14.75,14.75,0,0,0,0,263.27,14.55,14.55,0,0,0,4.22,274a14.72,14.72,0,0,0,10.85,4.2,16.29,16.29,0,0,0,6.39-1.18,20.27,20.27,0,0,0,5.95-4.27L23.74,269a15.46,15.46,0,0,1-4.28,3.2,10.48,10.48,0,0,1-4.31.88,10.08,10.08,0,0,1-5-1.26,8.89,8.89,0,0,1-3.5-3.46,10.18,10.18,0,0,1-1.23-5.05,9.51,9.51,0,0,1,9.65-9.64Z"/><path class="cls-1" d="M48.83,248.39A14.87,14.87,0,0,0,36,255.81a15.19,15.19,0,0,0,2.26,18,14.09,14.09,0,0,0,10.63,4.42,14.1,14.1,0,0,0,10.39-4.3,15.15,15.15,0,0,0-.06-21.17A14.11,14.11,0,0,0,48.83,248.39Zm6.6,21.83A8.84,8.84,0,0,1,48.87,273a9.31,9.31,0,0,1-6-2.14,9.09,9.09,0,0,1-3.38-7.46,9.55,9.55,0,0,1,2.68-7,9.32,9.32,0,0,1,13.27.07,10,10,0,0,1,0,13.72Z"/><polygon class="cls-1" points="77.21 249.11 71.81 249.11 71.81 277.52 85.09 277.52 85.09 272.36 77.21 272.36 77.21 249.11"/><path class="cls-1" d="M105.79,248.39a14.87,14.87,0,0,0-12.86,7.42,15.19,15.19,0,0,0,2.26,18,14.85,14.85,0,0,0,21,.12,14.34,14.34,0,0,0,4.28-10.53,14.53,14.53,0,0,0-4.33-10.64A14.13,14.13,0,0,0,105.79,248.39Zm6.59,21.83a8.84,8.84,0,0,1-6.56,2.78,9.35,9.35,0,0,1-6-2.14,9.11,9.11,0,0,1-3.38-7.46,9.51,9.51,0,0,1,2.69-7,9.31,9.31,0,0,1,13.26.07,10,10,0,0,1,0,13.72Z"/><path class="cls-1" d="M144.64,262a7.86,7.86,0,0,0,1.35-4.69,8.55,8.55,0,0,0-1.22-4.61,6.87,6.87,0,0,0-3.21-2.79,19,19,0,0,0-6.71-.84h-5.73v28.41h5.41v-12h.5l6.39,12h5.91l-6.73-12.63A8.19,8.19,0,0,0,144.64,262Zm-4.86-2.51a6.53,6.53,0,0,1-3.55.68h-1.7v-5.83H136a9.79,9.79,0,0,1,3,.3,2.65,2.65,0,0,1,1.29,1,2.77,2.77,0,0,1,.48,1.62A2.53,2.53,0,0,1,139.78,259.53Z"/><path class="cls-1" d="M163.53,249.11l-10.95,28.41h5.62l2.31-5.85H172.1l2.23,5.85H180L169,249.11Zm-1,17.28,3.81-9.75,3.79,9.75Z"/><path class="cls-1" d="M202.92,250.64q-3-1.53-9.2-1.53h-6.41v28.41h6.51a29.19,29.19,0,0,0,7.75-.7,10.54,10.54,0,0,0,4.16-2.51,12.4,12.4,0,0,0,3-4.57,17.48,17.48,0,0,0-.86-14.1A12,12,0,0,0,202.92,250.64Zm.39,17.89a6.48,6.48,0,0,1-2.74,2.87,12.66,12.66,0,0,1-5.38.85h-2.51V254.32h1.84q5,0,7.32,2.24a9.46,9.46,0,0,1,2.53,7A10.6,10.6,0,0,1,203.31,268.53Z"/><path class="cls-1" d="M241.94,252.76a14.13,14.13,0,0,0-10.37-4.37A15,15,0,0,0,221,273.81a14.85,14.85,0,0,0,21,.12,14.38,14.38,0,0,0,4.28-10.53A14.54,14.54,0,0,0,241.94,252.76Zm-3.78,17.46a8.81,8.81,0,0,1-6.55,2.78,9.31,9.31,0,0,1-6-2.14,9.09,9.09,0,0,1-3.39-7.46,9.55,9.55,0,0,1,2.69-7,9.31,9.31,0,0,1,13.26.07,10,10,0,0,1,0,13.72Z"/></g></g></svg>