<svg xmlns="http://www.w3.org/2000/svg" viewBox="0 0 25.38 25.38"><defs><style>.cls-1{fill:#ed2024;}</style></defs><g id="Layer_2" data-name="Layer 2"><g id="Layer_1-2" data-name="Layer 1"><path class="cls-1" d="M12.69,0A12.69,12.69,0,1,0,25.38,12.69,12.7,12.7,0,0,0,12.69,0Zm0,24.38A11.69,11.69,0,1,1,24.38,12.69,11.7,11.7,0,0,1,12.69,24.38Z"/><polygon class="cls-1" points="13.38 14.82 13.78 6.87 11.62 6.87 12.02 14.82 13.38 14.82"/><path class="cls-1" d="M12.7,16.13a1.18,1.18,0,0,0-.87.3,1.42,1.42,0,0,0,0,1.77,1.18,1.18,0,0,0,.87.32,1.08,1.08,0,0,0,.84-.33,1.24,1.24,0,0,0,.3-.88,1.17,1.17,0,0,0-.29-.86A1.12,1.12,0,0,0,12.7,16.13Z"/></g></g></svg>