<svg xmlns="http://www.w3.org/2000/svg" width="36.159" height="36.159" viewBox="0 0 36.159 36.159">
  <g id="dc2946229e3b343dd62b5db66596b1b8" transform="translate(-10 -10)">
    <path id="Path_1620" data-name="Path 1620" d="M308.728,176.759a7.33,7.33,0,1,1,7.328-7.331A7.337,7.337,0,0,1,308.728,176.759Zm0-13.139a5.811,5.811,0,1,0,5.811,5.811A5.815,5.815,0,0,0,308.728,163.62Z" transform="translate(-280.648 -146.488)" fill="#00001a"/>
    <path id="Path_1621" data-name="Path 1621" d="M190.632,531.021a.759.759,0,0,1-.76-.76,10.776,10.776,0,0,0-21.552,0,.76.76,0,0,1-1.52,0,12.3,12.3,0,0,1,24.592,0A.764.764,0,0,1,190.632,531.021Z" transform="translate(-151.015 -489.256)" fill="#00001a"/>
    <path id="Path_1622" data-name="Path 1622" d="M28.08,46.159a18.08,18.08,0,1,1,18.08-18.08A18.1,18.1,0,0,1,28.08,46.159Zm0-34.639A16.559,16.559,0,1,0,44.643,28.08,16.577,16.577,0,0,0,28.08,11.52Z" transform="translate(0 0)" fill="#00001a"/>
  </g>
</svg>
