<svg xmlns="http://www.w3.org/2000/svg" viewBox="0 0 27.01 21.66"><defs><style>.cls-1{fill:#ffffff;}</style></defs><g id="Layer_2" data-name="Layer 2"><g id="Layer_1-2" data-name="Layer 1"><path class="cls-1" d="M13.65,9.88a.54.54,0,0,0,.76,0,.53.53,0,0,0,0-.77l-.75-.76.75-.77a.54.54,0,1,0-.76-.76l-.76.76-.76-.76a.52.52,0,0,0-.76,0,.54.54,0,0,0,0,.76l.76.77L10.59,9.88l-.75-.76a.54.54,0,1,0-.77.77l.76.76L8.3,12.19l-.76-.76a.53.53,0,0,0-.77,0,.55.55,0,0,0,0,.77l.76.76-.76.76a.54.54,0,1,0,.77.77l.76-.77.76.77a.54.54,0,0,0,.76,0,.55.55,0,0,0,0-.77L9.06,13l1.53-1.54.76.76a.54.54,0,0,0,.77-.77l-.76-.76,1.53-1.54Z"/><path class="cls-1" d="M22.51,8.16A6.66,6.66,0,0,0,21,7.78c.53-3,.26-5.75-.88-6.75-1.67-1.47-6.4-1.36-10.62.3a14.81,14.81,0,0,0-5,3.18A15,15,0,0,0,1.29,9.72C-.33,14-.43,18.82,1,20.27s6.3,1.35,10.58-.3a16.62,16.62,0,0,0,2.67-1.33,6.92,6.92,0,0,0,3.26,2.57,7.09,7.09,0,0,0,2.47.45,7,7,0,0,0,2.49-13.5ZM18,1.33a3.15,3.15,0,0,1,1.43.52,2.06,2.06,0,0,1,.47,1,11.18,11.18,0,0,1,.23,2.79l-.23-.23-4.08-4.1-.17-.16A13.55,13.55,0,0,1,18,1.33ZM3.2,20a3,3,0,0,1-1.41-.48,3.2,3.2,0,0,1-.5-1.56,13.32,13.32,0,0,1-.11-2.09l.11.11,4,4,.14.14A13.42,13.42,0,0,1,3.2,20Zm4.2,0h0a4.43,4.43,0,0,1-.51.06L6.81,20l0-.06L1.42,14.55a.38.38,0,0,0-.13-.09l0,0c0-.11,0-.22,0-.34a1.1,1.1,0,0,0,0-.18A14.83,14.83,0,0,1,5.24,5.28a14.68,14.68,0,0,1,8.39-3.95l.12,0,.55-.06a.35.35,0,0,0,0,.08.29.29,0,0,0,.09.15l5.34,5.37s.08,0,.12.07A.54.54,0,0,0,20,7c0,.15,0,.29-.05.44s0,.19-.05.28a7,7,0,0,0-6.16,10A15.88,15.88,0,0,1,7.4,20Zm10,0a5.93,5.93,0,0,1-3.1-6.92,4.85,4.85,0,0,1,3,2.82A4.86,4.86,0,0,1,17.45,20Zm1.1.4a5.88,5.88,0,0,0-.16-5A5.92,5.92,0,0,0,14.79,12,5.92,5.92,0,0,1,20,8.78,6.07,6.07,0,0,1,21.38,9,5.89,5.89,0,0,0,21.51,14a6.23,6.23,0,0,0,3.35,3.38h0l.36.09A5.92,5.92,0,0,1,18.55,20.4Zm7.13-4a4.79,4.79,0,0,1-3.11-2.86,4.81,4.81,0,0,1-.07-4.22A5.93,5.93,0,0,1,25.68,16.4Z"/></g></g></svg>