<?xml version="1.0" encoding="utf-8"?>
<!-- Generator: Adobe Illustrator 26.0.0, SVG Export Plug-In . SVG Version: 6.00 Build 0)  -->
<svg version="1.1" id="Layer_1" xmlns="http://www.w3.org/2000/svg" xmlns:xlink="http://www.w3.org/1999/xlink" x="0px" y="0px"
	 viewBox="0 0 10.604 21.66" style="enable-background:new 0 0 10.604 21.66;" xml:space="preserve">
<style type="text/css">
	.st0{fill:#057C1D;}
</style>
<path class="st0" d="M3.873,16.101c-0.05,0-0.084-0.001-0.119,0c-0.419,0.007-0.837,0.003-1.249-0.085
	c-0.732-0.157-1.351-0.5-1.806-1.107c-0.293-0.39-0.468-0.833-0.565-1.308c-0.061-0.299-0.089-0.601-0.089-0.906
	c0-1.893,0-3.785,0-5.678c0-0.219,0.022-0.435,0.086-0.646C0.28,5.884,0.626,5.608,1.134,5.573c0.172-0.012,0.343,0.004,0.509,0.055
	c0.27,0.083,0.471,0.25,0.604,0.499c0.108,0.202,0.159,0.421,0.175,0.647C2.43,6.888,2.432,7.003,2.432,7.117
	c0.001,1.757,0,3.513,0.002,5.27c0,0.186,0.014,0.371,0.031,0.556c0.008,0.088,0.033,0.175,0.059,0.261
	c0.113,0.376,0.369,0.598,0.751,0.665c0.189,0.033,0.383,0.036,0.581,0.052c0.007-0.035,0.014-0.058,0.016-0.081
	c0.002-0.039,0.001-0.079,0.001-0.118c0-3.463-0.001-6.926,0.001-10.39c0-0.494,0.021-0.987,0.1-1.476
	c0.054-0.333,0.128-0.661,0.276-0.966C4.31,0.77,4.377,0.65,4.459,0.543c0.305-0.404,0.723-0.541,1.213-0.48
	c0.336,0.042,0.602,0.213,0.813,0.475c0.21,0.262,0.333,0.566,0.42,0.885c0.088,0.322,0.139,0.65,0.155,0.983
	c0.013,0.275,0.021,0.55,0.022,0.826c0.002,2.422,0.001,4.844,0.001,7.266c0,0.049,0,0.098,0,0.162
	c0.071-0.008,0.127-0.012,0.182-0.021c0.486-0.081,0.753-0.34,0.856-0.82c0.047-0.219,0.051-0.44,0.051-0.662
	c0.001-1.771,0.001-3.542,0.001-5.313c0-0.229,0.011-0.458,0.075-0.68C8.289,3.016,8.35,2.876,8.442,2.75
	c0.16-0.219,0.38-0.344,0.642-0.396c0.217-0.043,0.435-0.038,0.648,0.021c0.334,0.091,0.56,0.304,0.693,0.621
	c0.081,0.194,0.116,0.397,0.129,0.605c0.005,0.071,0.004,0.143,0.004,0.215c0,1.868,0,3.735,0,5.603
	c0,0.483-0.057,0.957-0.218,1.413c-0.364,1.031-1.09,1.662-2.146,1.92c-0.317,0.078-0.641,0.11-0.967,0.109
	c-0.042,0-0.085,0-0.139,0c-0.002,0.054-0.006,0.099-0.006,0.144c0,0.848,0,1.696,0,2.544c0,1.03-0.001,2.061,0,3.091
	c0,0.437-0.027,0.872-0.11,1.302c-0.057,0.296-0.142,0.583-0.279,0.853c-0.08,0.157-0.179,0.301-0.299,0.43
	c-0.493,0.528-1.399,0.517-1.88-0.046c-0.192-0.224-0.318-0.483-0.408-0.76C4,20.097,3.936,19.766,3.914,19.43
	c-0.023-0.349-0.036-0.7-0.039-1.05c-0.006-0.708-0.002-1.417-0.002-2.125C3.873,16.209,3.873,16.163,3.873,16.101z"/>
</svg>
